<svg width="9104" height="9456" viewBox="0 0 9104 9456" fill="none" xmlns="http://www.w3.org/2000/svg">
<g clip-path="url(#clip0_112_67)">
<rect width="9104" height="9456" fill="white"/>
<path d="M4810.21 1868.77C4810.21 1868.77 4660.68 1868.77 4529.24 1909.37C4430.55 1939.85 4367.88 1985.92 4288.88 2052.46C4186.11 2142.9 4011.93 2351.11 4059.36 2530.78C4122.47 2425.88 4299.33 2215.71 4393.38 2195.56C4529.24 2166.44 4590.21 2118.78 4617.67 2086.23C4617.67 2086.23 4618.16 2151.05 4636.57 2186.31C4665.95 2242.59 4704.65 2275.08 4768 2279.16C4880.15 2286.4 4893.31 2277.65 4964.96 2289.3C5003.15 2292.49 5082.73 2325.79 5082.73 2469.29C5082.73 2528.78 5099.21 2588.67 5199.3 2660.62C5222.21 2677.09 5229.84 2704.86 5229.84 2719.3C5229.84 2732.88 5222.87 2748.37 5214.35 2762.54C5205.39 2777.41 5199.97 2794.3 5201.42 2811.6C5204.87 2852.74 5212.31 2932.62 5222.21 2989.01C5246.4 3126.8 5315.79 3141.1 5358.2 3135.92C5381.88 3133.02 5402.09 3119.07 5421.22 3104.82C5436.19 3093.66 5456.91 3078.44 5483.07 3059.75C5523.78 3030.68 5560.38 3019.89 5608.48 3033.63C5664.64 3049.66 5699.32 3143.36 5699.32 3143.36C5733.92 3229.76 5675.97 3372.02 5669.72 3386.88C5669.34 3387.79 5669 3388.6 5668.63 3389.51C5642.69 3453.19 5561.31 3504.04 5537.48 3503.11C5539.74 3510.32 5542.72 3525.5 5544.13 3533.25C5638.59 3499.49 5692.45 3415.48 5718.98 3361.62C5718.98 3361.62 5725.2 3324.13 5731.21 3263.14C5731.25 3262.73 5731.29 3262.32 5731.33 3261.91C5746.8 3104.18 5760.65 2791.53 5663.55 2562.14C5575.92 2355.13 5475.56 2196.19 5243.91 2026.74C5053.79 1887.66 4810.21 1868.77 4810.21 1868.77Z" fill="black"/>
<path d="M5106.85 1635.24C5070.74 1694.85 5094.79 1807.68 5094.79 1807.68C5063.59 1809.31 5017 1813.4 4969.78 1820.56C4969.78 1820.56 5238.12 1849.45 5387.81 1926.65C5514.29 1981.45 5736.71 2079.39 5854.88 2469.29C5973.05 2859.18 5817.5 3193.6 5731.21 3263.14C5725.2 3324.13 5718.98 3361.62 5718.98 3361.62C5718.98 3361.62 5825.49 3253.69 5873.77 3174.31C5936.56 3071.08 5973.05 2881.29 5973.05 2881.29C5973.05 2881.29 6114.36 2905.4 6221.46 2732.97C6267.46 2658.91 6264.47 2513.9 6264.47 2513.9C6264.47 2513.9 6410.9 2473.31 6477.9 2309.71C6518.66 2210.21 6515.48 2135.12 6477.9 2034.37C6443.67 1942.56 6319.94 1839.43 6319.94 1839.43C6319.94 1839.43 6319.94 1630.5 6211.81 1515.86C6142.57 1442.44 6083.9 1407.66 5983.91 1394.07C5905.51 1383.41 5783.33 1422.6 5783.33 1422.6C5783.33 1422.6 5699.86 1324 5613.31 1309.66C5528.62 1295.62 5457.39 1306.41 5387.81 1356.69C5315.33 1409.06 5260.79 1547.21 5260.79 1547.21C5260.79 1547.21 5160.16 1547.21 5106.85 1635.24Z" fill="black"/>
<path d="M4691.23 8437.06C4740.27 8384.94 4839.95 8277.49 4846.38 8264.63H5431.22C5492.32 8264.63 5596.67 8242.6 5594.42 8143.24C5684.87 8139.8 5849.78 8126.54 6042.99 8097.91C6218.51 8071.9 6417.38 8033.19 6605.01 7977.63C6559.65 7868.01 6528.95 7809.21 6528.95 7809.21C6103.69 7944.27 5726.77 7971.07 5500.73 7977.63C5491.3 8013.42 5482.08 8040.96 5476.77 8056.83L5476.64 8057.22C5442.08 8172.18 4964.56 8135.33 4742.28 8106.66C4700.62 8151.63 4624.18 8168.29 4519.5 8169.02L4691.23 8437.06Z" fill="black"/>
<path d="M3172.59 6115.39C3068.99 5860.07 2874.23 5712.77 2794.82 5669.22V5796.24C2794.82 5796.24 2950.73 5954.83 3007.05 6080.82C3069.97 6221.57 3075.79 6513.36 3075.79 6513.36L3192.68 6438.96C3171.54 6319.46 3166.95 6211.76 3172.59 6115.39Z" fill="black"/>
<path d="M4599.59 4097.99C4482.76 4126.85 4389.95 4136.79 4292.49 4120.99V4202.1V4255.36V4308.62C4429.83 4300.78 4730.62 4234.66 4989.88 3915.11C4931.06 3961.7 4812.14 4045.49 4599.59 4097.99Z" fill="black"/>
<path d="M5903.52 6504.88C5912.17 6578.04 5933.82 6572.41 6029.33 6569.19L6012.85 6481.97C6090.56 6401.04 6317.53 6241.6 6665.21 6180.1C6790.22 6163.76 6969.65 6132.92 7055.51 6158L7086.46 6293.45C7154.19 6249.09 7296.37 6092.25 7210.66 6040.01C7204.47 6036.24 7197.14 6032.94 7188.56 6030.18C6633.86 5918.03 6096.18 6301.49 5903.52 6504.88Z" fill="black"/>
<path d="M5038.7 9039.59C5120.7 9164.68 5021.82 9253.43 4936.21 9305.68C4918.04 9316.4 4900.59 9326.71 4883.76 9336.65C4901.24 9364.24 4936.21 9444.84 4936.21 9546.45H6951.4C6951.4 9546.45 6900.97 8959.53 6812.33 8610.71C6741.19 8330.77 6661.67 8114.56 6605.01 7977.63C6417.38 8033.19 6218.51 8071.9 6042.99 8097.91C5849.78 8126.54 5684.87 8139.8 5594.42 8143.24C5596.67 8242.6 5492.32 8264.63 5431.22 8264.63H4846.38C4839.95 8277.49 4740.27 8384.94 4691.23 8437.06L5038.7 9039.59Z" fill="#1E3A8A"/>
<path d="M3483.77 7976.33C3265.11 8414.06 2882.05 9373.61 2816.12 9546.45H4087.58C4062.38 9516.89 4043.71 9484.79 4030.02 9457.62C3943.6 9286.12 3756.77 8908.55 3700.82 8770.28C3644.87 8632.01 3714.63 8428.35 3756.51 8343.81C3695.72 8327.6 3677.86 8261.84 3676.3 8221.62C3676.3 8221.62 3593.46 8175.52 3563.76 8126.76C3537.29 8083.32 3542.45 8010.99 3542.45 8010.99C3542.45 8010.99 3512.07 7998.45 3483.77 7976.33Z" fill="#1E3A8D"/>
<path d="M6282.15 4484.67C6282.15 4484.67 6122.86 4441.26 5987.12 4779.3C5926.6 4930.02 5893.77 5130.79 5891.94 5142.16C5891.88 5142.53 5891.83 5142.85 5891.78 5143.22L5870.55 5290.58C5856.71 5535.02 5804.53 5737.46 5754.81 5866.58C5767.86 5915.6 5784.93 5981.02 5802.98 6052.28C5848.29 6231.1 5893.4 6419.35 5903.52 6504.88C6096.18 6301.49 6633.86 5918.03 7188.56 6030.18C7197.14 6032.94 7204.47 6036.24 7210.66 6040.01L6942.56 5345.65C6812.33 5013.48 6654.11 4779.3 6575.58 4688.06C6440.52 4531.14 6323.69 4487.08 6282.15 4484.67Z" fill="#AFD1FA"/>
<path d="M3643.74 6965.86C3662 6967.49 3680.35 6971.17 3697.6 6977.96C3719.31 6986.5 3734.99 7049.91 3694.39 7076.03C3922.43 7136.33 4531.33 7279.92 5020.43 7156.44C4858.36 6929.09 4851.61 6402.5 4883.76 6207.84C4883.76 6207.84 4401.35 6220.5 4097.55 6175.68C3740.61 6123.03 3536.82 6008.87 3536.82 6008.87C3536.82 6008.87 3473.42 6217.89 3496.63 6469.91C3519.84 6721.94 3643.74 6965.86 3643.74 6965.86Z" fill="#4766C0"/>
<path d="M3906.22 4439.65C3951.64 4378.85 4049.96 4254.9 4079.86 4245.51C4079.86 4245.51 3807.34 4263.69 3597.12 4367.7C3413.88 4458.37 3328.47 4546.62 3190.74 4697.71C3055.5 4846.06 2894.1 5125.5 2894.1 5125.5V5152.72C2894.1 5152.72 2898.63 5223.61 2867.98 5264.46C2844.04 5296.35 2778.74 5323.14 2778.74 5323.14C2779.91 5331.42 2781.01 5340.38 2782.04 5349.92C2791.24 5435.43 2794.82 5567.61 2794.82 5669.22C2874.23 5712.77 3068.99 5860.07 3172.59 6115.39C3186.07 5884.81 3258.1 5719.1 3302.08 5611.74C3309.09 5593 3316.15 5574.37 3323.29 5555.87C3513.1 5063.46 3747 4660.08 3906.22 4439.65Z" fill="#AFD1FA"/>
<path d="M4362.43 7426.15C4362.43 7426.15 4126.09 7317.23 3952.44 7282.66C3857.09 7263.67 3805.72 7260.41 3704.83 7281.15C3702.45 7281.64 3700.04 7282.14 3697.6 7282.66C3638.36 7295.2 3600.94 7307.65 3558.4 7329.58C3551.45 7333.17 3544.35 7337 3537.01 7341.14C3537 7341.14 3537 7341.14 3537 7341.14C3521.22 7350.02 3499.36 7363 3481.35 7374.3C3379.9 7437.98 3328.06 7488.44 3261.08 7587.74C3215.54 7655.27 3111.56 7775.85 3190.74 7861.47C3227.32 7895.23 3324.59 7874.97 3427.49 7758.57C3434.7 7751.49 3442.65 7743.82 3451.21 7735.71C3464.58 7723.04 3479.46 7709.28 3495.42 7694.93C3425 7780.68 3420.26 7867.99 3440.36 7922.56C3448.22 7943.92 3465.57 7962.11 3483.77 7976.33C3512.07 7998.45 3542.45 8010.99 3542.45 8010.99C3542.45 8010.99 3537.29 8083.32 3563.76 8126.76C3593.46 8175.52 3676.3 8221.62 3676.3 8221.62C3677.86 8261.84 3695.72 8327.6 3756.51 8343.81C3770.17 8347.45 3786.48 8345.86 3804.98 8342.48C3815.39 8340.58 3825.44 8337.25 3834.76 8332.24C3938.46 8276.54 4082.8 8131.38 4241.45 8149.27C4347.98 8161.27 4441.56 8169.56 4519.5 8169.02C4624.18 8168.29 4700.62 8151.63 4742.28 8106.66C4964.56 8135.33 5442.08 8172.18 5476.64 8057.22L5476.77 8056.83C5482.08 8040.96 5491.3 8013.42 5500.73 7977.63C5512.65 7932.4 5524.92 7873.97 5530.1 7809.21C5553.25 7525.28 5421.17 7318.83 5332.34 7223.17C5327.39 7216.85 5322.7 7211.24 5318.22 7206.28C5270.28 7153.26 5246.53 7174.85 5192.87 7195.43L4595.57 7426.15C4490.66 7474.79 4404.5 7445.85 4362.43 7426.15Z" fill="#EFA800"/>
<path d="M5581.95 6101.72C5486.15 6121.21 5378.16 5956.62 5378.16 5956.62C5373.86 5949.36 5369.62 5942.32 5365.42 5935.48C5365.42 5935.48 5307.39 6174.29 5330.67 6346.11C5352.81 6509.44 5397.29 6627.17 5473.37 6773.38C5530.29 6882.78 5647.45 7025.74 5655.56 7035.59C5765.96 6984.12 5884.07 6931.63 5978.28 6895.98C6020.61 6879.96 6068.05 6863.39 6114.72 6847.76C6084.83 6783.8 6043.23 6631.07 6029.33 6569.19C5933.82 6572.41 5912.17 6578.04 5903.52 6504.88C5893.4 6419.35 5848.29 6231.1 5802.98 6052.28C5802.98 6052.28 5760.79 6076.69 5731.08 6077.2C5699.8 6077.74 5654.96 6052.28 5654.96 6052.28C5635.18 6075.23 5610.25 6095.97 5581.95 6101.72Z" fill="#AFD1FA"/>
<path d="M2268.92 3206.47C2320.49 3147.41 2359.47 3085.67 2388.28 3028.4C2388.28 3028.4 2232.49 2917.86 2172.6 3028.4C2134.54 3098.65 2262.54 3213.7 2262.54 3213.7C2264.68 3211.29 2266.8 3208.88 2268.92 3206.47Z" fill="#EFA800"/>
<path d="M4810.21 1868.77C4810.21 1868.77 5053.79 1887.66 5243.91 2026.74C5475.56 2196.19 5575.92 2355.13 5663.55 2562.14C5760.65 2791.53 5746.8 3104.18 5731.33 3261.91L5731.21 3263.14C5817.5 3193.6 5973.05 2859.18 5854.88 2469.29C5736.71 2079.39 5514.29 1981.45 5387.81 1926.65C5238.12 1849.45 4969.78 1820.56 4969.78 1820.56C4905.08 1830.35 4839.21 1845.9 4810.21 1868.77Z" fill="#AFD1FA"/>
<path d="M5367.13 3591.94C5343.16 3577.14 5334 3560.93 5328.73 3543.7C5328.73 3543.7 5266.95 3643.26 5260.8 3714.93C5254.35 3790.05 5265.41 3851.49 5290.5 3895.87C5290.72 3896.25 5290.93 3896.63 5291.15 3897C5324.03 3954.23 5380.5 3982.69 5452.99 3975C5563.54 3963.27 5624.15 3854.5 5618.6 3743.47C5612.5 3621.68 5542.97 3573 5542.97 3573C5538.9 3594.99 5523.27 3620.48 5508.8 3635.19C5508.8 3635.19 5532.65 3681.17 5532.65 3748.95C5532.65 3816.35 5507.86 3873.92 5440.46 3874.91C5372.31 3875.91 5333.95 3842.9 5333.95 3736.64C5333.95 3663.48 5375.81 3610.43 5375.81 3610.43C5372.37 3604.66 5369.46 3598.47 5367.13 3591.94Z" fill="#EFA800"/>
<path d="M5464.18 3432.76C5405.52 3424.08 5363.66 3484.48 5360.48 3543.7C5359.55 3560.89 5361.9 3577.28 5367.13 3591.94C5369.46 3598.47 5372.37 3604.66 5375.81 3610.43C5391.51 3636.67 5418.41 3654.04 5453.33 3654.64C5478.42 3655.08 5493.36 3650.89 5508.8 3635.19C5523.27 3620.48 5538.9 3594.99 5542.97 3573C5545.78 3557.78 5547.05 3549.26 5544.13 3533.25C5542.72 3525.5 5539.74 3510.32 5537.48 3503.11C5526.09 3466.76 5503.43 3438.57 5464.18 3432.76Z" fill="#EFA800"/>
<path d="M5754.81 5866.58C5736.67 5913.69 5718.85 5951.04 5703.34 5977.12C5703.34 5977.12 5685.13 6017.28 5654.96 6052.28C5654.96 6052.28 5699.8 6077.74 5731.08 6077.2C5760.79 6076.69 5802.98 6052.28 5802.98 6052.28C5784.93 5981.02 5767.86 5915.6 5754.81 5866.58Z" fill="black"/>
<path d="M3968.12 2831.04C3968.12 2831.04 3866.75 3079.03 3845.52 3247.06C3808.45 3540.49 3898.98 3781.66 3898.98 3781.66C3898.98 3781.66 3968.12 4006.35 4123.27 4070.66C4184.23 4095.93 4239.06 4112.33 4292.49 4120.99C4389.95 4136.79 4482.76 4126.85 4599.59 4097.99C4812.14 4045.49 4931.06 3961.7 4989.88 3915.11C4730.62 4234.66 4429.83 4300.78 4292.49 4308.62C4292.49 4308.62 4259.25 4560.77 4333.9 4668.36C4412.69 4781.93 4492.71 4814.67 4630.94 4814.67C4842.89 4814.67 4972.59 4725.75 5124.41 4589.46C5272.45 4456.57 5388.5 4187.31 5388.5 4187.31C5281.3 4130.84 5280.09 3973.98 5291.15 3897C5290.93 3896.63 5290.72 3896.25 5290.5 3895.87C5265.41 3851.49 5254.35 3790.05 5260.8 3714.93C5266.95 3643.26 5328.73 3543.7 5328.73 3543.7C5334 3560.93 5343.16 3577.14 5367.13 3591.94C5361.9 3577.28 5359.55 3560.89 5360.48 3543.7C5363.66 3484.48 5405.52 3424.08 5464.18 3432.76C5503.43 3438.57 5526.09 3466.76 5537.48 3503.11C5561.31 3504.04 5642.69 3453.19 5668.63 3389.51C5669 3388.6 5669.34 3387.79 5669.72 3386.88C5675.97 3372.02 5733.92 3229.76 5699.32 3143.36C5699.32 3143.36 5664.64 3049.66 5608.48 3033.63C5560.38 3019.89 5523.78 3030.68 5483.07 3059.75C5456.91 3078.44 5436.19 3093.66 5421.22 3104.82C5402.09 3119.07 5381.88 3133.02 5358.2 3135.92C5315.79 3141.1 5246.4 3126.8 5222.21 2989.01C5212.31 2932.62 5204.87 2852.74 5201.42 2811.6C5199.97 2794.3 5205.39 2777.41 5214.35 2762.54C5222.87 2748.37 5229.84 2732.88 5229.84 2719.3C5229.84 2704.86 5222.21 2677.09 5199.3 2660.62C5099.21 2588.67 5082.73 2528.78 5082.73 2469.29C5082.73 2325.79 5003.15 2292.49 4964.96 2289.3C4893.31 2277.65 4880.15 2286.4 4768 2279.16C4704.65 2275.08 4665.95 2242.59 4636.57 2186.31C4618.16 2151.05 4617.67 2086.23 4617.67 2086.23C4590.21 2118.78 4529.24 2166.44 4393.38 2195.56C4299.33 2215.71 4122.47 2425.88 4059.36 2530.78C4053.62 2542.67 4047.39 2557.13 4040.98 2573.39C4011.96 2646.98 3978.98 2757.3 3968.12 2831.04Z" fill="#B5602A"/>
<path d="M5318.22 7206.28C5322.7 7211.24 5327.39 7216.85 5332.34 7223.17C5421.17 7318.83 5553.25 7525.28 5530.1 7809.21C5524.92 7873.97 5512.65 7932.4 5500.73 7977.63C5726.77 7971.07 6103.69 7944.27 6528.95 7809.21C6645.52 7772.19 6856.14 7701.19 6978.33 7617.08C7294.27 7399.62 7207.85 7000.89 7162.43 6699.02L7086.46 6293.45L7055.51 6158C6969.65 6132.92 6790.22 6163.76 6665.21 6180.1C6317.53 6241.6 6090.56 6401.04 6012.85 6481.97L6029.33 6569.19C6043.23 6631.07 6084.83 6783.8 6114.72 6847.76C6068.05 6863.39 6020.61 6879.96 5978.28 6895.98C5884.07 6931.63 5765.96 6984.12 5655.56 7035.59C5486.91 7114.21 5337.98 7195.44 5318.22 7206.28Z" fill="#B5602A"/>
<path d="M4333.9 4668.36C4259.25 4560.77 4292.49 4308.62 4292.49 4308.62V4255.36C4292.49 4255.36 4161.28 4413.53 3906.22 4908.33C3783.09 5147.19 3623.65 5535.78 3623.65 5535.78C3623.65 5535.78 3815.62 5632.57 4213.95 5688.12C4463.63 5722.93 4859.49 5688.12 4859.49 5688.12C4859.16 5677.5 4859.51 5666.3 4860.49 5654.58C4879.61 5425.98 5137.29 5001.38 5227.43 4859.29C5309.85 4729.38 5479.36 4413.39 5553.82 4271.64C5563.61 4255.56 5574.12 4241.19 5586.21 4229.38C5586.8 4228.8 5587.4 4228.23 5588 4227.66L5508.8 4214.16L5412.73 4197.68C5404.11 4194.76 5396.04 4191.28 5388.5 4187.31C5388.5 4187.31 5272.45 4456.57 5124.41 4589.46C4972.59 4725.75 4842.89 4814.67 4630.94 4814.67C4492.71 4814.67 4412.69 4781.93 4333.9 4668.36Z" fill="#AFD1FA"/>
<path d="M2032.32 3755.93C1979.66 3775.23 1884.8 3879.73 1960.37 4005.95C1978.48 4036.19 1999.76 4069.88 2024.9 4099.6C2068.38 4151.02 2123.4 4190.59 2193.5 4179.99C2230.08 4174.46 2258.86 4121.31 2237.31 4050.56C2147.25 3937.42 2100.35 3873.29 2032.32 3755.93Z" fill="#EFA800"/>
<path d="M2124.77 3593.14C2037.95 3625.3 2026.96 3715.07 2032.32 3755.93C2100.35 3873.29 2147.25 3937.42 2237.31 4050.56C2237.31 4050.56 2310.49 4114.2 2361.52 4099.6C2403.56 4087.57 2430.58 4063.57 2441.51 4021.22C2449 3992.17 2441.51 3939.22 2441.51 3939.22C2320.92 3843.16 2162.95 3689.61 2124.77 3593.14Z" fill="#EFA800"/>
<path d="M5553.82 4271.64C5479.36 4413.39 5309.85 4729.38 5227.43 4859.29C5137.29 5001.38 4879.61 5425.98 4860.49 5654.58C4859.51 5666.3 4859.16 5677.5 4859.49 5688.12C4860.07 5707.11 4862.84 5724.24 4868.09 5739.16C4873 5743.59 4884.46 5749.3 4898.85 5746.33C4908.1 5744.42 4919.77 5746.9 4926.14 5753.89C4945.86 5775.5 4991.69 5811.2 5065.97 5839.5C5065.97 5839.5 5065.97 5839.5 5065.97 5839.49C5086.82 5792.83 5111.74 5748.64 5139.81 5718.26C5177.01 5717.75 5252.69 5751.85 5365.42 5935.48C5369.62 5942.32 5373.86 5949.36 5378.16 5956.62C5378.16 5956.62 5486.15 6121.21 5581.95 6101.72C5610.25 6095.97 5635.18 6075.23 5654.96 6052.28C5685.13 6017.28 5703.34 5977.12 5703.34 5977.12C5718.85 5951.04 5736.67 5913.69 5754.81 5866.58C5804.53 5737.46 5856.71 5535.02 5870.55 5290.58L5891.78 5143.22C5891.83 5142.85 5891.88 5142.53 5891.94 5142.16C5893.77 5130.79 5926.6 4930.02 5987.12 4779.3C6122.86 4441.26 6282.15 4484.67 6282.15 4484.67C6323.69 4487.08 6440.52 4531.14 6575.58 4688.06C6650.58 4775.2 6798.28 4992.74 6924.86 5301.5C6933.83 5271.89 6955.02 5204.57 6998.03 5179.65C7041.59 5154.41 7171.67 5065.49 7084.85 4898.68C7043.69 4826.65 6865.92 4721.02 6782.18 4677.21C6617.78 4561.04 6433.69 4396.64 6331.99 4339.17L6326.76 4336.85C6254.05 4304.71 6141.78 4255.08 6022.49 4235.46C5949.58 4223.47 5800.21 4213.26 5698.52 4197.68C5648.26 4189.98 5614.35 4202.8 5588 4227.66C5587.4 4228.23 5586.8 4228.8 5586.21 4229.38C5574.12 4241.19 5563.61 4255.56 5553.82 4271.64Z" fill="#4766C0"/>
<path d="M4292.49 4202.1C4233.14 4210.14 4113.63 4230.08 4079.86 4245.51C4049.96 4254.9 3951.64 4378.85 3906.22 4439.65C3747 4660.08 3513.1 5063.46 3323.29 5555.87C3316.15 5574.37 3309.09 5593 3302.08 5611.74C3258.1 5719.1 3186.07 5884.81 3172.59 6115.39C3166.95 6211.76 3171.54 6319.46 3192.68 6438.96C3202.77 6496.01 3216.64 6555.75 3234.96 6618.23C3273.1 6748.3 3383.51 6998.93 3402 7031.89C3440.73 7006.57 3483.64 6985.32 3527.18 6975.57L3527.61 6975.48C3553.44 6970.49 3598.29 6961.82 3643.74 6965.86C3643.74 6965.86 3519.84 6721.94 3496.63 6469.91C3473.42 6217.89 3536.82 6008.87 3536.82 6008.87C3536.82 6008.87 3740.61 6123.03 4097.55 6175.68C4401.35 6220.5 4883.76 6207.84 4883.76 6207.84C4851.61 6402.5 4858.36 6929.09 5020.43 7156.44C4531.33 7279.92 3922.43 7136.33 3694.39 7076.03C3674.15 7085.82 3649.28 7100.07 3622 7116.92L3704.83 7281.15C3805.72 7260.41 3857.09 7263.67 3952.44 7282.66C4126.09 7317.23 4362.43 7426.15 4362.43 7426.15C4404.5 7445.85 4490.66 7474.79 4595.57 7426.15L5192.87 7195.43C5246.53 7174.85 5270.28 7153.26 5318.22 7206.28C5337.98 7195.44 5486.91 7114.21 5655.56 7035.59C5647.45 7025.74 5530.29 6882.78 5473.37 6773.38C5397.29 6627.17 5352.81 6509.44 5330.67 6346.11C5307.39 6174.29 5365.42 5935.48 5365.42 5935.48C5252.69 5751.85 5177.01 5717.75 5139.81 5718.26C5111.74 5748.64 5086.82 5792.83 5065.97 5839.49L5065.97 5839.5C4991.69 5811.2 4945.86 5775.5 4926.14 5753.89C4919.77 5746.9 4908.1 5744.42 4898.85 5746.33C4884.46 5749.3 4873 5743.59 4868.09 5739.16C4862.84 5724.24 4860.07 5707.11 4859.49 5688.12C4859.49 5688.12 4463.63 5722.93 4213.95 5688.12C3815.62 5632.57 3623.65 5535.78 3623.65 5535.78C3623.65 5535.78 3783.09 5147.19 3906.22 4908.33C4161.28 4413.53 4292.49 4255.36 4292.49 4255.36V4202.1Z" fill="#1E3A8A"/>
<path fill-rule="evenodd" clip-rule="evenodd" d="M2782.04 5349.92C2791.24 5435.43 2794.82 5567.61 2794.82 5669.22V5796.24C2794.82 5796.24 2950.73 5954.83 3007.05 6080.82C3069.97 6221.57 3075.79 6513.36 3075.79 6513.36L2759.85 6714.44C2602.29 6822.3 2264.65 7024.6 1974.44 6840.91C1675.79 6606.98 1764.62 5931.58 1853.85 5651.81C1911.84 5672.8 1976.05 5694.77 2049.2 5718.66C2190.69 5764.87 2257.03 5618.64 2294.26 5527.39C2401.84 5511.2 2665.4 5456.08 2782.04 5349.92Z" fill="#B5602A"/>
<path d="M2778.74 5323.14C2778.74 5323.14 2844.04 5296.35 2867.98 5264.46C2898.63 5223.61 2894.1 5152.72 2894.1 5152.72V5125.5V4849.64C2892.63 4717.27 2898.52 4423.41 2933.9 4307.01C2978.11 4161.5 3081.81 3976.6 2995.8 3804.57C2975.87 3763.93 2933.25 3704.46 2857.12 3646.16C2837.67 3631.26 2816.02 3616.44 2792.01 3602.03C2765.94 3586.39 2737.07 3571.22 2705.19 3556.98C2685.1 3548 2663.82 3539.39 2641.28 3531.24C2635.05 3528.77 2628.75 3526.3 2622.38 3523.86C2599.67 3515.13 2576.2 3506.65 2552.85 3499.13C2527.7 3491.02 2502.68 3484.02 2478.89 3478.97C2397.08 3461.61 2329.69 3467.39 2320.92 3531.24C2314.62 3577.06 2340.94 3654.72 2478.89 3727.39C2497.85 3737.39 2519.08 3745.77 2540.47 3754.06C2540.48 3754.07 2540.49 3754.07 2540.5 3754.08C2541.92 3754.63 2543.34 3755.17 2544.75 3755.72C2583.82 3770.85 2622.95 3786 2649.31 3810.37C2648.96 3887.57 2663.58 4052.48 2721.02 4159.09C2698.05 4249.26 2649.31 4456.94 2617.16 4616.11C2585 4775.28 2392.87 5285.69 2294.26 5527.39C2401.84 5511.2 2665.4 5456.08 2782.04 5349.92C2781.01 5340.38 2779.91 5331.42 2778.74 5323.14Z" fill="#EFA800"/>
<path d="M1441.45 5090.41C1407.69 5157.54 1391.21 5216.14 1471.6 5254.41L2091.81 5507.24C2178.63 5538.11 2205.04 5472.67 2220.03 5433.68C2318.46 5177.62 2380.99 5002.86 2443.89 4807.44C2473.74 4714.7 2503.67 4617.31 2537.57 4504.37C2571.98 4380.57 2541.99 4366.32 2506.22 4362.88C2292.78 4342.38 2045.58 4340.37 1903.69 4372.53C1793.77 4403.19 1745.75 4487.76 1704.97 4559.59C1701.91 4564.98 1698.89 4570.3 1695.89 4575.51L1619.81 4729.46L1441.45 5090.41Z" fill="#AFD1FA"/>
<path fill-rule="evenodd" clip-rule="evenodd" d="M3834.76 8332.24C3825.44 8337.25 3815.39 8340.58 3804.98 8342.48C3786.48 8345.86 3770.17 8347.45 3756.51 8343.81C3714.63 8428.35 3644.87 8632.01 3700.82 8770.28C3756.77 8908.55 3943.6 9286.12 4030.02 9457.62C4043.71 9484.79 4062.38 9516.89 4087.58 9546.45C4144.78 9613.52 4235.66 9667.46 4378.51 9620.81C4430.31 9594.22 4476.28 9569.96 4519.61 9546.45C4632.25 9485.33 4727.1 9429.26 4860.32 9350.51C4860.34 9350.5 4860.36 9350.49 4860.37 9350.48L4883.76 9336.65C4900.59 9326.71 4918.04 9316.4 4936.21 9305.68C5021.82 9253.43 5120.7 9164.68 5038.7 9039.59L4691.23 8437.06L4519.5 8169.02C4441.56 8169.56 4347.98 8161.27 4241.45 8149.27C4082.8 8131.38 3938.46 8276.54 3834.76 8332.24ZM4333.89 8369.94C4184.37 8446.31 3955.18 8576.79 3868.84 8651.7C3841.04 8675.82 3827.68 8725.42 3873.66 8822.53C3945.88 8979.3 4075.44 9235.83 4140.96 9331.1C4192.31 9405.77 4209.69 9478.74 4296.11 9428.28C4336.31 9404.8 4658.27 9228.51 4814.23 9143.29C4897.03 9093.85 4864.47 9046.82 4836.33 9001.8L4479.8 8418.57C4427.07 8322.32 4399.68 8336.32 4336.24 8368.74L4333.89 8369.94Z" fill="#4766C0"/>
<path d="M3868.84 8651.7C3955.18 8576.79 4184.37 8446.31 4333.89 8369.94L4336.24 8368.74C4399.68 8336.32 4427.07 8322.32 4479.8 8418.57L4836.33 9001.8C4864.47 9046.82 4897.03 9093.85 4814.23 9143.29C4658.27 9228.51 4336.31 9404.8 4296.11 9428.28C4209.69 9478.74 4192.31 9405.77 4140.96 9331.1C4075.44 9235.83 3945.88 8979.3 3873.66 8822.53C3827.68 8725.42 3841.04 8675.82 3868.84 8651.7Z" fill="#AFD1FA"/>
<path d="M4519.61 9546.45H4936.21C4936.21 9444.84 4901.24 9364.24 4883.76 9336.65L4860.37 9350.48L4860.32 9350.51C4727.1 9429.26 4632.25 9485.33 4519.61 9546.45Z" fill="black"/>
<path fill-rule="evenodd" clip-rule="evenodd" d="M3474 7215.62L3537 7341.14C3537 7341.14 3537 7341.14 3537.01 7341.14C3544.35 7337 3551.45 7333.17 3558.4 7329.58L3492.21 7202.92C3482.72 7209.51 3483.24 7209.12 3474 7215.62Z" fill="#1E3A8D"/>
<path fill-rule="evenodd" clip-rule="evenodd" d="M2540.47 3754.06C2540.48 3754.07 2540.49 3754.07 2540.5 3754.08C2553.46 3777.06 2588.23 3848.01 2561.69 3907.07C2542.31 3950.19 2441.51 3939.22 2441.51 3939.22C2441.51 3939.22 2449 3992.17 2441.51 4021.22C2430.58 4063.57 2403.56 4087.57 2361.52 4099.6C2310.49 4114.2 2237.31 4050.56 2237.31 4050.56C2258.86 4121.31 2230.08 4174.46 2193.5 4179.99C2123.4 4190.59 2068.38 4151.02 2024.9 4099.6C1985.37 4129.78 1938.73 4156.05 1889.16 4183.96C1761.81 4255.69 1615.14 4338.29 1520.23 4526.07L1244.46 5176.78L1243.54 5178.78C1215.39 5240.27 1173.67 5331.4 1312.8 5405.49C1503.14 5506.84 1633.71 5572.16 1853.85 5651.81C1911.84 5672.8 1976.05 5694.77 2049.2 5718.66C2190.69 5764.87 2257.03 5618.64 2294.26 5527.39C2392.87 5285.69 2585 4775.28 2617.16 4616.11C2649.31 4456.94 2698.05 4249.26 2721.02 4159.09C2663.58 4052.48 2648.96 3887.57 2649.31 3810.37C2622.95 3786 2583.82 3770.85 2544.75 3755.72C2543.32 3755.17 2541.9 3754.62 2540.47 3754.06ZM1441.45 5090.41C1407.69 5157.54 1391.21 5216.14 1471.6 5254.41L2091.81 5507.24C2178.63 5538.11 2205.04 5472.67 2220.03 5433.68C2318.46 5177.62 2380.99 5002.86 2443.89 4807.44C2473.74 4714.7 2503.67 4617.31 2537.57 4504.37C2571.98 4380.57 2541.99 4366.32 2506.22 4362.88C2292.78 4342.38 2045.58 4340.37 1903.69 4372.53C1793.77 4403.19 1745.75 4487.76 1704.97 4559.59C1701.91 4564.98 1698.89 4570.3 1695.89 4575.51L1619.81 4729.46L1441.45 5090.41Z" fill="#4766C0"/>
<path d="M2478.89 3727.39C2340.94 3654.72 2314.62 3577.06 2320.92 3531.24C2329.69 3467.39 2397.08 3461.61 2478.89 3478.97L2541.7 3350C2490.57 3317.52 2471.38 3254.03 2468.44 3225.76C2439.5 3328.66 2240.13 3425.13 2148.08 3464.52C2113.11 3519.59 2118.2 3566.88 2124.77 3593.14C2162.95 3689.61 2320.92 3843.16 2441.51 3939.22C2441.51 3939.22 2542.31 3950.19 2561.69 3907.07C2588.23 3848.01 2553.46 3777.06 2540.5 3754.08L2540.47 3754.06C2519.08 3745.77 2497.85 3737.39 2478.89 3727.39Z" fill="#EFA800"/>
<path d="M2607.51 2708.85L2507.43 2660.37L2399.7 2845.8C2406.87 2850.75 2413.99 2855.59 2421.03 2860.39C2487.7 2905.8 2548.15 2947.72 2585.94 3045.5C2594.3 3067.13 2601.55 3091.5 2607.51 3119.24C2630.41 3225.76 2607.51 3248 2587.5 3319.19C2662.26 3349.6 2811.56 3412.2 2902 3477.72C2902 3477.72 2955.14 3363.99 3010.67 3344.74C3062.07 3326.91 3148.94 3361.62 3148.94 3361.62C3173.86 3370.06 3236.16 3367.33 3236.16 3333.48C3236.16 3232.99 3185.92 3146.57 3185.92 3146.57C3088.65 2943.19 2990.17 2906.61 2896.52 2860.39L2607.51 2708.85Z" fill="#4766C0"/>
<path d="M2541.7 3350L2478.89 3478.97C2502.68 3484.02 2527.7 3491.02 2552.85 3499.13C2576.2 3506.65 2599.67 3515.13 2622.38 3523.86C2628.75 3526.3 2635.05 3528.77 2641.28 3531.24C2663.82 3539.39 2685.1 3548 2705.19 3556.98C2737.07 3571.22 2765.94 3586.39 2792.01 3602.03C2816.02 3616.44 2837.67 3631.26 2857.12 3646.16L2916.61 3490.24C2857.12 3433.17 2660.3 3347.28 2561.69 3308.96L2541.7 3350Z" fill="#AFD1FA"/>
<path d="M2148.08 3464.52C2240.13 3425.13 2439.5 3328.66 2468.44 3225.76C2474.92 3171.37 2507.49 3059.18 2585.94 3045.5C2548.15 2947.72 2487.7 2905.8 2421.03 2860.39C2430.93 2899.99 2414.85 2975.56 2388.28 3028.4C2359.47 3085.67 2320.49 3147.41 2268.92 3206.47C2266.8 3208.88 2264.68 3211.29 2262.54 3213.7C2193.66 3291.15 2109.72 3363.43 2044.53 3414.21C2038.06 3419.25 2035.53 3428.21 2040.45 3434.77C2066 3468.87 2124.82 3468.03 2148.08 3464.52Z" fill="#AFD1FA"/>
<path d="M2337 2577.81L2236.91 2740.6C2283.8 2774.05 2342.47 2806.28 2399.7 2845.8L2507.43 2660.37L2337 2577.81Z" fill="#AFD1FA"/>
<path d="M2468.44 3225.76C2471.38 3254.03 2490.57 3317.52 2541.7 3350L2561.69 3308.96C2569.69 3312.07 2578.33 3315.49 2587.5 3319.19C2607.51 3248 2630.41 3225.76 2607.51 3119.24C2601.55 3091.5 2594.3 3067.13 2585.94 3045.5C2507.49 3059.18 2474.92 3171.37 2468.44 3225.76Z" fill="black"/>
<path d="M5718.98 3361.62C5718.98 3361.62 5825.49 3253.69 5873.77 3174.31C5936.56 3071.08 5973.05 2881.29 5973.05 2881.29C5973.05 2881.29 6114.36 2905.4 6221.46 2732.97C6267.46 2658.91 6264.47 2513.9 6264.47 2513.9C6264.47 2513.9 6410.9 2473.31 6477.9 2309.71C6518.66 2210.21 6515.48 2135.12 6477.9 2034.37C6443.67 1942.56 6319.94 1839.43 6319.94 1839.43C6319.94 1839.43 6319.94 1630.5 6211.81 1515.86C6142.57 1442.44 6083.9 1407.66 5983.91 1394.07C5905.51 1383.41 5783.33 1422.6 5783.33 1422.6C5783.33 1422.6 5699.86 1324 5613.31 1309.66C5528.62 1295.62 5457.39 1306.41 5387.81 1356.69C5315.33 1409.06 5260.79 1547.21 5260.79 1547.21C5260.79 1547.21 5160.16 1547.21 5106.85 1635.24C5070.74 1694.85 5094.79 1807.68 5094.79 1807.68C5063.59 1809.31 5017 1813.4 4969.78 1820.56M5718.98 3361.62C5692.45 3415.48 5638.59 3499.49 5544.13 3533.25M5718.98 3361.62C5718.98 3361.62 5725.2 3324.13 5731.21 3263.14M5718.98 3361.62C5718.98 3361.62 5725.28 3323.62 5731.33 3261.91M4810.21 1868.77C4810.21 1868.77 4660.68 1868.77 4529.24 1909.37C4430.55 1939.85 4367.88 1985.92 4288.88 2052.46C4186.11 2142.9 4011.93 2351.11 4059.36 2530.78M4810.21 1868.77C4810.21 1868.77 5053.79 1887.66 5243.91 2026.74C5475.56 2196.19 5575.92 2355.13 5663.55 2562.14C5760.65 2791.53 5746.8 3104.18 5731.33 3261.91M4810.21 1868.77C4839.21 1845.9 4905.08 1830.35 4969.78 1820.56M4059.36 2530.78C4122.47 2425.88 4299.33 2215.71 4393.38 2195.56C4529.24 2166.44 4590.21 2118.78 4617.67 2086.23C4617.67 2086.23 4618.16 2151.05 4636.57 2186.31C4665.95 2242.59 4704.65 2275.08 4768 2279.16C4880.15 2286.4 4893.31 2277.65 4964.96 2289.3C5003.15 2292.49 5082.73 2325.79 5082.73 2469.29C5082.73 2528.77 5099.21 2588.67 5199.3 2660.62C5222.21 2677.09 5229.84 2704.86 5229.84 2719.3C5229.84 2732.88 5222.87 2748.37 5214.35 2762.54C5205.39 2777.41 5199.97 2794.3 5201.42 2811.6C5204.87 2852.74 5212.31 2932.62 5222.21 2989.01C5246.4 3126.8 5315.79 3141.1 5358.2 3135.92C5381.88 3133.02 5402.09 3119.07 5421.22 3104.82C5436.19 3093.66 5456.91 3078.44 5483.07 3059.75C5523.78 3030.68 5560.38 3019.89 5608.48 3033.63C5664.64 3049.66 5699.32 3143.36 5699.32 3143.36C5733.92 3229.76 5675.97 3372.02 5669.72 3386.88C5669.34 3387.79 5669 3388.6 5668.63 3389.51C5642.69 3453.19 5561.31 3504.04 5537.48 3503.11M4059.36 2530.78C4053.62 2542.67 4047.39 2557.13 4040.98 2573.39C4011.96 2646.98 3978.98 2757.3 3968.12 2831.04C3968.12 2831.04 3866.75 3079.03 3845.52 3247.06C3808.45 3540.49 3898.98 3781.66 3898.98 3781.66C3898.98 3781.66 3968.12 4006.35 4123.27 4070.66C4184.23 4095.93 4239.06 4112.33 4292.49 4120.99M4969.78 1820.56C4969.78 1820.56 5238.12 1849.45 5387.81 1926.65C5514.29 1981.45 5736.71 2079.39 5854.88 2469.29C5973.05 2859.18 5817.5 3193.6 5731.21 3263.14M5731.21 3263.14C5731.25 3262.73 5731.29 3262.32 5731.33 3261.91M5731.21 3263.14L5731.33 3261.91M5038.11 3869.59C5038.11 3869.59 5024.27 3887.86 4989.88 3915.11M4292.49 4120.99C4389.95 4136.79 4482.76 4126.85 4599.59 4097.99C4812.14 4045.49 4931.06 3961.7 4989.88 3915.11M4292.49 4120.99V4202.1M4292.49 4308.62C4292.49 4308.62 4259.25 4560.77 4333.9 4668.36C4412.69 4781.93 4492.71 4814.67 4630.94 4814.67C4842.89 4814.67 4972.59 4725.75 5124.41 4589.46C5272.45 4456.57 5388.5 4187.31 5388.5 4187.31M4292.49 4308.62C4429.83 4300.78 4730.62 4234.66 4989.88 3915.11M4292.49 4308.62V4255.36M5388.5 4187.31C5281.3 4130.84 5280.09 3973.98 5291.15 3897M5388.5 4187.31C5396.04 4191.28 5404.11 4194.76 5412.73 4197.68M5544.13 3533.25C5547.05 3549.26 5545.78 3557.78 5542.97 3573M5544.13 3533.25C5542.72 3525.5 5539.74 3510.32 5537.48 3503.11M5291.15 3897C5279.31 3979.4 5281.54 4153.3 5412.73 4197.68M5291.15 3897C5324.03 3954.23 5380.5 3982.69 5452.99 3975M5291.15 3897C5290.93 3896.63 5290.72 3896.25 5290.5 3895.87M5412.73 4197.68L5508.8 4214.16L5588 4227.66M5588 4227.66C5614.35 4202.8 5648.26 4189.98 5698.52 4197.68M5588 4227.66C5587.4 4228.23 5586.8 4228.8 5586.21 4229.38M5321.09 3511.55C5323.81 3522.58 5325.56 3533.33 5328.73 3543.7M5367.13 3591.94C5361.9 3577.28 5359.55 3560.88 5360.48 3543.7C5363.66 3484.48 5405.52 3424.08 5464.18 3432.76C5503.43 3438.57 5526.09 3466.76 5537.48 3503.11M5367.13 3591.94C5343.16 3577.14 5334 3560.93 5328.73 3543.7M5367.13 3591.94C5369.46 3598.47 5372.37 3604.66 5375.81 3610.43M5328.73 3543.7C5328.73 3543.7 5266.95 3643.26 5260.8 3714.93C5254.35 3790.05 5265.41 3851.49 5290.5 3895.87M5452.99 3975C5563.54 3963.27 5624.15 3854.5 5618.6 3743.47C5612.5 3621.68 5542.97 3573 5542.97 3573M5452.99 3975C5380.03 3982.74 5323.29 3953.86 5290.5 3895.87M5542.97 3573C5538.9 3594.99 5523.27 3620.48 5508.8 3635.19M5375.81 3610.43C5391.51 3636.67 5418.41 3654.04 5453.33 3654.64C5478.42 3655.08 5493.36 3650.89 5508.8 3635.19M5375.81 3610.43C5375.81 3610.43 5333.95 3663.48 5333.95 3736.64C5333.95 3842.9 5372.31 3875.91 5440.46 3874.91C5507.86 3873.92 5532.65 3816.35 5532.65 3748.95C5532.65 3681.17 5508.8 3635.19 5508.8 3635.19M4292.49 4202.1C4233.14 4210.14 4113.63 4230.08 4079.86 4245.51M4292.49 4202.1V4255.36M4079.86 4245.51C4049.96 4254.9 3951.64 4378.85 3906.22 4439.65C3747 4660.08 3513.1 5063.46 3323.29 5555.87M4079.86 4245.51C4079.86 4245.51 3807.34 4263.69 3597.12 4367.7C3413.88 4458.37 3328.47 4546.62 3190.74 4697.71C3055.5 4846.06 2894.1 5125.5 2894.1 5125.5M4292.49 4255.36C4292.49 4255.36 4161.28 4413.53 3906.22 4908.33C3783.09 5147.19 3623.65 5535.78 3623.65 5535.78C3623.65 5535.78 3815.62 5632.57 4213.95 5688.12C4463.63 5722.93 4859.49 5688.12 4859.49 5688.12M4859.49 5688.12C4859.16 5677.5 4859.51 5666.3 4860.49 5654.58M4859.49 5688.12C4860.07 5707.11 4862.84 5724.24 4868.09 5739.16M4868.09 5739.16C4873 5743.59 4884.46 5749.3 4898.85 5746.33C4908.1 5744.42 4919.77 5746.9 4926.14 5753.89C4945.86 5775.5 4991.69 5811.2 5065.97 5839.5M4868.09 5739.16C4859.9 5715.9 4857.76 5687.24 4860.49 5654.58M5698.52 4197.68C5800.21 4213.26 5949.58 4223.47 6022.49 4235.46C6141.78 4255.08 6254.05 4304.71 6326.76 4336.85M5698.52 4197.68C5647.12 4189.8 5612.82 4203.39 5586.21 4229.38M6331.99 4339.17C6433.69 4396.64 6617.78 4561.04 6782.18 4677.21C6865.92 4721.02 7043.69 4826.65 7084.85 4898.68C7171.67 5065.49 7041.59 5154.41 6998.03 5179.65C6955.02 5204.57 6933.83 5271.89 6924.86 5301.5C6798.28 4992.74 6650.58 4775.2 6575.58 4688.06M6331.99 4339.17L6326.76 4336.85M6331.99 4339.17C6330.27 4338.4 6328.53 4337.63 6326.76 4336.85M5065.97 5839.5C5065.97 5839.5 5065.97 5839.5 5065.97 5839.49M5065.97 5839.5L5065.97 5839.49M3527.18 6975.57C3412.38 7001.29 3301.95 7106.87 3261.08 7156.44C3221.55 7204.4 3212.3 7310.88 3311.34 7310.96C3334.78 7310.98 3356.47 7299.97 3375.44 7286.2C3404.08 7265.4 3440.59 7239.15 3474 7215.62M3527.18 6975.57C3483.64 6985.32 3440.73 7006.57 3402 7031.89C3383.51 6998.93 3273.1 6748.3 3234.96 6618.23C3216.64 6555.75 3202.77 6496.01 3192.68 6438.96M3527.18 6975.57L3527.61 6975.48M3527.18 6975.57C3527.32 6975.54 3527.47 6975.51 3527.61 6975.48M3694.39 7076.03C3734.99 7049.91 3719.31 6986.5 3697.6 6977.96M3694.39 7076.03C3644.22 7100.31 3565.59 7151.95 3492.21 7202.92M3694.39 7076.03C3922.43 7136.33 4531.33 7279.92 5020.43 7156.44C4858.36 6929.09 4851.61 6402.5 4883.76 6207.84C4883.76 6207.84 4401.35 6220.5 4097.55 6175.68C3740.61 6123.03 3536.82 6008.87 3536.82 6008.87C3536.82 6008.87 3473.42 6217.89 3496.63 6469.91C3519.84 6721.93 3643.74 6965.86 3643.74 6965.86M3694.39 7076.03C3674.15 7085.82 3649.28 7100.07 3622 7116.92L3704.83 7281.15M3697.6 6977.96C3680.35 6971.17 3662 6967.49 3643.74 6965.86M3697.6 6977.96C3637.39 6954.26 3563.81 6968.48 3527.61 6975.48M3474 7215.62L3537 7341.14M3474 7215.62C3483.24 7209.12 3482.72 7209.51 3492.21 7202.92M3537 7341.14C3521.22 7350.02 3499.36 7363 3481.35 7374.3M3537 7341.14C3537 7341.14 3537 7341.14 3537.01 7341.14M3492.21 7202.92L3558.4 7329.58M3558.5 7329.77L3558.4 7329.58M3704.84 7281.16L3704.83 7281.15M3643.74 6965.86C3598.29 6961.82 3553.44 6970.49 3527.61 6975.48M2894.1 5125.5V5152.72M2894.1 5125.5V4849.64M5002.74 6027.76C5012.62 5984.86 5034.74 5909.4 5065.97 5839.49M2794.82 5669.22C2874.23 5712.77 3068.99 5860.07 3172.59 6115.39M2794.82 5669.22V5796.24M2794.82 5669.22C2794.82 5567.61 2791.24 5435.43 2782.04 5349.92M3172.59 6115.39C3186.07 5884.81 3258.1 5719.1 3302.08 5611.74C3309.09 5593 3316.15 5574.37 3323.29 5555.87M3172.59 6115.39C3166.95 6211.76 3171.54 6319.46 3192.68 6438.96M2894.1 5152.72C2894.1 5152.72 2898.63 5223.61 2867.98 5264.46C2844.04 5296.35 2778.74 5323.14 2778.74 5323.14C2779.91 5331.42 2781.01 5340.38 2782.04 5349.92M2894.1 5152.72V4849.64M2894.1 4849.64C2892.63 4717.27 2898.52 4423.41 2933.9 4307.01C2978.11 4161.5 3081.81 3976.6 2995.8 3804.57C2975.87 3763.93 2933.25 3704.46 2857.12 3646.16M2662.98 3825.47C2658.95 3820.06 2654.37 3815.05 2649.31 3810.37M2649.31 3810.37C2648.96 3887.57 2663.58 4052.48 2721.02 4159.09M2649.31 3810.37C2622.95 3786 2583.82 3770.85 2544.75 3755.72M2746.19 4198.08C2737 4186.34 2728.63 4173.23 2721.02 4159.09M2294.26 5527.39C2392.87 5285.69 2585 4775.28 2617.16 4616.11C2649.31 4456.94 2698.05 4249.26 2721.02 4159.09M2294.26 5527.39C2257.03 5618.64 2190.69 5764.87 2049.2 5718.66C1976.05 5694.77 1911.84 5672.8 1853.85 5651.81M2294.26 5527.39C2401.84 5511.2 2665.4 5456.08 2782.04 5349.92M2782.5 5349.5C2782.35 5349.64 2782.19 5349.78 2782.04 5349.92M2794.82 5796.24C2794.82 5796.24 2950.73 5954.83 3007.05 6080.82C3069.97 6221.57 3075.79 6513.36 3075.79 6513.36M2794.82 5796.24C2796.03 5895.12 2792.17 6073.35 2755.83 6202.61M3075.79 6513.36L3192.68 6438.96M3075.79 6513.36L2759.85 6714.44M3192.68 6438.96L2759.85 6714.44M2759.85 6714.44C2602.29 6822.3 2264.65 7024.6 1974.44 6840.91C1675.79 6606.98 1764.62 5931.58 1853.85 5651.81M2024.9 4099.6C1999.76 4069.88 1978.48 4036.19 1960.37 4005.95M2024.9 4099.6C2068.38 4151.02 2123.4 4190.59 2193.5 4179.99M2024.9 4099.6C1985.37 4129.78 1938.73 4156.05 1889.16 4183.96C1761.81 4255.69 1615.14 4338.29 1520.23 4526.07L1244.46 5176.78M1244.46 5176.78L1243.54 5178.78M1244.46 5176.78C1244.16 5177.44 1243.85 5178.11 1243.54 5178.78M1853.85 5651.81C1633.71 5572.16 1503.14 5506.84 1312.8 5405.49C1173.67 5331.4 1215.39 5240.27 1243.54 5178.78M3483.77 7976.33C3265.11 8414.05 2882.05 9373.61 2816.12 9546.45H4087.58M3483.77 7976.33C3512.07 7998.45 3542.45 8010.99 3542.45 8010.99M3483.77 7976.33C3465.57 7962.11 3448.22 7943.92 3440.36 7922.56M2032.32 3755.93C1979.66 3775.23 1884.8 3879.73 1960.37 4005.95M2032.32 3755.93C2026.96 3715.07 2037.95 3625.3 2124.77 3593.14M2032.32 3755.93C2100.35 3873.29 2147.25 3937.42 2237.31 4050.56M1960.37 4005.95C2009.81 4088.52 2082.88 4196.71 2193.5 4179.99M2193.5 4179.99C2230.08 4174.46 2258.86 4121.31 2237.31 4050.56M2237.31 4050.56C2237.31 4050.56 2310.5 4114.2 2361.52 4099.6C2403.56 4087.57 2430.58 4063.57 2441.51 4021.22C2449 3992.17 2441.51 3939.22 2441.51 3939.22M2124.77 3593.14C2118.2 3566.88 2113.11 3519.59 2148.08 3464.52M2124.77 3593.14C2162.95 3689.61 2320.92 3843.16 2441.51 3939.22M2148.08 3464.52C2240.13 3425.13 2439.5 3328.66 2468.44 3225.76M2148.08 3464.52C2124.82 3468.03 2066 3468.87 2040.45 3434.77C2035.53 3428.21 2038.06 3419.25 2044.53 3414.21C2109.72 3363.43 2193.66 3291.15 2262.54 3213.7M2441.51 3939.22C2441.51 3939.22 2542.31 3950.19 2561.69 3907.07C2588.23 3848.01 2553.46 3777.06 2540.5 3754.08M2544.75 3761.94C2544.75 3761.94 2537.76 3749.21 2540.5 3754.08M2468.44 3225.76C2471.38 3254.03 2490.57 3317.52 2541.7 3350M2468.44 3225.76C2474.92 3171.37 2507.49 3059.18 2585.94 3045.5M3330.22 4968.22C3287.81 5145.48 3233.35 5555.87 3323.29 5555.87M2541.7 3350L2478.89 3478.97M2541.7 3350L2561.69 3308.96M2421.03 2860.39C2430.93 2900 2414.85 2975.56 2388.28 3028.4M2421.03 2860.39C2487.7 2905.8 2548.15 2947.72 2585.94 3045.5M2421.03 2860.39C2413.99 2855.59 2406.87 2850.75 2399.7 2845.8M2388.28 3028.4C2359.47 3085.67 2320.49 3147.41 2268.92 3206.47C2266.8 3208.88 2264.68 3211.29 2262.54 3213.7M2388.28 3028.4C2388.28 3028.4 2232.49 2917.86 2172.6 3028.4C2134.54 3098.65 2262.54 3213.7 2262.54 3213.7M2399.7 2845.8C2342.47 2806.28 2283.8 2774.05 2236.91 2740.6L2337 2577.81L2507.43 2660.37M2399.7 2845.8L2507.43 2660.37M2399.7 2845.8C2474.67 2897.56 2544.15 2937.38 2585.94 3045.5M2507.43 2660.37L2607.51 2708.85L2896.52 2860.39C2990.17 2906.61 3088.65 2943.19 3185.92 3146.57C3185.92 3146.57 3236.16 3232.99 3236.16 3333.48C3236.16 3367.33 3173.86 3370.06 3148.94 3361.62C3148.94 3361.62 3062.07 3326.91 3010.67 3344.74C2955.14 3363.99 2902 3477.72 2902 3477.72C2811.56 3412.2 2662.26 3349.6 2587.5 3319.19M2587.5 3319.19C2607.51 3248 2630.41 3225.76 2607.51 3119.24C2601.55 3091.5 2594.3 3067.13 2585.94 3045.5M2587.5 3319.19C2578.33 3315.49 2569.69 3312.07 2561.69 3308.96M5365.42 5935.48C5252.69 5751.85 5177.01 5717.75 5139.81 5718.26C5111.74 5748.64 5086.82 5792.83 5065.97 5839.49M5365.42 5935.48C5369.62 5942.32 5373.86 5949.36 5378.16 5956.62C5378.16 5956.62 5486.15 6121.21 5581.95 6101.72C5610.26 6095.97 5635.18 6075.23 5654.96 6052.28M5365.42 5935.48C5365.42 5935.48 5307.39 6174.29 5330.67 6346.11C5352.81 6509.44 5397.29 6627.17 5473.37 6773.38M5473.37 6773.38C5530.29 6882.78 5647.45 7025.74 5655.56 7035.59M5473.37 6773.38C5530.29 6882.78 5647.45 7025.75 5655.56 7035.59M5656 7036.13C5656 7036.13 5655.85 7035.95 5655.56 7035.59M3697.6 7282.66C3700.04 7282.14 3702.45 7281.64 3704.83 7281.15M3697.6 7282.66C3638.36 7295.2 3600.94 7307.65 3558.4 7329.58M3697.6 7282.66C3631.06 7296.75 3587.01 7313.53 3537.01 7341.14M3481.35 7374.3C3379.9 7437.98 3328.06 7488.44 3261.08 7587.74C3215.54 7655.27 3111.56 7775.85 3190.74 7861.47C3227.32 7895.23 3324.59 7874.97 3427.49 7758.57C3434.7 7751.49 3442.65 7743.82 3451.21 7735.71C3464.58 7723.04 3479.46 7709.28 3495.42 7694.93M3481.35 7374.3C3501.43 7361.7 3519.58 7350.76 3537.01 7341.14M5754.81 5866.58C5736.67 5913.69 5718.85 5951.04 5703.34 5977.12C5703.34 5977.12 5685.13 6017.28 5654.96 6052.28M5754.81 5866.58C5804.53 5737.46 5856.71 5535.02 5870.55 5290.58L5891.78 5143.22C5891.83 5142.85 5891.88 5142.53 5891.94 5142.16C5893.77 5130.79 5926.6 4930.02 5987.12 4779.3C6122.86 4441.26 6282.15 4484.67 6282.15 4484.67C6323.69 4487.08 6440.52 4531.14 6575.58 4688.06M5754.81 5866.58C5767.86 5915.6 5784.93 5981.02 5802.98 6052.28M5903.52 6504.88C5893.4 6419.35 5848.29 6231.1 5802.98 6052.28M5903.52 6504.88C5912.17 6578.04 5933.82 6572.41 6029.33 6569.19M5903.52 6504.88C6096.18 6301.49 6633.86 5918.03 7188.56 6030.18C7197.14 6032.94 7204.47 6036.24 7210.66 6040.01M5654.96 6052.28C5654.96 6052.28 5699.8 6077.74 5731.08 6077.2C5760.79 6076.69 5802.98 6052.28 5802.98 6052.28M2478.89 3478.97C2397.08 3461.61 2329.69 3467.39 2320.92 3531.24C2314.62 3577.06 2340.94 3654.72 2478.89 3727.39C2497.85 3737.39 2519.08 3745.77 2540.47 3754.06M2478.89 3478.97L2561.69 3308.96M2478.89 3478.97C2502.68 3484.02 2527.7 3491.02 2552.85 3499.13M2561.69 3308.96C2660.3 3347.28 2857.12 3433.17 2916.61 3490.24L2857.12 3646.16M2857.12 3646.16C2837.67 3631.26 2816.02 3616.44 2792.01 3602.03M6029.33 6569.19L6012.85 6481.97C6090.56 6401.04 6317.53 6241.6 6665.21 6180.1C6790.22 6163.76 6969.65 6132.91 7055.51 6158L7086.46 6293.45M6029.33 6569.19C6043.23 6631.07 6084.83 6783.8 6114.72 6847.76M6114.94 6848.24C6114.87 6848.08 6114.79 6847.92 6114.72 6847.76M6359.33 6770.57C6359.33 6770.57 6239.84 6805.82 6114.72 6847.76M5316 7207.5C5316 7207.5 5316.75 7207.08 5318.22 7206.28M2593.44 3395.38L2552.85 3499.13M2552.85 3499.13C2576.2 3506.65 2599.67 3515.13 2622.38 3523.86M2657.76 3423.92L2622.38 3523.86M2622.38 3523.86C2628.75 3526.3 2635.05 3528.77 2641.28 3531.24C2663.82 3539.39 2685.1 3548 2705.19 3556.98M2738.55 3461.3L2705.19 3556.98M2705.19 3556.98C2737.07 3571.22 2765.94 3586.39 2792.01 3602.03M2823.36 3509.54L2792.01 3602.03M3819.8 7480.82C3742.33 7488.49 3597.03 7603.57 3495.42 7694.93M3440.36 7922.56C3460.45 7977.14 3542.45 8010.99 3542.45 8010.99M3440.36 7922.56C3420.26 7867.99 3425 7780.68 3495.42 7694.93M3542.45 8010.99C3542.45 8010.99 3537.29 8083.32 3563.76 8126.76C3593.46 8175.52 3676.3 8221.62 3676.3 8221.62M3542.45 8010.99C3569.92 7954.45 3683.54 7809.7 3918.28 7683M3676.3 8221.62C3688.76 8175.12 3724.54 8090.98 3868.84 8009.39L4075.44 7903.67M3676.3 8221.62C3677.86 8261.84 3695.72 8327.6 3756.51 8343.81M3756.51 8343.81C3770.17 8347.45 3786.48 8345.86 3804.98 8342.48C3815.39 8340.58 3825.44 8337.25 3834.76 8332.24C3938.46 8276.54 4082.8 8131.38 4241.45 8149.27C4347.98 8161.27 4441.56 8169.56 4519.5 8169.02M3756.51 8343.81C3714.63 8428.35 3644.87 8632.01 3700.82 8770.28C3756.77 8908.55 3943.6 9286.12 4030.02 9457.62C4043.71 9484.79 4062.38 9516.89 4087.58 9546.45M4691.23 8437.06L5038.7 9039.59C5120.7 9164.68 5021.82 9253.43 4936.21 9305.68C4918.04 9316.4 4900.59 9326.71 4883.76 9336.65M4691.23 8437.06C4740.27 8384.94 4839.95 8277.49 4846.38 8264.63H5431.22C5492.32 8264.63 5596.67 8242.6 5594.42 8143.24C5684.87 8139.8 5849.78 8126.54 6042.99 8097.91M4691.23 8437.06L4519.5 8169.02M7086.46 6293.45C7154.19 6249.09 7296.37 6092.25 7210.66 6040.01M7086.46 6293.45L7162.43 6699.02C7207.85 7000.89 7294.27 7399.63 6978.33 7617.08C6856.14 7701.19 6645.52 7772.19 6528.95 7809.21M6575.58 4688.06C6654.11 4779.3 6812.33 5013.48 6942.56 5345.65L7210.66 6040.01M5476.64 8057.22C5442.08 8172.18 4964.56 8135.33 4742.28 8106.66C4700.62 8151.63 4624.18 8168.29 4519.5 8169.02M5476.64 8057.22L5476.77 8056.83M5476.64 8057.22C5476.69 8057.09 5476.73 8056.96 5476.77 8056.83M6528.95 7809.21C6528.95 7809.21 6559.65 7868.01 6605.01 7977.63M6528.95 7809.21C6103.69 7944.27 5726.77 7971.07 5500.73 7977.63M6605.01 7977.63C6661.67 8114.56 6741.19 8330.77 6812.33 8610.71C6900.97 8959.53 6951.4 9546.45 6951.4 9546.45H4936.21M6605.01 7977.63C6417.38 8033.19 6218.51 8071.9 6042.99 8097.91M4333.89 8369.94C4184.37 8446.31 3955.18 8576.79 3868.84 8651.7C3841.04 8675.82 3827.68 8725.42 3873.66 8822.53C3945.88 8979.3 4075.44 9235.83 4140.96 9331.1C4192.31 9405.77 4209.69 9478.74 4296.11 9428.28C4336.31 9404.8 4658.27 9228.51 4814.23 9143.29C4897.03 9093.85 4864.47 9046.82 4836.33 9001.8L4479.8 8418.57C4427.07 8322.32 4399.68 8336.32 4336.24 8368.74M4333.89 8369.94L4336.24 8368.74M4333.89 8369.94C4334.68 8369.53 4335.47 8369.13 4336.24 8368.74M4087.58 9546.45C4144.78 9613.52 4235.66 9667.46 4378.51 9620.81C4430.31 9594.22 4476.28 9569.96 4519.61 9546.45M4519.61 9546.45H4936.21M4519.61 9546.45C4632.25 9485.33 4727.1 9429.26 4860.32 9350.51M6042.99 8097.91C6042.99 8097.91 6124.8 8323.53 6222.67 8437.06C6456.2 8707.98 6605.01 8752.59 6605.01 8752.59M4883.76 9336.65C4901.24 9364.24 4936.21 9444.84 4936.21 9546.45M4883.76 9336.65L4860.37 9350.48M4883.76 9336.65C4875.83 9341.34 4868.04 9345.94 4860.37 9350.48M5500.73 7977.63C5512.65 7932.4 5524.92 7873.97 5530.1 7809.21C5553.25 7525.28 5421.17 7318.83 5332.34 7223.17C5327.39 7216.85 5322.7 7211.24 5318.22 7206.28M5500.73 7977.63C5491.3 8013.42 5482.08 8040.96 5476.77 8056.83M3704.83 7281.15C3805.72 7260.41 3857.09 7263.67 3952.44 7282.66C4126.09 7317.23 4362.43 7426.15 4362.43 7426.15C4404.5 7445.85 4490.66 7474.79 4595.57 7426.15L5192.87 7195.43C5246.53 7174.85 5270.28 7153.26 5318.22 7206.28M5655.56 7035.59C5765.96 6984.12 5884.07 6931.63 5978.28 6895.98C6020.61 6879.96 6068.05 6863.39 6114.72 6847.76M5655.56 7035.59C5486.91 7114.21 5337.98 7195.44 5318.22 7206.28M4860.49 5654.58C4879.61 5425.98 5137.29 5001.38 5227.43 4859.29C5309.85 4729.38 5479.36 4413.39 5553.82 4271.64C5563.61 4255.56 5574.12 4241.19 5586.21 4229.38M4860.37 9350.48L4860.32 9350.51M4860.37 9350.48C4860.36 9350.49 4860.34 9350.5 4860.32 9350.51M3537.01 7341.14C3544.35 7337 3551.45 7333.17 3558.4 7329.58M2540.47 3754.06C2540.48 3754.07 2540.49 3754.07 2540.5 3754.08M2540.47 3754.06C2541.9 3754.62 2543.32 3755.17 2544.75 3755.72M2540.47 3754.06L2540.5 3754.08M2540.5 3754.08C2541.92 3754.63 2543.34 3755.17 2544.75 3755.72M1695.89 4575.51L1619.81 4729.46L1441.45 5090.41C1407.69 5157.54 1391.21 5216.14 1471.6 5254.41L2091.81 5507.24C2178.63 5538.11 2205.04 5472.67 2220.03 5433.68C2318.46 5177.62 2380.99 5002.86 2443.89 4807.44C2473.74 4714.7 2503.67 4617.31 2537.57 4504.37C2571.98 4380.57 2541.99 4366.32 2506.22 4362.88C2292.78 4342.38 2045.58 4340.37 1903.69 4372.53C1793.77 4403.19 1745.75 4487.76 1704.97 4559.59C1701.91 4564.98 1698.89 4570.3 1695.89 4575.51Z" stroke="black" stroke-width="10" stroke-linecap="round"/>
<path d="M4131.31 2812.55C4090.36 2799.77 4056.24 2843.71 4049.71 2886.11C4043.46 2926.72 4059.07 2974.51 4099.96 2978.56C4139.54 2982.48 4162.21 2942.64 4168.69 2903.39C4174.94 2865.54 4167.93 2823.98 4131.31 2812.55Z" fill="black"/>
<path d="M4670.33 2936.35C4627.79 2918.59 4587.09 2961.1 4574.66 3005.49C4562.86 3047.63 4571.11 3101.99 4614.05 3110.4C4652.14 3117.86 4677.22 3085.01 4692.43 3049.3C4710.05 3007.95 4711.8 2953.67 4670.33 2936.35Z" fill="black"/>
<path d="M4131.31 2812.55C4090.36 2799.77 4056.24 2843.71 4049.71 2886.11C4043.46 2926.72 4059.07 2974.51 4099.96 2978.56C4139.54 2982.48 4162.21 2942.64 4168.69 2903.39C4174.94 2865.54 4167.93 2823.98 4131.31 2812.55Z" stroke="black" stroke-width="15" stroke-linecap="round"/>
<path d="M4670.33 2936.35C4627.79 2918.59 4587.09 2961.1 4574.66 3005.49C4562.86 3047.63 4571.11 3101.99 4614.05 3110.4C4652.14 3117.86 4677.22 3085.01 4692.43 3049.3C4710.05 3007.95 4711.8 2953.67 4670.33 2936.35Z" stroke="black" stroke-width="15" stroke-linecap="round"/>
<path d="M5442.88 3260.33C5442.88 3260.33 5467.81 3219.82 5497.14 3194.62M5606.07 3160.24C5606.07 3160.24 5546.77 3164.02 5514.83 3181.95C5508.87 3185.29 5502.92 3189.66 5497.14 3194.62M5497.14 3194.62C5497.14 3194.62 5546.33 3239.09 5553.82 3277.61C5567.89 3349.96 5514.83 3379.71 5514.83 3379.71" stroke="black" stroke-width="15" stroke-linecap="round"/>
<path d="M4364.06 2720.51C4356.08 2812.74 4360.71 2895.15 4286.35 2988.4C4242.12 3043.85 4165.35 3055.46 4108.71 3098.15C4089 3113 4077.5 3136.77 4079.08 3179.94C4079.34 3228.3 4117.17 3318.13 4266.38 3290.47M4015.95 3564.6C4015.95 3564.6 4131.2 3616.72 4210.12 3629.72C4290.49 3642.96 4418.71 3629.72 4418.71 3629.72M4135.34 3685.19C4155.17 3702.34 4209.14 3733.75 4266.38 3722.17" stroke="black" stroke-width="15" stroke-linecap="round"/>
<path d="M4494.09 2770.01C4494.09 2770.01 4587.69 2705.51 4695.51 2725.29C4820.86 2748.28 4904.73 2830.05 4904.73 2830.05" stroke="black" stroke-width="55" stroke-linecap="round"/>
<path d="M4059 2584.5C4224.01 2554.48 4276.01 2704.43 4276.01 2704.43" stroke="black" stroke-width="55" stroke-linecap="round"/>
</g>
<defs>
<clipPath id="clip0_112_67">
<rect width="9104" height="9456" fill="white"/>
</clipPath>
</defs>
</svg>
