<svg width="701" height="895" viewBox="0 0 701 895" fill="none" xmlns="http://www.w3.org/2000/svg">
<path fill-rule="evenodd" clip-rule="evenodd" d="M198.358 183.31C197.058 181.976 194.921 181.946 193.584 183.245L170.991 205.191L148.397 227.138C147.06 228.436 147.031 230.57 148.331 231.904C149.632 233.239 151.769 233.268 153.105 231.97L175.699 210.023L198.293 188.076C199.629 186.778 199.659 184.644 198.358 183.31Z" fill="black"/>
<path fill-rule="evenodd" clip-rule="evenodd" d="M335.697 276.593C328.323 269.027 316.201 268.861 308.623 276.223L239.69 343.182C232.112 350.543 231.946 362.644 239.32 370.21L302.515 435.052C309.889 442.618 322.01 442.784 329.588 435.423L398.521 368.463C406.1 361.102 406.265 349.001 398.891 341.435L335.697 276.593Z" fill="white"/>
<path d="M499.525 333.167L537.987 372.178C537.362 366.087 534.842 352.482 529.503 344.799C524.452 342.573 520.275 338.989 516.704 335.42C514.327 334.955 509.354 334.45 505.025 334.01L505.021 334.01L505.021 334.01C502.066 333.745 500.97 333.357 499.525 333.167Z" fill="#B5602A"/>
<path fill-rule="evenodd" clip-rule="evenodd" d="M585.296 563.006L635.039 514.687C647.196 502.879 647.427 483.456 635.554 471.362L620.593 456.123L584.112 418.963L537.987 372.178C537.362 366.087 534.842 352.482 529.503 344.799C524.452 342.573 520.275 338.989 516.704 335.42C516.119 334.836 515.551 334.252 514.998 333.674L482.095 299.322C479.649 299.878 477.133 299.319 474.845 298.446C474.845 298.446 467.156 295.324 456.81 289.843C454.266 288.495 451.561 287.004 448.771 285.383C438.032 279.057 425.825 270.428 416.849 261.219C414.981 259.302 413.218 257.434 411.554 255.616C401.752 244.746 395.332 235.723 391.244 228.319C389.038 224.283 387.514 220.731 386.478 217.649C382.919 206.741 385.697 201.356 385.697 201.356C387.585 194.28 394.013 186.437 404.281 185.958C400.781 192.343 399.649 208.962 423.114 224.359C453.703 244.43 463.85 226.663 465.834 217.357C473.364 221.444 480.219 224.616 485.34 225.748C498.419 228.639 516.322 236.679 528.805 247.034L567.577 272.791L605.325 294.131C607.939 295.774 610.125 297.036 612.088 298.168L612.088 298.169C621.006 303.315 625.3 305.793 644.132 329.294C662.714 352.04 701.598 408.029 717.871 443.088C719.934 446.654 721.375 449.494 722.595 451.901L722.597 451.905L722.598 451.906L722.599 451.909C726.582 459.762 728.224 462.998 741.52 471.794L883.805 563.425L702.508 746.275L606.827 687.9C569.144 699.027 521.015 688.083 472.385 672.685L476.577 668.612L585.296 563.006Z" fill="#B5602A"/>
<path d="M418.613 189.545C413.236 186.778 408.443 185.763 404.281 185.958C400.781 192.343 399.649 208.962 423.114 224.359C453.703 244.43 463.85 226.663 465.834 217.357C457.846 213.021 449.098 207.654 440.858 202.598L440.857 202.597L440.857 202.597L440.854 202.596L440.852 202.594L440.85 202.593C432.469 197.451 424.613 192.631 418.613 189.545Z" fill="#EB7D4A"/>
<path d="M340.677 561.824L312.608 533.024L308.167 528.466C310.892 539.219 307.553 547.846 304.146 553.304L308.013 557.273L309.372 558.667L316.09 565.56L343.531 564.753L340.677 561.824Z" fill="black"/>
<path d="M396.124 618.716L381.934 604.156L379.473 601.631C379.499 611.612 373.996 618.472 370.753 621.648L375.452 626.469C383.44 624.673 391.831 623.039 399.363 622.04L396.124 618.716Z" fill="black"/>
<path d="M176.654 422.49L174.967 420.76C174.967 420.76 147.044 432.111 156.585 455.382C164.734 475.261 188.283 479.115 188.283 479.115C204.097 480.902 226.003 481.019 233.263 480.574L176.654 422.49Z" fill="#B5602A"/>
<path fill-rule="evenodd" clip-rule="evenodd" d="M133.244 251.842C127.646 250.728 121.858 252.453 117.789 256.451L93.181 280.624C85.6741 287.998 85.5432 300.041 92.8878 307.577L279.418 498.969L283.071 502.717C290.572 505.265 300.301 510.512 305.473 521.172C306.697 523.697 307.575 526.132 308.167 528.466L312.608 533.024L340.677 561.824L343.531 564.753L344.678 564.719C344.678 564.719 366.886 562.762 377.399 590.849C378.864 594.764 379.464 598.365 379.473 601.631L381.934 604.156L396.124 618.716L399.363 622.04C403.506 621.49 407.389 621.133 410.803 621.047C442.554 623.651 445.709 649.215 441.665 661.625L606.563 501.448C614.142 494.087 614.307 481.986 606.933 474.42L273.422 132.217C266.077 124.68 254.012 124.482 246.423 131.775L220.791 156.404C216.247 160.771 214.778 167.438 217.068 173.306C219.347 179.145 217.904 185.778 213.406 190.148L153.557 248.283C149.49 252.233 143.736 253.932 138.171 252.823L133.244 251.842ZM335.697 276.593C328.323 269.027 316.201 268.861 308.623 276.223L239.69 343.182C232.112 350.543 231.946 362.644 239.32 370.21L302.515 435.052C309.889 442.618 322.01 442.784 329.588 435.423L398.521 368.463C406.1 361.102 406.265 349.001 398.891 341.435L335.697 276.593Z" fill="white"/>
<path fill-rule="evenodd" clip-rule="evenodd" d="M278.681 107.201C266.883 95.0956 247.489 94.83 235.364 106.608L82.2243 255.363L69.0154 268.193C56.89 279.972 56.6249 299.333 68.4232 311.439L120.045 364.406L174.967 420.76L176.654 422.49L233.263 480.574L238.939 486.399L242.815 490.375L244.038 491.63L249.744 497.485L250.929 498.701L272.801 500.389C272.801 500.389 277.27 500.746 283.071 502.717L279.418 498.969L92.8878 307.577C85.5432 300.041 85.6741 287.998 93.181 280.624L117.789 256.451C121.858 252.453 127.646 250.728 133.244 251.842L138.171 252.823C143.736 253.932 149.49 252.233 153.557 248.283L213.406 190.148C217.904 185.778 219.347 179.145 217.068 173.306C214.778 167.438 216.247 160.771 220.791 156.404L246.423 131.775C254.012 124.482 266.077 124.68 273.422 132.217L606.933 474.42C614.307 481.986 614.142 494.087 606.563 501.448L441.665 661.625C441.642 661.695 441.619 661.764 441.596 661.834C441.584 661.868 441.572 661.903 441.561 661.938L441.551 661.967C441.346 662.562 441.054 663.116 440.7 663.629C436.544 669.656 431.212 674.23 425.423 677.742L434.921 687.487C440.89 693.612 450.702 693.747 456.837 687.787L472.385 672.685L476.577 668.612L585.296 563.006L635.039 514.687C647.196 502.879 647.427 483.456 635.554 471.362L620.593 456.123L584.112 418.963L537.987 372.178L499.525 333.167L456.81 289.843C454.287 288.534 451.579 287.037 448.771 285.383C438.11 279.188 426.196 271.077 417.198 261.683C415.202 259.599 413.323 257.578 411.554 255.616C401.669 244.811 395.302 235.745 391.244 228.319C389.023 224.297 387.49 220.752 386.478 217.649L365.226 196.001L278.681 107.201ZM198.293 188.076C199.629 186.778 199.659 184.644 198.358 183.31C197.058 181.976 194.921 181.946 193.584 183.245L170.991 205.191L148.397 227.138C147.06 228.436 147.031 230.57 148.331 231.904C149.632 233.239 151.769 233.268 153.105 231.97L175.699 210.023L198.293 188.076Z" fill="black"/>
<path d="M292.608 566.251L316.09 565.56L309.372 558.667C302.352 560.113 296.83 562.782 292.608 566.251Z" fill="#934F25"/>
<path d="M366.639 624.403C363.003 625.86 359.401 626.993 355.809 627.878C352.835 629.534 350.356 631.411 348.346 633.471C354.552 631.628 364.632 628.901 375.452 626.469L370.753 621.648C370.457 621.937 370.18 622.196 369.928 622.424C368.973 623.286 367.842 623.921 366.639 624.403Z" fill="#934F25"/>
<path fill-rule="evenodd" clip-rule="evenodd" d="M242.815 490.375L244.038 491.63L249.744 497.485L250.929 498.701L272.801 500.389C272.801 500.389 277.27 500.746 283.071 502.717C290.572 505.265 300.301 510.512 305.473 521.172C306.697 523.697 307.575 526.132 308.167 528.466C310.892 539.219 307.553 547.846 304.146 553.304C302.658 555.687 301.158 557.466 300.143 558.556C299.338 559.42 298.324 560.042 297.215 560.474C272.122 570.23 250.251 567.323 239.701 559.567C239.701 559.567 227.367 549.731 223.8 534.267C216.874 504.237 242.815 490.375 242.815 490.375ZM252.693 518.874C249.376 519.423 247.122 522.539 247.642 525.855L250.871 546.427C251.328 549.338 253.799 551.51 256.75 551.594L288.516 552.496C290.27 552.447 291.514 550.884 291.187 549.14L290.547 545.72L289.071 537.837L285.092 516.579C284.821 515.134 283.549 514.046 282.092 514.012L252.693 518.874Z" fill="#B5602A"/>
<path d="M256.75 551.594C253.799 551.51 251.328 549.338 250.871 546.427L247.642 525.855C247.122 522.539 249.376 519.423 252.693 518.874L282.092 514.012C283.549 514.046 284.821 515.134 285.092 516.579L289.071 537.837L290.547 545.72L291.187 549.14C291.514 550.884 290.27 552.447 288.516 552.496L256.75 551.594Z" fill="#EB7D4A"/>
<path d="M325.106 615.2C322.561 615.239 320.315 613.544 319.658 611.089L314.385 591.387C313.49 588.044 315.548 584.627 318.925 583.849L353.822 575.801L356.508 575.298C358.155 574.99 359.798 576.138 360.113 577.816L361.142 583.311L365.439 606.254C365.993 609.213 366.323 613.038 363.527 614.164C362.781 614.465 361.939 614.6 361.044 614.658L325.106 615.2Z" fill="#EB7D4A"/>
<path fill-rule="evenodd" clip-rule="evenodd" d="M290.724 618.148C302.072 631.067 314.169 631.252 322.387 631.128C333.849 630.961 344.777 630.594 355.809 627.878C359.401 626.993 363.003 625.86 366.639 624.403C367.842 623.921 368.973 623.286 369.928 622.424C370.18 622.196 370.457 621.937 370.753 621.648C373.996 618.472 379.499 611.612 379.473 601.631C379.464 598.365 378.864 594.764 377.399 590.849C366.886 562.762 344.678 564.719 344.678 564.719L343.531 564.753L316.09 565.56L292.608 566.251C291.674 567.02 290.803 567.827 289.994 568.669C276.601 582.606 280.085 606.037 290.724 618.148ZM318.925 583.849C315.548 584.627 313.49 588.044 314.385 591.387L319.658 611.089C320.315 613.544 322.561 615.239 325.106 615.2L361.044 614.658C361.939 614.6 362.781 614.465 363.527 614.164C366.323 613.038 365.993 609.213 365.439 606.254L361.142 583.311L360.113 577.816C359.798 576.138 358.155 574.99 356.508 575.298L353.822 575.801L318.925 583.849Z" fill="#B5602A"/>
<path fill-rule="evenodd" clip-rule="evenodd" d="M387.513 689.755C379.222 691.138 363.638 690.929 351.809 675.233C340.157 659.771 337.927 644.153 348.346 633.471C354.552 631.628 364.632 628.901 375.452 626.469C383.44 624.673 391.831 623.039 399.363 622.04C403.506 621.49 407.389 621.133 410.803 621.047C442.554 623.651 445.709 649.215 441.665 661.625C441.642 661.695 441.619 661.764 441.596 661.834C441.584 661.868 441.572 661.903 441.561 661.938L441.551 661.967C441.346 662.562 441.054 663.116 440.7 663.629C436.544 669.656 431.212 674.23 425.423 677.742C412.478 685.594 397.249 688.132 387.777 689.711L387.513 689.755ZM383.391 640.311C380.022 641.201 378.074 644.713 379.106 648.036L384.55 665.563C385.352 668.143 387.899 669.771 390.582 669.417L424.145 664.984C427.305 664.567 429.404 661.506 428.651 658.413L423.062 635.482C422.352 632.569 419.385 630.806 416.482 631.573L383.391 640.311Z" fill="#B5602A"/>
<path d="M390.582 669.417C387.899 669.771 385.352 668.143 384.55 665.563L379.106 648.036C378.074 644.713 380.022 641.201 383.391 640.311L416.482 631.573C419.385 630.806 422.352 632.569 423.062 635.482L428.651 658.413C429.404 661.506 427.305 664.567 424.145 664.984L390.582 669.417Z" fill="#EB7D4A"/>
<path d="M120.045 364.406L68.4232 311.439C56.6249 299.333 56.89 279.972 69.0154 268.193L82.2243 255.363L235.364 106.608C247.489 94.83 266.883 95.0956 278.681 107.201L365.226 196.001L386.478 217.649M120.045 364.406L176.654 422.49M120.045 364.406L174.967 420.76M238.939 486.399L233.263 480.574M238.939 486.399L244.038 491.63M238.939 486.399L249.744 497.485M238.939 486.399L242.815 490.375M476.577 668.612L585.296 563.006L635.039 514.687C647.196 502.879 647.427 483.456 635.554 471.362L620.593 456.123L584.112 418.963L537.987 372.178M476.577 668.612L472.385 672.685M476.577 668.612L456.837 687.787M233.263 480.574L176.654 422.49M233.263 480.574C226.003 481.019 204.097 480.902 188.283 479.115C188.283 479.115 164.734 475.261 156.585 455.382C147.044 432.111 174.967 420.76 174.967 420.76M176.654 422.49L174.967 420.76M244.038 491.63L249.744 497.485M244.038 491.63L242.815 490.375M308.013 557.273L316.09 565.56M308.013 557.273L304.146 553.304M308.013 557.273L309.372 558.667M249.744 497.485L250.929 498.701M456.81 289.842C467.156 295.324 474.845 298.446 474.845 298.446C477.133 299.319 479.649 299.878 482.095 299.322M456.81 289.842L537.987 372.178M456.81 289.842C454.266 288.495 451.561 287.004 448.771 285.383M456.81 289.842C454.287 288.534 451.579 287.037 448.771 285.383M456.81 289.842L499.525 333.167M386.478 217.649C382.919 206.741 385.697 201.356 385.697 201.356C387.585 194.28 394.013 186.437 404.281 185.958M386.478 217.649C387.514 220.731 389.038 224.283 391.244 228.319M386.478 217.649C387.49 220.752 389.023 224.297 391.244 228.319M485.34 225.748C498.419 228.639 516.322 236.679 528.805 247.034L567.577 272.791L605.325 294.131C607.939 295.774 610.125 297.036 612.088 298.168L612.088 298.169C621.006 303.315 625.3 305.793 644.132 329.294C662.714 352.04 701.598 408.029 717.871 443.088C719.934 446.654 721.375 449.494 722.595 451.901M485.34 225.748C474.786 223.415 456.866 212.42 440.858 202.598M485.34 225.748C480.219 224.616 473.364 221.444 465.834 217.357M482.095 299.322C486.13 298.404 489.974 294.449 492.281 283.856M482.095 299.322L514.998 333.674C515.551 334.252 516.119 334.836 516.704 335.42M529.503 344.799C535.737 347.546 543.304 348.227 552.706 344.266M529.503 344.799C524.452 342.573 520.275 338.989 516.704 335.42M529.503 344.799C534.842 352.482 537.362 366.087 537.987 372.178M538.011 372.424C538.003 372.344 537.995 372.262 537.987 372.178M516.704 335.42C514.327 334.955 509.354 334.45 505.025 334.01M404.281 185.958C408.443 185.763 413.236 186.778 418.613 189.545C424.613 192.631 432.469 197.451 440.85 202.593M404.281 185.958C400.781 192.343 399.649 208.962 423.114 224.359C453.703 244.43 463.85 226.663 465.834 217.357M465.834 217.357C457.846 213.021 449.098 207.654 440.858 202.598M242.815 490.375C242.815 490.375 216.874 504.237 223.8 534.267C227.367 549.731 239.701 559.567 239.701 559.567C250.251 567.323 272.122 570.23 297.215 560.474C298.324 560.042 299.338 559.42 300.143 558.556C301.158 557.466 302.658 555.687 304.146 553.304M233.661 497.654L250.929 498.701M309.372 558.667L316.09 565.56M309.372 558.667C300.797 560.433 294.458 564.023 289.994 568.669M309.372 558.667C302.352 560.113 296.83 562.782 292.608 566.251M292.608 566.251L316.09 565.56M292.608 566.251C291.674 567.02 290.803 567.827 289.994 568.669M355.809 627.878C344.777 630.594 333.849 630.961 322.387 631.128C314.169 631.252 302.072 631.067 290.724 618.148C280.085 606.037 276.601 582.606 289.994 568.669M355.809 627.878C359.401 626.993 363.003 625.86 366.639 624.403C367.842 623.921 368.973 623.286 369.928 622.424C370.18 622.196 370.457 621.937 370.753 621.648M355.809 627.878C352.835 629.534 350.356 631.411 348.346 633.471M441.551 661.967C441.346 662.562 441.054 663.116 440.7 663.629C436.544 669.656 431.212 674.23 425.423 677.742M441.551 661.967L441.561 661.938M441.551 661.967C441.554 661.958 441.557 661.948 441.561 661.938M348.346 633.471C337.927 644.153 340.157 659.771 351.809 675.233C363.638 690.929 379.222 691.138 387.513 689.755L387.777 689.711C397.249 688.132 412.478 685.594 425.423 677.742M348.346 633.471C354.552 631.628 364.632 628.901 375.452 626.469M472.385 672.685C521.015 688.083 569.144 699.027 606.827 687.9L702.508 746.275L883.805 563.425L741.52 471.794C728.224 462.998 726.582 459.762 722.599 451.909L722.598 451.906M472.385 672.685L456.837 687.787M499.525 333.167C500.97 333.357 502.066 333.745 505.021 334.01L505.021 334.01M499.525 333.167L537.987 372.178M505.021 334.01L505.025 334.01M505.021 334.01C505.023 334.01 505.024 334.01 505.025 334.01M440.854 202.596L440.857 202.597L440.857 202.597L440.858 202.598M440.854 202.596L440.852 202.594M440.854 202.596C440.853 202.595 440.852 202.594 440.852 202.594M722.598 451.906L722.597 451.905M722.598 451.906C722.598 451.906 722.598 451.905 722.597 451.905M375.452 626.469C383.44 624.673 391.831 623.039 399.363 622.04M375.452 626.469L370.753 621.648M425.423 677.742L434.921 687.487C440.89 693.612 450.702 693.747 456.837 687.787M399.363 622.04C403.506 621.49 407.389 621.133 410.803 621.047C442.554 623.651 445.709 649.215 441.665 661.625M399.363 622.04L396.124 618.716L381.934 604.156L379.473 601.631M441.665 661.625L606.563 501.448C614.142 494.087 614.307 481.986 606.933 474.42L273.422 132.217C266.077 124.68 254.012 124.482 246.423 131.775L220.791 156.404C216.247 160.771 214.778 167.438 217.068 173.306C219.347 179.145 217.904 185.778 213.406 190.148L153.557 248.283C149.49 252.233 143.736 253.932 138.171 252.823L133.244 251.842C127.646 250.728 121.858 252.453 117.789 256.451L93.181 280.624C85.6741 287.998 85.5432 300.041 92.8878 307.577L279.418 498.969L283.071 502.717M441.665 661.625C441.642 661.695 441.619 661.764 441.596 661.834C441.584 661.868 441.573 661.903 441.561 661.938M722.597 451.905L722.595 451.901M722.597 451.905C722.597 451.904 722.596 451.902 722.595 451.901M440.852 202.594L440.85 202.593M440.852 202.594C440.851 202.594 440.85 202.593 440.85 202.593M391.244 228.319C395.332 235.723 401.752 244.746 411.554 255.616M391.244 228.319C395.302 235.745 401.669 244.811 411.554 255.616M411.554 255.616C413.218 257.434 414.981 259.302 416.849 261.219C425.825 270.428 438.032 279.057 448.771 285.383M411.554 255.616C413.323 257.578 415.202 259.599 417.198 261.683C426.196 271.077 438.11 279.188 448.771 285.383M370.753 621.648C373.996 618.472 379.499 611.612 379.473 601.631M316.09 565.56L343.531 564.753M343.531 564.753L344.678 564.719C344.678 564.719 366.886 562.762 377.399 590.849C378.864 594.764 379.464 598.365 379.473 601.631M343.531 564.753L340.677 561.824L312.608 533.024L308.167 528.466M304.146 553.304C307.553 547.846 310.892 539.219 308.167 528.466M250.929 498.701L272.801 500.389C272.801 500.389 277.27 500.746 283.071 502.717M308.167 528.466C307.575 526.132 306.697 523.697 305.473 521.172C300.301 510.512 290.572 505.265 283.071 502.717M170.991 205.191L148.397 227.138C147.06 228.436 147.031 230.57 148.331 231.904C149.632 233.239 151.769 233.268 153.105 231.97L175.699 210.023L198.293 188.076C199.629 186.778 199.659 184.644 198.358 183.31C197.058 181.976 194.921 181.946 193.584 183.245L170.991 205.191ZM288.516 552.496L256.75 551.594C253.799 551.51 251.328 549.338 250.871 546.427L247.642 525.855C247.122 522.539 249.376 519.423 252.693 518.874L282.092 514.012C283.549 514.046 284.821 515.134 285.092 516.579L289.071 537.837L290.547 545.72L291.187 549.14C291.514 550.884 290.27 552.447 288.516 552.496ZM356.508 575.298C358.155 574.99 359.798 576.138 360.113 577.816L361.142 583.311L365.439 606.254C365.993 609.213 366.323 613.038 363.527 614.164C362.781 614.465 361.939 614.6 361.044 614.658L325.106 615.2C322.561 615.239 320.315 613.544 319.658 611.089L314.385 591.387C313.49 588.044 315.548 584.627 318.925 583.849L353.822 575.801L356.508 575.298ZM416.482 631.573L383.391 640.311C380.022 641.201 378.074 644.713 379.106 648.036L384.55 665.563C385.352 668.143 387.899 669.771 390.582 669.417L424.145 664.984C427.305 664.567 429.404 661.506 428.651 658.413L423.062 635.482C422.352 632.569 419.385 630.806 416.482 631.573ZM329.588 435.423L398.521 368.464C406.1 361.102 406.265 349.001 398.891 341.435L335.697 276.593C328.323 269.027 316.201 268.861 308.623 276.223L239.69 343.182C232.112 350.543 231.946 362.644 239.32 370.21L302.515 435.052C309.889 442.618 322.01 442.784 329.588 435.423Z" stroke="black" stroke-width="0.765194" stroke-linecap="round"/>
<path d="M348.951 506.725L332.256 489.591C330.044 487.321 330.094 483.69 332.367 481.482L444.77 372.273C447.043 370.064 450.679 370.114 452.891 372.384L469.587 389.518C471.799 391.788 471.749 395.419 469.476 397.627L357.073 506.836C354.799 509.045 351.163 508.995 348.951 506.725Z" fill="#F6F5F5" stroke="black" stroke-width="0.765194" stroke-linecap="round"/>
<path d="M386.736 459.036L380.522 452.659L382.966 450.283C383.428 449.835 383.882 449.535 384.329 449.383C384.777 449.228 385.197 449.201 385.592 449.302C385.989 449.402 386.341 449.61 386.648 449.925C386.901 450.185 387.067 450.455 387.148 450.737C387.226 451.017 387.236 451.295 387.179 451.573C387.122 451.851 387.014 452.116 386.855 452.367L386.915 452.43C387.154 452.222 387.439 452.08 387.77 452.005C388.102 451.926 388.445 451.935 388.801 452.035C389.156 452.134 389.492 452.345 389.807 452.669C390.129 452.999 390.338 453.374 390.435 453.793C390.53 454.21 390.49 454.651 390.315 455.115C390.141 455.58 389.809 456.05 389.321 456.524L386.736 459.036ZM386.952 456.947L388.196 455.738C388.616 455.33 388.841 454.956 388.87 454.616C388.899 454.273 388.79 453.974 388.544 453.721C388.36 453.532 388.147 453.407 387.906 453.347C387.663 453.284 387.412 453.293 387.155 453.373C386.895 453.451 386.646 453.607 386.407 453.839L385.131 455.078L386.952 456.947ZM384.321 454.247L385.466 453.135C385.665 452.941 385.81 452.73 385.899 452.502C385.986 452.272 386.01 452.045 385.97 451.821C385.93 451.593 385.819 451.385 385.637 451.199C385.396 450.952 385.111 450.833 384.78 450.843C384.452 450.851 384.117 451.02 383.776 451.351L382.607 452.487L384.321 454.247ZM395.106 444.696C395.776 445.383 396.22 446.097 396.44 446.837C396.66 447.573 396.674 448.286 396.484 448.976C396.297 449.664 395.923 450.279 395.364 450.823C394.805 451.366 394.177 451.723 393.482 451.894C392.786 452.06 392.072 452.025 391.339 451.787C390.605 451.546 389.905 451.083 389.238 450.398C388.568 449.711 388.123 448.999 387.904 448.263C387.684 447.522 387.668 446.808 387.856 446.12C388.046 445.431 388.421 444.814 388.98 444.271C389.539 443.728 390.166 443.372 390.859 443.203C391.555 443.032 392.269 443.068 393.002 443.309C393.735 443.546 394.437 444.009 395.106 444.696ZM393.943 445.826C393.472 445.342 392.998 445.008 392.523 444.823C392.048 444.634 391.594 444.584 391.162 444.673C390.728 444.759 390.337 444.971 389.99 445.308C389.643 445.645 389.42 446.029 389.322 446.46C389.222 446.889 389.259 447.344 389.433 447.826C389.607 448.303 389.929 448.784 390.401 449.268C390.872 449.751 391.345 450.087 391.821 450.276C392.296 450.461 392.751 450.51 393.185 450.424C393.617 450.336 394.006 450.123 394.353 449.786C394.701 449.448 394.924 449.065 395.025 448.637C395.123 448.206 395.085 447.751 394.911 447.274C394.737 446.792 394.414 446.31 393.943 445.826ZM401.906 438.089C402.576 438.776 403.02 439.49 403.24 440.23C403.46 440.966 403.475 441.679 403.285 442.369C403.097 443.057 402.723 443.672 402.164 444.216C401.605 444.759 400.977 445.116 400.282 445.287C399.586 445.453 398.872 445.418 398.139 445.181C397.406 444.939 396.705 444.476 396.038 443.791C395.368 443.104 394.924 442.392 394.704 441.656C394.484 440.915 394.469 440.201 394.656 439.514C394.846 438.824 395.221 438.207 395.78 437.664C396.339 437.121 396.966 436.765 397.659 436.596C398.355 436.425 399.069 436.461 399.802 436.702C400.535 436.94 401.237 437.402 401.906 438.089ZM400.743 439.219C400.272 438.735 399.799 438.401 399.323 438.216C398.848 438.028 398.394 437.977 397.962 438.066C397.528 438.152 397.138 438.364 396.79 438.701C396.443 439.038 396.221 439.422 396.122 439.853C396.022 440.282 396.059 440.737 396.233 441.219C396.407 441.696 396.73 442.177 397.201 442.661C397.672 443.144 398.146 443.481 398.621 443.669C399.096 443.854 399.551 443.903 399.985 443.817C400.417 443.729 400.806 443.516 401.154 443.179C401.501 442.841 401.724 442.458 401.825 442.03C401.923 441.599 401.885 441.145 401.711 440.667C401.537 440.185 401.215 439.703 400.743 439.219ZM406.107 440.215L399.893 433.838L401.05 432.714L403.905 435.644L403.983 435.568L403.619 430.217L405.032 428.845L405.351 434.106L411.268 435.201L409.877 436.552L405.308 435.669L405.413 437.191L407.264 439.091L406.107 440.215ZM412.05 434.441L405.836 428.064L409.989 424.028L410.933 424.997L407.936 427.908L409.623 429.64L412.405 426.937L413.348 427.906L410.567 430.608L412.263 432.349L415.285 429.413L416.228 430.381L412.05 434.441ZM419.548 427.156L417.383 429.259L411.17 422.882L413.377 420.737C414.011 420.121 414.68 419.719 415.384 419.532C416.089 419.341 416.795 419.364 417.503 419.601C418.212 419.838 418.889 420.288 419.534 420.95C420.181 421.614 420.614 422.305 420.832 423.023C421.052 423.739 421.054 424.45 420.84 425.155C420.627 425.859 420.196 426.526 419.548 427.156ZM417.566 427.135L418.517 426.211C418.962 425.779 419.255 425.338 419.394 424.887C419.532 424.434 419.517 423.973 419.351 423.504C419.184 423.032 418.862 422.553 418.387 422.065C417.911 421.577 417.442 421.245 416.979 421.069C416.513 420.89 416.056 420.863 415.608 420.988C415.159 421.109 414.718 421.38 414.286 421.8L413.3 422.757L417.566 427.135Z" fill="black"/>
<path d="M347.361 390.437L343.477 386.451L344.079 385.866L345.767 387.598L347.757 385.665L346.069 383.933L346.673 383.346L350.557 387.332L349.953 387.919L348.26 386.181L346.27 388.114L347.963 389.852L347.361 390.437ZM352.323 385.745C352.133 385.929 351.928 386.061 351.706 386.14C351.483 386.217 351.261 386.232 351.04 386.184C350.82 386.135 350.615 386.013 350.424 385.817C350.26 385.648 350.157 385.478 350.116 385.306C350.075 385.134 350.078 384.962 350.127 384.791C350.175 384.62 350.252 384.452 350.357 384.287C350.461 384.122 350.576 383.963 350.702 383.808C350.861 383.613 350.99 383.455 351.089 383.333C351.187 383.211 351.246 383.109 351.266 383.029C351.286 382.948 351.262 382.873 351.194 382.803L351.181 382.789C351.015 382.619 350.839 382.534 350.652 382.534C350.466 382.533 350.279 382.624 350.09 382.807C349.894 382.998 349.782 383.191 349.754 383.388C349.725 383.582 349.741 383.753 349.8 383.9L349.131 384.307C349.019 384.062 348.971 383.824 348.987 383.591C349.003 383.355 349.069 383.133 349.183 382.923C349.296 382.712 349.443 382.519 349.624 382.344C349.743 382.228 349.884 382.119 350.045 382.017C350.207 381.913 350.382 381.841 350.571 381.802C350.762 381.761 350.962 381.772 351.171 381.837C351.379 381.9 351.589 382.04 351.802 382.258L353.736 384.243L353.167 384.796L352.769 384.388L352.745 384.41C352.781 384.522 352.796 384.651 352.792 384.797C352.787 384.943 352.749 385.097 352.678 385.26C352.606 385.423 352.488 385.585 352.323 385.745ZM351.995 385.155C352.156 384.998 352.263 384.833 352.315 384.658C352.369 384.482 352.375 384.314 352.335 384.153C352.295 383.99 352.218 383.849 352.103 383.731L351.727 383.346C351.727 383.387 351.705 383.446 351.663 383.522C351.621 383.595 351.569 383.675 351.506 383.762C351.442 383.847 351.379 383.929 351.318 384.009C351.255 384.087 351.203 384.153 351.162 384.206C351.062 384.33 350.982 384.455 350.922 384.579C350.862 384.703 350.836 384.823 350.842 384.941C350.848 385.056 350.902 385.166 351.003 385.27C351.143 385.414 351.303 385.471 351.481 385.441C351.658 385.411 351.83 385.315 351.995 385.155ZM354.512 383.489L351.599 380.5L352.182 379.934L355.095 382.923L354.512 383.489ZM351.444 379.753C351.343 379.851 351.223 379.902 351.084 379.905C350.946 379.906 350.83 379.859 350.738 379.764C350.645 379.668 350.601 379.552 350.606 379.415C350.612 379.275 350.666 379.156 350.767 379.058C350.868 378.96 350.988 378.91 351.127 378.909C351.265 378.906 351.381 378.952 351.475 379.049C351.567 379.143 351.61 379.26 351.605 379.4C351.599 379.537 351.545 379.654 351.444 379.753ZM355.879 382.161L352.966 379.172L353.529 378.625L353.992 379.1L354.023 379.069C353.921 378.856 353.894 378.636 353.942 378.41C353.99 378.181 354.101 377.982 354.277 377.811C354.313 377.776 354.357 377.736 354.409 377.69C354.462 377.644 354.505 377.608 354.538 377.584L355.08 378.141C355.05 378.157 355.002 378.191 354.934 378.241C354.866 378.29 354.802 378.343 354.742 378.401C354.604 378.535 354.51 378.684 354.459 378.847C354.408 379.008 354.401 379.169 354.439 379.332C354.475 379.494 354.556 379.64 354.683 379.77L356.461 381.595L355.879 382.161ZM347.666 396.969C347.465 396.805 347.24 396.745 346.991 396.791C346.74 396.835 346.501 396.968 346.272 397.19C346.108 397.349 345.992 397.512 345.923 397.68C345.853 397.847 345.828 398.007 345.849 398.161C345.87 398.313 345.936 398.445 346.046 398.558C346.138 398.652 346.24 398.713 346.351 398.739C346.463 398.763 346.579 398.763 346.697 398.739C346.815 398.713 346.932 398.674 347.047 398.623C347.16 398.571 347.266 398.517 347.362 398.46L347.851 398.183C348.009 398.09 348.18 398.006 348.366 397.929C348.551 397.852 348.744 397.802 348.943 397.777C349.142 397.753 349.339 397.771 349.534 397.832C349.731 397.891 349.917 398.01 350.091 398.189C350.311 398.414 350.448 398.672 350.502 398.96C350.557 399.248 350.523 399.55 350.401 399.865C350.28 400.18 350.063 400.489 349.752 400.792C349.453 401.082 349.148 401.286 348.837 401.403C348.527 401.521 348.225 401.552 347.932 401.498C347.638 401.443 347.368 401.302 347.121 401.074L347.725 400.487C347.877 400.62 348.041 400.695 348.216 400.711C348.392 400.725 348.566 400.693 348.741 400.615C348.915 400.534 349.079 400.418 349.234 400.268C349.404 400.103 349.529 399.929 349.61 399.747C349.691 399.563 349.723 399.385 349.706 399.215C349.688 399.043 349.615 398.892 349.489 398.762C349.374 398.644 349.246 398.58 349.105 398.571C348.966 398.56 348.815 398.585 348.652 398.647C348.491 398.708 348.321 398.789 348.141 398.89L347.544 399.22C347.14 399.443 346.762 399.562 346.411 399.575C346.061 399.586 345.75 399.454 345.48 399.176C345.256 398.946 345.123 398.685 345.081 398.393C345.039 398.1 345.078 397.803 345.199 397.501C345.318 397.198 345.512 396.917 345.78 396.657C346.05 396.394 346.334 396.21 346.633 396.104C346.933 395.997 347.224 395.968 347.505 396.018C347.786 396.067 348.033 396.195 348.246 396.405L347.666 396.969ZM353.186 397.443C352.891 397.73 352.576 397.914 352.24 397.995C351.905 398.073 351.567 398.054 351.228 397.937C350.888 397.817 350.567 397.602 350.265 397.292C349.967 396.986 349.761 396.66 349.648 396.316C349.536 395.97 349.52 395.631 349.598 395.299C349.679 394.966 349.858 394.665 350.136 394.394C350.305 394.23 350.496 394.099 350.708 394.001C350.921 393.903 351.149 393.852 351.391 393.849C351.634 393.846 351.884 393.904 352.143 394.024C352.4 394.143 352.661 394.338 352.925 394.609L353.126 394.816L350.746 397.128L350.322 396.692L352.13 394.934C351.981 394.781 351.818 394.676 351.64 394.619C351.462 394.56 351.282 394.551 351.102 394.592C350.924 394.632 350.759 394.725 350.608 394.871C350.444 395.03 350.341 395.21 350.297 395.409C350.253 395.605 350.261 395.8 350.32 395.993C350.379 396.183 350.481 396.353 350.626 396.502L350.958 396.842C351.153 397.042 351.353 397.178 351.56 397.25C351.768 397.321 351.972 397.331 352.171 397.282C352.369 397.23 352.553 397.122 352.724 396.957C352.834 396.85 352.92 396.736 352.98 396.617C353.04 396.496 353.071 396.372 353.076 396.244C353.08 396.116 353.054 395.988 352.998 395.86L353.647 395.424C353.76 395.629 353.82 395.848 353.824 396.081C353.829 396.311 353.778 396.544 353.672 396.778C353.567 397.009 353.404 397.231 353.186 397.443ZM355.058 395.507L352.146 392.518L352.709 391.97L353.171 392.445L353.203 392.415C353.1 392.201 353.073 391.981 353.121 391.755C353.169 391.527 353.281 391.327 353.456 391.157C353.493 391.121 353.537 391.081 353.589 391.036C353.642 390.989 353.685 390.954 353.717 390.93L354.26 391.487C354.23 391.503 354.181 391.536 354.114 391.586C354.045 391.635 353.981 391.689 353.921 391.747C353.784 391.881 353.689 392.029 353.638 392.192C353.587 392.353 353.581 392.515 353.618 392.678C353.655 392.84 353.736 392.986 353.862 393.115L355.641 394.941L355.058 395.507ZM356.904 387.895L358.731 391.939L358.107 392.544L354.107 390.612L354.733 390.004L357.732 391.568L357.764 391.537L356.278 388.502L356.904 387.895ZM360.364 390.352L357.451 387.362L358.034 386.796L360.947 389.786L360.364 390.352ZM357.296 386.615C357.195 386.714 357.075 386.765 356.937 386.768C356.798 386.768 356.683 386.721 356.59 386.627C356.497 386.531 356.453 386.414 356.459 386.277C356.464 386.138 356.518 386.019 356.619 385.921C356.721 385.822 356.841 385.772 356.979 385.772C357.117 385.769 357.234 385.815 357.327 385.911C357.419 386.006 357.463 386.123 357.457 386.262C357.451 386.399 357.398 386.517 357.296 386.615ZM363.051 387.859C362.761 388.141 362.448 388.317 362.111 388.39C361.774 388.459 361.436 388.432 361.098 388.309C360.76 388.185 360.445 387.973 360.153 387.674C359.857 387.37 359.654 387.046 359.542 386.703C359.428 386.359 359.412 386.02 359.492 385.687C359.572 385.354 359.753 385.05 360.035 384.776C360.263 384.555 360.506 384.401 360.767 384.312C361.026 384.222 361.283 384.199 361.539 384.244C361.796 384.287 362.033 384.399 362.249 384.58L361.682 385.131C361.515 385.021 361.326 384.97 361.115 384.977C360.906 384.983 360.709 385.077 360.523 385.257C360.361 385.415 360.26 385.596 360.221 385.8C360.183 386.002 360.206 386.214 360.291 386.437C360.376 386.658 360.521 386.875 360.729 387.088C360.941 387.306 361.157 387.462 361.378 387.556C361.598 387.65 361.811 387.682 362.017 387.651C362.224 387.619 362.41 387.523 362.575 387.363C362.685 387.256 362.766 387.138 362.816 387.011C362.867 386.881 362.885 386.748 362.872 386.612C362.859 386.475 362.813 386.341 362.733 386.209L363.3 385.658C363.468 385.872 363.573 386.105 363.615 386.36C363.658 386.614 363.633 386.87 363.541 387.128C363.451 387.386 363.287 387.629 363.051 387.859ZM366.194 384.805C365.899 385.092 365.584 385.276 365.248 385.357C364.912 385.436 364.575 385.416 364.235 385.299C363.896 385.179 363.575 384.964 363.273 384.654C362.975 384.348 362.769 384.022 362.656 383.678C362.544 383.332 362.527 382.993 362.606 382.661C362.686 382.328 362.865 382.027 363.143 381.757C363.312 381.592 363.503 381.461 363.716 381.363C363.929 381.265 364.156 381.214 364.399 381.211C364.641 381.208 364.892 381.266 365.15 381.387C365.408 381.505 365.668 381.7 365.933 381.971L366.134 382.178L363.754 384.49L363.329 384.054L365.138 382.297C364.989 382.143 364.825 382.038 364.648 381.981C364.469 381.922 364.29 381.913 364.11 381.954C363.931 381.994 363.766 382.087 363.616 382.233C363.452 382.393 363.348 382.572 363.304 382.771C363.261 382.967 363.268 383.162 363.327 383.355C363.386 383.545 363.488 383.715 363.634 383.864L363.966 384.205C364.16 384.404 364.361 384.54 364.568 384.612C364.776 384.683 364.979 384.693 365.179 384.644C365.377 384.593 365.561 384.484 365.731 384.319C365.842 384.212 365.927 384.098 365.988 383.979C366.047 383.858 366.079 383.734 366.083 383.606C366.088 383.478 366.062 383.35 366.006 383.222L366.654 382.786C366.768 382.991 366.827 383.21 366.832 383.443C366.836 383.674 366.786 383.906 366.68 384.14C366.574 384.371 366.412 384.593 366.194 384.805ZM368.107 378.43L367.67 379.037C367.582 378.991 367.485 378.96 367.377 378.946C367.271 378.931 367.159 378.943 367.04 378.982C366.922 379.021 366.802 379.1 366.681 379.217C366.516 379.377 366.415 379.548 366.376 379.729C366.337 379.909 366.373 380.057 366.486 380.172C366.583 380.272 366.698 380.317 366.832 380.306C366.965 380.295 367.133 380.229 367.336 380.107L367.918 379.754C368.256 379.55 368.556 379.449 368.82 379.45C369.084 379.451 369.319 379.557 369.526 379.769C369.7 379.948 369.804 380.158 369.836 380.399C369.869 380.637 369.831 380.886 369.724 381.144C369.618 381.401 369.444 381.647 369.202 381.882C368.867 382.208 368.524 382.402 368.173 382.465C367.821 382.527 367.492 382.449 367.186 382.231L367.666 381.598C367.844 381.711 368.024 381.751 368.207 381.721C368.388 381.689 368.566 381.587 368.741 381.417C368.932 381.231 369.047 381.043 369.084 380.853C369.12 380.662 369.081 380.508 368.969 380.393C368.878 380.299 368.766 380.255 368.634 380.26C368.503 380.263 368.351 380.318 368.176 380.424L367.561 380.806C367.22 381.013 366.915 381.113 366.646 381.104C366.378 381.094 366.14 380.983 365.933 380.77C365.761 380.593 365.66 380.391 365.63 380.163C365.6 379.934 365.636 379.699 365.738 379.456C365.838 379.211 366.001 378.98 366.226 378.761C366.55 378.447 366.872 378.27 367.195 378.229C367.516 378.188 367.82 378.255 368.107 378.43Z" fill="black"/>
<path d="M133.927 305.615C135.843 307.54 135.917 310.573 134.091 312.39C132.266 314.207 129.232 314.119 127.316 312.195C125.4 310.27 125.326 307.237 127.152 305.42C128.978 303.604 132.011 303.691 133.927 305.615Z" fill="#FEBC23"/>
<path d="M133.927 305.615C135.843 307.54 135.917 310.573 134.091 312.39C132.265 314.206 129.232 314.119 127.316 312.195C125.4 310.27 125.326 307.237 127.152 305.42C128.977 303.603 132.011 303.691 133.927 305.615Z" fill="#FEBC23"/>
<path d="M129.374 307.441C129.379 307.408 129.392 307.383 129.417 307.373C129.422 307.373 129.454 307.38 129.529 307.449C129.593 307.508 129.666 307.588 129.742 307.673C129.86 307.804 129.982 307.938 130.102 308.029C130.326 308.2 130.749 308.346 131.089 308.464C131.202 308.503 131.308 308.54 131.393 308.573C131.72 308.7 132.233 308.793 132.739 308.875C133.14 308.94 133.767 309.403 134.035 309.601L134.056 309.617C134.279 309.781 134.8 309.877 135.181 309.946L135.183 309.95C135.263 309.964 135.335 309.977 135.392 309.989C135.416 310.033 135.46 310.125 135.491 310.26C135.566 310.579 135.514 310.88 135.457 311.077C135.353 311.435 135.189 311.653 135.07 311.773L135.065 311.778C134.975 311.868 134.897 311.916 134.859 311.937C134.4 311.781 134.129 311.689 133.885 311.667C133.968 311.62 134.044 311.57 134.114 311.514C134.165 311.474 134.213 311.432 134.259 311.386C134.356 311.289 134.442 311.178 134.529 311.042C134.615 310.906 134.623 310.754 134.553 310.59C134.497 310.46 134.401 310.343 134.324 310.249C134.291 310.21 134.26 310.172 134.239 310.141C134.212 310.104 134.163 310.092 134.126 310.116C134.09 310.141 134.081 310.189 134.107 310.227C134.132 310.263 134.166 310.304 134.202 310.348C134.379 310.563 134.515 310.756 134.392 310.95C134.206 311.241 133.947 311.538 133.304 311.729C132.93 311.84 132.827 311.847 132.707 311.855C132.623 311.861 132.529 311.867 132.336 311.91C132.102 311.962 131.799 312.026 131.534 312.058C131.127 312.107 131.013 312.055 130.982 312.03C130.874 311.943 130.758 311.623 130.665 311.366C130.605 311.201 130.548 311.045 130.489 310.924C130.411 310.763 130.338 310.607 130.32 310.48C130.301 310.356 130.336 310.285 130.435 310.238C130.592 310.164 130.859 310.143 131.077 310.127L131.088 310.126C131.25 310.114 131.378 310.105 131.452 310.077C131.525 310.05 131.783 310.076 131.971 310.095C132.193 310.117 132.329 310.129 132.4 310.111C132.41 310.125 132.424 310.159 132.419 310.204C132.415 310.24 132.398 310.294 132.336 310.344C132.333 310.346 132.331 310.348 132.328 310.351C132.294 310.377 132.246 310.401 132.183 310.421C131.963 310.488 131.828 310.486 131.719 310.485C131.62 310.484 131.533 310.482 131.438 310.536C131.326 310.599 131.242 310.665 131.193 310.706C131.128 310.702 131.007 310.685 130.933 310.634C130.895 310.608 130.846 310.617 130.822 310.654C130.798 310.69 130.809 310.74 130.847 310.766C130.91 310.808 130.994 310.839 131.097 310.856C131.071 310.92 131.032 311.01 130.991 311.083C130.969 311.121 130.984 311.171 131.023 311.194C131.062 311.217 131.111 311.206 131.132 311.168C131.197 311.052 131.255 310.904 131.274 310.854C131.297 310.832 131.359 310.779 131.446 310.722C131.518 310.946 131.503 311.412 131.48 311.546C131.473 311.589 131.502 311.632 131.546 311.642C131.573 311.647 131.6 311.639 131.618 311.622C131.628 311.611 131.636 311.597 131.639 311.581C131.654 311.495 131.665 311.298 131.658 311.105C131.651 310.909 131.628 310.758 131.588 310.652C131.627 310.644 131.667 310.645 131.723 310.646C131.837 310.648 131.992 310.65 132.236 310.576C132.321 310.549 132.385 310.515 132.434 310.477C132.728 310.28 132.995 310.2 133.169 310.167C133.357 310.131 133.479 310.143 133.479 310.143C133.503 310.146 133.526 310.137 133.541 310.122C133.554 310.109 133.562 310.091 133.564 310.072C133.566 310.027 133.533 309.988 133.488 309.983C133.469 309.981 133.081 309.944 132.579 310.2C132.581 310.115 132.549 310.032 132.493 309.985C132.45 309.949 132.398 309.938 132.35 309.955C132.311 309.968 132.11 309.948 131.977 309.935C131.821 309.92 131.692 309.908 131.591 309.906C131.618 309.894 131.643 309.883 131.665 309.877C131.673 309.874 131.683 309.872 131.694 309.868C131.792 309.838 131.975 309.783 132.146 309.698C132.262 309.641 132.353 309.579 132.42 309.512C132.482 309.45 132.522 309.386 132.542 309.317C132.589 309.148 132.56 309 132.462 308.911C132.379 308.835 132.259 308.816 132.149 308.86C131.989 308.924 131.751 308.998 131.355 309.108C131.236 309.141 131.083 309.169 130.92 309.194C130.789 309.08 130.598 309.011 130.398 308.939C130.258 308.89 130.114 308.838 129.991 308.77C129.82 308.675 129.7 308.503 129.617 308.346C129.613 308.336 129.608 308.327 129.604 308.319L129.603 308.318C129.562 308.238 129.532 308.163 129.509 308.105L129.418 307.719C129.418 307.709 129.417 307.699 129.413 307.689C129.389 307.622 129.364 307.52 129.372 307.45C129.373 307.447 129.374 307.443 129.374 307.441Z" fill="#1E3A8A"/>
<path d="M128.78 307.258C128.825 307.231 128.892 307.231 128.964 307.257C129.025 307.279 129.117 307.332 129.211 307.45C129.211 307.462 129.21 307.472 129.211 307.484C129.213 307.572 129.238 307.661 129.256 307.716L129.339 308.087C129.339 308.097 129.34 308.106 129.344 308.116C129.371 308.187 129.412 308.295 129.474 308.412C129.506 308.486 129.524 308.618 129.54 308.736C129.554 308.834 129.566 308.926 129.587 308.995C129.635 309.156 129.716 309.3 129.803 309.375C129.833 309.402 129.869 309.428 129.902 309.451C129.781 309.559 129.694 309.711 129.716 309.863C129.74 310.027 129.775 310.114 129.871 310.342C129.89 310.384 129.936 310.405 129.977 310.39C130.018 310.374 130.037 310.328 130.019 310.286C129.925 310.063 129.897 309.992 129.875 309.847C129.859 309.735 129.963 309.584 130.113 309.505C130.191 309.463 130.467 309.423 130.71 309.388C130.96 309.351 131.219 309.314 131.405 309.262C131.807 309.15 132.049 309.075 132.215 309.008C132.267 308.988 132.321 308.995 132.356 309.026C132.404 309.07 132.415 309.157 132.385 309.265C132.357 309.363 132.248 309.462 132.067 309.552C131.907 309.631 131.733 309.683 131.639 309.712C131.627 309.715 131.617 309.718 131.609 309.72C131.535 309.743 131.441 309.791 131.342 309.841C131.238 309.894 131.108 309.961 131.052 309.965C130.821 309.982 130.537 310.004 130.356 310.09C130.195 310.165 130.128 310.301 130.156 310.492C130.178 310.644 130.257 310.812 130.341 310.986C130.396 311.099 130.452 311.25 130.51 311.411C130.534 311.478 130.558 311.543 130.582 311.606C130.561 311.581 130.54 311.552 130.52 311.515L130.517 311.512C130.514 311.506 130.427 311.37 130.241 311.183C130.155 311.098 130.084 310.969 130.002 310.82C129.922 310.675 129.83 310.512 129.706 310.349C129.648 310.273 129.586 310.199 129.52 310.12C129.425 310.007 129.328 309.892 129.247 309.776C129.246 309.772 129.244 309.77 129.242 309.768C129.14 309.621 129.063 309.473 129.046 309.327C129.042 309.293 129.038 309.256 129.034 309.215C129.011 309.017 128.98 308.751 128.951 308.509L128.949 308.507C128.918 308.267 128.887 308.051 128.863 307.948C128.86 307.937 128.857 307.925 128.854 307.913C128.827 307.799 128.79 307.643 128.771 307.504C128.745 307.298 128.778 307.26 128.78 307.258Z" fill="#1E3A8A"/>
<path d="M129.703 308.736C129.766 308.802 129.838 308.861 129.92 308.907C130.054 308.981 130.205 309.036 130.351 309.088C130.475 309.132 130.594 309.174 130.691 309.226L130.679 309.227C130.351 309.275 130.141 309.308 130.041 309.357C130.007 309.334 129.948 309.293 129.906 309.256C129.857 309.214 129.788 309.113 129.742 308.956L129.742 308.955C129.726 308.901 129.714 308.822 129.703 308.736Z" fill="#1E3A8A"/>
<path d="M128.019 307.929C128.018 307.9 128.031 307.879 128.057 307.866C128.096 307.848 128.168 307.848 128.248 307.909C128.396 308.021 128.659 308.346 128.795 308.541C128.825 308.776 128.855 309.033 128.877 309.226L128.877 309.225C128.881 309.265 128.885 309.304 128.89 309.338C128.892 309.362 128.896 309.386 128.902 309.41C128.87 309.372 128.843 309.335 128.822 309.3C128.687 309.086 128.512 308.856 128.352 308.685C128.202 308.527 128.021 308.026 128.019 307.929Z" fill="#1E3A8A"/>
<path d="M129.684 306.106C129.712 306.073 129.763 306.071 129.797 306.102C129.832 306.132 129.836 306.183 129.808 306.216L129.392 306.692L129.389 306.695C129.36 306.724 129.312 306.724 129.279 306.695L129.279 306.696C129.244 306.665 129.24 306.614 129.268 306.582L129.684 306.106Z" fill="#1E3A8A"/>
<path d="M128.506 305.904C128.492 305.861 128.515 305.817 128.557 305.805C128.599 305.793 128.644 305.819 128.659 305.861L128.858 306.473C128.867 306.503 128.859 306.534 128.84 306.553C128.831 306.562 128.819 306.569 128.806 306.572L128.807 306.572C128.765 306.584 128.72 306.558 128.705 306.515L128.506 305.904Z" fill="#1E3A8A"/>
<path d="M127.776 306.58C127.789 306.538 127.834 306.518 127.877 306.533L128.419 306.733C128.461 306.749 128.484 306.795 128.471 306.837C128.466 306.849 128.46 306.859 128.452 306.867C128.432 306.887 128.4 306.895 128.37 306.884L127.828 306.684C127.786 306.668 127.762 306.622 127.776 306.58Z" fill="#1E3A8A"/>
<path d="M137.455 303.936C137.738 303.928 138.015 303.768 138.284 303.457C138.505 303.201 138.641 302.94 138.693 302.673C138.745 302.407 138.668 302.167 138.462 301.951C138.365 301.847 138.206 301.806 137.984 301.831C137.762 301.856 137.492 302.022 137.17 302.328C136.615 302.856 136.106 303.105 135.641 303.071C135.175 303.039 134.775 302.826 134.44 302.432C134.217 302.171 134.063 301.866 133.971 301.519C133.88 301.169 133.883 300.8 133.976 300.409C134.068 300.018 134.272 299.642 134.585 299.28C134.914 298.898 135.263 298.652 135.631 298.543C135.999 298.434 136.349 298.434 136.682 298.549C137.015 298.664 137.301 298.855 137.544 299.12L136.804 299.976C136.609 299.786 136.376 299.687 136.102 299.677C135.827 299.668 135.592 299.781 135.391 300.013C135.191 300.244 135.065 300.514 135.028 300.808C134.991 301.102 135.047 301.336 135.196 301.512C135.362 301.706 135.562 301.778 135.795 301.725C136.028 301.671 136.281 301.511 136.554 301.241C137.141 300.676 137.654 300.39 138.098 300.38C138.54 300.371 138.923 300.555 139.242 300.928C139.469 301.195 139.626 301.509 139.714 301.875C139.801 302.24 139.789 302.631 139.674 303.051C139.561 303.469 139.328 303.882 138.975 304.291C138.645 304.672 138.295 304.92 137.923 305.034C137.551 305.148 137.195 305.154 136.854 305.049C136.513 304.944 136.215 304.756 135.961 304.484L136.696 303.635C136.917 303.84 137.171 303.937 137.455 303.93L137.455 303.936Z" fill="#FEBC23"/>
<path d="M137.858 298.75L138.364 298.164L138.728 298.465C138.707 297.82 138.859 297.311 139.183 296.937C139.496 296.584 139.849 296.381 140.244 296.322C140.639 296.264 141.02 296.455 141.388 296.887L143.311 299.144L142.589 299.979L140.89 297.972C140.725 297.778 140.54 297.672 140.337 297.653C140.133 297.634 139.951 297.716 139.79 297.903C139.629 298.089 139.543 298.319 139.541 298.58C139.539 298.84 139.621 299.065 139.782 299.255L141.487 301.27L140.766 302.105L137.861 298.75L137.858 298.75Z" fill="#FEBC23"/>
<path d="M144.165 297.849C143.797 297.958 143.428 297.954 143.059 297.835C142.69 297.716 142.369 297.494 142.094 297.172C141.819 296.849 141.626 296.466 141.525 296.033C141.426 295.603 141.425 295.173 141.521 294.745C141.617 294.316 141.806 293.941 142.083 293.621C142.263 293.412 142.465 293.25 142.688 293.133C142.911 293.016 143.144 292.945 143.386 292.921L143.149 292.643L143.787 291.904L145.976 294.474C146.045 294.555 146.096 294.603 146.131 294.621C146.165 294.638 146.197 294.633 146.228 294.608C146.258 294.582 146.313 294.522 146.393 294.429L146.854 294.97C146.829 295.045 146.727 295.19 146.542 295.404C146.429 295.534 146.305 295.612 146.167 295.638C146.029 295.664 145.893 295.648 145.756 295.591C145.738 295.896 145.676 296.187 145.572 296.46C145.468 296.737 145.321 296.983 145.133 297.2C144.856 297.52 144.535 297.735 144.165 297.846L144.165 297.849ZM144.748 295.888C144.811 295.678 144.822 295.45 144.779 295.202C144.736 294.954 144.616 294.715 144.418 294.483C144.22 294.251 144.015 294.107 143.8 294.052C143.586 293.999 143.388 294.009 143.205 294.083C143.022 294.157 142.871 294.265 142.75 294.404C142.629 294.544 142.53 294.727 142.465 294.939C142.4 295.152 142.39 295.382 142.434 295.632C142.478 295.881 142.6 296.122 142.799 296.356C142.998 296.589 143.201 296.73 143.413 296.782C143.626 296.834 143.823 296.821 144.005 296.747C144.188 296.673 144.342 296.563 144.466 296.42C144.59 296.277 144.684 296.099 144.748 295.888Z" fill="#FEBC23"/>
<path d="M146.614 288.895C146.978 288.781 147.342 288.781 147.707 288.895C148.072 289.009 148.392 289.229 148.667 289.552C148.941 289.874 149.135 290.258 149.236 290.69C149.335 291.121 149.336 291.55 149.24 291.979C149.144 292.407 148.955 292.782 148.678 293.102C148.349 293.483 147.961 293.709 147.515 293.785L149.322 295.907L148.666 296.667L144.147 291.361L144.803 290.601L145.064 290.907C145.133 290.373 145.33 289.92 145.652 289.548C145.928 289.228 146.249 289.011 146.614 288.895ZM146.013 290.835C145.949 291.046 145.939 291.273 145.982 291.521C146.024 291.769 146.145 292.008 146.343 292.24C146.54 292.472 146.746 292.616 146.961 292.671C147.175 292.724 147.373 292.714 147.556 292.64C147.738 292.566 147.89 292.459 148.011 292.319C148.132 292.179 148.231 291.996 148.296 291.784C148.361 291.572 148.371 291.341 148.327 291.091C148.283 290.842 148.161 290.601 147.962 290.368C147.763 290.134 147.558 289.991 147.347 289.941C147.135 289.89 146.938 289.902 146.756 289.976C146.573 290.05 146.418 290.16 146.295 290.303C146.171 290.447 146.077 290.624 146.013 290.835Z" fill="#FEBC23"/>
<path d="M148.272 286.703L149.989 288.705C150.151 288.896 150.343 288.991 150.566 288.991C150.79 288.99 150.983 288.897 151.149 288.706C151.314 288.514 151.396 288.289 151.398 288.029C151.4 287.768 151.318 287.543 151.157 287.354L149.448 285.36L149.46 285.345L149.455 285.338L150.176 284.503L151.893 286.506C152.055 286.697 152.247 286.792 152.47 286.792C152.694 286.791 152.887 286.698 153.053 286.506C153.218 286.315 153.3 286.09 153.302 285.83C153.304 285.569 153.222 285.344 153.061 285.154L151.352 283.16L152.073 282.325L153.996 284.583C154.247 284.877 154.389 285.19 154.422 285.524C154.455 285.858 154.41 286.177 154.287 286.487C154.162 286.794 153.997 287.07 153.788 287.312C153.612 287.516 153.414 287.682 153.195 287.815C152.977 287.947 152.755 288.024 152.527 288.048C152.512 288.312 152.445 288.571 152.328 288.825C152.21 289.079 152.062 289.308 151.886 289.512C151.661 289.773 151.403 289.97 151.112 290.104C150.82 290.239 150.533 290.287 150.248 290.248C149.964 290.21 149.72 290.068 149.512 289.825L147.553 287.538L148.275 286.703L148.272 286.703Z" fill="#FEBC23"/>
<path d="M155.845 284.439C155.477 284.548 155.109 284.543 154.74 284.425C154.371 284.306 154.049 284.084 153.774 283.761C153.5 283.439 153.306 283.056 153.205 282.623C153.106 282.192 153.105 281.763 153.201 281.335C153.297 280.906 153.486 280.531 153.763 280.211C154.04 279.891 154.356 279.682 154.724 279.573C155.092 279.464 155.461 279.469 155.83 279.587C156.199 279.706 156.523 279.932 156.802 280.259C157.081 280.586 157.265 280.958 157.364 281.389C157.463 281.82 157.465 282.249 157.368 282.678C157.272 283.106 157.086 283.478 156.813 283.793C156.541 284.108 156.215 284.328 155.845 284.439ZM156.428 282.478C156.492 282.267 156.502 282.04 156.459 281.792C156.417 281.544 156.296 281.305 156.098 281.073C155.901 280.841 155.695 280.697 155.48 280.642C155.266 280.589 155.068 280.599 154.885 280.673C154.703 280.747 154.551 280.854 154.43 280.994C154.309 281.134 154.21 281.317 154.145 281.529C154.081 281.741 154.07 281.972 154.114 282.222C154.158 282.471 154.28 282.712 154.479 282.946C154.678 283.179 154.883 283.322 155.094 283.372C155.306 283.423 155.503 283.411 155.685 283.337C155.868 283.263 156.023 283.153 156.146 283.01C156.27 282.867 156.365 282.689 156.428 282.478Z" fill="#FEBC23"/>
<path d="M157.197 278.146C157.184 278.415 157.273 278.662 157.462 278.884L159.124 280.865L158.402 281.687L155.539 278.313L156.118 277.63L156.427 277.952C156.446 277.29 156.647 276.751 157.034 276.333L157.713 277.131C157.385 277.54 157.213 277.879 157.2 278.149L157.197 278.146Z" fill="#FEBC23"/>
<path d="M156.751 273.913L158.795 276.313L159.258 275.777L159.403 273.814L160.275 272.776L160.115 275.675L163.199 276.138L162.416 277.044L159.864 276.729L159.503 277.147L160.904 278.792L160.236 279.565L156.082 274.687L156.751 273.913Z" fill="#FEBC23"/>
<path d="M158.338 269.735C158.16 269.732 158.04 269.941 158.109 270.131L158.747 271.979C158.795 272.135 158.943 272.213 159.072 272.154C159.202 272.095 159.261 271.92 159.204 271.77L158.569 269.923C158.532 269.811 158.44 269.737 158.338 269.735Z" fill="#FEBC23"/>
<path d="M160.29 269.472C160.153 269.472 160.043 269.601 160.045 269.761L160.034 271.686C160.026 271.853 160.137 271.993 160.281 271.997C160.425 272.001 160.537 271.863 160.53 271.696L160.54 269.77C160.543 269.608 160.43 269.474 160.292 269.473L160.29 269.472Z" fill="#FEBC23"/>
<path d="M156.767 271.108C156.543 271.103 156.431 271.415 156.59 271.598L157.744 272.985C157.838 273.105 157.999 273.113 158.098 273C158.198 272.886 158.198 272.701 158.096 272.586L156.944 271.198C156.898 271.139 156.834 271.107 156.767 271.108Z" fill="#FEBC23"/>
<path d="M286.811 333.676C286.007 333.82 285.149 333.115 285.66 332.477C286.486 331.444 287.605 331.269 287.605 331.269C287.605 331.269 287.089 329.538 288.281 328.001C289.438 326.509 291.253 326.626 291.253 326.626C291.253 326.626 291.35 324.879 292.647 323.807C293.923 322.751 295.889 322.985 295.889 322.985C295.889 322.985 296.472 321.095 298.332 320.542C300.193 319.988 301.413 320.924 301.413 320.924C301.413 320.924 302.14 319.386 304.31 319.052C306.1 318.777 307.099 320.073 307.099 320.073C307.099 320.073 308.47 318.781 310.179 318.985C311.507 319.143 313.085 320.556 313.085 320.556C313.085 320.556 314.552 319.61 316.457 320.675C318.361 321.74 318.624 322.842 318.624 322.842C318.624 322.842 320.262 322.431 321.878 323.727C323.394 324.943 323.653 326.492 323.653 326.492C323.653 326.492 325.65 326.579 326.886 328.255C327.784 329.473 327.714 331.063 327.714 331.063C327.714 331.063 329.542 331.603 330.301 333.14C331.147 334.852 330.333 336.38 330.333 336.38C330.333 336.38 331.969 337.701 332.341 339.017C332.713 340.334 331.774 342.304 331.774 342.304C331.774 342.304 332.939 343.821 333.012 345.191C333.085 346.561 331.686 348.288 331.686 348.288C331.686 348.288 332.517 350.081 332.14 351.47C331.736 352.956 330.012 353.93 330.012 353.93C330.012 353.93 330.196 355.802 329.624 356.721C328.554 358.439 326.999 358.698 326.999 358.698C326.999 358.698 327.105 360.378 325.703 361.78C324.913 362.57 322.973 362.724 322.973 362.724C322.973 362.724 322.185 364.704 321.087 365.305C320.066 365.865 318.071 365.618 318.071 365.618C318.071 365.618 317.493 367.303 315.153 367.587C313.724 367.761 312.245 367.018 312.245 367.018C312.245 367.018 311.157 368.659 308.919 368.415C306.681 368.171 306.261 367.121 306.261 367.121C306.261 367.121 304.609 368.093 302.813 367.676C301.638 367.403 300.293 365.816 300.293 365.816C300.293 365.816 298.027 366.075 296.834 365.37C295.756 364.733 294.813 362.87 294.813 362.87C294.813 362.87 293.102 363.032 291.647 361.578C290.65 360.581 290.33 358.611 290.33 358.611C290.33 358.611 288.571 358.236 287.608 356.954C286.645 355.672 286.85 353.617 286.85 353.617C286.85 353.617 286.53 353.481 286.121 353.208C285.34 352.687 285.971 352.251 286.834 352.62C287.247 352.796 287.691 352.917 288.156 352.944L296.73 353.033L305.336 352.864C305.734 352.856 306.045 352.517 306.019 352.12L306.01 351.981C305.991 351.693 305.753 351.468 305.464 351.467L305.199 351.466C305.06 351.466 304.946 351.358 304.936 351.22C304.925 351.066 305.049 350.935 305.204 350.937L305.537 350.942C305.873 350.947 306.14 350.659 306.114 350.324C306.089 350.02 305.831 349.785 305.526 349.793L305.16 349.802C305.007 349.806 304.88 349.688 304.871 349.536C304.863 349.38 304.982 349.248 305.138 349.239L305.432 349.224C305.756 349.207 306.002 348.925 305.975 348.602L305.972 348.561C305.944 348.23 305.659 347.981 305.327 347.998L305.027 348.014C304.861 348.022 304.718 347.898 304.704 347.732C304.689 347.557 304.823 347.405 304.999 347.397L305.237 347.388C305.554 347.375 305.791 347.091 305.746 346.777L305.737 346.714C305.698 346.434 305.461 346.225 305.179 346.219L304.949 346.215C304.792 346.212 304.662 346.094 304.644 345.938C304.623 345.756 304.762 345.596 304.945 345.59L305.183 345.583C305.459 345.575 305.67 345.331 305.638 345.056C305.61 344.81 305.395 344.627 305.147 344.639L304.862 344.652C304.671 344.66 304.504 344.524 304.474 344.335C304.438 344.113 304.605 343.909 304.83 343.9L304.975 343.894C305.278 343.882 305.501 343.607 305.453 343.308L305.438 343.221C305.39 342.921 305.117 342.711 304.815 342.74L304.537 342.767C304.394 342.78 304.265 342.682 304.241 342.541C304.211 342.376 304.337 342.223 304.505 342.219L304.752 342.214C305.044 342.208 305.264 341.948 305.223 341.659L305.202 341.507C305.161 341.216 304.909 341 304.614 341.003L304.333 341.006C304.203 341.007 304.092 340.913 304.072 340.785C304.046 340.624 304.174 340.479 304.337 340.484L304.619 340.491C304.917 340.499 305.154 340.245 305.127 339.949L305.113 339.796L305.104 339.736C305.057 339.429 304.783 339.207 304.472 339.225L304.159 339.244C304.028 339.251 303.913 339.159 303.892 339.03C303.868 338.882 303.976 338.745 304.125 338.734L304.405 338.714C304.69 338.693 304.902 338.443 304.878 338.159L304.875 338.119C304.851 337.838 304.62 337.621 304.339 337.613L304.032 337.605C303.863 337.601 303.723 337.475 303.701 337.308C303.675 337.11 303.822 336.932 304.021 336.92L304.301 336.905C304.604 336.888 304.831 336.62 304.798 336.317L304.789 336.263C304.742 335.964 304.47 335.753 304.169 335.783L303.928 335.806C303.772 335.822 303.631 335.716 303.6 335.563C303.563 335.38 303.699 335.207 303.885 335.199L304.168 335.187C304.484 335.173 304.723 334.896 304.688 334.581L304.674 334.451C304.637 334.117 304.357 333.861 304.02 333.856L288.051 333.588C287.611 333.57 287.193 333.608 286.811 333.676Z" fill="#1E3A8A"/>
<path d="M319.028 366.874C319.028 366.874 322.509 370.27 323.009 371.635C324.311 375.187 323.165 378.088 323.165 378.088C322.208 380.61 320.782 382.842 321.711 386.545C322.189 388.447 322.995 389.987 325.181 391.738C326.041 392.427 326.358 392.031 327.125 391.344L355.401 363.068C356.081 362.308 356.948 361.802 356.229 360.927C355.68 360.162 354.369 358.882 353.431 358.398C348.477 355.843 346.318 357.193 342.736 358.754C339.969 359.96 337.494 359.38 336.079 358.692C333.748 357.561 331.12 354.798 331.12 354.798C331.12 354.798 330.88 356.854 330.23 357.791C329.614 358.678 328.027 359.456 328.027 359.456C328.027 359.456 327.525 361.308 326.737 362.185C325.818 363.208 323.634 363.849 323.634 363.849C323.634 363.849 322.79 365.227 321.978 365.821C320.999 366.538 319.028 366.874 319.028 366.874Z" fill="#AFD1FA"/>
<path d="M286.811 333.676C286.007 333.82 285.149 333.115 285.66 332.477C286.486 331.444 287.605 331.269 287.605 331.269C287.605 331.269 287.089 329.538 288.281 328.001C289.438 326.509 291.253 326.626 291.253 326.626C291.253 326.626 291.35 324.879 292.647 323.807C293.923 322.751 295.889 322.985 295.889 322.985C295.889 322.985 296.472 321.095 298.332 320.542C300.193 319.988 301.413 320.924 301.413 320.924C301.413 320.924 302.14 319.386 304.31 319.052C306.1 318.777 307.099 320.073 307.099 320.073C307.099 320.073 308.47 318.781 310.179 318.985C311.507 319.143 313.085 320.556 313.085 320.556C313.085 320.556 314.552 319.61 316.457 320.675C318.361 321.74 318.624 322.842 318.624 322.842C318.624 322.842 320.262 322.431 321.878 323.727C323.394 324.943 323.653 326.492 323.653 326.492C323.653 326.492 325.65 326.579 326.886 328.255C327.784 329.473 327.714 331.063 327.714 331.063C327.714 331.063 329.542 331.603 330.301 333.14C331.147 334.852 330.333 336.38 330.333 336.38C330.333 336.38 331.969 337.701 332.341 339.017C332.713 340.334 331.774 342.304 331.774 342.304C331.774 342.304 332.939 343.821 333.012 345.191C333.085 346.561 331.686 348.288 331.686 348.288C331.686 348.288 332.517 350.081 332.14 351.47C331.736 352.956 330.012 353.93 330.012 353.93C330.012 353.93 330.196 355.802 329.624 356.721C328.554 358.439 326.999 358.698 326.999 358.698C326.999 358.698 327.105 360.378 325.703 361.78C324.913 362.57 322.973 362.724 322.973 362.724C322.973 362.724 322.185 364.704 321.087 365.305C320.066 365.865 318.071 365.618 318.071 365.618C318.071 365.618 317.493 367.303 315.153 367.587C313.724 367.761 312.245 367.018 312.245 367.018C312.245 367.018 311.157 368.659 308.919 368.415C306.681 368.171 306.261 367.121 306.261 367.121C306.261 367.121 304.609 368.093 302.813 367.676C301.638 367.403 300.293 365.816 300.293 365.816C300.293 365.816 298.027 366.075 296.834 365.37C295.756 364.733 294.813 362.87 294.813 362.87C294.813 362.87 293.102 363.032 291.647 361.578C290.65 360.581 290.33 358.611 290.33 358.611C290.33 358.611 288.571 358.236 287.608 356.954C286.645 355.672 286.85 353.617 286.85 353.617C286.85 353.617 286.53 353.481 286.121 353.208C285.34 352.687 285.971 352.251 286.834 352.62C287.247 352.796 287.691 352.917 288.156 352.944L296.73 353.033L305.336 352.864C305.734 352.856 306.045 352.517 306.019 352.12L306.01 351.981C305.991 351.693 305.753 351.468 305.464 351.467L305.199 351.466C305.06 351.466 304.946 351.358 304.936 351.22C304.925 351.066 305.049 350.935 305.204 350.937L305.537 350.942C305.873 350.947 306.14 350.659 306.114 350.324C306.089 350.02 305.831 349.785 305.526 349.793L305.16 349.802C305.007 349.806 304.88 349.688 304.871 349.536C304.863 349.38 304.982 349.248 305.138 349.239L305.432 349.224C305.756 349.207 306.002 348.925 305.975 348.602L305.972 348.561C305.944 348.23 305.659 347.981 305.327 347.998L305.027 348.014C304.861 348.022 304.718 347.898 304.704 347.732C304.689 347.557 304.823 347.405 304.999 347.397L305.237 347.388C305.554 347.375 305.791 347.091 305.746 346.777L305.737 346.714C305.698 346.434 305.461 346.225 305.179 346.219L304.949 346.215C304.792 346.212 304.662 346.094 304.644 345.938C304.623 345.756 304.762 345.596 304.945 345.59L305.183 345.583C305.459 345.575 305.67 345.331 305.638 345.056C305.61 344.81 305.395 344.627 305.147 344.639L304.862 344.652C304.671 344.66 304.504 344.524 304.474 344.335C304.438 344.113 304.605 343.909 304.83 343.9L304.975 343.894C305.278 343.882 305.501 343.607 305.453 343.308L305.438 343.221C305.39 342.921 305.117 342.711 304.815 342.74L304.537 342.767C304.394 342.78 304.265 342.682 304.241 342.541C304.211 342.376 304.337 342.223 304.505 342.219L304.752 342.214C305.044 342.208 305.264 341.948 305.223 341.659L305.202 341.507C305.161 341.216 304.909 341 304.614 341.003L304.333 341.006C304.203 341.007 304.092 340.913 304.072 340.785C304.046 340.624 304.174 340.479 304.337 340.484L304.619 340.491C304.917 340.499 305.154 340.245 305.127 339.949L305.113 339.796L305.104 339.736C305.057 339.429 304.783 339.207 304.472 339.225L304.159 339.244C304.028 339.251 303.913 339.159 303.892 339.03C303.868 338.882 303.976 338.745 304.125 338.734L304.405 338.714C304.69 338.693 304.902 338.443 304.878 338.159L304.875 338.119C304.851 337.838 304.62 337.621 304.339 337.613L304.032 337.605C303.863 337.601 303.723 337.475 303.701 337.308C303.675 337.11 303.822 336.932 304.021 336.92L304.301 336.905C304.604 336.888 304.831 336.62 304.798 336.317L304.789 336.263C304.742 335.964 304.47 335.753 304.169 335.783L303.928 335.806C303.772 335.822 303.631 335.716 303.6 335.563C303.563 335.38 303.699 335.207 303.885 335.199L304.168 335.187C304.484 335.173 304.723 334.896 304.688 334.581L304.674 334.451C304.637 334.117 304.357 333.861 304.02 333.856L288.051 333.588C287.611 333.57 287.193 333.608 286.811 333.676Z" stroke="black" stroke-width="0.153039"/>
<path d="M319.028 366.874C319.028 366.874 322.509 370.27 323.009 371.635C324.311 375.187 323.165 378.088 323.165 378.088C322.208 380.61 320.782 382.842 321.711 386.545C322.189 388.447 322.995 389.987 325.181 391.738C326.041 392.427 326.358 392.031 327.125 391.344L355.401 363.068C356.081 362.308 356.948 361.802 356.229 360.927C355.68 360.162 354.369 358.882 353.431 358.398C348.477 355.843 346.318 357.193 342.736 358.754C339.969 359.96 337.494 359.38 336.079 358.692C333.748 357.561 331.12 354.798 331.12 354.798C331.12 354.798 330.88 356.854 330.23 357.791C329.614 358.678 328.027 359.456 328.027 359.456C328.027 359.456 327.525 361.308 326.737 362.185C325.818 363.208 323.634 363.849 323.634 363.849C323.634 363.849 322.79 365.227 321.978 365.821C320.999 366.538 319.028 366.874 319.028 366.874Z" stroke="black" stroke-width="0.153039"/>
<path fill-rule="evenodd" clip-rule="evenodd" d="M270.006 347.503C268.116 347.047 266.717 345.374 266.622 343.455L266.594 342.871C266.5 340.968 267.733 339.322 269.568 338.901L269.622 338.889C270.61 338.662 271.665 338.837 272.548 339.407C272.548 339.407 274.73 340.983 277.243 340.882C282.118 340.688 283.637 337.139 283.637 337.139C283.824 336.763 284.308 335.906 284.743 335.489C286.035 334.252 287.105 334.154 289.125 334.161L304.308 334.395C304.416 334.397 304.508 334.486 304.514 334.594C304.519 334.703 304.436 334.791 304.327 334.792L289.071 334.892L288.894 335.925L304.365 336.116C304.489 336.117 304.593 336.218 304.6 336.341C304.606 336.465 304.511 336.564 304.388 336.565L288.799 336.656L288.689 337.649L304.436 337.844C304.568 337.846 304.679 337.953 304.685 338.084C304.692 338.215 304.591 338.322 304.46 338.322L288.625 338.429L288.543 339.413L304.541 339.597C304.662 339.599 304.765 339.697 304.771 339.819C304.777 339.94 304.684 340.038 304.563 340.038L288.578 340.12L288.589 341.162L304.622 341.362C304.747 341.364 304.852 341.465 304.858 341.59C304.864 341.714 304.769 341.815 304.644 341.816L288.552 341.909L288.601 342.898L304.709 343.091C304.833 343.092 304.937 343.193 304.943 343.316C304.949 343.44 304.855 343.54 304.731 343.54L288.637 343.642L288.687 344.647L304.817 344.868C304.929 344.87 305.024 344.961 305.03 345.073C305.035 345.185 304.949 345.276 304.837 345.277L288.768 345.391L288.846 346.38L304.877 346.592C305.003 346.594 305.11 346.697 305.116 346.822C305.122 346.948 305.026 347.05 304.9 347.05L288.925 347.16L289.102 348.113L304.966 348.341C305.09 348.343 305.196 348.444 305.202 348.569C305.208 348.693 305.113 348.794 304.988 348.795L289.239 348.889L289.478 349.863L305.052 350.062C305.176 350.063 305.28 350.164 305.287 350.287C305.293 350.411 305.198 350.511 305.075 350.512L289.643 350.631L289.916 351.621L305.163 351.847C305.274 351.849 305.368 351.939 305.373 352.05C305.379 352.161 305.294 352.251 305.183 352.252L288.73 352.389C286.326 352.38 284.983 350.553 284.288 349.451C282.485 346.483 279.162 345.535 277.472 345.528C275.921 345.523 274.575 346.102 274.575 346.102C273.871 346.333 273.424 346.637 272.947 346.989C272.118 347.599 271.045 347.753 270.006 347.503ZM269.778 343.825C269.446 343.804 269.177 343.558 269.141 343.226C269.103 342.873 269.365 342.578 269.716 342.558C270.088 342.537 270.438 342.857 270.435 343.231C270.432 343.585 270.134 343.847 269.778 343.825Z" fill="#FEBC23" stroke="black" stroke-width="0.153039"/>
<path d="M339.704 353.502C337.867 355.34 337.867 358.319 339.704 360.157L345.69 366.142C347.527 367.979 350.506 367.979 352.344 366.142L359.822 358.664C361.716 356.769 361.716 353.697 359.822 351.803L354.839 356.944C353.205 358.63 350.508 358.651 348.848 356.991C347.206 355.349 347.206 352.688 348.848 351.046L353.956 345.938C352.11 344.091 349.116 344.091 347.269 345.938L339.704 353.502Z" fill="#1E3A8A"/>
<path d="M336.2 349.719C335.453 350.466 335.453 351.677 336.2 352.424L337.456 353.68L347.546 343.59L346.29 342.334C345.543 341.587 344.332 341.587 343.585 342.334L336.2 349.719Z" fill="#1E3A8A"/>
<path d="M353.956 345.938L348.848 351.046C347.206 352.688 347.206 355.349 348.848 356.991C350.508 358.651 353.205 358.63 354.839 356.944L359.822 351.803L353.956 345.938Z" fill="#4766C0"/>
<path d="M353.956 345.938L348.848 351.046C347.206 352.688 347.206 355.349 348.848 356.991C350.508 358.651 353.205 358.63 354.839 356.944L359.822 351.803M353.956 345.938L359.822 351.803M353.956 345.938C352.11 344.091 349.116 344.091 347.269 345.938L339.704 353.502C337.867 355.34 337.867 358.319 339.704 360.157L345.69 366.142C347.527 367.979 350.506 367.979 352.344 366.142L359.822 358.664C361.716 356.769 361.716 353.697 359.822 351.803M337.456 353.68L336.2 352.424C335.453 351.677 335.453 350.466 336.2 349.719L343.585 342.334C344.332 341.587 345.543 341.587 346.29 342.334L347.546 343.59L337.456 353.68Z" stroke="black" stroke-width="0.153039"/>
</svg>
