<svg width="717" height="701" viewBox="0 0 717 701" fill="none" xmlns="http://www.w3.org/2000/svg">
<path fill-rule="evenodd" clip-rule="evenodd" d="M109.901 224.561C108.143 223.945 106.215 224.869 105.596 226.626L95.1248 256.333L84.6535 286.04C84.0342 287.797 84.9573 289.721 86.7154 290.338C88.4734 290.954 90.4006 290.03 91.02 288.273L101.491 258.566L111.962 228.859C112.582 227.102 111.659 225.178 109.901 224.561Z" fill="black"/>
<path fill-rule="evenodd" clip-rule="evenodd" d="M274.399 247.007C264.429 243.511 253.5 248.755 249.988 258.719L218.04 349.354C214.528 359.318 219.763 370.229 229.733 373.725L315.176 403.683C325.146 407.178 336.076 401.935 339.588 391.97L371.535 301.336C375.047 291.372 369.812 280.46 359.842 276.965L274.399 247.007Z" fill="white"/>
<path d="M446.291 224.791L498.092 242.618C494.823 237.441 486.513 226.377 478.314 221.871C472.799 222.125 467.464 220.774 462.679 219.166C460.343 219.807 455.665 221.567 451.592 223.099L451.588 223.1L451.588 223.1C448.823 224.178 447.67 224.318 446.291 224.791Z" fill="#B5602A"/>
<path fill-rule="evenodd" clip-rule="evenodd" d="M625.357 392.475L648.41 327.072C654.045 311.088 645.61 293.59 629.597 288.041L609.419 281.049L560.215 263.998L498.092 242.618C494.823 237.441 486.513 226.377 478.314 221.871C472.799 222.125 467.464 220.774 462.679 219.166C461.895 218.903 461.127 218.633 460.374 218.361L415.624 202.234C413.681 203.82 411.178 204.438 408.741 204.674C408.741 204.674 400.466 205.298 388.762 204.992C385.884 204.917 382.798 204.786 379.578 204.575C367.146 203.687 352.374 201.39 340.239 197.135C337.713 196.249 335.303 195.361 333.004 194.472C319.39 189.098 309.626 183.873 302.671 179.061C298.9 176.428 295.955 173.925 293.656 171.625C285.615 163.44 285.708 157.381 285.708 157.381C284.251 150.203 286.519 140.32 295.501 135.323C295.207 142.598 301.587 157.986 329.452 161.336C365.776 165.704 366.96 145.277 364.596 136.06C373.158 136.371 380.709 136.162 385.799 134.897C398.799 131.668 418.409 130.904 434.195 134.625L480.378 140.444L523.678 142.763C526.751 143.071 529.27 143.229 531.531 143.37L531.532 143.37C541.808 144.011 546.756 144.32 574.077 156.99C600.838 169.095 660.57 201.939 690.741 226.098C694.175 228.374 696.729 230.277 698.893 231.889L698.897 231.892L698.898 231.893L698.9 231.895C705.96 237.156 708.87 239.324 724.691 241.286L892.886 260.052L811.863 504.465L700.202 494.751C671.403 521.481 623.43 533.091 573.027 540.934L574.97 535.421L625.357 392.475Z" fill="#B5602A"/>
<path d="M309.933 132.159C303.886 132.074 299.142 133.297 295.501 135.323C295.207 142.598 301.587 157.986 329.452 161.336C365.776 165.704 366.96 145.277 364.596 136.06C355.513 135.731 345.292 134.816 335.662 133.953L335.661 133.953L335.661 133.953L335.658 133.953L335.655 133.953L335.653 133.953C325.859 133.076 316.679 132.254 309.933 132.159Z" fill="#EB7D4A"/>
<path d="M405.751 500.242L367.801 486.936L361.795 484.83C369.02 493.248 369.867 502.459 369.244 508.864L374.473 510.697L376.311 511.341L385.394 514.526L409.611 501.595L405.751 500.242Z" fill="black"/>
<path d="M480.719 526.527L461.534 519.8L458.206 518.633C462.669 527.56 460.794 536.152 459.301 540.439L465.655 542.667C472.01 537.505 478.798 532.308 485.099 528.062L480.719 526.527Z" fill="black"/>
<path d="M196.868 448.425L194.587 447.626C194.587 447.626 174.63 470.214 193.526 486.811C209.669 500.989 232.473 493.965 232.473 493.965C247.431 488.53 267.103 478.889 273.406 475.261L196.868 448.425Z" fill="#B5602A"/>
<path fill-rule="evenodd" clip-rule="evenodd" d="M82.0732 314.906C76.5633 316.398 72.1473 320.519 70.2814 325.909L58.9971 358.506C55.5547 368.45 60.7951 379.294 70.7255 382.776L322.926 471.202L327.865 472.933C335.717 471.878 346.764 472.249 356.138 479.496C358.358 481.212 360.227 483.002 361.795 484.83L367.801 486.936L405.751 500.242L409.611 501.595L410.623 501.054C410.623 501.054 429.641 489.422 451.552 509.9C454.606 512.754 456.745 515.712 458.206 518.633L461.534 519.8L480.719 526.527L485.099 528.062C488.565 525.727 491.884 523.679 494.903 522.084C524.498 510.291 538.696 531.782 540.595 544.695L617.018 327.883C620.53 317.919 615.295 307.008 605.325 303.512L154.398 145.409C144.466 141.927 133.573 147.117 130.021 157.024L118.022 190.485C115.894 196.418 117.545 203.042 122.206 207.278C126.845 211.494 128.504 218.076 126.419 223.991L98.6818 302.682C96.797 308.029 92.3988 312.11 86.9219 313.593L82.0732 314.906ZM274.399 247.007C264.429 243.511 253.5 248.755 249.988 258.719L218.04 349.354C214.528 359.318 219.763 370.229 229.733 373.725L315.176 403.683C325.146 407.178 336.076 401.935 339.588 391.97L371.535 301.336C375.047 291.372 369.812 280.46 359.842 276.965L274.399 247.007Z" fill="white"/>
<path fill-rule="evenodd" clip-rule="evenodd" d="M147.978 120.665C132.026 115.072 114.539 123.462 108.92 139.405L37.9462 340.756L31.8245 358.124C26.2049 374.066 34.5811 391.525 50.5332 397.118L120.329 421.589L194.587 447.626L196.868 448.425L273.406 475.261L281.081 477.952L286.321 479.789L287.975 480.369L295.69 483.074L297.292 483.636L317.631 475.417C317.631 475.417 321.793 473.749 327.865 472.933L322.926 471.202L70.7255 382.776C60.7951 379.294 55.5547 368.45 58.9971 358.506L70.2814 325.909C72.1473 320.519 76.5633 316.398 82.0732 314.906L86.9219 313.593C92.3988 312.11 96.797 308.029 98.6818 302.682L126.419 223.991C128.504 218.076 126.845 211.494 122.206 207.278C117.545 203.042 115.894 196.418 118.022 190.485L130.021 157.024C133.573 147.117 144.466 141.927 154.398 145.409L605.325 303.512C615.295 307.008 620.53 317.919 617.018 327.883L540.595 544.695C540.606 544.768 540.616 544.841 540.626 544.913C540.631 544.95 540.636 544.986 540.641 545.022L540.645 545.053C540.726 545.677 540.711 546.303 540.622 546.92C539.581 554.166 536.84 560.635 533.218 566.356L546.06 570.858C554.131 573.688 562.978 569.443 565.821 561.377L573.027 540.934L574.97 535.421L625.357 392.475L648.41 327.072C654.045 311.088 645.61 293.59 629.597 288.041L609.419 281.049L560.215 263.998L498.092 242.618L446.291 224.791L388.762 204.992C385.92 204.943 382.829 204.807 379.578 204.575C367.274 203.769 352.996 201.806 340.758 197.395C338.044 196.417 335.461 195.442 333.004 194.472C319.344 189.193 309.609 183.906 302.671 179.061C298.893 176.447 295.943 173.954 293.656 171.625L264.992 161.692L147.978 120.665ZM111.962 228.859C112.582 227.102 111.659 225.178 109.901 224.561C108.143 223.945 106.215 224.869 105.596 226.626L95.1248 256.333L84.6535 286.04C84.0342 287.797 84.9573 289.721 86.7154 290.338C88.4734 290.954 90.4006 290.03 91.02 288.273L101.491 258.566L111.962 228.859Z" fill="black"/>
<path d="M364.671 525.591L385.394 514.526L376.311 511.341C370.667 515.759 366.908 520.606 364.671 525.591Z" fill="#934F25"/>
<path d="M456.843 544.737C454.235 547.659 451.513 550.277 448.689 552.667C446.763 555.473 445.377 558.257 444.494 560.996C449.232 556.585 457.047 549.658 465.655 542.667L459.301 540.439C459.165 540.83 459.032 541.185 458.908 541.502C458.437 542.698 457.706 543.77 456.843 544.737Z" fill="#934F25"/>
<path fill-rule="evenodd" clip-rule="evenodd" d="M286.321 479.789L287.975 480.369L295.69 483.074L297.292 483.636L317.631 475.417C317.631 475.417 321.793 473.749 327.865 472.933C335.717 471.878 346.764 472.249 356.138 479.496C358.358 481.212 360.227 483.002 361.795 484.83C369.02 493.248 369.867 502.459 369.244 508.864C368.972 511.659 368.42 513.92 367.996 515.347C367.659 516.479 367.028 517.488 366.226 518.368C348.094 538.268 327.214 545.395 314.314 543.142C314.314 543.142 298.893 539.82 288.818 527.557C269.256 503.745 286.321 479.789 286.321 479.789ZM307.847 500.918C305.12 502.885 304.487 506.678 306.429 509.417L318.472 526.404C320.177 528.808 323.356 529.654 326.036 528.417L354.887 515.093C356.436 514.268 356.855 512.316 355.786 510.899L353.692 508.121L348.863 501.717L335.841 484.449C334.957 483.276 333.333 482.867 332.013 483.485L307.847 500.918Z" fill="#B5602A"/>
<path d="M326.036 528.417C323.356 529.654 320.177 528.808 318.472 526.404L306.429 509.417C304.487 506.678 305.12 502.885 307.847 500.918L332.013 483.485C333.333 482.867 334.957 483.276 335.841 484.449L348.863 501.717L353.692 508.121L355.786 510.899C356.855 512.316 356.436 514.268 354.887 515.093L326.036 528.417Z" fill="#EB7D4A"/>
<path d="M415.552 554.972C413.29 556.139 410.525 555.62 408.844 553.713L395.356 538.415C393.068 535.819 393.391 531.843 396.069 529.644L423.743 506.911L425.924 505.266C427.262 504.257 429.244 504.554 430.273 505.918L433.639 510.381L447.694 529.017C449.506 531.42 451.504 534.699 449.501 536.952C448.967 537.553 448.272 538.048 447.497 538.498L415.552 554.972Z" fill="#EB7D4A"/>
<path fill-rule="evenodd" clip-rule="evenodd" d="M386.072 572.908C401.982 579.429 412.898 574.214 420.203 570.447C430.394 565.198 440.018 560.008 448.689 552.667C451.513 550.277 454.235 547.659 456.843 544.737C457.706 543.77 458.437 542.698 458.908 541.502C459.032 541.185 459.165 540.83 459.301 540.439C460.794 536.152 462.669 527.56 458.206 518.633C456.745 515.712 454.606 512.754 451.552 509.9C429.641 489.422 410.623 501.054 410.623 501.054L409.611 501.595L385.394 514.526L364.671 525.591C364.176 526.695 363.755 527.806 363.405 528.92C357.611 547.36 371.155 566.794 386.072 572.908ZM396.069 529.644C393.391 531.843 393.068 535.819 395.356 538.415L408.844 553.713C410.525 555.62 413.29 556.139 415.552 554.972L447.497 538.498C448.272 538.048 448.967 537.553 449.501 536.952C451.504 534.699 449.506 531.42 447.694 529.017L433.639 510.381L430.273 505.918C429.244 504.554 427.262 504.257 425.924 505.266L423.743 506.911L396.069 529.644Z" fill="#B5602A"/>
<path fill-rule="evenodd" clip-rule="evenodd" d="M504.611 593.98C497.801 598.906 483.751 605.652 466.174 596.857C448.86 588.194 439.915 575.198 444.494 560.996C449.232 556.585 457.047 549.658 465.655 542.667C472.01 537.505 478.798 532.308 485.099 528.062C488.565 525.727 491.884 523.679 494.903 522.084C524.498 510.291 538.696 531.782 540.595 544.695C540.606 544.768 540.616 544.841 540.626 544.913C540.631 544.95 540.636 544.986 540.641 545.022L540.645 545.053C540.726 545.677 540.711 546.303 540.622 546.92C539.581 554.166 536.84 560.635 533.218 566.356C525.118 579.147 512.609 588.195 504.828 593.823L504.611 593.98ZM478.923 551.532C476.302 553.827 476.119 557.839 478.522 560.356L491.195 573.631C493.061 575.586 496.066 575.91 498.311 574.399L526.398 555.498C529.043 553.719 529.561 550.043 527.51 547.609L512.303 529.558C510.372 527.265 506.93 527.006 504.671 528.984L478.923 551.532Z" fill="#B5602A"/>
<path d="M498.311 574.399C496.066 575.91 493.061 575.586 491.195 573.631L478.522 560.356C476.119 557.839 476.302 553.827 478.923 551.532L504.671 528.984C506.93 527.006 510.372 527.265 512.303 529.558L527.51 547.609C529.561 550.043 529.043 553.719 526.398 555.498L498.311 574.399Z" fill="#EB7D4A"/>
<path d="M120.329 421.589L50.5332 397.118C34.5811 391.525 26.2049 374.066 31.8245 358.124L37.9462 340.756L108.92 139.405C114.539 123.462 132.026 115.072 147.978 120.665L264.992 161.692L293.656 171.625M120.329 421.589L196.868 448.425M120.329 421.589L194.587 447.626M281.081 477.952L273.406 475.261M281.081 477.952L287.975 480.369M281.081 477.952L295.69 483.074M281.081 477.952L286.321 479.789M574.97 535.421L625.357 392.475L648.41 327.072C654.045 311.088 645.61 293.59 629.597 288.041L609.419 281.049L560.215 263.998L498.092 242.618M574.97 535.421L573.027 540.934M574.97 535.421L565.821 561.377M273.406 475.261L196.868 448.425M273.406 475.261C267.103 478.889 247.431 488.53 232.473 493.965C232.473 493.965 209.669 500.989 193.526 486.811C174.63 470.214 194.587 447.626 194.587 447.626M196.868 448.425L194.587 447.626M287.975 480.369L295.69 483.074M287.975 480.369L286.321 479.789M374.473 510.697L385.394 514.526M374.473 510.697L369.244 508.864M374.473 510.697L376.311 511.341M295.69 483.074L297.292 483.636M388.762 204.992C400.466 205.298 408.741 204.674 408.741 204.674C411.178 204.438 413.681 203.82 415.624 202.234M388.762 204.992L498.092 242.618M388.762 204.992C385.884 204.917 382.798 204.786 379.578 204.575M388.762 204.992C385.92 204.943 382.829 204.807 379.578 204.575M388.762 204.992L446.291 224.791M293.656 171.625C285.615 163.44 285.708 157.381 285.708 157.381C284.251 150.203 286.519 140.32 295.501 135.323M293.656 171.625C295.955 173.925 298.9 176.428 302.671 179.061M293.656 171.625C295.943 173.954 298.893 176.447 302.671 179.061M385.799 134.897C398.799 131.668 418.409 130.904 434.195 134.625L480.378 140.444L523.678 142.763C526.751 143.071 529.27 143.229 531.531 143.37L531.532 143.37C541.808 144.011 546.756 144.32 574.077 156.99C600.838 169.095 660.57 201.939 690.741 226.098C694.175 228.374 696.729 230.277 698.893 231.889M385.799 134.897C375.309 137.503 354.368 135.628 335.662 133.953M385.799 134.897C380.709 136.162 373.158 136.371 364.596 136.06M415.624 202.234C418.83 199.616 420.513 194.364 417.866 183.851M415.624 202.234L460.374 218.361C461.127 218.633 461.895 218.903 462.679 219.166M478.314 221.871C485.12 221.559 492.199 218.802 498.857 211.072M478.314 221.871C472.799 222.125 467.464 220.774 462.679 219.166M478.314 221.871C486.513 226.377 494.822 237.441 498.092 242.618M498.223 242.828C498.181 242.759 498.137 242.689 498.092 242.618M462.679 219.166C460.343 219.807 455.665 221.567 451.592 223.099M295.501 135.323C299.142 133.297 303.886 132.074 309.933 132.159C316.679 132.254 325.859 133.076 335.653 133.953M295.501 135.323C295.207 142.598 301.587 157.986 329.452 161.336C365.776 165.704 366.96 145.277 364.596 136.06M364.596 136.06C355.513 135.731 345.292 134.816 335.662 133.953M286.321 479.789C286.321 479.789 269.256 503.745 288.818 527.557C298.893 539.82 314.314 543.142 314.314 543.142C327.214 545.395 348.094 538.268 366.226 518.368C367.028 517.488 367.659 516.479 367.996 515.347C368.42 513.92 368.972 511.659 369.244 508.864M281.362 490.38L297.292 483.636M376.311 511.341L385.394 514.526M376.311 511.341C369.417 516.737 365.337 522.773 363.405 528.92M376.311 511.341C370.667 515.759 366.908 520.606 364.671 525.591M364.671 525.591L385.394 514.526M364.671 525.591C364.176 526.695 363.755 527.806 363.405 528.92M448.689 552.667C440.018 560.008 430.394 565.198 420.203 570.447C412.898 574.214 401.982 579.429 386.072 572.908C371.155 566.794 357.611 547.36 363.405 528.92M448.689 552.667C451.513 550.277 454.235 547.659 456.843 544.737C457.706 543.77 458.437 542.698 458.908 541.502C459.032 541.185 459.165 540.83 459.301 540.439M448.689 552.667C446.763 555.473 445.377 558.257 444.494 560.996M540.645 545.053C540.726 545.677 540.711 546.303 540.622 546.92C539.581 554.166 536.84 560.635 533.218 566.356M540.645 545.053L540.641 545.022M540.645 545.053C540.643 545.043 540.642 545.033 540.641 545.022M444.494 560.996C439.915 575.198 448.86 588.194 466.174 596.857C483.751 605.652 497.801 598.906 504.611 593.98L504.828 593.823C512.609 588.195 525.118 579.147 533.218 566.356M444.494 560.996C449.232 556.585 457.047 549.658 465.655 542.667M573.027 540.934C623.43 533.091 671.403 521.481 700.202 494.751L811.863 504.465L892.886 260.052L724.691 241.286C708.87 239.324 705.96 237.156 698.9 231.895L698.898 231.893M573.027 540.934L565.821 561.377M446.291 224.791C447.67 224.318 448.823 224.178 451.588 223.1L451.588 223.1M446.291 224.791L498.092 242.618M451.588 223.1L451.592 223.099M451.588 223.1C451.59 223.1 451.591 223.099 451.592 223.099M335.658 133.953L335.661 133.953L335.661 133.953L335.662 133.953M335.658 133.953L335.655 133.953M335.658 133.953C335.657 133.953 335.656 133.953 335.655 133.953M698.898 231.893L698.897 231.892M698.898 231.893C698.897 231.893 698.897 231.892 698.897 231.892M465.655 542.667C472.01 537.505 478.798 532.308 485.099 528.062M465.655 542.667L459.301 540.439M533.218 566.356L546.06 570.858C554.131 573.688 562.978 569.443 565.821 561.377V561.377M485.099 528.062C488.565 525.727 491.884 523.679 494.903 522.084C524.497 510.291 538.696 531.782 540.595 544.695M485.099 528.062L480.719 526.527L461.534 519.8L458.206 518.633M540.595 544.695L617.018 327.883C620.53 317.919 615.295 307.008 605.325 303.512L154.398 145.409C144.466 141.927 133.573 147.117 130.021 157.024L118.022 190.485C115.894 196.418 117.545 203.042 122.206 207.278V207.278C126.845 211.494 128.504 218.076 126.419 223.991L98.6818 302.682C96.797 308.029 92.3987 312.11 86.9219 313.593L82.0732 314.906C76.5633 316.398 72.1473 320.519 70.2814 325.909L58.9971 358.506C55.5547 368.45 60.7951 379.294 70.7255 382.776L322.926 471.202L327.865 472.933M540.595 544.695C540.606 544.768 540.616 544.841 540.626 544.913C540.631 544.95 540.636 544.986 540.641 545.022M698.897 231.892L698.893 231.889M698.897 231.892C698.895 231.891 698.894 231.89 698.893 231.889M335.655 133.953L335.653 133.953M335.655 133.953C335.654 133.953 335.653 133.953 335.653 133.953M302.671 179.061C309.626 183.873 319.39 189.098 333.004 194.472M302.671 179.061C309.609 183.906 319.344 189.193 333.004 194.472M333.004 194.472C335.303 195.361 337.713 196.249 340.239 197.135C352.374 201.39 367.146 203.687 379.578 204.575M333.004 194.472C335.461 195.442 338.044 196.417 340.758 197.395C352.996 201.806 367.274 203.769 379.578 204.575M459.301 540.439C460.794 536.152 462.669 527.56 458.206 518.633M385.394 514.526L409.611 501.595M409.611 501.595L410.623 501.054C410.623 501.054 429.641 489.422 451.552 509.9C454.606 512.754 456.745 515.712 458.206 518.633M409.611 501.595L405.751 500.242L367.801 486.936L361.795 484.83M369.244 508.864C369.867 502.459 369.02 493.248 361.795 484.83M297.292 483.636L317.632 475.417C317.632 475.417 321.793 473.749 327.865 472.933M361.795 484.83C360.227 483.002 358.358 481.212 356.138 479.496C346.764 472.249 335.717 471.878 327.865 472.933M95.1248 256.333L84.6535 286.04C84.0342 287.797 84.9573 289.721 86.7154 290.338V290.338C88.4734 290.954 90.4006 290.03 91.02 288.273L101.491 258.566L111.962 228.859C112.582 227.102 111.659 225.178 109.901 224.561V224.561C108.143 223.945 106.215 224.869 105.596 226.626L95.1248 256.333ZM354.887 515.093L326.036 528.417C323.356 529.654 320.177 528.808 318.472 526.404L306.429 509.417C304.487 506.678 305.12 502.885 307.847 500.918L332.013 483.485C333.333 482.867 334.956 483.276 335.841 484.449L348.863 501.717L353.692 508.121L355.786 510.899C356.855 512.316 356.436 514.268 354.887 515.093ZM425.924 505.266C427.262 504.257 429.244 504.554 430.273 505.918L433.639 510.381L447.694 529.017C449.506 531.42 451.504 534.699 449.501 536.952C448.967 537.553 448.272 538.048 447.497 538.498L415.552 554.972C413.29 556.139 410.525 555.62 408.844 553.713L395.356 538.415C393.068 535.819 393.391 531.843 396.069 529.644L423.743 506.911L425.924 505.266ZM504.671 528.984L478.923 551.532C476.302 553.827 476.119 557.839 478.522 560.356L491.195 573.631C493.061 575.586 496.066 575.91 498.311 574.399L526.398 555.498C529.043 553.719 529.561 550.043 527.51 547.609L512.303 529.558C510.372 527.265 506.93 527.006 504.671 528.984ZM339.588 391.97L371.535 301.336C375.047 291.372 369.812 280.46 359.842 276.965L274.399 247.007C264.429 243.511 253.5 248.755 249.988 258.719L218.04 349.354C214.528 359.318 219.763 370.229 229.733 373.725L315.176 403.683C325.146 407.179 336.076 401.935 339.588 391.97Z" stroke="black" stroke-width="0.765194" stroke-linecap="round"/>
<path d="M388.65 447.214L366.075 439.296C363.084 438.247 361.514 434.974 362.567 431.984L414.65 284.172C415.703 281.183 418.982 279.61 421.973 280.659L444.547 288.576C447.538 289.625 449.109 292.899 448.056 295.888L395.973 443.701C394.919 446.69 391.641 448.263 388.65 447.214Z" fill="#F6F5F5" stroke="black" stroke-width="0.765194" stroke-linecap="round"/>
<path d="M401.273 387.695L392.871 384.748L394.004 381.534C394.218 380.927 394.491 380.456 394.824 380.121C395.156 379.783 395.52 379.571 395.919 379.487C396.318 379.4 396.726 379.429 397.142 379.575C397.484 379.695 397.753 379.863 397.95 380.08C398.145 380.295 398.278 380.54 398.351 380.814C398.423 381.089 398.444 381.374 398.413 381.67L398.495 381.699C398.617 381.407 398.809 381.153 399.072 380.938C399.334 380.72 399.646 380.576 400.008 380.506C400.371 380.437 400.765 380.477 401.192 380.627C401.627 380.779 401.981 381.022 402.254 381.354C402.524 381.685 402.685 382.098 402.735 382.592C402.786 383.085 402.698 383.654 402.471 384.296L401.273 387.695ZM400.538 385.728L401.114 384.092C401.309 383.54 401.344 383.105 401.219 382.788C401.092 382.467 400.862 382.248 400.528 382.131C400.279 382.044 400.033 382.026 399.79 382.079C399.545 382.131 399.324 382.251 399.129 382.437C398.932 382.623 398.778 382.873 398.667 383.187L398.076 384.865L400.538 385.728ZM396.981 384.48L397.511 382.975C397.603 382.713 397.639 382.46 397.617 382.216C397.593 381.971 397.513 381.757 397.378 381.574C397.241 381.388 397.049 381.252 396.803 381.165C396.477 381.051 396.169 381.072 395.877 381.228C395.587 381.381 395.362 381.681 395.204 382.13L394.663 383.667L396.981 384.48ZM402.39 371.129C403.296 371.446 404.011 371.888 404.538 372.453C405.062 373.015 405.392 373.647 405.529 374.349C405.667 375.048 405.606 375.766 405.347 376.501C405.088 377.236 404.685 377.835 404.138 378.298C403.589 378.756 402.933 379.042 402.171 379.156C401.407 379.266 400.574 379.163 399.671 378.846C398.766 378.528 398.051 378.089 397.527 377.527C397.001 376.962 396.669 376.329 396.531 375.63C396.395 374.928 396.456 374.209 396.715 373.474C396.974 372.738 397.377 372.141 397.923 371.681C398.47 371.219 399.125 370.933 399.889 370.823C400.651 370.709 401.485 370.811 402.39 371.129ZM401.852 372.658C401.214 372.435 400.642 372.346 400.134 372.392C399.624 372.434 399.195 372.591 398.848 372.862C398.497 373.133 398.242 373.496 398.081 373.953C397.92 374.409 397.892 374.852 397.995 375.282C398.096 375.71 398.332 376.102 398.702 376.456C399.07 376.806 399.573 377.093 400.21 377.316C400.847 377.54 401.421 377.631 401.931 377.588C402.439 377.542 402.868 377.384 403.218 377.114C403.566 376.842 403.82 376.478 403.981 376.022C404.142 375.565 404.171 375.123 404.07 374.694C403.967 374.265 403.731 373.875 403.363 373.524C402.992 373.17 402.489 372.882 401.852 372.658ZM405.541 362.186C406.447 362.504 407.162 362.945 407.688 363.511C408.213 364.072 408.543 364.704 408.68 365.406C408.818 366.106 408.757 366.823 408.498 367.559C408.239 368.294 407.836 368.893 407.288 369.355C406.74 369.814 406.084 370.1 405.322 370.214C404.558 370.324 403.725 370.22 402.822 369.904C401.917 369.586 401.202 369.146 400.678 368.585C400.152 368.019 399.82 367.387 399.682 366.688C399.545 365.985 399.607 365.267 399.866 364.531C400.125 363.796 400.527 363.198 401.074 362.739C401.621 362.276 402.276 361.99 403.04 361.88C403.802 361.767 404.636 361.869 405.541 362.186ZM405.002 363.716C404.365 363.492 403.793 363.404 403.285 363.45C402.775 363.492 402.346 363.649 401.999 363.92C401.648 364.19 401.393 364.554 401.232 365.01C401.071 365.467 401.043 365.91 401.146 366.339C401.247 366.768 401.483 367.159 401.853 367.513C402.221 367.864 402.724 368.151 403.361 368.374C403.998 368.598 404.572 368.688 405.082 368.646C405.589 368.6 406.019 368.442 406.369 368.171C406.716 367.9 406.971 367.536 407.132 367.08C407.292 366.623 407.322 366.18 407.221 365.752C407.118 365.322 406.882 364.932 406.513 364.582C406.143 364.228 405.64 363.939 405.002 363.716ZM410.249 362.222L401.847 359.275L402.383 357.753L406.244 359.107L406.28 359.005L403.574 354.374L404.228 352.517L406.854 357.087L412.641 355.435L411.996 357.264L407.511 358.506L408.283 359.822L410.785 360.7L410.249 362.222ZM413.003 354.407L404.601 351.46L406.525 345.998L407.801 346.445L406.413 350.386L408.694 351.186L409.983 347.528L411.258 347.976L409.97 351.634L412.263 352.438L413.663 348.465L414.939 348.912L413.003 354.407ZM416.477 344.547L415.474 347.393L407.072 344.446L408.095 341.543C408.389 340.709 408.809 340.052 409.357 339.571C409.902 339.087 410.545 338.793 411.285 338.69C412.025 338.587 412.831 338.689 413.704 338.995C414.579 339.302 415.274 339.728 415.788 340.274C416.304 340.817 416.622 341.453 416.744 342.18C416.867 342.905 416.778 343.694 416.477 344.547ZM414.693 345.41L415.134 344.159C415.34 343.574 415.406 343.048 415.33 342.583C415.252 342.116 415.034 341.709 414.676 341.363C414.316 341.016 413.815 340.729 413.172 340.504C412.529 340.278 411.961 340.19 411.468 340.238C410.972 340.285 410.551 340.464 410.204 340.776C409.856 341.084 409.582 341.522 409.382 342.091L408.925 343.386L414.693 345.41Z" fill="black"/>
<path d="M335.492 343.775L330.241 341.934L330.52 341.142L332.802 341.942L333.724 339.325L331.442 338.525L331.722 337.73L336.973 339.572L336.693 340.367L334.404 339.564L333.482 342.18L335.771 342.983L335.492 343.775ZM337.849 337.366C337.761 337.615 337.635 337.824 337.472 337.994C337.307 338.162 337.115 338.274 336.895 338.33C336.677 338.384 336.438 338.365 336.18 338.275C335.958 338.197 335.79 338.09 335.677 337.954C335.563 337.818 335.49 337.663 335.457 337.489C335.425 337.314 335.419 337.129 335.439 336.935C335.46 336.741 335.492 336.546 335.535 336.352C335.591 336.107 335.636 335.908 335.671 335.755C335.704 335.601 335.711 335.484 335.694 335.403C335.676 335.322 335.621 335.265 335.529 335.233L335.511 335.227C335.287 335.148 335.091 335.151 334.924 335.234C334.757 335.315 334.63 335.48 334.542 335.728C334.451 335.986 334.437 336.209 334.499 336.398C334.56 336.585 334.65 336.73 334.769 336.835L334.351 337.498C334.142 337.328 333.992 337.136 333.903 336.92C333.813 336.702 333.772 336.474 333.781 336.236C333.789 335.996 333.834 335.758 333.918 335.52C333.973 335.363 334.051 335.203 334.151 335.04C334.249 334.875 334.374 334.733 334.526 334.613C334.678 334.492 334.862 334.414 335.078 334.378C335.293 334.342 335.544 334.374 335.831 334.475L338.446 335.392L338.182 336.141L337.644 335.952L337.633 335.983C337.715 336.067 337.786 336.175 337.847 336.308C337.908 336.441 337.942 336.596 337.951 336.774C337.959 336.951 337.925 337.149 337.849 337.366ZM337.292 336.983C337.367 336.771 337.389 336.575 337.358 336.396C337.328 336.214 337.259 336.061 337.152 335.935C337.043 335.806 336.911 335.715 336.756 335.66L336.248 335.482C336.266 335.519 336.273 335.581 336.269 335.668C336.264 335.753 336.253 335.848 336.235 335.953C336.215 336.057 336.196 336.159 336.176 336.258C336.155 336.356 336.138 336.438 336.124 336.504C336.09 336.66 336.074 336.806 336.075 336.945C336.077 337.082 336.107 337.202 336.165 337.305C336.221 337.405 336.318 337.479 336.455 337.527C336.645 337.594 336.813 337.574 336.96 337.468C337.105 337.362 337.216 337.2 337.292 336.983ZM338.806 334.372L334.867 332.99L335.137 332.224L339.076 333.605L338.806 334.372ZM334.396 332.39C334.349 332.523 334.264 332.622 334.142 332.687C334.018 332.749 333.894 332.758 333.769 332.714C333.642 332.67 333.551 332.585 333.495 332.46C333.438 332.333 333.434 332.202 333.48 332.069C333.527 331.936 333.613 331.838 333.736 331.776C333.859 331.711 333.984 331.701 334.11 331.746C334.235 331.789 334.326 331.875 334.383 332.003C334.438 332.128 334.443 332.257 334.396 332.39ZM339.439 332.574L335.501 331.193L335.761 330.452L336.387 330.672L336.402 330.631C336.215 330.485 336.093 330.3 336.035 330.076C335.977 329.85 335.988 329.622 336.069 329.391C336.086 329.343 336.108 329.288 336.134 329.224C336.161 329.158 336.183 329.108 336.202 329.072L336.935 329.329C336.916 329.357 336.887 329.408 336.849 329.483C336.809 329.558 336.776 329.634 336.748 329.713C336.684 329.894 336.666 330.069 336.693 330.238C336.719 330.404 336.785 330.552 336.891 330.681C336.995 330.81 337.133 330.905 337.304 330.965L339.709 331.808L339.439 332.574ZM338.671 349.49C338.418 349.432 338.191 349.479 337.987 349.63C337.783 349.781 337.627 350.007 337.521 350.307C337.445 350.523 337.414 350.721 337.427 350.902C337.438 351.083 337.487 351.237 337.575 351.366C337.661 351.492 337.778 351.581 337.927 351.633C338.052 351.677 338.17 351.686 338.281 351.659C338.392 351.631 338.496 351.58 338.591 351.506C338.685 351.43 338.772 351.343 338.853 351.247C338.931 351.149 339.001 351.054 339.063 350.96L339.377 350.495C339.477 350.342 339.593 350.189 339.725 350.038C339.857 349.887 340.007 349.756 340.175 349.646C340.342 349.535 340.527 349.464 340.728 349.431C340.931 349.396 341.15 349.42 341.386 349.503C341.683 349.607 341.92 349.777 342.097 350.012C342.274 350.245 342.378 350.53 342.409 350.867C342.441 351.203 342.384 351.575 342.24 351.985C342.101 352.378 341.919 352.696 341.693 352.94C341.467 353.183 341.211 353.346 340.925 353.428C340.637 353.509 340.332 353.503 340.01 353.409L340.289 352.614C340.485 352.666 340.664 352.66 340.829 352.596C340.992 352.531 341.134 352.424 341.256 352.277C341.376 352.127 341.471 351.95 341.543 351.747C341.622 351.523 341.657 351.312 341.648 351.113C341.639 350.912 341.588 350.738 341.497 350.593C341.405 350.447 341.273 350.345 341.102 350.285C340.946 350.23 340.803 350.23 340.673 350.284C340.543 350.336 340.419 350.426 340.301 350.554C340.184 350.68 340.067 350.828 339.951 350.998L339.564 351.559C339.301 351.939 339.015 352.214 338.706 352.382C338.398 352.548 338.061 352.567 337.695 352.439C337.392 352.333 337.157 352.158 336.989 351.915C336.822 351.672 336.725 351.388 336.699 351.064C336.671 350.74 336.719 350.401 336.843 350.049C336.968 349.694 337.141 349.402 337.362 349.174C337.583 348.945 337.83 348.79 338.104 348.709C338.377 348.628 338.655 348.634 338.94 348.726L338.671 349.49ZM343.826 347.459C343.69 347.846 343.489 348.151 343.224 348.373C342.959 348.593 342.648 348.726 342.292 348.772C341.934 348.816 341.551 348.766 341.143 348.622C340.739 348.481 340.41 348.281 340.156 348.023C339.902 347.763 339.736 347.467 339.659 347.134C339.583 346.801 339.609 346.451 339.738 346.085C339.816 345.863 339.929 345.661 340.076 345.478C340.223 345.295 340.404 345.149 340.62 345.038C340.835 344.928 341.086 344.868 341.371 344.861C341.654 344.853 341.974 344.911 342.331 345.037L342.603 345.132L341.501 348.261L340.926 348.06L341.764 345.681C341.563 345.611 341.37 345.589 341.185 345.617C340.999 345.643 340.834 345.715 340.691 345.832C340.549 345.947 340.443 346.104 340.373 346.302C340.297 346.517 340.284 346.724 340.333 346.922C340.382 347.117 340.475 347.288 340.614 347.435C340.751 347.579 340.918 347.685 341.115 347.754L341.563 347.912C341.827 348.004 342.067 348.037 342.284 348.009C342.502 347.98 342.689 347.899 342.845 347.765C343 347.631 343.117 347.453 343.196 347.229C343.247 347.084 343.273 346.944 343.274 346.81C343.273 346.675 343.247 346.55 343.193 346.433C343.14 346.317 343.06 346.214 342.954 346.125L343.34 345.445C343.533 345.578 343.684 345.748 343.791 345.955C343.898 346.159 343.956 346.39 343.965 346.646C343.974 346.901 343.927 347.172 343.826 347.459ZM344.641 344.892L340.703 343.51L340.964 342.769L341.589 342.989L341.604 342.948C341.417 342.802 341.295 342.617 341.238 342.393C341.179 342.167 341.19 341.939 341.271 341.708C341.288 341.66 341.31 341.605 341.336 341.541C341.363 341.475 341.386 341.425 341.404 341.389L342.137 341.646C342.118 341.674 342.089 341.725 342.051 341.8C342.012 341.875 341.978 341.951 341.95 342.03C341.887 342.211 341.868 342.386 341.895 342.555C341.921 342.721 341.987 342.869 342.093 342.999C342.198 343.127 342.335 343.222 342.506 343.282L344.911 344.125L344.641 344.892ZM342.908 337.253L346.343 340.062L346.054 340.882L341.612 340.931L341.902 340.108L345.284 340.174L345.298 340.133L342.618 338.076L342.908 337.253ZM347.1 337.914L343.161 336.533L343.431 335.766L347.37 337.148L347.1 337.914ZM342.69 335.933C342.643 336.066 342.558 336.165 342.436 336.229C342.312 336.291 342.188 336.301 342.063 336.257C341.936 336.213 341.845 336.128 341.79 336.003C341.733 335.875 341.728 335.745 341.775 335.612C341.822 335.478 341.907 335.381 342.031 335.318C342.153 335.254 342.278 335.244 342.404 335.288C342.529 335.332 342.62 335.418 342.677 335.545C342.733 335.67 342.737 335.799 342.69 335.933ZM348.397 334.487C348.263 334.868 348.061 335.165 347.791 335.38C347.521 335.592 347.206 335.718 346.849 335.758C346.491 335.797 346.114 335.748 345.72 335.609C345.32 335.469 344.993 335.27 344.74 335.012C344.485 334.754 344.32 334.458 344.243 334.124C344.167 333.79 344.194 333.438 344.325 333.067C344.43 332.768 344.58 332.521 344.773 332.326C344.965 332.13 345.186 331.995 345.434 331.921C345.684 331.846 345.946 331.841 346.221 331.906L345.958 332.652C345.759 332.628 345.567 332.667 345.381 332.767C345.197 332.865 345.062 333.037 344.976 333.281C344.9 333.494 344.891 333.701 344.947 333.902C345.002 334.099 345.118 334.279 345.293 334.44C345.467 334.601 345.694 334.731 345.974 334.829C346.262 334.93 346.525 334.973 346.764 334.959C347.003 334.945 347.208 334.879 347.379 334.76C347.55 334.64 347.674 334.471 347.75 334.254C347.801 334.109 347.821 333.968 347.81 333.831C347.797 333.693 347.754 333.565 347.682 333.45C347.61 333.332 347.509 333.233 347.378 333.15L347.641 332.405C347.886 332.521 348.084 332.684 348.236 332.892C348.387 333.101 348.479 333.341 348.511 333.614C348.545 333.885 348.507 334.176 348.397 334.487ZM349.853 330.353C349.717 330.741 349.516 331.046 349.252 331.268C348.986 331.488 348.675 331.621 348.319 331.667C347.962 331.71 347.579 331.661 347.17 331.517C346.767 331.376 346.438 331.176 346.183 330.918C345.929 330.658 345.763 330.362 345.686 330.029C345.61 329.695 345.636 329.346 345.765 328.98C345.843 328.758 345.956 328.555 346.103 328.373C346.25 328.19 346.431 328.044 346.647 327.933C346.862 327.822 347.113 327.763 347.398 327.756C347.681 327.748 348.001 327.806 348.359 327.932L348.63 328.027L347.528 331.156L346.953 330.955L347.791 328.576C347.59 328.506 347.397 328.484 347.212 328.511C347.026 328.538 346.861 328.61 346.719 328.727C346.576 328.842 346.47 328.999 346.4 329.197C346.324 329.412 346.311 329.619 346.361 329.817C346.409 330.012 346.502 330.183 346.641 330.33C346.778 330.474 346.945 330.58 347.142 330.649L347.59 330.807C347.854 330.899 348.094 330.931 348.311 330.904C348.529 330.875 348.716 330.793 348.872 330.66C349.027 330.526 349.144 330.347 349.223 330.124C349.274 329.978 349.3 329.839 349.301 329.705C349.301 329.57 349.274 329.445 349.221 329.328C349.168 329.212 349.088 329.109 348.981 329.019L349.367 328.34C349.56 328.473 349.711 328.643 349.819 328.85C349.925 329.054 349.983 329.285 349.993 329.541C350.001 329.796 349.954 330.066 349.853 330.353ZM348.731 323.792L348.609 324.53C348.51 324.528 348.409 324.544 348.307 324.579C348.205 324.613 348.109 324.673 348.021 324.761C347.932 324.849 347.86 324.973 347.804 325.132C347.727 325.349 347.712 325.547 347.759 325.726C347.803 325.905 347.901 326.021 348.054 326.074C348.185 326.121 348.308 326.109 348.423 326.04C348.538 325.971 348.659 325.837 348.787 325.638L349.151 325.063C349.362 324.73 349.586 324.505 349.823 324.389C350.06 324.272 350.318 324.263 350.597 324.36C350.832 324.443 351.019 324.585 351.155 324.787C351.29 324.986 351.368 325.225 351.386 325.504C351.406 325.782 351.359 326.079 351.247 326.397C351.092 326.838 350.871 327.164 350.585 327.377C350.297 327.589 349.968 327.665 349.597 327.606L349.745 326.826C349.954 326.848 350.134 326.804 350.284 326.695C350.432 326.586 350.546 326.416 350.628 326.185C350.716 325.934 350.735 325.715 350.683 325.528C350.63 325.341 350.528 325.22 350.376 325.167C350.253 325.124 350.133 325.134 350.017 325.196C349.901 325.258 349.789 325.375 349.68 325.548L349.299 326.163C349.086 326.501 348.857 326.726 348.612 326.837C348.367 326.948 348.105 326.953 347.825 326.855C347.592 326.774 347.412 326.637 347.283 326.446C347.154 326.255 347.082 326.028 347.065 325.765C347.046 325.501 347.089 325.222 347.193 324.926C347.343 324.501 347.554 324.198 347.824 324.019C348.093 323.838 348.396 323.763 348.731 323.792Z" fill="black"/>
<path d="M106.607 362.761C109.179 363.633 110.595 366.316 109.768 368.755C108.941 371.195 106.186 372.466 103.613 371.595C101.041 370.724 99.626 368.04 100.453 365.601C101.279 363.162 104.035 361.89 106.607 362.761Z" fill="#FEBC23"/>
<path d="M106.607 362.761C109.179 363.632 110.594 366.316 109.768 368.755C108.941 371.195 106.185 372.466 103.613 371.595C101.041 370.724 99.6257 368.04 100.452 365.601C101.279 363.162 104.035 361.89 106.607 362.761Z" fill="#FEBC23"/>
<path d="M103.342 366.422C103.332 366.39 103.332 366.362 103.35 366.342C103.355 366.34 103.386 366.332 103.484 366.36C103.567 366.384 103.668 366.424 103.775 366.466C103.938 366.53 104.107 366.596 104.255 366.624C104.532 366.678 104.976 366.621 105.332 366.575C105.451 366.56 105.563 366.546 105.654 366.537C106.003 366.506 106.504 366.361 106.993 366.209C107.381 366.089 108.149 366.225 108.477 366.283L108.503 366.287C108.776 366.336 109.285 366.19 109.656 366.082L109.66 366.084C109.739 366.062 109.808 366.041 109.865 366.026C109.906 366.055 109.986 366.119 110.074 366.225C110.283 366.477 110.371 366.77 110.407 366.972C110.474 367.339 110.424 367.607 110.37 367.768L110.368 367.774C110.327 367.895 110.279 367.973 110.254 368.009C109.773 368.073 109.49 368.111 109.262 368.199C109.315 368.121 109.361 368.042 109.399 367.961C109.426 367.902 109.451 367.843 109.471 367.782C109.515 367.652 109.543 367.514 109.56 367.354C109.577 367.194 109.517 367.054 109.381 366.939C109.272 366.846 109.134 366.785 109.024 366.735C108.977 366.714 108.932 366.694 108.9 366.676C108.86 366.654 108.81 366.666 108.788 366.703C108.767 366.741 108.78 366.789 108.82 366.812C108.858 366.833 108.907 366.854 108.959 366.878C109.213 366.991 109.42 367.104 109.397 367.333C109.36 367.676 109.259 368.057 108.769 368.514C108.484 368.78 108.394 368.832 108.291 368.892C108.218 368.935 108.136 368.983 107.983 369.107C107.796 369.257 107.553 369.449 107.33 369.596C106.988 369.821 106.862 369.825 106.824 369.816C106.688 369.786 106.442 369.552 106.244 369.363C106.117 369.241 105.997 369.127 105.89 369.045C105.748 368.936 105.614 368.829 105.54 368.723C105.469 368.62 105.469 368.541 105.536 368.455C105.643 368.319 105.873 368.181 106.061 368.07L106.071 368.064C106.211 367.981 106.321 367.916 106.376 367.858C106.429 367.802 106.672 367.71 106.848 367.643C107.057 367.564 107.184 367.515 107.239 367.467C107.255 367.475 107.283 367.499 107.298 367.541C107.311 367.576 107.319 367.632 107.286 367.704C107.284 367.707 107.283 367.71 107.282 367.714C107.262 367.752 107.231 367.795 107.183 367.841C107.016 367.999 106.894 368.058 106.796 368.105C106.707 368.148 106.629 368.185 106.567 368.276C106.495 368.382 106.448 368.479 106.423 368.537C106.363 368.562 106.247 368.6 106.158 368.588C106.113 368.582 106.073 368.612 106.068 368.655C106.062 368.698 106.095 368.738 106.14 368.744C106.215 368.754 106.304 368.744 106.404 368.714C106.409 368.783 106.414 368.881 106.41 368.965C106.408 369.008 106.443 369.046 106.488 369.05C106.534 369.053 106.572 369.021 106.574 368.977C106.581 368.845 106.567 368.686 106.561 368.633C106.573 368.603 106.604 368.528 106.657 368.439C106.821 368.607 107.015 369.031 107.054 369.161C107.066 369.203 107.112 369.229 107.156 369.218C107.183 369.21 107.203 369.191 107.211 369.168C107.216 369.153 107.217 369.138 107.212 369.122C107.187 369.038 107.11 368.857 107.018 368.687C106.924 368.515 106.836 368.39 106.753 368.312C106.784 368.289 106.821 368.271 106.871 368.247C106.975 368.199 107.114 368.131 107.299 367.956C107.364 367.894 107.406 367.835 107.432 367.78C107.608 367.473 107.812 367.281 107.953 367.175C108.105 367.059 108.22 367.016 108.22 367.016C108.243 367.007 108.26 366.99 108.267 366.969C108.272 366.952 108.272 366.933 108.264 366.914C108.246 366.873 108.199 366.853 108.157 366.868C108.139 366.875 107.775 367.015 107.44 367.467C107.403 367.39 107.338 367.33 107.267 367.313C107.213 367.299 107.16 367.313 107.126 367.349C107.096 367.378 106.907 367.45 106.782 367.497C106.636 367.553 106.515 367.6 106.423 367.643C106.443 367.62 106.46 367.599 106.477 367.584C106.483 367.578 106.491 367.572 106.499 367.563C106.574 367.493 106.713 367.362 106.828 367.21C106.907 367.107 106.961 367.011 106.991 366.922C107.019 366.839 107.027 366.763 107.013 366.693C106.981 366.521 106.889 366.401 106.761 366.365C106.653 366.334 106.537 366.37 106.458 366.458C106.344 366.587 106.163 366.759 105.857 367.033C105.766 367.116 105.641 367.209 105.506 367.304C105.338 367.26 105.137 367.284 104.925 367.309C104.778 367.326 104.626 367.344 104.486 367.338C104.29 367.329 104.107 367.228 103.962 367.124C103.954 367.117 103.946 367.112 103.938 367.106L103.936 367.105C103.865 367.052 103.804 366.998 103.758 366.956L103.505 366.652C103.501 366.643 103.495 366.634 103.487 366.627C103.436 366.577 103.368 366.498 103.344 366.43C103.344 366.427 103.343 366.424 103.342 366.422Z" fill="#1E3A8A"/>
<path d="M102.728 366.522C102.757 366.478 102.817 366.448 102.893 366.439C102.958 366.432 103.062 366.439 103.2 366.503C103.205 366.513 103.209 366.522 103.215 366.533C103.256 366.611 103.318 366.68 103.358 366.721L103.597 367.016C103.602 367.025 103.608 367.033 103.615 367.04C103.671 367.091 103.756 367.17 103.863 367.247C103.925 367.299 104 367.409 104.067 367.508C104.122 367.589 104.174 367.666 104.223 367.719C104.338 367.842 104.474 367.935 104.586 367.964C104.625 367.974 104.669 367.982 104.709 367.988C104.648 368.137 104.638 368.312 104.725 368.439C104.82 368.575 104.89 368.638 105.078 368.799C105.113 368.828 105.164 368.826 105.194 368.794C105.223 368.762 105.219 368.712 105.185 368.683C105.001 368.525 104.945 368.474 104.861 368.354C104.796 368.261 104.823 368.08 104.921 367.941C104.973 367.869 105.202 367.711 105.404 367.571C105.612 367.427 105.827 367.278 105.971 367.149C106.28 366.87 106.464 366.695 106.583 366.562C106.621 366.52 106.672 366.502 106.718 366.515C106.78 366.533 106.829 366.606 106.85 366.716C106.869 366.816 106.815 366.954 106.693 367.114C106.584 367.256 106.452 367.38 106.38 367.448C106.371 367.456 106.363 367.463 106.357 367.469C106.301 367.522 106.239 367.607 106.172 367.696C106.102 367.79 106.016 367.907 105.967 367.936C105.768 368.054 105.524 368.2 105.399 368.357C105.289 368.496 105.289 368.648 105.4 368.807C105.487 368.933 105.632 369.048 105.785 369.166C105.884 369.243 106.001 369.354 106.125 369.472C106.177 369.521 106.227 369.569 106.276 369.615C106.247 369.602 106.214 369.585 106.18 369.56L106.177 369.559C106.171 369.555 106.033 369.472 105.783 369.388C105.668 369.35 105.547 369.266 105.407 369.169C105.272 369.075 105.117 368.969 104.932 368.878C104.847 368.837 104.758 368.797 104.664 368.757C104.528 368.697 104.391 368.637 104.267 368.57C104.264 368.567 104.261 368.566 104.259 368.565C104.101 368.479 103.967 368.38 103.887 368.257C103.868 368.228 103.848 368.197 103.826 368.162C103.718 367.995 103.572 367.771 103.438 367.567L103.436 367.566C103.301 367.364 103.177 367.185 103.109 367.104C103.102 367.095 103.094 367.085 103.086 367.076C103.012 366.986 102.908 366.863 102.83 366.747C102.715 366.574 102.727 366.525 102.728 366.522Z" fill="#1E3A8A"/>
<path d="M104.212 367.436C104.298 367.467 104.389 367.488 104.482 367.492C104.636 367.499 104.796 367.481 104.949 367.462C105.08 367.446 105.205 367.432 105.315 367.434L105.305 367.441C105.032 367.63 104.859 367.753 104.791 367.841C104.751 367.835 104.68 367.825 104.625 367.811C104.563 367.795 104.456 367.735 104.345 367.616L104.345 367.614C104.307 367.573 104.261 367.508 104.212 367.436Z" fill="#1E3A8A"/>
<path d="M102.345 367.462C102.332 367.436 102.333 367.412 102.352 367.389C102.378 367.355 102.443 367.323 102.541 367.342C102.723 367.377 103.104 367.551 103.313 367.665C103.444 367.862 103.585 368.078 103.69 368.242L103.69 368.241C103.712 368.275 103.733 368.307 103.752 368.336C103.765 368.356 103.779 368.376 103.795 368.396C103.75 368.376 103.709 368.355 103.674 368.333C103.458 368.2 103.199 368.072 102.979 367.991C102.775 367.916 102.39 367.548 102.345 367.462Z" fill="#1E3A8A"/>
<path d="M103.025 365.088C103.036 365.046 103.08 365.022 103.125 365.034C103.17 365.046 103.196 365.09 103.185 365.132L103.025 365.743L103.023 365.747C103.01 365.786 102.968 365.808 102.925 365.796L102.925 365.797C102.88 365.785 102.854 365.741 102.864 365.699L103.025 365.088Z" fill="#1E3A8A"/>
<path d="M101.881 365.431C101.849 365.4 101.85 365.35 101.882 365.32C101.914 365.291 101.967 365.294 101.998 365.325L102.449 365.785C102.471 365.807 102.477 365.838 102.468 365.864C102.464 365.876 102.457 365.888 102.447 365.896L102.447 365.896C102.415 365.925 102.363 365.922 102.331 365.89L101.881 365.431Z" fill="#1E3A8A"/>
<path d="M101.527 366.362C101.521 366.319 101.552 366.28 101.597 366.275L102.171 366.213C102.216 366.208 102.258 366.239 102.264 366.283C102.265 366.295 102.264 366.307 102.261 366.318C102.252 366.345 102.226 366.366 102.194 366.37L101.62 366.432C101.575 366.436 101.534 366.405 101.527 366.362Z" fill="#1E3A8A"/>
<path d="M109.019 359.688C109.27 359.555 109.446 359.288 109.549 358.89C109.633 358.563 109.638 358.268 109.567 358.006C109.495 357.745 109.319 357.564 109.038 357.462C108.905 357.413 108.745 357.447 108.557 357.567C108.369 357.688 108.201 357.957 108.049 358.375C107.787 359.094 107.442 359.544 107.01 359.72C106.579 359.899 106.125 359.886 105.651 359.683C105.335 359.547 105.061 359.343 104.824 359.073C104.587 358.8 104.426 358.468 104.334 358.077C104.243 357.686 104.258 357.258 104.378 356.794C104.503 356.306 104.706 355.931 104.987 355.67C105.268 355.408 105.582 355.252 105.931 355.207C106.28 355.162 106.621 355.205 106.956 355.335L106.675 356.431C106.416 356.347 106.163 356.363 105.913 356.475C105.663 356.59 105.502 356.796 105.426 357.092C105.35 357.389 105.357 357.687 105.455 357.966C105.553 358.246 105.706 358.43 105.918 358.521C106.153 358.622 106.364 358.598 106.549 358.446C106.733 358.294 106.89 358.038 107.014 357.675C107.288 356.908 107.62 356.424 108.013 356.217C108.406 356.012 108.831 356.006 109.282 356.199C109.603 356.337 109.884 356.549 110.125 356.837C110.367 357.125 110.529 357.481 110.613 357.908C110.698 358.333 110.673 358.807 110.538 359.33C110.413 359.818 110.21 360.195 109.927 360.463C109.644 360.73 109.329 360.895 108.976 360.952C108.624 361.01 108.274 360.974 107.926 360.843L108.206 359.756C108.495 359.841 108.766 359.815 109.016 359.682L109.019 359.688Z" fill="#FEBC23"/>
<path d="M107.073 354.864L107.266 354.114L107.726 354.221C107.42 353.654 107.329 353.13 107.453 352.651C107.577 352.196 107.803 351.856 108.131 351.628C108.458 351.4 108.884 351.402 109.406 351.625L112.132 352.792L111.857 353.86L109.443 352.819C109.209 352.718 108.996 352.705 108.805 352.779C108.614 352.852 108.488 353.007 108.427 353.246C108.365 353.485 108.391 353.729 108.505 353.963C108.619 354.197 108.793 354.362 109.021 354.46L111.445 355.506L111.17 356.575L107.076 354.862L107.073 354.864Z" fill="#FEBC23"/>
<path d="M112.321 351.251C112.04 351.513 111.708 351.673 111.325 351.73C110.941 351.788 110.554 351.732 110.165 351.566C109.776 351.399 109.431 351.142 109.149 350.8C108.869 350.458 108.676 350.074 108.572 349.647C108.468 349.221 108.47 348.801 108.575 348.391C108.644 348.124 108.753 347.889 108.901 347.685C109.048 347.48 109.225 347.314 109.431 347.184L109.095 347.041L109.338 346.095L112.442 347.423C112.539 347.465 112.607 347.485 112.646 347.485C112.684 347.485 112.71 347.467 112.726 347.431C112.742 347.394 112.765 347.317 112.795 347.197L113.449 347.477C113.46 347.555 113.432 347.73 113.362 348.004C113.319 348.171 113.243 348.296 113.13 348.381C113.018 348.465 112.89 348.511 112.741 348.521C112.861 348.803 112.935 349.09 112.963 349.382C112.994 349.676 112.971 349.961 112.899 350.239C112.794 350.649 112.602 350.985 112.32 351.249L112.321 351.251ZM111.971 349.236C111.934 349.019 111.842 348.81 111.694 348.607C111.545 348.404 111.331 348.244 111.05 348.124C110.77 348.004 110.522 347.967 110.305 348.013C110.09 348.061 109.917 348.158 109.786 348.306C109.656 348.453 109.567 348.617 109.521 348.796C109.475 348.975 109.468 349.182 109.504 349.402C109.541 349.621 109.634 349.832 109.784 350.036C109.935 350.24 110.151 350.401 110.434 350.522C110.716 350.642 110.96 350.678 111.173 350.63C111.386 350.582 111.557 350.483 111.688 350.336C111.818 350.188 111.908 350.021 111.955 349.837C112.002 349.654 112.008 349.453 111.971 349.236Z" fill="#FEBC23"/>
<path d="M110.531 342.143C110.806 341.879 111.133 341.717 111.51 341.656C111.887 341.596 112.272 341.651 112.662 341.818C113.051 341.984 113.395 342.241 113.678 342.584C113.958 342.925 114.15 343.31 114.255 343.736C114.359 344.162 114.357 344.582 114.251 344.992C114.126 345.48 113.879 345.855 113.513 346.121L116.076 347.218L115.826 348.19L109.418 345.448L109.668 344.476L110.038 344.634C109.863 344.125 109.837 343.632 109.96 343.156C110.065 342.746 110.255 342.409 110.531 342.143ZM110.856 344.147C110.893 344.364 110.985 344.573 111.133 344.776C111.282 344.979 111.496 345.139 111.776 345.259C112.056 345.379 112.305 345.417 112.522 345.37C112.737 345.323 112.91 345.225 113.04 345.078C113.171 344.93 113.259 344.767 113.306 344.587C113.352 344.408 113.359 344.201 113.322 343.982C113.286 343.763 113.193 343.551 113.042 343.348C112.892 343.144 112.675 342.982 112.393 342.862C112.111 342.741 111.865 342.704 111.653 342.753C111.44 342.802 111.269 342.9 111.139 343.048C111.008 343.195 110.919 343.363 110.872 343.546C110.824 343.729 110.819 343.93 110.856 344.147Z" fill="#FEBC23"/>
<path d="M111.041 339.441L113.469 340.471C113.699 340.57 113.913 340.57 114.113 340.47C114.313 340.37 114.445 340.201 114.508 339.955C114.571 339.71 114.544 339.472 114.43 339.238C114.316 339.004 114.143 338.839 113.914 338.741L111.496 337.716L111.501 337.697L111.493 337.694L111.768 336.625L114.196 337.654C114.426 337.753 114.64 337.753 114.84 337.653C115.04 337.554 115.172 337.384 115.235 337.139C115.298 336.894 115.271 336.656 115.157 336.422C115.043 336.188 114.869 336.022 114.641 335.924L112.223 334.899L112.498 333.83L115.224 334.996C115.579 335.148 115.846 335.365 116.024 335.65C116.202 335.934 116.304 336.24 116.331 336.572C116.357 336.903 116.331 337.224 116.252 337.533C116.185 337.794 116.082 338.031 115.945 338.247C115.807 338.463 115.643 338.63 115.45 338.754C115.553 338.997 115.609 339.258 115.617 339.538C115.624 339.818 115.594 340.089 115.527 340.35C115.441 340.684 115.298 340.975 115.097 341.225C114.896 341.475 114.66 341.646 114.387 341.737C114.116 341.83 113.834 341.812 113.54 341.686L110.768 340.509L111.043 339.44L111.041 339.441Z" fill="#FEBC23"/>
<path d="M116.816 334.045C116.535 334.307 116.203 334.466 115.82 334.524C115.436 334.582 115.049 334.526 114.66 334.36C114.27 334.193 113.926 333.936 113.644 333.593C113.364 333.252 113.171 332.868 113.067 332.441C112.963 332.015 112.965 331.595 113.07 331.185C113.176 330.775 113.366 330.447 113.647 330.186C113.928 329.924 114.261 329.765 114.644 329.707C115.027 329.649 115.418 329.707 115.813 329.876C116.209 330.045 116.539 330.296 116.819 330.638C117.1 330.979 117.292 331.364 117.396 331.79C117.501 332.216 117.5 332.632 117.396 333.036C117.292 333.439 117.098 333.782 116.816 334.045ZM116.466 332.03C116.429 331.813 116.337 331.604 116.189 331.401C116.04 331.198 115.825 331.038 115.545 330.918C115.265 330.798 115.017 330.76 114.8 330.807C114.585 330.854 114.412 330.952 114.281 331.1C114.15 331.247 114.062 331.411 114.016 331.59C113.97 331.769 113.963 331.976 113.999 332.195C114.036 332.414 114.129 332.626 114.279 332.83C114.43 333.033 114.646 333.195 114.929 333.315C115.211 333.436 115.457 333.473 115.668 333.424C115.881 333.375 116.052 333.277 116.183 333.129C116.313 332.982 116.403 332.814 116.45 332.631C116.497 332.448 116.503 332.247 116.466 332.03Z" fill="#FEBC23"/>
<path d="M115.227 327.807C115.335 328.055 115.525 328.236 115.793 328.351L118.162 329.386L117.882 330.443L113.817 328.695L114.031 327.826L114.451 327.976C114.174 327.375 114.114 326.803 114.274 326.256L115.238 326.669C115.126 327.181 115.123 327.561 115.231 327.809L115.227 327.807Z" fill="#FEBC23"/>
<path d="M112.944 324.215L115.843 325.455L116.019 324.769L115.275 322.947L115.594 321.629L116.741 324.296L119.709 323.339L119.411 324.499L116.986 325.352L116.848 325.887L118.835 326.738L118.58 327.726L112.689 325.206L112.944 324.215Z" fill="#FEBC23"/>
<path d="M112.507 319.767C112.346 319.843 112.332 320.084 112.479 320.224L113.872 321.595C113.984 321.713 114.151 321.717 114.241 321.607C114.331 321.497 114.306 321.313 114.188 321.205L112.797 319.833C112.715 319.749 112.599 319.724 112.507 319.767Z" fill="#FEBC23"/>
<path d="M114.138 318.664C114.015 318.725 113.975 318.889 114.047 319.031L114.894 320.76C114.961 320.914 115.123 320.99 115.254 320.929C115.384 320.868 115.424 320.695 115.343 320.549L114.494 318.819C114.425 318.672 114.265 318.603 114.14 318.663L114.138 318.664Z" fill="#FEBC23"/>
<path d="M111.711 321.696C111.508 321.79 111.546 322.12 111.771 322.214L113.421 322.942C113.559 323.008 113.706 322.944 113.745 322.799C113.784 322.652 113.701 322.487 113.559 322.428L111.909 321.698C111.842 321.666 111.771 321.665 111.711 321.696Z" fill="#FEBC23"/>
<path d="M256.006 319.883C255.35 320.37 254.268 320.12 254.441 319.321C254.722 318.028 255.646 317.374 255.646 317.374C255.646 317.374 254.414 316.053 254.798 314.147C255.17 312.296 256.848 311.592 256.848 311.592C256.848 311.592 256.158 309.985 256.842 308.448C257.515 306.934 259.38 306.27 259.38 306.27C259.38 306.27 259.061 304.317 260.481 302.994C261.901 301.671 263.41 301.966 263.41 301.966C263.41 301.966 263.377 300.266 265.172 299.001C266.653 297.958 268.124 298.674 268.124 298.674C268.124 298.674 268.777 296.907 270.398 296.33C271.658 295.881 273.699 296.444 273.699 296.444C273.699 296.444 274.593 294.944 276.772 295.05C278.952 295.157 279.677 296.027 279.677 296.027C279.677 296.027 280.962 294.93 282.985 295.372C284.884 295.787 285.805 297.059 285.805 297.059C285.805 297.059 287.632 296.248 289.485 297.2C290.831 297.891 291.476 299.345 291.476 299.345C291.476 299.345 293.353 299.017 294.716 300.055C296.236 301.212 296.187 302.943 296.187 302.943C296.187 302.943 298.239 303.398 299.158 304.412C300.077 305.425 300.112 307.607 300.112 307.607C300.112 307.607 301.831 308.448 302.506 309.642C303.181 310.836 302.696 313.005 302.696 313.005C302.696 313.005 304.238 314.241 304.518 315.654C304.817 317.163 303.707 318.803 303.707 318.803C303.707 318.803 304.705 320.397 304.601 321.475C304.407 323.49 303.129 324.414 303.129 324.414C303.129 324.414 303.972 325.872 303.34 327.751C302.984 328.809 301.315 329.81 301.315 329.81C301.315 329.81 301.49 331.934 300.774 332.961C300.108 333.917 298.212 334.583 298.212 334.583C298.212 334.583 298.444 336.349 296.475 337.645C295.273 338.436 293.617 338.429 293.617 338.429C293.617 338.429 293.373 340.382 291.26 341.159C289.147 341.936 288.304 341.183 288.304 341.183C288.304 341.183 287.257 342.788 285.462 343.214C284.289 343.492 282.379 342.669 282.379 342.669C282.379 342.669 280.464 343.91 279.082 343.809C277.834 343.718 276.16 342.469 276.16 342.469C276.16 342.469 274.699 343.375 272.75 342.72C271.413 342.271 270.25 340.649 270.25 340.649C270.25 340.649 268.508 341.096 267.075 340.376C265.643 339.656 264.912 337.725 264.912 337.725C264.912 337.725 264.565 337.745 264.077 337.682C263.146 337.563 263.517 336.892 264.454 336.838C264.902 336.813 265.353 336.723 265.782 336.541L273.501 332.806L281.133 328.826C281.486 328.641 281.614 328.2 281.414 327.855L281.344 327.735C281.199 327.486 280.885 327.391 280.626 327.518L280.388 327.635C280.264 327.696 280.114 327.651 280.043 327.532C279.965 327.398 280.018 327.227 280.157 327.16L280.458 327.016C280.761 326.87 280.872 326.494 280.699 326.206C280.542 325.944 280.207 325.848 279.936 325.991L279.613 326.162C279.478 326.234 279.311 326.185 279.236 326.052C279.159 325.917 279.207 325.745 279.343 325.668L279.599 325.524C279.882 325.364 279.977 325.002 279.809 324.725L279.788 324.69C279.616 324.405 279.249 324.309 278.96 324.472L278.699 324.62C278.554 324.701 278.37 324.653 278.283 324.511C278.192 324.361 278.245 324.165 278.399 324.08L278.608 323.966C278.886 323.813 278.972 323.454 278.792 323.192L278.756 323.139C278.596 322.907 278.291 322.824 278.036 322.945L277.828 323.044C277.687 323.111 277.517 323.063 277.432 322.931C277.333 322.778 277.386 322.572 277.547 322.485L277.756 322.373C278.001 322.243 278.081 321.931 277.93 321.699C277.795 321.491 277.521 321.423 277.304 321.544L277.055 321.682C276.888 321.775 276.677 321.727 276.566 321.571C276.436 321.388 276.494 321.132 276.692 321.023L276.819 320.953C277.085 320.808 277.163 320.462 276.986 320.216L276.934 320.144C276.757 319.897 276.42 319.831 276.162 319.991L275.925 320.138C275.804 320.214 275.644 320.184 275.559 320.068C275.46 319.933 275.504 319.741 275.653 319.663L275.872 319.548C276.13 319.412 276.212 319.082 276.047 318.841L275.96 318.715C275.794 318.472 275.472 318.39 275.21 318.524L274.959 318.653C274.843 318.712 274.702 318.677 274.627 318.571C274.533 318.438 274.582 318.252 274.73 318.183L274.987 318.064C275.257 317.939 275.357 317.606 275.2 317.353L275.12 317.222L275.085 317.172C274.906 316.918 274.562 316.841 274.292 316.996L274.019 317.152C273.906 317.216 273.762 317.185 273.685 317.079C273.598 316.957 273.633 316.787 273.762 316.71L274.004 316.567C274.25 316.422 274.329 316.104 274.181 315.86L274.16 315.826C274.014 315.585 273.71 315.493 273.455 315.611L273.176 315.741C273.024 315.812 272.842 315.761 272.748 315.621C272.636 315.456 272.689 315.231 272.863 315.132L273.106 314.994C273.37 314.843 273.454 314.502 273.29 314.247L273.258 314.202C273.083 313.955 272.745 313.887 272.488 314.048L272.283 314.176C272.151 314.259 271.977 314.228 271.881 314.104C271.767 313.956 271.811 313.741 271.975 313.651L272.223 313.514C272.5 313.362 272.59 313.007 272.419 312.74L272.349 312.63C272.167 312.347 271.802 312.243 271.498 312.388L257.077 319.253C256.675 319.432 256.317 319.652 256.006 319.883Z" fill="#1E3A8A"/>
<path d="M299.628 335.282C299.628 335.282 304.256 336.775 305.312 337.775C308.058 340.377 308.322 343.485 308.322 343.485C308.587 346.169 308.303 348.802 310.782 351.705C312.056 353.197 313.464 354.217 316.2 354.813C317.277 355.048 317.385 354.552 317.766 353.595L330.51 315.692C330.781 314.709 331.333 313.87 330.3 313.406C329.467 312.965 327.724 312.402 326.668 312.386C321.095 312.302 319.761 314.471 317.248 317.462C315.307 319.773 312.832 320.355 311.259 320.369C308.668 320.393 305.085 319.088 305.085 319.088C305.085 319.088 305.785 321.035 305.619 322.164C305.463 323.232 304.387 324.636 304.387 324.636C304.387 324.636 304.761 326.517 304.446 327.653C304.078 328.978 302.407 330.524 302.407 330.524C302.407 330.524 302.265 332.133 301.802 333.027C301.243 334.104 299.628 335.282 299.628 335.282Z" fill="#AFD1FA"/>
<path d="M256.006 319.883C255.35 320.37 254.268 320.12 254.441 319.321C254.722 318.028 255.646 317.374 255.646 317.374C255.646 317.374 254.414 316.053 254.798 314.147C255.17 312.296 256.848 311.592 256.848 311.592C256.848 311.592 256.158 309.985 256.842 308.448C257.515 306.934 259.38 306.27 259.38 306.27C259.38 306.27 259.061 304.317 260.481 302.994C261.901 301.671 263.41 301.966 263.41 301.966C263.41 301.966 263.377 300.266 265.172 299.001C266.653 297.958 268.124 298.674 268.124 298.674C268.124 298.674 268.777 296.907 270.398 296.33C271.658 295.881 273.699 296.444 273.699 296.444C273.699 296.444 274.593 294.944 276.772 295.05C278.952 295.157 279.677 296.027 279.677 296.027C279.677 296.027 280.962 294.93 282.985 295.372C284.884 295.787 285.805 297.059 285.805 297.059C285.805 297.059 287.632 296.248 289.485 297.2C290.831 297.891 291.476 299.345 291.476 299.345C291.476 299.345 293.353 299.017 294.716 300.055C296.236 301.212 296.187 302.943 296.187 302.943C296.187 302.943 298.239 303.398 299.158 304.412C300.077 305.425 300.112 307.607 300.112 307.607C300.112 307.607 301.831 308.448 302.506 309.642C303.181 310.836 302.696 313.005 302.696 313.005C302.696 313.005 304.238 314.241 304.518 315.654C304.817 317.163 303.707 318.803 303.707 318.803C303.707 318.803 304.705 320.397 304.601 321.475C304.407 323.49 303.129 324.414 303.129 324.414C303.129 324.414 303.972 325.872 303.34 327.751C302.984 328.809 301.315 329.81 301.315 329.81C301.315 329.81 301.49 331.934 300.774 332.961C300.108 333.917 298.212 334.583 298.212 334.583C298.212 334.583 298.444 336.349 296.475 337.645C295.273 338.436 293.617 338.429 293.617 338.429C293.617 338.429 293.373 340.382 291.26 341.159C289.147 341.936 288.304 341.183 288.304 341.183C288.304 341.183 287.257 342.788 285.462 343.214C284.289 343.492 282.379 342.669 282.379 342.669C282.379 342.669 280.464 343.91 279.082 343.809C277.834 343.718 276.16 342.469 276.16 342.469C276.16 342.469 274.699 343.375 272.75 342.72C271.413 342.271 270.25 340.649 270.25 340.649C270.25 340.649 268.508 341.096 267.075 340.376C265.643 339.656 264.912 337.725 264.912 337.725C264.912 337.725 264.565 337.745 264.077 337.682C263.146 337.563 263.517 336.892 264.454 336.838C264.902 336.813 265.353 336.723 265.782 336.541L273.501 332.806L281.133 328.826C281.486 328.641 281.614 328.2 281.414 327.855L281.344 327.735C281.199 327.486 280.885 327.391 280.626 327.518L280.388 327.635C280.264 327.696 280.114 327.651 280.043 327.532C279.965 327.398 280.018 327.227 280.157 327.16L280.458 327.016C280.761 326.87 280.872 326.494 280.699 326.206C280.542 325.944 280.207 325.848 279.936 325.991L279.613 326.162C279.478 326.234 279.311 326.185 279.236 326.052C279.159 325.917 279.207 325.745 279.343 325.668L279.599 325.524C279.882 325.364 279.977 325.002 279.809 324.725L279.788 324.69C279.616 324.405 279.249 324.309 278.96 324.472L278.699 324.62C278.554 324.701 278.37 324.653 278.283 324.511C278.192 324.361 278.245 324.165 278.399 324.08L278.608 323.966C278.886 323.813 278.972 323.454 278.792 323.192L278.756 323.139C278.596 322.907 278.291 322.824 278.036 322.945L277.828 323.044C277.687 323.111 277.517 323.063 277.432 322.931C277.333 322.778 277.386 322.572 277.547 322.485L277.756 322.373C278.001 322.243 278.081 321.931 277.93 321.699C277.795 321.491 277.521 321.423 277.304 321.544L277.055 321.682C276.888 321.775 276.677 321.727 276.566 321.571C276.436 321.388 276.494 321.132 276.692 321.023L276.819 320.953C277.085 320.808 277.163 320.462 276.986 320.216L276.934 320.144C276.757 319.897 276.42 319.831 276.162 319.991L275.925 320.138C275.804 320.214 275.644 320.184 275.559 320.068C275.46 319.933 275.504 319.741 275.653 319.663L275.872 319.548C276.13 319.412 276.212 319.082 276.047 318.841L275.96 318.715C275.794 318.472 275.472 318.39 275.21 318.524L274.959 318.653C274.843 318.712 274.702 318.677 274.627 318.571C274.533 318.438 274.582 318.252 274.73 318.183L274.987 318.064C275.257 317.939 275.357 317.606 275.2 317.353L275.12 317.222L275.085 317.172C274.906 316.918 274.562 316.841 274.292 316.996L274.019 317.152C273.906 317.216 273.762 317.185 273.685 317.079C273.598 316.957 273.633 316.787 273.762 316.71L274.004 316.567C274.25 316.422 274.329 316.104 274.181 315.86L274.16 315.826C274.014 315.585 273.71 315.493 273.455 315.611L273.176 315.741C273.024 315.812 272.842 315.761 272.748 315.621C272.636 315.456 272.689 315.231 272.863 315.132L273.106 314.994C273.37 314.843 273.454 314.502 273.29 314.247L273.258 314.202C273.083 313.955 272.745 313.887 272.488 314.048L272.283 314.176C272.151 314.259 271.977 314.228 271.881 314.104C271.767 313.956 271.811 313.741 271.975 313.651L272.223 313.514C272.5 313.362 272.59 313.007 272.419 312.74L272.349 312.63C272.167 312.347 271.802 312.243 271.498 312.388L257.077 319.253C256.675 319.432 256.317 319.652 256.006 319.883Z" stroke="black" stroke-width="0.153039"/>
<path d="M299.628 335.282C299.628 335.282 304.256 336.775 305.312 337.775C308.058 340.377 308.322 343.485 308.322 343.485C308.587 346.169 308.303 348.802 310.782 351.705C312.056 353.197 313.464 354.217 316.2 354.813C317.277 355.048 317.385 354.552 317.766 353.595L330.51 315.692C330.781 314.709 331.333 313.87 330.3 313.406C329.467 312.965 327.724 312.402 326.668 312.386C321.095 312.302 319.761 314.471 317.248 317.462C315.307 319.773 312.832 320.355 311.259 320.369C308.668 320.393 305.085 319.088 305.085 319.088C305.085 319.088 305.785 321.035 305.619 322.164C305.463 323.232 304.387 324.636 304.387 324.636C304.387 324.636 304.761 326.517 304.446 327.653C304.078 328.978 302.407 330.524 302.407 330.524C302.407 330.524 302.265 332.133 301.802 333.027C301.243 334.104 299.628 335.282 299.628 335.282Z" stroke="black" stroke-width="0.153039"/>
<path fill-rule="evenodd" clip-rule="evenodd" d="M247.107 339.742C245.211 340.175 243.214 339.299 242.275 337.622L241.99 337.112C241.059 335.45 241.432 333.427 242.888 332.233L242.931 332.198C243.715 331.556 244.737 331.243 245.781 331.36C245.781 331.36 248.437 331.801 250.643 330.593C254.923 328.25 254.704 324.397 254.704 324.397C254.704 323.976 254.756 322.993 254.96 322.426C255.567 320.744 256.482 320.18 258.294 319.288L271.996 312.743C272.094 312.696 272.215 312.735 272.269 312.83C272.322 312.925 272.286 313.041 272.189 313.09L258.571 319.966L258.872 320.971L272.813 314.258C272.924 314.205 273.063 314.248 273.123 314.356C273.183 314.464 273.143 314.595 273.033 314.651L259.112 321.667L259.455 322.605L273.645 315.775C273.764 315.717 273.911 315.764 273.975 315.879C274.039 315.993 273.997 316.133 273.879 316.192L259.745 323.332L260.109 324.25L274.519 317.298C274.628 317.245 274.764 317.288 274.823 317.394C274.882 317.5 274.843 317.629 274.735 317.683L260.455 324.868L260.928 325.796L275.377 318.843C275.489 318.789 275.628 318.833 275.689 318.942C275.75 319.05 275.71 319.183 275.598 319.239L261.228 326.482L261.711 327.346L276.223 320.352C276.335 320.299 276.473 320.342 276.534 320.45C276.594 320.558 276.554 320.689 276.444 320.745L262.075 327.995L262.566 328.874L277.111 321.896C277.212 321.847 277.338 321.887 277.393 321.985C277.448 322.083 277.411 322.202 277.311 322.253L262.97 329.503L263.48 330.355L277.932 323.413C278.046 323.359 278.186 323.403 278.248 323.513C278.309 323.623 278.268 323.757 278.156 323.813L263.898 331.019L264.481 331.793L278.789 324.94C278.902 324.886 279.041 324.93 279.102 325.039C279.163 325.148 279.122 325.281 279.011 325.337L264.948 332.428L265.596 333.193L279.632 326.442C279.744 326.389 279.882 326.433 279.942 326.54C280.003 326.648 279.963 326.78 279.853 326.835L266.085 333.808L266.77 334.573L280.525 327.992C280.626 327.944 280.75 327.984 280.804 328.081C280.859 328.178 280.823 328.296 280.724 328.346L266.049 335.788C263.892 336.85 261.877 335.811 260.764 335.133C257.829 333.277 254.431 333.906 252.915 334.652C251.524 335.337 250.575 336.455 250.575 336.455C250.048 336.974 249.783 337.446 249.512 337.974C249.041 338.889 248.148 339.504 247.107 339.742ZM245.266 336.549C244.959 336.678 244.609 336.578 244.429 336.297C244.238 335.997 244.341 335.617 244.647 335.443C244.971 335.258 245.426 335.389 245.59 335.725C245.745 336.044 245.595 336.411 245.266 336.549Z" fill="#FEBC23" stroke="black" stroke-width="0.153039"/>
<path d="M312.197 314.108C311.369 316.571 312.694 319.24 315.157 320.068L323.18 322.765C325.643 323.594 328.312 322.268 329.14 319.805L332.51 309.781C333.364 307.242 331.997 304.49 329.458 303.637L327.282 310.458C326.569 312.694 324.163 313.913 321.938 313.165C319.737 312.425 318.553 310.041 319.293 307.841L321.596 300.993C319.12 300.161 316.439 301.493 315.607 303.968L312.197 314.108Z" fill="#1E3A8A"/>
<path d="M307.375 312.279C307.039 313.28 307.578 314.365 308.579 314.702L310.262 315.268L314.81 301.742L313.127 301.176C312.125 300.84 311.041 301.379 310.704 302.38L307.375 312.279Z" fill="#1E3A8A"/>
<path d="M321.596 300.993L319.293 307.841C318.553 310.041 319.737 312.425 321.938 313.165C324.163 313.913 326.569 312.694 327.282 310.458L329.458 303.637L321.596 300.993Z" fill="#4766C0"/>
<path d="M321.596 300.993V300.993C319.12 300.161 316.439 301.493 315.607 303.968L312.197 314.108C311.369 316.571 312.694 319.24 315.157 320.068L323.18 322.765C325.643 323.594 328.312 322.268 329.14 319.805L332.51 309.781C333.364 307.242 331.997 304.49 329.458 303.637V303.637M321.596 300.993L319.293 307.841C318.553 310.041 319.737 312.425 321.938 313.165V313.165C324.163 313.913 326.569 312.694 327.282 310.458L329.458 303.637M321.596 300.993L329.458 303.637M310.262 315.268L308.579 314.702C307.578 314.365 307.039 313.28 307.375 312.279L310.704 302.38C311.041 301.379 312.125 300.84 313.127 301.176L314.81 301.742L310.262 315.268Z" stroke="black" stroke-width="0.153039"/>
</svg>
