<svg width="10327" height="9456" viewBox="0 0 10327 9456" fill="none" xmlns="http://www.w3.org/2000/svg">
<g clip-path="url(#clip0_61_5)">
<rect width="10327" height="9456" fill="white"/>
<path d="M6624.3 4965.87C6521.66 4989.98 6510.3 5116.56 6510.3 5116.56C6503.75 5171.16 6507.68 5224.45 6568.83 5292.15L6569.12 5292.65C6618.24 5376.54 6631.14 5398.58 6555.73 5541.56C6555.73 5541.56 6490.21 5645.95 6451.33 5744.23C6421.95 5818.51 6423.38 5897.1 6462.69 5962.19C6489.08 6005.88 6528.9 6035.21 6578.44 6022.9C6625.17 6011.28 6636.53 5914.14 6636.53 5914.14C6636.53 5885.14 6645.7 5834.64 6682.83 5796.21C6682.83 5796.21 6800.08 5693.24 6837.02 5608.82C6876.83 5517.85 6884.16 5451.51 6858.86 5355.49C6835.65 5267.41 6732.63 5159.37 6732.63 5159.37C6758.83 5108.7 6761.02 5048.86 6732.63 5015.67C6732.63 5015.67 6681.96 4952.33 6624.3 4965.87Z" fill="#4766C0"/>
<path d="M7019.6 5644.2C6965.26 5610.84 6920.92 5702.38 6909.96 5765.19C6899.2 5826.88 6906.92 5909.39 6969.36 5914.14C7033.95 5919.05 7036.75 5829.72 7042.31 5765.19C7046.43 5717.3 7060.56 5669.36 7019.6 5644.2Z" fill="#A9A8A8"/>
<path d="M6925.69 6373.2C6871.09 6364.47 6859.56 6464.85 6858.86 6532.2C6858.23 6592.72 6850.35 6668 6909.96 6678.52C6977.28 6690.4 6969.8 6582.21 6969.36 6513.85C6969 6456.34 6972.14 6380.64 6925.69 6373.2Z" fill="#4766C0"/>
<path d="M5103.4 5076.38L5333.16 5060.22C5330.56 4915.08 5322.45 4782.65 5311.56 4664.92C5311.56 4664.92 5283.18 4661.79 5265.45 4664.92C5219.5 4673.05 5197.3 4698.85 5169.8 4736.56C5137.61 4780.67 5130.92 4866.72 5130.92 4866.72C5130.92 4866.72 5117.25 4928.54 5084.62 4936.61C5053.85 4944.21 5010.37 4903.85 5010.37 4903.85C5010.37 4903.85 4950.97 4824.47 4872.78 4838.33C4830.92 4845.75 4808.58 4867.92 4785.86 4903.85C4749.08 4962 4793.72 5079.86 4793.72 5079.86C4884.51 5081.04 4986.84 5080.08 5103.4 5076.38Z" fill="#A9A8A8"/>
<path d="M3250.11 4547.87C3191.58 4586.74 3223.9 4706.86 3223.9 4706.86C3230.89 4740.93 3261.9 4793.17 3331.79 4844.88C3366.3 4870.42 3421.68 4940.97 3417.84 5019.6C3417.84 5019.6 3413.47 5102.87 3442.3 5142.33C3475.29 5187.5 3517.76 5216.61 3572.02 5203.05C3663.14 5180.27 3668.7 5071.61 3668.39 5040.56C3678.6 4913.02 3572.02 4816.93 3499.95 4756.21C3453.65 4630.85 3422.64 4588.05 3398.18 4563.59C3398.18 4563.59 3332.89 4492.89 3250.11 4547.87Z" fill="#A9A8A8"/>
<path d="M5431.16 7322.78C5372.63 7361.66 5404.95 7481.77 5404.95 7481.77C5411.94 7515.84 5442.95 7568.08 5512.84 7619.8C5547.35 7645.33 5602.73 7715.89 5598.89 7794.51C5598.89 7794.51 5594.52 7877.78 5623.35 7917.25C5656.34 7962.42 5698.81 7991.53 5753.07 7977.96C5844.19 7955.19 5849.75 7846.52 5849.44 7815.48C5859.65 7687.94 5753.07 7591.84 5681 7531.13C5634.7 7405.77 5603.69 7362.97 5579.23 7338.51C5579.23 7338.51 5513.94 7267.8 5431.16 7322.78Z" fill="#A9A8A8"/>
<path d="M4228.08 3542.07C4275.23 3546.73 4333.65 3538.94 4397.99 3503.94C4415.03 3494.67 4440.8 3500.45 4420.27 3527.09C4390.88 3561.74 4302.27 3579.77 4247.47 3586.28C4237.03 3587.52 4228.08 3579.24 4228.08 3568.72V3542.07Z" fill="black"/>
<path d="M5365.04 2375.28C5340.77 2381.37 5314.16 2389.18 5286.42 2398.02C5330.76 2430.07 5407.56 2507.32 5457.07 2616.39C5494.83 2591.2 5572.86 2511.56 5593.48 2424.2C5614.1 2336.84 5561.6 2320.67 5531.46 2319.79C5466.95 2343.24 5405.73 2363.07 5365.04 2375.28Z" fill="black"/>
<path d="M4905.1 5673.91C4869.72 5688.91 4850.94 5790.89 4884.14 5852.99C4914.73 5910.22 4970.72 5967.21 5027.84 5936.42C5082.07 5907.17 5070.74 5837.62 5048.81 5780.05C5023.97 5714.85 4969.33 5646.67 4905.1 5673.91Z" fill="#D9D9D9"/>
<path d="M5107.34 3908.84C4956.61 3907.75 4765.33 3843.45 4678.75 3775.49C4675.31 3772.79 4670.42 3776.49 4672.55 3780.31C4718.9 3863.72 4855.93 4010.49 5107.34 4048.18C5114.54 4001.04 5112.42 3956.66 5115.69 3908.84C5112.87 3908.86 5110.08 3908.86 5107.34 3908.84Z" fill="black"/>
<path d="M4507.19 7945.64C4850.61 7945.64 5058.05 7892.28 5165.34 7852.26C5185.03 7844.91 5201.34 7838.02 5214.51 7831.98C5214.51 7831.98 5024.78 7720.7 4507.19 7720.7C4098.79 7720.7 3874.72 7830.81 3874.72 7830.81C3984.67 7878.76 4194.16 7945.64 4507.19 7945.64Z" fill="#4766C0"/>
<path fill-rule="evenodd" clip-rule="evenodd" d="M3880.4 3025.65C3962.33 2940.58 4086.53 2812.69 4212.08 2695.35C4300.27 2695.29 4405.35 2681.8 4512.21 2659.99C4684.28 2624.86 4864.37 2566.53 5000.32 2501.11C5020.8 2493.67 5044.62 2484.73 5070.5 2475.02C5136.13 2450.39 5215.01 2420.79 5286.42 2398.02C5314.16 2389.18 5340.77 2381.37 5365.04 2375.28C5405.73 2363.07 5466.95 2343.24 5531.46 2319.79C5533.49 2319.05 5535.53 2318.31 5537.57 2317.56C5628.97 2284.12 5725.83 2243.7 5779.55 2207.55C5828.47 2171.91 5822.8 2139.6 5812.75 2129.37C5738.67 2053.89 5394.74 2114.08 5208.23 2146.84C5097.81 1953.95 4862.88 1872.82 4759.22 1856.37C4344.79 1803.61 4040.84 2091.51 3940.68 2242.06C3756.18 2499.24 3788.67 2854.43 3880.4 3025.65Z" fill="#AFD1FA"/>
<path d="M3880.4 3025.65C3893.79 3080.25 3935.56 3167.59 4017.24 3202.09C4017.36 3201.52 4017.49 3200.95 4017.61 3200.39C4017.63 3200.32 4017.64 3200.26 4017.66 3200.2C4040.85 3097.57 4109.71 3064.09 4109.71 3064.09C4160.82 3033.52 4268.35 3007.75 4382.27 3130.05C4410.34 3160.19 4441.01 3184.21 4446.04 3130.05C4450.41 3083.02 4474.47 2996.83 4493.65 2963.19C4521.44 2914.45 4564.46 2778.39 4512.21 2659.99C4405.35 2681.8 4300.27 2695.29 4212.08 2695.35C4086.53 2812.69 3962.33 2940.58 3880.4 3025.65Z" fill="black"/>
<path d="M3698.78 7123.65C3459.58 7172.35 3194.46 7167.55 2925.58 7149.14C2916.82 7179.83 2907.13 7215.8 2896.87 7256.83C3084.65 7276.35 3520.22 7287.26 3760.28 7174.73C3736.09 7157.78 3715.6 7140.18 3699.14 7124C3699.02 7123.88 3698.9 7123.77 3698.78 7123.65Z" fill="black"/>
<path fill-rule="evenodd" clip-rule="evenodd" d="M3490.82 6102.4L3442.73 6337.82C3488.31 6350.43 3552.74 6368.64 3622.25 6388.92C3622.25 6388.92 3677.97 6282.35 3741.93 6250.47C3815.98 6213.56 3886.09 6202.89 3953.78 6250.47C4009.63 6289.73 4021.18 6339.42 4031.96 6406.84C4037.64 6442.31 4031.96 6498.82 4031.96 6498.82C4162.41 6488.9 4375.92 6493.24 4527.72 6554.03C4646.09 6601.44 4743.05 6654.5 4878.9 6780.29C4920.4 6818.73 4988.44 6915.7 5024.78 6982.09C5036.87 7000.72 5049.24 7044.98 5002.07 7072.94C4964.51 7097.4 4916.21 7090.56 4885.63 7072.94C4885.64 7072.99 4885.65 7073.04 4885.65 7073.09C4886.47 7079.51 4887.13 7085.88 4887.63 7092.16C4887.94 7096 4888.18 7099.79 4888.36 7103.51C4930.49 7115.02 5045.05 7174.97 5166.3 7322.78C5287.55 7470.59 5334.87 7735.55 5351.94 7860.03C5371.16 8000.24 5296.03 8002.86 5244.05 7980.59C5227.31 8203.06 5198.8 8679.1 5166.3 8840.19C5148.77 8927.11 5113.45 8943.17 5067.15 8976.46C4965.12 9049.84 4674.62 9068.48 4542.13 9068.63C4276.56 9068.63 4003.57 9006.6 3883.89 8932.35C3820.29 8896.71 3824.44 8817.91 3821.43 8777.29C3807.02 8582.92 3789.25 8201.16 3786.05 7967.92C3706.99 7985.39 3670.56 7978.14 3697.82 7819.85C3735.87 7598.83 3868.52 7264.86 3993.96 7256.83C3897.77 7252.38 3818.36 7215.43 3760.28 7174.73C3520.22 7287.26 3084.65 7276.35 2896.87 7256.83C2846.73 7457.24 2782.97 7778.31 2747.8 8194.18C2714.32 8583.21 2649.26 9380.14 2656.95 9455.62H4579.7H6134.23C6131.17 9384.86 6062.77 8651.93 6015.86 8381.56C5983.36 8194.26 5921.95 7691.72 5895.3 7463.87C5849.44 7139.77 5849.44 6723.95 5849.44 6502.06V6264.44V5825.91C5739.37 5558.16 5690.89 5421.88 5664.68 5060.22C5638.47 4698.56 5576.45 4353.93 5520.54 4191.31C5410.83 4135.6 5302.17 4091.65 5214.37 4061.31C5226.07 4109.55 5280.27 4326.5 5311.56 4664.92C5322.45 4782.65 5330.56 4915.08 5333.16 5060.22L5103.4 5076.38C4986.84 5080.08 4884.51 5081.04 4793.72 5079.86C4509.27 5076.14 4338.01 5051.34 4196.63 5023.53C4196.63 5023.53 4163.06 4714.96 4123.69 4520.35C4055.55 4183.53 3927.57 3965.16 3927.57 3965.16C3788.31 4000.15 3656.5 4022.92 3575.08 4051.67C3575.08 4051.67 3794.49 4389.35 3826.21 4939.7C3840.23 5183.08 3839.61 5327.09 3773.36 5561.69C3680.84 5889.28 3490.82 6102.4 3490.82 6102.4ZM5417.89 5434.11C4868.85 5461.63 4440.8 5416.2 4227.21 5385.63L4213.67 5992.32C4213.67 6098.03 4249.22 6293.1 4421.14 6353.55C4626.61 6447.2 4994.64 6423.87 5157.13 6397.23C5353.16 6374.17 5406.54 6180.58 5406.54 6082.3L5417.89 5434.11ZM5485.59 8381.56C5518.75 8320.32 5585.42 8253.84 5641.53 8295.07C5691.28 8331.64 5666.41 8396.68 5641.53 8453.19C5613.49 8516.88 5568.66 8590.31 5503.5 8565.88C5435.78 8540.5 5451.16 8445.16 5485.59 8381.56ZM5404.95 7481.77C5404.95 7481.77 5372.63 7361.66 5431.16 7322.78C5513.94 7267.8 5579.23 7338.51 5579.23 7338.51C5603.69 7362.97 5634.7 7405.77 5681 7531.13C5753.07 7591.84 5859.65 7687.94 5849.44 7815.48C5849.75 7846.52 5844.19 7955.19 5753.07 7977.96C5698.81 7991.53 5656.34 7962.42 5623.35 7917.25C5594.52 7877.78 5598.89 7794.51 5598.89 7794.51C5602.73 7715.89 5547.35 7645.33 5512.84 7619.8C5442.95 7568.08 5411.94 7515.84 5404.95 7481.77Z" fill="#1E3A8A"/>
<path fill-rule="evenodd" clip-rule="evenodd" d="M4227.21 5385.63C4440.8 5416.2 4868.85 5461.63 5417.89 5434.11L5406.54 6082.3C5406.54 6180.58 5353.16 6374.17 5157.13 6397.23C4994.64 6423.87 4626.61 6447.2 4421.14 6353.55C4249.22 6293.1 4213.67 6098.03 4213.67 5992.32L4227.21 5385.63ZM4884.14 5852.99C4850.94 5790.89 4869.72 5688.91 4905.1 5673.91C4969.33 5646.67 5023.97 5714.85 5048.81 5780.05C5070.74 5837.62 5082.07 5907.17 5027.84 5936.42C4970.72 5967.21 4914.73 5910.22 4884.14 5852.99Z" fill="#4766C0"/>
<path fill-rule="evenodd" clip-rule="evenodd" d="M3575.08 4051.67C3354.94 4129.42 2999.39 4318.11 2838.22 4495.45C2835.92 4497.43 2833.59 4499.47 2831.23 4501.57C2831.23 4501.57 2926.95 4528.41 2955.72 4577.57C2981.33 4621.34 2992.62 4662.55 2967.95 4706.86C2946.54 4745.29 2897.19 4779.36 2897.19 4779.36C2821.18 4824.35 2858.48 4899.48 2838.22 4951.46C2813.11 5015.87 2737.09 5023.3 2672.68 4998.19C2592.36 4966.89 2585.92 4791.16 2585.92 4791.16C2479.19 4944.33 2362.26 5147.29 2257.73 5397.86C2185.57 5570.82 2083.01 5921.56 2064.67 6033.38C2060.51 6058.72 2050.69 6083.58 2133.68 6095.41C2485 6145.49 3268.46 6273.62 3442.73 6337.82L3490.82 6102.4C3490.82 6102.4 3680.84 5889.28 3773.36 5561.69C3839.61 5327.09 3840.23 5183.08 3826.21 4939.7C3794.49 4389.35 3575.08 4051.67 3575.08 4051.67ZM3223.9 4706.86C3223.9 4706.86 3191.58 4586.74 3250.11 4547.87C3332.89 4492.89 3398.18 4563.59 3398.18 4563.59C3422.64 4588.05 3453.65 4630.85 3499.95 4756.21C3572.02 4816.93 3678.6 4913.02 3668.39 5040.56C3668.7 5071.61 3663.14 5180.27 3572.02 5203.05C3517.76 5216.61 3475.29 5187.5 3442.3 5142.33C3413.47 5102.87 3417.84 5019.6 3417.84 5019.6C3421.68 4940.97 3366.3 4870.42 3331.79 4844.88C3261.9 4793.17 3230.89 4740.93 3223.9 4706.86Z" fill="#AFD1FA"/>
<path fill-rule="evenodd" clip-rule="evenodd" d="M5752.04 4329.47C5679.27 4277.76 5599.63 4231.48 5520.54 4191.31C5576.45 4353.93 5638.47 4698.56 5664.68 5060.22C5690.89 5421.88 5739.37 5558.16 5849.44 5825.91V6264.44L6242.55 5897.1C6247.75 5636.85 6256.95 5173.73 6262.19 4881.73C6262.55 4861.44 6262.9 4841.99 6263.22 4823.48C6105.28 4622.91 5858.61 4405.91 5752.04 4329.47ZM6079.19 5088.61C6081.5 5035.37 6074.63 4955.97 6127.67 4961.07C6179.08 4966.01 6163.8 5036.98 6162.62 5088.61C6161.36 5143.24 6162.62 5220.96 6117.19 5220.96C6063.42 5220.96 6076.86 5142.33 6079.19 5088.61Z" fill="#AFD1FA"/>
<path d="M4308.45 4183.53C4174.36 4043.37 4174.36 3886.13 4174.36 3886.13C4095.46 3919.31 4010.21 3944.39 3927.57 3965.16C3927.57 3965.16 4055.55 4183.53 4123.69 4520.35C4163.06 4714.96 4196.63 5023.53 4196.63 5023.53C4338.01 5051.34 4509.27 5076.14 4793.72 5079.86C4793.72 5079.86 4749.08 4962 4785.86 4903.85C4808.58 4867.92 4830.92 4845.75 4872.78 4838.33C4950.97 4824.47 5010.37 4903.85 5010.37 4903.85C5010.37 4903.85 5053.85 4944.21 5084.62 4936.61C5117.25 4928.54 5130.92 4866.72 5130.92 4866.72C5130.92 4866.72 5137.61 4780.67 5169.8 4736.56C5197.3 4698.85 5219.5 4673.05 5265.45 4664.92C5283.18 4661.79 5311.56 4664.92 5311.56 4664.92C5280.27 4326.5 5226.07 4109.55 5214.37 4061.31C5175.12 4047.76 5145.5 4048.18 5108.82 4037.5C5108.38 4041.04 5107.88 4044.6 5107.34 4048.18C5103.94 4070.36 5102.8 4074.82 5089.43 4117.19C5044.53 4259.5 4979.09 4306.15 4950.97 4327.29C4950.97 4327.29 4866.67 4402.96 4621.63 4353.93C4485.1 4326.62 4404.7 4284.14 4308.45 4183.53Z" fill="#AFD1FA"/>
<path fill-rule="evenodd" clip-rule="evenodd" d="M6242.55 5897.1L5849.44 6264.44V6502.06C6009.74 6685.07 6283.61 6951.51 6604.21 6974.23C6693.75 6983.4 6909.09 6962.71 7052.79 6818.73C7278.61 6592.47 7261.68 6252.65 7232.75 5996.26C7201.3 5717.58 7060.51 5135.49 6990.33 4823.48C6990.33 4823.48 7173.09 4669.52 7192.13 4532.58C7201.25 4466.97 7171.76 4427.29 7159.8 4414.21C7156.88 4411.01 7155 4409.4 7155 4409.4C7106.95 4384.51 6947.06 4388 6855.8 4395.43C6855.8 4395.43 6768.01 4395.12 6768.01 4465.75C6768.01 4515.98 6811.25 4532.58 6811.25 4532.58C6880.7 4557.91 6939.66 4548.3 6994.7 4551.36C6994.7 4551.36 7017.55 4549.18 7019.16 4566.21C7021.1 4586.74 6990.33 4589.36 6990.33 4589.36H6843.57C6783.29 4589.36 6706.85 4524.35 6748.79 4420.22C6718.04 4422.31 6674.97 4413.77 6661.87 4409.4C6644.74 4477.89 6575.24 4481.62 6542.62 4474.92C6453.52 4456.4 6491.4 4377.52 6513.79 4289.72C6530.39 4224.64 6568.98 4024.3 6584.12 3924.57C6641.07 3885.08 6693.17 3797.01 6709.48 3756.6C6748.94 3653.57 6741.83 3599.92 6717.77 3588.48C6712.86 3586.14 6707.25 3585.57 6701.18 3586.69C6561.4 3612.46 6362.67 3865.16 6294.09 4009.74C6235.56 4113.7 6251.28 4423.82 6266.14 4624.74C6266.14 4647.52 6265.01 4720.89 6263.22 4823.48C6262.9 4841.99 6262.55 4861.44 6262.19 4881.73C6256.95 5173.73 6247.75 5636.85 6242.55 5897.1ZM6510.3 5116.56C6510.3 5116.56 6521.66 4989.98 6624.3 4965.87C6681.96 4952.33 6732.63 5015.67 6732.63 5015.67C6761.02 5048.86 6758.83 5108.7 6732.63 5159.37C6732.63 5159.37 6835.65 5267.41 6858.86 5355.49C6884.16 5451.51 6876.83 5517.85 6837.02 5608.82C6800.08 5693.24 6682.83 5796.21 6682.83 5796.21C6645.7 5834.64 6636.53 5885.14 6636.53 5914.14C6636.53 5914.14 6625.17 6011.28 6578.44 6022.9C6528.9 6035.21 6489.08 6005.88 6462.69 5962.19C6423.38 5897.1 6421.95 5818.51 6451.33 5744.23C6490.21 5645.95 6555.73 5541.56 6555.73 5541.56C6631.14 5398.58 6618.24 5376.54 6569.12 5292.65L6568.83 5292.15C6507.68 5224.45 6503.75 5171.16 6510.3 5116.56ZM6909.96 5765.19C6920.92 5702.38 6965.26 5610.84 7019.6 5644.2C7060.56 5669.36 7046.43 5717.3 7042.31 5765.19C7036.75 5829.72 7033.95 5919.05 6969.36 5914.14C6906.92 5909.39 6899.2 5826.88 6909.96 5765.19ZM6858.86 6532.2C6859.56 6464.85 6871.09 6364.47 6925.69 6373.2C6972.14 6380.64 6969 6456.34 6969.36 6513.85C6969.8 6582.21 6977.28 6690.4 6909.96 6678.52C6850.35 6668 6858.23 6592.72 6858.86 6532.2Z" fill="#B5602A"/>
<path d="M6757.96 4203.24C6757.96 4203.24 6636.1 4203.24 6636.1 4289.72C6636.1 4377.52 6748.79 4377.52 6748.79 4377.52C6779.8 4377.52 6846.98 4370.09 6886.81 4363.1C6955.39 4350.87 7105.99 4333.75 7159.8 4363.1C7253.8 4290.07 7211.78 4222.46 7175.09 4196.69C7110.01 4156.94 6888.56 4190.57 6757.96 4203.24Z" fill="#B5602A"/>
<path d="M7132.72 3960.82L6698.12 4018.91C6698.12 4018.91 6622.98 4029.88 6629.54 4106.27C6635.66 4177.47 6705.11 4168.3 6705.11 4168.3C6847.5 4155.19 7135.43 4111.16 7165.48 4142.96C7205.32 4046.87 7160.24 3981.5 7132.72 3960.82Z" fill="#B5602A"/>
<path d="M6932.67 3753.17C6930.61 3753.77 6928.55 3754.38 6926.49 3755C6872.36 3771.22 6819.82 3794.21 6782.42 3811.44C6741.36 3830.35 6705.37 3913.65 6806.01 3939.86C6826.54 3945.2 6880.26 3935.05 6958.45 3930.25C7005.62 3925.15 7106.52 3919.94 7132.72 3939.86C7134.76 3943.06 7137.62 3951.74 7132.72 3960.82C7166.79 3910.59 7163.97 3819.3 7147.57 3788.29C7112.15 3721.28 7020.99 3727.62 6932.67 3753.17Z" fill="#B5602A"/>
<path d="M6709.48 3756.6C6693.17 3797.01 6641.07 3885.08 6584.12 3924.57C6568.98 4024.3 6530.39 4224.64 6513.79 4289.72C6491.4 4377.52 6453.52 4456.4 6542.62 4474.92C6575.24 4481.62 6644.74 4477.89 6661.87 4409.4C6674.97 4413.77 6718.04 4422.31 6748.79 4420.22C6706.85 4524.35 6783.29 4589.36 6843.57 4589.36H6990.33C6990.33 4589.36 7021.1 4586.74 7019.16 4566.21C7017.55 4549.18 6994.7 4551.36 6994.7 4551.36C6939.66 4548.3 6880.7 4557.91 6811.25 4532.58C6811.25 4532.58 6768.01 4515.98 6768.01 4465.75C6768.01 4395.12 6855.8 4395.43 6855.8 4395.43C6947.06 4388 7106.95 4384.51 7155 4409.4C7155 4409.4 7156.88 4411.01 7159.8 4414.21C7170.29 4389.05 7164.17 4369.66 7159.8 4363.1C7105.99 4333.75 6955.39 4350.87 6886.81 4363.1C6846.98 4370.09 6779.8 4377.52 6748.79 4377.52C6748.79 4377.52 6636.1 4377.52 6636.1 4289.72C6636.1 4203.24 6757.96 4203.24 6757.96 4203.24C6888.56 4190.57 7110.01 4156.94 7175.09 4196.69C7182.78 4163.49 7171.89 4147.04 7165.48 4142.96C7135.43 4111.16 6847.5 4155.19 6705.11 4168.3C6705.11 4168.3 6635.66 4177.47 6629.54 4106.27C6622.98 4029.88 6698.12 4018.91 6698.12 4018.91L7132.72 3960.82C7137.62 3951.74 7134.76 3943.06 7132.72 3939.86C7106.52 3919.94 7005.62 3925.15 6958.45 3930.25C6880.26 3935.05 6826.54 3945.2 6806.01 3939.86C6705.37 3913.65 6741.36 3830.35 6782.42 3811.44C6819.82 3794.21 6872.36 3771.22 6926.49 3755C6928.55 3754.38 6930.61 3753.77 6932.67 3753.17C6954.22 3686.49 7005.18 3558.54 7127.48 3534.52C7170.29 3528.4 7281.67 3528.4 7348.93 3528.4C7402.78 3528.4 7427.56 3515.48 7445.71 3488.34L6570.14 3113.01C6559.74 3137.04 6570.14 3161.5 6601.15 3193.38C6643.39 3239.39 6731.62 3342.59 6746.6 3387.32C6796.83 3493.02 6747.48 3554.61 6717.77 3588.48C6741.83 3599.92 6748.94 3653.57 6709.48 3756.6Z" fill="black"/>
<path d="M4011.43 3303.45C4021.04 3425.32 4123.69 3503.94 4123.69 3503.94C4142.44 3519.05 4179.21 3537.25 4228.08 3542.07C4275.23 3546.73 4333.65 3538.94 4397.99 3503.94C4415.03 3494.67 4440.8 3500.45 4420.27 3527.09C4391.33 3561.21 4304.95 3579.22 4250 3585.97L4177.14 3875.65L4174.36 3886.13C4174.36 3886.13 4174.36 4043.37 4308.45 4183.53C4404.7 4284.14 4485.1 4326.62 4621.63 4353.93C4866.67 4402.96 4950.97 4327.29 4950.97 4327.29C4979.09 4306.15 5044.53 4259.5 5089.43 4117.19C5102.8 4074.82 5103.94 4070.36 5107.34 4048.18C4855.93 4010.49 4718.9 3863.72 4672.55 3780.31C4670.42 3776.49 4675.31 3772.79 4678.75 3775.49C4765.33 3843.45 4956.61 3907.75 5107.34 3908.84C5110.08 3908.86 5112.87 3908.86 5115.69 3908.84C5278.11 3907.67 5577.09 3837.82 5664.24 3446.28C5699.62 3189.45 5574.41 2913.26 5502.19 2784.99C5496.7 2722.97 5479.75 2666.34 5457.07 2616.39C5407.56 2507.32 5330.76 2430.07 5286.42 2398.02C5215.01 2420.79 5136.13 2450.39 5070.5 2475.02C5044.62 2484.73 5020.8 2493.67 5000.32 2501.11C4864.37 2566.53 4684.28 2624.86 4512.21 2659.99C4564.46 2778.39 4521.44 2914.45 4493.65 2963.19C4474.47 2996.83 4450.41 3083.02 4446.04 3130.05C4441.01 3184.21 4410.34 3160.19 4382.27 3130.05C4268.35 3007.75 4160.82 3033.52 4109.71 3064.09C4109.71 3064.09 4040.85 3097.57 4017.66 3200.2L4017.61 3200.39C4017.49 3200.95 4017.36 3201.52 4017.24 3202.09C4011.04 3230.43 4008.32 3263.97 4011.43 3303.45Z" fill="#B5602A"/>
<path d="M3442.73 6337.82C3268.46 6273.62 2485 6145.49 2133.68 6095.41C2133.68 6095.41 2076.24 6544.29 2202.69 6779.85C2400.12 7147.63 2874.04 7145.45 2874.04 7145.45C2891.24 7146.73 2908.42 7147.96 2925.58 7149.14C3194.46 7167.55 3459.58 7172.35 3698.78 7123.65C3698.9 7123.62 3699.02 7123.81 3699.14 7124C3699.26 7124.12 3699.38 7124.24 3699.5 7124.36C3715.9 7140.44 3736.27 7157.9 3760.28 7174.73C3818.36 7215.43 3897.77 7252.38 3993.96 7256.83C4006.63 7315.36 4004.01 7403.06 4129.8 7414.42C4158.3 7414.42 4191.32 7404.1 4210.58 7384.57C4211.73 7383.41 4212.82 7382.22 4213.86 7381C4267.91 7394.01 4373.69 7407.21 4419.89 7354.34C4420.28 7353.9 4420.66 7353.45 4421.04 7353C4473.98 7368.31 4609.9 7366.49 4657.01 7291.33C4707.26 7336.86 4899.32 7323.26 4888.36 7103.51C4888.18 7099.79 4887.94 7096 4887.63 7092.16C4887.13 7085.88 4886.47 7079.51 4885.65 7073.09C4885.65 7073.04 4885.64 7072.99 4885.63 7072.94C4916.21 7090.56 4964.51 7097.4 5002.07 7072.94C5049.24 7044.98 5036.87 7000.72 5024.78 6982.09C4988.44 6915.7 4920.4 6818.73 4878.9 6780.29C4743.05 6654.5 4646.09 6601.44 4527.72 6554.03C4375.92 6493.24 4162.41 6488.9 4031.96 6498.82C4015.51 6500.07 4000.37 6501.55 3986.85 6503.17C3983.49 6503.58 3980.13 6503.16 3976.98 6501.93C3901.97 6472.64 3753.11 6427.11 3622.25 6388.92C3552.74 6368.64 3488.31 6350.43 3442.73 6337.82Z" fill="#B5602A"/>
<path d="M4129.8 7414.42C4004.01 7403.06 4006.63 7315.36 3993.96 7256.83C3868.52 7264.86 3735.87 7598.83 3697.82 7819.85C3670.56 7978.14 3706.99 7985.39 3786.05 7967.92V7805.87C3786.05 7795.97 3786.67 7789.68 3786.05 7781.73C3789.17 7729.31 3792.6 7726.81 3845.02 7695.8C3845.02 7695.8 4023.86 7585.13 4507.19 7571.34C4844.67 7561.71 5113.71 7656.89 5187.64 7686.03C5201.19 7691.37 5213.72 7698.9 5224.31 7708.89C5245.97 7729.33 5262.53 7753.82 5258.03 7809.03L5244.05 7980.59C5296.03 8002.86 5371.16 8000.24 5351.94 7860.03C5334.87 7735.55 5287.55 7470.59 5166.3 7322.78C5045.05 7174.97 4930.49 7115.02 4888.36 7103.51C4899.32 7323.26 4707.26 7336.86 4657.01 7291.33C4609.9 7366.49 4473.98 7368.31 4421.04 7353C4420.66 7353.45 4420.28 7353.9 4419.89 7354.34C4373.69 7407.21 4267.91 7394.01 4213.86 7381C4212.82 7382.22 4211.73 7383.41 4210.58 7384.57C4191.32 7404.1 4158.3 7414.42 4129.8 7414.42Z" fill="#1E3A8A"/>
<path d="M3786.05 7805.87V7967.92C3789.25 8201.16 3807.02 8582.92 3821.43 8777.29C3824.44 8817.91 3820.29 8896.71 3883.89 8932.35C4003.57 9006.6 4276.56 9068.63 4542.13 9068.63C4674.62 9068.48 4965.12 9049.84 5067.15 8976.46C5113.45 8943.17 5148.77 8927.11 5166.3 8840.19C5198.8 8679.1 5227.31 8203.06 5244.05 7980.59L5258.03 7809.03C5258.03 7809.03 5244.38 7818.29 5214.51 7831.98C5201.34 7838.02 5185.03 7844.91 5165.34 7852.26C5058.05 7892.28 4850.61 7945.64 4507.19 7945.64C4194.16 7945.64 3984.67 7878.76 3874.72 7830.81C3813.3 7804.03 3786.05 7781.73 3786.05 7781.73C3786.67 7789.68 3786.05 7795.97 3786.05 7805.87Z" fill="#EFA800"/>
<path d="M3845.02 7695.8C3792.6 7726.81 3789.17 7729.31 3786.05 7781.73C3786.05 7781.73 3813.3 7804.03 3874.72 7830.81C3874.72 7830.81 4098.79 7720.7 4507.19 7720.7C5024.78 7720.7 5214.51 7831.98 5214.51 7831.98C5244.38 7818.29 5258.03 7809.03 5258.03 7809.03C5262.53 7753.82 5245.97 7729.33 5224.31 7708.89C5213.72 7698.9 5201.19 7691.37 5187.64 7686.03C5113.71 7656.89 4844.67 7561.71 4507.19 7571.34C4023.86 7585.13 3845.02 7695.8 3845.02 7695.8Z" fill="#CA9414"/>
<path d="M2585.92 4791.16C2585.92 4791.16 2592.36 4966.89 2672.68 4998.19C2737.09 5023.3 2813.11 5015.87 2838.22 4951.46C2858.48 4899.48 2821.18 4824.35 2897.19 4779.36C2897.19 4779.36 2946.54 4745.29 2967.95 4706.86C2992.62 4662.55 2981.33 4621.34 2955.72 4577.57C2926.95 4528.41 2831.23 4501.57 2831.23 4501.57C2768.32 4557.37 2681.19 4654.42 2585.92 4791.16Z" fill="#4766C0"/>
<path d="M6127.67 4961.07C6074.63 4955.97 6081.5 5035.37 6079.19 5088.61C6076.86 5142.33 6063.42 5220.96 6117.19 5220.96C6162.62 5220.96 6161.36 5143.24 6162.62 5088.61C6163.8 5036.98 6179.08 4966.01 6127.67 4961.07Z" fill="#4766C0"/>
<path d="M3622.25 6388.92C3753.11 6427.11 3901.97 6472.64 3976.98 6501.93C3980.13 6503.16 3983.49 6503.58 3986.85 6503.17C4000.37 6501.55 4015.51 6500.07 4031.96 6498.82C4031.96 6498.82 4037.64 6442.31 4031.96 6406.84C4021.18 6339.42 4009.63 6289.73 3953.78 6250.47C3886.09 6202.89 3815.98 6213.56 3741.93 6250.47C3677.97 6282.35 3622.25 6388.92 3622.25 6388.92Z" fill="#4766C0"/>
<path d="M7884 2418.08C7817.26 2397.12 7255.17 2164.89 6988.15 2050.31C6926.07 2226.41 6856.63 2408.88 6791.71 2573.58C6824.87 2594.84 6920.01 2591.49 6982.47 2455.65L7056.27 2309.24C7056.83 2308.12 7058.74 2308.9 7058.34 2310.09C7035.26 2379.21 6950.19 2655.73 7053.67 2691.08C7131.99 2717.83 7192.71 2556.68 7219.16 2470.38C7221.94 2458.88 7224.66 2448.74 7226.98 2440.54C7227.33 2439.31 7228.13 2439.54 7227.79 2440.77C7225.53 2448.94 7222.64 2459.01 7219.16 2470.38C7200.75 2546.52 7179.8 2681.96 7256.33 2704.18C7339.75 2728.4 7397.3 2635.9 7426.04 2572.71C7395.83 2647.11 7356.45 2804.9 7440.66 2840.9C7515.35 2864.92 7554.22 2774.94 7554.22 2774.94L7604.63 2641.36C7605.05 2640.24 7606.73 2640.67 7606.55 2641.86L7586.55 2774.94C7586.55 2774.94 7578.69 2836.09 7622.36 2854C7682.39 2878.61 7717.32 2827.79 7717.32 2827.79C7780.44 2678.67 7840.54 2534.67 7884 2418.08Z" fill="#4766C0"/>
<path d="M5641.53 8295.07C5585.42 8253.84 5518.75 8320.32 5485.59 8381.56C5451.16 8445.16 5435.78 8540.5 5503.5 8565.88C5568.66 8590.31 5613.49 8516.88 5641.53 8453.19C5666.41 8396.68 5691.28 8331.64 5641.53 8295.07Z" fill="#4766C0"/>
<path d="M6701.18 2799.41L7572.39 3171.11C7617.25 3063.06 7666.31 2948.25 7713.81 2836.09L7717.32 2827.79C7717.32 2827.79 7682.39 2878.61 7622.36 2854C7578.69 2836.09 7586.55 2774.94 7586.55 2774.94L7606.55 2641.86C7606.73 2640.67 7605.05 2640.24 7604.63 2641.36L7554.22 2774.94C7554.22 2774.94 7515.35 2864.92 7440.66 2840.9C7356.45 2804.9 7395.83 2647.11 7426.04 2572.71C7397.3 2635.9 7339.75 2728.4 7256.33 2704.18C7179.8 2681.96 7200.75 2546.52 7219.16 2470.38C7192.71 2556.68 7131.99 2717.83 7053.67 2691.08C6950.19 2655.73 7035.26 2379.21 7058.34 2310.09C7058.74 2308.9 7056.83 2308.12 7056.27 2309.24L6982.47 2455.65C6920.01 2591.49 6824.87 2594.84 6791.71 2573.58C6760 2654.03 6729.36 2730.24 6701.18 2799.41Z" fill="black"/>
<path d="M6642.92 2940.92C6611.5 3016.44 6586.18 3075.97 6570.14 3113.01L7445.71 3488.34C7447.58 3485.54 7449.39 3482.59 7451.14 3479.48C7468.73 3429.99 7489.95 3374.59 7513.6 3315.25L6642.92 2940.92Z" fill="black"/>
<path d="M7572.39 3171.11L6701.18 2799.41C6685.58 2837.69 6670.73 2873.8 6656.88 2907.29L7525.68 3285.11C7540.52 3248.29 7556.18 3210.14 7572.39 3171.11Z" fill="#FEBC23"/>
<path d="M7525.68 3285.11L6656.88 2907.29C6652.1 2918.82 6647.45 2930.03 6642.92 2940.92L7513.6 3315.25C7517.56 3305.31 7521.59 3295.26 7525.68 3285.11Z" fill="#EFA800"/>
<path d="M3880.4 3025.65C3893.79 3080.25 3935.56 3167.59 4017.24 3202.09M3880.4 3025.65C3788.67 2854.43 3756.18 2499.24 3940.68 2242.06C4040.84 2091.51 4344.79 1803.61 4759.22 1856.37C4862.88 1872.82 5097.81 1953.95 5208.23 2146.84C5394.74 2114.08 5738.67 2053.89 5812.75 2129.37C5822.8 2139.6 5828.47 2171.91 5779.55 2207.55C5725.83 2243.7 5628.97 2284.12 5537.57 2317.56C5535.53 2318.31 5533.49 2319.05 5531.46 2319.79M3880.4 3025.65C3962.33 2940.58 4086.53 2812.69 4212.08 2695.35M4017.24 3202.09C4017.36 3201.52 4017.49 3200.95 4017.61 3200.39M4017.24 3202.09C4011.04 3230.43 4008.32 3263.97 4011.43 3303.45M4011.43 3303.45C4021.04 3425.32 4123.69 3503.94 4123.69 3503.94C4142.44 3519.05 4179.21 3537.25 4228.08 3542.07M4011.43 3303.45C4008.26 3263.18 4011.15 3229.08 4017.61 3200.39M4512.1 2659.74C4512.14 2659.82 4512.18 2659.9 4512.21 2659.99M4211.8 2695.62C4212 2695.62 4211.88 2695.35 4212.08 2695.35M5197.71 2129.37C5000.32 2154.26 4668.95 2340.48 4511.56 2450.84C4427.8 2502.39 4319.45 2595.01 4212.08 2695.35M5286.42 2398.02C5314.16 2389.18 5340.77 2381.37 5365.04 2375.28C5405.73 2363.07 5466.95 2343.24 5531.46 2319.79M5286.42 2398.02C5330.76 2430.07 5407.56 2507.32 5457.07 2616.39M5286.42 2398.02C5215.01 2420.79 5136.13 2450.39 5070.5 2475.02C5044.62 2484.73 5020.8 2493.67 5000.32 2501.11C4864.37 2566.53 4684.28 2624.86 4512.21 2659.99M5457.07 2616.39C5479.75 2666.34 5496.7 2722.97 5502.19 2784.99C5574.41 2913.26 5699.62 3189.45 5664.24 3446.28C5577.09 3837.82 5278.11 3907.67 5115.69 3908.84M5457.07 2616.39C5494.83 2591.2 5572.87 2511.56 5593.48 2424.2C5614.1 2336.84 5561.6 2320.67 5531.46 2319.79M4228.08 3542.07C4275.23 3546.73 4333.65 3538.94 4397.99 3503.94C4415.03 3494.67 4440.8 3500.45 4420.27 3527.09M4228.08 3542.07V3568.72C4228.08 3579.24 4237.03 3587.52 4247.47 3586.28C4302.27 3579.77 4390.88 3561.74 4420.27 3527.09M4420.27 3527.09C4391.33 3561.21 4304.95 3579.22 4250 3585.97L4177.14 3875.65L4174.36 3886.13M4174.36 3886.13C4174.36 3886.13 4174.36 4043.37 4308.45 4183.53C4404.7 4284.14 4485.1 4326.62 4621.63 4353.93C4866.67 4402.96 4950.97 4327.29 4950.97 4327.29C4979.1 4306.15 5044.53 4259.5 5089.43 4117.19C5102.8 4074.82 5103.94 4070.36 5107.34 4048.18M4174.36 3886.13C4095.46 3919.31 4010.21 3944.39 3927.57 3965.16M3575.08 4051.67C3354.94 4129.42 2999.39 4318.11 2838.22 4495.45C2835.92 4497.43 2833.59 4499.47 2831.23 4501.57M3575.08 4051.67C3575.08 4051.67 3794.49 4389.35 3826.21 4939.7C3840.23 5183.08 3839.61 5327.09 3773.36 5561.69C3680.84 5889.28 3490.82 6102.4 3490.82 6102.4L3442.73 6337.82M3575.08 4051.67C3656.5 4022.92 3788.31 4000.15 3927.57 3965.16M2133.68 6095.41C2050.69 6083.58 2060.51 6058.72 2064.67 6033.38C2083.01 5921.56 2185.57 5570.82 2257.73 5397.86C2362.26 5147.29 2479.19 4944.33 2585.92 4791.16M2133.68 6095.41C2485 6145.49 3268.46 6273.62 3442.73 6337.82M2133.68 6095.41C2133.68 6095.41 2076.24 6544.29 2202.69 6779.85C2400.12 7147.63 2874.04 7145.45 2874.04 7145.45C2891.24 7146.73 2908.42 7147.96 2925.58 7149.14M3442.73 6337.82L3639.73 5373.4M3442.73 6337.82C3488.31 6350.43 3552.74 6368.64 3622.25 6388.92M3699.5 7124.36C3699.38 7124.24 3699.26 7124.12 3699.14 7124M3699.5 7124.36C3715.9 7140.44 3736.27 7157.9 3760.28 7174.73M3699.5 7124.36C3699.38 7124.38 3699.26 7124.19 3699.14 7124M3668.99 7090.85C3676.6 7100.42 3686.58 7111.63 3698.78 7123.65M3993.96 7256.83C3897.77 7252.38 3818.36 7215.43 3760.28 7174.73M3993.96 7256.83C4006.63 7315.36 4004.01 7403.06 4129.8 7414.42C4158.3 7414.42 4191.32 7404.1 4210.58 7384.57M3993.96 7256.83C3868.52 7264.86 3735.87 7598.83 3697.82 7819.85C3670.56 7978.14 3706.99 7985.39 3786.05 7967.92M2925.58 7149.14C2916.82 7179.83 2907.13 7215.8 2896.87 7256.83M2925.58 7149.14C3194.46 7167.55 3459.58 7172.35 3698.78 7123.65M2896.87 7256.83C2846.73 7457.24 2782.97 7778.31 2747.8 8194.18C2714.32 8583.21 2649.26 9380.14 2656.95 9455.62H4579.7M2896.87 7256.83C3084.65 7276.35 3520.22 7287.26 3760.28 7174.73M3760.28 7174.73C3736.09 7157.78 3715.6 7140.18 3699.14 7124M3927.57 3965.16C3927.57 3965.16 4055.55 4183.53 4123.69 4520.35C4163.06 4714.96 4196.63 5023.53 4196.63 5023.53C4338.01 5051.34 4509.27 5076.14 4793.72 5079.86M5214.35 4061.24C5214.35 4061.26 5214.36 4061.29 5214.37 4061.31M5115.69 3908.84C5112.87 3908.86 5110.08 3908.86 5107.34 3908.84C4956.61 3907.75 4765.33 3843.45 4678.75 3775.49C4675.31 3772.79 4670.42 3776.49 4672.55 3780.31C4718.9 3863.72 4855.93 4010.49 5107.34 4048.18M5115.69 3908.84C5112.42 3956.66 5114.54 4001.04 5107.34 4048.18M5107.34 4048.18C5107.88 4044.6 5108.38 4041.04 5108.82 4037.5C5145.5 4048.18 5175.12 4047.76 5214.37 4061.31M5520.54 4191.31C5599.63 4231.48 5679.27 4277.76 5752.04 4329.47C5858.61 4405.91 6105.28 4622.91 6263.22 4823.48M5520.54 4191.31C5576.45 4353.93 5638.47 4698.56 5664.68 5060.22C5690.89 5421.88 5739.37 5558.16 5849.44 5825.91V6264.44M5520.54 4191.31C5410.83 4135.6 5302.17 4091.65 5214.37 4061.31M6263.22 4823.48C6265.01 4720.89 6266.14 4647.52 6266.14 4624.74M6263.22 4823.48C6262.9 4841.99 6262.55 4861.44 6262.19 4881.73M5849.44 4850.56V6264.44M5849.44 6264.44L6242.55 5897.1M5849.44 6264.44V6502.06M6242.55 5897.1C6242.55 6003.68 6218.53 6101.08 6197.56 6181.02M6242.55 5897.1C6247.75 5636.85 6256.95 5173.73 6262.19 4881.73M2585.92 4791.16C2585.92 4791.16 2592.36 4966.89 2672.68 4998.19C2737.09 5023.3 2813.11 5015.87 2838.22 4951.46C2858.48 4899.48 2821.18 4824.35 2897.19 4779.36C2897.19 4779.36 2946.54 4745.29 2967.95 4706.86C2992.62 4662.55 2981.33 4621.34 2955.72 4577.57C2926.95 4528.41 2831.23 4501.57 2831.23 4501.57M2585.92 4791.16C2681.19 4654.42 2768.32 4557.37 2831.23 4501.57M4093.55 6948.02C4147.57 7046.15 4253.59 7270.1 4224.59 7362C4221.9 7370.52 4217.01 7378.06 4210.58 7384.57M4344.27 6864.15C4389.98 6964.62 4472.59 7196.99 4437.3 7322.78C4433.42 7335.26 4427.45 7345.69 4419.89 7354.34M4575.33 6818.73C4615.95 6905.53 4692.39 7112.67 4673.17 7246.78C4670.75 7263.65 4665.1 7278.44 4657.01 7291.33M4657.01 7291.33C4609.9 7366.49 4473.98 7368.31 4421.04 7353C4420.66 7353.45 4420.28 7353.9 4419.89 7354.34M4657.01 7291.33C4707.26 7336.86 4899.32 7323.26 4888.36 7103.51M4767.08 6751.9C4801.35 6810.64 4870.36 6952.99 4885.65 7073.09M5849.44 6502.06C6009.74 6685.07 6283.61 6951.51 6604.21 6974.23C6693.75 6983.4 6909.09 6962.71 7052.79 6818.73C7278.61 6592.47 7261.68 6252.65 7232.75 5996.26C7201.3 5717.58 7060.51 5135.49 6990.33 4823.48C6990.33 4823.48 7173.09 4669.52 7192.13 4532.58C7201.25 4466.97 7171.76 4427.29 7159.8 4414.21M5849.44 6502.06C5849.44 6723.95 5849.44 7139.77 5895.3 7463.87C5921.95 7691.72 5983.36 8194.26 6015.86 8381.56C6062.77 8651.93 6131.17 9384.86 6134.23 9455.62H4579.7M4604.16 9067.45C4602.26 9159.17 4591.93 9386.43 4579.7 9455.62M3786.05 7967.92V7805.87C3786.05 7795.97 3786.67 7789.68 3786.05 7781.73M3786.05 7967.92C3789.25 8201.16 3807.02 8582.92 3821.43 8777.29C3824.44 8817.91 3820.29 8896.71 3883.89 8932.35C4003.57 9006.6 4276.56 9068.63 4542.13 9068.63C4674.62 9068.48 4965.12 9049.84 5067.15 8976.46C5113.45 8943.17 5148.77 8927.11 5166.3 8840.19C5198.8 8679.1 5227.31 8203.06 5244.05 7980.59M5244.05 7980.59C5296.03 8002.86 5371.16 8000.24 5351.94 7860.03C5334.87 7735.55 5287.55 7470.59 5166.3 7322.78C5045.05 7174.97 4930.49 7115.02 4888.36 7103.51M5244.05 7980.59L5258.03 7809.03M5258.03 7809.03C5262.53 7753.82 5245.97 7729.33 5224.31 7708.89C5213.72 7698.9 5201.19 7691.37 5187.64 7686.03C5113.71 7656.89 4844.67 7561.71 4507.19 7571.34C4023.86 7585.13 3845.02 7695.8 3845.02 7695.8C3792.6 7726.81 3789.17 7729.31 3786.05 7781.73M5258.03 7809.03C5258.03 7809.03 5244.38 7818.29 5214.51 7831.98M5258.03 7809.03C5258.03 7809.03 5229.71 7828.24 5165.34 7852.26M4888.36 7103.51C4888.18 7099.79 4887.94 7096 4887.63 7092.16C4887.13 7085.88 4886.47 7079.51 4885.65 7073.09M3786.05 7781.73C3786.05 7781.73 3813.3 7804.03 3874.72 7830.81M6266.14 4624.74C6251.28 4423.82 6235.56 4113.7 6294.09 4009.74C6362.67 3865.16 6561.4 3612.46 6701.18 3586.69C6707.25 3585.57 6712.86 3586.14 6717.77 3588.48M6266.14 4624.74C6266.14 4651.63 6264.57 4749 6262.19 4881.73M7147.57 3788.29C7163.97 3819.3 7166.79 3910.59 7132.72 3960.82M7147.57 3788.29C7112.15 3721.28 7020.99 3727.62 6932.67 3753.17M7147.57 3788.29C7111.32 3719.71 7016.7 3727.96 6926.49 3755M7132.72 3960.82L6698.12 4018.91C6698.12 4018.91 6622.98 4029.88 6629.54 4106.27C6635.66 4177.47 6705.11 4168.3 6705.11 4168.3C6847.5 4155.19 7135.43 4111.16 7165.48 4142.96M7132.72 3960.82C7160.24 3981.5 7205.32 4046.87 7165.48 4142.96M7132.72 3960.82C7137.62 3951.74 7134.76 3943.06 7132.72 3939.86C7106.52 3919.94 7005.62 3925.15 6958.45 3930.25C6880.26 3935.05 6826.53 3945.2 6806.01 3939.86C6705.37 3913.65 6741.36 3830.35 6782.42 3811.44C6819.82 3794.21 6872.36 3771.22 6926.49 3755M6932.67 3753.17C6954.22 3686.49 7005.18 3558.54 7127.48 3534.52C7170.29 3528.4 7281.67 3528.4 7348.93 3528.4C7402.78 3528.4 7427.56 3515.48 7445.71 3488.34M6932.67 3753.17C6930.61 3753.77 6928.55 3754.38 6926.49 3755M6717.77 3588.48C6741.83 3599.92 6748.94 3653.57 6709.48 3756.6C6693.17 3797.01 6641.07 3885.08 6584.12 3924.57C6568.98 4024.3 6530.39 4224.64 6513.79 4289.72C6491.4 4377.52 6453.52 4456.4 6542.62 4474.92C6575.24 4481.62 6644.74 4477.89 6661.87 4409.4C6674.97 4413.77 6718.04 4422.31 6748.79 4420.22C6706.85 4524.35 6783.29 4589.36 6843.57 4589.36H6990.33C6990.33 4589.36 7021.1 4586.74 7019.16 4566.21C7017.55 4549.18 6994.7 4551.36 6994.7 4551.36C6939.66 4548.3 6880.7 4557.91 6811.25 4532.58C6811.25 4532.58 6768.01 4515.98 6768.01 4465.75C6768.01 4395.12 6855.8 4395.43 6855.8 4395.43C6947.06 4388 7106.95 4384.51 7155 4409.4C7155 4409.4 7156.88 4411.01 7159.8 4414.21M6717.77 3588.48C6747.48 3554.61 6796.83 3493.02 6746.6 3387.32C6731.62 3342.59 6643.39 3239.39 6601.15 3193.38C6570.14 3161.5 6559.74 3137.04 6570.14 3113.01M7165.48 4142.96C7171.89 4147.04 7182.78 4163.49 7175.09 4196.69M7175.09 4196.69C7110.01 4156.94 6888.56 4190.57 6757.96 4203.24C6757.96 4203.24 6636.1 4203.24 6636.1 4289.72C6636.1 4377.52 6748.79 4377.52 6748.79 4377.52C6779.8 4377.52 6846.98 4370.09 6886.81 4363.1C6955.39 4350.87 7105.99 4333.75 7159.8 4363.1M7175.09 4196.69C7211.78 4222.46 7253.8 4290.07 7159.8 4363.1M7159.8 4363.1C7164.17 4369.66 7170.29 4389.05 7159.8 4414.21M6570.14 3113.01C6586.18 3075.97 6611.5 3016.44 6642.92 2940.92M6570.14 3113.01L7445.71 3488.34M6701.18 2799.41L7572.39 3171.11M6701.18 2799.41C6685.58 2837.69 6670.73 2873.8 6656.88 2907.29M6701.18 2799.41C6729.36 2730.24 6760 2654.03 6791.71 2573.58M7572.39 3171.11C7556.18 3210.14 7540.52 3248.29 7525.68 3285.11M7572.39 3171.11C7617.25 3063.06 7666.31 2948.25 7713.81 2836.09M6656.88 2907.29L7525.68 3285.11M6656.88 2907.29C6652.1 2918.82 6647.45 2930.03 6642.92 2940.92M7525.68 3285.11C7521.59 3295.26 7517.56 3305.31 7513.6 3315.25M6642.92 2940.92L7513.6 3315.25M7513.6 3315.25C7489.95 3374.59 7468.73 3429.99 7451.14 3479.48C7449.39 3482.59 7447.58 3485.54 7445.71 3488.34M6791.71 2573.58C6856.63 2408.88 6926.07 2226.41 6988.15 2050.31C7255.17 2164.89 7817.26 2397.12 7884 2418.08C7840.54 2534.67 7780.44 2678.67 7717.32 2827.79M6791.71 2573.58C6824.87 2594.84 6920.01 2591.49 6982.47 2455.65L7056.27 2309.24C7056.83 2308.12 7058.74 2308.9 7058.34 2310.09C7035.26 2379.21 6950.19 2655.73 7053.67 2691.08C7131.99 2717.83 7192.71 2556.68 7219.16 2470.38M7713.81 2836.09C7714.98 2833.32 7716.15 2830.56 7717.32 2827.79M7713.81 2836.09L7717.32 2827.79M3874.72 7830.81C3984.67 7878.76 4194.16 7945.64 4507.19 7945.64C4850.61 7945.64 5058.05 7892.28 5165.34 7852.26M3874.72 7830.81C3874.72 7830.81 4098.79 7720.7 4507.19 7720.7C5024.78 7720.7 5214.51 7831.98 5214.51 7831.98M5214.51 7831.98C5201.34 7838.02 5185.03 7844.91 5165.34 7852.26M7717.32 2827.79C7717.32 2827.79 7682.39 2878.61 7622.36 2854C7578.68 2836.09 7586.55 2774.94 7586.55 2774.94L7606.55 2641.86C7606.73 2640.67 7605.05 2640.24 7604.63 2641.36L7554.22 2774.94C7554.22 2774.94 7515.35 2864.92 7440.66 2840.9C7356.45 2804.9 7395.83 2647.11 7426.04 2572.71M7447.21 2518.11C7447.21 2518.11 7440.04 2541.93 7426.04 2572.71M7426.04 2572.71C7397.3 2635.9 7339.75 2728.4 7256.33 2704.18C7179.8 2681.96 7200.75 2546.52 7219.16 2470.38M3668.12 5032.26C3668.12 5032.26 3668.34 5035.3 3668.39 5040.56M3668.39 5040.56C3668.7 5071.61 3663.14 5180.27 3572.02 5203.05C3517.76 5216.61 3475.29 5187.5 3442.3 5142.33C3413.47 5102.87 3417.84 5019.6 3417.84 5019.6C3421.68 4940.97 3366.3 4870.42 3331.79 4844.88C3261.9 4793.17 3230.89 4740.93 3223.9 4706.86C3223.9 4706.86 3191.58 4586.74 3250.11 4547.87C3332.89 4492.89 3398.18 4563.59 3398.18 4563.59C3422.64 4588.05 3453.65 4630.85 3499.95 4756.21C3572.02 4816.93 3678.6 4913.02 3668.39 5040.56ZM4793.72 5079.86C4884.51 5081.04 4986.84 5080.08 5103.4 5076.38L5333.16 5060.22C5330.56 4915.08 5322.45 4782.65 5311.56 4664.92M4793.72 5079.86C4793.72 5079.86 4749.08 4962 4785.86 4903.85C4808.58 4867.92 4830.92 4845.75 4872.78 4838.33C4950.97 4824.47 5010.37 4903.85 5010.37 4903.85C5010.37 4903.85 5053.85 4944.21 5084.62 4936.61C5117.25 4928.54 5130.92 4866.72 5130.92 4866.72C5130.92 4866.72 5137.61 4780.67 5169.8 4736.56C5197.3 4698.85 5219.5 4673.05 5265.45 4664.92C5283.18 4661.79 5311.56 4664.92 5311.56 4664.92M5311.56 4664.92C5280.27 4326.5 5226.07 4109.55 5214.37 4061.31M6568.83 5292.15C6507.68 5224.45 6503.75 5171.16 6510.3 5116.56C6510.3 5116.56 6521.66 4989.98 6624.3 4965.87C6681.96 4952.33 6732.63 5015.67 6732.63 5015.67C6761.02 5048.86 6758.83 5108.7 6732.63 5159.37C6732.63 5159.37 6835.65 5267.41 6858.86 5355.49C6884.16 5451.51 6876.83 5517.85 6837.02 5608.82C6800.08 5693.24 6682.83 5796.21 6682.83 5796.21C6645.7 5834.64 6636.53 5885.14 6636.53 5914.14C6636.53 5914.14 6625.17 6011.28 6578.44 6022.9C6528.9 6035.21 6489.08 6005.88 6462.69 5962.19C6423.38 5897.1 6421.95 5818.51 6451.33 5744.23C6490.21 5645.95 6555.73 5541.56 6555.73 5541.56C6631.14 5398.58 6618.24 5376.54 6569.12 5292.65M6568.83 5292.15L6569.12 5292.65M6568.83 5292.15C6568.93 5292.32 6569.03 5292.49 6569.12 5292.65M3622.25 6388.92C3753.11 6427.11 3901.97 6472.64 3976.98 6501.93C3980.13 6503.16 3983.49 6503.58 3986.85 6503.17C4000.37 6501.55 4015.51 6500.07 4031.96 6498.82M3622.25 6388.92C3622.25 6388.92 3677.97 6282.35 3741.93 6250.47C3815.98 6213.56 3886.09 6202.89 3953.78 6250.47C4009.63 6289.73 4021.18 6339.42 4031.96 6406.84C4037.64 6442.31 4031.96 6498.82 4031.96 6498.82M4031.96 6498.82C4162.41 6488.9 4375.92 6493.24 4527.72 6554.03C4646.09 6601.44 4743.05 6654.5 4878.9 6780.29C4920.4 6818.73 4988.44 6915.7 5024.78 6982.09C5036.87 7000.72 5049.24 7044.98 5002.07 7072.94C4964.51 7097.4 4916.21 7090.56 4885.63 7072.94C4885.64 7072.99 4885.65 7073.04 4885.65 7073.09M5849.17 7807.18C5849.17 7807.18 5849.39 7810.21 5849.44 7815.48M5849.44 7815.48C5849.75 7846.52 5844.19 7955.19 5753.07 7977.96C5698.81 7991.53 5656.34 7962.42 5623.35 7917.25C5594.52 7877.78 5598.89 7794.51 5598.89 7794.51C5602.73 7715.89 5547.35 7645.33 5512.84 7619.8C5442.95 7568.08 5411.94 7515.84 5404.95 7481.77C5404.95 7481.77 5372.63 7361.66 5431.16 7322.78C5513.94 7267.8 5579.23 7338.51 5579.23 7338.51C5603.69 7362.97 5634.7 7405.77 5681 7531.13C5753.07 7591.84 5859.65 7687.94 5849.44 7815.48ZM7219.16 2470.38C7221.94 2458.88 7224.66 2448.74 7226.98 2440.54C7227.33 2439.31 7228.13 2439.54 7227.79 2440.77C7225.53 2448.94 7222.64 2459.01 7219.16 2470.38ZM4512.21 2659.99C4564.46 2778.39 4521.44 2914.45 4493.65 2963.19C4474.47 2996.83 4450.41 3083.02 4446.04 3130.05C4441.01 3184.21 4410.34 3160.19 4382.27 3130.05C4268.35 3007.75 4160.82 3033.52 4109.71 3064.09C4109.71 3064.09 4040.85 3097.57 4017.66 3200.2M4512.21 2659.99C4405.35 2681.8 4300.27 2695.29 4212.08 2695.35M4017.66 3200.2C4017.64 3200.26 4017.63 3200.32 4017.61 3200.39M4017.66 3200.2L4017.61 3200.39M3698.78 7123.65C3698.9 7123.62 3699.02 7123.81 3699.14 7124M3698.78 7123.65C3698.9 7123.77 3699.02 7123.88 3699.14 7124M4419.89 7354.34C4373.69 7407.21 4267.91 7394.01 4213.86 7381C4212.82 7382.22 4211.73 7383.41 4210.58 7384.57M4227.21 5385.63C4440.8 5416.2 4868.85 5461.63 5417.89 5434.11L5406.54 6082.3C5406.54 6180.58 5353.16 6374.17 5157.13 6397.23C4994.64 6423.87 4626.61 6447.2 4421.14 6353.55C4249.22 6293.1 4213.67 6098.03 4213.67 5992.32L4227.21 5385.63ZM7019.6 5644.2C6965.26 5610.84 6920.92 5702.38 6909.96 5765.19C6899.2 5826.88 6906.92 5909.39 6969.36 5914.14C7033.95 5919.05 7036.75 5829.72 7042.31 5765.19C7046.43 5717.3 7060.57 5669.36 7019.6 5644.2ZM6925.69 6373.2C6871.09 6364.47 6859.56 6464.85 6858.86 6532.2C6858.23 6592.72 6850.35 6668 6909.96 6678.52C6977.28 6690.4 6969.8 6582.21 6969.36 6513.85C6969 6456.34 6972.14 6380.64 6925.69 6373.2ZM6127.67 4961.07C6074.63 4955.97 6081.5 5035.37 6079.19 5088.61C6076.86 5142.33 6063.42 5220.96 6117.19 5220.96C6162.62 5220.96 6161.36 5143.24 6162.62 5088.61C6163.8 5036.98 6179.08 4966.01 6127.67 4961.07ZM4905.1 5673.91C4869.72 5688.91 4850.94 5790.89 4884.14 5852.99C4914.73 5910.22 4970.72 5967.21 5027.84 5936.42C5082.07 5907.17 5070.74 5837.62 5048.81 5780.05C5023.97 5714.85 4969.33 5646.67 4905.1 5673.91ZM5641.53 8295.07C5585.42 8253.84 5518.75 8320.32 5485.59 8381.56C5451.16 8445.16 5435.78 8540.5 5503.5 8565.88C5568.66 8590.31 5613.49 8516.88 5641.53 8453.19C5666.41 8396.68 5691.28 8331.64 5641.53 8295.07Z" stroke="black" stroke-width="10" stroke-linecap="round"/>
<path d="M4110.15 3235.76C4168.24 3234.88 4292.9 3248.95 4351.25 3299.96" stroke="black" stroke-width="15" stroke-linecap="round"/>
<path d="M5160.62 2889.82C5254.97 2964.51 5393.87 3052.74 5412.65 3149.71C5426.27 3220.03 5278.27 3266.47 5228.76 3262.83M5001.63 3376.4C5001.63 3376.4 5090.91 3451.6 5160.62 3461.14C5288.6 3478.63 5330.1 3426.19 5330.1 3426.19" stroke="black" stroke-width="15" stroke-linecap="round"/>
<path d="M4742.5 2844C4742.5 2844 4786.74 2751.35 4840 2721C4895.85 2689.17 5003.5 2702 5003.5 2702M5254.5 2654.5C5254.5 2654.5 5303.99 2590.55 5350 2582.5C5389.94 2575.52 5432 2613.5 5432 2613.5" stroke="black" stroke-width="55" stroke-linecap="round"/>
<path d="M5379.46 2801.59C5341.16 2808.87 5319.5 2854.7 5334.47 2890.69C5349.42 2926.65 5397.1 2943.68 5429.25 2921.7C5455.29 2903.91 5462.49 2873.36 5451.09 2843.95C5439.34 2813.65 5411.38 2795.51 5379.46 2801.59Z" fill="black"/>
<path d="M4952.71 2890.69C4915.24 2906.65 4901.21 2955.07 4921.7 2990.28C4941.53 3024.36 4986.57 3036.79 5019.54 3015.18C5050.8 2994.68 5058.67 2954.12 5040.07 2921.7C5022.06 2890.3 4986.02 2876.5 4952.71 2890.69Z" fill="black"/>
<path d="M5379.46 2801.59C5341.16 2808.87 5319.5 2854.7 5334.47 2890.69C5349.42 2926.65 5397.1 2943.68 5429.25 2921.7C5455.29 2903.91 5462.49 2873.36 5451.09 2843.95C5439.34 2813.65 5411.38 2795.51 5379.46 2801.59Z" stroke="black"/>
<path d="M4952.71 2890.69C4915.24 2906.65 4901.21 2955.07 4921.7 2990.28C4941.53 3024.36 4986.57 3036.79 5019.54 3015.18C5050.8 2994.68 5058.67 2954.12 5040.07 2921.7C5022.06 2890.3 4986.02 2876.5 4952.71 2890.69Z" stroke="black"/>
<path d="M5475.55 5052.36C5417.82 5057.61 5376.53 5107.59 5379.46 5165.48C5382.22 5220.2 5420.99 5262.71 5475.55 5267.69C5535.48 5273.16 5587.82 5225.58 5590.86 5165.48C5594.05 5102.48 5538.37 5046.64 5475.55 5052.36Z" fill="#B5B5B5"/>
<path d="M4044.63 5007.8C3979.82 5004.92 3929.48 5067.14 3934.12 5131.85C3938.43 5191.89 3984.47 5241.43 4044.63 5239.3C4105.92 5237.13 4148.68 5181.36 4146.84 5120.06C4145.06 5060.8 4103.86 5010.44 4044.63 5007.8Z" fill="#B5B5B5"/>
<path d="M5475.55 5052.36C5417.82 5057.61 5376.53 5107.59 5379.46 5165.48C5382.22 5220.2 5420.99 5262.71 5475.55 5267.69C5535.48 5273.16 5587.82 5225.58 5590.86 5165.48C5594.05 5102.48 5538.37 5046.64 5475.55 5052.36Z" stroke="black" stroke-width="15" stroke-linecap="round"/>
<path d="M4044.63 5007.8C3979.82 5004.92 3929.48 5067.14 3934.12 5131.85C3938.43 5191.89 3984.47 5241.43 4044.63 5239.3C4105.92 5237.13 4148.68 5181.36 4146.84 5120.06C4145.06 5060.8 4103.86 5010.44 4044.63 5007.8Z" stroke="black" stroke-width="15" stroke-linecap="round"/>
</g>
<defs>
<clipPath id="clip0_61_5">
<rect width="10327" height="9456" fill="white"/>
</clipPath>
</defs>
</svg>
