<svg width="400" height="297" viewBox="0 0 400 297" fill="none" xmlns="http://www.w3.org/2000/svg">
<g clip-path="url(#clip0_827_1087)">
<rect width="400" height="297" fill="#CAC8FF"/>
<path d="M185.953 186.868C191.151 186.364 196.231 184.299 198.758 179.586C199.974 177.319 201.495 173.786 200.984 169.253C197.134 170.048 192.78 169.815 188.363 168.169C177.835 164.247 172.073 157.317 168.99 153.61C168.59 153.128 168.235 152.701 167.92 152.342C162.284 153.976 180.317 180.3 199.412 171.764C199.861 176.502 194.825 185.479 185.953 186.868Z" fill="black"/>
<path d="M62.9164 213.201C61.7708 215.009 61.1718 217.224 64.3577 221.069L69.7288 213.686C67.1495 213.366 64.8278 213.219 62.9164 213.201Z" fill="black"/>
<path d="M272.34 228.314C269.655 228.637 266.995 229.188 264.396 229.907L266.956 236.063C266.959 236.061 266.963 236.059 266.966 236.057C268.111 235.371 271.054 233.591 272.34 232.337V228.314Z" fill="black"/>
<path d="M232.782 249.737C232.782 249.737 233.548 250.254 234.395 250.961C234.415 250.978 234.435 250.995 234.456 251.012C236.988 243.952 255.295 234.25 264.396 229.907C250.098 233.864 237.638 242.927 232.782 247.409V249.737Z" fill="black"/>
<path d="M203.843 255.149C203.843 253.168 200.147 253.393 200.147 253.393L192.713 253.565L186.903 253.699C187.419 255.552 187.377 257.089 187.006 258.355C188.683 258.521 190.957 258.609 193.29 258.546C193.356 258.544 193.423 258.542 193.489 258.54C198.562 258.384 203.843 257.505 203.843 255.149Z" fill="#B1ADAD"/>
<path d="M143.066 113.294C143.066 113.294 141.945 116.51 142.515 118.504C143.084 120.499 145.434 122.811 145.434 122.811C146.121 120.769 147.266 118.914 149.009 117.746C152.195 115.561 157.423 114.781 161.181 120.81C161.424 121.201 161.661 121.628 161.895 122.051C162.859 123.796 163.784 125.469 165.02 124.22C168.737 121.239 170.657 116.133 170.146 113.805C174.762 112.661 175.449 109.785 176.028 106.887C163.18 108.538 150.884 111.118 143.066 113.294Z" fill="black"/>
<path d="M116.66 163.595C112.913 165.06 106.786 167.817 99.6682 173.049C90.7844 179.578 74.7772 199.159 69.7288 205.563L64.3577 211.506C63.7974 212.046 63.2971 212.6 62.9164 213.201C64.8278 213.219 67.1495 213.366 69.7288 213.686C81.7616 215.176 98.8513 219.471 107.367 234.754C108.708 235.102 111.246 235.563 115.169 235.983C119.612 236.459 125.831 236.883 134.101 237.034C136.633 229.825 139.676 216.87 140.901 209.586C141.571 206.776 142.739 206.36 145.66 206.36C145.66 206.36 145.952 190.013 142.964 180.668C140.131 171.809 131.527 159.777 131.527 159.777C125.376 160.949 119.86 162.343 116.66 163.595Z" fill="#AFD1FA"/>
<path d="M234.681 170.538C229.331 166.566 224.996 164.603 221.366 163.444C221.366 163.444 226.385 174.726 227.983 182.404C229.834 191.303 229.229 206.36 229.229 206.36C232.231 206.36 232.896 207.323 232.782 211.833V235.829V247.409C237.638 242.927 250.098 233.864 264.396 229.907C266.995 229.188 269.655 228.637 272.34 228.314V224.229L256.554 195.576C249.386 182.404 241.421 175.542 234.681 170.538Z" fill="#AFD1FA"/>
<path d="M154.809 159.081C154.765 158.559 154.768 157.896 154.809 157.132C152.114 157.132 148.977 157.332 145.66 157.675C145.66 157.675 153.214 168.667 155.993 176.624C159.755 187.394 159.322 206.36 159.322 206.36H216.056C216.056 206.36 216.448 192.662 215.178 184.344C214.028 176.811 209.623 165.637 209.623 165.637C207.562 167.083 204.515 168.525 200.984 169.253C201.495 173.786 199.974 177.319 198.758 179.586C196.231 184.299 191.151 186.364 185.953 186.868C185.915 186.872 185.877 186.875 185.838 186.879C180.601 187.363 175.262 186.27 172.311 184.712C159.257 177.817 154.809 165.045 154.809 159.081Z" fill="#AFD1FA"/>
<path d="M99.3413 269.242C98.8577 270.572 98.3011 272.193 97.695 274.06C97.695 274.06 104.457 274.435 108.511 273.202C112.821 271.892 118.492 267.419 118.492 267.419C116.093 267.581 106.764 268.398 99.3413 269.242Z" fill="#AFD1FA"/>
<path d="M134.101 237.034C143.722 236.903 149.446 236.737 161.324 235.983C161.609 235.965 161.902 235.958 162.202 235.964C162.449 235.968 162.701 235.981 162.958 236.002L163.216 230.724C163.259 229.63 163.291 228.316 163.386 226.619C163.616 222.514 164.591 222.718 165.817 222.514H170.228L212.727 222.738C214.912 222.84 215.75 222.105 215.75 226.557V239.166C216.062 239.343 216.375 239.522 216.689 239.702C223.519 243.619 230.439 248.105 232.782 249.737V247.409V235.829V211.833C232.896 207.323 232.231 206.36 229.229 206.36H216.056H159.322H145.66C142.739 206.36 141.571 206.776 140.901 209.586C139.676 216.87 136.633 229.825 134.101 237.034Z" fill="#1E3A8A"/>
<path d="M170.228 222.514H165.817C164.591 222.718 163.616 222.514 163.386 226.619C163.291 228.316 163.259 229.63 163.216 230.724L162.958 236.002C167.761 236.394 174.368 239.633 178.384 247.878C180.499 247.341 184.758 247.318 186.689 253.005C186.769 253.241 186.84 253.472 186.903 253.699L192.713 253.565L192.397 249.139L192.08 244.713C191.964 241.044 193.63 232.321 202.026 233.011C204.545 233.218 209.959 235.893 215.604 239.084C215.608 239.086 215.612 239.089 215.617 239.091C215.621 239.094 215.626 239.096 215.63 239.099C215.644 239.107 215.658 239.114 215.672 239.122C215.675 239.124 215.679 239.126 215.682 239.128C215.685 239.13 215.688 239.131 215.69 239.133C215.71 239.144 215.73 239.155 215.75 239.166V226.557C215.75 222.105 214.912 222.84 212.727 222.738L170.228 222.514Z" fill="#4766C0"/>
<path d="M187.006 258.355C186.14 261.313 183.481 262.797 181.943 263.4C181.929 264.151 181.868 264.944 181.74 265.769H195.183C194.214 262.986 193.647 260.201 193.489 258.54C193.423 258.542 193.356 258.544 193.29 258.546C190.957 258.609 188.683 258.521 187.006 258.355Z" fill="#4766C0"/>
<path d="M131.527 159.777C131.527 159.777 140.131 171.809 142.964 180.668C145.952 190.013 145.66 206.36 145.66 206.36H159.322C159.322 206.36 159.755 187.394 155.993 176.624C153.214 168.667 145.66 157.675 145.66 157.675C141.061 158.151 136.118 158.902 131.527 159.777Z" fill="#1E3A8A"/>
<path d="M209.623 165.637C209.623 165.637 214.028 176.811 215.178 184.344C216.448 192.662 216.056 206.36 216.056 206.36H229.229C229.229 206.36 229.834 191.303 227.983 182.404C226.385 174.726 221.366 163.444 221.366 163.444C216.982 162.043 213.959 162.043 213.959 162.043C212.661 163.435 211.217 164.661 209.623 165.637Z" fill="#1E3A8A"/>
<path d="M107.367 234.754C98.8513 219.471 81.7616 215.176 69.7288 213.686L64.3577 221.069L56.25 232.214C51.2056 238.811 44.7929 253.122 57.0464 263.502C60.5183 266.443 68.5648 272.018 88.7626 270.445C91.5362 270.121 95.4489 269.685 99.3413 269.242C106.764 268.398 116.093 267.581 118.492 267.419C118.615 267.411 118.719 267.404 118.804 267.399C118.793 267.373 118.782 267.347 118.772 267.321C118.636 266.985 118.551 266.66 118.492 266.361C117.643 262.031 121.786 259.009 124.849 259.009L135.979 258.723L139.921 265.993C140.656 267.484 141.62 269.628 139.921 269.853C138.929 269.995 137.29 270.208 135.407 270.413C135.407 270.413 135.489 276.429 142.739 276.429C144.907 276.429 146.501 275.232 147.541 274.06C147.541 274.06 151.978 276.865 154.972 275.878C157.282 275.116 158.611 273.376 159.362 271.834C159.362 271.834 161.958 273.57 163.693 273.202C168.512 272.181 169.697 267.566 169.697 267.566C169.697 267.566 172.808 272.58 175.865 272.406C180.051 272.168 181.358 267.566 181.358 267.566C181.525 266.954 181.65 266.354 181.74 265.769C181.868 264.944 181.929 264.151 181.943 263.4C181.992 260.89 181.529 258.857 181.358 257.763C180.755 253.87 179.711 250.601 178.384 247.878C174.368 239.633 167.761 236.394 162.958 236.002C162.701 235.981 162.449 235.968 162.202 235.964C161.902 235.958 161.609 235.965 161.324 235.983C149.446 236.737 143.722 236.903 134.101 237.034C125.831 236.883 119.612 236.459 115.169 235.983C111.246 235.563 108.708 235.102 107.367 234.754Z" fill="#B5602A"/>
<path d="M142.739 276.429C135.489 276.429 135.407 270.413 135.407 270.413C135.349 270.419 135.29 270.426 135.231 270.432C135.225 270.433 135.219 270.433 135.213 270.434C135.207 270.434 135.201 270.435 135.195 270.436C134.867 270.471 134.531 270.506 134.191 270.54C131.129 270.849 127.68 271.1 125.36 270.997C120.979 270.449 119.416 268.838 118.804 267.399C118.719 267.404 118.615 267.411 118.492 267.419C118.492 267.419 112.821 271.892 108.511 273.202C104.457 274.435 97.695 274.06 97.695 274.06C92.6789 289.511 84.3364 321.653 85.9034 344.538H162.202H219.078C221.038 336.746 221.917 323.616 223 316.498L212.727 317.461L210.297 317.689L207.969 317.907L184.483 307.41L184.81 281.555L214.973 279.35C216.322 276.178 222.127 275.553 225.593 276.164C226.838 272.682 228.06 268.855 228.91 265.952C229.706 263.236 230.267 260.99 230.474 259.621L210.297 274.04C207.887 275.837 201.589 275.808 198.534 272.181C197.127 270.512 196.009 268.141 195.183 265.769H181.74C181.65 266.354 181.525 266.954 181.358 267.566C181.358 267.566 180.051 272.168 175.865 272.406C172.808 272.58 169.697 267.566 169.697 267.566C169.697 267.566 168.512 272.181 163.693 273.202C161.958 273.57 159.362 271.834 159.362 271.834C158.611 273.376 157.282 275.116 154.972 275.878C151.978 276.865 147.541 274.06 147.541 274.06C146.501 275.232 144.907 276.429 142.739 276.429Z" fill="#1E3A8A"/>
<path d="M318.863 223.474L272.34 212.609V224.229V228.314V232.337V239.362L278.508 241.211L285.834 243.476C289.035 239.661 293.529 235.376 296.786 236.605C298.012 236.891 300.421 237.892 299.768 241.772C299.768 241.772 303.709 237.014 306.814 237.238C309.037 237.399 310.674 239.09 311.424 240.036C311.424 240.036 315.062 237.01 317.617 237.545C319.592 237.958 320.966 240.506 320.966 240.506C323.179 238.961 328.074 236.797 329.952 240.506C330.819 243.113 330.24 246.346 328.985 249.422L345.106 241.282L349.333 212.609L331.545 218.951L318.863 223.474Z" fill="#D33A18"/>
<path d="M263.518 285.762L207.969 289.826V317.907L210.297 317.689L212.727 317.461L223 316.498L263.518 312.7V285.762Z" fill="#D33A18"/>
<path d="M184.81 281.555L184.483 307.41L207.969 317.907V289.826L184.81 281.555Z" fill="#D33A18"/>
<path d="M223 285.313C220.208 285.313 214.688 285.227 214.688 280.8C214.688 280.266 214.789 279.784 214.973 279.35L184.81 281.555L207.969 289.826L263.518 285.762L253.081 282.455C252.984 282.488 252.889 282.524 252.796 282.562C250.461 283.529 248.446 284.904 244.137 283.761C242.166 283.238 238.085 282.644 236.07 282.862C232.639 283.467 227.554 285.313 223 285.313Z" fill="#D33A18"/>
<path d="M291.558 205.07L272.34 212.609L318.863 223.474L331.545 218.951C321.855 218 321.007 213.467 321.855 211.251L320.578 211.526C317.066 212.752 311.926 211.465 309.795 210.669C304.996 209.321 302.423 214.161 298.298 214.161C298.298 214.161 291.044 214.483 289.638 211.138C288.48 208.383 289.75 206.415 291.558 205.07Z" fill="#D33A18"/>
<path d="M263.518 285.762V312.7L321.436 308.166V281.392L263.518 285.762Z" fill="#DD4A17"/>
<path d="M269.611 281.353C269.524 281.376 269.443 281.419 269.368 281.471C264.859 284.588 261.055 284.243 259.556 283.291C257.83 282.195 255.069 281.773 253.081 282.455L263.518 285.762L321.436 281.392L292.886 273.79L285.374 274.244C285.446 274.5 285.521 274.757 285.615 275C286.6 277.532 285.991 282.544 278.753 281.923C276.009 281.579 271.193 280.939 269.611 281.353Z" fill="#DD4A17"/>
<path d="M214.688 280.8C214.688 285.227 220.208 285.313 223 285.313C227.554 285.313 232.639 283.467 236.07 282.862C238.085 282.644 242.166 283.238 244.137 283.761C248.446 284.904 250.461 283.529 252.796 282.562C252.889 282.524 252.984 282.488 253.081 282.455C255.069 281.773 257.83 282.195 259.556 283.291C261.055 284.243 264.859 284.588 269.368 281.471C269.443 281.419 269.524 281.376 269.611 281.353C271.193 280.939 276.009 281.579 278.753 281.923C285.991 282.544 286.6 277.532 285.615 275C285.521 274.757 285.446 274.5 285.374 274.244C285.22 273.686 285.084 273.131 284.815 272.732C282.005 268.581 276.858 269.172 274.362 270.139C270.441 271.446 269.481 269.547 267.562 267.811C265.377 265.836 259.862 264.211 254.41 265.769C250.75 266.814 247.234 269.54 245.934 270.915C242.928 269.837 238.072 271.446 236.172 272.753C234.593 274.789 230.184 277.863 225.593 276.164C222.127 275.553 216.322 276.178 214.973 279.35C214.789 279.784 214.688 280.266 214.688 280.8Z" fill="#D4CDC2"/>
<path d="M331.545 218.951L349.333 212.609C350.265 211.465 350.09 208.626 349.599 207.585C347.577 203.296 342.968 204.419 341.042 205.747C340.638 206.069 340.228 206.332 339.816 206.545C340.122 201.419 335.929 198.408 333.771 197.169C329.115 194.392 323.131 195.964 320.578 197.169C318.536 198.133 315.466 197.213 314.186 196.633C311.899 195.729 309.339 195.474 307.243 195.474C307.243 195.474 303.587 195.474 301.218 197.169C298.653 199.005 297.195 202.622 297.195 202.622C297.195 202.622 293.918 203.316 291.558 205.07C289.75 206.415 288.48 208.383 289.638 211.138C291.044 214.483 298.298 214.161 298.298 214.161C302.423 214.161 304.996 209.321 309.795 210.669C311.926 211.465 317.066 212.752 320.578 211.526L321.855 211.251C321.007 213.467 321.855 218 331.545 218.951Z" fill="#D4CDC2"/>
<path d="M236.581 253.617C237.01 255.721 232.374 258.312 232.374 258.312L230.474 259.621C230.267 260.99 229.706 263.236 228.91 265.952C230.616 267.92 234.13 271.577 236.172 272.753C238.072 271.446 242.928 269.837 245.934 270.915C247.234 269.54 250.75 266.814 254.41 265.769C259.862 264.211 265.377 265.836 267.562 267.811C269.481 269.547 270.441 271.446 274.362 270.139C276.858 269.172 282.005 268.581 284.815 272.732C286.645 271.39 291.191 267.545 292.941 265.823C297.209 266.256 304.629 266.76 309.938 265.769C317.372 264.38 323.866 257.497 323.866 257.497C325.731 255.52 327.708 252.552 328.985 249.422C330.24 246.346 330.819 243.113 329.952 240.506C328.074 236.797 323.179 238.961 320.966 240.506C320.966 240.506 319.592 237.958 317.617 237.545C315.062 237.01 311.424 240.036 311.424 240.036C310.674 239.09 309.037 237.399 306.814 237.238C303.709 237.014 299.768 241.772 299.768 241.772C300.421 237.892 298.012 236.891 296.786 236.605C293.529 235.376 289.035 239.661 285.834 243.476L278.508 241.211C276.448 241.119 273.326 241.885 269.889 243.05L266.966 236.057C266.963 236.059 266.959 236.061 266.956 236.063L264.396 229.907C255.295 234.25 236.988 243.952 234.456 251.012C235.398 251.806 236.419 252.824 236.581 253.617Z" fill="#B5602A"/>
<path d="M178.384 247.878C179.711 250.601 180.755 253.87 181.358 257.763C181.529 258.857 181.992 260.89 181.943 263.4C183.481 262.797 186.14 261.313 187.006 258.355C187.377 257.089 187.419 255.552 186.903 253.699C186.84 253.472 186.769 253.241 186.689 253.005C184.758 247.318 180.499 247.341 178.384 247.878Z" fill="black"/>
<path fill-rule="evenodd" clip-rule="evenodd" d="M135.213 270.434C135.207 270.434 135.201 270.435 135.195 270.436C134.867 270.471 134.531 270.506 134.191 270.54C131.129 270.849 127.68 271.1 125.36 270.997C120.979 270.449 119.416 268.838 118.804 267.399C118.793 267.373 118.782 267.347 118.772 267.321C118.636 266.985 118.551 266.66 118.492 266.361C117.643 262.031 121.786 259.009 124.849 259.009" fill="#B1ADAD"/>
<path d="M135.979 258.723L124.849 259.009C121.786 259.009 117.643 262.031 118.492 266.361C118.551 266.66 118.636 266.985 118.772 267.321C118.782 267.347 118.793 267.373 118.804 267.399C119.416 268.838 120.979 270.449 125.36 270.997C127.68 271.1 131.129 270.849 134.191 270.54C134.531 270.506 134.867 270.471 135.195 270.436L135.213 270.434C135.219 270.433 135.225 270.433 135.231 270.432C135.29 270.426 135.349 270.419 135.407 270.413C137.29 270.208 138.929 269.995 139.921 269.853C141.62 269.628 140.656 267.484 139.921 265.993L135.979 258.723Z" fill="black"/>
<path fill-rule="evenodd" clip-rule="evenodd" d="M215.604 239.084C215.608 239.086 215.612 239.089 215.617 239.091C215.621 239.094 215.626 239.096 215.63 239.099C215.644 239.107 215.658 239.114 215.672 239.122C215.675 239.124 215.679 239.126 215.682 239.128C215.685 239.13 215.688 239.131 215.69 239.133C215.71 239.144 215.73 239.155 215.75 239.166C216.062 239.343 216.375 239.522 216.689 239.702C216.356 239.511 216.022 239.321 215.69 239.133C215.688 239.131 215.685 239.13 215.682 239.128C215.679 239.126 215.675 239.124 215.672 239.122C215.658 239.114 215.644 239.107 215.63 239.099C215.622 239.094 215.613 239.089 215.604 239.084Z" fill="#D7D6D6"/>
<path fill-rule="evenodd" clip-rule="evenodd" d="M200.147 253.393C200.147 253.393 203.843 253.168 203.843 255.149C203.843 257.505 198.562 258.384 193.489 258.54C193.647 260.201 194.214 262.986 195.183 265.769C196.009 268.141 197.127 270.512 198.534 272.181C201.589 275.808 207.887 275.837 210.297 274.04L230.474 259.621L232.374 258.312C232.374 258.312 237.01 255.721 236.581 253.617C236.419 252.824 235.398 251.806 234.456 251.012C234.435 250.995 234.415 250.978 234.395 250.961C233.548 250.254 232.782 249.737 232.782 249.737C230.439 248.105 223.519 243.619 216.689 239.702C216.375 239.522 216.062 239.343 215.75 239.166L215.69 239.133L215.682 239.128C215.679 239.126 215.675 239.124 215.672 239.122C215.658 239.114 215.644 239.107 215.63 239.099L215.617 239.091L215.604 239.084C209.959 235.893 204.545 233.218 202.026 233.011C193.63 232.321 191.964 241.044 192.08 244.713L192.397 249.139L192.713 253.565L200.147 253.393Z" fill="#CEC8BF"/>
<path fill-rule="evenodd" clip-rule="evenodd" d="M176.028 106.887C183.939 105.871 192.06 105.207 199.473 105.207H222.489V107.964V109.353L222.5 109.924L223.041 139.619C223.041 144.873 220.175 155.372 213.959 162.043C212.661 163.435 211.217 164.661 209.623 165.637C207.562 167.083 204.515 168.525 200.984 169.253C197.134 170.048 192.78 169.815 188.363 168.169C177.835 164.247 172.073 157.317 168.99 153.61C168.59 153.128 168.235 152.701 167.92 152.342C162.284 153.976 180.317 180.3 199.412 171.764C199.861 176.502 194.825 185.479 185.953 186.868C185.915 186.872 185.877 186.875 185.838 186.879C180.601 187.363 175.262 186.27 172.311 184.712C159.257 177.817 154.809 165.045 154.809 159.081C154.765 158.559 154.768 157.896 154.809 157.132C155.054 152.523 156.646 143.953 157.597 140.115C156.283 140.38 154.817 140.517 153.543 140.252C149.063 139.319 146.559 136.409 145.133 132.103C144.417 129.942 144.32 126.129 145.434 122.811C146.121 120.769 147.266 118.914 149.009 117.746C152.195 115.561 157.423 114.781 161.181 120.81C161.424 121.201 161.661 121.628 161.895 122.051C162.859 123.796 163.784 125.469 165.02 124.22C168.737 121.239 170.657 116.133 170.146 113.805C174.762 112.661 175.449 109.785 176.028 106.887ZM155.381 128.55C156.002 125.707 152.044 122.872 151.173 122.811C153.379 122.076 158.477 122.766 159.751 127.733C160.691 130.429 161.181 133.635 158.301 134.084C155.787 134.477 154.605 132.103 155.381 128.55Z" fill="#B5602A"/>
<path d="M151.173 122.811C152.044 122.872 156.002 125.707 155.381 128.55C154.605 132.103 155.787 134.477 158.301 134.084C161.181 133.635 160.691 130.429 159.751 127.733C158.477 122.766 153.379 122.076 151.173 122.811Z" fill="#6C3613"/>
<path fill-rule="evenodd" clip-rule="evenodd" d="M156.688 67.7725C165.592 61.2858 171.442 59.2113 182.073 59.0113C194.654 58.7745 203.291 62.2516 211.747 71.5711C217.831 78.2765 221.366 92.8308 221.366 92.8308C227.302 93.1644 239.313 94.722 239.542 100.816C239.609 102.613 235.784 105.799 230.025 106.698C228.653 105.685 224.43 105.282 222.489 105.207H199.473C192.06 105.207 183.939 105.871 176.028 106.887C163.18 108.538 150.884 111.118 143.066 113.294C142.793 113.369 142.449 113.466 142.114 113.561C141.586 113.712 141.006 113.597 140.623 113.204C135.938 108.396 140.473 101.789 143.066 100.02C142.527 82.9137 150.745 72.102 156.688 67.7725Z" fill="#FEBC23"/>
<path d="M222.489 107.964L230.025 106.698C228.653 105.685 224.43 105.282 222.489 105.207V107.964Z" fill="black"/>
<path d="M221.366 92.8308C221.366 92.8308 217.831 78.2765 211.747 71.5711C203.291 62.2516 194.654 58.7745 182.073 59.0113C171.442 59.2113 165.592 61.2858 156.688 67.7725C150.745 72.102 142.527 82.9137 143.066 100.02C140.473 101.789 135.938 108.396 140.623 113.204C141.006 113.597 141.586 113.712 142.114 113.561C142.449 113.466 142.793 113.369 143.066 113.294M221.366 92.8308C227.302 93.1644 239.313 94.722 239.542 100.816C239.609 102.613 235.784 105.799 230.025 106.698M221.366 92.8308C218.67 92.8308 209.446 92.6198 205.13 92.8308C205.13 92.8308 185.234 94.101 172.862 96.997C161.782 99.5908 145.21 106.187 145.21 106.187M230.025 106.698L222.489 107.964M230.025 106.698C228.653 105.685 224.43 105.282 222.489 105.207M143.066 113.294C143.066 113.294 141.945 116.51 142.515 118.504C143.084 120.499 145.434 122.811 145.434 122.811M143.066 113.294C150.884 111.118 163.18 108.538 176.028 106.887M145.434 122.811C146.121 120.769 147.266 118.914 149.009 117.746M145.434 122.811C144.32 126.129 144.417 129.942 145.133 132.103M176.028 106.887C183.939 105.871 192.06 105.207 199.473 105.207H222.489M176.028 106.887C175.449 109.785 174.762 112.661 170.146 113.805C170.657 116.133 168.737 121.239 165.02 124.22C163.784 125.469 162.859 123.796 161.895 122.051C161.661 121.628 161.424 121.201 161.181 120.81C157.423 114.781 152.195 115.561 149.009 117.746M180.439 62.6668C188.792 61.1964 204.17 75.5126 207.152 92.7662M145.047 131.838C145.075 131.927 145.104 132.015 145.133 132.103M161.344 138.965C161.344 138.965 159.656 139.698 157.597 140.115M145.133 132.103C146.559 136.409 149.063 139.319 153.543 140.252C154.817 140.517 156.283 140.38 157.597 140.115M145.133 132.103C143.977 128.611 144.434 120.81 149.009 117.746M222.489 109.353L222.5 109.924M222.489 109.353V105.207M222.489 109.353V107.964M209.623 165.637C209.623 165.637 214.028 176.811 215.178 184.344C216.448 192.662 216.056 206.36 216.056 206.36M209.623 165.637C211.217 164.661 212.661 163.435 213.959 162.043M209.623 165.637C207.562 167.083 204.515 168.525 200.984 169.253M222.489 107.964L222.5 109.924M222.489 107.964V105.207M222.5 109.924L223.041 139.619C223.041 144.873 220.175 155.372 213.959 162.043M157.627 139.996C157.617 140.035 157.607 140.075 157.597 140.115M154.809 157.132C154.768 157.896 154.765 158.559 154.809 159.081C154.809 165.045 159.257 177.817 172.311 184.712C175.262 186.27 180.601 187.363 185.838 186.879M154.809 157.132C152.114 157.132 148.977 157.332 145.66 157.675M154.809 157.132C155.054 152.523 156.646 143.953 157.597 140.115M198.758 179.586C199.974 177.319 201.495 173.786 200.984 169.253M198.758 179.586C196.231 184.299 191.151 186.364 185.953 186.868M198.758 179.586C196.212 184.334 191.076 186.395 185.838 186.879M64.3577 221.069C61.1718 217.224 61.7708 215.009 62.9164 213.201M64.3577 221.069L69.7288 213.686M64.3577 221.069L56.25 232.214M62.9164 213.201C63.2971 212.6 63.7974 212.046 64.3577 211.506L69.7288 205.563C74.7772 199.159 90.7844 179.578 99.6682 173.049C106.786 167.817 112.913 165.06 116.66 163.595C119.86 162.343 125.376 160.949 131.527 159.777M62.9164 213.201C64.8278 213.219 67.1495 213.366 69.7288 213.686M69.7288 213.686C81.7616 215.176 98.8513 219.471 107.367 234.754C108.708 235.102 111.246 235.563 115.169 235.983M69.7288 213.686L56.25 232.214M56.25 232.214C51.2056 238.811 44.7929 253.122 57.0464 263.502C60.5183 266.443 68.5647 272.018 88.7626 270.445C91.5362 270.121 95.4489 269.685 99.3413 269.242M77.1626 231.173C82.806 230.662 96.6171 230.626 106.714 234.563C107.763 234.92 110.474 235.48 115.169 235.983M134.101 237.034C125.831 236.883 119.612 236.459 115.169 235.983M134.101 237.034C143.722 236.903 149.446 236.737 161.324 235.983C161.609 235.965 161.902 235.958 162.202 235.964C162.449 235.968 162.701 235.981 162.958 236.002M134.101 237.034C136.633 229.825 139.676 216.87 140.901 209.586C141.571 206.776 142.739 206.36 145.66 206.36M132.916 210.975C130.241 216.121 128.893 218.429 123.256 225.495L115.169 235.983M118.804 267.399C118.719 267.404 118.615 267.411 118.492 267.419M118.804 267.399C119.416 268.838 120.979 270.449 125.36 270.997M118.804 267.399C118.793 267.373 118.782 267.347 118.772 267.321M131.527 159.777C131.527 159.777 140.131 171.809 142.964 180.668C145.952 190.013 145.66 206.36 145.66 206.36M131.527 159.777C136.118 158.902 141.061 158.151 145.66 157.675M145.66 206.36H159.322M145.66 157.675C145.66 157.675 153.214 168.667 155.993 176.624C159.755 187.394 159.322 206.36 159.322 206.36M159.322 206.36H216.056M216.056 206.36H229.229M213.959 162.043C213.959 162.043 216.982 162.043 221.366 163.444M221.366 163.444C224.996 164.603 229.331 166.566 234.681 170.538C241.421 175.542 249.386 182.404 256.554 195.576L272.341 224.229M221.366 163.444C221.366 163.444 226.385 174.726 227.983 182.404C229.834 191.303 229.229 206.36 229.229 206.36M229.229 206.36C232.231 206.36 232.896 207.323 232.782 211.833V235.829M232.782 247.409V235.829M232.782 247.409V249.737M232.782 247.409C237.638 242.927 250.098 233.864 264.396 229.907M237.99 201.172L232.782 235.829M272.341 224.229V228.314M272.341 224.229V212.609M272.341 228.314C269.655 228.637 266.995 229.188 264.396 229.907M272.341 228.314V232.337M99.3413 269.242C98.8577 270.572 98.3011 272.193 97.695 274.06M99.3413 269.242C106.764 268.398 116.093 267.581 118.492 267.419M135.407 270.413C135.407 270.413 135.489 276.429 142.739 276.429C144.907 276.429 146.501 275.232 147.541 274.06M135.407 270.413C137.29 270.208 138.929 269.995 139.921 269.853M135.407 270.413C135.349 270.419 135.29 270.426 135.231 270.432M146.252 254.026C146.64 254.931 147.808 257.734 149.377 261.705C150.945 265.675 150.214 268.955 149.029 271.834C149.029 271.834 148.54 272.936 147.541 274.06M147.541 274.06C147.541 274.06 151.978 276.865 154.972 275.878C157.282 275.116 158.611 273.376 159.362 271.834M156.157 250.145L159.506 259.152C161.181 264.216 160.561 267.559 160.282 268.975C160.282 268.975 160.105 270.308 159.362 271.834M159.362 271.834C159.362 271.834 161.958 273.57 163.693 273.202C168.512 272.181 169.697 267.566 169.697 267.566M169.697 267.566C170.493 265.278 171.229 261.296 169.697 256.354L166.225 247.164M169.697 267.566C169.697 267.566 172.808 272.58 175.865 272.406C180.051 272.168 181.358 267.566 181.358 267.566C181.525 266.954 181.65 266.354 181.74 265.769M162.958 236.002L163.216 230.724C163.26 229.63 163.291 228.316 163.386 226.619C163.616 222.514 164.591 222.718 165.817 222.514H170.228L212.727 222.738C214.912 222.841 215.75 222.105 215.75 226.557V239.166M162.958 236.002C167.761 236.394 174.368 239.633 178.384 247.878M215.75 239.166C216.062 239.343 216.375 239.522 216.689 239.702M215.75 239.166L215.69 239.133M215.75 239.166C215.73 239.155 215.71 239.144 215.69 239.133M178.384 247.878C179.711 250.601 180.755 253.87 181.358 257.763C181.529 258.857 181.992 260.89 181.943 263.4M178.384 247.878C180.499 247.341 184.758 247.318 186.689 253.005C186.769 253.241 186.84 253.472 186.903 253.699M181.943 263.4C183.481 262.797 186.14 261.313 187.006 258.355M181.943 263.4C181.929 264.151 181.868 264.944 181.74 265.769M186.903 253.699C187.419 255.552 187.377 257.089 187.006 258.355M186.903 253.699L192.713 253.565M203.843 255.149C203.843 253.168 200.147 253.393 200.147 253.393L192.713 253.565M203.843 255.149C203.843 257.505 198.562 258.384 193.489 258.54M203.843 255.149C203.843 257.536 198.422 258.407 193.29 258.546M187.006 258.355C188.683 258.521 190.957 258.609 193.29 258.546M192.713 253.565L192.397 249.139L192.08 244.713C191.964 241.044 193.63 232.321 202.026 233.011C204.545 233.218 209.959 235.893 215.604 239.084M193.489 258.54C193.647 260.201 194.214 262.986 195.183 265.769M193.489 258.54C193.423 258.542 193.356 258.544 193.29 258.546M193.489 258.54C193.423 258.542 193.356 258.544 193.29 258.546M125.36 270.997C120.899 270.439 119.36 268.779 118.772 267.321M125.36 270.997C127.68 271.1 131.129 270.849 134.191 270.54C134.531 270.506 134.867 270.471 135.195 270.436M102.384 282.209C107.474 285.237 116.57 289.26 131.405 292.049M184.483 295.054C179.271 295.265 174.347 295.35 169.697 295.326M97.6259 315.804C106.277 313.555 124.274 305.926 131.405 292.049M131.405 292.049C141.392 293.927 153.979 295.246 169.697 295.326M232.782 249.737C232.782 249.737 233.548 250.254 234.395 250.961M232.782 249.737C230.439 248.105 223.519 243.619 216.689 239.702M236.581 253.617C237.01 255.721 232.374 258.312 232.374 258.312L230.474 259.621M236.581 253.617C236.419 252.824 235.398 251.806 234.456 251.012M236.581 253.617C236.415 252.807 235.354 251.762 234.395 250.961M230.474 259.621L210.297 274.04C207.887 275.837 201.589 275.808 198.534 272.181C197.127 270.512 196.009 268.141 195.183 265.769M230.474 259.621C230.267 260.99 229.706 263.236 228.91 265.952M200.984 169.253C197.134 170.048 192.78 169.815 188.363 168.169C177.835 164.247 172.073 157.317 168.99 153.61C168.59 153.128 168.235 152.701 167.92 152.342C162.284 153.976 180.317 180.3 199.412 171.764C199.861 176.502 194.825 185.479 185.953 186.868M97.695 274.06C92.6789 289.511 84.3364 321.653 85.9034 344.538H162.202M97.695 274.06C97.695 274.06 104.457 274.435 108.511 273.202C112.821 271.892 118.492 267.419 118.492 267.419M169.697 295.326C168.628 305.634 166.335 334.699 162.202 344.538M225.593 276.164C226.838 272.682 228.06 268.855 228.91 265.952M225.593 276.164C230.184 277.863 234.593 274.789 236.172 272.753M225.593 276.164C222.127 275.553 216.322 276.178 214.973 279.35M272.341 212.609L291.558 205.07M272.341 212.609L318.863 223.474M272.341 212.609V232.337M291.558 205.07C289.75 206.415 288.48 208.383 289.638 211.138M291.558 205.07C293.918 203.316 297.195 202.622 297.195 202.622M318.863 223.474L349.333 212.609M318.863 223.474L331.545 218.951M349.333 212.609L345.106 241.282L328.985 249.422M349.333 212.609C350.265 211.465 350.09 208.626 349.599 207.585C347.577 203.296 342.968 204.419 341.042 205.747M349.333 212.609L331.545 218.951M328.788 249.522L328.985 249.422M264.396 229.907C255.295 234.25 236.988 243.952 234.456 251.012M264.396 229.907L266.956 236.063C266.959 236.061 266.963 236.059 266.966 236.057M264.396 229.907L266.966 236.057M252.878 250.411C259.052 247.239 272.822 240.957 278.508 241.211M278.508 241.211L272.341 239.362V232.337M278.508 241.211L285.834 243.476C289.034 239.661 293.529 235.376 296.786 236.605M278.508 241.211C276.448 241.119 273.326 241.885 269.889 243.05L266.966 236.057M272.341 232.337C271.054 233.591 268.111 235.371 266.966 236.057M228.91 265.952C230.616 267.92 234.13 271.577 236.172 272.753M236.172 272.753C238.072 271.446 242.928 269.837 245.934 270.915C247.234 269.54 250.75 266.814 254.41 265.769C259.862 264.211 265.377 265.836 267.562 267.811C269.481 269.547 270.441 271.446 274.362 270.139C276.858 269.172 282.005 268.581 284.815 272.732M234.456 251.012C234.435 250.995 234.415 250.978 234.395 250.961M319.251 228.252L318.863 238.103M297.195 202.622C297.195 202.622 286.969 204.787 289.638 211.138M297.195 202.622C297.195 202.622 298.653 199.005 301.218 197.169C303.587 195.474 307.243 195.474 307.243 195.474C309.339 195.474 311.899 195.729 314.186 196.633C315.466 197.213 318.536 198.133 320.578 197.169C323.131 195.964 329.115 194.392 333.771 197.169C335.929 198.408 340.122 201.419 339.816 206.545C340.228 206.332 340.638 206.069 341.042 205.747M289.638 211.138C291.044 214.483 298.297 214.161 298.297 214.161C302.423 214.161 304.996 209.321 309.795 210.669C311.926 211.465 317.066 212.752 320.578 211.526L321.855 211.251M323.131 210.975L321.855 211.251M321.855 211.251C321.007 213.467 321.855 218 331.545 218.951M333.159 206.135C334.854 207.36 338.121 208.075 341.042 205.747M184.81 281.555L184.483 307.41L207.969 317.907M184.81 281.555L214.973 279.35M184.81 281.555L207.969 289.826M284.815 272.732C285.084 273.131 285.22 273.686 285.374 274.244M284.815 272.732C286.645 271.39 291.191 267.545 292.941 265.823M292.957 265.825C292.942 265.84 292.957 265.808 292.941 265.823M289.557 265.421C289.557 265.421 290.882 265.614 292.941 265.823M214.973 279.35C214.789 279.784 214.688 280.266 214.688 280.8C214.688 285.227 220.208 285.313 223 285.313C227.554 285.313 232.639 283.467 236.07 282.862C238.085 282.644 242.166 283.238 244.137 283.761C248.446 284.904 250.461 283.529 252.796 282.562C252.889 282.524 252.984 282.488 253.081 282.455M207.969 289.826L263.518 285.762M207.969 289.826V317.907M263.518 285.762V312.7M263.518 285.762L321.436 281.392M263.518 285.762L253.081 282.455M281.878 248.757C281.878 248.757 291.17 234.485 296.786 236.605M296.786 236.605C298.012 236.891 300.421 237.892 299.768 241.772M299.768 241.772L292.886 252.862M299.768 241.772C299.768 241.772 303.709 237.014 306.814 237.238C309.037 237.399 310.674 239.09 311.424 240.036M302.688 257.109C305.796 253.018 311.893 243.876 311.424 240.036M311.424 240.036C311.424 240.036 315.062 237.01 317.617 237.545C319.592 237.958 320.966 240.506 320.966 240.506M320.966 240.506C322.478 244.08 316.787 253.059 313.88 257.232M320.966 240.506C323.179 238.961 328.074 236.797 329.952 240.506C330.819 243.113 330.24 246.346 328.985 249.422M207.969 317.907L210.297 317.689L212.727 317.461L223 316.498M263.518 312.7L321.436 308.166V281.392M263.518 312.7L223 316.498M321.436 281.392L292.886 273.79L285.374 274.244M285.374 274.244C285.446 274.5 285.521 274.757 285.615 275C286.6 277.532 285.991 282.544 278.753 281.923C276.009 281.579 271.193 280.939 269.611 281.353C269.524 281.376 269.443 281.419 269.368 281.471C264.859 284.588 261.055 284.243 259.556 283.291C257.83 282.195 255.069 281.773 253.081 282.455M162.202 344.538H219.078C221.038 336.746 221.917 323.616 223 316.498M185.953 186.868C185.915 186.872 185.877 186.875 185.838 186.879M139.921 269.853C141.62 269.628 140.656 267.484 139.921 265.993L135.979 258.723L124.849 259.009C121.786 259.009 117.643 262.031 118.492 266.361C118.551 266.66 118.636 266.985 118.772 267.321M139.921 269.853C138.898 269.999 137.188 270.221 135.231 270.432M181.74 265.769H195.183M328.985 249.422C327.708 252.552 325.731 255.52 323.866 257.497C323.866 257.497 317.372 264.38 309.938 265.769C304.629 266.76 297.209 266.256 292.941 265.823M135.213 270.434C135.207 270.434 135.201 270.435 135.195 270.436M135.213 270.434L135.195 270.436M135.213 270.434C135.219 270.433 135.225 270.433 135.231 270.432M215.604 239.084C215.608 239.086 215.612 239.089 215.617 239.091M215.604 239.084C215.608 239.086 215.612 239.089 215.617 239.091M215.604 239.084L215.617 239.091M215.604 239.084C215.613 239.089 215.622 239.094 215.63 239.099M215.617 239.091L215.63 239.099M215.617 239.091C215.621 239.094 215.626 239.096 215.63 239.099M216.689 239.702C216.356 239.511 216.022 239.321 215.69 239.133M215.69 239.133L215.682 239.128M215.69 239.133C215.688 239.131 215.685 239.13 215.682 239.128M215.682 239.128C215.679 239.126 215.675 239.124 215.672 239.122C215.658 239.114 215.644 239.107 215.63 239.099M151.173 122.811C152.044 122.872 156.002 125.707 155.381 128.55C154.605 132.103 155.787 134.477 158.301 134.084C161.181 133.635 160.691 130.429 159.751 127.733C158.477 122.766 153.379 122.076 151.173 122.811Z" stroke="#1E1E1E" stroke-width="0.480077" stroke-linecap="round"/>
<path d="M191.814 145.602C191.814 145.602 195.552 152.097 203.19 152.097C210.828 152.097 212.114 149.462 212.114 149.462M197.798 157.631C200.065 157.951 205.134 157.966 207.274 155.466M209.153 124.751C209.153 124.751 211.998 129.108 213.857 132.947C215.349 136.03 214.722 140.166 211.528 141.402C207.73 142.873 202.23 140.19 202.23 140.19" stroke="#1E1E1E" stroke-width="0.864138" stroke-linecap="round"/>
<path d="M183.89 116.647C183.89 116.647 187.391 112.301 190.588 111.664C194.131 110.958 199.431 114.38 199.431 114.38M212.338 114.38C212.338 114.38 213.658 112.574 216.525 111.664C218.402 111.068 221.569 111.664 221.569 111.664" stroke="black" stroke-width="2.64042" stroke-linecap="round"/>
<path d="M217.424 123.383C216.056 123.589 215.453 125.005 215.545 126.385C215.639 127.78 216.456 129.172 217.853 129.122C219.21 129.073 219.956 127.742 219.997 126.385C220.045 124.842 218.951 123.153 217.424 123.383Z" fill="black"/>
<path d="M194.285 123.383C192.476 123.294 191.35 125.468 191.712 127.243C191.995 128.63 192.87 129.769 194.285 129.796C195.949 129.827 196.942 128.046 196.838 126.385C196.743 124.849 195.823 123.458 194.285 123.383Z" fill="black"/>
<path d="M217.424 123.383C216.056 123.589 215.453 125.005 215.545 126.385C215.639 127.78 216.456 129.172 217.853 129.122C219.21 129.073 219.956 127.742 219.997 126.385C220.045 124.842 218.951 123.153 217.424 123.383Z" stroke="#1E1E1E"/>
<path d="M194.285 123.383C192.476 123.294 191.35 125.468 191.712 127.243C191.995 128.63 192.87 129.769 194.285 129.796C195.949 129.827 196.942 128.046 196.838 126.385C196.743 124.849 195.823 123.458 194.285 123.383Z" stroke="#1E1E1E"/>
<path d="M151.868 211.057C148.979 211.145 146.888 213.787 147.048 216.673C147.199 219.388 149.15 221.613 151.868 221.697C154.67 221.783 156.838 219.472 156.994 216.673C157.159 213.708 154.836 210.966 151.868 211.057Z" fill="#979595"/>
<path d="M222.877 211.057C220.054 211.238 218.132 213.849 218.302 216.673C218.478 219.581 220.927 222.068 223.816 221.697C226.37 221.369 227.97 219.245 228.085 216.673C228.218 213.685 225.862 210.865 222.877 211.057Z" fill="#979595"/>
<path d="M151.868 211.057C148.979 211.145 146.888 213.787 147.048 216.673C147.199 219.388 149.15 221.613 151.868 221.697C154.67 221.783 156.838 219.472 156.994 216.673C157.159 213.708 154.836 210.966 151.868 211.057Z" stroke="#1E1E1E" stroke-width="0.336054" stroke-linecap="round"/>
<path d="M222.877 211.057C220.054 211.238 218.132 213.849 218.302 216.673C218.478 219.581 220.927 222.068 223.816 221.697C226.37 221.369 227.97 219.245 228.085 216.673C228.218 213.685 225.862 210.865 222.877 211.057Z" stroke="#1E1E1E" stroke-width="0.336054" stroke-linecap="round"/>
</g>
<defs>
<clipPath id="clip0_827_1087">
<rect width="400" height="297" fill="white"/>
</clipPath>
</defs>
</svg>
