<svg width="400" height="297" viewBox="0 0 400 297" fill="none" xmlns="http://www.w3.org/2000/svg">
<g clip-path="url(#clip0_827_1057)">
<rect width="400" height="297" fill="#CAC8FF"/>
<path d="M223.274 80.5069C223.274 80.5069 217.316 80.5069 212.078 82.1248C208.144 83.3396 205.647 85.1755 202.499 87.8273C198.403 91.4315 191.462 99.729 193.352 106.889C195.867 102.708 202.915 94.3331 206.663 93.5299C212.078 92.3697 214.507 90.4704 215.602 89.1729C215.602 89.1729 215.621 91.7563 216.354 93.1615C217.525 95.4043 219.068 96.6988 221.592 96.8617C226.062 97.15 226.586 96.8013 229.441 97.2658C230.963 97.3928 234.135 98.7198 234.135 104.438C234.135 106.809 234.792 109.196 238.78 112.063C239.693 112.719 239.998 113.826 239.998 114.402C239.998 114.845 239.812 115.338 239.558 115.812C239.122 116.627 238.816 117.518 238.895 118.438C239.043 120.151 239.326 123.057 239.693 125.15C240.571 130.149 242.941 131.07 244.634 131.039C245.903 131.015 246.988 130.234 248.009 129.48C248.559 129.073 249.255 128.565 250.089 127.969C251.711 126.811 253.17 126.381 255.087 126.928C257.325 127.567 258.707 131.301 258.707 131.301C260.071 134.707 257.826 140.29 257.536 140.985C257.516 141.033 257.496 141.081 257.477 141.129C256.435 143.658 253.205 145.675 252.257 145.638C252.347 145.925 252.466 146.53 252.522 146.839C256.287 145.493 258.433 142.146 259.49 139.999C259.49 139.999 259.738 138.505 259.978 136.075C259.979 136.058 259.981 136.042 259.983 136.025C260.599 129.74 261.151 117.28 257.281 108.139C253.789 99.8892 249.79 93.555 240.558 86.8022C232.981 81.2598 223.274 80.5069 223.274 80.5069Z" fill="black"/>
<path d="M235.096 71.2003C233.657 73.576 234.615 78.0722 234.615 78.0722C233.372 78.1375 231.515 78.3005 229.634 78.5855C229.634 78.5855 240.327 79.737 246.293 82.8136C251.333 84.9974 260.197 88.9006 264.906 104.438C269.616 119.976 263.416 133.303 259.978 136.075C259.738 138.505 259.49 139.999 259.49 139.999C259.49 139.999 263.735 135.698 265.659 132.535C268.161 128.421 269.616 120.857 269.616 120.857C269.616 120.857 275.247 121.818 279.515 114.946C281.348 111.995 281.229 106.216 281.229 106.216C281.229 106.216 287.064 104.599 289.735 98.0791C291.359 94.1138 291.232 91.1215 289.735 87.1065C288.37 83.4477 283.439 79.3376 283.439 79.3376C283.439 79.3376 283.439 71.0117 279.13 66.4428C276.371 63.5171 274.033 62.1311 270.048 61.5892C266.924 61.1644 262.055 62.7265 262.055 62.7265C262.055 62.7265 258.728 58.7972 255.279 58.2254C251.904 57.666 249.065 58.0961 246.293 60.0996C243.404 62.1868 241.231 67.6923 241.231 67.6923C241.231 67.6923 237.221 67.6923 235.096 71.2003Z" fill="black"/>
<path d="M218.533 342.263C220.487 340.186 224.46 335.904 224.716 335.391H248.023C250.458 335.391 254.616 334.513 254.526 330.554C258.131 330.417 264.703 329.888 272.403 328.747C279.397 327.711 287.323 326.168 294.8 323.954C292.992 319.586 291.769 317.242 291.769 317.242C274.822 322.625 259.801 323.693 250.793 323.954C250.417 325.38 250.05 326.478 249.838 327.11L249.833 327.126C248.455 331.707 229.425 330.239 220.567 329.096C218.907 330.888 215.861 331.552 211.689 331.581L218.533 342.263Z" fill="black"/>
<path d="M158.013 249.741C153.884 239.566 146.123 233.696 142.958 231.961V237.022C142.958 237.022 149.171 243.342 151.416 248.363C153.923 253.972 154.155 265.601 154.155 265.601L158.814 262.636C157.971 257.873 157.788 253.581 158.013 249.741Z" fill="black"/>
<path d="M214.881 169.345C210.225 170.495 206.526 170.891 202.643 170.261V173.494V175.616V177.738C208.116 177.426 220.103 174.791 230.435 162.056C228.091 163.913 223.351 167.252 214.881 169.345Z" fill="black"/>
<path d="M266.844 265.263C267.189 268.178 268.052 267.954 271.858 267.826L271.201 264.35C274.298 261.125 283.343 254.771 297.199 252.32C302.181 251.669 309.331 250.439 312.753 251.439L313.986 256.837C316.685 255.069 322.352 248.819 318.936 246.737C318.689 246.587 318.397 246.455 318.055 246.345C295.95 241.876 274.522 257.158 266.844 265.263Z" fill="black"/>
<path d="M232.38 366.275C235.648 371.26 231.708 374.796 228.296 376.879C227.572 377.306 226.876 377.717 226.206 378.113C226.902 379.213 228.296 382.424 228.296 386.474H308.604C308.604 386.474 306.594 363.084 303.062 349.183C300.227 338.027 297.058 329.411 294.8 323.954C287.323 326.168 279.397 327.711 272.403 328.747C264.703 329.888 258.131 330.417 254.526 330.554C254.616 334.513 250.458 335.391 248.023 335.391H224.716C224.46 335.904 220.487 340.186 218.533 342.263L232.38 366.275Z" fill="#1E3A8A"/>
<path d="M170.414 323.902C161.7 341.346 146.434 379.586 143.807 386.474H194.477C193.472 385.296 192.728 384.017 192.183 382.934C188.739 376.099 181.293 361.053 179.064 355.542C176.834 350.032 179.614 341.916 181.283 338.547C178.86 337.901 178.149 335.28 178.087 333.677C178.087 333.677 174.785 331.84 173.601 329.897C172.547 328.166 172.752 325.284 172.752 325.284C172.752 325.284 171.542 324.784 170.414 323.902Z" fill="#1E3A8D"/>
<path d="M281.934 184.755C281.934 184.755 275.586 183.025 270.176 196.496C267.777 202.471 266.469 210.421 266.384 210.949C266.381 210.968 266.378 210.986 266.376 211.006L265.531 216.871C264.979 226.613 262.9 234.68 260.918 239.826C261.438 241.779 262.118 244.386 262.838 247.226C264.643 254.352 266.441 261.854 266.844 265.263C274.522 257.158 295.95 241.876 318.055 246.345C318.397 246.455 318.689 246.587 318.936 246.737L308.252 219.066C303.062 205.828 296.757 196.496 293.627 192.86C288.245 186.606 283.589 184.851 281.934 184.755Z" fill="#AFD1FA"/>
<path d="M176.789 283.634C177.517 283.699 178.248 283.845 178.935 284.116C179.8 284.456 180.425 286.983 178.807 288.024C187.895 290.427 212.161 296.149 231.652 291.229C225.193 282.168 224.924 261.183 226.206 253.425C226.206 253.425 206.981 253.93 194.874 252.144C180.649 250.045 172.528 245.496 172.528 245.496C172.528 245.496 170.001 253.826 170.926 263.869C171.851 273.913 176.789 283.634 176.789 283.634Z" fill="#4766C0"/>
<path d="M187.249 182.96C189.059 180.537 192.977 175.598 194.169 175.224C194.169 175.224 183.309 175.948 174.931 180.093C167.629 183.706 164.225 187.223 158.736 193.244C153.347 199.156 146.915 210.292 146.915 210.292V211.377C146.915 211.377 147.095 214.202 145.874 215.83C144.92 217.101 142.318 218.169 142.318 218.169C142.364 218.499 142.408 218.856 142.449 219.236C142.816 222.644 142.958 227.911 142.958 231.961C146.123 233.696 153.884 239.566 158.013 249.741C158.55 240.552 161.421 233.948 163.173 229.67C163.452 228.923 163.734 228.181 164.018 227.443C171.583 207.82 180.904 191.745 187.249 182.96Z" fill="#AFD1FA"/>
<path d="M205.43 301.977C205.43 301.977 196.011 297.636 189.091 296.258C185.291 295.502 183.244 295.372 179.224 296.198C179.129 296.218 179.033 296.238 178.935 296.258C176.575 296.758 175.083 297.254 173.388 298.128C173.111 298.271 172.828 298.424 172.535 298.589C172.535 298.589 172.535 298.589 172.535 298.589C171.906 298.943 171.035 299.46 170.318 299.911C166.275 302.448 164.209 304.459 161.54 308.416C159.724 311.107 155.581 315.913 158.736 319.325C160.194 320.67 164.07 319.863 168.171 315.224C168.459 314.942 168.775 314.637 169.116 314.313C169.649 313.808 170.242 313.26 170.878 312.688C168.072 316.105 167.883 319.585 168.684 321.76C168.997 322.611 169.688 323.335 170.414 323.902C171.542 324.784 172.752 325.284 172.752 325.284C172.752 325.284 172.547 328.166 173.601 329.897C174.785 331.84 178.087 333.677 178.087 333.677C178.149 335.28 178.86 337.901 181.283 338.547C181.775 338.678 182.354 338.639 183.005 338.531C183.56 338.438 184.097 338.257 184.589 337.983C188.708 335.693 194.381 330.092 200.608 330.794C204.854 331.273 208.583 331.603 211.689 331.581C215.861 331.552 218.907 330.888 220.567 329.096C229.425 330.239 248.455 331.707 249.833 327.126L249.838 327.11C250.05 326.478 250.417 325.38 250.793 323.954C251.268 322.151 251.757 319.823 251.963 317.242C252.886 305.927 247.622 297.7 244.082 293.888C243.885 293.636 243.698 293.412 243.519 293.215C241.609 291.102 240.663 291.962 238.524 292.782L214.721 301.977C210.54 303.915 207.106 302.762 205.43 301.977Z" fill="#EFA800"/>
<path d="M254.03 249.196C250.212 249.973 245.908 243.414 245.908 243.414C245.737 243.125 245.568 242.844 245.4 242.571C245.4 242.571 243.088 252.088 244.016 258.936C244.898 265.445 246.67 270.136 249.702 275.963C251.971 280.323 256.64 286.02 256.963 286.412C261.363 284.361 266.07 282.269 269.824 280.849C271.511 280.21 273.401 279.55 275.261 278.927C274.07 276.378 272.412 270.292 271.858 267.826C268.052 267.954 267.189 268.178 266.844 265.263C266.441 261.854 264.643 254.352 262.838 247.226C262.838 247.226 261.157 248.199 259.972 248.219C258.726 248.241 256.939 247.226 256.939 247.226C256.151 248.141 255.157 248.967 254.03 249.196Z" fill="#AFD1FA"/>
<path d="M122 133.816C124.055 131.463 125.609 129.002 126.757 126.72C126.757 126.72 120.549 122.315 118.162 126.72C116.645 129.519 121.746 134.104 121.746 134.104C121.831 134.008 121.916 133.912 122 133.816Z" fill="#EFA800"/>
<path d="M223.274 80.5069C223.274 80.5069 232.981 81.2598 240.558 86.8022C249.79 93.555 253.789 99.8892 257.281 108.139C261.151 117.28 260.599 129.74 259.983 136.025L259.978 136.075C263.416 133.303 269.616 119.976 264.906 104.438C260.197 88.9006 251.333 84.9974 246.293 82.8136C240.327 79.737 229.634 78.5855 229.634 78.5855C227.055 78.976 224.43 79.5957 223.274 80.5069Z" fill="#AFD1FA"/>
<path d="M245.469 149.178C244.513 148.588 244.148 147.942 243.938 147.255C243.938 147.255 241.476 151.223 241.231 154.079C240.974 157.073 241.415 159.521 242.415 161.29C242.423 161.305 242.432 161.32 242.44 161.335C243.751 163.616 246.002 164.75 248.89 164.443C253.296 163.976 255.711 159.641 255.49 155.217C255.247 150.363 252.476 148.423 252.476 148.423C252.314 149.299 251.691 150.315 251.114 150.902C251.114 150.902 252.065 152.734 252.065 155.435C252.065 158.121 251.077 160.415 248.391 160.455C245.675 160.495 244.146 159.179 244.146 154.944C244.146 152.029 245.815 149.915 245.815 149.915C245.677 149.685 245.562 149.438 245.469 149.178Z" fill="#EFA800"/>
<path d="M249.336 142.834C246.998 142.489 245.33 144.895 245.204 147.255C245.167 147.94 245.26 148.593 245.469 149.178C245.562 149.438 245.677 149.685 245.815 149.915C246.44 150.96 247.512 151.652 248.904 151.677C249.904 151.694 250.499 151.527 251.114 150.902C251.691 150.315 252.314 149.299 252.476 148.423C252.588 147.817 252.639 147.477 252.522 146.839C252.466 146.53 252.347 145.925 252.257 145.638C251.803 144.189 250.9 143.066 249.336 142.834Z" fill="#EFA800"/>
<path d="M260.918 239.826C260.195 241.703 259.485 243.192 258.867 244.231C258.867 244.231 258.141 245.831 256.939 247.226C256.939 247.226 258.726 248.241 259.972 248.219C261.157 248.199 262.838 247.226 262.838 247.226C262.118 244.386 261.438 241.779 260.918 239.826Z" fill="black"/>
<path d="M189.716 118.855C189.716 118.855 185.676 128.737 184.83 135.434C183.353 147.127 186.961 156.738 186.961 156.738C186.961 156.738 189.716 165.693 195.899 168.256C198.328 169.262 200.513 169.916 202.643 170.261C206.526 170.891 210.225 170.495 214.881 169.345C223.351 167.252 228.091 163.913 230.435 162.056C220.103 174.791 208.116 177.426 202.643 177.738C202.643 177.738 201.318 187.787 204.293 192.075C207.433 196.601 210.622 197.906 216.13 197.906C224.577 197.906 229.745 194.362 235.796 188.931C241.696 183.634 246.32 172.904 246.32 172.904C242.048 170.654 242 164.403 242.44 161.335C242.432 161.32 242.423 161.305 242.415 161.29C241.415 159.521 240.974 157.073 241.231 154.079C241.476 151.223 243.938 147.255 243.938 147.255C244.148 147.942 244.513 148.588 245.469 149.178C245.26 148.593 245.167 147.94 245.204 147.255C245.33 144.895 246.998 142.489 249.336 142.834C250.9 143.066 251.803 144.189 252.257 145.638C253.205 145.675 256.435 143.658 257.477 141.129C257.496 141.081 257.516 141.033 257.536 140.985C257.826 140.29 260.071 134.707 258.707 131.301C258.707 131.301 257.325 127.567 255.087 126.928C253.17 126.381 251.711 126.811 250.089 127.969C249.255 128.565 248.559 129.073 248.009 129.48C246.988 130.234 245.903 131.015 244.634 131.039C242.941 131.07 240.571 130.149 239.693 125.15C239.326 123.057 239.043 120.151 238.895 118.438C238.816 117.518 239.122 116.627 239.558 115.812C239.812 115.338 239.998 114.845 239.998 114.402C239.998 113.826 239.693 112.719 238.78 112.063C234.792 109.196 234.135 106.809 234.135 104.438C234.135 98.7198 230.963 97.3928 229.441 97.2658C226.586 96.8013 226.062 97.15 221.592 96.8617C219.068 96.6988 217.525 95.4043 216.354 93.1615C215.621 91.7563 215.602 89.1729 215.602 89.1729C214.507 90.4704 212.078 92.3697 206.663 93.5299C202.915 94.3331 195.867 102.708 193.352 106.889C193.123 107.363 192.875 107.939 192.62 108.587C191.463 111.52 190.149 115.916 189.716 118.855Z" fill="#B5602A"/>
<path d="M243.519 293.215C243.698 293.412 243.885 293.636 244.082 293.888C247.622 297.7 252.886 305.927 251.963 317.242C251.757 319.823 251.268 322.151 250.793 323.954C259.801 323.693 274.822 322.625 291.769 317.242C296.414 315.767 304.808 312.937 309.677 309.586C322.268 300.92 318.824 285.029 317.014 273L313.986 256.837L312.753 251.439C309.331 250.439 302.181 251.669 297.199 252.32C283.343 254.771 274.298 261.125 271.201 264.35L271.858 267.826C272.412 270.292 274.07 276.378 275.261 278.927C273.401 279.55 271.511 280.21 269.824 280.849C266.07 282.269 261.363 284.361 256.963 286.412C250.242 289.546 244.307 292.783 243.519 293.215Z" fill="#B5602A"/>
<path d="M204.293 192.075C201.318 187.787 202.643 177.738 202.643 177.738V175.616C202.643 175.616 197.414 181.919 187.249 201.638C182.342 211.157 175.988 226.643 175.988 226.643C175.988 226.643 183.639 230.5 199.513 232.714C209.463 234.101 225.238 232.714 225.238 232.714C225.225 232.29 225.239 231.844 225.278 231.377C226.04 222.267 236.309 205.346 239.901 199.684C243.186 194.506 249.941 181.914 252.908 176.265C253.299 175.624 253.717 175.051 254.199 174.581C254.223 174.558 254.247 174.535 254.271 174.512L251.114 173.974L247.286 173.317C246.942 173.201 246.621 173.063 246.32 172.904C246.32 172.904 241.696 183.634 235.796 188.931C229.745 194.362 224.577 197.906 216.13 197.906C210.622 197.906 207.433 196.601 204.293 192.075Z" fill="#AFD1FA"/>
<path d="M112.571 155.713C110.473 156.482 106.693 160.647 109.704 165.677C110.426 166.882 111.274 168.224 112.276 169.409C114.009 171.458 116.201 173.035 118.995 172.613C120.452 172.392 121.599 170.274 120.741 167.455C117.152 162.946 115.283 160.39 112.571 155.713Z" fill="#EFA800"/>
<path d="M116.256 149.226C112.796 150.507 112.358 154.085 112.571 155.713C115.283 160.39 117.152 162.946 120.741 167.455C120.741 167.455 123.657 169.991 125.69 169.409C127.366 168.929 128.443 167.973 128.878 166.285C129.177 165.127 128.878 163.018 128.878 163.018C124.073 159.189 117.777 153.07 116.256 149.226Z" fill="#EFA800"/>
<path d="M252.908 176.265C249.941 181.914 243.186 194.506 239.901 199.684C236.309 205.346 226.04 222.267 225.278 231.377C225.239 231.844 225.225 232.29 225.238 232.714C225.262 233.47 225.372 234.153 225.581 234.748C225.748 234.899 226.107 235.087 226.565 235.064C227.068 235.04 227.709 235.154 228.063 235.511C228.925 236.381 230.701 237.693 233.467 238.746C233.467 238.746 233.467 238.746 233.467 238.746C234.298 236.887 235.291 235.126 236.409 233.915C237.892 233.894 240.908 235.253 245.4 242.571C245.568 242.844 245.737 243.125 245.908 243.414C245.908 243.414 250.212 249.973 254.03 249.196C255.157 248.967 256.151 248.141 256.939 247.226C258.141 245.831 258.867 244.231 258.867 244.231C259.485 243.192 260.195 241.703 260.918 239.826C262.9 234.68 264.979 226.613 265.531 216.871L266.376 211.006C266.378 210.986 266.381 210.968 266.384 210.949C266.469 210.421 267.777 202.471 270.176 196.496C275.586 183.025 281.934 184.755 281.934 184.755C283.589 184.851 288.245 186.606 293.627 192.86C296.616 196.333 302.502 205.002 307.546 217.306C307.904 216.126 308.748 213.443 310.462 212.45C312.198 211.444 317.382 207.901 313.922 201.253C312.282 198.383 305.198 194.173 301.86 192.427C295.309 187.798 287.973 181.246 283.92 178.956L283.711 178.864C280.814 177.583 276.34 175.605 271.586 174.823C268.68 174.345 262.728 173.938 258.675 173.317C256.672 173.01 255.321 173.521 254.271 174.512C254.247 174.535 254.223 174.558 254.199 174.581C253.717 175.051 253.299 175.624 252.908 176.265Z" fill="#4766C0"/>
<path d="M202.643 173.494C200.277 173.814 195.515 174.608 194.169 175.224C192.977 175.598 189.059 180.537 187.249 182.96C180.904 191.745 171.583 207.82 164.018 227.443C163.734 228.181 163.452 228.923 163.173 229.67C161.421 233.948 158.55 240.552 158.013 249.741C157.788 253.581 157.971 257.873 158.814 262.636C159.216 264.909 159.768 267.29 160.498 269.78C162.018 274.964 166.418 284.951 167.155 286.265C168.699 285.256 170.409 284.409 172.144 284.02L172.161 284.017C173.19 283.818 174.978 283.472 176.789 283.634C176.789 283.634 171.851 273.913 170.926 263.869C170.001 253.826 172.528 245.496 172.528 245.496C172.528 245.496 180.649 250.045 194.874 252.144C206.981 253.93 226.206 253.425 226.206 253.425C224.924 261.183 225.193 282.168 231.652 291.229C212.161 296.149 187.895 290.427 178.807 288.024C178.001 288.414 177.01 288.982 175.923 289.654L179.224 296.198C183.244 295.372 185.291 295.502 189.091 296.258C196.011 297.636 205.43 301.977 205.43 301.977C207.106 302.762 210.54 303.915 214.721 301.977L238.524 292.782C240.663 291.962 241.609 291.102 243.519 293.215C244.307 292.783 250.242 289.546 256.963 286.412C256.64 286.02 251.971 280.323 249.702 275.963C246.67 270.136 244.898 265.445 244.016 258.936C243.088 252.088 245.4 242.571 245.4 242.571C240.908 235.253 237.892 233.894 236.409 233.915C235.291 235.126 234.298 236.887 233.467 238.746L233.467 238.746C230.701 237.693 228.925 236.381 228.063 235.511C227.709 235.154 227.068 235.04 226.565 235.064C226.107 235.087 225.748 234.899 225.581 234.748C225.372 234.153 225.262 233.47 225.238 232.714C225.238 232.714 209.463 234.101 199.513 232.714C183.639 230.5 175.988 226.643 175.988 226.643C175.988 226.643 182.342 211.157 187.249 201.638C197.414 181.919 202.643 175.616 202.643 175.616V173.494Z" fill="#1E3A8A"/>
<path fill-rule="evenodd" clip-rule="evenodd" d="M142.449 219.236C142.816 222.644 142.958 227.911 142.958 231.961V237.022C142.958 237.022 149.171 243.342 151.416 248.363C153.923 253.972 154.155 265.601 154.155 265.601L141.565 273.614C135.285 277.912 121.83 285.975 110.265 278.654C98.3631 269.332 101.903 242.416 105.459 231.267C107.77 232.103 110.329 232.979 113.244 233.931C118.883 235.772 121.527 229.945 123.01 226.309C127.297 225.663 137.801 223.467 142.449 219.236Z" fill="#B5602A"/>
<path d="M142.318 218.169C142.318 218.169 144.92 217.101 145.874 215.83C147.095 214.202 146.915 211.377 146.915 211.377V210.292V199.299C146.856 194.024 147.091 182.313 148.501 177.674C150.263 171.876 154.395 164.507 150.967 157.651C150.173 156.032 148.475 153.662 145.441 151.339C144.666 150.745 143.803 150.154 142.846 149.58C141.807 148.956 140.657 148.352 139.386 147.784C138.586 147.427 137.738 147.083 136.839 146.759C136.591 146.66 136.34 146.562 136.086 146.465C135.181 146.117 134.246 145.779 133.315 145.479C132.313 145.156 131.316 144.877 130.368 144.676C127.107 143.984 124.422 144.214 124.073 146.759C123.822 148.585 124.87 151.68 130.368 154.576C131.124 154.974 131.97 155.308 132.822 155.639C132.822 155.639 132.823 155.639 132.823 155.639C132.88 155.661 132.936 155.683 132.993 155.705C134.55 156.308 136.109 156.911 137.16 157.883C137.145 160.959 137.728 167.531 140.017 171.78C139.102 175.373 137.16 183.649 135.878 189.993C134.597 196.336 126.94 216.676 123.01 226.309C127.297 225.663 137.801 223.467 142.449 219.236C142.408 218.856 142.364 218.499 142.318 218.169Z" fill="#EFA800"/>
<path d="M89.0244 208.894C87.6788 211.569 87.0221 213.905 90.2258 215.43L114.942 225.505C118.402 226.735 119.455 224.128 120.052 222.574C123.975 212.369 126.466 205.405 128.973 197.617C130.163 193.922 131.356 190.04 132.706 185.539C134.078 180.606 132.883 180.038 131.457 179.901C122.951 179.084 113.1 179.004 107.446 180.285C103.065 181.507 101.151 184.877 99.5259 187.74C99.4039 187.955 99.2836 188.167 99.164 188.375L96.1324 194.51L89.0244 208.894Z" fill="#AFD1FA"/>
<path fill-rule="evenodd" clip-rule="evenodd" d="M184.589 337.983C184.097 338.257 183.56 338.438 183.005 338.531C182.354 338.639 181.775 338.678 181.283 338.547C179.614 341.916 176.834 350.032 179.064 355.542C181.293 361.053 188.739 376.099 192.183 382.934C192.728 384.017 193.472 385.296 194.477 386.474C196.756 389.147 200.378 391.296 206.071 389.437C208.135 388.378 209.967 387.411 211.694 386.474C216.183 384.038 219.962 381.804 225.272 378.665C225.272 378.665 225.273 378.664 225.274 378.664L226.206 378.113C226.876 377.717 227.572 377.306 228.296 376.879C231.708 374.796 235.648 371.26 232.38 366.275L218.533 342.263L211.689 331.581C208.583 331.603 204.854 331.273 200.608 330.794C194.381 330.092 188.708 335.693 184.589 337.983ZM204.293 339.588C198.334 342.632 189.2 347.832 185.759 350.817C184.652 351.778 184.119 353.755 185.952 357.625C188.83 363.872 193.993 374.095 196.604 377.892C198.65 380.867 199.343 383.776 202.787 381.764C204.389 380.829 217.219 373.803 223.435 370.407C226.734 368.437 225.437 366.563 224.316 364.769L210.107 341.526C208.006 337.69 206.914 338.248 204.386 339.54L204.293 339.588Z" fill="#4766C0"/>
<path d="M185.759 350.817C189.2 347.832 198.334 342.632 204.293 339.588L204.386 339.54C206.914 338.248 208.006 337.69 210.107 341.526L224.316 364.769C225.437 366.563 226.734 368.437 223.435 370.407C217.219 373.803 204.389 380.829 202.787 381.764C199.343 383.776 198.65 380.867 196.604 377.892C193.993 374.095 188.83 363.872 185.952 357.625C184.119 353.755 184.652 351.778 185.759 350.817Z" fill="#AFD1FA"/>
<path d="M211.694 386.474H228.296C228.296 382.424 226.902 379.213 226.206 378.113L225.274 378.664L225.272 378.665C219.962 381.804 216.183 384.038 211.694 386.474Z" fill="black"/>
<path fill-rule="evenodd" clip-rule="evenodd" d="M170.025 293.587L172.535 298.589C172.535 298.589 172.535 298.589 172.535 298.589C172.828 298.424 173.111 298.271 173.388 298.128L170.75 293.081C170.372 293.343 170.393 293.328 170.025 293.587Z" fill="#1E3A8D"/>
<path fill-rule="evenodd" clip-rule="evenodd" d="M132.822 155.639C132.822 155.639 132.823 155.639 132.823 155.639C133.34 156.555 134.725 159.383 133.668 161.736C132.895 163.454 128.878 163.018 128.878 163.018C128.878 163.018 129.177 165.127 128.878 166.285C128.443 167.973 127.366 168.929 125.69 169.409C123.657 169.991 120.741 167.455 120.741 167.455C121.599 170.274 120.452 172.392 118.995 172.613C116.201 173.035 114.009 171.458 112.276 169.409C110.7 170.612 108.842 171.658 106.866 172.771C101.791 175.629 95.9461 178.921 92.164 186.404L81.1742 212.336L81.1376 212.416C80.0156 214.866 78.3528 218.498 83.8973 221.45C91.4827 225.489 96.6863 228.093 105.459 231.267C107.77 232.103 110.329 232.979 113.244 233.931C118.883 235.772 121.527 229.945 123.01 226.309C126.94 216.676 134.597 196.336 135.878 189.993C137.16 183.649 139.102 175.373 140.017 171.78C137.728 167.531 137.145 160.959 137.16 157.883C136.109 156.911 134.55 156.308 132.993 155.705C132.936 155.683 132.879 155.661 132.822 155.639ZM89.0244 208.894C87.6788 211.569 87.0221 213.905 90.2258 215.43L114.942 225.505C118.402 226.735 119.455 224.128 120.052 222.574C123.975 212.369 126.466 205.405 128.973 197.617C130.163 193.922 131.356 190.04 132.706 185.539C134.078 180.606 132.883 180.038 131.457 179.901C122.951 179.084 113.1 179.004 107.446 180.285C103.065 181.507 101.151 184.877 99.5259 187.74C99.4039 187.955 99.2836 188.167 99.164 188.375L96.1324 194.51L89.0244 208.894Z" fill="#4766C0"/>
<path d="M130.368 154.576C124.87 151.68 123.822 148.585 124.073 146.759C124.422 144.214 127.107 143.984 130.368 144.676L132.871 139.536C130.834 138.242 130.069 135.712 129.951 134.585C128.798 138.686 120.853 142.53 117.185 144.1C115.791 146.294 115.994 148.179 116.256 149.226C117.777 153.07 124.073 159.189 128.878 163.018C128.878 163.018 132.895 163.454 133.668 161.736C134.725 159.383 133.34 156.555 132.823 155.639L132.822 155.639C131.97 155.308 131.124 154.974 130.368 154.576Z" fill="#EFA800"/>
<path d="M135.494 113.985L131.505 112.053L127.212 119.443C127.498 119.64 127.781 119.833 128.062 120.024C130.719 121.834 133.128 123.504 134.634 127.401C134.967 128.263 135.256 129.234 135.494 130.34C136.406 134.585 135.494 135.471 134.696 138.308C137.676 139.52 143.625 142.015 147.229 144.626C147.229 144.626 149.347 140.094 151.56 139.326C153.608 138.616 157.07 139.999 157.07 139.999C158.064 140.336 160.546 140.227 160.546 138.878C160.546 134.873 158.544 131.429 158.544 131.429C154.668 123.324 150.743 121.866 147.011 120.024L135.494 113.985Z" fill="#4766C0"/>
<path d="M132.871 139.536L130.368 144.676C131.316 144.877 132.313 145.156 133.315 145.479C134.246 145.779 135.181 146.117 136.086 146.465C136.34 146.562 136.591 146.66 136.839 146.759C137.738 147.083 138.586 147.427 139.386 147.784C140.657 148.352 141.807 148.956 142.846 149.58C143.803 150.154 144.666 150.745 145.441 151.339L147.812 145.125C145.441 142.85 137.597 139.428 133.668 137.901L132.871 139.536Z" fill="#AFD1FA"/>
<path d="M117.185 144.1C120.853 142.53 128.798 138.686 129.951 134.585C130.21 132.418 131.508 127.947 134.634 127.401C133.128 123.504 130.719 121.834 128.062 120.024C128.457 121.603 127.816 124.614 126.757 126.72C125.609 129.002 124.055 131.463 122 133.816C121.916 133.912 121.831 134.008 121.746 134.104C119.052 137.133 115.781 139.963 113.205 141.98C112.861 142.249 112.724 142.732 113.013 143.059C114.084 144.271 116.292 144.235 117.185 144.1Z" fill="#AFD1FA"/>
<path d="M124.713 108.763L120.725 115.251C122.593 116.584 124.931 117.868 127.212 119.443L131.505 112.053L124.713 108.763Z" fill="#AFD1FA"/>
<path d="M129.951 134.585C130.069 135.712 130.834 138.242 132.871 139.536L133.668 137.901C133.986 138.025 134.331 138.161 134.696 138.308C135.494 135.471 136.406 134.585 135.494 130.34C135.256 129.234 134.967 128.263 134.634 127.401C131.508 127.947 130.21 132.418 129.951 134.585Z" fill="black"/>
<path d="M259.49 139.999C259.49 139.999 263.735 135.698 265.659 132.535C268.161 128.421 269.616 120.857 269.616 120.857C269.616 120.857 275.247 121.818 279.515 114.946C281.348 111.995 281.229 106.216 281.229 106.216C281.229 106.216 287.064 104.599 289.735 98.0791C291.359 94.1138 291.232 91.1215 289.735 87.1065C288.37 83.4477 283.439 79.3376 283.439 79.3376C283.439 79.3376 283.439 71.0117 279.13 66.4428C276.371 63.5171 274.033 62.1311 270.048 61.5892C266.924 61.1644 262.055 62.7265 262.055 62.7265C262.055 62.7265 258.728 58.7972 255.279 58.2254C251.904 57.666 249.065 58.0961 246.293 60.0996C243.404 62.1868 241.231 67.6923 241.231 67.6923C241.231 67.6923 237.221 67.6923 235.096 71.2003C233.657 73.576 234.615 78.0722 234.615 78.0722C233.372 78.1375 231.515 78.3005 229.634 78.5855M259.49 139.999C258.433 142.146 256.287 145.493 252.522 146.839M259.49 139.999C259.49 139.999 259.738 138.505 259.978 136.075M259.49 139.999C259.49 139.999 259.741 138.485 259.983 136.025M223.274 80.5069C223.274 80.5069 217.316 80.5069 212.078 82.1248C208.144 83.3396 205.647 85.1755 202.499 87.8273C198.403 91.4315 191.462 99.729 193.352 106.889M223.274 80.5069C223.274 80.5069 232.981 81.2598 240.558 86.8022C249.79 93.555 253.789 99.8892 257.281 108.139C261.151 117.28 260.599 129.74 259.983 136.025M223.274 80.5069C224.43 79.5957 227.055 78.976 229.634 78.5855M193.352 106.889C195.867 102.708 202.915 94.3331 206.663 93.5299C212.078 92.3697 214.507 90.4704 215.602 89.1729C215.602 89.1729 215.621 91.7563 216.354 93.1615C217.525 95.4043 219.068 96.6988 221.592 96.8617C226.062 97.15 226.586 96.8013 229.441 97.2658C230.963 97.3928 234.135 98.7198 234.135 104.438C234.135 106.809 234.792 109.196 238.78 112.063C239.693 112.719 239.998 113.826 239.998 114.402C239.998 114.845 239.812 115.338 239.558 115.812C239.122 116.627 238.816 117.518 238.895 118.438C239.043 120.151 239.326 123.057 239.693 125.15C240.571 130.149 242.941 131.07 244.634 131.039C245.903 131.015 246.988 130.234 248.009 129.48C248.559 129.073 249.255 128.565 250.089 127.969C251.711 126.811 253.17 126.381 255.087 126.928C257.325 127.567 258.707 131.301 258.707 131.301C260.071 134.707 257.826 140.29 257.536 140.985C257.516 141.033 257.496 141.081 257.477 141.129C256.435 143.658 253.205 145.675 252.257 145.638M193.352 106.889C193.123 107.363 192.875 107.939 192.62 108.587C191.463 111.52 190.149 115.916 189.716 118.855C189.716 118.855 185.676 128.737 184.83 135.434C183.353 147.127 186.961 156.738 186.961 156.738C186.961 156.738 189.716 165.693 195.899 168.256C198.328 169.262 200.513 169.916 202.643 170.261M229.634 78.5855C229.634 78.5855 240.327 79.737 246.293 82.8136C251.333 84.9974 260.197 88.9006 264.906 104.438C269.616 119.976 263.416 133.303 259.978 136.075M259.978 136.075C259.979 136.058 259.981 136.042 259.983 136.025M259.978 136.075L259.983 136.025M232.357 160.242C232.357 160.242 231.805 160.971 230.435 162.056M202.643 170.261C206.526 170.891 210.225 170.495 214.881 169.345C223.351 167.252 228.091 163.913 230.435 162.056M202.643 170.261V173.494M202.643 177.738C202.643 177.738 201.318 187.787 204.293 192.075C207.433 196.601 210.622 197.906 216.13 197.906C224.577 197.906 229.745 194.362 235.796 188.931C241.696 183.634 246.32 172.904 246.32 172.904M202.643 177.738C208.116 177.426 220.103 174.791 230.435 162.056M202.643 177.738V175.616M246.32 172.904C242.048 170.654 242 164.403 242.44 161.335M246.32 172.904C246.621 173.063 246.942 173.201 247.286 173.317M252.522 146.839C252.639 147.477 252.588 147.817 252.476 148.423M252.522 146.839C252.466 146.53 252.347 145.925 252.257 145.638M242.44 161.335C241.969 164.619 242.058 171.549 247.286 173.317M242.44 161.335C243.751 163.616 246.002 164.75 248.89 164.443M242.44 161.335C242.432 161.32 242.423 161.305 242.415 161.29M247.286 173.317L251.114 173.974L254.271 174.512M254.271 174.512C255.321 173.522 256.672 173.01 258.675 173.317M254.271 174.512C254.247 174.535 254.223 174.558 254.199 174.581M243.634 145.974C243.742 146.414 243.812 146.842 243.938 147.255M245.469 149.178C245.26 148.593 245.167 147.94 245.204 147.255C245.33 144.895 246.998 142.489 249.336 142.834C250.9 143.066 251.803 144.189 252.257 145.638M245.469 149.178C244.513 148.588 244.148 147.942 243.938 147.255M245.469 149.178C245.562 149.438 245.677 149.685 245.815 149.915M243.938 147.255C243.938 147.255 241.476 151.223 241.231 154.079C240.974 157.073 241.415 159.521 242.415 161.29M248.89 164.443C253.296 163.976 255.711 159.641 255.49 155.217C255.247 150.363 252.476 148.423 252.476 148.423M248.89 164.443C245.983 164.752 243.721 163.601 242.415 161.29M252.476 148.423C252.314 149.3 251.691 150.315 251.114 150.902M245.815 149.915C246.44 150.96 247.512 151.652 248.904 151.677C249.904 151.694 250.499 151.527 251.114 150.902M245.815 149.915C245.815 149.915 244.146 152.029 244.146 154.944C244.146 159.179 245.675 160.495 248.391 160.455C251.077 160.415 252.065 158.121 252.065 155.435C252.065 152.734 251.114 150.902 251.114 150.902M202.643 173.494C200.277 173.814 195.515 174.608 194.169 175.224M202.643 173.494V175.616M194.169 175.224C192.977 175.598 189.059 180.537 187.249 182.96C180.904 191.745 171.583 207.82 164.018 227.443M194.169 175.224C194.169 175.224 183.308 175.948 174.931 180.093C167.629 183.706 164.225 187.223 158.736 193.244C153.347 199.156 146.915 210.292 146.915 210.292M202.643 175.616C202.643 175.616 197.414 181.919 187.249 201.638C182.342 211.157 175.988 226.643 175.988 226.643C175.988 226.643 183.639 230.5 199.513 232.714C209.463 234.101 225.238 232.714 225.238 232.714M225.238 232.714C225.225 232.29 225.239 231.844 225.278 231.377M225.238 232.714C225.262 233.47 225.372 234.153 225.581 234.748M225.581 234.748C225.748 234.899 226.107 235.087 226.565 235.064C227.068 235.04 227.709 235.154 228.063 235.511C228.925 236.381 230.701 237.693 233.467 238.746M225.581 234.748C225.255 233.821 225.169 232.679 225.278 231.377M258.675 173.317C262.728 173.938 268.68 174.345 271.586 174.823C276.34 175.605 280.814 177.583 283.711 178.864M258.675 173.317C256.627 173.004 255.26 173.545 254.199 174.581M283.92 178.956C287.973 181.246 295.309 187.798 301.86 192.427C305.198 194.173 312.282 198.383 313.922 201.253C317.382 207.901 312.198 211.444 310.462 212.45C308.748 213.443 307.904 216.126 307.546 217.306C302.502 205.002 296.616 196.333 293.627 192.86M283.92 178.956L283.711 178.864M283.92 178.956C283.851 178.926 283.782 178.895 283.711 178.864M233.467 238.746C233.467 238.746 233.467 238.746 233.467 238.746M233.467 238.746L233.467 238.746M172.144 284.02C167.569 285.046 163.168 289.253 161.54 291.229C160.031 293.059 159.629 297.029 163.065 297.364C164.307 297.485 165.471 296.852 166.482 296.12C167.555 295.343 168.839 294.422 170.025 293.587M172.144 284.02C170.409 284.409 168.698 285.256 167.155 286.265C166.418 284.951 162.018 274.964 160.498 269.78C159.768 267.29 159.216 264.909 158.814 262.636M172.144 284.02L172.161 284.017M172.144 284.02C172.149 284.019 172.155 284.018 172.161 284.017M178.807 288.024C180.425 286.983 179.8 284.456 178.935 284.116M178.807 288.024C176.808 288.991 173.674 291.05 170.75 293.081M178.807 288.024C187.895 290.427 212.161 296.149 231.652 291.229C225.193 282.168 224.924 261.183 226.206 253.425C226.206 253.425 206.981 253.93 194.874 252.144C180.649 250.045 172.528 245.496 172.528 245.496C172.528 245.496 170.001 253.826 170.926 263.869C171.851 273.913 176.789 283.634 176.789 283.634M178.807 288.024C178.001 288.414 177.01 288.982 175.923 289.654L179.224 296.198M178.935 284.116C178.248 283.845 177.517 283.699 176.789 283.634M178.935 284.116C176.536 283.171 173.604 283.738 172.161 284.017M170.025 293.587L172.535 298.589M170.025 293.587C170.393 293.328 170.372 293.343 170.75 293.081M172.535 298.589C171.906 298.943 171.035 299.46 170.318 299.911M172.535 298.589C172.535 298.589 172.535 298.589 172.535 298.589M170.75 293.081L173.388 298.128M173.392 298.136L173.388 298.128M179.224 296.199L179.224 296.198M176.789 283.634C174.978 283.472 173.19 283.818 172.161 284.017M146.915 210.292V211.377M146.915 210.292V199.299M230.947 246.249C231.341 244.539 232.222 241.532 233.467 238.746M142.958 231.961C146.123 233.696 153.884 239.566 158.013 249.741M142.958 231.961V237.022M142.958 231.961C142.958 227.911 142.816 222.644 142.449 219.236M158.013 249.741C158.55 240.552 161.421 233.948 163.173 229.67C163.452 228.923 163.734 228.181 164.018 227.443M158.013 249.741C157.788 253.581 157.971 257.873 158.814 262.636M146.915 211.377C146.915 211.377 147.095 214.202 145.874 215.83C144.92 217.101 142.318 218.169 142.318 218.169C142.364 218.499 142.408 218.856 142.449 219.236M146.915 211.377V199.299M146.915 199.299C146.856 194.024 147.091 182.313 148.501 177.674C150.263 171.876 154.395 164.507 150.967 157.651C150.173 156.032 148.475 153.662 145.441 151.339M137.704 158.484C137.544 158.269 137.361 158.069 137.16 157.883M137.16 157.883C137.145 160.959 137.728 167.531 140.017 171.78M137.16 157.883C136.109 156.911 134.55 156.308 132.993 155.705M141.02 173.333C140.654 172.865 140.321 172.343 140.017 171.78M123.01 226.309C126.94 216.676 134.597 196.336 135.878 189.993C137.16 183.649 139.102 175.373 140.017 171.78M123.01 226.309C121.527 229.945 118.883 235.772 113.244 233.931C110.329 232.979 107.77 232.103 105.459 231.267M123.01 226.309C127.297 225.663 137.801 223.467 142.449 219.236M142.467 219.219C142.461 219.225 142.455 219.23 142.449 219.236M142.958 237.022C142.958 237.022 149.171 243.342 151.416 248.363C153.923 253.972 154.155 265.601 154.155 265.601M142.958 237.022C143.006 240.963 142.853 248.066 141.404 253.217M154.155 265.601L158.814 262.636M154.155 265.601L141.565 273.614M158.814 262.636L141.565 273.614M141.565 273.614C135.285 277.912 121.83 285.975 110.265 278.654C98.3631 269.332 101.903 242.416 105.459 231.267M112.276 169.409C111.274 168.224 110.426 166.882 109.704 165.677M112.276 169.409C114.009 171.458 116.201 173.035 118.995 172.613M112.276 169.409C110.7 170.612 108.842 171.658 106.866 172.771C101.791 175.629 95.9461 178.921 92.164 186.404L81.1742 212.336M81.1742 212.336L81.1376 212.416M81.1742 212.336C81.1621 212.362 81.1498 212.389 81.1376 212.416M105.459 231.267C96.6863 228.093 91.4827 225.489 83.8973 221.45C78.3528 218.498 80.0156 214.866 81.1376 212.416M170.414 323.902C161.7 341.346 146.434 379.586 143.807 386.474H194.477M170.414 323.902C171.542 324.784 172.752 325.284 172.752 325.284M170.414 323.902C169.688 323.335 168.997 322.611 168.684 321.76M112.571 155.713C110.473 156.482 106.693 160.647 109.704 165.677M112.571 155.713C112.358 154.085 112.796 150.507 116.256 149.226M112.571 155.713C115.283 160.39 117.152 162.946 120.741 167.455M109.704 165.677C111.674 168.967 114.587 173.279 118.995 172.613M118.995 172.613C120.452 172.392 121.599 170.274 120.741 167.455M120.741 167.455C120.741 167.455 123.657 169.991 125.69 169.409C127.366 168.929 128.443 167.973 128.878 166.285C129.177 165.127 128.878 163.018 128.878 163.018M116.256 149.226C115.994 148.179 115.791 146.294 117.185 144.1M116.256 149.226C117.777 153.07 124.073 159.189 128.878 163.018M117.185 144.1C120.853 142.53 128.798 138.686 129.951 134.585M117.185 144.1C116.292 144.235 114.084 144.271 113.013 143.059C112.724 142.732 112.861 142.249 113.205 141.98C115.781 139.963 119.052 137.133 121.746 134.104M128.878 163.018C128.878 163.018 132.895 163.454 133.668 161.736C134.725 159.383 133.34 156.555 132.823 155.639M132.993 155.953C132.993 155.953 132.714 155.445 132.823 155.639M129.951 134.585C130.069 135.712 130.834 138.242 132.871 139.536M129.951 134.585C130.21 132.418 131.508 127.947 134.634 127.401M164.295 204.025C162.605 211.089 160.434 227.443 164.018 227.443M132.871 139.536L130.368 144.676M132.871 139.536L133.668 137.901M128.062 120.024C128.457 121.603 127.816 124.614 126.757 126.72M128.062 120.024C130.719 121.834 133.128 123.504 134.634 127.401M128.062 120.024C127.781 119.833 127.498 119.64 127.212 119.443M126.757 126.72C125.609 129.002 124.055 131.463 122 133.816C121.916 133.912 121.831 134.008 121.746 134.104M126.757 126.72C126.757 126.72 120.549 122.315 118.162 126.72C116.645 129.519 121.746 134.104 121.746 134.104M127.212 119.443C124.931 117.868 122.593 116.584 120.725 115.251L124.713 108.763L131.505 112.053M127.212 119.443L131.505 112.053M127.212 119.443C130.2 121.506 132.969 123.093 134.634 127.401M131.505 112.053L135.494 113.985L147.011 120.024C150.743 121.866 154.668 123.324 158.544 131.429C158.544 131.429 160.546 134.873 160.546 138.878C160.546 140.227 158.064 140.336 157.07 139.999C157.07 139.999 153.608 138.616 151.56 139.326C149.347 140.094 147.229 144.626 147.229 144.626C143.625 142.015 137.676 139.52 134.696 138.308M134.696 138.308C135.494 135.471 136.406 134.585 135.494 130.34C135.256 129.234 134.967 128.263 134.634 127.401M134.696 138.308C134.331 138.161 133.986 138.025 133.668 137.901M245.4 242.571C240.908 235.253 237.892 233.894 236.409 233.915C235.291 235.126 234.298 236.887 233.467 238.746M245.4 242.571C245.568 242.844 245.737 243.125 245.908 243.414C245.908 243.414 250.212 249.973 254.03 249.196C255.157 248.967 256.151 248.141 256.939 247.226M245.4 242.571C245.4 242.571 243.088 252.088 244.016 258.936C244.898 265.445 246.67 270.136 249.702 275.963M249.702 275.963C251.971 280.323 256.64 286.02 256.963 286.412M249.702 275.963C251.971 280.323 256.64 286.02 256.963 286.412M256.98 286.434C256.98 286.434 256.974 286.427 256.963 286.412M178.935 296.258C179.033 296.238 179.129 296.218 179.224 296.198M178.935 296.258C176.575 296.758 175.083 297.254 173.388 298.128M178.935 296.258C176.284 296.82 174.528 297.489 172.535 298.589M170.318 299.911C166.275 302.448 164.209 304.459 161.54 308.416C159.724 311.107 155.581 315.913 158.736 319.325C160.194 320.67 164.07 319.863 168.171 315.224C168.459 314.942 168.775 314.637 169.116 314.313C169.649 313.808 170.242 313.26 170.878 312.688M170.318 299.911C171.118 299.408 171.841 298.972 172.535 298.589M260.918 239.826C260.195 241.703 259.485 243.192 258.867 244.231C258.867 244.231 258.141 245.831 256.939 247.226M260.918 239.826C262.9 234.68 264.979 226.613 265.531 216.871L266.376 211.006C266.378 210.986 266.381 210.968 266.384 210.949C266.469 210.421 267.777 202.471 270.176 196.496C275.586 183.025 281.934 184.755 281.934 184.755C283.589 184.851 288.245 186.606 293.627 192.86M260.918 239.826C261.438 241.779 262.118 244.386 262.838 247.226M266.844 265.263C266.441 261.854 264.643 254.352 262.838 247.226M266.844 265.263C267.189 268.178 268.052 267.954 271.858 267.826M266.844 265.263C274.522 257.158 295.95 241.876 318.055 246.345C318.397 246.455 318.689 246.587 318.936 246.737M256.939 247.226C256.939 247.226 258.726 248.241 259.972 248.219C261.157 248.199 262.838 247.226 262.838 247.226M130.368 144.676C127.107 143.984 124.422 144.214 124.073 146.759C123.822 148.585 124.87 151.68 130.368 154.576C131.124 154.974 131.97 155.308 132.822 155.639M130.368 144.676L133.668 137.901M130.368 144.676C131.316 144.877 132.313 145.156 133.315 145.479M133.668 137.901C137.597 139.428 145.441 142.85 147.812 145.125L145.441 151.339M145.441 151.339C144.666 150.745 143.803 150.154 142.846 149.58M271.858 267.826L271.201 264.35C274.298 261.125 283.343 254.771 297.199 252.32C302.181 251.669 309.331 250.439 312.753 251.439L313.986 256.837M271.858 267.826C272.412 270.292 274.07 276.378 275.261 278.927M275.27 278.946C275.267 278.94 275.264 278.933 275.261 278.927M285.009 275.851C285.009 275.851 280.248 277.256 275.261 278.927M243.431 293.263C243.431 293.263 243.461 293.247 243.519 293.215M134.933 141.345L133.315 145.479M133.315 145.479C134.246 145.779 135.181 146.117 136.086 146.465M137.496 142.482L136.086 146.465M136.086 146.465C136.34 146.562 136.591 146.66 136.839 146.759C137.738 147.083 138.586 147.427 139.386 147.784M140.716 143.972L139.386 147.784M139.386 147.784C140.657 148.352 141.807 148.956 142.846 149.58M144.096 145.894L142.846 149.58M183.805 304.155C180.718 304.461 174.928 309.047 170.878 312.688M168.684 321.76C169.484 323.934 172.752 325.284 172.752 325.284M168.684 321.76C167.883 319.585 168.072 316.105 170.878 312.688M172.752 325.284C172.752 325.284 172.547 328.166 173.601 329.897C174.785 331.84 178.087 333.677 178.087 333.677M172.752 325.284C173.847 323.03 178.375 317.262 187.73 312.213M178.087 333.677C178.583 331.825 180.009 328.471 185.759 325.22L193.993 321.007M178.087 333.677C178.149 335.28 178.86 337.901 181.283 338.547M181.283 338.547C181.775 338.678 182.354 338.639 183.005 338.531C183.56 338.438 184.097 338.257 184.589 337.983C188.708 335.693 194.381 330.092 200.608 330.794C204.854 331.273 208.583 331.603 211.689 331.581M181.283 338.547C179.614 341.916 176.834 350.032 179.064 355.542C181.293 361.053 188.739 376.099 192.183 382.934C192.728 384.017 193.472 385.296 194.477 386.474M218.533 342.263L232.38 366.275C235.648 371.26 231.708 374.796 228.296 376.879C227.572 377.306 226.876 377.717 226.206 378.113M218.533 342.263C220.487 340.186 224.46 335.904 224.716 335.391H248.023C250.458 335.391 254.616 334.513 254.526 330.554C258.131 330.417 264.703 329.888 272.403 328.747M218.533 342.263L211.689 331.581M313.986 256.837C316.685 255.069 322.352 248.819 318.936 246.737M313.986 256.837L317.014 273C318.824 285.03 322.268 300.92 309.677 309.586C304.808 312.937 296.414 315.767 291.769 317.242M293.627 192.86C296.757 196.496 303.062 205.828 308.252 219.066L318.936 246.737M249.833 327.126C248.455 331.707 229.425 330.239 220.567 329.096C218.907 330.888 215.861 331.552 211.689 331.581M249.833 327.126L249.838 327.11M249.833 327.126C249.835 327.121 249.836 327.116 249.838 327.11M291.769 317.242C291.769 317.242 292.992 319.586 294.8 323.954M291.769 317.242C274.822 322.625 259.801 323.693 250.793 323.954M294.8 323.954C297.058 329.411 300.227 338.027 303.062 349.183C306.594 363.084 308.604 386.474 308.604 386.474H228.296M294.8 323.954C287.323 326.168 279.397 327.711 272.403 328.747M204.293 339.588C198.334 342.632 189.2 347.832 185.759 350.817C184.652 351.778 184.119 353.755 185.952 357.625C188.83 363.872 193.993 374.095 196.604 377.892C198.65 380.867 199.343 383.776 202.787 381.764C204.389 380.829 217.219 373.803 223.435 370.407C226.734 368.437 225.437 366.563 224.316 364.769L210.107 341.526C208.006 337.69 206.914 338.248 204.386 339.54M204.293 339.588L204.386 339.54M204.293 339.588C204.324 339.572 204.355 339.556 204.386 339.54M194.477 386.474C196.756 389.147 200.378 391.296 206.071 389.437C208.135 388.378 209.967 387.411 211.694 386.474M211.694 386.474H228.296M211.694 386.474C216.183 384.038 219.962 381.804 225.272 378.665M272.403 328.747C272.403 328.747 275.663 337.739 279.563 342.263C288.87 353.06 294.8 354.838 294.8 354.838M226.206 378.113C226.902 379.213 228.296 382.424 228.296 386.474M226.206 378.113L225.274 378.664M226.206 378.113C225.89 378.3 225.579 378.483 225.274 378.664M250.793 323.954C251.268 322.151 251.757 319.823 251.963 317.242C252.886 305.927 247.622 297.7 244.082 293.888C243.885 293.636 243.698 293.412 243.519 293.215M250.793 323.954C250.417 325.38 250.05 326.478 249.838 327.11M179.224 296.198C183.244 295.372 185.291 295.502 189.091 296.258C196.011 297.636 205.43 301.977 205.43 301.977C207.107 302.762 210.54 303.915 214.721 301.977L238.524 292.782C240.663 291.962 241.609 291.102 243.519 293.215M256.963 286.412C261.363 284.361 266.07 282.269 269.824 280.849C271.511 280.21 273.401 279.55 275.261 278.927M256.963 286.412C250.242 289.546 244.307 292.783 243.519 293.215M225.278 231.377C226.04 222.267 236.309 205.346 239.901 199.684C243.186 194.506 249.941 181.914 252.908 176.265C253.299 175.624 253.717 175.051 254.199 174.581M225.274 378.664L225.272 378.665M225.274 378.664C225.273 378.664 225.272 378.665 225.272 378.665M172.535 298.589C172.828 298.424 173.111 298.271 173.388 298.128M132.822 155.639C132.822 155.639 132.823 155.639 132.823 155.639M132.822 155.639C132.879 155.661 132.936 155.683 132.993 155.705M132.822 155.639L132.823 155.639M132.823 155.639C132.88 155.661 132.936 155.683 132.993 155.705M99.164 188.375L96.1324 194.51L89.0244 208.894C87.6788 211.569 87.0221 213.905 90.2258 215.43L114.942 225.505C118.402 226.735 119.455 224.128 120.052 222.574C123.975 212.369 126.466 205.405 128.973 197.617C130.163 193.922 131.356 190.04 132.706 185.539C134.078 180.606 132.883 180.038 131.457 179.901C122.951 179.084 113.1 179.004 107.446 180.285C103.065 181.507 101.151 184.877 99.5259 187.74C99.4039 187.955 99.2836 188.167 99.164 188.375Z" stroke="black" stroke-width="0.532151" stroke-linecap="round"/>
<path d="M196.219 118.118C194.587 117.609 193.227 119.36 192.967 121.05C192.718 122.668 193.34 124.573 194.97 124.734C196.547 124.89 197.45 123.302 197.709 121.738C197.958 120.23 197.678 118.574 196.219 118.118Z" fill="black"/>
<path d="M217.7 123.052C216.005 122.344 214.383 124.038 213.887 125.807C213.417 127.486 213.746 129.653 215.457 129.988C216.975 130.285 217.975 128.976 218.581 127.553C219.283 125.905 219.353 123.742 217.7 123.052Z" fill="black"/>
<path d="M196.219 118.118C194.587 117.609 193.227 119.36 192.967 121.05C192.718 122.668 193.34 124.573 194.97 124.734C196.547 124.89 197.45 123.302 197.709 121.738C197.958 120.23 197.678 118.574 196.219 118.118Z" stroke="black" stroke-width="0.798226" stroke-linecap="round"/>
<path d="M217.7 123.052C216.005 122.344 214.383 124.038 213.887 125.807C213.417 127.486 213.746 129.653 215.457 129.988C216.975 130.285 217.975 128.976 218.581 127.553C219.283 125.905 219.353 123.742 217.7 123.052Z" stroke="black" stroke-width="0.798226" stroke-linecap="round"/>
<path d="M248.487 135.963C248.487 135.963 249.481 134.348 250.65 133.344M254.991 131.974C254.991 131.974 252.627 132.125 251.355 132.839C251.117 132.972 250.88 133.147 250.65 133.344M250.65 133.344C250.65 133.344 252.61 135.116 252.908 136.651C253.469 139.535 251.355 140.72 251.355 140.72" stroke="black" stroke-width="0.798226" stroke-linecap="round"/>
<path d="M205.495 114.45C205.21 117.737 205.328 120.711 203.237 123.96C201.195 127.134 195.92 127.145 194.445 130.62C194.217 131.158 194.105 131.851 194.138 132.759C194.148 134.687 195.656 138.266 201.602 137.164M191.622 148.089C191.622 148.089 196.215 150.166 199.36 150.684C202.563 151.211 207.672 150.684 207.672 150.684M196.38 152.894C197.17 153.578 199.321 154.829 201.602 154.368" stroke="black" stroke-width="0.798226" stroke-linecap="round"/>
<path d="M210.677 116.423C210.677 116.423 214.407 113.852 218.704 114.641C223.699 115.557 227.041 118.816 227.041 118.816" stroke="black" stroke-width="2.92683" stroke-linecap="round"/>
<path d="M193.338 109.03C199.914 107.834 201.986 113.809 201.986 113.809" stroke="black" stroke-width="2.92683" stroke-linecap="round"/>
</g>
<defs>
<clipPath id="clip0_827_1057">
<rect width="400" height="297" fill="white"/>
</clipPath>
</defs>
</svg>
