<svg width="128" height="128" viewBox="0 0 128 128" fill="none" xmlns="http://www.w3.org/2000/svg">
<path d="M64.1699 0.339844C99.4223 0.339844 128 28.9175 128 64.1699C128 86.3206 116.716 105.835 99.584 117.281C99.2149 116.769 98.7872 116.191 98.3252 115.56L98.3379 115.507C95.3158 111.39 91.1864 105.737 90.6133 102.181L90.5615 101.842C89.8711 97.5689 88.2686 87.5646 84.999 83.292C80.8827 77.9121 76.8052 72.3628 74.8643 68.1943C74.3562 67.1132 73.6783 65.798 72.9619 64.4043C70.7995 60.2097 68.1168 54.9856 67.5957 51.3643C67.3091 49.4233 67.4257 47.0784 67.543 44.7988C67.6211 43.314 67.6868 41.9073 67.6348 40.7871C67.5698 39.4619 67.3361 39.1082 67.2832 39.0547C66.9445 38.9244 66.5796 39.0416 66.2148 39.2891C66.1888 39.3151 66.1494 39.3405 66.1104 39.3535C65.3418 39.9267 64.6122 41.0999 64.1953 41.9336C64.1312 42.0649 64.043 42.1759 63.9395 42.2656L61.126 46.6143C60.7806 47.354 60.3449 48.3321 59.9619 49.4492V49.4756C59.9229 49.5927 59.884 49.7098 59.832 49.8398C59.1156 52.0542 58.62 54.725 59.3623 57.1738C59.8964 58.9194 60.7952 60.7177 61.668 62.4502C62.9185 64.9512 64.104 67.3217 64.2734 69.5752C66.0972 70.8388 67.8561 71.985 69.3281 72.7666C74.2261 75.3849 77.2484 76.8831 79.4238 77.7559C80.9087 78.3551 81.8857 79.632 81.9639 81.0908C82.0551 82.8103 80.9088 84.4393 78.8115 85.5596C77.9648 86.0155 76.9484 86.2363 75.75 86.2363C74.4604 86.2363 72.9753 85.9755 71.2949 85.4414C68.8199 84.6598 66.5139 83.4876 65.2764 82.8623C65.1334 82.7973 65.0162 82.7327 64.9121 82.6807C64.6386 82.5374 64.2868 82.4069 63.9092 82.2637C64.8731 83.2146 66.0064 84.5044 67.374 86.0674C68.5334 87.4091 70.2918 89.4283 70.7998 89.6758C71.4251 89.9493 71.8294 90.5352 71.8945 91.2646C71.9857 92.2026 71.49 93.2578 70.6562 94.0264C77.9848 96.2653 81.3986 100.156 81.5596 100.344C81.9504 100.8 81.8983 101.465 81.4424 101.855C81.234 102.025 80.9866 102.116 80.7393 102.116C80.4397 102.116 80.1401 101.986 79.9316 101.738C79.9316 101.738 78.8629 100.514 76.6875 99.1201C74.6945 97.8305 71.3209 96.1241 66.5664 95.2383C65.7327 95.1471 64.7814 94.873 63.7002 94.3389C60.6132 92.7888 59.128 91.3562 58.0469 90.2881C57.5128 89.767 57.1216 89.3891 56.6787 89.1025C56.0404 90.4442 54.803 92.0462 52.9795 93.9219C51.1821 95.7583 49.1764 97.4647 48.1992 98.1162C48.0168 98.2465 47.808 98.2988 47.5996 98.2988C47.2609 98.2988 46.9223 98.1297 46.7139 97.8301C46.3752 97.3351 46.5051 96.6704 47 96.3447C48.5111 95.3156 53.1621 91.1737 54.6211 88.4512C53.2273 88.1776 52.1197 88.099 51.6768 88.0859C51.0124 88.3725 49.0198 89.2068 47.2744 89.6758C46.7012 89.8321 46.1143 89.4931 45.958 88.9199C45.8018 88.3468 46.1407 87.7608 46.7139 87.6045C47.821 87.3049 49.0716 86.8361 49.9443 86.4844C49.1108 85.3903 48.59 84.3349 48.3945 83.3711C48.2773 82.7851 48.6416 82.2249 49.2275 82.1074C49.8136 81.9902 50.3738 82.3545 50.4912 82.9404C50.7257 84.0868 51.7292 85.351 52.3154 85.9893C53.1882 86.0544 54.6475 86.2231 56.3408 86.666C57.7865 87.0438 58.6068 87.8519 59.5576 88.7637C60.5997 89.7797 61.8901 91.03 64.6777 92.4238C65.4853 92.8276 66.1756 93.0361 66.7617 93.1143C66.8138 93.1143 66.8532 93.1149 66.9053 93.1279C67.9861 93.232 68.6766 92.8933 69.0674 92.5938C69.5492 92.2291 69.7444 91.786 69.7705 91.5645C68.9108 91.0824 67.7123 89.7277 65.7715 87.4873C64.1303 85.5987 61.8772 82.9935 60.9131 82.5762C59.9231 82.1463 58.5938 81.0653 56.9004 79.6846L56.7832 79.5928C54.5166 77.743 51.7288 75.4899 49.4883 74.7344C48.0815 74.2655 47.0522 74.6036 46.0361 75.9062C44.981 77.248 44.1862 79.3454 43.3916 81.5469C42.7924 83.2012 41.8422 85.1554 40.8262 87.2266C39.25 90.4441 37.2828 94.4436 37.4912 96.2412C37.5436 96.7496 38.1563 98.2741 42.5713 101.543C45.4501 103.679 49.0066 105.868 51.7812 107.535C54.0605 108.903 55.0375 109.71 55.9102 110.427C57.1477 111.443 58.2164 112.329 62.9189 114.726C70.9951 118.855 76.375 118.503 80.9863 117.526C84.0606 116.862 84.6082 113.839 84.96 110.244C85.0381 109.515 85.1029 108.825 85.207 108.265C85.3243 107.678 85.8845 107.314 86.4707 107.418C87.0569 107.535 87.4216 108.095 87.3174 108.682C87.2262 109.151 87.1608 109.789 87.0957 110.453C86.9394 112.016 86.7447 113.97 86.0283 115.689C85.1295 117.839 83.579 119.167 81.4297 119.623C79.2803 120.079 77.3651 120.313 75.4893 120.313C74.6035 120.313 73.7305 120.262 72.8447 120.171C71.6334 120.041 70.4086 119.806 69.1582 119.48C70.7974 121.338 72.1937 123.711 74.0703 127.235C70.8437 127.738 67.5374 128 64.1699 128C28.9175 128 0.339844 99.4223 0.339844 64.1699C0.339844 28.9175 28.9175 0.339844 64.1699 0.339844ZM62.2158 32.1631C62.1767 32.1631 61.4855 32.2152 59.7529 34.3516C58.5936 35.7975 57.4479 37.5825 56.6143 38.8721C56.5231 39.0153 56.4316 39.1452 56.3535 39.2754C55.598 40.4478 53.8131 42.7147 51.7939 45.2158V45.2422C49.7358 47.7432 47.4698 50.466 45.7764 52.498C45.4247 52.9149 45.1111 53.2928 44.8115 53.6445C43.5743 55.1425 42.8839 57.2007 42.4541 59.4932C42.4541 59.5322 42.4537 59.5713 42.4277 59.6104C42.1021 61.4209 41.9203 63.3617 41.751 65.2764C41.6338 66.6049 41.516 67.8557 41.3467 69.0801C40.9819 71.7245 40.2913 74.0697 39.666 76.1279C39.0277 78.2511 38.4684 80.0879 38.4814 81.6641C38.4814 85.09 38.0124 87.1357 37.9863 87.2139V87.2656C37.817 87.7867 37.7383 88.256 37.6992 88.6729C38.077 87.8783 38.481 87.0573 38.8848 86.2236C39.8748 84.2046 40.8002 82.3027 41.3604 80.7656C42.2201 78.3948 43.0795 76.1277 44.3301 74.5254C45.9063 72.5064 47.8737 71.8678 50.1533 72.6494C52.7455 73.5223 55.7025 75.9192 58.1123 77.873C58.6985 78.355 60.6 78.9285 62.124 79.3975C63.57 79.8404 64.9381 80.2576 65.876 80.7266C65.9802 80.7786 66.1107 80.8438 66.2539 80.9219C67.4394 81.5211 69.6278 82.6286 71.9463 83.3711C74.5643 84.2047 76.5834 84.2956 77.7949 83.6445C79.1364 82.9282 79.866 82.0292 79.8271 81.1826C79.7881 80.5704 79.3322 80.0102 78.6289 79.7236C76.3753 78.8118 73.3013 77.2869 68.3252 74.6426C66.0195 73.4181 63.1529 71.3866 60.3652 69.4326C57.6688 67.5308 54.6076 65.3807 53.4482 65.042C51.2208 64.4038 48.7588 64.8342 47.834 66.0195C46.6487 67.5565 46.2316 68.4553 44.9941 71.373C44.7597 71.92 44.1349 72.1675 43.5879 71.9463C43.0408 71.7118 42.7932 71.0862 43.0146 70.5391C44.2781 67.5563 44.7859 66.4356 46.1406 64.7031C47.3912 63.1011 49.7099 62.502 51.9111 62.6191C51.82 62.1112 51.7295 61.5376 51.6904 61.0166C51.5733 59.5186 52.1725 57.4609 53.2666 55.5332C53.7355 54.7125 54.5039 53.7485 55.3115 52.7324C56.3015 51.4949 57.396 50.1137 57.7998 49.1367C58.3339 47.4955 58.9845 46.1273 59.4014 45.2285C59.4565 45.1096 59.5315 45.006 59.6201 44.9189L62.4199 40.7197C62.778 40.0474 63.3871 39.0153 64.208 38.1943C64.3252 38.0771 64.43 37.986 64.5342 37.8818C64.7686 35.9279 64.3905 34.6123 64.0127 33.8438C63.5699 32.9451 62.9191 32.3325 62.2158 32.1631ZM56.8877 54.2168C56.1713 55.1156 55.52 55.9496 55.1553 56.5879L55.1426 56.6006C54.0744 58.4634 53.7747 60.0267 53.8398 60.8604C53.8919 61.5897 54.0745 62.5014 54.1787 63.0225C55.6247 63.4914 57.9698 65.1066 61.6172 67.6729L61.7471 67.7646C61.3042 66.41 60.5618 64.9247 59.7803 63.3877C58.8685 61.5771 57.93 59.6883 57.3438 57.7734C56.992 56.601 56.8616 55.4022 56.8877 54.2168ZM49.333 31.1455C48.9555 31.0154 48.6299 31.0939 48.3564 31.3672C47.4316 32.279 44.3565 38.5453 44.2783 41.3721C44.1871 44.4072 43.666 48.1325 42.8975 51.3369C42.7672 51.858 42.6765 52.4447 42.6113 53.083C42.7937 52.8095 42.9888 52.5483 43.1973 52.3008C43.4838 51.9491 43.8095 51.5584 44.1611 51.1416L44.1484 51.1543C45.8028 49.1743 47.9917 46.5433 49.9717 44.1074C50.5318 41.0722 51.1173 35.6661 50.7656 33.2822C50.5832 31.9927 49.8801 31.3279 49.333 31.1455ZM82.1074 29.835L73.4834 30.4082C72.8973 30.4474 72.4414 30.9555 72.4805 31.5547H72.4932C72.5322 32.1278 73.0015 32.5575 73.5615 32.5576H73.627L82.251 31.9844C82.8369 31.945 83.293 31.4369 83.2539 30.8379C83.2147 30.2389 82.7065 29.796 82.1074 29.835ZM74.084 16.7568C73.563 16.4833 72.9114 16.6784 72.6377 17.1992L68.6641 24.6504C68.3905 25.1714 68.5864 25.8231 69.1074 26.0967H69.0947C69.251 26.1878 69.4333 26.2266 69.6025 26.2266C69.9802 26.2265 70.3583 26.0189 70.5537 25.6543L74.5264 18.2021C74.7996 17.6813 74.6046 17.0305 74.084 16.7568ZM60.457 17.2275C60.1965 16.6935 59.5585 16.4719 59.0244 16.7324C58.4903 16.9929 58.2688 17.631 58.5293 18.165L61.8506 24.9648C62.033 25.3426 62.4246 25.5645 62.8154 25.5645C62.9716 25.5644 63.128 25.525 63.2842 25.46C63.818 25.1994 64.0395 24.5613 63.7793 24.0273L60.457 17.2275Z" fill="#FEBC23"/>
</svg>
