<svg width="239" height="65" viewBox="0 0 239 65" fill="none" xmlns="http://www.w3.org/2000/svg">
<circle cx="39.6226" cy="32.5767" r="19.6226" fill="#1E3A8A"/>
<mask id="mask0_1361_2157" style="mask-type:alpha" maskUnits="userSpaceOnUse" x="20" y="12" width="40" height="41">
<circle cx="39.6226" cy="32.5754" r="19.6226" fill="#1E3A8A"/>
</mask>
<g mask="url(#mask0_1361_2157)">
<path d="M40.5779 24.8513C40.5947 24.8685 40.6665 24.9781 40.6863 25.3835C40.7023 25.7278 40.682 26.1605 40.658 26.6169C40.622 27.3176 40.5865 28.0388 40.6746 28.6354C40.835 29.7487 41.6594 31.3549 42.324 32.6442C42.5442 33.0725 42.7529 33.477 42.909 33.8093C43.5057 35.0907 44.7589 36.7972 46.0242 38.4509C47.0291 39.7645 47.5219 42.8395 47.7342 44.153L47.7508 44.2575C47.9273 45.3508 49.1969 47.0889 50.1258 48.3542L50.1209 48.3698C50.317 48.6379 50.4936 48.8749 50.6297 49.071C50.5696 49.2633 50.4251 49.6476 50.1209 50.1159C49.3962 51.229 48.3475 51.9343 47.5906 52.3308C46.2215 53.0514 45.0838 53.2075 44.3709 53.2116H44.3426C43.8069 53.2116 43.4303 53.1279 43.2537 53.0798C42.3489 51.3463 41.8156 50.3247 41.1551 49.5759C41.5392 49.6759 41.9158 49.7478 42.2879 49.7878C42.56 49.8158 42.8292 49.8317 43.1014 49.8317C43.6779 49.8317 44.267 49.7599 44.9275 49.6198C45.588 49.4796 46.0644 49.0704 46.3406 48.4099C46.5608 47.8814 46.6217 47.2809 46.6697 46.8005C46.6897 46.5963 46.7091 46.3997 46.7371 46.2556C46.7691 46.0756 46.6572 45.9032 46.4773 45.8669C46.2971 45.8349 46.1247 45.9474 46.0887 46.1276C46.0567 46.2997 46.0365 46.512 46.0125 46.736C45.9044 47.841 45.7355 48.7699 44.7908 48.9743C43.3734 49.2746 41.7194 49.3829 39.2371 48.114C37.792 47.3774 37.4621 47.1049 37.0818 46.7927C36.8136 46.5725 36.5135 46.3232 35.8133 45.903C34.9604 45.3905 33.8662 44.7179 32.9813 44.0612C31.6251 43.0571 31.4361 42.5879 31.4197 42.4313C31.3557 41.8787 31.9606 40.649 32.4451 39.6599C32.7574 39.0232 33.05 38.4223 33.2342 37.9138C33.4784 37.2373 33.7225 36.5928 34.0467 36.1804C34.359 35.7799 34.6757 35.6758 35.1082 35.82C35.7968 36.0525 36.6539 36.7448 37.3504 37.3132L37.3865 37.3415C37.9068 37.7657 38.3157 38.098 38.6199 38.2302C38.9165 38.359 39.6098 39.1596 40.1141 39.7399C40.7106 40.4285 41.0793 40.8457 41.3436 40.9938C41.3353 41.062 41.2745 41.1984 41.1268 41.3102C41.0067 41.4022 40.7943 41.506 40.4627 41.4743C40.4468 41.4703 40.4336 41.4704 40.4178 41.4704C40.2378 41.4464 40.0251 41.3814 39.7772 41.2575C38.9209 40.8293 38.5241 40.4447 38.2039 40.1325C37.9117 39.8523 37.6587 39.6042 37.2147 39.488C36.6946 39.352 36.2458 39.3 35.9773 39.28C35.7972 39.0838 35.489 38.6948 35.4168 38.3425C35.3808 38.1624 35.2082 38.0509 35.0281 38.0866C34.8481 38.1226 34.7355 38.2943 34.7713 38.4743C34.8314 38.7704 34.9919 39.0952 35.2479 39.4313C34.9796 39.5394 34.5949 39.684 34.2547 39.7761C34.0787 39.8242 33.9753 40.0043 34.0232 40.1804C34.0715 40.3563 34.2515 40.4608 34.4275 40.4128C34.964 40.2686 35.5769 40.0126 35.7811 39.9245C35.9177 39.9286 36.2586 39.9529 36.6863 40.0368C36.2379 40.8736 34.8084 42.1469 34.3436 42.4636C34.1915 42.5636 34.1508 42.7675 34.2547 42.9196C34.3187 43.0114 34.4233 43.0641 34.5272 43.0642C34.5911 43.0641 34.6558 43.0475 34.7117 43.0075C35.0122 42.8071 35.6291 42.2828 36.1815 41.7184C36.7418 41.1421 37.1219 40.6493 37.3182 40.237C37.4541 40.3251 37.5751 40.4413 37.7391 40.6013C38.0714 40.9296 38.5287 41.37 39.4773 41.8464C39.8095 42.0104 40.1021 42.0947 40.3582 42.1227C41.8195 42.3951 42.8569 42.9197 43.4695 43.3161C44.1265 43.7371 44.4555 44.1081 44.4666 44.1208C44.5306 44.1965 44.6229 44.2369 44.7147 44.237C44.7906 44.2369 44.8675 44.2089 44.9315 44.1569C45.0711 44.0369 45.087 43.8331 44.9676 43.6931C44.9195 43.637 43.8699 42.4395 41.616 41.7507C41.8721 41.5145 42.0238 41.1892 41.9959 40.9011C41.9758 40.6773 41.8516 40.497 41.66 40.4128C41.5038 40.3367 40.9627 39.7159 40.6063 39.3034C40.186 38.8231 39.837 38.4267 39.5408 38.1345C39.6567 38.1784 39.7655 38.2184 39.8494 38.2624C39.8813 38.2784 39.9179 38.2981 39.9617 38.3181C40.3422 38.5103 41.051 38.8709 41.8113 39.111C42.3277 39.2751 42.7851 39.3561 43.1815 39.3561C43.5496 39.3561 43.8627 39.2873 44.1229 39.1472C44.7669 38.8029 45.1193 38.3023 45.0916 37.7741C45.0676 37.3258 44.7666 36.933 44.3104 36.7487C43.6417 36.4804 42.7121 36.0192 41.2068 35.2145C40.7545 34.9743 40.2135 34.6223 39.6531 34.2341C39.6011 33.5415 39.2367 32.8123 38.8523 32.0436C38.5841 31.5112 38.3076 30.958 38.1434 30.4216C37.9151 29.6688 38.0677 28.8475 38.2879 28.1667C38.3039 28.1267 38.3159 28.0903 38.3279 28.0544V28.0466C38.4458 27.7028 38.5802 27.402 38.6863 27.1745L39.5574 25.8298C39.5859 25.8034 39.6117 25.773 39.6297 25.736C39.7578 25.4798 39.9814 25.1193 40.2176 24.9431C40.2295 24.939 40.2419 24.9305 40.2498 24.9226C40.3618 24.8467 40.474 24.8114 40.5779 24.8513ZM39.0203 22.7321C39.2363 22.7843 39.437 22.9728 39.5731 23.2487C39.6891 23.4851 39.8053 23.8906 39.7332 24.4909C39.7013 24.5228 39.6694 24.5508 39.6336 24.5866C39.3785 24.8418 39.1895 25.1633 39.0799 25.3698L38.2313 26.6433C38.1996 26.6718 38.1741 26.7078 38.1551 26.7487C38.0269 27.025 37.8271 27.4463 37.6629 27.9509C37.5387 28.2511 37.2024 28.6752 36.8982 29.0554C36.65 29.3677 36.4135 29.6644 36.2693 29.9167C35.933 30.5094 35.7489 31.1427 35.785 31.6032C35.797 31.7632 35.8253 31.9395 35.8533 32.0954C35.1766 32.0594 34.4634 32.2435 34.0789 32.736C33.6625 33.2686 33.5064 33.6131 33.118 34.53C33.05 34.6981 33.1257 34.8905 33.2938 34.9626C33.4617 35.0303 33.6542 34.9545 33.7264 34.7868C34.1068 33.8898 34.235 33.6129 34.5994 33.1403C34.8838 32.7761 35.6404 32.6444 36.325 32.8405C36.6818 32.9451 37.6234 33.6057 38.452 34.1901C39.3086 34.7906 40.1897 35.4153 40.8982 35.7917C42.4276 36.6044 43.3735 37.0729 44.0662 37.3532C44.282 37.4413 44.4222 37.6136 44.4344 37.8015C44.4462 38.0615 44.2223 38.3382 43.8104 38.5583C43.438 38.7585 42.8162 38.7305 42.0115 38.4743C41.2992 38.2461 40.626 37.9056 40.2615 37.7214C40.2181 37.6977 40.1781 37.6777 40.1463 37.6618C39.8582 37.5178 39.4371 37.3896 38.993 37.2536C38.5251 37.1096 37.9407 36.9329 37.7596 36.7849C37.0189 36.1843 36.1091 35.4469 35.3123 35.1784C34.6116 34.9382 34.0068 35.1349 33.5223 35.7556C33.1379 36.2481 32.8735 36.9448 32.6092 37.6735C32.437 38.146 32.1527 38.7307 31.8484 39.3513C31.7244 39.6074 31.6003 39.8601 31.4842 40.1042C31.4962 39.9762 31.5201 39.8316 31.5721 39.6716V39.6559C31.5805 39.6303 31.7244 39.0015 31.7244 37.9499C31.7205 37.4654 31.8925 36.9004 32.0887 36.2477C32.2808 35.6152 32.4932 34.8944 32.6053 34.0817C32.6573 33.7054 32.6933 33.3202 32.7293 32.9118C32.7813 32.3235 32.8373 31.7269 32.9373 31.1706C32.9452 31.1588 32.9451 31.1463 32.9451 31.1345C33.0773 30.4297 33.2903 29.7962 33.6707 29.3356C33.7626 29.2277 33.8587 29.1119 33.9666 28.9841C34.4872 28.3594 35.1845 27.5224 35.8172 26.7536V26.7448C36.4378 25.9761 36.9863 25.279 37.2186 24.9186C37.2425 24.8787 37.2707 24.8386 37.2986 24.7946C37.5549 24.3982 37.9071 23.8494 38.2635 23.405C38.7929 22.7522 39.006 22.7323 39.0203 22.7321ZM37.3826 29.5124C37.3746 29.8767 37.4152 30.2458 37.5232 30.6061C37.7035 31.1946 37.9921 31.7753 38.2723 32.3317C38.5125 32.8041 38.7407 33.2611 38.8768 33.6774L38.8367 33.6491C37.7158 32.8605 36.9942 32.3638 36.5496 32.2194C36.5176 32.0594 36.4622 31.7793 36.4461 31.5554C36.4261 31.2991 36.5182 30.8184 36.8465 30.2458L36.8504 30.2419C36.9625 30.0457 37.1624 29.7887 37.3826 29.5124ZM35.0604 22.4206C35.2285 22.4769 35.4448 22.6818 35.5008 23.0778C35.6088 23.8108 35.4288 25.473 35.2566 26.4059C34.648 27.1547 33.9751 27.9633 33.4666 28.572L33.4705 28.5681C33.3625 28.6961 33.2627 28.8164 33.1746 28.9245C33.1105 29.0006 33.05 29.0806 32.994 29.1647C33.0139 28.9688 33.0419 28.7886 33.0818 28.6286C33.3181 27.6437 33.4786 26.4981 33.5066 25.5651C33.5307 24.6961 34.4762 22.7693 34.7606 22.489C34.8445 22.4052 34.9445 22.3807 35.0604 22.4206ZM45.1356 22.0183C45.3195 22.0065 45.476 22.1429 45.4881 22.3268C45.4999 22.5108 45.3594 22.6672 45.1795 22.6794L42.5291 22.8552H42.5086C42.3366 22.8551 42.1928 22.7234 42.1805 22.5476H42.1766C42.1646 22.3635 42.3042 22.2073 42.4842 22.195L45.1356 22.0183ZM42.2244 18.1335C42.3084 17.9735 42.5086 17.913 42.6688 17.9968C42.8286 18.081 42.8895 18.2821 42.8055 18.4421L41.5838 20.7321C41.5238 20.844 41.4077 20.9086 41.2918 20.9089C41.24 20.9089 41.1834 20.8966 41.1356 20.8688H41.1395C40.9793 20.7847 40.9196 20.5837 41.0037 20.4235L42.2244 18.1335ZM38.0398 17.9899C38.2039 17.9103 38.4003 17.9783 38.4803 18.1423L39.5008 20.2321C39.5804 20.396 39.5129 20.5923 39.3494 20.6726C39.3015 20.6925 39.2528 20.7047 39.2049 20.7048C39.0849 20.7048 38.9642 20.637 38.908 20.5212L37.8875 18.4304C37.8074 18.2662 37.8757 18.07 38.0398 17.9899Z" fill="#FEBC23"/>
</g>
<path d="M75.4103 37.7511C76.2104 38.4977 77.3534 38.871 78.8241 38.871C80.0357 38.871 81.0264 38.6272 81.796 38.1472C82.5656 37.6673 82.9162 36.8978 82.8552 35.8389C82.8323 35.3361 82.4894 34.8104 81.8188 34.2695C81.1483 33.7286 80.0129 33.3858 78.405 33.2335C75.6313 32.9668 73.6424 32.1745 72.4384 30.8413C71.2268 29.5081 70.6249 27.9312 70.6249 26.1104C70.6249 24.8991 70.9144 23.7716 71.4783 22.7127C72.0498 21.6537 72.9261 20.8005 74.0996 20.1377C75.2731 19.4749 76.721 19.1473 78.4355 19.1473C80.2415 19.1473 81.7808 19.513 83.0533 20.252C84.3259 20.991 85.2936 21.9356 85.9414 23.1012C86.5891 24.2668 86.932 25.4857 86.9777 26.758H82.9238C82.8323 25.7904 82.4208 24.9296 81.6893 24.1678C80.9502 23.4059 80.0357 23.0326 78.9384 23.0326C77.8411 23.0326 76.8581 23.3221 76.0656 23.9087C75.2731 24.4953 74.8769 25.1886 74.8769 26.0038C74.8769 26.9027 75.2579 27.6112 76.0275 28.114C76.7972 28.6168 77.8716 28.9292 79.2585 29.0358C82.2075 29.3025 84.2954 30.0186 85.5451 31.1918C86.7872 32.365 87.412 33.8277 87.412 35.557C87.412 36.7912 87.1072 37.9492 86.49 39.0386C85.8728 40.128 84.9203 41.0041 83.6172 41.6745C82.3218 42.3449 80.7063 42.6801 78.7708 42.6801C76.9648 42.6801 75.4179 42.3144 74.1225 41.5754C72.8271 40.8365 71.8288 39.8918 71.1354 38.7262C70.442 37.5606 70.061 36.3188 70 35.0009H74.0234C74.153 36.0751 74.6254 36.9893 75.4255 37.7358L75.4103 37.7511Z" fill="#1E3A8A"/>
<path d="M88.7153 26.7426H91.4891L91.7863 28.4263C93.2417 26.8645 94.8572 26.0875 96.6327 26.0875C98.3243 26.1103 99.7798 26.5903 101.007 27.5197C102.233 28.4491 102.835 29.9194 102.835 31.923V42.3753H98.8806L98.9111 33.1115C98.9111 32.2125 98.652 31.4659 98.1338 30.8717C97.6157 30.2775 96.9222 29.9804 96.0383 29.9804C95.1544 29.9804 94.3771 30.2851 93.7599 30.887C93.1426 31.4888 92.8378 32.2354 92.8378 33.1115L92.8074 42.4133H88.8525L88.723 26.7503L88.7153 26.7426Z" fill="#1E3A8A"/>
<path d="M108.238 41.6598C106.965 40.9208 105.959 39.9152 105.22 38.6429C104.481 37.3707 104.115 35.9842 104.115 34.491C104.115 32.9978 104.481 31.5808 105.22 30.301C105.959 29.0287 106.965 28.0231 108.238 27.2841C109.51 26.5452 110.912 26.1795 112.429 26.1795C113.419 26.1795 114.357 26.3471 115.248 26.6747C116.14 27.0023 116.948 27.467 117.671 28.0612V26.7737H121.169V38.6734C121.169 39.0467 121.2 39.2981 121.253 39.4352C121.306 39.5648 121.405 39.6409 121.55 39.6638C121.695 39.6866 121.984 39.6943 122.426 39.6943V42.2007C122.183 42.3073 121.558 42.3683 120.544 42.3683C119.927 42.3683 119.401 42.2159 118.959 41.9035C118.517 41.5912 118.182 41.1874 117.938 40.6846C117.169 41.3474 116.315 41.8578 115.385 42.2159C114.448 42.5816 113.465 42.7568 112.436 42.7568C110.92 42.7568 109.526 42.3911 108.245 41.6521L108.238 41.6598ZM114.456 38.6582C115.126 38.3382 115.69 37.8354 116.155 37.1421C116.62 36.4489 116.849 35.5652 116.849 34.491C116.849 33.4168 116.62 32.5255 116.155 31.817C115.69 31.1161 115.119 30.6057 114.441 30.2857C113.762 29.9658 113.092 29.8058 112.429 29.8058C111.766 29.8058 111.065 29.9658 110.387 30.2857C109.708 30.6057 109.137 31.1161 108.672 31.817C108.207 32.5179 107.979 33.4092 107.979 34.491C107.979 35.5728 108.207 36.4489 108.672 37.1421C109.137 37.8354 109.708 38.3382 110.387 38.6582C111.065 38.9781 111.751 39.1381 112.429 39.1381C113.107 39.1381 113.785 38.9781 114.456 38.6582Z" fill="#1E3A8A"/>
<path d="M136.044 27.3828C137.316 28.0989 138.322 29.0817 139.061 30.3311C139.8 31.5805 140.166 32.9594 140.166 34.4526C140.166 35.9457 139.8 37.3627 139.061 38.6426C138.322 39.9148 137.316 40.9204 136.044 41.6594C134.771 42.3984 133.369 42.7641 131.853 42.7641C130.047 42.7641 128.446 42.246 127.037 41.2175V51.0451H123.44V26.4763H127.037V27.8932C128.484 26.8343 130.092 26.3087 131.853 26.3087C133.369 26.3087 134.763 26.6667 136.044 27.3828ZM129.826 30.2854C129.155 30.6053 128.591 31.1081 128.126 31.8014C127.662 32.4947 127.433 33.3784 127.433 34.4526C127.433 35.5267 127.662 36.4181 128.126 37.1266C128.591 37.8274 129.163 38.3379 129.841 38.6578C130.519 38.9778 131.19 39.1378 131.853 39.1378C132.516 39.1378 133.217 38.9778 133.895 38.6578C134.573 38.3379 135.144 37.8274 135.609 37.1266C136.074 36.4257 136.303 35.5343 136.303 34.4526C136.303 33.3708 136.074 32.487 135.609 31.8014C135.144 31.1081 134.573 30.6053 133.895 30.2854C133.217 29.9654 132.531 29.8054 131.853 29.8054C131.174 29.8054 130.496 29.9654 129.826 30.2854Z" fill="#1E3A8A"/>
<path d="M145.775 26.7427L145.805 36.0446C145.805 36.9283 146.11 37.6673 146.727 38.2691C147.345 38.871 148.099 39.1757 149.006 39.1757C149.913 39.1757 150.667 38.871 151.284 38.2691C151.901 37.6673 152.206 36.9207 152.206 36.0446L152.176 26.7808H152.244V26.7504H156.199L156.23 36.0522C156.23 36.9359 156.535 37.6749 157.152 38.2768C157.769 38.8786 158.523 39.1833 159.43 39.1833C160.337 39.1833 161.091 38.8786 161.709 38.2768C162.326 37.6749 162.631 36.9283 162.631 36.0522L162.6 26.7884H166.555V37.2407C166.555 38.6043 166.212 39.7166 165.519 40.5851C164.825 41.4536 163.949 42.0783 162.882 42.4668C161.815 42.8477 160.71 43.0458 159.567 43.0458C158.6 43.0458 157.662 42.901 156.748 42.6191C155.833 42.3373 155.041 41.9183 154.355 41.3621C153.692 41.9335 152.9 42.3601 151.978 42.6344C151.056 42.9086 150.111 43.0458 149.143 43.0458C147.909 43.0458 146.735 42.8096 145.615 42.3373C144.495 41.8649 143.588 41.2022 142.894 40.3413C142.201 39.488 141.858 38.4977 141.858 37.3702L141.828 26.7504H145.782L145.775 26.7427Z" fill="#1E3A8A"/>
<path d="M171.996 41.8961C170.723 41.1571 169.717 40.1515 168.978 38.8793C168.239 37.607 167.873 36.2205 167.873 34.7273C167.873 33.2342 168.239 31.8172 168.978 30.5373C169.717 29.2651 170.723 28.2594 171.996 27.5205C173.268 26.7815 174.67 26.4158 176.187 26.4158C177.703 26.4158 179.067 26.7815 180.34 27.5205C181.612 28.2594 182.618 29.2651 183.357 30.5373C184.096 31.8095 184.462 33.2113 184.462 34.7273C184.462 36.2434 184.096 37.607 183.357 38.8793C182.618 40.1515 181.612 41.1571 180.34 41.8961C179.067 42.6351 177.68 43.0007 176.187 43.0007C174.693 43.0007 173.276 42.6351 171.996 41.8961ZM178.214 38.8945C178.884 38.5745 179.448 38.0717 179.913 37.3785C180.378 36.6852 180.606 35.8015 180.606 34.7273C180.606 33.6532 180.378 32.7618 179.913 32.0533C179.448 31.3525 178.877 30.842 178.198 30.5221C177.52 30.2021 176.85 30.0421 176.187 30.0421C175.524 30.0421 174.823 30.2021 174.144 30.5221C173.466 30.842 172.895 31.3525 172.43 32.0533C171.965 32.7542 171.736 33.6455 171.736 34.7273C171.736 35.8091 171.965 36.6928 172.43 37.3785C172.895 38.0717 173.466 38.5745 174.144 38.8945C174.823 39.2145 175.508 39.3745 176.187 39.3745C176.865 39.3745 177.543 39.2145 178.214 38.8945Z" fill="#1E3A8A"/>
<path d="M190.52 30.8636C189.85 31.4578 189.514 32.273 189.514 33.3015L189.446 42.4053L185.521 42.3748L185.552 26.7802L188.752 26.7498L188.851 28.3344C190.459 26.8412 192.281 26.1251 194.33 26.1936V29.8885C192.463 29.9571 191.191 30.2846 190.52 30.8789V30.8636Z" fill="#1E3A8A"/>
<path d="M195.58 19.7861H199.238V30.9011H201.776L206.79 26.7111L211.636 26.6425L204.382 32.9733L211.804 42.3742H207.514L201.212 34.756H199.23V42.3742H195.573V19.7861H195.58Z" fill="#1E3A8A"/>
<path d="M213.439 14.3227C212.955 13.8361 212.133 14.0021 211.875 14.632L209.292 20.6624C209.06 21.156 209.283 21.7356 209.779 21.9477C210.276 22.1599 210.852 21.9108 211.045 21.4089L213.634 15.3853C213.795 15.026 213.715 14.6035 213.439 14.3227Z" fill="#FEBC23"/>
<path d="M218.278 18.5142C217.901 18.1438 217.296 18.1493 216.925 18.5253L212.37 22.9877C211.953 23.3552 211.931 23.9826 212.32 24.3798C212.71 24.7769 213.341 24.7595 213.714 24.3508L218.269 19.8819C218.66 19.5133 218.661 18.898 218.284 18.521L218.278 18.5142Z" fill="#FEBC23"/>
<path d="M205.874 13.2889C205.272 12.6727 204.228 13.097 204.235 13.9549L204.16 20.3011C204.136 20.8367 204.562 21.2879 205.101 21.2925C205.645 21.2974 206.079 20.8652 206.07 20.3215L206.152 13.9757C206.164 13.7143 206.063 13.4676 205.874 13.2889Z" fill="#FEBC23"/>
</svg>
