<svg width="9104" height="9456" viewBox="0 0 9104 9456" fill="none" xmlns="http://www.w3.org/2000/svg">
<g clip-path="url(#clip0_48_19)">
<rect width="9104" height="9456" fill="white"/>
<path d="M4882.18 3709.35C4789.1 3823.72 4620.01 3898.92 4488.5 3908.01C4495.34 3935.15 4515.43 3981.77 4530 4020.85C4701.05 3991.65 4835 3802.68 4882.18 3709.35Z" fill="black"/>
<path d="M3318 6751.85C3325.69 6801.61 3342.09 6840.69 3355.7 6873.12C3364.51 6894.13 3372.16 6912.34 3375.5 6928.85C3375.5 6928.85 3379.17 6942.83 3378.7 6961.35L3432 7028.35C3432.3 7029.94 3441.26 7031.61 3441.55 7033.35L3441.91 7028.35L3455.12 6845.85L3521.5 6890.35L3595 6897.35L3632.75 6917.85C3629.59 6889.24 3630.35 6858.64 3633.53 6828.35C3641.42 6753.21 3664.18 6679.92 3678.79 6643.21L3753.5 6453.35C3780 6397.85 3811.5 6257.35 3738.5 6126.85C3689 6038.36 3551.5 5986.85 3467.93 5960.85C3476.11 5971.29 3486.9 5982.52 3503.66 5999.96C3503.66 5999.96 3503.66 5999.97 3503.67 5999.97C3510.28 6006.85 3517.82 6014.7 3526.5 6023.85C3552 6055.69 3615.5 6136.85 3629.5 6218.35C3641.9 6346.75 3592 6474.85 3565.5 6522.85C3540.93 6574.89 3488.49 6704.75 3468.61 6820.8C3467.66 6826.34 3460.97 6828.66 3457 6824.68C3399.04 6766.59 3332.5 6662.42 3305.26 6615.35C3306.65 6659.59 3310.87 6705.73 3318 6751.85Z" fill="black"/>
<path d="M2622.87 6303.35C2622.87 6303.35 2470.87 6392.69 2438.5 6532.35C2402 6689.85 2488 6823.35 2488 6823.35C2545.5 6911.85 2669.48 7011.35 2866 7056.35C2959.33 7070.14 3163.2 7082.08 3232 7019.53C3206.32 6994.04 3191.5 6961.35 3191.5 6961.35C3189.74 6958.03 3188 6954.7 3186.29 6951.35C2946.52 6973.19 2736.53 6875.12 2661.5 6823.35C2661.5 6823.35 2554.5 6730.35 2544.5 6637.35C2530.27 6505.04 2611.94 6466.85 2611.94 6466.85C2609.45 6406.96 2614.25 6351.78 2622.87 6303.35Z" fill="black"/>
<path d="M2776.67 8252.39C2756.64 8235.73 2728.69 8230.73 2704.54 8240.49C2595.06 8284.75 2456.88 8311.49 2398 8317.85H2634.86H2871.71C2832.93 8295.73 2800.53 8272.23 2776.67 8252.39Z" fill="black"/>
<path d="M6086.5 8929.24C6022.27 8958.06 5950.62 8991.93 5880.17 9034.35H6047C6078.6 9003.15 6088.83 8951.28 6086.5 8929.24Z" fill="black"/>
<path d="M4856 1699.35C4767.5 1819.85 4856.01 2031.35 4856.01 2031.35L4829 2038L4781.5 2045.85C4653.23 2017.53 4360.16 2015.91 4210.92 2220.85C4288.61 2179.68 4479 2126.85 4662 2187.85C4813 2230.85 5055.5 2391.85 5155 2593.85C5189.98 2664.85 5212.5 2712.13 5238 2826.63C5300.87 2841.44 5353.36 2893.1 5384.5 2959.35C5391.4 2974.04 5396.95 2989.2 5401.16 3004.64C5401.55 3006.09 5401.94 3007.54 5402.31 3009C5402.31 3009 5439.76 2865.43 5433.46 2757.35C5427.17 2649.27 5368.5 2468.35 5368.5 2468.35C5359.5 2420.5 5351 2378.5 5351 2332.85C5351 2332.85 5521.16 2313.35 5613 2118.35C5709.22 1914.06 5584.29 1697.58 5380.01 1601.35C5191.44 1512.53 4979.39 1531.36 4856 1699.35Z" fill="black"/>
<path d="M4100.5 2367.85C4040.67 2393.68 3915.5 2467.45 3867.5 2565.85C3807.5 2688.85 3846.06 2872.85 3891.56 2938.85C3921.92 2723.85 4008.67 2576.52 4065.5 2524.85C4097.34 2592.02 4198.7 2733.75 4421.5 2755.35C4543 2767.13 4656.6 2705.05 4729 2797.85C4782.39 2866.28 4888.48 2995.24 5005.64 2971.07C5018.6 2941.44 5041.62 2900.8 5079.36 2869.22C5075.09 2859.93 4975.72 2645.64 4828.5 2524.85C4699.16 2418.73 4603.41 2378.91 4439.5 2345.35C4249 2306.35 4100.5 2367.85 4100.5 2367.85Z" fill="black"/>
<path d="M4221 5693.85C4262.83 5720.69 4358.3 5827.55 4381.5 5960.35C4468.17 6012.35 4673.5 6103.85 4949.5 6140.85C5198.37 6174.22 5401.46 6149.27 5468.99 6140.98L5470 6140.85V6064.35V5818.35V5577.35V5332.35V5107.85V4918.35C5070.4 5037.55 4510.07 4923.02 4279.86 4850.85C4279.13 4855.88 4278.42 4860.88 4277.73 4865.85C4275.24 4883.72 4272.99 4901.24 4271 4918.35C4266.3 4958.77 4262.05 4997.41 4258.19 5034.35C4250.5 5108.06 4244.4 5175 4239.56 5235.85C4233.88 5307.21 4229.94 5370.18 4227.2 5425.85C4221.68 5538.14 4221.06 5620.7 4221 5682.35C4221 5686.27 4221 5690.1 4221 5693.85Z" fill="#1E3A8A"/>
<path d="M5737 6466.35H5470V6318.35V6140.85L5468.99 6140.98C5401.46 6149.27 5198.37 6174.22 4949.5 6140.85C4673.5 6103.85 4468.17 6012.35 4381.5 5960.35C4381.5 5960.35 4235.77 6245.34 4167 6437.85C4113.59 6587.36 4059 6831.56 4059 6831.56L5223.56 6840.35C5332.3 6722.5 5481.96 6642.39 5570.5 6617.85C5641.5 6604.85 5782.8 6546.85 5818 6532.85C5853.2 6518.85 6180 6238.35 6339 6099.85C6357.01 6083.8 6380.73 6061.65 6407 6036.5C6364.78 5953.65 6305.5 5865.19 6276.5 5832.35C6085.7 6014.35 5837.33 6090.85 5737 6106.35V6466.35Z" fill="#1E3A8A"/>
<path d="M5736.4 5089.85C5736.68 5113.1 5736.88 5135.16 5737 5155.85V6106.35C5837.33 6090.85 6085.7 6014.35 6276.5 5832.35C6277.06 5825.75 6277.83 5817.9 6278.78 5809C5859.28 5652 5757.76 5273.68 5736.4 5089.85Z" fill="#1E3A8A"/>
<path d="M6676.5 6843.94C6674.1 6830.34 6658.33 6797.02 6651.5 6783.35C6615.56 6803 6579.23 6822.4 6542.68 6841.35L6676.5 6843.94Z" fill="#1E3A8A"/>
<path d="M7285.5 4893.35C7285.5 4893.35 6979.45 5036.66 6809 5172.85C6658 5293.51 6586.55 5395.86 6520 5474.35C6572.39 5528.09 6683.19 5652 6729.74 5714.51C6692.23 5744.26 6658.23 5776.02 6630.5 5808.85C6593.5 5852.66 6488.09 5958.87 6407 6036.5C6380.73 6061.65 6357.01 6083.8 6339 6099.85C6180 6238.35 5853.2 6518.85 5818 6532.85C5782.8 6546.85 5641.5 6604.85 5570.5 6617.85C5481.96 6642.39 5332.3 6722.5 5223.56 6840.35C5219.31 6844.96 5215.12 6849.63 5211 6854.35L5012.01 7072.85L4930.5 7162.35C4930.5 7162.35 4920.6 7172.27 4908.49 7187.22C4883.23 7218.41 4848.38 7271.47 4874 7301.85C4901.03 7333.91 4994 7321.85 4994 7321.85C4994 7321.85 4947 7403.35 4994 7442.85C5058 7496.64 5169.5 7411.35 5169.5 7411.35C5169.5 7411.35 5140 7470.35 5205 7511.85C5268.21 7552.21 5394 7442.85 5394 7442.85C5398.83 7474.85 5433.2 7529.25 5532 7490.85C5614.15 7458.92 5699.69 7380.82 5758.96 7326.71C5770.97 7315.74 5781.9 7305.76 5791.5 7297.35C5876 7223.35 5966.1 7154.95 6048.5 7147.35C6098.74 7137.07 6162.23 7113.69 6215.5 7081.89C6216 7081.59 6216.5 7081.29 6217 7080.99C6240.41 7065.96 6297.07 6986.18 6323 6947.35C6396.29 6914.95 6469.94 6879.05 6542.68 6841.35C6579.23 6822.4 6615.56 6803 6651.5 6783.35C6864.07 6667.16 7063.06 6542.53 7215.5 6453.85C7421.67 6337.69 7785 6080.85 7785 5802.35C7793.4 5669.15 7753.5 5551.35 7682.5 5443.35C7488.94 5148.92 7366.38 5020.54 7285.5 4893.35Z" fill="#B5602A"/>
<path d="M6341.5 3955.35C6164 3853.35 5909.35 3777.01 5640 3718.86C5696.49 3799.08 5731.05 4653.47 5736.4 5089.85C5757.76 5273.68 5859.28 5652 6278.78 5809C6289.32 5710.03 6322.08 5480.27 6339.36 5371.85C6401.57 5448.91 6449.49 5508.18 6468 5531.35C6468 5531.35 6491.2 5508.33 6520 5474.35C6586.55 5395.86 6658 5293.51 6809 5172.85C6979.45 5036.66 7285.5 4893.35 7285.5 4893.35C7069.56 4631.85 6945.11 4487.56 6713 4236.85C6572 4085.35 6419 3996.35 6341.5 3955.35Z" fill="#AFD1FA"/>
<path d="M5248.5 4236.35C5104.69 4405.85 4831.27 4426.12 4669.5 4325.85C4544.04 4248.08 4507.07 4060.53 4493.54 3953.35C4488.07 3970.98 4482.02 3990.93 4475.5 4012.87C4460.73 4062.58 4443.6 4122.52 4425.58 4188.85C4411.49 4240.72 4396.86 4296.5 4382.39 4354.35C4368.51 4409.81 4354.79 4467.19 4341.84 4524.85C4330.08 4577.18 4318.96 4629.75 4308.94 4681.35C4297.62 4739.66 4287.7 4796.74 4279.86 4850.85C4510.07 4923.02 5070.4 5037.55 5470 4918.35L5470.65 4873.85L5473.91 4648.85L5475.62 4530.85C5475.62 4493.53 5475.38 4458.61 5474.93 4425.85C5473.75 4339.21 5471.1 4267.62 5467.56 4206.35C5463.18 4130.3 5457.42 4070.16 5451.39 4016.85C5442.98 3942.56 5434.05 3881.56 5427.53 3809.35L5427.3 3806.7C5427.2 3805.59 5427.1 3804.47 5427 3803.35C5429.69 3914.49 5393.06 4065.96 5248.5 4236.35Z" fill="#AFD1FA"/>
<path d="M4065.5 2524.85C4008.67 2576.52 3921.92 2723.85 3891.56 2938.85C3896.39 3068.18 3921.34 3340.91 3946.5 3426.85L3947.56 3430.48C3969.91 3506.9 4020.86 3681.17 4166 3797.46C4205.68 3829.26 4243.4 3863.91 4298.5 3883.85C4351 3898.69 4391.5 3908.94 4462.3 3908.94C4470.7 3908.94 4479.31 3908.63 4488.08 3908.04C4488.22 3908.03 4488.36 3908.02 4488.5 3908.01C4620.01 3898.92 4789.1 3823.72 4882.18 3709.35C4835 3802.68 4701.05 3991.65 4530 4020.85C4515.43 3981.77 4495.34 3935.15 4488.5 3908.01C4489.74 3920.41 4491.33 3935.8 4493.54 3953.35C4507.07 4060.53 4544.04 4248.08 4669.5 4325.85C4831.27 4426.12 5104.69 4405.85 5248.5 4236.35C5393.06 4065.96 5429.69 3914.49 5427 3803.35C5425.68 3748.82 5410.62 3703.99 5402.5 3671.41C5377.53 3666.78 5354.08 3662.58 5332.5 3658.85C5326.22 3653.88 5320.13 3648.34 5314.22 3642.31C5281.4 3669.7 5240.19 3686.57 5197 3682.35C5096.25 3672.5 5049.5 3578.08 5049.5 3476.85C5049.5 3318.35 5154 3251.85 5154 3251.85C5171.5 3235.85 5234.4 3233.65 5216 3290.85C5210.05 3309.35 5139.5 3360.95 5131.5 3441.35C5118 3501.85 5131.9 3623.15 5235.5 3612.35C5248.09 3609.39 5262.71 3603.74 5275.89 3593.06C5226.55 3515.7 5195.45 3409.04 5185 3348.85C5185 3348.85 5203.89 3343.28 5229 3333.4C5252.84 3324.01 5282.29 3310.73 5306.5 3294.62C5316.25 3288.13 5325.15 3281.19 5332.5 3273.85C5401.58 3204.87 5426.12 3102.21 5402.31 3009C5401.94 3007.54 5401.55 3006.09 5401.16 3004.64C5396.95 2989.2 5391.4 2974.04 5384.5 2959.35C5353.36 2893.1 5300.87 2841.44 5238 2826.63C5235.81 2826.12 5233.62 2825.65 5231.41 2825.22C5205.67 2820.27 5178.29 2821.49 5150 2830.35C5122.13 2839.08 5098.79 2852.95 5079.36 2869.22C5041.62 2900.8 5018.6 2941.44 5005.64 2971.07C4888.48 2995.24 4782.39 2866.28 4729 2797.85C4656.6 2705.05 4543 2767.13 4421.5 2755.35C4198.7 2733.75 4097.34 2592.02 4065.5 2524.85Z" fill="#B5602A"/>
<path d="M5154 3251.85C5154 3251.85 5049.5 3318.35 5049.5 3476.85C5049.5 3578.08 5096.25 3672.5 5197 3682.35C5240.19 3686.57 5281.4 3669.7 5314.22 3642.31C5355.71 3607.67 5383.79 3556.23 5385.5 3509.35C5391.5 3344.85 5306.5 3294.62 5306.5 3294.62C5282.29 3310.73 5252.84 3324.01 5229 3333.4C5254.83 3348.88 5306.5 3348.85 5313.5 3483.35C5316.56 3542.16 5298.31 3574.88 5275.89 3593.06C5262.71 3603.74 5248.09 3609.39 5235.5 3612.35C5131.9 3623.15 5118 3501.85 5131.5 3441.35C5139.5 3360.95 5210.05 3309.35 5216 3290.85C5234.4 3233.65 5171.5 3235.85 5154 3251.85Z" fill="#FEBC23"/>
<path d="M4200.5 2235.85L4100.5 2367.85C4100.5 2367.85 4249 2306.35 4439.5 2345.35C4603.41 2378.91 4699.16 2418.73 4828.5 2524.85C4975.72 2645.64 5075.09 2859.93 5079.36 2869.22C5098.79 2852.95 5122.13 2839.08 5150 2830.35C5178.29 2821.49 5205.67 2820.27 5231.41 2825.22C5233.62 2825.65 5235.81 2826.12 5238 2826.63C5212.5 2712.13 5189.98 2664.85 5155 2593.85C5055.5 2391.85 4813 2230.85 4662 2187.85C4479 2126.85 4288.61 2179.68 4210.92 2220.85C4207.36 2225.73 4203.89 2230.73 4200.5 2235.85Z" fill="#AFD1FA"/>
<path d="M3521.5 6890.35L3455.12 6845.85L3441.91 7028.35L3778.5 7296.82L3937 7423.35L4186 7621.85C4255.75 7683.53 4424.26 7784.55 4529.01 7847.36C4566.93 7870.09 4596.5 7887.81 4610 7896.85C4560.6 7806.55 4529.1 7755.34 4459 7662.35C4340.66 7505.68 4270.83 7430.61 4216.79 7380.14C4205.98 7370.04 4195.8 7360.93 4186 7352.35C4106.11 7264.41 3976.71 7161.08 3858.5 7072.85C3785.83 7018.61 3718.15 6971.03 3670.5 6938.35L3632.75 6917.85L3595 6897.35L3521.5 6890.35Z" fill="#CEC8BF"/>
<path d="M5402.5 3671.41C5410.62 3703.99 5425.68 3748.82 5427 3803.35C5427.1 3804.47 5427.2 3805.59 5427.3 3806.7L5427.53 3809.35C5434.05 3881.56 5442.98 3942.56 5451.39 4016.85C5457.42 4070.16 5463.18 4130.3 5467.56 4206.35C5471.1 4267.62 5473.75 4339.21 5474.93 4425.85C5475.38 4458.61 5475.62 4493.53 5475.62 4530.85L5473.91 4648.85L5470.65 4873.85L5470 4918.35V5107.85V5332.35V5577.35V5818.35V6064.35V6140.85V6318.35V6466.35H5737V6106.35V5155.85C5736.88 5135.16 5736.68 5113.1 5736.4 5089.85C5731.05 4653.47 5696.49 3799.08 5640 3718.86C5555.27 3700.57 5473.93 3684.65 5402.5 3671.41Z" fill="#EFA800"/>
<path d="M4488.08 3908.04C4479.31 3908.63 4470.7 3908.94 4462.3 3908.94C4391.5 3908.94 4351 3898.69 4298.5 3883.85C4259.67 3953.41 4207.92 4112.85 4154 4325.85C4104 4523.35 4052.3 4739.15 4035.5 4874.35C4015.58 5034.67 3988.41 5239.46 3983.33 5492.39C3982.79 5519.49 3982.5 5547.14 3982.5 5575.35C3982.5 5677.85 3969.5 5824.85 3935.5 5892.85C3985.5 5889.69 4088.5 5892.85 4205.5 5940.35C4221 5919.35 4221.83 5762.19 4221 5693.85C4221 5690.1 4221 5686.27 4221 5682.35C4221.06 5620.7 4221.68 5538.14 4227.2 5425.85C4229.94 5370.18 4233.88 5307.21 4239.56 5235.85C4244.4 5175 4250.5 5108.06 4258.19 5034.35C4262.05 4997.41 4266.3 4958.77 4271 4918.35C4272.99 4901.24 4275.24 4883.72 4277.73 4865.85C4278.42 4860.88 4279.13 4855.88 4279.86 4850.85C4287.7 4796.74 4297.62 4739.66 4308.94 4681.35C4318.96 4629.75 4330.08 4577.18 4341.84 4524.85C4354.79 4467.19 4368.51 4409.81 4382.39 4354.35C4396.86 4296.5 4411.49 4240.72 4425.58 4188.85C4443.6 4122.52 4460.73 4062.58 4475.5 4012.87C4482.02 3990.93 4488.07 3970.98 4493.54 3953.35C4491.33 3935.8 4489.74 3920.41 4488.5 3908.01C4488.36 3908.02 4488.22 3908.03 4488.08 3908.04Z" fill="#EFA800"/>
<path d="M4166 3797.46C4010 3838.35 3738.5 3968.35 3526.5 4161.85C3340 4332.08 3189 4466.35 2957 4715.35C2957 4715.35 3241.68 4857.86 3388 4992.85C3497.71 5094.06 3620.11 5272.49 3662.81 5336.85C3672.87 5352.02 3678.5 5360.85 3678.5 5360.85L3848.41 5226C3851.84 5241.41 3855.85 5256.39 3860.5 5270.85C3872.63 5318.36 3915.32 5429.47 3983.33 5492.39C3988.41 5239.46 4015.58 5034.67 4035.5 4874.35C4052.3 4739.15 4104 4523.35 4154 4325.85C4207.92 4112.85 4259.67 3953.41 4298.5 3883.85C4243.4 3863.91 4205.68 3829.26 4166 3797.46Z" fill="#AFD1FA"/>
<path d="M3678.79 6643.21C3712.65 6665.15 3800.66 6676.63 3813.47 6615.15C3814.73 6609.11 3813.07 6602.88 3810.04 6597.51C3781.13 6546.26 3761.41 6487.04 3753.5 6453.35L3678.79 6643.21Z" fill="#B5602A"/>
<path d="M3448 7101.35C3456.75 7115.27 3582.1 7365.55 3642.01 7485.51C3720.37 7468.02 3795.81 7451.36 3854.5 7438.85L3778.5 7296.82L3441.91 7028.35L3441.55 7033.35C3443.47 7044.91 3442.88 7059.63 3443.11 7072.85C3443.31 7084.64 3444.16 7095.24 3448 7101.35Z" fill="#CEC8BF"/>
<path fill-rule="evenodd" clip-rule="evenodd" d="M4908.49 7187.22C4883.23 7218.41 4848.38 7271.47 4874 7301.85C4901.03 7333.91 4994 7321.85 4994 7321.85C4994 7321.85 4947 7403.35 4994 7442.85C5058 7496.64 5169.5 7411.35 5169.5 7411.35C5169.5 7411.35 5140 7470.35 5205 7511.85C5268.21 7552.21 5394 7442.85 5394 7442.85C5398.83 7474.85 5433.2 7529.25 5532 7490.85C5614.15 7458.92 5699.69 7380.82 5758.96 7326.71C5770.97 7315.74 5781.9 7305.76 5791.5 7297.35C5876 7223.35 5966.1 7154.95 6048.5 7147.35C6098.74 7137.07 6162.23 7113.69 6215.5 7081.89C6215.98 7081.62 6216.48 7081.32 6217 7080.99C6248.67 7061.92 6276.62 7039.88 6295.86 7015.85C6301.96 7015.5 6308.03 7015.13 6314.07 7014.77C6314.11 7014.77 6314.15 7014.76 6314.19 7014.76C6406.89 7009.14 6494.45 7003.84 6635.5 7069.62C6682.76 7091.66 6736.02 7121.69 6797.5 7162.35C6987.76 7269.15 7030.63 7272.45 7114.04 7278.87C7123.57 7279.6 7133.63 7280.38 7144.5 7281.35C7236.08 7289.56 7385.48 7315.27 7487.99 7350.81C7495.78 7353.51 7503.3 7356.27 7510.5 7359.08C7534.89 7368.6 7555.66 7378.74 7571 7389.35C7667.5 7442.52 7897.7 7546.95 8058.5 7563.35C8025.7 7587.75 7821.17 7794.19 7723 7894.35C7576.47 8098.86 7249.76 8085.94 7033.97 8077.41C7033.95 8077.41 7033.93 8077.41 7033.91 8077.41C7007.03 8076.34 6981.87 8075.35 6959 8074.85C6683 8068.85 6526.67 8372.02 6483 8524.35C6428 8737.85 6257.17 8852.69 6179.5 8887.85C6164.35 8894.71 6148.26 8901.83 6131.42 8909.27C6116.96 8915.67 6101.94 8922.31 6086.5 8929.24C6022.27 8958.06 5950.62 8991.93 5880.17 9034.35C5878.86 9035.14 5877.55 9035.93 5876.24 9036.72C5804.53 9080.26 5734.24 9132.73 5674.5 9197.85C5529.28 9356.14 5313.67 9489.52 5215 9528.85C5017 9340.85 4827 9191.85 4655 9119.35C4339.5 9013.35 4188 8947.85 4047.5 8754.62C3930.4 8593.58 3823.03 8546.57 3727.12 8504.57C3727.12 8504.57 3727.12 8504.57 3727.11 8504.57C3707.95 8496.17 3689.24 8487.98 3671 8479.12C3511.34 8422.61 3416.38 8365.55 3348.27 8314.39C3338.31 8306.91 3328.93 8299.56 3320 8292.35C3264 8247.15 3048 8041.52 2947 7944.35C2826.2 7820.75 2679.33 7774.02 2617 7769.35C2669 7704.55 3043.17 7614.19 3223 7578.85C3251.06 7573.34 3347.17 7551.72 3461.54 7526C3461.57 7525.99 3461.61 7525.98 3461.64 7525.98C3519.26 7513.02 3581.5 7499.02 3642.01 7485.51C3720.37 7468.02 3795.81 7451.36 3854.5 7438.85L3937 7423.35L4186 7621.85C4255.75 7683.53 4424.26 7784.55 4529.01 7847.36C4566.93 7870.09 4596.5 7887.81 4610 7896.85C4560.6 7806.55 4529.1 7755.34 4459 7662.35C4340.66 7505.68 4270.83 7430.61 4216.79 7380.14C4263.63 7366.5 4349.29 7342.9 4453.21 7314.28C4453.22 7314.27 4453.23 7314.27 4453.24 7314.27C4589.11 7276.84 4756.18 7230.81 4908.49 7187.22Z" fill="#D5E7FE"/>
<path d="M2617 7769.35C2669 7704.55 3043.17 7614.19 3223 7578.85C3251.06 7573.34 3347.17 7551.72 3461.54 7526L3461.64 7525.98C3519.26 7513.02 3581.5 7499.02 3642.01 7485.51C3582.1 7365.55 3456.75 7115.27 3448 7101.35C3444.16 7095.24 3443.31 7084.64 3443.11 7072.85H1797.5L1020 8317.85H2398C2456.88 8311.49 2595.06 8284.75 2704.54 8240.49C2728.69 8230.73 2756.64 8235.73 2776.67 8252.39C2800.53 8272.23 2832.93 8295.73 2871.71 8317.85C2913.6 8341.74 2962.93 8364.02 3017 8378.35C3149.22 8413.4 3291.76 8350.96 3348.27 8314.39C3338.31 8306.91 3328.93 8299.56 3320 8292.35C3264 8247.15 3048 8041.52 2947 7944.35C2826.2 7820.75 2679.33 7774.02 2617 7769.35Z" fill="#D5E7FE"/>
<path d="M3858.5 7072.85C3976.71 7161.08 4106.11 7264.41 4186 7352.35C4195.8 7360.93 4205.98 7370.04 4216.79 7380.14C4263.63 7366.5 4349.29 7342.9 4453.21 7314.28L4453.24 7314.27C4589.11 7276.84 4756.18 7230.81 4908.49 7187.22C4920.6 7172.27 4930.5 7162.35 4930.5 7162.35L5012.01 7072.85H3858.5Z" fill="#D5E7FE"/>
<path d="M3778.5 7296.82L3854.5 7438.85L3937 7423.35L3778.5 7296.82Z" fill="#D5E7FE"/>
<path d="M7891 9034.35L7645 7973.1C7480.01 8095.04 7217.06 8084.65 7033.97 8077.41L7033.91 8077.41C7007.03 8076.34 6981.87 8075.35 6959 8074.85C6683 8068.85 6526.67 8372.02 6483 8524.35C6428 8737.85 6257.17 8852.69 6179.5 8887.85C6164.35 8894.71 6148.26 8901.83 6131.42 8909.27C6116.96 8915.67 6101.94 8922.31 6086.5 8929.24C6088.83 8951.28 6078.6 9003.15 6047 9034.35H7891Z" fill="#D5E7FE"/>
<path d="M7442 7072.85L6635.5 7069.62C6682.76 7091.66 6736.02 7121.69 6797.5 7162.35C6987.76 7269.15 7030.63 7272.45 7114.04 7278.87C7123.57 7279.6 7133.63 7280.38 7144.5 7281.35C7236.08 7289.56 7385.48 7315.27 7487.99 7350.81C7495.78 7353.51 7503.3 7356.27 7510.5 7359.08L7442 7072.85Z" fill="#D5E7FE"/>
<path d="M6295.86 7015.85C6313.06 6994.36 6323.3 6971.29 6323 6947.35C6297.07 6986.18 6240.41 7065.96 6217 7080.99C6248.67 7061.92 6276.62 7039.88 6295.86 7015.85Z" fill="black"/>
<path d="M3632.75 6917.85L3670.5 6938.35C3718.15 6971.03 3785.83 7018.61 3858.5 7072.85H5012.01L5211 6854.35C5215.12 6849.63 5219.31 6844.96 5223.56 6840.35L4059 6831.56L3633.53 6828.35C3630.35 6858.64 3629.59 6889.24 3632.75 6917.85Z" fill="#723B19"/>
<path d="M46 10013.4H9072.5V9707.35L46 9652V10013.4Z" fill="#723B19"/>
<path d="M2997 6859.35C2990.6 6851.69 2984.57 6843.23 2978.91 6834.09C2937.58 6840.63 2903.54 6833.11 2877 6820.15L2661.5 6823.35C2736.53 6875.12 2946.52 6973.19 3186.29 6951.35C3181.64 6942.26 3177.17 6933.07 3172.88 6923.79C3073.74 6949.5 3038.63 6909.16 2997 6859.35Z" fill="#723B19"/>
<path d="M3388 4992.85C3241.68 4857.86 2957 4715.35 2957 4715.35C2875.17 4802.35 2703.2 4986.15 2670 5025.35C2668.7 5026.89 2667.21 5028.63 2665.55 5030.57C2614.13 5090.67 2397.28 5344.16 2498.5 5678.35C2524.5 5750.85 2591.92 5863.2 2666.21 5966.67C2696.5 6008.85 2694.48 6092.22 2669.48 6150.72C2652.59 6186.44 2634.34 6238.92 2622.87 6303.35C2614.25 6351.78 2609.45 6406.96 2611.94 6466.85C2613.2 6497.19 2616.32 6528.73 2621.77 6561.22C2641.27 6630.39 2698.5 6773.35 2807.29 6761.85L2807.29 6761.86C2813.84 6771.56 2821.06 6779.67 2829 6785.85C2841.67 6798.1 2857.51 6810.63 2877 6820.15C2903.54 6833.11 2937.58 6840.63 2978.91 6834.09C2984.57 6843.23 2990.6 6851.69 2997 6859.35C3038.63 6909.16 3073.74 6949.5 3172.88 6923.79C3177.17 6933.07 3181.64 6942.26 3186.29 6951.35C3188 6954.7 3189.74 6958.03 3191.5 6961.35C3191.5 6961.35 3206.32 6994.04 3232 7019.53C3251.81 7039.19 3278.08 7054.57 3309 7047.35C3366.08 7034.02 3377.93 6991.62 3378.7 6961.35C3379.17 6942.83 3375.5 6928.85 3375.5 6928.85C3372.16 6912.34 3364.51 6894.13 3355.7 6873.12C3342.09 6840.69 3325.69 6801.61 3318 6751.85C3310.87 6705.73 3306.65 6659.59 3305.26 6615.35C3299.82 6442.32 3337.75 6298.35 3415 6298.35C3431.5 6298.35 3453.6 6307.05 3486 6397.85C3494.83 6423.19 3523.1 6483.65 3565.5 6522.85C3592 6474.85 3641.9 6346.75 3629.5 6218.35C3615.5 6136.85 3552 6055.69 3526.5 6023.85C3517.82 6014.7 3510.28 6006.85 3503.67 5999.97L3503.66 5999.96C3486.9 5982.52 3476.11 5971.29 3467.93 5960.85C3462.22 5953.58 3457.78 5946.69 3453.47 5938.35C3444.64 5921.28 3439.45 5905.56 3434.52 5890.66C3432.24 5883.73 3430.01 5876.98 3427.5 5870.35L3353 5668.35C3353 5668.35 3344.15 5634.64 3324.15 5583.5C3419.75 5533.5 3591.2 5397.52 3662.81 5336.85C3620.11 5272.49 3497.71 5094.06 3388 4992.85Z" fill="#B5602A"/>
<path d="M2493.5 6831.55L46 6866.5V9652L9072.5 9707.35V6890.35L6676.5 6843.94L6542.68 6841.35C6469.94 6879.05 6396.29 6914.95 6323 6947.35C6323.3 6971.29 6313.06 6994.36 6295.86 7015.85C6301.96 7015.5 6308.03 7015.13 6314.07 7014.77L6314.19 7014.76C6406.89 7009.14 6494.45 7003.84 6635.5 7069.62L7442 7072.85L7510.5 7359.08C7534.89 7368.6 7555.66 7378.74 7571 7389.35C7667.5 7442.52 7897.7 7546.95 8058.5 7563.35C8025.7 7587.75 7821.17 7794.19 7723 7894.35C7700.8 7925.34 7674.46 7951.33 7645 7973.1L7891 9034.35H6047H5880.17C5878.86 9035.14 5877.55 9035.93 5876.24 9036.72C5804.53 9080.26 5734.24 9132.73 5674.5 9197.85C5529.28 9356.14 5313.67 9489.52 5215 9528.85C5017 9340.85 4827 9191.85 4655 9119.35C4339.5 9013.35 4188 8947.85 4047.5 8754.62C3930.4 8593.58 3823.03 8546.57 3727.12 8504.57L3727.11 8504.57C3707.95 8496.17 3689.24 8487.98 3671 8479.12C3511.34 8422.61 3416.38 8365.55 3348.27 8314.39C3291.76 8350.96 3149.22 8413.4 3017 8378.35C2962.93 8364.02 2913.6 8341.74 2871.71 8317.85H2634.86H2398H1020L1797.5 7072.85H3443.11C3442.88 7059.63 3443.47 7044.91 3441.55 7033.35C3441.26 7031.61 3432.3 7029.94 3432 7028.35L3378.7 6961.35C3377.93 6991.62 3366.08 7034.02 3309 7047.35C3278.08 7054.57 3251.81 7039.19 3232 7019.53C3163.2 7082.08 2959.33 7070.14 2866 7056.35C2675.53 7012.74 2553.2 6917.93 2493.5 6831.55Z" fill="#723B19"/>
<path d="M4100.5 2367.85L4200.5 2235.85C4203.89 2230.73 4207.36 2225.73 4210.92 2220.85M4100.5 2367.85C4040.67 2393.68 3915.5 2467.45 3867.5 2565.85C3807.5 2688.85 3846.06 2872.85 3891.56 2938.85M4100.5 2367.85C4100.5 2367.85 4249 2306.35 4439.5 2345.35C4603.41 2378.91 4699.16 2418.73 4828.5 2524.85M3891.56 2938.85C3921.92 2723.85 4008.67 2576.52 4065.5 2524.85C4097.34 2592.02 4198.7 2733.75 4421.5 2755.35C4543 2767.13 4656.6 2705.05 4729 2797.85C4782.39 2866.28 4888.48 2995.24 5005.64 2971.07M3891.56 2938.85C3896.39 3068.18 3921.34 3340.91 3946.5 3426.85M5402.31 3009C5402.31 3009 5439.76 2865.43 5433.46 2757.35C5427.17 2649.27 5368.5 2468.35 5368.5 2468.35C5359.5 2420.5 5351 2378.5 5351 2332.85C5351 2332.85 5521.16 2313.35 5613 2118.35C5709.22 1914.06 5584.29 1697.58 5380.01 1601.35C5191.44 1512.53 4979.39 1531.36 4856 1699.35C4767.5 1819.85 4856.01 2031.35 4856.01 2031.35L4829 2038L4781.5 2045.85C4653.23 2017.53 4360.16 2015.91 4210.92 2220.85M5402.31 3009C5426.12 3102.21 5401.58 3204.87 5332.5 3273.85M5402.31 3009C5401.94 3007.54 5401.55 3006.09 5401.16 3004.64M4828.5 2524.85C4975.72 2645.64 5075.09 2859.93 5079.36 2869.22M4828.5 2524.85C4975.72 2645.64 5075.09 2859.93 5079.36 2869.22M5079.5 2869.53C5079.5 2869.53 5079.45 2869.43 5079.36 2869.22M4210.92 2220.85C4288.61 2179.68 4479 2126.85 4662 2187.85C4813 2230.85 5055.5 2391.85 5155 2593.85C5189.98 2664.85 5212.5 2712.13 5238 2826.63M5238 2826.63C5300.87 2841.44 5353.36 2893.1 5384.5 2959.35M5238 2826.63C5235.81 2826.12 5233.62 2825.65 5231.41 2825.22M3946.5 3426.85L3947.56 3430.48M3946.5 3426.85C3946.85 3428.03 3947.2 3429.24 3947.56 3430.48M5006 2971C5005.88 2971.03 5005.76 2971.05 5005.64 2971.07M4991.5 3010.85C4991.5 3010.85 4995.46 2994.35 5005.64 2971.07M5384.5 2959.35C5391.4 2974.04 5396.95 2989.2 5401.16 3004.64M5384.5 2959.35C5352.28 2890.79 5297.19 2837.87 5231.41 2825.22M5332.5 3273.85C5306.91 3299.4 5262.44 3320.23 5229 3333.4M5332.5 3273.85C5325.15 3281.19 5316.25 3288.13 5306.5 3294.62M5332.5 3273.85C5402.66 3203.79 5426.88 3099 5401.16 3004.64M5097 3138.35C5097 3138.35 5120.07 3055.92 5165 3020.85C5197.9 2995.17 5267.5 2971.85 5267.5 2971.85M4938.8 3608.44C4926.99 3644.59 4907.37 3678.4 4882.18 3709.35M4488.5 3908.01C4495.34 3935.15 4515.43 3981.77 4530 4020.85M4488.5 3908.01C4489.74 3920.41 4491.33 3935.8 4493.54 3953.35M4488.5 3908.01C4620.01 3898.92 4789.1 3823.72 4882.18 3709.35M4488.5 3908.01C4488.36 3908.02 4488.22 3908.03 4488.08 3908.04M4594.18 4132.12C4563.5 4084.35 4554 4067.85 4530 4020.85M4882.18 3709.35C4835 3802.68 4701.05 3991.65 4530 4020.85M4882.18 3709.35C4789 3823.84 4619.65 3899.08 4488.08 3908.04M5306.5 3294.62C5306.5 3294.62 5391.5 3344.85 5385.5 3509.35C5383.79 3556.23 5355.71 3607.67 5314.22 3642.31M5306.5 3294.62C5282.29 3310.73 5252.84 3324.01 5229 3333.4M4166 3797.46C4010 3838.35 3738.5 3968.35 3526.5 4161.85C3340 4332.08 3189 4466.35 2957 4715.35M4166 3797.46C4205.68 3829.26 4243.4 3863.91 4298.5 3883.85M4166 3797.46C4020.86 3681.17 3969.91 3506.9 3947.56 3430.48M5229 3333.4C5203.89 3343.28 5185 3348.85 5185 3348.85C5195.45 3409.04 5226.55 3515.7 5275.89 3593.06M5229 3333.4C5254.83 3348.88 5306.5 3348.85 5313.5 3483.35C5316.56 3542.16 5298.31 3574.88 5275.89 3593.06M5402.5 3671.41C5377.53 3666.78 5354.08 3662.58 5332.5 3658.85C5326.22 3653.88 5320.13 3648.34 5314.22 3642.31M5402.5 3671.41C5410.62 3703.99 5425.68 3748.82 5427 3803.35M5402.5 3671.41C5473.93 3684.65 5555.27 3700.57 5640 3718.86M2957 4715.35C2957 4715.35 3241.68 4857.86 3388 4992.85C3497.71 5094.06 3620.11 5272.49 3662.81 5336.85M2957 4715.35C2875.17 4802.35 2703.2 4986.15 2670 5025.35C2668.7 5026.89 2667.21 5028.63 2665.55 5030.57C2614.13 5090.67 2397.28 5344.16 2498.5 5678.35C2524.5 5750.85 2591.92 5863.2 2666.21 5966.67C2696.5 6008.85 2694.48 6092.22 2669.48 6150.72C2652.59 6186.44 2634.34 6238.92 2622.87 6303.35M3940.5 4482.85C3881.5 4644.85 3782.9 5029.25 3860.5 5270.85M3860.5 5270.85C3855.85 5256.39 3851.84 5241.41 3848.41 5226L3678.5 5360.85C3678.5 5360.85 3672.87 5352.02 3662.81 5336.85M3860.5 5270.85C3872.63 5318.36 3915.32 5429.47 3983.33 5492.39M3984 5493C3983.78 5492.8 3983.56 5492.59 3983.33 5492.39M3662.81 5336.85C3591.2 5397.52 3419.75 5533.5 3324.15 5583.5C3344.15 5634.64 3353 5668.35 3353 5668.35M2924.5 5150.85C2924.5 5150.85 3072.5 5192.85 3171 5314.35C3302.74 5476.85 3353 5668.35 3353 5668.35M3353 5668.35L3427.5 5870.35C3430.01 5876.98 3432.24 5883.73 3434.52 5890.66C3439.45 5905.56 3444.64 5921.28 3453.47 5938.35C3457.78 5946.69 3462.22 5953.58 3467.93 5960.85M4298.5 3883.85C4351 3898.69 4391.5 3908.94 4462.3 3908.94C4470.7 3908.94 4479.31 3908.63 4488.08 3908.04M4298.5 3883.85C4259.67 3953.41 4207.92 4112.85 4154 4325.85C4104 4523.35 4052.3 4739.15 4035.5 4874.35C4015.58 5034.67 3988.41 5239.46 3983.33 5492.39M4493.54 3953.35C4507.07 4060.53 4544.04 4248.08 4669.5 4325.85C4831.27 4426.12 5104.69 4405.85 5248.5 4236.35C5393.06 4065.96 5429.69 3914.49 5427 3803.35M4493.54 3953.35C4488.07 3970.98 4482.02 3990.93 4475.5 4012.87M4221 5693.85C4221.83 5762.18 4221 5919.35 4205.5 5940.35C4088.5 5892.85 3985.5 5889.68 3935.5 5892.85C3969.5 5824.85 3982.5 5677.85 3982.5 5575.35C3982.5 5547.14 3982.79 5519.49 3983.33 5492.39M4221 5693.85C4262.83 5720.68 4358.3 5827.55 4381.5 5960.35M4221 5693.85C4221 5690.1 4221 5686.27 4221 5682.35M4381.5 5960.35C4381.5 5960.35 4235.77 6245.34 4167 6437.85C4113.59 6587.36 4059 6831.56 4059 6831.56M4381.5 5960.35C4468.17 6012.35 4673.5 6103.85 4949.5 6140.85C5198.37 6174.22 5401.46 6149.27 5468.99 6140.98M5427 3803.35C5427.1 3804.47 5427.2 3805.59 5427.3 3806.7M5640 3718.86C5909.35 3777.01 6164 3853.35 6341.5 3955.35C6419 3996.35 6572 4085.35 6713 4236.85C6945.11 4487.56 7069.56 4631.85 7285.5 4893.35M5640 3718.86C5696.49 3799.08 5731.05 4653.47 5736.4 5089.85M4279.86 4850.85C4510.07 4923.02 5070.4 5037.55 5470 4918.35M4279.86 4850.85C4287.7 4796.74 4297.62 4739.66 4308.94 4681.35M4279.86 4850.85C4279.13 4855.88 4278.42 4860.88 4277.73 4865.85M5470 4918.35L5470.65 4873.85M5470 4918.35V5107.85M5736.4 5089.85C5736.68 5113.1 5736.88 5135.16 5737 5155.85V6106.35M5736.4 5089.85C5757.76 5273.68 5859.28 5652 6278.78 5809M6278.78 5809C6277.83 5817.9 6277.06 5825.75 6276.5 5832.35M6278.78 5809C6289.32 5710.03 6322.08 5480.27 6339.36 5371.85M6339.36 5371.85C6320.53 5490.02 6283.3 5752.35 6276.5 5832.35M6339.36 5371.85C6401.57 5448.91 6449.49 5508.18 6468 5531.35M6276.5 5832.35C6085.7 6014.35 5837.33 6090.85 5737 6106.35M6276.5 5832.35C6305.5 5865.18 6364.78 5953.65 6407 6036.5M4059 6831.56L5223.56 6840.35M4059 6831.56L3633.53 6828.35M5470 6140.85V6064.35M5470 6140.85V6318.35M5470 6140.85L5468.99 6140.98M5470 6140.85C5469.67 6140.89 5469.33 6140.93 5468.99 6140.98M5737 6106.35V6466.35H5470V6318.35M6407 6036.5C6380.73 6061.65 6357.01 6083.8 6339 6099.85M6407 6036.5C6488.09 5958.87 6593.5 5852.66 6630.5 5808.85M4330 4003.35L4475.5 4012.87M4475.5 4012.87C4460.73 4062.58 4443.6 4122.52 4425.58 4188.85M4264.5 4164.85L4425.58 4188.85M4425.58 4188.85C4411.49 4240.72 4396.86 4296.5 4382.39 4354.35M4229 4325.85L4382.39 4354.35M4382.39 4354.35C4368.51 4409.81 4354.79 4467.18 4341.84 4524.85M4185.5 4492.85L4341.84 4524.85M4341.84 4524.85C4330.08 4577.18 4318.96 4629.75 4308.94 4681.35M4157 4652.35L4308.94 4681.35M4126 4831.35L4277.73 4865.85M4277.73 4865.85C4275.24 4883.72 4272.99 4901.24 4271 4918.35C4266.3 4958.77 4262.05 4997.41 4258.19 5034.35M4103.5 5001.35L4258.19 5034.35M4258.19 5034.35C4250.5 5108.06 4244.4 5175 4239.56 5235.85M4078.5 5199.35C4119.46 5209.52 4209.02 5231.05 4239.56 5235.85M4239.56 5235.85C4233.88 5307.21 4229.94 5370.18 4227.2 5425.85M4066 5391.35C4109.4 5400.68 4202.4 5420.65 4227.2 5425.85M4227.2 5425.85C4221.68 5538.14 4221.06 5620.7 4221 5682.35M4051.5 5642.85C4091.67 5652.18 4181.81 5673.15 4221 5682.35M5427.53 3809.35H5542.5M5427.53 3809.35C5434.05 3881.56 5442.98 3942.56 5451.39 4016.85M5427.53 3809.35L5427.3 3806.7M5427.53 3809.35C5427.45 3808.47 5427.37 3807.59 5427.3 3806.7M5451.39 4016.85H5587M5451.39 4016.85C5457.42 4070.16 5463.18 4130.3 5467.56 4206.35M5467.56 4206.35H5609.5M5467.56 4206.35C5471.1 4267.62 5473.75 4339.21 5474.93 4425.85M5474.93 4425.85C5475.38 4458.61 5475.62 4493.53 5475.62 4530.85L5473.91 4648.85M5474.93 4425.85H5609.5M5473.91 4648.85H5619.5M5473.91 4648.85L5470.65 4873.85M5470.65 4873.85H5625M5470 5107.85H5625M5470 5107.85V5332.35M5470 5332.35H5625M5470 5332.35V5577.35M5470 5577.35H5625M5470 5577.35V5818.35M5470 5818.35H5615M5470 5818.35V6064.35M5470 6064.35H5632.5M5470 6318.35H5632.5M5875 4790.35C6037.1 4999.54 6407.86 5456.07 6468 5531.35M6468 5531.35C6468 5531.35 6491.2 5508.33 6520 5474.35M7285.5 4893.35C7285.5 4893.35 6979.45 5036.66 6809 5172.85C6658 5293.51 6586.55 5395.86 6520 5474.35M7285.5 4893.35C7366.38 5020.54 7488.94 5148.92 7682.5 5443.35C7753.5 5551.35 7793.4 5669.15 7785 5802.35C7785 6080.85 7421.67 6337.68 7215.5 6453.85C7063.06 6542.53 6864.07 6667.16 6651.5 6783.35M6520 5474.35C6572.39 5528.09 6683.19 5652 6729.74 5714.51M6730 5714.85C6729.92 5714.74 6729.83 5714.62 6729.74 5714.51M7117.5 5520.35C7016.87 5539.56 6854.04 5615.94 6729.74 5714.51M6630.5 5808.85C6581.51 5866.85 6412.6 6034.25 6339 6099.85M6630.5 5808.85C6658.23 5776.02 6692.23 5744.26 6729.74 5714.51M6339 6099.85C6180 6238.35 5853.2 6518.85 5818 6532.85C5782.8 6546.85 5641.5 6604.85 5570.5 6617.85C5481.96 6642.39 5332.3 6722.5 5223.56 6840.35M6323 6947.35C6396.29 6914.95 6469.94 6879.05 6542.68 6841.35M6323 6947.35C6323.3 6971.29 6313.06 6994.36 6295.86 7015.85M6323 6947.35C6297.07 6986.18 6240.41 7065.96 6217 7080.99M4994 7321.85C4994 7321.85 4901.03 7333.91 4874 7301.85C4848.38 7271.47 4883.23 7218.41 4908.49 7187.22M4994 7321.85C5089.5 7189.85 5302 6960.35 5439.5 6840.35M4994 7321.85C4994 7321.85 4947 7403.35 4994 7442.85C5058 7496.64 5169.5 7411.35 5169.5 7411.35M5169.5 7411.35C5212.3 7328.15 5465.5 7061.85 5597 6943.35M5169.5 7411.35C5169.5 7411.35 5140 7470.35 5205 7511.85C5268.21 7552.21 5394 7442.85 5394 7442.85M5826.5 7015.85C5690 7121.35 5450 7343.25 5394 7442.85M5394 7442.85C5398.83 7474.85 5433.2 7529.25 5532 7490.85C5614.15 7458.92 5699.69 7380.82 5758.96 7326.71C5770.97 7315.74 5781.9 7305.76 5791.5 7297.35C5876 7223.35 5966.1 7154.95 6048.5 7147.35C6098.74 7137.07 6162.23 7113.68 6215.5 7081.89M2752 6350.35C2743.15 6456.58 2748.13 6674.26 2807.29 6761.86M2979.5 6834C2979.3 6834.03 2979.1 6834.06 2978.91 6834.09M2894 6358.85C2891.83 6469.84 2903.56 6712.52 2978.91 6834.09M3174 6923.5C3173.63 6923.6 3173.25 6923.7 3172.88 6923.79M3076.5 6358.85C3069.14 6489.47 3081.35 6726.05 3172.88 6923.79M2661.5 6823.35C2661.5 6823.35 2554.5 6730.35 2544.5 6637.35C2530.27 6505.04 2611.94 6466.85 2611.94 6466.85M2661.5 6823.35C2736.53 6875.12 2946.52 6973.19 3186.29 6951.35M2661.5 6823.35L2877 6820.15M3565.5 6522.85C3523.1 6483.65 3494.83 6423.18 3486 6397.85C3453.6 6307.05 3431.5 6298.35 3415 6298.35C3337.75 6298.35 3299.82 6442.32 3305.26 6615.35M3565.5 6522.85C3540.93 6574.89 3488.49 6704.75 3468.61 6820.8C3467.66 6826.34 3460.97 6828.66 3457 6824.68C3399.04 6766.59 3332.5 6662.42 3305.26 6615.35M3565.5 6522.85C3592 6474.85 3641.9 6346.75 3629.5 6218.35C3615.5 6136.85 3552 6055.68 3526.5 6023.85C3517.82 6014.7 3510.28 6006.85 3503.67 5999.97M2622.87 6303.35C2622.87 6303.35 2470.87 6392.69 2438.5 6532.35C2402 6689.85 2488 6823.35 2488 6823.35C2545.5 6911.85 2669.48 7011.35 2866 7056.35M2622.87 6303.35C2614.25 6351.78 2609.45 6406.96 2611.94 6466.85M2866 7056.35C2959.33 7070.14 3163.2 7082.08 3232 7019.53M2866 7056.35C2675.53 7012.74 2553.2 6917.93 2493.5 6831.55L46 6866.5V9652M3232 7019.53C3206.32 6994.04 3191.5 6961.35 3191.5 6961.35C3189.74 6958.03 3188 6954.7 3186.29 6951.35M3232 7019.53C3251.81 7039.19 3278.08 7054.57 3309 7047.35C3366.08 7034.03 3377.93 6991.62 3378.7 6961.35M2611.94 6466.85C2613.2 6497.19 2616.32 6528.73 2621.77 6561.22C2641.27 6630.39 2698.5 6773.35 2807.29 6761.85L2807.29 6761.86M3186.29 6951.35C3181.64 6942.26 3177.17 6933.07 3172.88 6923.79M3305.26 6615.35C3306.65 6659.59 3310.87 6705.73 3318 6751.85C3325.69 6801.61 3342.09 6840.69 3355.7 6873.12C3364.51 6894.13 3372.16 6912.34 3375.5 6928.85C3375.5 6928.85 3379.17 6942.83 3378.7 6961.35M3378.7 6961.35L3432 7028.35C3432.3 7029.94 3441.26 7031.61 3441.55 7033.35M4216.5 7380.22C4216.6 7380.19 4216.69 7380.17 4216.79 7380.14M4911 7186.5C4910.16 7186.74 4909.33 7186.98 4908.49 7187.22M3643 7487.5C3642.67 7486.84 3642.34 7486.18 3642.01 7485.51M3456.67 6824.35L3455.12 6845.85M3441.55 7033.35L3441.91 7028.35M3441.55 7033.35C3443.47 7044.91 3442.88 7059.63 3443.11 7072.85M3455.12 6845.85L3521.5 6890.35L3595 6897.35L3632.75 6917.85M3455.12 6845.85L3441.91 7028.35M3678.79 6643.21C3712.65 6665.15 3800.66 6676.63 3813.47 6615.15C3814.73 6609.11 3813.07 6602.88 3810.04 6597.51C3781.13 6546.26 3761.41 6487.04 3753.5 6453.35M3678.79 6643.21L3753.5 6453.35M3678.79 6643.21C3664.18 6679.92 3641.42 6753.21 3633.53 6828.35M3753.5 6453.35C3780 6397.85 3811.5 6257.35 3738.5 6126.85C3689 6038.36 3551.5 5986.85 3467.93 5960.85M3632.75 6917.85L3670.5 6938.35C3718.15 6971.03 3785.83 7018.61 3858.5 7072.85M3632.75 6917.85C3629.59 6889.24 3630.35 6858.64 3633.53 6828.35M3467.93 5960.85C3476.11 5971.29 3486.9 5982.52 3503.66 5999.96M3441.91 7028.35L3778.5 7296.82M3778.5 7296.82L3854.5 7438.85M3778.5 7296.82L3937 7423.35M3854.5 7438.85L3937 7423.35M3854.5 7438.85C3795.81 7451.36 3720.37 7468.02 3642.01 7485.51M3937 7423.35L4186 7621.85C4255.75 7683.53 4424.26 7784.55 4529.01 7847.36C4566.93 7870.09 4596.5 7887.81 4610 7896.85C4560.6 7806.55 4529.1 7755.34 4459 7662.35C4340.66 7505.68 4270.83 7430.61 4216.79 7380.14M3633.53 6828.35L5223.56 6840.35M5223.56 6840.35C5219.31 6844.96 5215.12 6849.63 5211 6854.35L5012.01 7072.85M6651.5 6783.35C6658.33 6797.02 6674.1 6830.34 6676.5 6843.94M6651.5 6783.35C6615.56 6803 6579.23 6822.4 6542.68 6841.35M6676.5 6843.94L6542.68 6841.35M6676.5 6843.94L9072.5 6890.35M6542.68 6841.35L9072.5 6890.35M9072.5 6890.35V9707.35M3443.11 7072.85C3443.31 7084.64 3444.16 7095.24 3448 7101.35C3456.75 7115.27 3582.1 7365.55 3642.01 7485.51M3443.11 7072.85H1797.5L1020 8317.85H2398M2398 8317.85C2456.88 8311.49 2595.06 8284.75 2704.54 8240.49C2728.69 8230.73 2756.64 8235.73 2776.67 8252.39C2800.53 8272.23 2832.93 8295.73 2871.71 8317.85M2398 8317.85H2634.86H2871.71M3858.5 7072.85C3976.71 7161.08 4106.11 7264.41 4186 7352.35C4195.8 7360.93 4205.98 7370.04 4216.79 7380.14M3858.5 7072.85H5012.01M5012.01 7072.85L4930.5 7162.35C4930.5 7162.35 4920.6 7172.27 4908.49 7187.22M3349 8313.91C3348.76 8314.07 3348.51 8314.23 3348.27 8314.39M2871.71 8317.85C2913.6 8341.74 2962.93 8364.02 3017 8378.35C3149.22 8413.4 3291.76 8350.96 3348.27 8314.39M46 9652L9072.5 9707.35M46 9652V10013.4H9072.5V9707.35M6635.5 7069.62L7442 7072.85L7510.5 7359.08M6635.5 7069.62C6682.76 7091.66 6736.02 7121.69 6797.5 7162.35M6635.5 7069.62C6494.45 7003.84 6406.89 7009.14 6314.19 7014.76M5880.17 9034.35H6047M5880.17 9034.35C5950.62 8991.93 6022.27 8958.06 6086.5 8929.24M5880.17 9034.35C5878.86 9035.14 5877.55 9035.93 5876.24 9036.72M6295.86 7015.85C6276.62 7039.88 6248.67 7061.92 6217 7080.99M6295.86 7015.85C6301.96 7015.5 6308.03 7015.13 6314.07 7014.77M6797.5 7162.35C6987.76 7269.15 7030.63 7272.45 7114.04 7278.87C7123.57 7279.6 7133.63 7280.38 7144.5 7281.35C7236.08 7289.56 7385.48 7315.27 7487.99 7350.81M6797.5 7162.35C6552.54 7000.32 6437.95 7007.26 6314.19 7014.76M6215.5 7081.89C6215.98 7081.62 6216.48 7081.32 6217 7080.99M6215.5 7081.89C6216 7081.59 6216.5 7081.29 6217 7080.99M7510.5 7359.08C7534.89 7368.6 7555.66 7378.74 7571 7389.35M7510.5 7359.08C7503.3 7356.27 7495.78 7353.51 7487.99 7350.81M7645 7973.1L7891 9034.35H6047M7645 7973.1C7480.01 8095.04 7217.06 8084.65 7033.97 8077.41M7645 7973.1C7674.46 7951.33 7700.8 7925.34 7723 7894.35M7571 7389.35C7667.5 7442.52 7897.7 7546.95 8058.5 7563.35C8025.7 7587.75 7821.17 7794.18 7723 7894.35M7571 7389.35C7551.12 7375.6 7522.16 7362.66 7487.99 7350.81M6086.5 8929.24C6088.83 8951.28 6078.6 9003.15 6047 9034.35M6086.5 8929.24C6101.94 8922.31 6116.96 8915.67 6131.42 8909.27C6148.26 8901.83 6164.35 8894.71 6179.5 8887.85C6257.17 8852.68 6428 8737.85 6483 8524.35C6526.67 8372.02 6683 8068.85 6959 8074.85C6981.87 8075.35 7007.03 8076.34 7033.91 8077.41M6086.5 8929.24C6021.08 8958.6 5947.95 8993.19 5876.24 9036.72M7723 7894.35C7576.47 8098.86 7249.76 8085.94 7033.97 8077.41M5079.36 2869.22C5098.79 2852.95 5122.13 2839.08 5150 2830.35C5178.29 2821.49 5205.67 2820.27 5231.41 2825.22M5079.36 2869.22C5041.62 2900.8 5018.6 2941.44 5005.64 2971.07M5314.22 3642.31C5281.4 3669.7 5240.19 3686.57 5197 3682.35C5096.25 3672.5 5049.5 3578.08 5049.5 3476.85C5049.5 3318.35 5154 3251.85 5154 3251.85C5171.5 3235.85 5234.4 3233.65 5216 3290.85C5210.05 3309.35 5139.5 3360.95 5131.5 3441.35C5118 3501.85 5131.9 3623.15 5235.5 3612.35C5248.09 3609.39 5262.71 3603.74 5275.89 3593.06M4216.79 7380.14C4263.63 7366.5 4349.29 7342.9 4453.21 7314.28M3503.66 5999.96L3503.67 5999.97M3503.66 5999.96C3503.66 5999.96 3503.66 5999.97 3503.67 5999.97M3642.01 7485.51C3581.5 7499.02 3519.26 7513.02 3461.64 7525.98M3348.27 8314.39C3338.31 8306.91 3328.93 8299.56 3320 8292.35C3264 8247.15 3048 8041.52 2947 7944.35C2826.2 7820.75 2679.33 7774.02 2617 7769.35C2669 7704.55 3043.17 7614.18 3223 7578.85C3251.06 7573.34 3347.17 7551.72 3461.54 7526M3348.27 8314.39C3416.38 8365.55 3511.34 8422.61 3671 8479.12C3689.24 8487.98 3707.95 8496.17 3727.11 8504.57M4908.49 7187.22C4756.18 7230.81 4589.11 7276.84 4453.24 7314.27M6314.19 7014.76L6314.07 7014.77M6314.19 7014.76C6314.15 7014.76 6314.11 7014.77 6314.07 7014.77M7033.97 8077.41L7033.91 8077.41M7033.97 8077.41C7033.95 8077.41 7033.93 8077.41 7033.91 8077.41M3727.12 8504.57C3823.03 8546.57 3930.4 8593.58 4047.5 8754.62C4188 8947.85 4339.5 9013.35 4655 9119.35C4827 9191.85 5017 9340.85 5215 9528.85C5313.67 9489.52 5529.28 9356.14 5674.5 9197.85C5734.24 9132.73 5804.53 9080.26 5876.24 9036.72M3727.12 8504.57L3727.11 8504.57M3727.12 8504.57C3727.12 8504.57 3727.12 8504.57 3727.11 8504.57M3461.64 7525.98L3461.54 7526M3461.64 7525.98C3461.61 7525.99 3461.57 7525.99 3461.54 7526M4453.21 7314.28L4453.24 7314.27M4453.21 7314.28C4453.22 7314.27 4453.23 7314.27 4453.24 7314.27M2877 6820.15C2857.51 6810.63 2841.67 6798.1 2829 6785.85C2821.06 6779.67 2813.84 6771.56 2807.29 6761.86M2877 6820.15C2903.54 6833.11 2937.58 6840.63 2978.91 6834.09M2978.91 6834.09C2984.57 6843.23 2990.6 6851.69 2997 6859.35C3038.63 6909.16 3073.74 6949.5 3172.88 6923.79" stroke="black" stroke-width="10" stroke-linecap="round"/>
<path d="M3597.5 6966.35C3571.41 6963.72 3555.26 6995.4 3559 7021.35C3562.13 7043.09 3575.56 7063.35 3597.5 7062.35C3620.49 7061.3 3631.22 7036.87 3631 7013.85C3630.78 6991.15 3620.08 6968.62 3597.5 6966.35Z" fill="#1E1E1E" stroke="black" stroke-width="10" stroke-linecap="round"/>
<path d="M4438.5 3146.35C4414.11 3163.63 4416.49 3195.44 4429.5 3222.35C4444.78 3253.97 4482.17 3280.41 4511 3260.35C4536.15 3242.86 4533.58 3209.57 4519.5 3182.35C4503.59 3151.61 4466.74 3126.34 4438.5 3146.35Z" fill="black"/>
<path d="M4015.5 3156.35C3990.94 3165.78 3992.31 3197.9 4002 3222.35C4013.15 3250.48 4046.69 3280.22 4069.5 3260.35C4087.76 3244.45 4079.61 3220.35 4069.5 3198.35C4058.34 3174.08 4040.44 3146.78 4015.5 3156.35Z" fill="black"/>
<path d="M4438.5 3146.35C4414.11 3163.63 4416.49 3195.44 4429.5 3222.35C4444.78 3253.97 4482.17 3280.41 4511 3260.35C4536.15 3242.86 4533.58 3209.57 4519.5 3182.35C4503.59 3151.61 4466.74 3126.34 4438.5 3146.35Z" stroke="black" stroke-width="10" stroke-linecap="round"/>
<path d="M4015.5 3156.35C3990.94 3165.78 3992.31 3197.9 4002 3222.35C4013.15 3250.48 4046.69 3280.22 4069.5 3260.35C4087.76 3244.45 4079.61 3220.35 4069.5 3198.35C4058.34 3174.08 4040.44 3146.78 4015.5 3156.35Z" stroke="black" stroke-width="10" stroke-linecap="round"/>
<path d="M4189.5 3086.85C4196.34 3138.68 4202 3258.59 4171 3317.85C4131.5 3393.35 4107 3458.85 4213.5 3472.35C4244.5 3472.35 4278.9 3463.45 4288.5 3445.85M4181 3635.85C4181 3635.85 4281.54 3652.04 4342.5 3635.85C4414.02 3616.86 4502.5 3534.35 4502.5 3534.35" stroke="black" stroke-width="10" stroke-linecap="round"/>
<path d="M3914.5 2985.35C3914.5 2985.35 3964.23 2957.12 3999.5 2953.35C4049.04 2948.05 4123 2985.35 4123 2985.35M4346.5 2953.35C4346.5 2953.35 4420.59 2923.22 4474 2925.85C4531.62 2928.69 4619 2972.85 4619 2972.85" stroke="black" stroke-width="55" stroke-linecap="round"/>
</g>
<defs>
<clipPath id="clip0_48_19">
<rect width="9104" height="9456" fill="white"/>
</clipPath>
</defs>
</svg>
