<svg width="288" height="227" viewBox="0 0 288 227" fill="none" xmlns="http://www.w3.org/2000/svg">
<g clip-path="url(#clip0_1449_1508)">
<path d="M45.1569 91.9637C39.4806 91.4231 28.1222 94.9136 29.6598 111.363C30.079 115.847 33.6654 125.162 45.3491 126.984C47.6238 127.485 54.3094 125.477 56.1016 123.471L56.1015 123.471C55.9227 123.503 55.7386 123.52 55.5492 123.522C55.3193 123.525 55.0815 123.505 54.836 123.461C46.2269 121.908 51.6445 109.808 51.8291 109.402C50.0467 107.693 48.7825 105.299 48.4434 103.576C46.901 95.7402 49.7062 92.9697 51.9661 91.918C51.1574 82.2753 55.2674 69.9041 65.0469 61.9141C72.4295 55.8825 90.1216 49.3384 104.608 59.9098C96.536 50.2034 86.1448 48.2872 80.0632 48.4988C65.1 48.997 56.0754 56.5216 52.0171 61.2668C41.7043 73.325 43.1466 86.7557 45.1569 91.9637Z" fill="black"/>
<path d="M114.254 87.5444C118.257 78.3348 113.951 71.8156 112.038 69.5867C112.025 69.5369 112.01 69.4872 111.995 69.4374C110.053 66.9662 104.614 63.4925 101.543 62.3726C87.9902 57.4315 77.4379 62.46 70.9832 66.4801C59.8772 73.3969 56.6826 84.0047 56.3007 91.6904C58.9377 92.5491 60.3076 95.1105 60.5008 95.4954C60.515 95.5238 60.5475 95.5355 60.5772 95.5241C65.118 93.7756 67.6272 86.5398 68.2246 83.1232C86.077 75.8033 90.8469 69.4674 94.4091 64.3225C94.4332 64.2878 94.4826 64.2859 94.5074 64.3201C97.0556 67.842 105.407 73.8347 112.759 80.1625C112.785 80.1848 112.803 80.2152 112.809 80.2489C112.946 80.9514 113.096 81.6622 113.253 82.3991C113.264 82.4495 113.275 82.4999 113.285 82.5505C113.604 84.0454 113.946 85.652 114.25 87.5182C114.251 87.5269 114.253 87.5357 114.254 87.5444Z" fill="black"/>
<path d="M79.6672 113.412C79.7413 113.387 79.8169 113.398 79.8855 113.435C82.3014 114.759 91.3173 117.493 101.641 116.429C101.741 116.418 101.842 116.456 101.9 116.538C103.158 118.325 100.651 122.219 97.4035 123.468C88.0256 127.076 82.0876 121.834 79.9827 118.626C77.5401 114.902 78.8651 113.682 79.6672 113.412Z" fill="white"/>
<path d="M92.7258 136.155C86.1866 136.614 76.4922 134.888 67.9692 127.146C71.3089 131.515 80.8957 140.243 92.5248 140.2L92.7258 136.155Z" fill="black"/>
<path d="M65.0469 61.9141C55.2674 69.9041 51.1574 82.2753 51.9661 91.918C53.6727 91.2625 55.1149 91.3043 56.3007 91.6904C56.6826 84.0047 59.8772 73.3969 70.9832 66.4801C77.4379 62.46 87.9902 57.4315 101.543 62.3726C104.614 63.4925 110.053 66.9662 111.995 69.4374C110.807 65.4719 106.591 61.444 104.608 59.9098C90.1216 49.3384 72.4295 55.8825 65.0469 61.9141Z" fill="#AFD1FA"/>
<path d="M56.1986 106.531C55.1399 106.621 54.6329 107.101 54.5724 107.876C54.5371 108.328 54.8045 108.727 55.1193 109.034C55.6789 109.58 56.583 110.554 57.1548 111.64C57.374 112.056 57.5444 112.488 57.6278 112.919C58.2244 116 57.7861 120.301 54.9998 120.163C51.9033 120.009 51.2333 116.86 53.4518 110.654C53.4341 110.643 53.4164 110.632 53.3988 110.622C52.8424 110.285 52.3164 109.869 51.8291 109.402C51.6445 109.808 46.2269 121.908 54.836 123.461C55.0815 123.505 55.3193 123.525 55.5492 123.522C55.7386 123.52 55.9227 123.503 56.1015 123.471L56.1016 123.471C56.5584 123.39 56.9805 123.216 57.3678 122.964C57.7668 122.705 58.1374 122.37 58.4756 121.975C60.3589 119.773 61.2369 115.696 60.4202 112.422C59.6885 109.488 57.9799 107.625 57.1798 106.884C56.9096 106.633 56.5584 106.5 56.1986 106.531Z" fill="#FEBC23"/>
<path d="M54.9998 120.163C57.7861 120.301 58.2244 116 57.6278 112.919C57.5444 112.488 57.374 112.056 57.1548 111.64C55.055 111.535 54.9999 111.437 53.9651 110.931C53.7914 110.847 53.6202 110.754 53.4518 110.654C51.2333 116.86 51.9033 120.009 54.9998 120.163Z" fill="black"/>
<path d="M135.86 184.449C132.454 167.014 124.195 158.165 119.051 154.321C113.452 149.873 103.582 146.106 96.6568 144.052C101.506 153.837 90.0799 163.491 73.7621 158.667C61.143 154.936 54.5883 144.675 53.2509 140.119C53.1309 140.141 53.0031 140.245 52.8756 140.267C42.9502 141.936 26.3055 145.542 15.8139 156.758C12.8977 159.875 7.62102 167.99 4.72745 185.499C3.53134 192.294 1.33269 205.7 1.24092 207.538C1.72853 207.718 2.27254 207.908 2.86796 208.107C10.3377 210.6 25.9001 214.364 39.7554 213.04L38.1237 231.679L120.615 235.778C120.933 231.235 120.522 226.558 121.505 219.721C121.831 218.12 122.101 216.513 122.321 214.911C126.961 215.139 132.969 214.371 138.395 213.138C138.833 213.022 139.165 212.898 139.561 212.776C139.587 212.768 139.604 212.746 139.604 212.719C139.683 203.571 137.177 191.196 135.86 184.449Z" fill="#1E3A8A"/>
<path d="M1.14468 229.842L38.1237 231.679L39.7554 213.04C25.9001 214.364 10.3377 210.6 2.86796 208.107L1.14468 229.842Z" fill="#B5602A"/>
<path d="M138.692 236.676C138.614 235.275 138.586 220.407 138.395 213.138C132.969 214.371 126.961 215.139 122.321 214.911C122.101 216.513 121.831 218.12 121.505 219.721C120.522 226.558 120.933 231.235 120.615 235.778L138.692 236.676Z" fill="#B5602A"/>
<path fill-rule="evenodd" clip-rule="evenodd" d="M112.809 80.2489C112.803 80.2152 112.785 80.1848 112.759 80.1625C105.407 73.8347 97.0556 67.842 94.5074 64.3201C94.4826 64.2859 94.4332 64.2878 94.4091 64.3225C90.8469 69.4674 86.077 75.8033 68.2246 83.1232C67.6272 86.5398 65.118 93.7756 60.5772 95.5241C60.5475 95.5355 60.515 95.5238 60.5008 95.4954C60.3076 95.1105 58.9377 92.5491 56.3007 91.6904C55.1149 91.3043 53.6727 91.2625 51.9661 91.918C49.7062 92.9697 46.901 95.7402 48.4434 103.576C48.7825 105.299 50.0467 107.693 51.8291 109.402C52.3164 109.869 52.8424 110.285 53.3988 110.622C53.4164 110.632 53.4341 110.643 53.4518 110.654C53.6202 110.754 53.7914 110.847 53.9651 110.931C54.9999 111.437 55.055 111.535 57.1548 111.64C56.583 110.554 55.6789 109.58 55.1193 109.034C54.8045 108.727 54.5371 108.328 54.5724 107.876C54.6329 107.101 55.1399 106.621 56.1986 106.531C56.5584 106.5 56.9096 106.633 57.1798 106.884C57.9799 107.625 59.6885 109.488 60.4202 112.422C61.2369 115.696 60.3589 119.773 58.4756 121.975C57.836 134.825 57.3125 139.355 53.2509 140.119C54.5883 144.675 61.143 154.936 73.7621 158.667C90.0799 163.491 101.506 153.837 96.6568 144.052C95.1214 143.596 93.7308 143.225 92.5635 142.949C92.4631 142.926 92.394 142.834 92.3991 142.731L92.5248 140.2C80.8957 140.243 71.3089 131.515 67.9692 127.146C76.4922 134.888 86.1866 136.614 92.7258 136.155C94.9922 135.996 96.8796 135.575 98.2078 135.05C112.695 129.33 114.56 115.106 115.007 106.107C115.44 97.4052 114.946 91.7999 114.254 87.5444C114.253 87.5357 114.251 87.5269 114.25 87.5182C113.946 85.652 113.604 84.0454 113.285 82.5505C113.275 82.4999 113.264 82.4495 113.253 82.3991C113.096 81.6622 112.946 80.9514 112.809 80.2489ZM101.9 116.538C101.842 116.456 101.741 116.418 101.641 116.429C91.3173 117.493 82.3014 114.759 79.8855 113.435C79.8169 113.398 79.7413 113.387 79.6672 113.412C78.8651 113.682 77.5401 114.902 79.9827 118.626C82.0876 121.834 88.0256 127.076 97.4035 123.468C100.651 122.219 103.158 118.325 101.9 116.538Z" fill="#B5602A"/>
<path d="M56.1016 123.471C54.3094 125.477 47.6238 127.485 45.3491 126.984C33.6654 125.162 30.079 115.847 29.6598 111.363C28.1222 94.9136 39.4806 91.4231 45.1569 91.9637C43.1466 86.7557 41.7043 73.325 52.0171 61.2668C56.0754 56.5216 65.1 48.997 80.0632 48.4988C86.1448 48.2872 96.536 50.2034 104.608 59.9098M56.1016 123.471L56.1015 123.471M56.1016 123.471C56.5584 123.39 56.9805 123.216 57.3678 122.964M104.608 59.9098C90.1216 49.3384 72.4295 55.8825 65.0469 61.9141C55.2674 69.9041 51.1574 82.2753 51.9661 91.918M104.608 59.9098C106.591 61.444 110.807 65.4719 111.995 69.4374M51.9661 91.918C49.7062 92.9697 46.901 95.7402 48.4434 103.576C48.7825 105.299 50.0467 107.693 51.8291 109.402M51.9661 91.918C53.6727 91.2625 55.1149 91.3043 56.3007 91.6904M114.254 87.5444C118.257 78.3348 113.951 71.8156 112.038 69.5867C112.025 69.5369 112.01 69.4872 111.995 69.4374M114.254 87.5444C114.946 91.7999 115.44 97.4052 115.007 106.107M114.254 87.5444C114.253 87.5357 114.251 87.5269 114.25 87.5182M53.9651 110.931C54.9999 111.437 55.055 111.535 57.1548 111.64M53.9651 110.931C53.7914 110.847 53.6202 110.754 53.4518 110.654M53.9651 110.931C53.7731 110.838 53.5843 110.734 53.3988 110.622M56.3007 91.6904C58.9377 92.5491 60.3076 95.1105 60.5008 95.4954C60.515 95.5238 60.5475 95.5355 60.5772 95.5241C65.118 93.7756 67.6273 86.5397 68.2246 83.1232C86.077 75.8033 90.8469 69.4674 94.4091 64.3225C94.4332 64.2878 94.4826 64.2859 94.5074 64.3201C97.0556 67.842 105.407 73.8346 112.759 80.1625C112.785 80.1848 112.803 80.2152 112.809 80.2489C112.946 80.9514 113.096 81.6622 113.253 82.3991C113.264 82.4495 113.275 82.4999 113.285 82.5505C113.604 84.0454 113.946 85.652 114.25 87.5182M56.3007 91.6904C56.6826 84.0047 59.8772 73.3969 70.9832 66.4801C77.4379 62.46 87.9902 57.4315 101.543 62.3726C104.614 63.4925 110.053 66.9662 111.995 69.4374M115.007 106.107C114.56 115.106 112.695 129.33 98.2078 135.05C96.8796 135.575 94.9922 135.996 92.7258 136.155M115.007 106.107C115.441 97.3873 114.944 91.7768 114.25 87.5182M92.7258 136.155C86.1866 136.614 76.4922 134.888 67.9692 127.146C71.3089 131.515 80.8957 140.243 92.5248 140.2M92.7258 136.155L92.5248 140.2M92.5248 140.2L92.3991 142.731C92.394 142.834 92.4631 142.926 92.5635 142.949C93.7308 143.225 95.1214 143.596 96.6568 144.052M122.302 214.91C122.308 214.911 122.315 214.911 122.321 214.911M138.395 213.138C138.833 213.022 139.165 212.898 139.561 212.776C139.587 212.768 139.604 212.746 139.604 212.719C139.683 203.571 137.177 191.196 135.86 184.449C132.454 167.014 124.195 158.165 119.051 154.321C113.452 149.873 103.582 146.106 96.6568 144.052M138.395 213.138C138.586 220.407 138.614 235.275 138.692 236.676L120.615 235.778M138.395 213.138C132.969 214.371 126.961 215.139 122.321 214.911M120.615 235.778L38.1237 231.679M120.615 235.778C120.933 231.235 120.522 226.558 121.505 219.721C121.831 218.12 122.101 216.513 122.321 214.911M42.1649 185.516L39.7554 213.04M38.1237 231.679L1.14468 229.842L2.86796 208.107M38.1237 231.679L39.7554 213.04M58.4797 121.892C58.4784 121.92 58.477 121.947 58.4756 121.975M39.7554 213.04C25.9001 214.364 10.3377 210.6 2.86796 208.107M2.86796 208.107C2.27253 207.908 1.72853 207.718 1.24092 207.538C1.33269 205.7 3.53134 192.294 4.72745 185.499C7.62102 167.99 12.8977 159.875 15.8139 156.758C26.3055 145.542 42.9502 141.936 52.8756 140.267C53.0031 140.245 53.1309 140.141 53.2509 140.119M120.167 178.14C121.874 184.09 124.468 199.296 122.321 214.911M53.2509 140.119C54.5883 144.675 61.143 154.936 73.7621 158.667C90.0799 163.491 101.506 153.837 96.6568 144.052M53.2509 140.119C57.3125 139.355 57.836 134.825 58.4756 121.975M53.4518 110.654C51.2333 116.86 51.9033 120.009 54.9998 120.163C57.7861 120.301 58.2244 116 57.6278 112.919C57.5444 112.488 57.374 112.056 57.1548 111.64M53.4518 110.654C53.4341 110.643 53.4164 110.632 53.3988 110.622M51.8339 109.391C51.8339 109.391 51.8323 109.395 51.8291 109.402M57.3678 122.964C56.9805 123.216 56.5583 123.39 56.1015 123.471M57.3678 122.964C57.7668 122.705 58.1374 122.37 58.4756 121.975M57.1548 111.64C56.583 110.554 55.6789 109.58 55.1193 109.034C54.8045 108.727 54.5371 108.328 54.5724 107.876C54.6329 107.101 55.1399 106.621 56.1986 106.531C56.5584 106.5 56.9096 106.633 57.1798 106.884C57.9799 107.625 59.6885 109.488 60.4202 112.422C61.2369 115.696 60.3589 119.773 58.4756 121.975M51.8291 109.402C51.6445 109.808 46.2269 121.908 54.836 123.461C55.0815 123.505 55.3193 123.525 55.5492 123.522C55.7386 123.52 55.9227 123.503 56.1015 123.471M51.8291 109.402C52.3164 109.869 52.8424 110.285 53.3988 110.622M79.9827 118.626C77.5401 114.902 78.8651 113.682 79.6672 113.412C79.7413 113.387 79.8169 113.398 79.8855 113.435C82.3014 114.759 91.3173 117.493 101.641 116.429C101.741 116.418 101.842 116.456 101.9 116.538C103.158 118.325 100.651 122.219 97.4035 123.468C88.0256 127.076 82.0876 121.834 79.9827 118.626Z" stroke="black" stroke-width="0.21324" stroke-linecap="round"/>
<path d="M75.3179 86.6248C75.3179 86.6248 77.4488 84.3351 80.7939 83.789C84.8744 83.1228 87.275 84.7939 87.275 84.7939M101.62 84.8924C101.62 84.8924 104.722 84.183 106.145 84.539C108.961 85.244 111.046 87.714 111.046 87.714" stroke="black" stroke-width="0.913884" stroke-linecap="round"/>
<path d="M83.0847 93.7577C81.6119 93.5963 80.7976 95.5339 80.8934 97.1372C80.9746 98.4949 81.5228 99.9637 82.7773 99.9439C83.9756 99.9251 84.4935 98.6098 84.6927 97.326C84.9312 95.7894 84.5104 93.9139 83.0847 93.7577Z" fill="black" stroke="black" stroke-width="0.0609256" stroke-linecap="round"/>
<path d="M104.971 93.8752C103.498 93.7138 102.684 95.6514 102.78 97.2546C102.861 98.6123 103.409 100.081 104.664 100.061C105.862 100.042 106.38 98.7272 106.579 97.4434C106.817 95.9068 106.397 94.0314 104.971 93.8752Z" fill="black" stroke="black" stroke-width="0.0609256" stroke-linecap="round"/>
<path d="M95.7252 96.517C95.7252 96.517 103.397 105.199 100.214 109.152C98.2268 111.62 93.0888 110.349 93.0888 110.349" stroke="black" stroke-width="0.152314" stroke-linecap="round"/>
<path d="M51.8973 101.435C51.8973 101.435 52.7238 98.9617 54.1438 97.9628C55.1836 97.2312 57.3364 96.6269 57.3364 96.6269" stroke="black" stroke-width="0.304628" stroke-linecap="round"/>
<path d="M73.1233 191.504C73.2769 191.662 73.5031 191.749 73.799 191.763C74.0427 191.775 74.2444 191.736 74.404 191.647C74.5635 191.558 74.6417 191.407 74.6399 191.193C74.6403 191.092 74.5765 190.983 74.4469 190.867C74.3174 190.752 74.0924 190.672 73.7704 190.625C73.2151 190.544 72.8228 190.365 72.5938 190.085C72.3632 189.805 72.2577 189.481 72.2758 189.115C72.2877 188.871 72.3571 188.648 72.4811 188.44C72.6065 188.233 72.7912 188.07 73.0339 187.948C73.2765 187.826 73.571 187.775 73.9159 187.792C74.2792 187.81 74.5853 187.898 74.8339 188.06C75.0826 188.221 75.268 188.42 75.3867 188.661C75.5055 188.902 75.5624 189.151 75.5591 189.407L74.7435 189.367C74.7347 189.172 74.6604 188.994 74.5208 188.834C74.3797 188.673 74.1994 188.589 73.9786 188.578C73.7579 188.567 73.5573 188.616 73.3921 188.726C73.2268 188.836 73.1403 188.972 73.1322 189.136C73.1233 189.317 73.1929 189.463 73.3428 189.572C73.4926 189.68 73.7057 189.754 73.9836 189.789C74.5743 189.872 74.9872 190.037 75.227 190.285C75.4653 190.533 75.5765 190.834 75.5594 191.182C75.5472 191.43 75.4744 191.66 75.3395 191.873C75.2045 192.086 75.0042 192.253 74.7355 192.375C74.4682 192.497 74.1399 192.548 73.7505 192.529C73.3872 192.511 73.0797 192.422 72.8264 192.261C72.5731 192.099 72.3816 191.899 72.2537 191.658C72.1257 191.417 72.0613 191.163 72.0621 190.897L72.8715 190.937C72.8869 191.155 72.9729 191.343 73.1265 191.501L73.1233 191.504Z" fill="#FEBC23"/>
<path d="M75.9087 189.421L76.4667 189.449L76.5098 189.79C76.8181 189.491 77.1508 189.35 77.5079 189.368C77.848 189.389 78.1361 189.5 78.3737 189.699C78.6113 189.898 78.7178 190.2 78.698 190.603L78.5946 192.706L77.799 192.667L77.8968 190.803C77.9057 190.623 77.861 190.47 77.7626 190.345C77.6642 190.22 77.5277 190.154 77.3498 190.145C77.172 190.136 77.0127 190.19 76.8825 190.305C76.7524 190.42 76.6837 190.567 76.675 190.743L76.5769 192.614L75.7813 192.575L75.9102 189.423L75.9087 189.421Z" fill="#FEBC23"/>
<path d="M79.6885 192.615C79.4398 192.454 79.2474 192.242 79.1113 191.979C78.9752 191.715 78.9154 191.433 78.9301 191.132C78.9449 190.832 79.0325 190.551 79.1939 190.3C79.3551 190.052 79.5674 189.859 79.8308 189.723C80.0941 189.587 80.3797 189.528 80.6848 189.543C80.8841 189.552 81.071 189.595 81.2471 189.67C81.4232 189.745 81.5811 189.846 81.7209 189.973L81.7336 189.714L82.4372 189.749L82.3195 192.143C82.3158 192.218 82.3194 192.268 82.3288 192.297C82.3383 192.323 82.3574 192.339 82.3863 192.346C82.4152 192.352 82.4734 192.356 82.5623 192.36L82.5375 192.865C82.4874 192.884 82.3611 192.89 82.1572 192.88C82.0331 192.874 81.9288 192.838 81.843 192.77C81.7572 192.703 81.6937 192.619 81.6496 192.515C81.4882 192.641 81.3115 192.735 81.1209 192.798C80.9288 192.862 80.7293 192.888 80.5223 192.878C80.2173 192.863 79.9404 192.775 79.6901 192.614L79.6885 192.615ZM80.9691 192.073C81.1072 192.015 81.2256 191.92 81.326 191.785C81.4263 191.65 81.4811 191.474 81.4917 191.258C81.5023 191.042 81.4651 190.861 81.3786 190.714C81.2921 190.568 81.1821 190.46 81.0489 190.389C80.9156 190.318 80.7823 190.279 80.6489 190.272C80.5156 190.266 80.373 190.291 80.2334 190.348C80.0938 190.406 79.9737 190.503 79.8733 190.64C79.7728 190.776 79.718 190.953 79.7073 191.171C79.6966 191.388 79.734 191.567 79.8206 191.711C79.9073 191.855 80.0173 191.962 80.1505 192.033C80.2838 192.104 80.4202 192.143 80.5566 192.15C80.693 192.156 80.8311 192.131 80.9691 192.073Z" fill="#FEBC23"/>
<path d="M85.4235 190.018C85.6724 190.175 85.865 190.383 86.0014 190.641C86.1377 190.9 86.1977 191.181 86.1829 191.481C86.1681 191.782 86.0805 192.063 85.9192 192.313C85.7579 192.562 85.5456 192.754 85.2823 192.89C85.0189 193.026 84.7333 193.086 84.4282 193.071C84.0649 193.053 83.7481 192.933 83.4747 192.712L83.3775 194.689L82.6539 194.654L82.897 189.711L83.6205 189.747L83.6065 190.032C83.9082 189.833 84.2369 189.743 84.591 189.761C84.8961 189.776 85.1731 189.862 85.4235 190.018ZM84.1439 190.541C84.0058 190.598 83.8874 190.694 83.7871 190.829C83.6867 190.964 83.632 191.139 83.6213 191.355C83.6107 191.571 83.6479 191.753 83.7344 191.9C83.821 192.046 83.9309 192.154 84.0641 192.225C84.1974 192.296 84.3307 192.335 84.4641 192.342C84.5975 192.348 84.7401 192.323 84.8797 192.265C85.0193 192.208 85.1393 192.111 85.2397 191.974C85.3402 191.838 85.395 191.661 85.4057 191.443C85.4164 191.225 85.3791 191.045 85.2924 190.903C85.2058 190.759 85.0958 190.652 84.9625 190.581C84.8292 190.51 84.6928 190.471 84.5564 190.464C84.42 190.458 84.282 190.483 84.1439 190.541Z" fill="#FEBC23"/>
<path d="M87.3874 189.986L87.3015 191.857C87.2928 192.035 87.3468 192.187 87.465 192.314C87.5832 192.441 87.732 192.51 87.9144 192.519C88.0968 192.528 88.2516 192.474 88.3817 192.359C88.5118 192.244 88.5805 192.097 88.5892 191.921L88.6747 190.057L88.6885 190.058L88.6888 190.051L89.4844 190.09L89.3985 191.962C89.3898 192.14 89.4438 192.292 89.562 192.419C89.6802 192.546 89.829 192.615 90.0114 192.624C90.1938 192.633 90.3486 192.579 90.4787 192.464C90.6088 192.349 90.6775 192.202 90.6862 192.025L90.7717 190.161L91.5673 190.201L91.4639 192.303C91.4504 192.578 91.3704 192.798 91.2223 192.966C91.0742 193.134 90.8918 193.251 90.6733 193.318C90.4549 193.384 90.2307 193.413 90.0008 193.402C89.8061 193.392 89.619 193.354 89.4378 193.288C89.2566 193.222 89.1013 193.13 88.9689 193.012C88.8299 193.12 88.6662 193.198 88.478 193.244C88.2898 193.29 88.0984 193.308 87.9037 193.299C87.6554 193.287 87.4216 193.228 87.2009 193.121C86.9803 193.015 86.8044 192.873 86.6734 192.693C86.5424 192.514 86.4832 192.312 86.4943 192.085L86.5933 189.948L87.3889 189.987L87.3874 189.986Z" fill="#FEBC23"/>
<path d="M92.5124 193.294C92.2637 193.132 92.0713 192.92 91.9352 192.657C91.7991 192.394 91.7392 192.111 91.754 191.811C91.7688 191.51 91.8564 191.229 92.0177 190.979C92.179 190.73 92.3913 190.538 92.6546 190.402C92.9179 190.266 93.2036 190.206 93.5087 190.221C93.8137 190.236 94.0845 190.323 94.3332 190.484C94.5819 190.645 94.7743 190.858 94.9104 191.121C95.0465 191.384 95.1062 191.67 95.0912 191.975C95.0762 192.28 94.9891 192.551 94.8279 192.799C94.6666 193.048 94.4543 193.24 94.191 193.376C93.9276 193.512 93.645 193.572 93.3446 193.557C93.0441 193.543 92.7626 193.455 92.5124 193.294ZM93.793 192.751C93.931 192.694 94.0494 192.598 94.1498 192.463C94.2502 192.328 94.3049 192.153 94.3155 191.937C94.3262 191.721 94.289 191.539 94.2025 191.392C94.1159 191.246 94.006 191.138 93.8727 191.067C93.7395 190.996 93.6061 190.957 93.4728 190.95C93.3394 190.944 93.1968 190.969 93.0572 191.027C92.9176 191.084 92.7976 191.181 92.6971 191.318C92.5967 191.454 92.5419 191.631 92.5312 191.849C92.5205 192.067 92.5577 192.247 92.6445 192.389C92.7311 192.533 92.8411 192.64 92.9744 192.711C93.1076 192.782 93.244 192.821 93.3805 192.828C93.5169 192.835 93.6549 192.809 93.793 192.751Z" fill="#FEBC23"/>
<path d="M96.3481 191.257C96.2073 191.37 96.1318 191.531 96.1216 191.738L96.0178 193.569L95.2286 193.524L95.389 190.387L96.0332 190.412L96.0374 190.732C96.3756 190.448 96.7491 190.322 97.1608 190.356L97.1242 191.099C96.748 191.094 96.4887 191.148 96.3479 191.261L96.3481 191.257Z" fill="#FEBC23"/>
<path d="M98.2114 189.115L98.1015 191.351L98.6119 191.376L99.6621 190.583L100.638 190.617L99.1157 191.819L100.516 193.784L99.6527 193.741L98.4604 192.146L98.0618 192.127L97.9864 193.659L97.2506 193.623L97.4741 189.079L98.2114 189.115Z" fill="#FEBC23"/>
<path d="M101.122 188.157C101.03 188.054 100.863 188.079 100.805 188.203L100.225 189.391C100.174 189.488 100.213 189.607 100.311 189.654C100.408 189.702 100.527 189.658 100.571 189.559L101.151 188.372C101.187 188.302 101.175 188.216 101.122 188.157Z" fill="#FEBC23"/>
<path d="M102.284 189.153C102.212 189.074 102.09 189.069 102.012 189.141L101.051 189.994C100.964 190.064 100.953 190.19 101.027 190.274C101.102 190.357 101.229 190.36 101.308 190.282L102.269 189.428C102.351 189.357 102.357 189.234 102.285 189.154L102.284 189.153Z" fill="#FEBC23"/>
<path d="M99.6108 187.874C99.4956 187.744 99.2815 187.819 99.2745 187.992L99.1965 189.268C99.1864 189.375 99.2677 189.47 99.3759 189.476C99.4855 189.483 99.5769 189.4 99.5806 189.291L99.6599 188.015C99.6648 187.962 99.647 187.912 99.6108 187.874Z" fill="#FEBC23"/>
<path d="M70.8173 190.231C70.7161 192.289 68.9657 193.876 66.9077 193.774C64.8497 193.673 63.2634 191.923 63.3646 189.865C63.4658 187.807 65.2162 186.22 67.2742 186.322C69.3322 186.423 70.9185 188.173 70.8173 190.231Z" fill="#FEBC23"/>
<path d="M70.8172 190.231C70.716 192.289 68.9657 193.875 66.9077 193.774C64.8497 193.673 63.2634 191.922 63.3646 189.865C63.4658 187.807 65.2162 186.22 67.2742 186.321C69.3322 186.423 70.9185 188.173 70.8172 190.231Z" fill="#FEBC23"/>
<path d="M67.2816 188.6C67.3036 188.587 67.3253 188.581 67.3447 188.59C67.3476 188.593 67.3603 188.614 67.3603 188.692C67.3601 188.758 67.3522 188.839 67.3434 188.926C67.33 189.059 67.3165 189.195 67.3276 189.309C67.3477 189.522 67.4893 189.835 67.6035 190.086C67.6413 190.169 67.6771 190.248 67.7036 190.313C67.805 190.562 68.0271 190.897 68.252 191.223C68.4305 191.482 68.4954 192.071 68.5234 192.322L68.5255 192.342C68.5487 192.551 68.7735 192.893 68.9382 193.142L68.9372 193.145C68.972 193.198 69.0033 193.245 69.0273 193.283C69.0141 193.319 68.9831 193.391 68.9209 193.477C68.7729 193.681 68.5671 193.805 68.4197 193.874C68.1529 193.998 67.9354 194.017 67.8 194.011L67.7947 194.011C67.6928 194.006 67.6221 193.986 67.5891 193.975C67.4334 193.638 67.3418 193.439 67.2233 193.29C67.2954 193.313 67.3662 193.33 67.4365 193.341C67.488 193.349 67.5388 193.355 67.5905 193.357C67.7 193.363 67.8125 193.354 67.9393 193.334C68.066 193.313 68.1603 193.24 68.219 193.117C68.2657 193.019 68.2828 192.906 68.2964 192.815C68.3021 192.776 68.3077 192.739 68.3144 192.712C68.3221 192.678 68.3025 192.644 68.2686 192.636C68.2347 192.628 68.2009 192.648 68.1924 192.682C68.1847 192.714 68.179 192.754 68.1723 192.797C68.1414 193.005 68.1008 193.18 67.9194 193.21C67.6474 193.254 67.3323 193.259 66.8727 192.995C66.6051 192.841 66.5452 192.787 66.4759 192.724C66.427 192.68 66.3723 192.63 66.2431 192.543C66.0859 192.438 65.8846 192.3 65.7227 192.167C65.4744 191.963 65.4429 191.873 65.4413 191.843C65.4343 191.737 65.5606 191.509 65.6619 191.326C65.7271 191.208 65.7882 191.097 65.828 191.002C65.8807 190.876 65.9331 190.756 65.9986 190.68C66.0616 190.607 66.1227 190.59 66.2034 190.622C66.3321 190.672 66.4884 190.812 66.6154 190.926L66.6219 190.932C66.7168 191.017 66.7913 191.084 66.8479 191.112C66.903 191.139 67.0271 191.298 67.1175 191.413C67.2243 191.549 67.2904 191.632 67.3392 191.662C67.337 191.675 67.3244 191.701 67.2952 191.721C67.2715 191.737 67.2302 191.755 67.1674 191.745C67.1644 191.745 67.1621 191.744 67.1591 191.744C67.1251 191.738 67.0854 191.724 67.0394 191.698C66.8807 191.609 66.8089 191.532 66.751 191.47C66.6981 191.414 66.6525 191.364 66.5692 191.338C66.4716 191.307 66.3869 191.293 66.3362 191.287C66.3038 191.248 66.2489 191.171 66.2385 191.104C66.2333 191.069 66.2016 191.046 66.1671 191.051C66.1325 191.057 66.1096 191.088 66.1148 191.123C66.1234 191.18 66.1508 191.243 66.1963 191.309C66.1444 191.327 66.07 191.351 66.0045 191.365C65.9706 191.373 65.9491 191.406 65.9566 191.44C65.9641 191.474 65.9974 191.495 66.0313 191.488C66.1345 191.465 66.2533 191.422 66.2929 191.407C66.3187 191.409 66.3831 191.417 66.4637 191.437C66.3707 191.592 66.0873 191.82 65.9962 191.876C65.9663 191.894 65.9568 191.932 65.9752 191.962C65.9865 191.98 66.0058 191.991 66.0255 191.992C66.0377 191.993 66.05 191.99 66.061 191.983C66.1199 191.948 66.242 191.854 66.3522 191.752C66.464 191.648 66.5409 191.558 66.582 191.481C66.607 191.499 66.6288 191.522 66.6584 191.554C66.7185 191.62 66.8011 191.708 66.9768 191.807C67.0384 191.841 67.0932 191.86 67.1416 191.868C67.4166 191.933 67.6087 192.042 67.7213 192.123C67.8441 192.211 67.903 192.285 67.9032 192.286C67.9146 192.301 67.9317 192.309 67.9492 192.31C67.9637 192.311 67.9784 192.306 67.991 192.297C68.0188 192.275 68.0237 192.237 68.0022 192.209C67.9935 192.198 67.8054 191.961 67.3838 191.809C67.4347 191.766 67.4666 191.706 67.464 191.651C67.4623 191.608 67.4404 191.573 67.4047 191.555C67.3758 191.539 67.2789 191.416 67.215 191.335C67.1397 191.239 67.0773 191.161 67.0237 191.103C67.0453 191.112 67.0655 191.121 67.081 191.13C67.087 191.133 67.0937 191.137 67.1018 191.142C67.1723 191.182 67.3036 191.257 67.4458 191.309C67.5423 191.345 67.6283 191.365 67.7036 191.369C67.7735 191.372 67.8335 191.362 67.8842 191.338C68.0099 191.278 68.0815 191.187 68.0811 191.086C68.0807 191.001 68.0273 190.923 67.9424 190.884C67.8179 190.827 67.6457 190.731 67.3673 190.564C67.2836 190.514 67.1842 190.442 67.0814 190.363C67.078 190.231 67.0156 190.089 66.9498 189.94C66.9038 189.836 66.8565 189.728 66.8303 189.625C66.794 189.48 66.8306 189.325 66.8787 189.198C66.8822 189.191 66.8848 189.184 66.8874 189.177L66.8875 189.176C66.9128 189.112 66.9407 189.057 66.9629 189.015L67.141 188.767C67.147 188.762 67.1522 188.756 67.1562 188.749C67.1829 188.702 67.2289 188.635 67.2754 188.604C67.2777 188.603 67.2801 188.602 67.2816 188.6Z" fill="#1E3A8A"/>
<path d="M67.0687 188.173C67.1092 188.185 67.1455 188.222 67.1688 188.276C67.1886 188.322 67.2069 188.4 67.1876 188.513C67.1813 188.519 67.1749 188.524 67.1677 188.531C67.1168 188.577 67.0779 188.636 67.0552 188.674L66.8812 188.91C66.8755 188.915 66.8706 188.921 66.8669 188.928C66.84 188.979 66.798 189.057 66.7622 189.151C66.7358 189.207 66.6679 189.285 66.6066 189.354C66.5565 189.411 66.5088 189.465 66.4791 189.512C66.4097 189.621 66.3688 189.739 66.3714 189.827C66.3722 189.858 66.3758 189.891 66.3797 189.921C66.2515 189.908 66.1144 189.937 66.0368 190.026C65.9528 190.124 65.9199 190.188 65.8376 190.358C65.8231 190.39 65.8357 190.427 65.867 190.442C65.8983 190.456 65.9355 190.444 65.9508 190.413C66.0313 190.246 66.0583 190.194 66.1319 190.108C66.1893 190.042 66.3343 190.024 66.4625 190.067C66.5292 190.09 66.7018 190.225 66.8537 190.343C67.0108 190.465 67.1723 190.592 67.3034 190.67C67.5863 190.839 67.7613 190.937 67.8903 190.997C67.9305 191.015 67.9555 191.049 67.9561 191.085C67.9559 191.135 67.9108 191.185 67.8304 191.223C67.7578 191.258 67.6402 191.247 67.4897 191.19C67.3565 191.14 67.2319 191.069 67.1644 191.031C67.1563 191.026 67.1489 191.022 67.1429 191.019C67.0895 190.988 67.0109 190.96 66.9278 190.93C66.8401 190.898 66.7307 190.86 66.6979 190.83C66.5628 190.709 66.397 190.56 66.2482 190.502C66.1174 190.45 66.0007 190.481 65.9029 190.595C65.8253 190.685 65.7686 190.814 65.7116 190.95C65.6745 191.039 65.615 191.147 65.5514 191.262C65.5255 191.309 65.4995 191.356 65.4752 191.402C65.4787 191.377 65.4846 191.35 65.496 191.32L65.4962 191.317C65.498 191.312 65.5311 191.194 65.5409 190.995C65.5447 190.903 65.5827 190.797 65.626 190.675C65.6685 190.556 65.7155 190.422 65.7444 190.268C65.7578 190.197 65.7683 190.125 65.7789 190.047C65.7943 189.936 65.8105 189.823 65.8347 189.718C65.8363 189.716 65.8365 189.714 65.8366 189.712C65.8683 189.579 65.9145 189.461 65.991 189.377C66.0095 189.357 66.0288 189.336 66.0505 189.313C66.1552 189.199 66.2954 189.047 66.4227 188.907L66.4228 188.905C66.5479 188.765 66.6585 188.638 66.706 188.571C66.7109 188.564 66.7167 188.557 66.7224 188.549C66.7748 188.476 66.8468 188.375 66.9187 188.294C67.0259 188.174 67.0664 188.173 67.0687 188.173Z" fill="#1E3A8A"/>
<path d="M66.6943 189.445C66.6894 189.514 66.6936 189.585 66.7107 189.654C66.7394 189.768 66.7888 189.881 66.8368 189.989C66.878 190.081 66.9171 190.17 66.9391 190.25L66.9317 190.244C66.7262 190.084 66.5939 189.983 66.5109 189.952C66.5063 189.921 66.4982 189.867 66.4973 189.824C66.4959 189.775 66.5179 189.685 66.5856 189.579L66.5864 189.579C66.6095 189.542 66.6499 189.496 66.6943 189.445Z" fill="#1E3A8A"/>
<path d="M66.2618 188.087C66.2786 188.072 66.2979 188.068 66.3195 188.077C66.3509 188.089 66.3901 188.13 66.397 188.206C66.4107 188.346 66.361 188.66 66.3196 188.835C66.197 188.972 66.0616 189.119 65.9594 189.23L65.9602 189.229C65.9385 189.253 65.9183 189.275 65.9006 189.294C65.8877 189.308 65.8756 189.323 65.8641 189.338C65.8698 189.301 65.8768 189.267 65.8859 189.237C65.9399 189.052 65.981 188.836 65.9951 188.659C66.0077 188.495 66.2052 188.138 66.2618 188.087Z" fill="#1E3A8A"/>
<path d="M68.2366 188.095C68.2717 188.094 68.3 188.121 68.3006 188.156C68.3012 188.191 68.2731 188.22 68.2388 188.22L67.7337 188.229L67.7299 188.229C67.6972 188.227 67.6711 188.201 67.6704 188.167L67.6697 188.167C67.6691 188.132 67.6972 188.104 67.7316 188.103L68.2366 188.095Z" fill="#1E3A8A"/>
<path d="M67.7201 187.33C67.7376 187.3 67.7761 187.29 67.8057 187.308C67.8354 187.325 67.8449 187.364 67.8275 187.394L67.5741 187.817C67.5616 187.838 67.539 187.849 67.517 187.848C67.5071 187.847 67.4965 187.845 67.4877 187.839L67.4884 187.839C67.4588 187.821 67.4492 187.783 67.4667 187.753L67.7201 187.33Z" fill="#1E3A8A"/>
<path d="M66.9267 187.263C66.9586 187.25 66.9952 187.264 67.0089 187.296L67.1833 187.703C67.197 187.735 67.1822 187.771 67.1503 187.785C67.141 187.788 67.1317 187.79 67.1226 187.79C67.0998 187.789 67.0776 187.775 67.0681 187.752L66.8936 187.345C66.88 187.314 66.8947 187.277 66.9267 187.263Z" fill="#1E3A8A"/>
<path d="M136.48 127.735C136.396 129.415 137.691 130.845 139.371 130.928L204.116 134.145L207.554 64.9425L139.766 61.5748L136.48 127.735Z" fill="#AFD1FA"/>
<path d="M209.434 27.1087L144.689 23.8921C143.008 23.8086 141.578 25.1032 141.495 26.7835L139.766 61.5748L207.554 64.9425L209.434 27.1087Z" fill="#AFD1FA"/>
<path d="M277.07 33.519C277.153 31.8386 275.859 30.4088 274.179 30.3253L209.434 27.1087L207.554 64.9425L275.341 68.3103L277.07 33.519Z" fill="#AFD1FA"/>
<path d="M204.116 134.145L268.861 137.361C270.541 137.445 271.971 136.15 272.055 134.47L275.341 68.3103L207.554 64.9425L204.116 134.145Z" fill="#AFD1FA"/>
<path d="M209.434 27.1087L144.689 23.8921C143.008 23.8086 141.578 25.1032 141.495 26.7835L139.766 61.5748M209.434 27.1087L274.179 30.3253C275.859 30.4088 277.153 31.8386 277.07 33.519L275.341 68.3103M209.434 27.1087L207.554 64.9425M204.116 134.145L268.861 137.361C270.541 137.445 271.971 136.15 272.055 134.47L275.341 68.3103M204.116 134.145L139.371 130.928C137.691 130.845 136.396 129.415 136.48 127.735L139.766 61.5748M204.116 134.145L207.554 64.9425M139.766 61.5748L207.554 64.9425M275.341 68.3103L207.554 64.9425" stroke="black" stroke-width="1.21851"/>
<path d="M167.331 46.2243C166.693 46.7916 166.646 47.772 167.226 48.3979L170.555 51.9881C171.127 52.6056 172.092 52.6415 172.708 52.0683L179.845 45.4357C180.467 44.8567 180.496 43.8797 179.907 43.2658L179.443 42.7818C178.868 42.1823 177.919 42.1539 177.309 42.718L171.664 47.9412L169.927 45.9655C169.369 45.3312 168.402 45.2717 167.771 45.8331L167.331 46.2243Z" fill="white"/>
<path fill-rule="evenodd" clip-rule="evenodd" d="M173.337 35.9599C167.817 35.6856 162.355 40.7227 162.123 46.8618C161.89 53.0359 166.447 58.1734 172.608 58.5838C178.876 59.0012 184.461 54.2749 184.848 48.0014C185.247 41.5476 180.305 36.306 173.337 35.9599ZM172.708 52.0683C172.092 52.6415 171.127 52.6056 170.555 51.9881L167.226 48.3979C166.646 47.772 166.693 46.7916 167.331 46.2243L167.771 45.8331C168.402 45.2717 169.369 45.3312 169.927 45.9655L171.664 47.9412L177.309 42.718C177.919 42.1539 178.868 42.1823 179.443 42.7818L179.907 43.2658C180.496 43.8797 180.467 44.8567 179.845 45.4357L172.708 52.0683Z" fill="#01B753"/>
<path d="M167.331 46.2243C166.693 46.7916 166.646 47.772 167.226 48.3979L170.555 51.9881C171.127 52.6056 172.092 52.6415 172.708 52.0683L179.845 45.4357C180.467 44.8567 180.496 43.8797 179.907 43.2658L179.443 42.7818C178.868 42.1823 177.919 42.1539 177.309 42.718L171.664 47.9412L169.927 45.9655C169.369 45.3312 168.402 45.2717 167.771 45.8331L167.331 46.2243Z" stroke="black" stroke-width="0.21324"/>
<path fill-rule="evenodd" clip-rule="evenodd" d="M173.337 35.9599C167.817 35.6856 162.355 40.7227 162.123 46.8618C161.89 53.0359 166.447 58.1734 172.608 58.5838C178.876 59.0012 184.461 54.2749 184.848 48.0014C185.247 41.5476 180.305 36.306 173.337 35.9599ZM172.708 52.0683C172.092 52.6415 171.127 52.6056 170.555 51.9881L167.226 48.3979C166.646 47.772 166.693 46.7916 167.331 46.2243L167.771 45.8331C168.402 45.2717 169.369 45.3312 169.927 45.9655L171.664 47.9412L177.309 42.718C177.919 42.1539 178.868 42.1823 179.443 42.7818L179.907 43.2658C180.496 43.8797 180.467 44.8567 179.845 45.4357L172.708 52.0683Z" stroke="black" stroke-width="0.21324"/>
<path d="M237.965 44.3698C238.633 43.7643 239.664 43.8093 240.278 44.4708L243.314 47.746L246.55 44.7585C247.222 44.1386 248.265 44.1667 248.902 44.8217C249.574 45.5121 249.531 46.624 248.809 47.2612L245.505 50.1751L248.44 53.432C249.059 54.1193 248.993 55.1815 248.293 55.7862C247.609 56.3763 246.579 56.3079 245.979 55.6327L243.084 52.3714L239.873 55.3288C239.207 55.9418 238.173 55.9074 237.549 55.2514C236.911 54.58 236.947 53.5159 237.629 52.8894L240.837 49.9432L237.858 46.7051C237.239 46.0321 237.287 44.9836 237.965 44.3698Z" fill="white"/>
<path fill-rule="evenodd" clip-rule="evenodd" d="M243.26 39.4431C237.392 39.4007 232.542 44.0307 232.465 49.901C232.388 55.6913 236.91 60.3624 242.692 60.6337C248.458 60.9042 253.06 56.6267 253.76 50.959C254.509 44.8862 249.377 39.4873 243.26 39.4431ZM243.314 47.746L240.278 44.4708C239.664 43.8093 238.633 43.7643 237.965 44.3698C237.287 44.9836 237.239 46.0321 237.858 46.7051L240.837 49.9432L237.629 52.8894C236.947 53.5159 236.911 54.58 237.549 55.2514C238.173 55.9074 239.207 55.9418 239.873 55.3288L243.084 52.3714L245.979 55.6327C246.579 56.3079 247.609 56.3763 248.293 55.7862C248.993 55.1815 249.059 54.1193 248.44 53.432L245.505 50.1751L248.809 47.2612C249.531 46.624 249.574 45.5121 248.902 44.8217C248.265 44.1667 247.222 44.1386 246.55 44.7585L243.314 47.746Z" fill="#CB0101"/>
<path d="M237.965 44.3698C238.633 43.7643 239.664 43.8093 240.278 44.4708L243.314 47.746L246.55 44.7585C247.222 44.1386 248.265 44.1667 248.902 44.8217C249.574 45.5121 249.531 46.624 248.809 47.2612L245.505 50.1751L248.44 53.432C249.059 54.1193 248.993 55.1815 248.293 55.7862C247.609 56.3763 246.579 56.3079 245.979 55.6327L243.084 52.3714L239.873 55.3288C239.207 55.9418 238.173 55.9074 237.549 55.2514C236.911 54.58 236.947 53.5159 237.629 52.8894L240.837 49.9432L237.858 46.7051C237.239 46.0321 237.287 44.9836 237.965 44.3698Z" stroke="black" stroke-width="0.21324"/>
<path fill-rule="evenodd" clip-rule="evenodd" d="M243.26 39.4431C237.392 39.4007 232.542 44.0307 232.465 49.901C232.388 55.6913 236.91 60.3624 242.692 60.6337C248.458 60.9042 253.06 56.6267 253.76 50.959C254.509 44.8862 249.377 39.4873 243.26 39.4431ZM243.314 47.746L240.278 44.4708C239.664 43.8093 238.633 43.7643 237.965 44.3698C237.287 44.9836 237.239 46.0321 237.858 46.7051L240.837 49.9432L237.629 52.8894C236.947 53.5159 236.911 54.58 237.549 55.2514C238.173 55.9074 239.207 55.9418 239.873 55.3288L243.084 52.3714L245.979 55.6327C246.579 56.3079 247.609 56.3763 248.293 55.7862C248.993 55.1815 249.059 54.1193 248.44 53.432L245.505 50.1751L248.809 47.2612C249.531 46.624 249.574 45.5121 248.902 44.8217C248.265 44.1667 247.222 44.1386 246.55 44.7585L243.314 47.746Z" stroke="black" stroke-width="0.21324"/>
<path d="M216.776 81.3497C216.784 81.1786 216.851 81.0354 216.976 80.92C217.101 80.8047 217.246 80.7512 217.413 80.7594C217.579 80.7677 217.719 80.8354 217.831 80.9625C217.944 81.0897 217.996 81.2388 217.988 81.41C217.979 81.5811 217.913 81.7243 217.788 81.8396C217.663 81.955 217.517 82.0085 217.351 82.0002C217.185 81.992 217.045 81.9243 216.932 81.7971C216.819 81.67 216.767 81.5209 216.776 81.3497ZM224.17 81.2167L224.081 83.0137L226.27 83.1225L226.245 83.6216L223.411 83.4808L223.657 78.5212L226.492 78.6621L226.467 79.1577L224.278 79.0489L224.195 80.7175L225.685 80.7916L225.661 81.2907L224.17 81.2167ZM226.996 80.3063L227.659 80.3392L228.436 81.6145L229.367 80.4348L229.98 80.4652L228.7 82.0494L229.761 83.7963L229.098 83.7633L228.325 82.4918L227.39 83.6785L226.777 83.648L228.06 82.0569L226.996 80.3063ZM231.451 83.9446C230.886 83.9165 230.618 83.5887 230.65 82.9611L230.749 80.9502L230.158 80.9208L230.18 80.4644L230.772 80.4938L230.806 79.8164L231.39 79.631L231.346 80.5224L232.163 80.5629L232.14 81.0193L231.323 80.9787L231.225 82.954C231.216 83.137 231.256 83.2713 231.345 83.3567C231.434 83.4397 231.535 83.4841 231.649 83.4898C231.87 83.5007 232.043 83.4903 232.169 83.4584L232.22 83.8648C231.998 83.9324 231.741 83.959 231.451 83.9446ZM232.959 83.9552L233.125 80.6108L233.699 80.6393L233.669 81.2525C233.764 81.0714 233.893 80.9181 234.056 80.7928C234.222 80.6676 234.405 80.61 234.605 80.6199C234.807 80.63 234.97 80.6738 235.095 80.7515C235.222 80.8269 235.305 80.9049 235.344 80.9855L235.084 81.3371C235.053 81.2927 235.022 81.2554 234.993 81.2254C234.909 81.1354 234.782 81.0862 234.61 81.0777C234.439 81.0692 234.282 81.1162 234.139 81.2187C233.995 81.3236 233.879 81.4536 233.791 81.6089C233.702 81.7641 233.648 81.9211 233.628 82.0797L233.533 83.9837L232.959 83.9552ZM237.566 82.6757C236.691 82.6322 236.243 82.828 236.221 83.263C236.215 83.3794 236.246 83.4894 236.312 83.5927C236.381 83.6962 236.461 83.7503 236.554 83.7549L236.693 83.7618C237.216 83.7878 237.509 83.5271 237.572 82.9798L237.587 82.6767L237.566 82.6757ZM236.009 80.9149C236.444 80.7864 236.799 80.7289 237.072 80.7425C237.345 80.7561 237.581 80.8357 237.778 80.9813C237.976 81.127 238.103 81.3346 238.159 81.6043C238.189 81.7559 238.193 82.0623 238.17 82.5234L238.115 83.6394C238.104 83.8486 238.111 84.0396 238.136 84.2124L237.559 84.1837C237.533 84.0847 237.523 83.9734 237.529 83.8498L237.53 83.8248C237.467 83.8932 237.399 83.9517 237.325 84.0005C237.093 84.1534 236.851 84.2236 236.599 84.2111C236.176 84.19 235.893 84.0246 235.748 83.7149C235.673 83.561 235.639 83.4056 235.646 83.2487C235.667 82.8327 235.926 82.5442 236.422 82.383C236.72 82.2858 237.094 82.2483 237.543 82.2707L237.607 82.2738L237.625 81.9137C237.638 81.6523 237.597 81.4715 237.502 81.3715C237.391 81.2563 237.2 81.192 236.929 81.1786C236.658 81.1651 236.353 81.2262 236.015 81.362L236.009 80.9149ZM241.998 82.1024L241.884 84.3985L241.238 84.3665L241.485 79.4069L244.319 79.5477L244.294 80.0433L242.105 79.9346L242.022 81.6032L243.513 81.6772L243.488 82.1764L241.998 82.1024ZM246.091 81.6481C245.761 81.6317 245.509 81.7192 245.335 81.9107C245.214 82.0429 245.129 82.2341 245.081 82.4843L246.81 82.5702C246.802 82.3101 246.735 82.0935 246.61 81.9205C246.483 81.7498 246.31 81.6589 246.091 81.6481ZM247.159 84.4641C246.894 84.6248 246.543 84.6943 246.105 84.6726C245.552 84.6451 245.133 84.4658 244.849 84.1348C244.565 83.8038 244.436 83.3756 244.462 82.8503C244.496 82.1658 244.743 81.6812 245.203 81.3966C245.459 81.2425 245.738 81.173 246.043 81.1882C246.513 81.2115 246.862 81.3885 247.089 81.7191C247.279 82.0026 247.371 82.3669 247.363 82.8121L247.267 83.0218L245.035 82.9109C245.02 83.3057 245.111 83.6176 245.306 83.8466C245.503 84.0732 245.773 84.195 246.118 84.2121C246.379 84.2251 246.682 84.1699 247.027 84.0464L247.159 84.4641ZM249.443 81.8146C249.112 81.7982 248.86 81.8857 248.686 82.0772C248.565 82.2094 248.481 82.4006 248.433 82.6508L250.162 82.7367C250.153 82.4766 250.087 82.26 249.962 82.087C249.834 81.9163 249.661 81.8255 249.443 81.8146ZM250.511 84.6306C250.246 84.7913 249.894 84.8608 249.457 84.8391C248.903 84.8116 248.484 84.6323 248.201 84.3013C247.917 83.9703 247.788 83.5421 247.814 83.0168C247.848 82.3323 248.095 81.8477 248.555 81.5632C248.81 81.409 249.09 81.3396 249.394 81.3547C249.865 81.378 250.213 81.555 250.44 81.8856C250.631 82.1691 250.722 82.5334 250.715 82.9786L250.618 83.1883L248.386 83.0774C248.372 83.4723 248.462 83.7841 248.658 84.0131C248.854 84.2397 249.124 84.3615 249.469 84.3786C249.731 84.3916 250.034 84.3364 250.378 84.2129L250.511 84.6306ZM215.883 99.3276C215.891 99.1564 215.958 99.0132 216.083 98.8979C216.207 98.7825 216.353 98.729 216.519 98.7373C216.686 98.7455 216.825 98.8132 216.938 98.9404C217.051 99.0675 217.103 99.2166 217.095 99.3878C217.086 99.5589 217.02 99.7022 216.895 99.8175C216.77 99.9328 216.624 99.9863 216.458 99.9781C216.291 99.9698 216.152 99.9021 216.039 99.775C215.926 99.6478 215.874 99.4987 215.883 99.3276ZM226.344 96.6805L226.097 101.636L225.452 101.604L225.57 99.2369L223.281 99.1232L223.163 101.491L222.518 101.459L222.764 96.4991L223.409 96.5311L223.305 98.6241L225.595 98.7378L225.698 96.6484L226.344 96.6805ZM228.271 98.3918L228.105 101.736L227.531 101.708L227.674 98.8196L227.082 98.7902L227.105 98.3339L228.271 98.3918ZM227.627 97.0338C227.633 96.9149 227.678 96.8159 227.763 96.7367C227.851 96.6553 227.953 96.6174 228.069 96.6232C228.186 96.629 228.282 96.6767 228.359 96.7663C228.438 96.8536 228.474 96.9567 228.469 97.0756C228.463 97.1944 228.416 97.2945 228.329 97.376C228.244 97.4552 228.143 97.4919 228.026 97.4861C227.91 97.4803 227.812 97.4337 227.733 97.3464C227.657 97.2568 227.621 97.1526 227.627 97.0338ZM230.348 101.912C230.072 101.898 229.826 101.81 229.61 101.647C229.395 101.483 229.233 101.278 229.126 101.029C229.02 100.778 228.973 100.514 228.987 100.236C229.015 99.6821 229.197 99.2408 229.535 98.9121C229.876 98.5811 230.285 98.4275 230.763 98.4512C230.962 98.4612 231.199 98.5111 231.474 98.6009L231.571 96.6364L232.16 96.6656L231.898 101.925L231.31 101.895L231.33 101.503C231.046 101.794 230.719 101.93 230.348 101.912ZM231.449 99.1001C231.257 98.9857 231.065 98.9237 230.872 98.9142C230.539 98.8976 230.245 99.0093 229.99 99.2493C229.725 99.5053 229.583 99.8188 229.565 100.19C229.546 100.56 229.62 100.861 229.785 101.09C229.952 101.32 230.165 101.442 230.424 101.455C230.6 101.463 230.771 101.412 230.936 101.301C231.101 101.188 231.243 101.041 231.362 100.861L231.449 99.1001ZM234.141 102.1C233.866 102.087 233.62 101.998 233.404 101.835C233.188 101.672 233.027 101.466 232.92 101.218C232.813 100.967 232.767 100.703 232.781 100.424C232.808 99.8706 232.991 99.4293 233.329 99.1006C233.67 98.7696 234.079 98.616 234.556 98.6397C234.756 98.6496 234.993 98.6995 235.267 98.7894L235.365 96.8249L235.953 96.8541L235.692 102.113L235.104 102.084L235.123 101.692C234.84 101.983 234.512 102.119 234.141 102.1ZM235.243 99.2886C235.051 99.1742 234.858 99.1122 234.666 99.1027C234.333 99.0861 234.039 99.1978 233.784 99.4377C233.519 99.6938 233.377 100.007 233.359 100.378C233.34 100.749 233.413 101.049 233.578 101.279C233.746 101.509 233.959 101.63 234.218 101.643C234.394 101.652 234.564 101.601 234.729 101.49C234.895 101.377 235.037 101.23 235.155 101.05L235.243 99.2886ZM238.21 99.2787C237.879 99.2623 237.627 99.3499 237.453 99.5414C237.332 99.6736 237.248 99.8648 237.2 100.115L238.929 100.201C238.92 99.9407 238.854 99.7241 238.729 99.5511C238.601 99.3804 238.428 99.2896 238.21 99.2787ZM239.278 102.095C239.013 102.255 238.661 102.325 238.224 102.303C237.67 102.276 237.251 102.096 236.968 101.765C236.684 101.434 236.555 101.006 236.581 100.481C236.615 99.7964 236.862 99.3118 237.322 99.0273C237.577 98.8732 237.857 98.8037 238.161 98.8188C238.632 98.8422 238.98 99.0192 239.207 99.3497C239.398 99.6332 239.489 99.9976 239.482 100.443L239.385 100.652L237.153 100.542C237.139 100.936 237.229 101.248 237.425 101.477C237.621 101.704 237.891 101.826 238.236 101.843C238.498 101.856 238.801 101.801 239.145 101.677L239.278 102.095ZM242.56 100.642C242.598 99.8792 242.343 99.4841 241.797 99.4569C241.656 99.45 241.526 99.4816 241.406 99.5519C241.222 99.6571 241.072 99.8379 240.957 100.094C240.917 100.183 240.896 100.253 240.893 100.306L240.791 102.366L240.217 102.338L240.383 98.9935L240.957 99.022L240.926 99.6353C241.163 99.1943 241.522 98.9858 242.005 99.0098C242.2 99.0194 242.372 99.0721 242.522 99.1677C242.675 99.2611 242.793 99.3599 242.876 99.4641C243.076 99.7099 243.165 100.046 243.144 100.471L243.044 102.478L242.47 102.45L242.56 100.642ZM248.368 102.307C248.784 102.327 249.192 102.201 249.594 101.928L249.887 102.368C249.626 102.539 249.412 102.651 249.245 102.704C248.979 102.789 248.617 102.82 248.161 102.797C247.705 102.774 247.307 102.647 246.968 102.416C246.629 102.185 246.378 101.873 246.214 101.481C246.05 101.087 245.981 100.639 246.005 100.138C246.03 99.6363 246.144 99.1987 246.346 98.8251C246.548 98.4515 246.829 98.1664 247.189 97.9699C247.549 97.7733 247.962 97.6866 248.428 97.7097C248.872 97.7318 249.182 97.7806 249.357 97.856C249.534 97.9315 249.667 97.9988 249.755 98.058C249.842 98.1148 249.954 98.1978 250.089 98.3069L249.754 98.7156C249.381 98.404 248.987 98.2379 248.571 98.2172L248.528 98.2151C248.262 98.2019 248.009 98.2465 247.771 98.349C247.33 98.5368 247.011 98.8927 246.813 99.4166C246.72 99.6575 246.667 99.9098 246.654 100.174C246.641 100.437 246.668 100.694 246.734 100.942C246.803 101.189 246.904 101.412 247.037 101.612C247.332 102.046 247.761 102.277 248.325 102.305L248.368 102.307ZM253.114 101.166C253.152 100.403 252.897 100.008 252.35 99.9812C252.21 99.9743 252.08 100.006 251.96 100.076C251.776 100.181 251.626 100.362 251.511 100.619C251.471 100.707 251.449 100.778 251.447 100.83L251.344 102.891L250.77 102.862L251.032 97.6032L251.606 97.6317L251.48 100.16C251.717 99.7186 252.076 99.5101 252.558 99.5341C252.753 99.5438 252.926 99.5964 253.076 99.692C253.229 99.7854 253.347 99.8842 253.429 99.9884C253.629 100.234 253.719 100.57 253.698 100.995L253.598 103.003L253.024 102.974L253.114 101.166ZM256.418 101.634C255.543 101.591 255.095 101.787 255.073 102.222C255.068 102.338 255.098 102.448 255.164 102.552C255.233 102.655 255.314 102.709 255.406 102.714L255.546 102.721C256.068 102.747 256.361 102.486 256.424 101.939L256.439 101.636L256.418 101.634ZM254.861 99.8737C255.297 99.7452 255.651 99.6877 255.924 99.7013C256.198 99.7149 256.433 99.7945 256.631 99.9401C256.829 100.086 256.955 100.293 257.011 100.563C257.042 100.715 257.045 101.021 257.022 101.482L256.967 102.598C256.957 102.807 256.964 102.998 256.989 103.171L256.411 103.142C256.385 103.043 256.375 102.932 256.381 102.809L256.382 102.784C256.319 102.852 256.251 102.911 256.177 102.959C255.945 103.112 255.704 103.182 255.452 103.17C255.029 103.149 254.745 102.983 254.601 102.674C254.525 102.52 254.491 102.364 254.499 102.208C254.519 101.792 254.778 101.503 255.274 101.342C255.572 101.245 255.946 101.207 256.395 101.229L256.459 101.233L256.477 100.873C256.49 100.611 256.449 100.43 256.354 100.33C256.243 100.215 256.052 100.151 255.781 100.137C255.51 100.124 255.206 100.185 254.868 100.321L254.861 99.8737ZM257.958 103.219L258.125 99.8749L258.699 99.9035L258.668 100.517C258.763 100.336 258.892 100.182 259.056 100.057C259.221 99.9318 259.404 99.8742 259.604 99.8841C259.806 99.8941 259.969 99.938 260.094 100.016C260.221 100.091 260.305 100.169 260.343 100.25L260.083 100.601C260.052 100.557 260.021 100.52 259.992 100.49C259.908 100.4 259.781 100.35 259.61 100.342C259.439 100.333 259.281 100.38 259.138 100.483C258.995 100.588 258.879 100.718 258.79 100.873C258.701 101.028 258.647 101.185 258.627 101.344L258.532 103.248L257.958 103.219ZM262.234 100.476C261.858 100.457 261.609 100.62 261.487 100.964C261.454 101.053 261.436 101.145 261.431 101.24C261.421 101.437 261.474 101.602 261.589 101.734C261.704 101.864 261.894 101.935 262.161 101.948C262.536 101.967 262.784 101.817 262.905 101.499C262.938 101.417 262.956 101.335 262.96 101.252C262.969 101.078 262.921 100.914 262.817 100.759C262.694 100.583 262.5 100.489 262.234 100.476ZM263.347 100.592C263.484 100.808 263.546 101.037 263.534 101.277C263.515 101.667 263.354 101.97 263.053 102.186C262.823 102.353 262.518 102.427 262.138 102.408C261.933 102.398 261.751 102.368 261.592 102.317C261.446 102.417 261.37 102.535 261.363 102.67C261.354 102.858 261.655 102.967 262.266 102.997C262.969 103.032 263.409 103.224 263.585 103.574C263.639 103.681 263.663 103.802 263.656 103.935C263.641 104.227 263.547 104.47 263.373 104.664C263.04 105.036 262.502 105.204 261.758 105.167C261.38 105.148 261.076 105.056 260.845 104.893C260.618 104.729 260.511 104.501 260.526 104.208C260.54 103.911 260.674 103.67 260.926 103.485C261 103.431 261.091 103.375 261.199 103.316C260.909 103.202 260.771 103.014 260.784 102.752C260.789 102.655 260.827 102.547 260.9 102.429C260.973 102.311 261.079 102.208 261.219 102.12C260.965 101.916 260.844 101.618 260.856 101.226L260.857 101.204C260.872 100.898 260.982 100.626 261.187 100.388C261.293 100.265 261.439 100.169 261.623 100.102C261.808 100.033 262.001 100.003 262.203 100.013C262.407 100.023 262.581 100.053 262.724 100.103L263.844 100.159L263.821 100.615L263.347 100.592ZM261.744 103.429C261.507 103.546 261.347 103.656 261.263 103.759C261.164 103.878 261.111 104.006 261.104 104.144C261.097 104.282 261.134 104.392 261.213 104.475C261.349 104.617 261.574 104.696 261.887 104.712C262.32 104.733 262.651 104.643 262.88 104.44C263.002 104.331 263.068 104.195 263.076 104.031C263.084 103.862 263.024 103.737 262.894 103.654C262.755 103.571 262.62 103.519 262.487 103.498C262.308 103.47 262.151 103.453 262.018 103.446C261.887 103.44 261.796 103.434 261.744 103.429ZM265.757 100.647C265.426 100.631 265.174 100.718 265 100.91C264.879 101.042 264.795 101.233 264.746 101.483L266.476 101.569C266.467 101.309 266.4 101.093 266.276 100.92C266.148 100.749 265.975 100.658 265.757 100.647ZM266.825 103.463C266.559 103.624 266.208 103.694 265.771 103.672C265.217 103.644 264.798 103.465 264.514 103.134C264.23 102.803 264.102 102.375 264.128 101.85C264.162 101.165 264.409 100.68 264.868 100.396C265.124 100.242 265.404 100.172 265.708 100.187C266.179 100.211 266.527 100.388 266.754 100.718C266.945 101.002 267.036 101.366 267.028 101.811L266.932 102.021L264.7 101.91C264.685 102.305 264.776 102.617 264.972 102.846C265.168 103.072 265.438 103.194 265.783 103.211C266.044 103.224 266.347 103.169 266.692 103.046L266.825 103.463ZM268.56 103.349C268.972 103.37 269.186 103.203 269.204 102.849C269.214 102.635 269.027 102.454 268.641 102.306L268.297 102.167C268.052 102.067 267.873 101.933 267.76 101.765C267.649 101.596 267.599 101.4 267.61 101.179C267.621 100.956 267.735 100.756 267.951 100.581C268.167 100.404 268.437 100.323 268.76 100.339C268.974 100.35 269.163 100.388 269.326 100.453C269.49 100.516 269.615 100.585 269.702 100.661L269.477 101.079C269.407 101.016 269.305 100.955 269.172 100.896C269.039 100.837 268.894 100.803 268.737 100.795C268.583 100.788 268.453 100.828 268.349 100.915C268.244 101.003 268.189 101.104 268.184 101.218C268.178 101.332 268.211 101.429 268.284 101.509C268.356 101.589 268.505 101.675 268.732 101.767L269.075 101.906C269.325 102.006 269.508 102.131 269.625 102.28C269.739 102.431 269.789 102.643 269.776 102.916C269.762 103.19 269.646 103.412 269.428 103.582C269.21 103.752 268.92 103.828 268.559 103.81C268.366 103.801 268.182 103.771 268.006 103.722C267.832 103.675 267.638 103.583 267.426 103.447L267.655 103.015C267.832 103.133 267.984 103.217 268.111 103.266C268.237 103.313 268.387 103.341 268.56 103.349Z" fill="black"/>
<path d="M145.24 79.3601C145.248 79.1961 145.312 79.0588 145.431 78.9483C145.551 78.8378 145.691 78.7865 145.85 78.7944C146.009 78.8023 146.143 78.8672 146.251 78.989C146.36 79.1108 146.41 79.2538 146.401 79.4178C146.393 79.5818 146.329 79.7191 146.21 79.8296C146.09 79.9401 145.95 79.9914 145.791 79.9835C145.632 79.9755 145.498 79.9107 145.39 79.7888C145.281 79.667 145.231 79.5241 145.24 79.3601ZM153.533 81.0805C153.931 81.1003 154.323 80.9794 154.708 80.7176L154.989 81.1392C154.739 81.3026 154.533 81.41 154.373 81.4614C154.118 81.5424 153.772 81.572 153.334 81.5502C152.897 81.5285 152.516 81.4068 152.191 81.1852C151.867 80.9635 151.626 80.665 151.469 80.2895C151.312 79.9118 151.245 79.4826 151.269 79.0019C151.293 78.5213 151.402 78.102 151.595 77.7439C151.789 77.3859 152.058 77.1127 152.403 76.9243C152.748 76.7359 153.144 76.6528 153.59 76.675C154.016 76.6962 154.313 76.7429 154.481 76.8152C154.651 76.8875 154.778 76.9521 154.862 77.0088C154.946 77.0632 155.053 77.1427 155.182 77.2473L154.861 77.639C154.504 77.3404 154.126 77.1812 153.727 77.1614L153.686 77.1593C153.431 77.1466 153.189 77.1894 152.961 77.2877C152.538 77.4677 152.232 77.8087 152.043 78.3108C151.954 78.5416 151.903 78.7834 151.891 79.0362C151.878 79.2891 151.903 79.5347 151.967 79.7731C152.033 80.0093 152.13 80.223 152.257 80.4143C152.54 80.8303 152.952 81.0517 153.492 81.0785L153.533 81.0805ZM156.543 81.7096C156.069 81.6861 155.847 81.3736 155.877 80.7723L156.086 76.5729L156.636 76.6002L156.429 80.7654C156.42 80.9408 156.448 81.069 156.513 81.1498C156.579 81.2285 156.642 81.2693 156.702 81.2722C156.761 81.2752 156.891 81.2725 157.093 81.2643L157.117 81.6662C156.887 81.7028 156.696 81.7172 156.543 81.7096ZM159.154 78.9415C158.837 78.9258 158.595 79.0097 158.429 79.1932C158.313 79.3199 158.232 79.5031 158.185 79.7429L159.843 79.8252C159.835 79.5759 159.771 79.3684 159.651 79.2026C159.529 79.0389 159.363 78.9519 159.154 78.9415ZM160.177 81.6402C159.923 81.7942 159.586 81.8608 159.167 81.84C158.636 81.8136 158.235 81.6419 157.963 81.3246C157.691 81.0074 157.568 80.5971 157.593 80.0937C157.625 79.4376 157.862 78.9732 158.302 78.7006C158.547 78.5529 158.815 78.4863 159.107 78.5008C159.558 78.5232 159.892 78.6928 160.109 79.0095C160.292 79.2812 160.38 79.6304 160.372 80.0571L160.28 80.258L158.141 80.1517C158.127 80.5301 158.214 80.829 158.402 81.0484C158.589 81.2655 158.848 81.3823 159.179 81.3987C159.429 81.4112 159.72 81.3582 160.05 81.2399L160.177 81.6402ZM162.655 80.5062C161.817 80.4645 161.388 80.6521 161.367 81.069C161.361 81.1806 161.39 81.286 161.454 81.385C161.52 81.4842 161.597 81.536 161.686 81.5404L161.819 81.547C162.32 81.5719 162.601 81.3221 162.661 80.7976L162.676 80.5072L162.655 80.5062ZM161.163 78.8187C161.581 78.6956 161.92 78.6405 162.182 78.6535C162.444 78.6665 162.67 78.7428 162.859 78.8824C163.049 79.022 163.17 79.221 163.224 79.4794C163.253 79.6247 163.257 79.9183 163.235 80.3603L163.181 81.4297C163.172 81.6302 163.178 81.8132 163.202 81.9788L162.649 81.9513C162.624 81.8565 162.614 81.7498 162.62 81.6313L162.621 81.6074C162.561 81.6729 162.495 81.729 162.424 81.7758C162.202 81.9223 161.971 81.9896 161.729 81.9776C161.324 81.9574 161.052 81.7989 160.914 81.502C160.841 81.3546 160.809 81.2057 160.816 81.0553C160.836 80.6567 161.084 80.3801 161.559 80.2256C161.845 80.1325 162.203 80.0966 162.633 80.118L162.695 80.1211L162.712 79.776C162.725 79.5254 162.685 79.3522 162.594 79.2563C162.488 79.146 162.305 79.0844 162.045 79.0715C161.785 79.0586 161.493 79.1171 161.17 79.2472L161.163 78.8187ZM164.132 82.025L164.291 78.8199L164.841 78.8473L164.812 79.435C164.903 79.2614 165.026 79.1145 165.183 78.9944C165.342 78.8744 165.517 78.8192 165.708 78.8287C165.902 78.8383 166.059 78.8804 166.178 78.9548C166.3 79.0271 166.38 79.1019 166.417 79.1791L166.168 79.516C166.138 79.4735 166.109 79.4378 166.08 79.4089C166 79.3228 165.878 79.2756 165.714 79.2674C165.55 79.2593 165.399 79.3043 165.262 79.4025C165.125 79.503 165.013 79.6277 164.928 79.7765C164.843 79.9252 164.791 80.0756 164.772 80.2277L164.682 82.0523L164.132 82.025ZM169.244 77.5794C169.69 77.5171 170.059 77.4932 170.35 77.5077C170.644 77.5223 170.893 77.562 171.098 77.627C171.305 77.6898 171.471 77.7689 171.597 77.8641C171.724 77.9595 171.827 78.0708 171.905 78.198C172.051 78.4336 172.117 78.7041 172.101 79.0093C172.081 79.4262 171.904 79.7622 171.572 80.0174C171.239 80.2704 170.818 80.3842 170.308 80.3589L169.727 80.33L169.629 82.2981L169.011 82.2674L169.244 77.5794ZM169.842 78.0202L169.751 79.8516L169.976 79.8628C170.482 79.888 170.849 79.832 171.077 79.6949C171.306 79.5555 171.428 79.3287 171.443 79.0143C171.459 78.6977 171.379 78.4516 171.203 78.2762C171.024 78.1006 170.753 78.0038 170.388 77.9857C170.192 77.9759 170.01 77.9874 169.842 78.0202ZM172.66 82.4487L172.819 79.2436L173.369 79.271L173.34 79.8587C173.431 79.6851 173.555 79.5382 173.712 79.4181C173.871 79.2982 174.046 79.2429 174.237 79.2524C174.431 79.262 174.587 79.3041 174.707 79.3785C174.829 79.4508 174.909 79.5256 174.946 79.6028L174.696 79.9397C174.666 79.8972 174.637 79.8615 174.609 79.8327C174.529 79.7465 174.407 79.6993 174.243 79.6911C174.079 79.683 173.928 79.728 173.791 79.8263C173.653 79.9268 173.542 80.0514 173.457 80.2002C173.372 80.3489 173.32 80.4994 173.301 80.6514L173.21 82.476L172.66 82.4487ZM176.404 79.4217L176.244 82.6268L175.694 82.5994L175.832 79.8318L175.265 79.8036L175.286 79.3662L176.404 79.4217ZM175.787 78.1203C175.792 78.0064 175.836 77.9115 175.917 77.8356C176.001 77.7576 176.099 77.7213 176.21 77.7269C176.322 77.7324 176.415 77.7781 176.488 77.864C176.564 77.9476 176.599 78.0464 176.593 78.1603C176.587 78.2742 176.543 78.3702 176.459 78.4482C176.377 78.5241 176.281 78.5593 176.169 78.5537C176.058 78.5482 175.964 78.5036 175.888 78.4199C175.815 78.334 175.781 78.2342 175.787 78.1203ZM178.703 82.3687C178.969 82.3819 179.23 82.3047 179.485 82.137L179.679 82.5165C179.492 82.6397 179.327 82.7217 179.183 82.7625C179.04 82.8033 178.826 82.8167 178.541 82.8025C178.072 82.7792 177.707 82.6092 177.446 82.2926C177.188 81.976 177.071 81.566 177.096 81.0626C177.121 80.5592 177.278 80.1628 177.566 79.8734C177.857 79.5841 178.237 79.4511 178.706 79.4745C178.991 79.4886 179.203 79.5231 179.342 79.578C179.481 79.6328 179.637 79.7308 179.81 79.8718L179.58 80.2303C179.343 80.0382 179.091 79.9354 178.825 79.9222L178.804 79.9212C178.471 79.9047 178.199 80.011 177.987 80.2402C177.777 80.4696 177.663 80.7528 177.646 81.0899C177.63 81.4271 177.714 81.7202 177.901 81.9692C178.089 82.2183 178.35 82.3512 178.682 82.3677L178.703 82.3687ZM181.31 79.6655L181.151 82.8705L180.601 82.8432L180.739 80.0755L180.171 80.0473L180.193 79.61L181.31 79.6655ZM180.693 78.364C180.699 78.2501 180.743 78.1553 180.824 78.0794C180.908 78.0013 181.005 77.9651 181.117 77.9706C181.229 77.9762 181.321 78.0219 181.395 78.1077C181.47 78.1914 181.505 78.2902 181.5 78.4041C181.494 78.518 181.449 78.614 181.366 78.692C181.284 78.7679 181.188 78.8031 181.076 78.7975C180.964 78.792 180.871 78.7474 180.795 78.6637C180.722 78.5778 180.688 78.4779 180.693 78.364ZM184.521 81.3013C184.557 80.5701 184.313 80.1915 183.789 80.1654C183.655 80.1588 183.53 80.1891 183.415 80.2564C183.239 80.3573 183.095 80.5306 182.985 80.7763C182.946 80.8611 182.926 80.9286 182.924 80.9788L182.825 82.9537L182.275 82.9264L182.435 79.7213L182.985 79.7487L182.955 80.3364C183.182 79.9138 183.526 79.7139 183.989 79.7369C184.176 79.7462 184.341 79.7966 184.485 79.8883C184.631 79.9778 184.744 80.0724 184.824 80.1723C185.015 80.4079 185.101 80.7295 185.08 81.1373L184.985 83.061L184.435 83.0337L184.521 81.3013ZM187.37 80.3468C187.01 80.3289 186.772 80.4849 186.655 80.8148C186.623 80.9 186.605 80.9881 186.601 81.0792C186.591 81.2683 186.642 81.4261 186.752 81.5526C186.862 81.6768 187.045 81.7453 187.3 81.7579C187.66 81.7758 187.898 81.6323 188.013 81.3275C188.045 81.2492 188.062 81.1701 188.066 81.0904C188.075 80.9241 188.029 80.7665 187.929 80.6177C187.811 80.4497 187.625 80.3594 187.37 80.3468ZM188.437 80.458C188.568 80.6655 188.628 80.8842 188.617 81.1143C188.598 81.4879 188.444 81.7782 188.155 81.9854C187.935 82.1457 187.643 82.2168 187.278 82.1987C187.082 82.189 186.908 82.1598 186.755 82.1111C186.616 82.2069 186.543 82.3197 186.536 82.4496C186.527 82.6295 186.815 82.7341 187.401 82.7631C188.075 82.7966 188.496 82.9808 188.665 83.3158C188.717 83.4188 188.74 83.5341 188.733 83.6617C188.719 83.9419 188.629 84.1749 188.462 84.3607C188.143 84.7171 187.627 84.8775 186.914 84.8421C186.552 84.8241 186.26 84.7366 186.04 84.5795C185.822 84.4225 185.719 84.2039 185.733 83.9237C185.747 83.639 185.875 83.4078 186.117 83.2303C186.188 83.179 186.275 83.1251 186.379 83.0686C186.101 82.9589 185.968 82.7787 185.981 82.5282C185.985 82.4348 186.022 82.3316 186.092 82.2186C186.162 82.1056 186.264 82.0067 186.398 81.9221C186.154 81.7273 186.038 81.4418 186.05 81.0656L186.051 81.0451C186.066 80.7512 186.171 80.4904 186.367 80.2627C186.469 80.1444 186.608 80.0532 186.785 79.9889C186.962 79.9223 187.147 79.8938 187.341 79.9034C187.537 79.9132 187.703 79.942 187.84 79.9899L188.913 80.0432L188.891 80.4806L188.437 80.458ZM186.901 83.1767C186.674 83.2888 186.52 83.3942 186.44 83.4929C186.345 83.607 186.294 83.7301 186.288 83.8622C186.281 83.9943 186.316 84.0999 186.392 84.1791C186.522 84.3157 186.738 84.3915 187.038 84.4064C187.453 84.427 187.77 84.34 187.99 84.1454C188.107 84.0416 188.169 83.9111 188.177 83.754C188.185 83.5922 188.127 83.4717 188.003 83.3925C187.87 83.3128 187.74 83.263 187.613 83.243C187.441 83.2161 187.291 83.1996 187.164 83.1932C187.038 83.187 186.951 83.1815 186.901 83.1767ZM144.446 95.3404C144.454 95.1763 144.518 95.0391 144.637 94.9286C144.757 94.818 144.897 94.7667 145.056 94.7747C145.216 94.7826 145.349 94.8475 145.457 94.9693C145.566 95.0911 145.616 95.2341 145.607 95.3981C145.599 95.5621 145.535 95.6993 145.416 95.8099C145.296 95.9204 145.157 95.9717 144.997 95.9638C144.838 95.9558 144.704 95.891 144.596 95.7691C144.488 95.6473 144.438 95.5044 144.446 95.3404ZM152.739 97.0608C153.137 97.0806 153.529 96.9597 153.914 96.6979L154.195 97.1195C153.945 97.2829 153.74 97.3903 153.579 97.4417C153.324 97.5227 152.978 97.5523 152.541 97.5305C152.103 97.5088 151.722 97.3871 151.398 97.1655C151.073 96.9438 150.832 96.6453 150.675 96.2698C150.518 95.8921 150.451 95.4629 150.475 94.9822C150.499 94.5016 150.608 94.0822 150.801 93.7242C150.995 93.3662 151.264 93.093 151.609 92.9046C151.954 92.7162 152.35 92.6331 152.796 92.6553C153.222 92.6765 153.519 92.7232 153.687 92.7954C153.857 92.8678 153.984 92.9324 154.068 92.9891C154.152 93.0435 154.259 93.123 154.388 93.2276L154.067 93.6193C153.71 93.3207 153.332 93.1614 152.933 93.1416L152.892 93.1396C152.637 93.1269 152.395 93.1697 152.167 93.268C151.744 93.4479 151.439 93.789 151.249 94.2911C151.16 94.5219 151.109 94.7637 151.097 95.0165C151.084 95.2694 151.11 95.515 151.173 95.7534C151.239 95.9896 151.336 96.2033 151.463 96.3946C151.746 96.8106 152.158 97.032 152.698 97.0588L152.739 97.0608ZM155.749 97.6899C155.275 97.6664 155.053 97.3539 155.083 96.7526L155.292 92.5532L155.842 92.5805L155.635 96.7457C155.626 96.9211 155.654 97.0493 155.719 97.1301C155.786 97.2088 155.849 97.2496 155.908 97.2525C155.967 97.2555 156.097 97.2528 156.299 97.2445L156.323 97.6465C156.093 97.683 155.902 97.6975 155.749 97.6899ZM158.36 94.9218C158.043 94.9061 157.801 94.99 157.635 95.1735C157.519 95.3002 157.438 95.4834 157.392 95.7232L159.049 95.8055C159.041 95.5562 158.977 95.3487 158.857 95.1829C158.735 95.0192 158.569 94.9322 158.36 94.9218ZM159.383 97.6204C159.129 97.7745 158.792 97.8411 158.373 97.8203C157.842 97.7939 157.441 97.6221 157.169 97.3049C156.897 96.9877 156.774 96.5774 156.799 96.0739C156.831 95.4179 157.068 94.9535 157.508 94.6808C157.753 94.5332 158.021 94.4666 158.313 94.481C158.764 94.5034 159.098 94.673 159.315 94.9898C159.498 95.2615 159.586 95.6107 159.578 96.0374L159.486 96.2383L157.347 96.132C157.333 96.5104 157.42 96.8093 157.608 97.0287C157.795 97.2458 158.055 97.3626 158.385 97.379C158.635 97.3915 158.926 97.3385 159.256 97.2202L159.383 97.6204ZM161.861 96.4865C161.023 96.4448 160.594 96.6324 160.573 97.0493C160.567 97.1609 160.596 97.2662 160.66 97.3653C160.726 97.4645 160.803 97.5163 160.892 97.5207L161.025 97.5273C161.526 97.5522 161.807 97.3024 161.867 96.7779L161.882 96.4875L161.861 96.4865ZM160.37 94.799C160.787 94.6759 161.126 94.6208 161.388 94.6338C161.65 94.6468 161.876 94.7231 162.065 94.8627C162.255 95.0023 162.376 95.2013 162.43 95.4597C162.459 95.605 162.463 95.8986 162.441 96.3405L162.388 97.41C162.378 97.6105 162.384 97.7935 162.408 97.9591L161.855 97.9316C161.83 97.8367 161.82 97.7301 161.826 97.6116L161.827 97.5877C161.767 97.6532 161.701 97.7093 161.63 97.7561C161.409 97.9026 161.177 97.9699 160.935 97.9579C160.53 97.9377 160.258 97.7792 160.12 97.4823C160.047 97.3349 160.015 97.186 160.022 97.0356C160.042 96.637 160.29 96.3604 160.766 96.2059C161.051 96.1128 161.409 96.0769 161.84 96.0983L161.901 96.1014L161.918 95.7563C161.931 95.5057 161.891 95.3325 161.8 95.2366C161.694 95.1263 161.511 95.0646 161.251 95.0517C160.991 95.0388 160.7 95.0974 160.376 95.2275L160.37 94.799ZM163.338 98.0053L163.497 94.8002L164.047 94.8276L164.018 95.4153C164.109 95.2417 164.232 95.0948 164.389 94.9747C164.548 94.8547 164.723 94.7995 164.915 94.809C165.108 94.8186 165.265 94.8607 165.384 94.9351C165.506 95.0074 165.586 95.0821 165.623 95.1593L165.374 95.4963C165.344 95.4537 165.315 95.418 165.286 95.3892C165.206 95.303 165.084 95.2559 164.92 95.2477C164.756 95.2396 164.605 95.2846 164.468 95.3828C164.331 95.4833 164.219 95.608 164.134 95.7567C164.049 95.9055 163.997 96.0559 163.978 96.208L163.888 98.0326L163.338 98.0053ZM168.945 96.0779L168.859 97.8001L170.957 97.9043L170.933 98.3826L168.217 98.2477L168.453 93.4948L171.17 93.6297L171.146 94.1047L169.048 94.0005L168.969 95.5996L170.397 95.6705L170.373 96.1489L168.945 96.0779ZM171.653 95.2054L172.289 95.237L173.033 96.4592L173.925 95.3286L174.512 95.3578L173.286 96.8759L174.302 98.55L173.667 98.5185L172.926 97.2999L172.03 98.4371L171.443 98.4079L172.673 96.8831L171.653 95.2054ZM175.668 98.0904C175.845 98.1997 176.028 98.259 176.218 98.2684C176.541 98.2845 176.824 98.1763 177.066 97.944C177.32 97.7032 177.456 97.4051 177.473 97.0497C177.491 96.6921 177.421 96.4031 177.263 96.1829C177.103 95.9626 176.898 95.8462 176.65 95.8339C176.482 95.8255 176.318 95.8756 176.16 95.9842C176.001 96.0906 175.865 96.2299 175.752 96.4024L175.668 98.0904ZM176.723 95.3957C176.988 95.4088 177.223 95.4936 177.43 95.65C177.637 95.8064 177.791 96.0048 177.894 96.2451C177.996 96.4831 178.041 96.7353 178.027 97.0019C178.001 97.5326 177.825 97.9566 177.498 98.2738C177.174 98.5888 176.783 98.7349 176.326 98.7122C176.134 98.7027 175.907 98.6549 175.644 98.5687L175.558 100.298L174.995 100.27L175.237 95.3835L175.801 95.4115L175.782 95.7874C176.054 95.5086 176.368 95.378 176.723 95.3957ZM180.002 95.997C179.686 95.9813 179.444 96.0652 179.277 96.2487C179.161 96.3754 179.08 96.5586 179.034 96.7984L180.691 96.8807C180.683 96.6314 180.619 96.4239 180.5 96.2581C180.378 96.0945 180.212 96.0074 180.002 95.997ZM181.026 98.6957C180.772 98.8497 180.435 98.9164 180.016 98.8955C179.485 98.8692 179.084 98.6974 178.812 98.3801C178.54 98.0629 178.416 97.6526 178.441 97.1492C178.474 96.4931 178.711 96.0288 179.151 95.7561C179.396 95.6084 179.664 95.5418 179.956 95.5563C180.407 95.5787 180.741 95.7483 180.958 96.0651C181.141 96.3368 181.229 96.6859 181.221 97.1126L181.129 97.3135L178.99 97.2073C178.976 97.5856 179.062 97.8845 179.25 98.1039C179.438 98.3211 179.697 98.4378 180.028 98.4542C180.278 98.4667 180.568 98.4137 180.899 98.2954L181.026 98.6957ZM183.26 98.6148C183.526 98.6281 183.787 98.5508 184.042 98.3831L184.236 98.7626C184.049 98.8858 183.884 98.9678 183.74 99.0086C183.597 99.0495 183.383 99.0628 183.098 99.0486C182.629 99.0253 182.264 98.8553 182.003 98.5387C181.745 98.2221 181.628 97.8122 181.653 97.3087C181.678 96.8053 181.835 96.4089 182.123 96.1195C182.414 95.8303 182.794 95.6973 183.263 95.7206C183.548 95.7347 183.76 95.7692 183.899 95.8241C184.038 95.8789 184.194 95.9769 184.367 96.118L184.137 96.4765C183.9 96.2843 183.648 96.1816 183.381 96.1683L183.361 96.1673C183.028 96.1508 182.756 96.2571 182.544 96.4864C182.334 96.7157 182.22 96.9989 182.203 97.3361C182.187 97.6732 182.271 97.9663 182.458 98.2153C182.646 98.4645 182.907 98.5973 183.239 98.6138L183.26 98.6148ZM185.804 99.1831C185.262 99.1562 185.006 98.842 185.036 98.2406L185.131 96.3135L184.564 96.2853L184.586 95.848L185.153 95.8761L185.185 95.2269L185.746 95.0492L185.703 95.9035L186.486 95.9423L186.464 96.3797L185.682 96.3408L185.588 98.2338C185.579 98.4092 185.617 98.5378 185.702 98.6197C185.787 98.6993 185.884 98.7418 185.994 98.7472C186.205 98.7577 186.372 98.7477 186.492 98.7172L186.541 99.1067C186.328 99.1714 186.082 99.1969 185.804 99.1831ZM188.828 97.8262C187.989 97.7845 187.56 97.9721 187.539 98.389C187.534 98.5006 187.563 98.6059 187.626 98.705C187.692 98.8042 187.769 98.856 187.858 98.8604L187.991 98.867C188.493 98.8919 188.773 98.6421 188.834 98.1176L188.848 97.8272L188.828 97.8262ZM187.336 96.1387C187.753 96.0156 188.092 95.9605 188.354 95.9735C188.616 95.9865 188.842 96.0628 189.032 96.2024C189.221 96.342 189.342 96.541 189.396 96.7994C189.425 96.9447 189.429 97.2383 189.407 97.6802L189.354 98.7497C189.344 98.9502 189.351 99.1332 189.374 99.2988L188.821 99.2713C188.796 99.1764 188.786 99.0698 188.792 98.9513L188.793 98.9274C188.733 98.9929 188.668 99.049 188.597 99.0958C188.375 99.2423 188.143 99.3096 187.902 99.2976C187.496 99.2774 187.224 99.1189 187.086 98.822C187.013 98.6746 186.981 98.5257 186.988 98.3753C187.008 97.9767 187.256 97.7001 187.732 97.5456C188.017 97.4525 188.375 97.4166 188.806 97.438L188.867 97.4411L188.884 97.096C188.897 96.8454 188.858 96.6722 188.766 96.5763C188.66 96.466 188.477 96.4043 188.217 96.3914C187.958 96.3785 187.666 96.4371 187.342 96.5672L187.336 96.1387ZM191.148 99.4486C190.606 99.4217 190.35 99.1075 190.38 98.5061L190.475 96.579L189.908 96.5508L189.93 96.1135L190.497 96.1416L190.529 95.4924L191.09 95.3147L191.047 96.169L191.83 96.2078L191.808 96.6452L191.026 96.6063L190.932 98.4993C190.923 98.6747 190.961 98.8033 191.046 98.8852C191.131 98.9648 191.228 99.0073 191.338 99.0127C191.549 99.0232 191.716 99.0132 191.836 98.9827L191.885 99.3722C191.672 99.4369 191.426 99.4624 191.148 99.4486ZM193.501 96.2908L193.341 99.4959L192.791 99.4686L192.929 96.7009L192.362 96.6727L192.383 96.2353L193.501 96.2908ZM192.884 94.9894C192.889 94.8755 192.933 94.7806 193.014 94.7047C193.098 94.6267 193.196 94.5904 193.307 94.596C193.419 94.6015 193.512 94.6472 193.585 94.7331C193.661 94.8168 193.696 94.9156 193.69 95.0295C193.684 95.1434 193.64 95.2393 193.556 95.3174C193.474 95.3932 193.378 95.4284 193.266 95.4229C193.155 95.4173 193.061 95.3727 192.985 95.289C192.912 95.2032 192.878 95.1033 192.884 94.9894ZM194.743 97.9591C194.732 98.18 194.75 98.375 194.797 98.544C194.845 98.7109 194.914 98.8422 195.003 98.9379C195.094 99.0315 195.194 99.1027 195.301 99.1514C195.41 99.1979 195.528 99.2243 195.653 99.2305C195.908 99.2432 196.132 99.1664 196.326 99.0002C196.538 98.8166 196.655 98.5016 196.677 98.0551C196.699 97.6109 196.614 97.2847 196.421 97.0765C196.243 96.8941 196.027 96.7966 195.775 96.784C195.517 96.7712 195.293 96.8469 195.102 97.0109C194.885 97.1988 194.765 97.5149 194.743 97.9591ZM194.193 97.9317C194.228 97.2415 194.474 96.7719 194.931 96.5229C195.185 96.3871 195.473 96.3272 195.796 96.3432C196.118 96.3592 196.4 96.4474 196.643 96.608C196.771 96.6965 196.881 96.8047 196.973 96.9326C197.171 97.2211 197.258 97.6045 197.234 98.0828C197.2 98.7753 196.955 99.2438 196.5 99.4884C196.246 99.6265 195.957 99.6875 195.631 99.6713C195.303 99.655 195.022 99.5657 194.788 99.4034C194.658 99.3169 194.547 99.2087 194.455 99.0785C194.256 98.7969 194.169 98.4147 194.193 97.9317ZM200.169 98.0985C200.205 97.3672 199.962 96.9886 199.438 96.9626C199.303 96.9559 199.178 96.9862 199.063 97.0536C198.887 97.1544 198.744 97.3277 198.633 97.5734C198.595 97.6583 198.574 97.7258 198.572 97.7759L198.474 99.7509L197.923 99.7235L198.083 96.5185L198.633 96.5458L198.604 97.1335C198.83 96.7109 199.175 96.5111 199.637 96.534C199.824 96.5433 199.989 96.5938 200.133 96.6854C200.279 96.7749 200.392 96.8696 200.472 96.9694C200.663 97.205 200.749 97.5267 200.729 97.9344L200.633 99.8582L200.083 99.8308L200.169 98.0985Z" fill="black"/>
</g>
<defs>
<clipPath id="clip0_1449_1508">
<rect width="277.333" height="213.333" fill="white" transform="translate(10.9922 0.16333) rotate(2.84416)"/>
</clipPath>
</defs>
</svg>
