<svg width="285" height="223" viewBox="0 0 285 223" fill="none" xmlns="http://www.w3.org/2000/svg">
<g clip-path="url(#clip0_1449_1491)">
<path d="M135.595 125.256C135.646 126.938 137.05 128.26 138.732 128.209L203.527 126.251L201.434 56.9951L133.594 59.0453L135.595 125.256Z" fill="#AFD1FA"/>
<path d="M200.29 19.1319L135.495 21.0901C133.813 21.1409 132.491 22.5454 132.542 24.227L133.594 59.0453L201.434 56.9951L200.29 19.1319Z" fill="#AFD1FA"/>
<path d="M268.222 20.1265C268.171 18.4449 266.767 17.1229 265.085 17.1737L200.29 19.1319L201.434 56.9951L269.274 54.9449L268.222 20.1265Z" fill="#AFD1FA"/>
<path d="M203.527 126.251L268.322 124.293C270.004 124.242 271.326 122.838 271.275 121.156L269.274 54.9449L201.434 56.9951L203.527 126.251Z" fill="#AFD1FA"/>
<path d="M200.29 19.1319L135.495 21.0901C133.813 21.1409 132.491 22.5454 132.542 24.227L133.594 59.0453M200.29 19.1319L265.085 17.1737C266.767 17.1229 268.171 18.4449 268.222 20.1265L269.274 54.9449M200.29 19.1319L201.434 56.9951M203.527 126.251L268.322 124.293C270.004 124.242 271.326 122.838 271.275 121.156L269.274 54.9449M203.527 126.251L138.732 128.209C137.05 128.26 135.646 126.938 135.595 125.256L133.594 59.0453M203.527 126.251L201.434 56.9951M133.594 59.0453L201.434 56.9951M269.274 54.9449L201.434 56.9951" stroke="black" stroke-width="1.21851"/>
<path d="M159.846 41.5451C159.255 42.1614 159.286 43.1424 159.915 43.7201L163.519 47.0333C164.138 47.6032 165.103 47.562 165.672 46.9414L172.256 39.7608C172.831 39.134 172.781 38.1578 172.145 37.5929L171.644 37.1474C171.023 36.5956 170.075 36.6431 169.512 37.254L164.302 42.9109L162.413 41.08C161.806 40.4921 160.837 40.5101 160.253 41.12L159.846 41.5451Z" fill="white"/>
<path fill-rule="evenodd" clip-rule="evenodd" d="M165.014 30.8342C159.49 31.0012 154.446 36.4579 154.705 42.5959C154.965 48.769 159.918 53.5266 166.092 53.4442C172.373 53.3604 177.563 48.2036 177.449 41.9192C177.331 35.4541 171.987 30.6235 165.014 30.8342ZM165.672 46.9414C165.103 47.562 164.138 47.6032 163.519 47.0333L159.915 43.7201C159.286 43.1424 159.255 42.1614 159.846 41.5451L160.253 41.12C160.837 40.5101 161.806 40.4921 162.413 41.08L164.302 42.9109L169.512 37.254C170.075 36.6431 171.023 36.5956 171.644 37.1474L172.145 37.5929C172.781 38.1578 172.831 39.134 172.256 39.7608L165.672 46.9414Z" fill="#01B753"/>
<path d="M159.846 41.5451C159.255 42.1614 159.286 43.1424 159.915 43.7201L163.519 47.0333C164.138 47.6032 165.103 47.562 165.672 46.9414L172.256 39.7608C172.831 39.134 172.781 38.1578 172.145 37.5929L171.644 37.1474C171.023 36.5956 170.075 36.6431 169.512 37.254L164.302 42.9109L162.413 41.08C161.806 40.4921 160.837 40.5101 160.253 41.12L159.846 41.5451Z" stroke="black" stroke-width="0.21324"/>
<path fill-rule="evenodd" clip-rule="evenodd" d="M165.014 30.8342C159.49 31.0012 154.446 36.4579 154.705 42.5959C154.965 48.769 159.918 53.5266 166.092 53.4442C172.373 53.3604 177.563 48.2036 177.449 41.9192C177.331 35.4541 171.987 30.6235 165.014 30.8342ZM165.672 46.9414C165.103 47.562 164.138 47.6032 163.519 47.0333L159.915 43.7201C159.286 43.1424 159.255 42.1614 159.846 41.5451L160.253 41.12C160.837 40.5101 161.806 40.4921 162.413 41.08L164.302 42.9109L169.512 37.254C170.075 36.6431 171.023 36.5956 171.644 37.1474L172.145 37.5929C172.781 38.1578 172.831 39.134 172.256 39.7608L165.672 46.9414Z" stroke="black" stroke-width="0.21324"/>
<path d="M230.106 34.0623C230.725 33.4055 231.756 33.3681 232.42 33.9785L235.708 37.0011L238.696 33.7649C239.316 33.0935 240.358 33.0383 241.045 33.6404C241.769 34.2751 241.816 35.3867 241.147 36.0795L238.086 39.2477L241.271 42.2601C241.943 42.8958 241.962 43.9599 241.312 44.6186C240.678 45.2613 239.645 45.2753 238.994 44.6501L235.848 41.6301L232.883 44.8342C232.268 45.4984 231.234 45.5466 230.56 44.9424C229.871 44.3241 229.822 43.2605 230.452 42.5815L233.415 39.3889L230.187 36.3987C229.516 35.7773 229.48 34.7283 230.106 34.0623Z" fill="white"/>
<path fill-rule="evenodd" clip-rule="evenodd" d="M234.992 28.7289C229.139 29.1548 224.674 34.1569 225.065 40.0147C225.451 45.7926 230.331 50.0881 236.116 49.8973C241.885 49.7071 246.132 45.0761 246.377 39.3706C246.64 33.2574 241.093 28.2851 234.992 28.7289ZM235.708 37.0011L232.42 33.9785C231.756 33.3681 230.725 33.4055 230.106 34.0623C229.48 34.7283 229.516 35.7773 230.187 36.3987L233.415 39.3889L230.452 42.5815C229.822 43.2605 229.871 44.3241 230.56 44.9424C231.234 45.5466 232.268 45.4984 232.883 44.8342L235.848 41.6301L238.994 44.6501C239.645 45.2753 240.678 45.2613 241.312 44.6186C241.962 43.9599 241.943 42.8958 241.271 42.2601L238.086 39.2477L241.147 36.0795C241.816 35.3867 241.769 34.2751 241.045 33.6404C240.358 33.0383 239.316 33.0935 238.696 33.7649L235.708 37.0011Z" fill="#CB0101"/>
<path d="M230.106 34.0623C230.725 33.4055 231.756 33.3681 232.42 33.9785L235.708 37.0011L238.696 33.7649C239.316 33.0935 240.358 33.0383 241.045 33.6404C241.769 34.2751 241.816 35.3867 241.147 36.0795L238.086 39.2477L241.271 42.2601C241.943 42.8958 241.962 43.9599 241.312 44.6186C240.678 45.2613 239.645 45.2753 238.994 44.6501L235.848 41.6301L232.883 44.8342C232.268 45.4984 231.234 45.5466 230.56 44.9424C229.871 44.3241 229.822 43.2605 230.452 42.5815L233.415 39.3889L230.187 36.3987C229.516 35.7773 229.48 34.7283 230.106 34.0623Z" stroke="black" stroke-width="0.21324"/>
<path fill-rule="evenodd" clip-rule="evenodd" d="M234.992 28.7289C229.139 29.1548 224.674 34.1569 225.065 40.0147C225.451 45.7926 230.331 50.0881 236.116 49.8973C241.885 49.7071 246.132 45.0761 246.377 39.3706C246.64 33.2574 241.093 28.2851 234.992 28.7289ZM235.708 37.0011L232.42 33.9785C231.756 33.3681 230.725 33.4055 230.106 34.0623C229.48 34.7283 229.516 35.7773 230.187 36.3987L233.415 39.3889L230.452 42.5815C229.822 43.2605 229.871 44.3241 230.56 44.9424C231.234 45.5466 232.268 45.4984 232.883 44.8342L235.848 41.6301L238.994 44.6501C239.645 45.2753 240.678 45.2613 241.312 44.6186C241.962 43.9599 241.943 42.8958 241.271 42.2601L238.086 39.2477L241.147 36.0795C241.816 35.3867 241.769 34.2751 241.045 33.6404C240.358 33.0383 239.316 33.0935 238.696 33.7649L235.708 37.0011Z" stroke="black" stroke-width="0.21324"/>
<path d="M211.935 72.6145C211.93 72.4432 211.985 72.2951 212.101 72.1702C212.216 72.0453 212.357 71.9803 212.523 71.9753C212.69 71.9702 212.834 72.0266 212.957 72.1443C213.08 72.262 213.143 72.4065 213.149 72.5778C213.154 72.7491 213.099 72.8972 212.983 73.0221C212.868 73.147 212.727 73.212 212.561 73.217C212.394 73.222 212.25 73.1657 212.127 73.048C212.004 72.9302 211.941 72.7857 211.935 72.6145ZM219.296 71.892L219.35 73.6904L221.541 73.6242L221.556 74.1237L218.719 74.2095L218.569 69.2461L221.406 69.1603L221.421 69.6563L219.23 69.7225L219.281 71.3925L220.772 71.3474L220.787 71.8469L219.296 71.892ZM222.04 70.7591L222.704 70.739L223.58 71.9483L224.413 70.698L225.027 70.6795L223.878 72.3607L225.074 74.0174L224.411 74.0375L223.539 72.8317L222.702 74.0891L222.088 74.1077L223.24 72.4192L222.04 70.7591ZM226.771 74.0304C226.205 74.0475 225.913 73.7421 225.894 73.1141L225.833 71.1016L225.24 71.1195L225.227 70.6628L225.819 70.6449L225.798 69.9669L226.366 69.7354L226.393 70.6275L227.211 70.6028L227.224 71.0595L226.407 71.0842L226.467 73.061C226.473 73.2442 226.523 73.3748 226.618 73.4529C226.713 73.5286 226.818 73.5647 226.932 73.5613C227.153 73.5546 227.325 73.5303 227.448 73.4885L227.531 73.8896C227.315 73.9747 227.061 74.0216 226.771 74.0304ZM228.275 73.9207L228.174 70.5737L228.748 70.5563L228.767 71.1701C228.847 70.9819 228.964 70.8189 229.117 70.6809C229.272 70.5429 229.449 70.4708 229.649 70.4648C229.851 70.4587 230.018 70.4894 230.149 70.5569C230.281 70.6219 230.37 70.693 230.416 70.7702L230.184 71.1415C230.149 71.0997 230.116 71.065 230.084 71.0374C229.994 70.9544 229.863 70.9155 229.692 70.9207C229.52 70.9259 229.367 70.9852 229.233 71.0988C229.098 71.2148 228.993 71.3537 228.917 71.5155C228.841 71.6774 228.799 71.8381 228.792 71.9979L228.85 73.9033L228.275 73.9207ZM232.765 72.2778C231.889 72.3043 231.458 72.5352 231.471 72.9705C231.475 73.0871 231.514 73.1942 231.588 73.292C231.665 73.3896 231.75 73.4371 231.843 73.4343L231.982 73.4301C232.505 73.4143 232.776 73.1311 232.795 72.5805L232.786 72.2772L232.765 72.2778ZM231.073 70.6468C231.496 70.484 231.845 70.3984 232.119 70.3902C232.392 70.3819 232.633 70.4425 232.842 70.5719C233.051 70.7013 233.193 70.8982 233.27 71.1625C233.313 71.3112 233.341 71.6163 233.355 72.0778L233.389 73.1947C233.395 73.404 233.418 73.5938 233.456 73.7641L232.878 73.7816C232.844 73.685 232.825 73.5748 232.822 73.4511L232.821 73.4261C232.764 73.4993 232.7 73.5631 232.63 73.6176C232.412 73.7885 232.176 73.8778 231.924 73.8854C231.501 73.8982 231.205 73.7559 231.036 73.4587C230.948 73.3113 230.902 73.1591 230.897 73.0021C230.885 72.5858 231.12 72.2775 231.602 72.0773C231.891 71.9566 232.26 71.8895 232.71 71.8759L232.774 71.874L232.763 71.5136C232.755 71.2519 232.7 71.075 232.597 70.9829C232.477 70.877 232.282 70.8281 232.011 70.8363C231.739 70.8445 231.441 70.9297 231.115 71.092L231.073 70.6468ZM237.137 71.3528L237.206 73.6508L236.561 73.6703L236.411 68.7069L239.247 68.6211L239.262 69.1171L237.071 69.1833L237.122 70.8533L238.613 70.8082L238.628 71.3077L237.137 71.3528ZM241.181 70.5734C240.851 70.5834 240.606 70.6908 240.448 70.8956C240.338 71.037 240.269 71.2343 240.241 71.4876L241.972 71.4353C241.942 71.1766 241.859 70.9661 241.72 70.8036C241.58 70.6435 241.4 70.5668 241.181 70.5734ZM242.471 73.2952C242.219 73.4766 241.874 73.574 241.437 73.5872C240.882 73.604 240.451 73.4587 240.141 73.1513C239.832 72.844 239.669 72.4275 239.654 71.9018C239.633 71.2167 239.84 70.714 240.276 70.3937C240.518 70.2197 240.792 70.1281 241.096 70.1189C241.567 70.1046 241.929 70.2532 242.181 70.5647C242.394 70.832 242.514 71.1879 242.542 71.6323L242.463 71.849L240.229 71.9165C240.246 72.3113 240.361 72.6149 240.574 72.8275C240.788 73.0377 241.067 73.1376 241.412 73.1272C241.674 73.1193 241.971 73.0401 242.305 72.8895L242.471 73.2952ZM244.535 70.4721C244.205 70.4821 243.96 70.5895 243.802 70.7942C243.692 70.9357 243.623 71.133 243.595 71.3862L245.326 71.3339C245.297 71.0753 245.213 70.8647 245.075 70.7022C244.934 70.5422 244.754 70.4655 244.535 70.4721ZM245.825 73.1939C245.573 73.3753 245.229 73.4726 244.791 73.4858C244.237 73.5026 243.805 73.3573 243.496 73.05C243.186 72.7426 243.024 72.3261 243.008 71.8004C242.987 71.1153 243.194 70.6126 243.63 70.2923C243.872 70.1183 244.146 70.0267 244.45 70.0175C244.921 70.0033 245.283 70.1519 245.535 70.4633C245.748 70.7307 245.868 71.0866 245.896 71.531L245.817 71.7477L243.583 71.8152C243.6 72.2099 243.715 72.5136 243.929 72.7262C244.142 72.9364 244.421 73.0363 244.766 73.0259C245.028 73.0179 245.326 72.9387 245.659 72.7882L245.825 73.1939ZM212.479 90.6062C212.474 90.435 212.529 90.2869 212.644 90.162C212.76 90.037 212.9 89.9721 213.067 89.967C213.233 89.962 213.378 90.0184 213.501 90.1361C213.623 90.2538 213.687 90.3983 213.692 90.5696C213.697 90.7409 213.642 90.889 213.527 91.0139C213.412 91.1388 213.271 91.2038 213.104 91.2088C212.938 91.2138 212.793 91.1575 212.671 91.0397C212.548 90.922 212.484 90.7775 212.479 90.6062ZM222.696 87.1331L222.846 92.093L222.2 92.1125L222.128 89.7432L219.837 89.8124L219.909 92.1817L219.263 92.2013L219.113 87.2378L219.759 87.2183L219.822 89.3129L222.113 89.2436L222.05 87.1527L222.696 87.1331ZM224.753 88.6853L224.855 92.0323L224.28 92.0496L224.193 89.1594L223.6 89.1773L223.587 88.7205L224.753 88.6853ZM224.003 87.3829C224 87.264 224.037 87.1617 224.115 87.076C224.196 86.9878 224.295 86.942 224.411 86.9384C224.528 86.9349 224.628 86.9747 224.711 87.0579C224.797 87.1387 224.842 87.2385 224.845 87.3575C224.849 87.4764 224.81 87.58 224.73 87.6681C224.651 87.7538 224.554 87.7984 224.437 87.8019C224.321 87.8055 224.22 87.7669 224.134 87.6861C224.05 87.6029 224.007 87.5019 224.003 87.3829ZM227.104 92.0286C226.829 92.0369 226.576 91.9683 226.348 91.8228C226.12 91.6774 225.943 91.4851 225.817 91.246C225.69 91.0046 225.623 90.7447 225.614 90.4664C225.598 89.9122 225.745 89.4577 226.055 89.1031C226.368 88.746 226.764 88.5602 227.242 88.5458C227.442 88.5397 227.682 88.5706 227.963 88.6383L227.903 86.6722L228.492 86.6544L228.651 91.9175L228.062 91.9353L228.051 91.5428C227.791 91.8554 227.476 92.0173 227.104 92.0286ZM227.978 89.1378C227.777 89.0391 227.581 88.9927 227.388 88.9985C227.055 89.0086 226.771 89.1434 226.536 89.4028C226.292 89.6793 226.175 90.003 226.187 90.3741C226.198 90.7452 226.295 91.0387 226.478 91.2546C226.663 91.4705 226.885 91.5745 227.144 91.5666C227.32 91.5613 227.486 91.4968 227.642 91.373C227.798 91.2469 227.927 91.0894 228.031 90.9005L227.978 89.1378ZM230.901 91.9138C230.625 91.9222 230.373 91.8536 230.145 91.7081C229.917 91.5626 229.739 91.3703 229.613 91.1313C229.487 90.8899 229.419 90.63 229.411 90.3517C229.394 89.7974 229.541 89.343 229.852 88.9883C230.165 88.6313 230.561 88.4455 231.039 88.431C231.239 88.425 231.479 88.4558 231.759 88.5235L231.7 86.5574L232.289 86.5397L232.448 91.8028L231.859 91.8206L231.847 91.4281C231.588 91.7407 231.272 91.9026 230.901 91.9138ZM231.774 89.0231C231.574 88.9244 231.377 88.878 231.185 88.8838C230.851 88.8938 230.567 89.0286 230.332 89.2881C230.088 89.5645 229.972 89.8883 229.983 90.2594C229.994 90.6305 230.091 90.924 230.274 91.1399C230.459 91.3557 230.681 91.4597 230.941 91.4519C231.117 91.4466 231.283 91.382 231.438 91.2583C231.594 91.1321 231.724 90.9747 231.828 90.7858L231.774 89.0231ZM234.731 88.7766C234.401 88.7866 234.156 88.894 233.998 89.0987C233.888 89.2402 233.819 89.4375 233.791 89.6907L235.522 89.6384C235.492 89.3798 235.409 89.1692 235.27 89.0067C235.13 88.8467 234.95 88.77 234.731 88.7766ZM236.021 91.4984C235.769 91.6798 235.424 91.7771 234.987 91.7903C234.432 91.8071 234.001 91.6618 233.691 91.3545C233.382 91.0472 233.219 90.6306 233.204 90.1049C233.183 89.4198 233.39 88.9171 233.826 88.5968C234.068 88.4228 234.342 88.3312 234.646 88.322C235.117 88.3078 235.479 88.4564 235.731 88.7678C235.944 89.0352 236.064 89.3911 236.092 89.8355L236.013 90.0522L233.779 90.1197C233.796 90.5144 233.911 90.8181 234.124 91.0307C234.338 91.2409 234.617 91.3408 234.962 91.3304C235.224 91.3225 235.521 91.2432 235.855 91.0927L236.021 91.4984ZM239.176 89.7887C239.153 89.0251 238.868 88.6516 238.321 88.6681C238.181 88.6723 238.053 88.7143 237.939 88.7939C237.764 88.9135 237.629 89.1057 237.535 89.3704C237.502 89.4619 237.486 89.5338 237.488 89.5861L237.55 91.6486L236.976 91.6659L236.875 88.3189L237.449 88.3016L237.468 88.9153C237.668 88.4569 238.01 88.2204 238.493 88.2058C238.688 88.1999 238.864 88.2386 239.021 88.3219C239.181 88.4028 239.306 88.4919 239.397 88.5891C239.616 88.8183 239.732 89.1457 239.745 89.5715L239.805 91.5804L239.231 91.5978L239.176 89.7887ZM245.098 90.9848C245.515 90.9722 245.912 90.8137 246.291 90.5094L246.618 90.9245C246.371 91.1153 246.167 91.2441 246.005 91.3109C245.746 91.4164 245.388 91.476 244.931 91.4898C244.475 91.5036 244.068 91.4087 243.712 91.2052C243.356 91.0017 243.08 90.7112 242.886 90.3338C242.691 89.9539 242.586 89.513 242.571 89.0111C242.556 88.5092 242.634 88.0639 242.805 87.6754C242.977 87.2869 243.234 86.9803 243.578 86.7556C243.921 86.531 244.326 86.4116 244.792 86.3975C245.237 86.3841 245.549 86.408 245.73 86.4692C245.912 86.5303 246.05 86.5869 246.142 86.6389C246.234 86.6885 246.352 86.7623 246.495 86.8603L246.194 87.2944C245.797 87.0136 245.391 86.8794 244.975 86.892L244.932 86.8933C244.665 86.9013 244.417 86.966 244.188 87.0872C243.763 87.3096 243.474 87.6897 243.318 88.2278C243.245 88.4752 243.212 88.731 243.22 88.995C243.228 89.2591 243.275 89.5124 243.361 89.7551C243.449 89.9953 243.568 90.2096 243.716 90.3979C244.045 90.807 244.492 91.0031 245.055 90.986L245.098 90.9848ZM249.738 89.4695C249.715 88.7059 249.43 88.3324 248.883 88.3489C248.743 88.3531 248.615 88.3951 248.501 88.4747C248.326 88.5943 248.191 88.7865 248.097 89.0512C248.064 89.1427 248.048 89.2146 248.05 89.2669L248.112 91.3294L247.538 91.3467L247.379 86.0836L247.953 86.0662L248.03 88.5961C248.23 88.1377 248.572 87.9012 249.055 87.8866C249.25 87.8807 249.426 87.9194 249.583 88.0027C249.743 88.0836 249.868 88.1727 249.959 88.2699C250.178 88.4991 250.294 88.8265 250.307 89.2523L250.367 91.2612L249.793 91.2786L249.738 89.4695ZM253.069 89.6724C252.194 89.6989 251.763 89.9297 251.776 90.3651C251.78 90.4816 251.819 90.5888 251.893 90.6865C251.97 90.7842 252.054 90.8317 252.147 90.8289L252.286 90.8247C252.81 90.8088 253.081 90.5256 253.1 89.9751L253.091 89.6718L253.069 89.6724ZM251.377 88.0414C251.801 87.8786 252.15 87.793 252.423 87.7848C252.697 87.7765 252.938 87.8371 253.146 87.9665C253.355 88.0959 253.498 88.2928 253.575 88.5571C253.618 88.7058 253.646 89.0109 253.66 89.4724L253.694 90.5893C253.7 90.7986 253.722 90.9884 253.761 91.1587L253.183 91.1761C253.149 91.0796 253.13 90.9694 253.126 90.8457L253.126 90.8207C253.068 90.8939 253.005 90.9577 252.935 91.0122C252.716 91.1831 252.481 91.2724 252.229 91.28C251.805 91.2928 251.509 91.1505 251.341 90.8532C251.253 90.7059 251.207 90.5537 251.202 90.3967C251.189 89.9804 251.424 89.6721 251.906 89.4718C252.195 89.3512 252.565 89.2841 253.014 89.2705L253.079 89.2685L253.068 88.9082C253.06 88.6465 253.005 88.4696 252.902 88.3774C252.782 88.2715 252.586 88.2227 252.315 88.2309C252.044 88.2391 251.745 88.3243 251.419 88.4865L251.377 88.0414ZM254.731 91.1293L254.63 87.7823L255.205 87.765L255.223 88.3787C255.303 88.1906 255.42 88.0275 255.573 87.8896C255.728 87.7515 255.906 87.6795 256.106 87.6735C256.308 87.6674 256.474 87.698 256.605 87.7655C256.738 87.8306 256.827 87.9017 256.872 87.9789L256.64 88.3502C256.606 88.3084 256.572 88.2737 256.541 88.246C256.45 88.1631 256.319 88.1242 256.148 88.1293C255.977 88.1345 255.824 88.1939 255.689 88.3075C255.554 88.4235 255.449 88.5624 255.373 88.7242C255.297 88.886 255.255 89.0468 255.248 89.2065L255.306 91.112L254.731 91.1293ZM258.774 88.0535C258.398 88.0649 258.163 88.247 258.069 88.5999C258.043 88.6911 258.032 88.7843 258.035 88.8795C258.041 89.0769 258.106 89.2368 258.231 89.3593C258.357 89.4793 258.552 89.5353 258.819 89.5272C259.195 89.5159 259.43 89.3468 259.525 89.0202C259.551 88.936 259.563 88.8523 259.56 88.7691C259.555 88.5954 259.494 88.4354 259.378 88.2889C259.242 88.1239 259.041 88.0455 258.774 88.0535ZM259.893 88.0805C260.047 88.2853 260.127 88.5079 260.134 88.7482C260.146 89.1383 260.011 89.4531 259.727 89.6926C259.511 89.8777 259.213 89.976 258.833 89.9875C258.628 89.9937 258.444 89.9778 258.281 89.9399C258.144 90.0512 258.078 90.1746 258.082 90.3102C258.087 90.4982 258.396 90.5829 259.007 90.5644C259.711 90.5431 260.165 90.6997 260.368 91.034C260.43 91.1369 260.464 91.2549 260.468 91.3881C260.477 91.6807 260.402 91.9306 260.244 92.1378C259.942 92.535 259.418 92.7449 258.674 92.7674C258.296 92.7788 257.985 92.712 257.743 92.5669C257.503 92.4218 257.378 92.2029 257.369 91.9104C257.36 91.613 257.474 91.3619 257.711 91.1572C257.78 91.0979 257.867 91.0346 257.969 90.9672C257.671 90.8762 257.518 90.6999 257.511 90.4382C257.508 90.3407 257.538 90.2302 257.601 90.1069C257.663 89.9836 257.761 89.8723 257.894 89.773C257.624 89.5907 257.48 89.3034 257.461 88.9111L257.46 88.8897C257.451 88.5828 257.539 88.3028 257.724 88.0496C257.82 87.9181 257.957 87.8116 258.136 87.73C258.314 87.646 258.505 87.601 258.707 87.5949C258.911 87.5887 259.087 87.6048 259.233 87.6432L260.354 87.6094L260.367 88.0661L259.893 88.0805ZM258.521 91.0362C258.295 91.1717 258.144 91.2941 258.068 91.4035C257.979 91.53 257.937 91.6622 257.941 91.8002C257.945 91.9382 257.99 92.0452 258.076 92.1212C258.223 92.2524 258.453 92.3133 258.767 92.3038C259.2 92.2908 259.523 92.1739 259.735 91.9531C259.848 91.8354 259.902 91.6945 259.897 91.5304C259.892 91.3615 259.822 91.241 259.686 91.1689C259.541 91.0971 259.402 91.0561 259.268 91.0458C259.087 91.0322 258.93 91.0275 258.796 91.0315C258.665 91.0355 258.574 91.037 258.521 91.0362ZM262.299 87.9434C261.969 87.9534 261.724 88.0608 261.566 88.2656C261.456 88.407 261.387 88.6043 261.359 88.8576L263.09 88.8053C263.061 88.5466 262.977 88.3361 262.839 88.1736C262.698 88.0135 262.518 87.9368 262.299 87.9434ZM263.589 90.6652C263.337 90.8466 262.993 90.944 262.555 90.9572C262.001 90.9739 261.569 90.8287 261.26 90.5213C260.95 90.214 260.788 89.7975 260.772 89.2718C260.751 88.5867 260.958 88.084 261.394 87.7636C261.636 87.5897 261.91 87.4981 262.214 87.4889C262.685 87.4746 263.047 87.6232 263.299 87.9346C263.512 88.202 263.632 88.5579 263.66 89.0023L263.581 89.219L261.347 89.2865C261.364 89.6813 261.479 89.9849 261.693 90.1975C261.906 90.4077 262.185 90.5076 262.53 90.4972C262.792 90.4893 263.09 90.4101 263.423 90.2595L263.589 90.6652ZM265.31 90.4132C265.721 90.4008 265.922 90.2173 265.911 89.8629C265.905 89.6488 265.703 89.4835 265.307 89.3669L264.953 89.2561C264.701 89.1756 264.512 89.0564 264.386 88.8983C264.262 88.7377 264.196 88.5468 264.19 88.3256C264.183 88.102 264.28 87.8943 264.482 87.7025C264.683 87.5083 264.945 87.4063 265.269 87.3965C265.483 87.3901 265.674 87.4129 265.842 87.4649C266.01 87.5146 266.141 87.5738 266.233 87.6424L266.043 88.0767C265.967 88.0195 265.861 87.9668 265.724 87.9185C265.587 87.8703 265.44 87.8485 265.283 87.8533C265.128 87.858 265.002 87.9082 264.905 88.004C264.808 88.0998 264.761 88.2048 264.764 88.3189C264.768 88.4331 264.809 88.5271 264.887 88.601C264.966 88.6748 265.121 88.7486 265.355 88.8225L265.708 88.9333C265.965 89.0136 266.158 89.1233 266.286 89.2623C266.412 89.4037 266.479 89.6112 266.487 89.8848C266.495 90.1583 266.397 90.3887 266.193 90.5758C265.99 90.7629 265.707 90.8619 265.345 90.8729C265.153 90.8787 264.966 90.8641 264.787 90.829C264.61 90.7963 264.41 90.7202 264.187 90.6007L264.381 90.152C264.567 90.2559 264.725 90.3273 264.855 90.3662C264.985 90.4028 265.136 90.4185 265.31 90.4132Z" fill="black"/>
<path d="M140.468 76.3374C140.463 76.1733 140.516 76.0313 140.626 75.9116C140.737 75.7919 140.872 75.7297 141.031 75.7248C141.191 75.72 141.329 75.774 141.447 75.8868C141.564 75.9997 141.626 76.1381 141.631 76.3023C141.635 76.4664 141.583 76.6083 141.472 76.728C141.362 76.8478 141.227 76.91 141.067 76.9148C140.908 76.9197 140.769 76.8657 140.652 76.7528C140.534 76.64 140.473 76.5015 140.468 76.3374ZM148.872 77.3909C149.271 77.3788 149.652 77.227 150.015 76.9354L150.328 77.3332C150.092 77.516 149.896 77.6395 149.74 77.7035C149.492 77.8045 149.149 77.8617 148.712 77.8749C148.274 77.8881 147.884 77.7972 147.543 77.6022C147.202 77.4071 146.938 77.1287 146.751 76.767C146.565 76.403 146.464 75.9805 146.449 75.4995C146.435 75.0185 146.51 74.5918 146.674 74.2195C146.839 73.8471 147.085 73.5533 147.414 73.338C147.743 73.1227 148.131 73.0083 148.578 72.9948C149.004 72.9819 149.304 73.0048 149.477 73.0635C149.652 73.1221 149.784 73.1763 149.872 73.2261C149.96 73.2736 150.073 73.3444 150.21 73.4383L149.922 73.8543C149.542 73.5852 149.152 73.4566 148.753 73.4687L148.712 73.4699C148.457 73.4776 148.219 73.5396 147.999 73.6557C147.592 73.8688 147.315 74.2332 147.166 74.7488C147.096 74.9859 147.064 75.231 147.072 75.4841C147.079 75.7371 147.124 75.9799 147.207 76.2125C147.291 76.4427 147.405 76.648 147.547 76.8285C147.862 77.2206 148.29 77.4085 148.831 77.3921L148.872 77.3909ZM151.923 77.7779C151.448 77.7922 151.202 77.4984 151.184 76.8966L151.057 72.694L151.608 72.6773L151.734 76.8458C151.739 77.0213 151.777 77.1468 151.848 77.2222C151.921 77.2953 151.987 77.331 152.046 77.3292C152.105 77.3274 152.235 77.3144 152.435 77.2901L152.492 77.6888C152.265 77.7436 152.075 77.7732 151.923 77.7779ZM154.304 74.8103C153.987 74.8199 153.753 74.9228 153.602 75.119C153.496 75.2546 153.43 75.4437 153.403 75.6864L155.062 75.6362C155.033 75.3884 154.953 75.1866 154.821 75.0309C154.686 74.8775 154.514 74.804 154.304 74.8103ZM155.54 77.4187C155.299 77.5926 154.968 77.6858 154.549 77.6985C154.018 77.7145 153.604 77.5753 153.307 77.2808C153.011 76.9863 152.855 76.5871 152.84 76.0833C152.82 75.4267 153.019 74.945 153.436 74.638C153.669 74.4713 153.931 74.3835 154.222 74.3747C154.674 74.361 155.02 74.5034 155.262 74.8019C155.466 75.0581 155.581 75.3992 155.608 75.8251L155.532 76.0327L153.392 76.0974C153.408 76.4757 153.518 76.7667 153.723 76.9705C153.927 77.1719 154.195 77.2677 154.525 77.2577C154.776 77.2501 155.061 77.1742 155.381 77.0299L155.54 77.4187ZM157.92 76.0907C157.081 76.116 156.667 76.3373 156.68 76.7545C156.683 76.8662 156.721 76.9689 156.792 77.0625C156.866 77.1562 156.947 77.2016 157.036 77.1989L157.169 77.1949C157.671 77.1797 157.931 76.9083 157.949 76.3807L157.94 76.09L157.92 76.0907ZM156.298 74.5276C156.704 74.3716 157.038 74.2896 157.3 74.2817C157.562 74.2737 157.793 74.3318 157.993 74.4558C158.193 74.5798 158.33 74.7685 158.404 75.0218C158.445 75.1643 158.472 75.4567 158.485 75.899L158.518 76.9693C158.524 77.1699 158.545 77.3518 158.582 77.515L158.028 77.5317C157.996 77.4392 157.978 77.3336 157.974 77.2151L157.973 77.1911C157.918 77.2612 157.857 77.3224 157.791 77.3746C157.581 77.5384 157.355 77.6239 157.114 77.6312C156.708 77.6435 156.424 77.5072 156.263 77.2223C156.179 77.0811 156.134 76.9352 156.13 76.7848C156.118 76.3858 156.343 76.0904 156.805 75.8984C157.082 75.7828 157.436 75.7185 157.867 75.7055L157.928 75.7036L157.918 75.3582C157.91 75.1075 157.857 74.9379 157.759 74.8497C157.644 74.7482 157.457 74.7013 157.197 74.7092C156.937 74.7171 156.651 74.7987 156.338 74.9542L156.298 74.5276ZM159.512 77.4869L159.415 74.2793L159.966 74.2627L159.984 74.8509C160.06 74.6706 160.172 74.5143 160.319 74.3821C160.467 74.2498 160.638 74.1808 160.829 74.175C161.023 74.1692 161.182 74.1986 161.307 74.2632C161.435 74.3256 161.52 74.3937 161.564 74.4677L161.342 74.8235C161.308 74.7835 161.277 74.7502 161.246 74.7237C161.159 74.6442 161.034 74.6069 160.87 74.6119C160.706 74.6168 160.559 74.6738 160.43 74.7826C160.301 74.8938 160.2 75.0269 160.127 75.182C160.054 75.337 160.014 75.4911 160.008 75.6442L160.063 77.4703L159.512 77.4869ZM164.254 72.6477C164.693 72.55 165.059 72.4967 165.351 72.4879C165.645 72.479 165.896 72.4988 166.106 72.5472C166.317 72.5933 166.489 72.6589 166.621 72.7438C166.756 72.8287 166.868 72.9315 166.956 73.052C167.12 73.2752 167.207 73.5396 167.216 73.8451C167.229 74.2623 167.08 74.6113 166.769 74.8923C166.458 75.1709 166.047 75.3179 165.536 75.3334L164.955 75.3509L165.014 77.3206L164.395 77.3393L164.254 72.6477ZM164.885 73.0393L164.94 74.8722L165.166 74.8654C165.672 74.8501 166.033 74.765 166.25 74.6101C166.467 74.453 166.57 74.2171 166.561 73.9025C166.551 73.5857 166.451 73.3468 166.262 73.186C166.07 73.0252 165.791 72.9503 165.427 72.9613C165.231 72.9673 165.05 72.9933 164.885 73.0393ZM168.047 77.2289L167.95 74.0214L168.501 74.0048L168.519 74.5929C168.595 74.4126 168.707 74.2564 168.854 74.1242C169.003 73.9919 169.173 73.9228 169.364 73.9171C169.558 73.9112 169.718 73.9406 169.843 74.0053C169.97 74.0676 170.055 74.1358 170.099 74.2098L169.877 74.5656C169.844 74.5255 169.812 74.4922 169.781 74.4658C169.694 74.3863 169.569 74.349 169.405 74.3539C169.241 74.3589 169.094 74.4158 168.965 74.5247C168.836 74.6358 168.735 74.7689 168.662 74.924C168.589 75.0791 168.55 75.2332 168.543 75.3863L168.598 77.2123L168.047 77.2289ZM171.538 73.913L171.634 77.1205L171.084 77.1372L171 74.3673L170.433 74.3845L170.419 73.9468L171.538 73.913ZM170.819 72.6649C170.815 72.5509 170.851 72.4529 170.926 72.3707C171.004 72.2862 171.098 72.2423 171.21 72.2389C171.321 72.2356 171.417 72.2737 171.497 72.3535C171.579 72.4308 171.622 72.5265 171.626 72.6405C171.629 72.7545 171.592 72.8537 171.515 72.9382C171.44 73.0203 171.346 73.0631 171.235 73.0665C171.123 73.0698 171.026 73.0328 170.944 72.9555C170.864 72.8757 170.822 72.7789 170.819 72.6649ZM174.065 76.6672C174.331 76.6591 174.585 76.5613 174.826 76.3738L175.049 76.7367C174.873 76.8743 174.715 76.9693 174.575 77.0214C174.435 77.0735 174.223 77.1039 173.938 77.1125C173.468 77.1267 173.091 76.9864 172.806 76.6915C172.523 76.3966 172.374 75.9972 172.359 75.4934C172.344 74.9896 172.468 74.582 172.733 74.2705C172.999 73.9589 173.367 73.7961 173.837 73.7819C174.122 73.7733 174.336 73.7908 174.479 73.8344C174.621 73.878 174.785 73.9632 174.969 74.0899L174.768 74.4657C174.517 74.293 174.257 74.2107 173.991 74.2188L173.97 74.2194C173.637 74.2295 173.374 74.3572 173.181 74.6026C172.99 74.848 172.899 75.1394 172.909 75.4768C172.92 75.8142 173.027 76.0995 173.233 76.3329C173.441 76.5662 173.711 76.6779 174.044 76.6678L174.065 76.6672ZM176.448 73.7646L176.545 76.9721L175.994 76.9888L175.911 74.2189L175.343 74.2361L175.33 73.7984L176.448 73.7646ZM175.729 72.5165C175.726 72.4025 175.762 72.3045 175.837 72.2223C175.914 72.1378 176.009 72.0939 176.12 72.0905C176.232 72.0872 176.328 72.1253 176.408 72.2051C176.49 72.2824 176.533 72.3781 176.536 72.4921C176.54 72.6061 176.503 72.7053 176.425 72.7898C176.35 72.8719 176.257 72.9147 176.145 72.9181C176.034 72.9214 175.937 72.8844 175.854 72.8071C175.774 72.7273 175.733 72.6305 175.729 72.5165ZM179.779 75.1391C179.757 74.4073 179.483 74.0493 178.959 74.0652C178.825 74.0693 178.703 74.1095 178.593 74.1858C178.425 74.3004 178.296 74.4845 178.206 74.7383C178.174 74.8259 178.159 74.8948 178.161 74.945L178.221 76.9215L177.67 76.9381L177.573 73.7306L178.124 73.7139L178.141 74.3021C178.333 73.8628 178.661 73.6361 179.124 73.6221C179.311 73.6165 179.479 73.6536 179.63 73.7334C179.783 73.811 179.903 73.8963 179.99 73.9895C180.2 74.2091 180.311 74.5229 180.324 74.931L180.382 76.8562L179.831 76.8728L179.779 75.1391ZM182.543 73.9603C182.183 73.9712 181.958 74.1457 181.867 74.4839C181.843 74.5713 181.832 74.6606 181.834 74.7518C181.84 74.941 181.903 75.0943 182.023 75.2116C182.143 75.3266 182.33 75.3803 182.586 75.3726C182.946 75.3617 183.171 75.1997 183.262 74.8866C183.287 74.806 183.298 74.7258 183.296 74.646C183.291 74.4796 183.233 74.3262 183.121 74.1858C182.991 74.0278 182.798 73.9526 182.543 73.9603ZM183.615 73.9861C183.762 74.1824 183.84 74.3957 183.847 74.626C183.858 74.9999 183.728 75.3016 183.456 75.5311C183.249 75.7085 182.964 75.8027 182.599 75.8137C182.403 75.8196 182.227 75.8044 182.07 75.7681C181.939 75.8747 181.875 75.993 181.879 76.123C181.885 76.3031 182.18 76.3843 182.766 76.3665C183.441 76.3462 183.876 76.4962 184.07 76.8166C184.13 76.9152 184.162 77.0283 184.166 77.156C184.174 77.4364 184.103 77.6758 183.952 77.8744C183.662 78.255 183.16 78.4562 182.447 78.4777C182.084 78.4887 181.787 78.4247 181.554 78.2856C181.324 78.1466 181.205 77.9368 181.197 77.6564C181.188 77.3715 181.297 77.1309 181.524 76.9346C181.591 76.8778 181.673 76.8171 181.772 76.7526C181.486 76.6654 181.339 76.4964 181.332 76.2456C181.329 76.1521 181.358 76.0463 181.418 75.9281C181.478 75.8099 181.572 75.7033 181.699 75.6082C181.441 75.4334 181.302 75.1581 181.284 74.7821L181.284 74.7616C181.275 74.4675 181.359 74.1992 181.537 73.9565C181.629 73.8305 181.76 73.7284 181.931 73.6502C182.102 73.5698 182.284 73.5266 182.478 73.5207C182.674 73.5148 182.843 73.5303 182.983 73.5671L184.057 73.5346L184.07 73.9723L183.615 73.9861ZM182.301 76.8187C182.083 76.9485 181.939 77.0658 181.866 77.1707C181.781 77.2919 181.74 77.4186 181.744 77.5509C181.748 77.6831 181.791 77.7856 181.873 77.8584C182.014 77.9842 182.235 78.0426 182.536 78.0335C182.951 78.021 183.26 77.9089 183.464 77.6974C183.572 77.5846 183.624 77.4496 183.619 77.2923C183.614 77.1304 183.547 77.0149 183.417 76.9459C183.278 76.877 183.144 76.8377 183.016 76.8279C182.843 76.8149 182.692 76.8103 182.564 76.8142C182.439 76.818 182.351 76.8195 182.301 76.8187ZM140.951 92.3301C140.946 92.166 140.999 92.024 141.109 91.9043C141.22 91.7846 141.355 91.7224 141.515 91.7175C141.674 91.7127 141.813 91.7667 141.93 91.8795C142.048 91.9924 142.109 92.1308 142.114 92.295C142.119 92.4591 142.066 92.601 141.956 92.7207C141.845 92.8405 141.71 92.9027 141.551 92.9075C141.391 92.9124 141.252 92.8584 141.135 92.7455C141.017 92.6327 140.956 92.4942 140.951 92.3301ZM149.355 93.3836C149.754 93.3715 150.135 93.2197 150.498 92.9281L150.811 93.3259C150.575 93.5087 150.379 93.6322 150.223 93.6962C149.976 93.7972 149.633 93.8544 149.195 93.8676C148.757 93.8808 148.368 93.7899 148.026 93.5949C147.685 93.3998 147.421 93.1214 147.235 92.7597C147.048 92.3957 146.947 91.9732 146.933 91.4922C146.918 91.0112 146.993 90.5845 147.158 90.2122C147.322 89.8398 147.569 89.546 147.898 89.3307C148.227 89.1154 148.614 89.001 149.061 88.9875C149.487 88.9746 149.787 88.9975 149.96 89.0562C150.135 89.1148 150.267 89.169 150.355 89.2188C150.443 89.2663 150.556 89.3371 150.694 89.431L150.405 89.847C150.025 89.5779 149.635 89.4493 149.236 89.4614L149.195 89.4626C148.94 89.4703 148.702 89.5323 148.482 89.6484C148.076 89.8615 147.798 90.2259 147.649 90.7415C147.579 90.9786 147.547 91.2237 147.555 91.4768C147.563 91.7298 147.608 91.9726 147.69 92.2052C147.775 92.4354 147.888 92.6407 148.03 92.8212C148.346 93.2133 148.774 93.4012 149.314 93.3848L149.355 93.3836ZM152.406 93.7706C151.932 93.7849 151.686 93.4911 151.667 92.8893L151.54 88.6867L152.091 88.67L152.217 92.8385C152.222 93.014 152.26 93.1395 152.331 93.2149C152.404 93.288 152.47 93.3237 152.529 93.3219C152.589 93.3201 152.718 93.3071 152.918 93.2828L152.975 93.6815C152.748 93.7363 152.559 93.7659 152.406 93.7706ZM154.787 90.803C154.471 90.8126 154.236 90.9155 154.085 91.1117C153.979 91.2473 153.913 91.4364 153.886 91.6791L155.545 91.6289C155.517 91.3811 155.437 91.1793 155.304 91.0236C155.169 90.8702 154.997 90.7967 154.787 90.803ZM156.023 93.4114C155.782 93.5853 155.452 93.6785 155.032 93.6912C154.501 93.7072 154.087 93.568 153.791 93.2735C153.494 92.979 153.339 92.5798 153.323 92.076C153.304 91.4194 153.502 90.9377 153.92 90.6307C154.152 90.464 154.414 90.3762 154.706 90.3674C155.157 90.3537 155.504 90.4961 155.746 90.7946C155.95 91.0508 156.065 91.3919 156.091 91.8178L156.015 92.0254L153.875 92.0901C153.891 92.4684 154.001 92.7594 154.206 92.9632C154.41 93.1646 154.678 93.2604 155.009 93.2504C155.259 93.2428 155.545 93.1669 155.864 93.0226L156.023 93.4114ZM158.403 92.0834C157.564 92.1087 157.151 92.33 157.163 92.7472C157.167 92.8589 157.204 92.9616 157.275 93.0552C157.349 93.1489 157.43 93.1943 157.519 93.1916L157.652 93.1876C158.154 93.1724 158.414 92.901 158.432 92.3734L158.423 92.0827L158.403 92.0834ZM156.781 90.5203C157.187 90.3643 157.521 90.2823 157.783 90.2744C158.046 90.2664 158.277 90.3245 158.477 90.4485C158.677 90.5725 158.814 90.7612 158.887 91.0145C158.928 91.157 158.955 91.4494 158.969 91.8917L159.001 92.962C159.007 93.1626 159.029 93.3445 159.065 93.5077L158.511 93.5244C158.479 93.4319 158.461 93.3263 158.457 93.2078L158.457 93.1838C158.402 93.2539 158.341 93.3151 158.274 93.3673C158.064 93.5311 157.839 93.6166 157.597 93.6239C157.191 93.6362 156.908 93.4999 156.746 93.215C156.662 93.0738 156.618 92.9279 156.613 92.7775C156.601 92.3785 156.826 92.0831 157.288 91.8911C157.565 91.7755 157.919 91.7112 158.35 91.6982L158.412 91.6963L158.401 91.3509C158.394 91.1002 158.341 90.9306 158.242 90.8424C158.127 90.7409 157.94 90.694 157.68 90.7019C157.42 90.7098 157.134 90.7914 156.821 90.9469L156.781 90.5203ZM159.995 93.4796L159.899 90.272L160.449 90.2554L160.467 90.8436C160.544 90.6633 160.655 90.507 160.802 90.3748C160.951 90.2425 161.121 90.1735 161.312 90.1677C161.506 90.1619 161.666 90.1913 161.791 90.2559C161.918 90.3183 162.004 90.3864 162.047 90.4604L161.825 90.8162C161.792 90.7762 161.76 90.7429 161.729 90.7164C161.643 90.6369 161.517 90.5996 161.353 90.6046C161.189 90.6095 161.042 90.6665 160.913 90.7753C160.784 90.8865 160.683 91.0196 160.61 91.1747C160.537 91.3297 160.498 91.4838 160.491 91.6369L160.546 93.4629L159.995 93.4796ZM165.431 91.1111L165.483 92.8346L167.583 92.7711L167.597 93.2499L164.879 93.332L164.735 88.5754L167.453 88.4933L167.468 88.9686L165.368 89.032L165.417 90.6324L166.846 90.5892L166.86 91.0679L165.431 91.1111ZM168.061 90.0254L168.697 90.0061L169.536 91.165L170.335 89.9669L170.924 89.9491L169.822 91.5603L170.969 93.148L170.333 93.1672L169.497 92.0116L168.695 93.2167L168.107 93.2345L169.211 91.6164L168.061 90.0254ZM172.293 92.5808C172.479 92.6756 172.666 92.7202 172.855 92.7144C173.179 92.7047 173.452 92.5743 173.675 92.3234C173.909 92.0631 174.021 91.7551 174.01 91.3995C173.999 91.0416 173.906 90.7591 173.731 90.5522C173.554 90.3454 173.341 90.2457 173.092 90.2532C172.924 90.2583 172.765 90.3213 172.616 90.4422C172.466 90.5608 172.342 90.7106 172.242 90.8916L172.293 92.5808ZM173.13 89.8106C173.395 89.8026 173.636 89.8683 173.855 90.0077C174.074 90.1471 174.244 90.3325 174.365 90.5639C174.486 90.793 174.55 91.0409 174.558 91.3076C174.574 91.8388 174.432 92.2755 174.132 92.6177C173.835 92.9575 173.457 93.1344 172.999 93.1482C172.807 93.154 172.577 93.1245 172.308 93.0596L172.36 94.7899L171.796 94.8069L171.648 89.917L172.212 89.8999L172.224 90.2761C172.473 89.9765 172.775 89.8213 173.13 89.8106ZM176.447 90.1484C176.13 90.158 175.896 90.2609 175.744 90.4572C175.639 90.5927 175.573 90.7818 175.546 91.0245L177.204 90.9744C177.176 90.7265 177.096 90.5247 176.964 90.369C176.829 90.2156 176.657 90.1421 176.447 90.1484ZM177.683 92.7568C177.441 92.9307 177.111 93.0239 176.692 93.0366C176.16 93.0527 175.747 92.9134 175.45 92.6189C175.154 92.3244 174.998 91.9252 174.983 91.4214C174.963 90.7649 175.162 90.2831 175.579 89.9761C175.811 89.8094 176.073 89.7216 176.365 89.7128C176.817 89.6991 177.163 89.8416 177.405 90.14C177.609 90.3962 177.724 90.7373 177.751 91.1632L177.675 91.3709L175.534 91.4355C175.55 91.8138 175.661 92.1049 175.865 92.3086C176.07 92.5101 176.337 92.6058 176.668 92.5958C176.919 92.5882 177.204 92.5123 177.524 92.368L177.683 92.7568ZM179.903 92.498C180.17 92.49 180.423 92.3922 180.664 92.2046L180.887 92.5675C180.711 92.7052 180.553 92.8001 180.413 92.8523C180.273 92.9044 180.061 92.9348 179.776 92.9434C179.306 92.9576 178.929 92.8173 178.644 92.5224C178.361 92.2275 178.212 91.8281 178.197 91.3243C178.182 90.8205 178.307 90.4128 178.571 90.1013C178.838 89.7898 179.206 89.6269 179.675 89.6127C179.96 89.6041 180.174 89.6216 180.317 89.6652C180.46 89.7088 180.623 89.794 180.807 89.9208L180.606 90.2965C180.355 90.1239 180.096 90.0416 179.829 90.0496L179.808 90.0503C179.476 90.0603 179.212 90.1881 179.019 90.4335C178.828 90.6789 178.738 90.9702 178.748 91.3076C178.758 91.645 178.866 91.9304 179.071 92.1638C179.279 92.3971 179.55 92.5087 179.882 92.4987L179.903 92.498ZM182.484 92.8615C181.942 92.8779 181.661 92.5852 181.643 91.9834L181.585 90.0548L181.017 90.0719L181.004 89.6342L181.572 89.617L181.552 88.9673L182.096 88.7455L182.122 89.6004L182.905 89.5767L182.919 90.0144L182.135 90.0381L182.193 91.9325C182.198 92.1081 182.246 92.2333 182.338 92.3081C182.429 92.3806 182.529 92.4152 182.638 92.4119C182.85 92.4055 183.015 92.3823 183.133 92.3422L183.213 92.7266C183.005 92.8082 182.762 92.8531 182.484 92.8615ZM185.39 91.2678C184.551 91.2931 184.138 91.5144 184.15 91.9316C184.154 92.0433 184.191 92.146 184.262 92.2396C184.336 92.3333 184.417 92.3787 184.506 92.376L184.64 92.372C185.141 92.3568 185.401 92.0854 185.419 91.5578L185.41 91.2671L185.39 91.2678ZM183.768 89.7047C184.174 89.5487 184.508 89.4667 184.771 89.4588C185.033 89.4508 185.264 89.5089 185.464 89.6329C185.664 89.7569 185.801 89.9456 185.874 90.1989C185.915 90.3414 185.942 90.6338 185.956 91.0761L185.988 92.1464C185.994 92.347 186.016 92.5289 186.053 92.6921L185.499 92.7088C185.466 92.6163 185.448 92.5107 185.444 92.3922L185.444 92.3682C185.389 92.4383 185.328 92.4995 185.261 92.5517C185.052 92.7155 184.826 92.801 184.584 92.8084C184.178 92.8206 183.895 92.6843 183.733 92.3994C183.649 92.2582 183.605 92.1123 183.6 91.9619C183.588 91.5629 183.813 91.2675 184.275 91.0755C184.552 90.9599 184.906 90.8956 185.337 90.8826L185.399 90.8807L185.388 90.5354C185.381 90.2846 185.328 90.1151 185.229 90.0268C185.114 89.9253 184.927 89.8785 184.667 89.8863C184.407 89.8942 184.121 89.9758 183.809 90.1313L183.768 89.7047ZM187.833 92.6999C187.29 92.7163 187.01 92.4236 186.991 91.8217L186.933 89.8931L186.365 89.9103L186.352 89.4726L186.92 89.4554L186.9 88.8057L187.445 88.5839L187.47 89.4388L188.254 89.4151L188.267 89.8528L187.484 89.8765L187.541 91.7709C187.546 91.9465 187.594 92.0716 187.686 92.1465C187.777 92.219 187.877 92.2536 187.987 92.2503C188.199 92.2439 188.363 92.2207 188.481 92.1806L188.561 92.565C188.353 92.6465 188.111 92.6915 187.833 92.6999ZM189.926 89.3646L190.023 92.5721L189.472 92.5888L189.388 89.8189L188.821 89.8361L188.807 89.3984L189.926 89.3646ZM189.207 88.1165C189.203 88.0025 189.239 87.9044 189.314 87.8223C189.392 87.7378 189.486 87.6939 189.598 87.6905C189.71 87.6872 189.805 87.7253 189.885 87.8051C189.968 87.8824 190.01 87.9781 190.014 88.0921C190.017 88.2061 189.98 88.3053 189.903 88.3898C189.828 88.4719 189.735 88.5147 189.623 88.5181C189.511 88.5214 189.414 88.4844 189.332 88.4071C189.252 88.3273 189.21 88.2305 189.207 88.1165ZM191.298 90.9284C191.304 91.1495 191.337 91.3424 191.397 91.5072C191.459 91.6696 191.538 91.795 191.634 91.8834C191.733 91.9694 191.837 92.0324 191.948 92.0724C192.061 92.1101 192.18 92.127 192.306 92.1232C192.561 92.1155 192.778 92.0211 192.958 91.84C193.155 91.64 193.246 91.3167 193.233 90.8699C193.22 90.4253 193.108 90.1069 192.899 89.9147C192.707 89.7471 192.485 89.6672 192.232 89.6748C191.974 89.6826 191.757 89.7759 191.58 89.9546C191.378 90.1592 191.284 90.4838 191.298 90.9284ZM190.747 90.945C190.726 90.2542 190.934 89.7665 191.37 89.4818C191.612 89.3262 191.895 89.2435 192.218 89.2337C192.54 89.224 192.828 89.2894 193.083 89.43C193.218 89.5081 193.336 89.6072 193.438 89.7273C193.658 89.9991 193.776 90.3743 193.79 90.853C193.811 91.546 193.605 92.0326 193.17 92.3127C192.929 92.4706 192.645 92.5545 192.319 92.5643C191.991 92.5742 191.703 92.5076 191.457 92.3645C191.32 92.2887 191.201 92.1897 191.099 92.0673C190.879 91.8024 190.762 91.4283 190.747 90.945ZM196.717 90.6345C196.695 89.9027 196.422 89.5448 195.897 89.5606C195.763 89.5647 195.641 89.6049 195.531 89.6812C195.364 89.7958 195.235 89.9799 195.144 90.2337C195.113 90.3213 195.098 90.3902 195.099 90.4404L195.159 92.4169L194.608 92.4335L194.511 89.226L195.062 89.2094L195.08 89.7975C195.272 89.3582 195.599 89.1315 196.062 89.1175C196.249 89.1119 196.418 89.149 196.568 89.2289C196.721 89.3064 196.841 89.3917 196.929 89.4849C197.138 89.7045 197.249 90.0183 197.262 90.4264L197.32 92.3516L196.769 92.3682L196.717 90.6345Z" fill="black"/>
<path d="M55.3909 146.133C55.3705 146.105 55.403 146.066 55.4307 146.088C59.3475 149.208 70.3209 154.923 82.6815 153.233C82.6231 154.188 82.6279 155.595 82.7541 157.148C76.5112 157.411 62.0066 155.44 55.3909 146.133Z" fill="black"/>
<path d="M107.066 77.9282C109.699 86.914 103.14 89.6303 99.051 89.7539C98.1017 88.1982 94.7414 85.4645 88.8946 86.9758C81.7596 88.8201 68.3505 90.524 57.3488 90.5658C56.8749 90.5676 56.4588 90.8779 56.316 91.3299C55.1368 95.0622 53.0135 100.587 52.8627 110.193C52.8113 113.469 52.3449 118.777 52.515 122.142C52.529 122.42 52.3146 122.657 52.0369 122.665L47.6079 122.799C47.3865 122.806 47.1889 122.663 47.1424 122.446C46.9648 121.619 46.7275 119.957 46.4387 117.433C46.3819 116.937 46.2766 116.444 46.0569 115.996C44.5249 112.87 40.2804 109.182 35.183 112.616C34.5274 113.058 33.9778 113.609 33.5291 114.244C32.6278 110.343 30.9217 101.891 30.2916 98.6621C18.0385 96.2939 19.9555 85.9326 22.2919 82.0008C18.5782 74.9363 21.3057 72.1259 23.1122 71.4942C22.6491 67.0007 24.9729 65.363 26.1928 65.1058C27.1811 61.1476 30.8793 59.7809 32.6048 59.5924C34.9279 51.0549 46.419 49.0394 52.5397 51.5929C52.5397 51.5929 56.8628 45.702 63.6309 44.6792C73.2191 43.2303 78.558 48.0369 78.558 48.0369C78.558 48.0369 80.5192 45.2297 86.6794 45.9658C90.9178 46.4722 95.6502 52.2104 95.6502 52.2104C95.6502 52.2104 101.11 49.5587 105.105 54.6946C109.101 59.8305 107.537 64.316 107.537 64.316C112.841 69.8467 109.415 75.8007 107.066 77.9282Z" fill="black"/>
<path fill-rule="evenodd" clip-rule="evenodd" d="M88.8946 86.9758C94.7414 85.4645 98.1017 88.1982 99.051 89.7539C100.016 93.5753 102.211 102.672 102.445 110.408C102.614 115.988 103.625 125.355 101.966 134.125C100.738 140.614 95.2205 151.52 82.6815 153.233C70.3209 154.923 59.3475 149.208 55.4307 146.088C55.403 146.066 55.3705 146.105 55.3909 146.133C62.0066 155.44 76.5112 157.411 82.7541 157.148C82.861 158.464 83.055 159.884 83.3714 161.222C83.7125 162.663 84.4586 164.388 85.1303 165.405C84.4972 168.818 82.8506 172.331 80.7637 174.138C70.2429 171.297 54.8493 165.459 44.9596 155.935C45.27 150.384 43.9724 137.164 43.398 131.348C34.0453 133.623 29.2899 120.239 33.5291 114.244C33.9778 113.609 34.5274 113.058 35.183 112.616C40.2804 109.182 44.5249 112.87 46.0569 115.996C46.2766 116.444 46.3819 116.937 46.4387 117.433C46.7275 119.957 46.9648 121.619 47.1424 122.446C47.1889 122.663 47.3865 122.806 47.6079 122.799L52.0369 122.665C52.3146 122.657 52.529 122.42 52.515 122.142C52.3449 118.777 52.8113 113.469 52.8627 110.193C53.0135 100.587 55.1368 95.0622 56.316 91.3299C56.4588 90.8779 56.8749 90.5676 57.3488 90.5658C68.3505 90.524 81.7596 88.8201 88.8946 86.9758ZM65.6635 132.767C65.1903 131.278 66.9695 130.812 68.4854 131.188C75.2382 132.864 84.3494 132.247 88.7927 131.612C89.0651 131.573 89.3473 131.571 89.5934 131.694C90.3949 132.094 91.0926 133.191 89.3189 135.388C86.7399 138.582 84.445 140.761 77.3511 140.377C73.4159 140.164 67.5766 138.784 65.6635 132.767Z" fill="#B5602A"/>
<path d="M89.5934 131.694C89.3473 131.571 89.0651 131.573 88.7927 131.612C84.3494 132.247 75.2382 132.864 68.4854 131.188C66.9695 130.812 65.1903 131.278 65.6635 132.767C67.5766 138.784 73.4159 140.164 77.3511 140.377C84.445 140.761 86.7399 138.582 89.3189 135.388C91.0926 133.191 90.3949 132.094 89.5934 131.694Z" fill="white"/>
<path d="M80.7637 174.138C84.7958 177.477 88.6684 189.664 90.0966 194.635C90.1302 194.751 90.2785 194.779 90.3564 194.685C96.3849 187.458 99.0653 176.651 100.642 169.468L130.22 185.368C131.721 186.174 132.815 187.573 133.237 189.223L146.672 241.701L123.718 242.395L115.601 242.64L82.4864 243.641L80.7637 174.138Z" fill="#1E3A8A"/>
<path fill-rule="evenodd" clip-rule="evenodd" d="M80.7637 174.138L82.4864 243.641L27.4522 245.304L-13.3675 246.538L-4.40296 193.488C-4.10995 191.754 -3.08203 190.231 -1.58346 189.311L31.9679 168.71C39.1946 177.482 59.9397 190.118 69.5098 195.434C69.5944 195.481 69.6955 195.436 69.7243 195.344C72.3651 186.87 78.2389 177.131 80.7637 174.138ZM79.2114 209.224C79.163 207.904 78.1003 206.868 76.7796 206.873C75.4242 206.879 74.3362 208.015 74.3684 209.37C74.4008 210.734 75.565 211.824 76.9269 211.748C78.2544 211.673 79.2602 210.552 79.2114 209.224ZM80.9525 232.464C80.9041 231.144 79.8414 230.108 78.5207 230.114C77.1653 230.119 76.0773 231.255 76.1095 232.61C76.1419 233.974 77.3061 235.065 78.668 234.988C79.9955 234.913 81.0013 233.792 80.9525 232.464Z" fill="#1E3A8A"/>
<path d="M31.9679 168.71C35.0084 163.735 40.9836 158.156 44.0985 155.743C44.3135 155.577 44.6155 155.601 44.8104 155.79C44.86 155.838 44.9097 155.886 44.9596 155.935C54.8493 165.459 70.2429 171.297 80.7637 174.138C78.2389 177.131 72.3651 186.87 69.7243 195.344C69.6955 195.436 69.5944 195.481 69.5098 195.434C59.9397 190.118 39.1946 177.482 31.9679 168.71Z" fill="#AFD1FA"/>
<path d="M90.3564 194.685C90.2785 194.779 90.1302 194.751 90.0966 194.635C88.6684 189.664 84.7958 177.477 80.7637 174.138C82.8506 172.331 84.4972 168.818 85.1303 165.405C85.3346 164.304 85.4334 163.213 85.4074 162.194L100.642 169.468C99.0653 176.651 96.3849 187.458 90.3564 194.685Z" fill="#AFD1FA"/>
<path d="M76.7796 206.873C78.1003 206.868 79.163 207.904 79.2114 209.224C79.2602 210.552 78.2544 211.673 76.9269 211.748C75.565 211.824 74.4008 210.734 74.3684 209.37C74.3362 208.015 75.4242 206.879 76.7796 206.873Z" fill="#AFD1FA"/>
<path d="M78.5207 230.114C79.8414 230.108 80.9041 231.144 80.9525 232.464C81.0013 233.792 79.9955 234.913 78.668 234.988C77.3061 235.065 76.1419 233.974 76.1095 232.61C76.0773 231.255 77.1653 230.119 78.5207 230.114Z" fill="#AFD1FA"/>
<path d="M85.1303 165.405C84.4586 164.388 83.7125 162.663 83.3714 161.222L85.4074 162.194C85.4334 163.213 85.3346 164.304 85.1303 165.405Z" fill="#7E97B5"/>
<path d="M99.051 89.7539C103.14 89.6303 109.699 86.914 107.066 77.9282C109.415 75.8007 112.841 69.8467 107.537 64.316C107.537 64.316 109.101 59.8305 105.105 54.6946C101.11 49.5587 95.6502 52.2104 95.6502 52.2104C95.6502 52.2104 90.9177 46.4722 86.6794 45.9658C80.5192 45.2297 78.558 48.0369 78.558 48.0369C78.558 48.0369 73.2191 43.2303 63.6309 44.6792C56.8629 45.702 52.5397 51.5929 52.5397 51.5929C46.419 49.0394 34.9279 51.0549 32.6048 59.5924C30.8793 59.7809 27.1811 61.1476 26.1928 65.1058C24.9729 65.363 22.6491 67.0007 23.1122 71.4942C21.3057 72.1259 18.5781 74.9363 22.2919 82.0008C19.9555 85.9326 18.0385 96.2939 30.2916 98.6621C30.9217 101.891 32.6278 110.343 33.5291 114.244M99.051 89.7539C98.1017 88.1982 94.7414 85.4645 88.8946 86.9758C81.7596 88.8201 68.3505 90.524 57.3488 90.5658C56.8749 90.5676 56.4588 90.8779 56.316 91.3299C55.1368 95.0622 53.0135 100.587 52.8627 110.193C52.8113 113.469 52.3449 118.777 52.515 122.142C52.529 122.42 52.3146 122.657 52.0369 122.665L47.608 122.799C47.3865 122.806 47.1889 122.663 47.1424 122.446C46.9648 121.619 46.7275 119.957 46.4387 117.433C46.3819 116.937 46.2766 116.444 46.0569 115.996C44.5249 112.87 40.2804 109.182 35.183 112.616C34.5274 113.058 33.9779 113.609 33.5291 114.244M99.051 89.7539C100.016 93.5753 102.211 102.672 102.445 110.408C102.614 115.988 103.625 125.355 101.966 134.125C100.738 140.614 95.2205 151.52 82.6815 153.233M33.542 114.3C33.5377 114.281 33.5334 114.263 33.5291 114.244M82.6815 153.233C70.3209 154.923 59.3475 149.208 55.4307 146.088C55.403 146.066 55.3705 146.105 55.3909 146.133C62.0067 155.44 76.5112 157.411 82.7541 157.148M82.6815 153.233C82.6231 154.188 82.6279 155.595 82.7541 157.148M85.1386 165.417C85.1358 165.413 85.1331 165.409 85.1303 165.405M44.9595 155.936L44.9596 155.935M80.7637 174.138C84.7958 177.477 88.6684 189.664 90.0966 194.635C90.1302 194.751 90.2785 194.779 90.3564 194.685C96.3849 187.458 99.0653 176.651 100.642 169.468M80.7637 174.138L82.4864 243.641M80.7637 174.138C78.2389 177.131 72.3651 186.87 69.7243 195.344C69.6955 195.436 69.5944 195.481 69.5098 195.434C59.9397 190.118 39.1946 177.482 31.9679 168.71M80.7637 174.138C82.8506 172.331 84.4972 168.818 85.1303 165.405M80.7637 174.138C70.2429 171.297 54.8493 165.459 44.9596 155.935M31.9679 168.71C35.0084 163.735 40.9836 158.156 44.0985 155.743C44.3135 155.577 44.6155 155.601 44.8104 155.79C44.86 155.838 44.9097 155.886 44.9596 155.935M31.9679 168.71L-1.58346 189.311C-3.08204 190.231 -4.10995 191.754 -4.40296 193.488L-13.3675 246.538L27.4522 245.304M85.4058 162.136C85.4063 162.155 85.4069 162.174 85.4074 162.194M82.4864 243.641L27.4522 245.304M82.4864 243.641L115.601 242.64M100.642 169.468L130.22 185.368C131.721 186.174 132.815 187.573 133.237 189.223L146.672 241.701L123.718 242.395M100.642 169.468L85.4074 162.194M115.601 242.64L27.4522 245.304M115.601 242.64L123.718 242.395M27.4522 245.304L26.4163 211.026M121.767 208.144L123.718 242.395M123.779 243.463L123.718 242.395M83.3714 161.222C83.055 159.884 82.861 158.464 82.7541 157.148M83.3714 161.222C83.7125 162.663 84.4586 164.388 85.1303 165.405M83.3714 161.222L85.4074 162.194M33.5291 114.244C29.2899 120.239 34.0453 133.623 43.398 131.348C43.9724 137.164 45.27 150.384 44.9596 155.935M85.1303 165.405C85.3346 164.304 85.4334 163.213 85.4074 162.194M76.7796 206.873C78.1003 206.868 79.163 207.904 79.2114 209.224C79.2602 210.552 78.2544 211.673 76.9269 211.748C75.565 211.824 74.4008 210.734 74.3684 209.37C74.3362 208.015 75.4242 206.879 76.7796 206.873ZM78.5207 230.114C79.8414 230.108 80.9041 231.144 80.9525 232.464C81.0012 233.792 79.9955 234.913 78.668 234.988C77.3061 235.065 76.1419 233.974 76.1095 232.61C76.0773 231.255 77.1653 230.119 78.5207 230.114ZM89.3189 135.388C91.0926 133.191 90.3949 132.094 89.5934 131.694C89.3473 131.571 89.0651 131.573 88.7927 131.612C84.3494 132.247 75.2382 132.864 68.4854 131.188C66.9695 130.812 65.1903 131.278 65.6635 132.767V132.767C67.5766 138.784 73.4159 140.164 77.3511 140.377C84.445 140.761 86.7399 138.582 89.3189 135.388Z" stroke="black" stroke-width="0.21324"/>
<path d="M98.1126 103.091C98.1126 103.091 96.3521 101.241 93.9778 100.635C91.8705 100.098 87.571 101.112 87.571 101.112M74.0453 102.465C74.0453 102.465 69.4976 101.038 66.5951 101.746C63.9766 102.384 60.6559 105.199 60.6559 105.199" stroke="black" stroke-width="0.913884" stroke-linecap="round"/>
<path d="M92.9218 109.798C94.378 109.743 94.7692 111.558 94.8132 113.014C94.8572 114.471 94.5763 116.306 93.1195 116.339C91.6686 116.372 91.3034 114.572 91.2596 113.122C91.2157 111.671 91.4715 109.852 92.9218 109.798Z" fill="black" stroke="black" stroke-width="0.21324"/>
<path d="M69.5845 111.448C71.0407 111.393 71.4319 113.207 71.4759 114.664C71.5199 116.12 71.239 117.956 69.7822 117.989C68.3313 118.022 67.9661 116.222 67.9223 114.771C67.8785 113.321 68.1343 111.502 69.5845 111.448Z" fill="black"/>
<path d="M82.5456 113.291C85.8166 116.329 91.4845 121.614 89 124.805C87.9711 126.127 84.5565 127.552 79.8665 125.679M69.5845 111.448C71.0407 111.393 71.4319 113.207 71.4759 114.664C71.52 116.12 71.239 117.956 69.7822 117.989C68.3313 118.022 67.9661 116.222 67.9223 114.771C67.8785 113.321 68.1343 111.502 69.5845 111.448Z" stroke="black" stroke-width="0.21324"/>
<path d="M36.7548 123.108C36.7548 123.108 37.3815 120.577 38.7172 119.468C39.6953 118.656 41.7931 117.882 41.7931 117.882" stroke="black" stroke-width="0.304628" stroke-linecap="round"/>
<path d="M96.3166 212.834C96.4232 212.925 96.5713 212.965 96.7589 212.956C96.9134 212.949 97.0383 212.912 97.1335 212.846C97.2287 212.78 97.2687 212.679 97.2544 212.545C97.2484 212.481 97.2014 212.416 97.1125 212.351C97.0237 212.286 96.8768 212.249 96.6707 212.24C96.3153 212.223 96.0568 212.134 95.895 211.971C95.7322 211.809 95.6458 211.611 95.6345 211.379C95.6271 211.225 95.6571 211.079 95.7225 210.941C95.7889 210.802 95.8954 210.688 96.041 210.596C96.1866 210.504 96.3692 210.454 96.5879 210.443C96.8183 210.432 97.0168 210.469 97.1837 210.555C97.3506 210.642 97.4798 210.756 97.5696 210.901C97.6594 211.046 97.7106 211.199 97.7243 211.361L97.2072 211.386C97.1896 211.263 97.1318 211.156 97.0338 211.063C96.9349 210.971 96.8159 210.929 96.676 210.935C96.536 210.942 96.4124 210.985 96.315 211.065C96.2175 211.145 96.1712 211.235 96.1762 211.339C96.1818 211.454 96.2347 211.542 96.336 211.601C96.4372 211.661 96.5762 211.694 96.7538 211.699C97.1315 211.715 97.4022 211.793 97.5689 211.935C97.7345 212.077 97.8232 212.26 97.8339 212.481C97.8415 212.638 97.8097 212.788 97.7377 212.93C97.6657 213.073 97.5496 213.191 97.3875 213.284C97.2264 213.378 97.0224 213.431 96.7755 213.442C96.5452 213.454 96.3456 213.416 96.1759 213.33C96.0061 213.244 95.873 213.13 95.7773 212.985C95.6817 212.841 95.6255 212.685 95.6096 212.517L96.1228 212.492C96.1459 212.628 96.2118 212.742 96.3184 212.832L96.3166 212.834Z" fill="#FEBC23"/>
<path d="M97.9458 211.348L98.2996 211.331L98.3479 211.544C98.5239 211.336 98.7251 211.227 98.9516 211.216C99.1675 211.209 99.3561 211.261 99.5183 211.372C99.6805 211.483 99.7663 211.667 99.7787 211.922L99.843 213.255L99.3386 213.28L99.2855 212.098C99.2799 211.983 99.2423 211.89 99.1725 211.817C99.1028 211.745 99.0125 211.711 98.8998 211.716C98.787 211.722 98.6898 211.765 98.6147 211.846C98.5397 211.927 98.5054 212.024 98.5108 212.135L98.5642 213.322L98.0598 213.346L97.9468 211.349L97.9458 211.348Z" fill="#FEBC23"/>
<path d="M100.528 213.131C100.361 213.044 100.226 212.922 100.124 212.765C100.022 212.607 99.967 212.432 99.9578 212.242C99.9486 212.051 99.9865 211.868 100.073 211.701C100.159 211.534 100.281 211.399 100.439 211.297C100.597 211.195 100.774 211.14 100.967 211.131C101.093 211.125 101.214 211.14 101.33 211.176C101.445 211.213 101.551 211.267 101.647 211.338L101.639 211.174L102.085 211.153L102.159 212.67C102.161 212.718 102.166 212.75 102.174 212.767C102.182 212.783 102.195 212.792 102.213 212.794C102.232 212.796 102.269 212.796 102.325 212.793L102.341 213.113C102.31 213.128 102.231 213.139 102.102 213.146C102.023 213.149 101.955 213.133 101.897 213.096C101.838 213.059 101.793 213.009 101.759 212.947C101.665 213.036 101.559 213.106 101.443 213.158C101.326 213.21 101.201 213.239 101.07 213.245C100.877 213.254 100.696 213.216 100.529 213.13L100.528 213.131ZM101.302 212.71C101.386 212.665 101.455 212.597 101.51 212.506C101.565 212.415 101.588 212.301 101.582 212.164C101.575 212.027 101.541 211.914 101.477 211.827C101.413 211.74 101.337 211.679 101.249 211.642C101.16 211.605 101.074 211.589 100.989 211.593C100.905 211.597 100.816 211.622 100.732 211.667C100.647 211.712 100.577 211.781 100.523 211.873C100.468 211.965 100.444 212.08 100.451 212.218C100.457 212.356 100.492 212.466 100.555 212.552C100.619 212.638 100.695 212.698 100.783 212.735C100.872 212.771 100.96 212.788 101.047 212.783C101.133 212.779 101.219 212.755 101.302 212.71Z" fill="#FEBC23"/>
<path d="M103.986 211.139C104.153 211.222 104.287 211.341 104.389 211.496C104.491 211.651 104.547 211.825 104.556 212.015C104.565 212.206 104.527 212.389 104.441 212.556C104.354 212.723 104.232 212.858 104.074 212.96C103.917 213.062 103.74 213.117 103.547 213.126C103.316 213.137 103.109 213.081 102.923 212.959L102.983 214.212L102.524 214.234L102.373 211.101L102.832 211.079L102.841 211.259C103.019 211.115 103.221 211.038 103.445 211.028C103.639 211.018 103.819 211.055 103.986 211.139ZM103.211 211.547C103.128 211.592 103.059 211.66 103.004 211.751C102.949 211.842 102.925 211.956 102.932 212.093C102.938 212.23 102.973 212.343 103.037 212.43C103.1 212.517 103.176 212.578 103.265 212.615C103.353 212.652 103.44 212.668 103.524 212.664C103.609 212.66 103.697 212.635 103.782 212.59C103.866 212.545 103.936 212.476 103.991 212.384C104.046 212.292 104.07 212.177 104.063 212.039C104.056 211.901 104.022 211.79 103.958 211.705C103.895 211.619 103.819 211.559 103.73 211.522C103.642 211.486 103.553 211.469 103.467 211.474C103.38 211.478 103.295 211.502 103.211 211.547Z" fill="#FEBC23"/>
<path d="M105.224 210.997L105.285 212.183C105.29 212.296 105.334 212.389 105.416 212.461C105.498 212.534 105.597 212.569 105.712 212.563C105.828 212.558 105.922 212.514 105.997 212.433C106.072 212.353 106.107 212.256 106.101 212.144L106.04 210.963L106.049 210.962L106.049 210.958L106.553 210.934L106.614 212.12C106.62 212.233 106.663 212.325 106.746 212.398C106.828 212.471 106.926 212.505 107.042 212.5C107.158 212.494 107.252 212.451 107.327 212.37C107.402 212.29 107.436 212.193 107.431 212.081L107.37 210.899L107.874 210.875L107.939 212.208C107.947 212.382 107.91 212.526 107.827 212.641C107.744 212.756 107.636 212.841 107.502 212.897C107.369 212.953 107.229 212.985 107.083 212.992C106.96 212.998 106.839 212.985 106.721 212.955C106.603 212.924 106.499 212.876 106.408 212.809C106.327 212.886 106.229 212.945 106.113 212.986C105.997 213.027 105.877 213.05 105.754 213.056C105.596 213.063 105.445 213.041 105.299 212.987C105.153 212.934 105.034 212.855 104.94 212.749C104.846 212.645 104.796 212.521 104.789 212.377L104.72 211.022L105.225 210.998L105.224 210.997Z" fill="#FEBC23"/>
<path d="M108.661 212.769C108.494 212.682 108.36 212.56 108.258 212.402C108.156 212.245 108.101 212.07 108.091 211.88C108.082 211.689 108.12 211.506 108.206 211.338C108.293 211.172 108.415 211.037 108.573 210.935C108.731 210.833 108.907 210.778 109.101 210.768C109.294 210.759 109.47 210.797 109.637 210.884C109.804 210.97 109.938 211.092 110.041 211.25C110.143 211.408 110.198 211.584 110.207 211.777C110.217 211.971 110.178 212.147 110.092 212.314C110.005 212.481 109.883 212.615 109.726 212.717C109.568 212.819 109.393 212.874 109.203 212.884C109.012 212.893 108.829 212.855 108.661 212.769ZM109.436 212.347C109.519 212.302 109.588 212.235 109.643 212.144C109.698 212.052 109.722 211.938 109.715 211.801C109.709 211.664 109.674 211.552 109.611 211.464C109.547 211.378 109.471 211.316 109.382 211.28C109.294 211.243 109.207 211.227 109.123 211.231C109.038 211.235 108.95 211.26 108.865 211.305C108.781 211.35 108.711 211.418 108.656 211.51C108.601 211.603 108.577 211.718 108.584 211.856C108.591 211.994 108.625 212.105 108.689 212.19C108.752 212.275 108.828 212.336 108.917 212.372C109.005 212.409 109.094 212.425 109.18 212.421C109.267 212.417 109.352 212.392 109.436 212.347Z" fill="#FEBC23"/>
<path d="M110.956 211.247C110.874 211.327 110.837 211.433 110.843 211.564L110.89 212.726L110.389 212.746L110.297 210.757L110.705 210.734L110.728 210.935C110.924 210.735 111.151 210.632 111.413 210.628L111.436 211.099C111.198 211.12 111.038 211.169 110.956 211.249L110.956 211.247Z" fill="#FEBC23"/>
<path d="M112 209.781L112.068 211.198L112.392 211.183L113.006 210.618L113.623 210.579L112.737 211.431L113.742 212.584L113.194 212.611L112.344 211.678L112.091 211.69L112.138 212.662L111.671 212.684L111.532 209.803L112 209.781Z" fill="#FEBC23"/>
<path d="M113.778 208.996C113.713 208.937 113.609 208.964 113.58 209.046L113.288 209.831C113.261 209.895 113.293 209.968 113.358 209.992C113.422 210.016 113.494 209.98 113.516 209.915L113.809 209.131C113.827 209.084 113.815 209.031 113.778 208.996Z" fill="#FEBC23"/>
<path d="M114.572 209.553C114.522 209.508 114.444 209.513 114.399 209.563L113.846 210.16C113.795 210.21 113.796 210.29 113.848 210.338C113.9 210.386 113.981 210.38 114.026 210.326L114.579 209.728C114.627 209.678 114.623 209.6 114.573 209.554L114.572 209.553Z" fill="#FEBC23"/>
<path d="M112.806 208.911C112.726 208.836 112.595 208.897 112.601 209.006L112.631 209.816C112.631 209.885 112.688 209.94 112.757 209.937C112.826 209.934 112.879 209.876 112.875 209.807L112.846 208.997C112.846 208.964 112.832 208.933 112.806 208.911Z" fill="#FEBC23"/>
<path d="M94.7831 212.172C94.8461 213.477 93.8394 214.586 92.5345 214.649C91.2297 214.712 90.1209 213.705 90.0579 212.4C89.9949 211.096 91.0016 209.987 92.3065 209.924C93.6113 209.861 94.7201 210.867 94.7831 212.172Z" fill="#FEBC23"/>
<path d="M94.7831 212.172C94.846 213.477 93.8393 214.586 92.5345 214.649C91.2297 214.712 90.1209 213.705 90.0579 212.4C89.9949 211.095 91.0016 209.987 92.3064 209.924C93.6113 209.861 94.7201 210.867 94.7831 212.172Z" fill="#FEBC23"/>
<path d="M92.4516 211.361C92.4647 211.351 92.478 211.346 92.4907 211.351C92.4928 211.352 92.5021 211.365 92.5069 211.414C92.5108 211.455 92.5109 211.508 92.5106 211.563C92.5104 211.647 92.5103 211.734 92.5243 211.806C92.5501 211.939 92.6587 212.127 92.7462 212.279C92.7753 212.329 92.8027 212.376 92.8234 212.416C92.9027 212.566 93.0636 212.765 93.2255 212.956C93.3542 213.109 93.4314 213.476 93.4645 213.633L93.4671 213.645C93.4946 213.776 93.6576 213.978 93.7768 214.125L93.7764 214.127C93.8016 214.158 93.8242 214.185 93.8417 214.208C93.8356 214.232 93.8205 214.279 93.7865 214.337C93.7057 214.475 93.5835 214.566 93.4947 214.618C93.334 214.713 93.198 214.739 93.1122 214.743L93.1088 214.743C93.0442 214.746 92.9984 214.739 92.9769 214.734C92.8578 214.53 92.7878 214.41 92.7039 214.324C92.7507 214.334 92.7965 214.34 92.8415 214.343C92.8745 214.345 92.9069 214.345 92.9397 214.344C93.0091 214.34 93.0796 214.328 93.1583 214.307C93.237 214.287 93.292 214.235 93.3215 214.154C93.3449 214.089 93.3487 214.016 93.3517 213.958C93.3529 213.933 93.3541 213.909 93.3567 213.892C93.3595 213.87 93.345 213.85 93.3231 213.847C93.3012 213.844 93.2811 213.858 93.2778 213.88C93.275 213.901 93.2738 213.927 93.2722 213.954C93.2656 214.088 93.2508 214.201 93.1382 214.231C92.9692 214.275 92.7707 214.298 92.4644 214.159C92.2861 214.079 92.245 214.048 92.1973 214.013C92.1638 213.988 92.1261 213.96 92.0393 213.913C91.9336 213.856 91.7981 213.782 91.6877 213.708C91.5185 213.595 91.4931 213.539 91.4902 213.52C91.4793 213.454 91.5449 213.303 91.5975 213.181C91.6314 213.102 91.6631 213.028 91.6824 212.966C91.7078 212.883 91.7335 212.804 91.7702 212.753C91.8055 212.703 91.8429 212.688 91.8958 212.703C91.9801 212.727 92.0873 212.805 92.1745 212.87L92.179 212.873C92.2442 212.921 92.2953 212.959 92.3327 212.973C92.3692 212.987 92.4572 213.079 92.5214 213.146C92.5972 213.225 92.644 213.273 92.6766 213.29C92.6761 213.298 92.6696 213.315 92.6525 213.329C92.6385 213.341 92.6135 213.355 92.5733 213.353C92.5714 213.352 92.5699 213.352 92.568 213.352C92.5462 213.351 92.5203 213.344 92.4897 213.331C92.384 213.284 92.334 213.24 92.2936 213.204C92.2568 213.172 92.225 213.144 92.1708 213.132C92.1073 213.119 92.053 213.115 92.0206 213.115C91.9978 213.092 91.9584 213.047 91.9477 213.005C91.9423 212.983 91.9209 212.971 91.8994 212.976C91.8779 212.982 91.8654 213.003 91.8708 213.025C91.8797 213.06 91.9009 213.098 91.9337 213.137C91.9021 213.152 91.8566 213.171 91.8162 213.184C91.7952 213.191 91.7837 213.213 91.7905 213.234C91.7973 213.255 91.8197 213.267 91.8406 213.26C91.9044 213.24 91.9766 213.205 92.0007 213.193C92.0172 213.193 92.0583 213.194 92.1103 213.202C92.0612 213.305 91.8965 213.467 91.8424 213.507C91.8246 213.52 91.821 213.545 91.8344 213.563C91.8427 213.574 91.8555 213.579 91.868 213.579C91.8757 213.578 91.8834 213.576 91.8899 213.571C91.9249 213.545 91.9961 213.478 92.0594 213.407C92.1235 213.334 92.1665 213.273 92.1877 213.222C92.2046 213.232 92.2197 213.245 92.2404 213.263C92.2823 213.301 92.3399 213.351 92.4569 213.403C92.4979 213.421 92.5336 213.43 92.5646 213.431C92.7422 213.456 92.8701 213.513 92.9462 213.557C93.029 213.605 93.0708 213.648 93.0709 213.648C93.0791 213.657 93.0904 213.661 93.1015 213.661C93.1106 213.66 93.1196 213.656 93.1271 213.65C93.1432 213.634 93.144 213.61 93.1287 213.594C93.1225 213.587 92.9892 213.449 92.7138 213.379C92.7433 213.349 92.7597 213.309 92.7547 213.275C92.751 213.248 92.735 213.227 92.7114 213.218C92.6921 213.21 92.6234 213.138 92.5781 213.091C92.5247 213.035 92.4805 212.989 92.4431 212.956C92.4573 212.961 92.4705 212.965 92.4809 212.97C92.4849 212.971 92.4893 212.973 92.4948 212.976C92.5417 212.997 92.6291 213.036 92.7221 213.06C92.7853 213.077 92.8407 213.084 92.8885 213.082C92.9328 213.08 92.97 213.07 93.0006 213.051C93.0762 213.006 93.1157 212.944 93.1092 212.88C93.1037 212.826 93.0653 212.781 93.0093 212.761C92.9272 212.733 92.8126 212.683 92.6267 212.595C92.5708 212.568 92.5036 212.529 92.4339 212.486C92.4236 212.403 92.3755 212.317 92.3247 212.227C92.2893 212.164 92.2528 212.099 92.23 212.035C92.1981 211.946 92.2117 211.846 92.2342 211.763C92.2359 211.758 92.2371 211.754 92.2384 211.749L92.2383 211.748C92.2504 211.707 92.2646 211.67 92.276 211.642L92.3731 211.475C92.3766 211.472 92.3796 211.467 92.3816 211.463C92.3956 211.431 92.4205 211.386 92.4479 211.364C92.4493 211.363 92.4507 211.362 92.4516 211.361Z" fill="#1E3A8A"/>
<path d="M92.2909 211.105C92.3172 211.11 92.3424 211.131 92.3604 211.164C92.3758 211.191 92.3921 211.239 92.3869 211.312C92.3833 211.316 92.3795 211.32 92.3754 211.324C92.3462 211.356 92.3253 211.396 92.3133 211.422L92.218 211.581C92.2147 211.584 92.212 211.589 92.2101 211.593C92.1962 211.627 92.1746 211.679 92.1578 211.741C92.1446 211.778 92.1065 211.831 92.0721 211.878C92.044 211.917 92.0173 211.954 92.0014 211.986C91.9643 212.059 91.9458 212.136 91.9528 212.191C91.9552 212.211 91.9596 212.232 91.9639 212.25C91.8822 212.25 91.7975 212.276 91.754 212.338C91.707 212.404 91.6902 212.447 91.6487 212.559C91.6415 212.58 91.6518 212.603 91.6725 212.61C91.6931 212.618 91.7158 212.607 91.7235 212.587C91.7641 212.476 91.7779 212.442 91.819 212.383C91.8512 212.338 91.9416 212.318 92.0251 212.337C92.0687 212.348 92.1858 212.422 92.289 212.487C92.3957 212.555 92.5054 212.625 92.5929 212.666C92.7818 212.755 92.8983 212.806 92.9833 212.836C93.0099 212.845 93.0278 212.865 93.0303 212.887C93.0333 212.919 93.0079 212.953 92.9595 212.982C92.9158 213.008 92.8409 213.009 92.7425 212.983C92.6554 212.959 92.5724 212.922 92.5274 212.902C92.522 212.899 92.5171 212.897 92.5131 212.895C92.4776 212.88 92.4262 212.867 92.3719 212.853C92.3146 212.838 92.2432 212.821 92.2206 212.804C92.128 212.736 92.0142 212.652 91.9167 212.625C91.831 212.6 91.7593 212.627 91.7046 212.704C91.6611 212.766 91.6333 212.851 91.6058 212.941C91.5878 212.999 91.5569 213.071 91.5239 213.147C91.5104 213.179 91.497 213.21 91.4844 213.24C91.4851 213.224 91.4872 213.207 91.4925 213.187L91.4924 213.185C91.4933 213.182 91.5069 213.106 91.5008 212.979C91.4975 212.921 91.515 212.852 91.5348 212.772C91.5543 212.695 91.5756 212.607 91.5844 212.508C91.5885 212.463 91.5906 212.416 91.5926 212.367C91.5954 212.296 91.5987 212.223 91.6075 212.156C91.6084 212.154 91.6083 212.153 91.6083 212.151C91.6201 212.066 91.642 211.988 91.6851 211.931C91.6955 211.917 91.7064 211.903 91.7187 211.887C91.7778 211.808 91.8568 211.704 91.9285 211.607L91.9285 211.606C91.9987 211.51 92.0607 211.423 92.0866 211.378C92.0893 211.373 92.0924 211.368 92.0955 211.363C92.1241 211.314 92.1633 211.246 92.2037 211.19C92.264 211.108 92.2894 211.105 92.2909 211.105Z" fill="#1E3A8A"/>
<path d="M92.1331 211.93C92.1342 211.974 92.1412 212.018 92.1563 212.061C92.1814 212.131 92.2195 212.199 92.2565 212.265C92.2882 212.32 92.3183 212.374 92.3371 212.423L92.3321 212.42C92.1926 212.332 92.1029 212.276 92.0485 212.261C92.0437 212.242 92.0353 212.209 92.0321 212.182C92.0282 212.151 92.0365 212.093 92.0727 212.022L92.0732 212.021C92.0856 211.997 92.1082 211.965 92.1331 211.93Z" fill="#1E3A8A"/>
<path d="M91.7765 211.1C91.7861 211.089 91.798 211.086 91.8123 211.09C91.8328 211.096 91.86 211.119 91.8691 211.167C91.8864 211.254 91.8743 211.455 91.859 211.569C91.7901 211.662 91.7138 211.764 91.6561 211.84L91.6565 211.839C91.6443 211.855 91.6329 211.871 91.6229 211.884C91.6157 211.894 91.6089 211.904 91.6026 211.914C91.6039 211.89 91.6062 211.868 91.6101 211.849C91.6328 211.729 91.6455 211.59 91.6434 211.478C91.6413 211.373 91.7439 211.135 91.7765 211.1Z" fill="#1E3A8A"/>
<path d="M93.023 210.983C93.0451 210.981 93.0647 210.996 93.0672 211.018C93.0697 211.04 93.0538 211.06 93.0322 211.062L92.714 211.099L92.7116 211.099C92.6909 211.1 92.6727 211.085 92.6702 211.064L92.6698 211.064C92.6673 211.042 92.6832 211.022 92.7049 211.02L93.023 210.983Z" fill="#1E3A8A"/>
<path d="M92.6499 210.532C92.6591 210.512 92.6829 210.504 92.7026 210.513C92.7224 210.522 92.7308 210.546 92.7216 210.566L92.5879 210.849C92.5813 210.863 92.5677 210.871 92.5537 210.872C92.5474 210.872 92.5406 210.871 92.5347 210.868L92.5351 210.868C92.5154 210.859 92.507 210.835 92.5162 210.815L92.6499 210.532Z" fill="#1E3A8A"/>
<path d="M92.1452 210.539C92.1645 210.529 92.1885 210.536 92.1991 210.555L92.3342 210.801C92.3448 210.82 92.3378 210.844 92.3185 210.855C92.3128 210.857 92.3071 210.859 92.3013 210.859C92.2868 210.86 92.272 210.853 92.2646 210.839L92.1294 210.593C92.1188 210.574 92.1259 210.55 92.1452 210.539Z" fill="#1E3A8A"/>
</g>
<defs>
<clipPath id="clip0_1449_1491">
<rect width="277.333" height="213.333" fill="white" transform="translate(0.555176 8.87329) rotate(-1.73104)"/>
</clipPath>
</defs>
</svg>
