<svg width="328" height="259" viewBox="0 0 328 259" fill="none" xmlns="http://www.w3.org/2000/svg">
<g clip-path="url(#clip0_2353_296)">
<path d="M4.50474 239.138L310.511 255.968L310.939 248.18L4.93303 231.351L4.50474 239.138Z" fill="#8F2B2B"/>
<path d="M311.114 245.004L5.10769 228.175L4.93303 231.351L310.939 248.18L311.114 245.004Z" fill="#DB8181"/>
<path fill-rule="evenodd" clip-rule="evenodd" d="M7.36526 187.125L313.372 203.954L313.007 210.589L7.11241 191.723L7.36526 187.125ZM6.85116 196.473L6.37417 205.146L312.269 224.013L312.727 215.671L6.85116 196.473ZM5.7641 216.239L6.11291 209.897L311.989 229.095L311.658 235.106L5.7641 216.239ZM5.50284 220.99L5.10769 228.175L311.114 245.004L311.379 240.188L5.50284 220.99Z" fill="#BF5E5D"/>
<path d="M313.007 210.589L7.11241 191.723L6.85116 196.473L312.727 215.671L313.007 210.589Z" fill="#BC5A59"/>
<path d="M6.37417 205.146L6.11291 209.897L311.989 229.095L312.269 224.013L6.37417 205.146Z" fill="#BC5A59"/>
<path d="M5.7641 216.239L5.50284 220.99L311.379 240.188L311.658 235.106L5.7641 216.239Z" fill="#BC5A59"/>
<path d="M168.483 52.3246C167.053 52.246 165.916 52.5637 165.729 53.7266C165.451 55.3866 166.418 55.318 166.418 55.318L163.772 63.2263C163.626 63.6794 163.445 64.3025 163.683 64.7863C163.761 64.9456 163.844 65.1085 163.85 65.286C163.865 65.7673 163.838 66.4518 163.581 66.688L163.516 67.8799L164.717 67.9322L170.842 68.1989L171.645 68.1276C171.66 67.7679 171.66 67.3296 171.66 67.1503C171.659 67.0968 171.638 67.0463 171.611 66.9996C171.421 66.6716 171.494 65.9629 171.565 65.5228C171.58 65.4263 171.633 65.3408 171.696 65.2647C172.073 64.8077 171.953 64.1716 171.851 63.6707L170.093 55.427C170.093 55.427 171.046 55.6012 170.952 53.9208C170.89 52.8085 169.722 52.3928 168.483 52.3246Z" fill="#9A4F1B"/>
<path d="M170.842 68.1989L164.717 67.9322L164.704 68.2172L164.353 75.5042L164.026 82.3196L166.746 82.4691C167.845 82.5296 168.687 83.4698 168.627 84.5691L163.204 183.17C163.143 184.269 162.203 185.111 161.104 185.051L159.092 184.94L158.653 194.076C158.653 194.076 159.012 194.832 161.688 194.979C164.49 195.134 164.855 194.474 164.88 194.421L164.889 194.261L170.234 79.2692L170.451 75.324L170.842 68.1989Z" fill="#9A4F1B"/>
<path d="M161.104 185.051C162.203 185.111 163.143 184.269 163.204 183.17L168.627 84.5691C168.687 83.4698 167.845 82.5296 166.746 82.4691L164.026 82.3196L159.092 184.94L161.104 185.051Z" fill="#AB6127"/>
<path d="M170.842 68.1989L170.451 75.324L221.151 72.4251C223.096 72.3139 224.647 70.7597 224.754 68.8149L224.775 68.4276C224.902 66.1195 222.969 64.2267 220.664 64.4019L171.645 68.1276L170.842 68.1989Z" fill="#B45E22"/>
<path d="M164.704 68.2172L113.458 71.1472C111.56 71.2557 110.092 72.8513 110.141 74.7512C110.195 76.8561 111.98 78.4987 114.082 78.3785L116.845 78.2205L117.864 78.1623L164.353 75.5042L164.704 68.2172Z" fill="#B45E22"/>
<path d="M169.964 208.694C162.307 211.147 154.821 209.059 152.036 207.708C147.728 208.237 139.835 209.881 137.127 213.185C136.622 213.801 136.297 214.475 136.209 215.21C135.727 219.256 150.494 221.053 160.159 221.601C169.903 222.153 184.643 222.058 184.872 217.886C184.906 217.26 184.745 216.654 184.428 216.073C182.434 212.418 174.287 209.716 169.964 208.694Z" fill="#693914"/>
<path d="M161.519 198.04C158.844 197.893 158.485 197.136 158.485 197.136C157.666 199.755 155.229 205.537 152.036 207.708C154.821 209.059 162.307 211.147 169.964 208.694C167.028 206.186 165.24 200.172 164.713 197.479C164.713 197.479 164.437 198.2 161.519 198.04Z" fill="#663612"/>
<path d="M161.688 194.979C159.012 194.832 158.653 194.076 158.653 194.076L158.485 197.136C158.485 197.136 158.844 197.893 161.519 198.04C164.437 198.2 164.713 197.479 164.713 197.479L164.88 194.421C164.855 194.474 164.49 195.134 161.688 194.979Z" fill="#824419"/>
<path d="M180.675 222.507C172.799 224.285 153.271 223.762 141.033 220.277C135.991 218.841 134.398 217.326 134.412 216.029L134.239 219.166C134.107 220.493 135.893 222.174 141.118 223.662C153.356 227.147 169.794 228.055 178.427 226.307C183.751 225.229 185.96 223.82 185.974 222.486L186.155 219.209C186.153 219.219 186.152 219.229 186.151 219.238C185.965 220.56 184.318 221.685 180.675 222.507Z" fill="#4E2813"/>
<path d="M136.209 215.21C136.297 214.475 136.622 213.801 137.127 213.185C135.856 213.749 134.535 214.729 134.419 215.889L134.412 216.029C134.398 217.326 135.991 218.841 141.033 220.277C153.271 223.762 172.799 224.285 180.675 222.507C184.318 221.685 185.965 220.56 186.151 219.238C186.152 219.229 186.153 219.219 186.155 219.209C186.273 218.253 185.63 217.194 184.428 216.073C184.745 216.654 184.906 217.26 184.872 217.886C184.643 222.058 169.903 222.153 160.159 221.601C150.494 221.053 135.727 219.256 136.209 215.21Z" fill="#2D180C"/>
<path d="M112.669 182.244C110.751 182.222 108.948 182.158 107.257 182.061C101.833 181.747 97.5565 181.084 94.2903 180.311C93.9078 180.22 93.5391 180.128 93.184 180.035C92.7095 179.91 92.2594 179.784 91.8331 179.656C91.5245 179.563 91.2284 179.471 90.9446 179.377C89.8436 179.016 88.9274 178.651 88.1844 178.303L88.1641 178.302C87.6487 178.06 87.2167 177.827 86.8641 177.609C86.5379 177.407 86.2797 177.218 86.0864 177.047C85.7029 176.704 85.4914 176.393 85.3882 176.082C85.8172 178.114 86.5584 184.665 107.524 185.818C133.711 187.258 136.96 178.946 137.6 177.297C137.513 177.469 137.365 177.64 137.197 177.811C136.943 178.07 136.599 178.328 136.171 178.582L136.171 178.582C135.77 178.82 135.296 179.054 134.752 179.281C133.755 179.698 132.548 180.094 131.118 180.452C130.697 180.558 130.259 180.66 129.803 180.759C128.379 181.067 126.791 181.341 125.061 181.566C121.468 182.035 117.268 182.298 112.669 182.244Z" fill="#4766C0"/>
<path d="M212.826 176.704C211.322 176.686 209.888 176.644 208.524 176.579C201.916 176.265 196.931 175.437 193.341 174.495C192.523 174.28 191.777 174.059 191.101 173.837C190 173.475 189.064 173.109 188.321 172.761C187.806 172.52 187.374 172.287 187.021 172.069C186.695 171.867 186.436 171.678 186.243 171.507C185.86 171.164 185.648 170.853 185.545 170.542C185.974 172.574 186.715 179.125 207.68 180.278C233.868 181.718 237.117 173.405 237.757 171.757C237.67 171.928 237.521 172.099 237.353 172.271C237.1 172.53 236.756 172.788 236.328 173.042C235.927 173.279 235.452 173.513 234.909 173.741C234.069 174.092 233.084 174.429 231.933 174.741C230.452 175.141 228.729 175.501 226.8 175.8C225.701 175.971 224.535 176.122 223.309 176.249C220.167 176.576 216.633 176.748 212.826 176.704Z" fill="#4766C0"/>
<path d="M137.197 177.811C137.365 177.64 137.513 177.469 137.6 177.297C137.881 176.744 137.555 176.184 136.759 175.636L137.197 177.811Z" fill="#1E3A8A"/>
<path d="M86.0864 177.047L87.1224 173.778C85.8897 174.387 85.2317 175.082 85.335 175.854C85.3532 175.921 85.3704 175.998 85.3882 176.082C85.4914 176.393 85.7029 176.704 86.0864 177.047Z" fill="#1E3A8A"/>
<path d="M185.545 170.542C185.648 170.853 185.86 171.164 186.243 171.507L187.279 168.238C186.047 168.846 185.389 169.542 185.492 170.313C185.51 170.381 185.527 170.458 185.545 170.542Z" fill="#1E3A8A"/>
<path d="M237.757 171.757C238.038 171.204 237.712 170.644 236.916 170.096L237.353 172.271C237.521 172.099 237.67 171.928 237.757 171.757Z" fill="#1E3A8A"/>
<path d="M92.1156 174.518L92.2417 172.227C91.3621 172.405 90.5193 172.6 89.7703 172.811L88.1641 178.302L88.1844 178.303C88.9274 178.651 89.8436 179.016 90.9446 179.377C91.2284 179.471 91.5245 179.563 91.8331 179.656L92.1156 174.518Z" fill="#1E3A8A"/>
<path d="M131.118 180.452C132.548 180.094 133.755 179.698 134.752 179.281L133.894 174.334C132.844 173.98 131.62 173.641 130.213 173.319L130.032 176.604L129.803 180.759C130.259 180.66 130.697 180.558 131.118 180.452Z" fill="#1E3A8A"/>
<path d="M116.682 80.8107L116.702 80.4469L87.1224 173.778L86.0864 177.047C86.2797 177.218 86.5379 177.407 86.8641 177.609C87.2167 177.827 87.6487 178.06 88.1641 178.302L89.7703 172.811L116.682 80.8107Z" fill="#AFD1FA"/>
<path d="M117.188 80.8386L116.682 80.8107L111.995 160.737L112.792 160.781L113.583 160.824L117.188 80.8386Z" fill="#92ADCD"/>
<path d="M136.171 178.582C136.599 178.328 136.943 178.07 137.197 177.811L136.759 175.636L117.695 80.8664L133.894 174.334L134.752 179.281C135.296 179.054 135.77 178.82 136.171 178.582L136.171 178.582Z" fill="#AFD1FA"/>
<path d="M217.374 75.2999L216.839 75.2704L211.667 155.344L212.566 155.393L217.374 75.2999Z" fill="#92ADCD"/>
<path d="M216.839 75.2704L216.859 74.9066L187.279 168.238L186.243 171.507C186.436 171.678 186.695 171.867 187.021 172.069C187.374 172.287 187.806 172.52 188.321 172.761L189.754 167.861L189.927 167.27L216.839 75.2704Z" fill="#AFD1FA"/>
<path d="M217.852 75.3262L234.051 168.794L234.909 173.741C235.452 173.513 235.927 173.279 236.328 173.042C236.756 172.788 237.1 172.53 237.353 172.271L236.916 170.096L217.852 75.3262Z" fill="#AFD1FA"/>
<path d="M188.321 172.761C189.064 173.109 190 173.475 191.101 173.837C191.777 174.059 192.523 174.28 193.341 174.495L193.709 167.799C192.133 167.743 190.409 167.817 189.754 167.861L188.321 172.761Z" fill="#1E3A8A"/>
<path d="M234.909 173.741L234.051 168.794C233.091 168.47 231.989 168.159 230.728 167.862L230.528 171.5L230.328 175.137C230.89 175.01 231.426 174.878 231.933 174.741C233.084 174.429 234.069 174.092 234.909 173.741Z" fill="#1E3A8A"/>
<path d="M116.845 78.2205L116.83 78.4932L116.702 80.4469L116.682 80.8107L117.188 80.8386L117.695 80.8664L117.864 78.1623L116.845 78.2205Z" fill="#622E09"/>
<path d="M163.581 66.688C163.838 66.4518 163.865 65.7673 163.85 65.286C163.844 65.1085 163.761 64.9456 163.683 64.7863C163.445 64.3025 163.626 63.6794 163.772 63.2263L166.418 55.318C166.418 55.318 165.451 55.3866 165.729 53.7266C165.916 52.5637 167.053 52.246 168.484 52.3246C169.722 52.3928 170.89 52.8085 170.952 53.9208C171.046 55.6012 170.093 55.427 170.093 55.427L171.851 63.6707C171.953 64.1716 172.073 64.8077 171.696 65.2647C171.633 65.3408 171.58 65.4263 171.565 65.5228C171.494 65.9629 171.421 66.6716 171.611 66.9996C171.638 67.0463 171.659 67.0968 171.66 67.1503C171.66 67.3296 171.66 67.7679 171.645 68.1276M163.581 66.688C163.581 66.688 163.542 67.4061 163.516 67.8799M163.581 66.688L163.516 67.8799M163.516 67.8799L164.717 67.9322M164.717 67.9322L170.842 68.1989M164.717 67.9322L164.704 68.2172M158.653 194.076C158.653 194.076 159.012 194.832 161.688 194.979C164.49 195.134 164.855 194.474 164.88 194.421M158.653 194.076L158.485 197.136M158.653 194.076L159.092 184.94M158.653 194.076L164.353 75.5042M170.234 79.2692L170.842 68.1989M170.234 79.2692L164.889 194.261M170.234 79.2692L170.451 75.324M170.842 68.1989L171.645 68.1276M170.842 68.1989L170.451 75.324M164.704 68.2172L113.458 71.1472C111.56 71.2557 110.092 72.8513 110.141 74.7512C110.195 76.8561 111.98 78.4987 114.082 78.3785L116.845 78.2205M164.704 68.2172L164.353 75.5042M171.645 68.1276L220.664 64.4019C222.969 64.2267 224.902 66.1195 224.775 68.4276L224.754 68.8149C224.647 70.7597 223.096 72.3139 221.151 72.4251L170.451 75.324M164.356 75.504L164.353 75.5042M116.845 78.2205L116.83 78.4932L116.702 80.4469M116.845 78.2205L117.864 78.1623M116.682 80.8107L117.188 80.8386M116.682 80.8107L116.702 80.4469M116.682 80.8107L89.7703 172.811M116.682 80.8107L111.995 160.737L112.792 160.781L113.583 160.824L117.188 80.8386M117.695 80.8664L117.864 78.1623M117.695 80.8664L117.188 80.8386M117.695 80.8664L133.894 174.334M117.695 80.8664L136.759 175.636M117.864 78.1623L164.353 75.5042M86.0864 177.047C86.2797 177.218 86.5379 177.407 86.8641 177.609C87.2167 177.827 87.6487 178.06 88.1641 178.302M86.0864 177.047C85.7029 176.704 85.4914 176.393 85.3882 176.082M86.0864 177.047C86.4886 177.403 87.1921 177.838 88.1844 178.303M86.0864 177.047L87.1224 173.778M137.6 177.297C137.513 177.469 137.365 177.64 137.197 177.811M137.6 177.297C136.96 178.946 133.711 187.258 107.524 185.818C86.5584 184.665 85.8172 178.114 85.3882 176.082M137.6 177.297C137.881 176.744 137.555 176.184 136.759 175.636M116.702 80.4469L87.1224 173.778M134.752 179.281C133.755 179.698 132.548 180.094 131.118 180.452C130.697 180.558 130.259 180.66 129.803 180.759M134.752 179.281L133.894 174.334M134.752 179.281C135.296 179.054 135.77 178.82 136.171 178.582M137.197 177.811C136.943 178.07 136.599 178.328 136.171 178.582L136.171 178.582M137.197 177.811L136.759 175.636M137.197 177.811C136.943 178.071 136.599 178.328 136.171 178.582M85.335 175.854C85.3532 175.921 85.3704 175.998 85.3882 176.082M85.335 175.854C85.3453 175.93 85.3629 176.006 85.3882 176.082M85.335 175.854C85.2317 175.082 85.8897 174.387 87.1224 173.778M88.1641 178.302L89.7703 172.811M88.1641 178.302L88.1844 178.303M217.852 75.3262L218.021 72.622L217.001 72.6803L216.986 72.953L216.859 74.9066M217.852 75.3262L217.374 75.2999M217.852 75.3262L234.051 168.794M217.852 75.3262L236.916 170.096M216.839 75.2704L217.374 75.2999M216.839 75.2704L216.859 74.9066M216.839 75.2704L189.927 167.27L189.754 167.861M216.839 75.2704L211.667 155.344L212.566 155.393L217.374 75.2999M234.051 168.794L234.909 173.741M234.051 168.794C233.091 168.47 231.989 168.159 230.728 167.862M236.916 170.096C237.712 170.644 238.038 171.204 237.757 171.757M236.916 170.096L237.353 172.271M237.757 171.757C237.67 171.928 237.521 172.099 237.353 172.271M237.757 171.757C237.117 173.405 233.868 181.718 207.68 180.278C186.715 179.125 185.974 172.574 185.545 170.542M193.341 174.495C192.523 174.28 191.777 174.059 191.101 173.837C190 173.475 189.064 173.109 188.321 172.761M193.341 174.495C196.931 175.437 201.916 176.265 208.524 176.579C209.888 176.644 211.322 176.686 212.826 176.704C216.633 176.748 220.167 176.576 223.309 176.249C224.535 176.122 225.701 175.971 226.8 175.8M193.341 174.495L193.709 167.799C192.133 167.743 190.409 167.817 189.754 167.861M216.859 74.9066L187.279 168.238M186.243 171.507C186.436 171.678 186.695 171.867 187.021 172.069C187.374 172.287 187.806 172.52 188.321 172.761M186.243 171.507C185.86 171.164 185.648 170.853 185.545 170.542M186.243 171.507L187.279 168.238M188.321 172.761L189.754 167.861M234.909 173.741C235.452 173.513 235.927 173.279 236.328 173.042C236.756 172.788 237.1 172.53 237.353 172.271M234.909 173.741C234.069 174.092 233.084 174.429 231.933 174.741M185.545 170.542C185.52 170.466 185.502 170.39 185.492 170.313M185.545 170.542C185.527 170.458 185.51 170.381 185.492 170.313M185.492 170.313C185.389 169.542 186.047 168.846 187.279 168.238M158.485 197.136C158.485 197.136 158.844 197.893 161.519 198.04C164.437 198.2 164.713 197.479 164.713 197.479M158.485 197.136C157.666 199.755 155.229 205.537 152.036 207.708M164.713 197.479C165.24 200.172 167.028 206.186 169.964 208.694M164.713 197.479L164.88 194.421M164.889 194.261L164.881 194.418C164.881 194.418 164.881 194.419 164.88 194.421M164.889 194.261L164.88 194.421M152.036 207.708C154.821 209.059 162.307 211.147 169.964 208.694M152.036 207.708C146.925 208.336 136.767 210.532 136.209 215.21M152.036 207.708C147.728 208.237 139.835 209.881 137.127 213.185M169.964 208.694C174.287 209.716 182.434 212.418 184.428 216.073M136.209 215.21C135.727 219.256 150.494 221.053 160.159 221.601C169.903 222.153 184.643 222.058 184.872 217.886C184.906 217.26 184.745 216.654 184.428 216.073M136.209 215.21C136.297 214.475 136.622 213.801 137.127 213.185M137.127 213.185C135.856 213.749 134.535 214.729 134.419 215.889M184.428 216.073C185.63 217.194 186.273 218.253 186.155 219.209M184.428 216.073C185.643 217.205 186.286 218.274 186.151 219.238M134.419 215.889L134.412 216.029M134.419 215.889C134.415 215.935 134.412 215.982 134.412 216.029M186.155 219.209L185.974 222.486C185.96 223.82 183.751 225.229 178.427 226.307C169.794 228.055 153.356 227.147 141.118 223.662C135.893 222.174 134.107 220.493 134.239 219.166L134.412 216.029M186.155 219.209C186.153 219.219 186.152 219.229 186.151 219.238M164.026 82.3196L166.746 82.4691C167.845 82.5296 168.687 83.4698 168.627 84.5691L163.204 183.17C163.143 184.269 162.203 185.111 161.104 185.051L159.092 184.94M164.026 82.3196L164.353 75.5042M164.026 82.3196L159.092 184.94M230.328 175.137C230.89 175.01 231.426 174.878 231.933 174.741M230.328 175.137C229.248 175.381 228.068 175.604 226.8 175.8M230.328 175.137L230.528 171.5L230.728 167.862M231.739 174.793C231.804 174.775 231.868 174.758 231.933 174.741M226.8 175.8C228.729 175.501 230.452 175.141 231.933 174.741M230.74 167.635L230.728 167.862M134.412 216.029C134.398 217.326 135.991 218.841 141.033 220.277C153.271 223.762 172.799 224.285 180.675 222.507C184.318 221.685 185.965 220.56 186.151 219.238M89.7703 172.811C90.5193 172.6 91.3621 172.405 92.2417 172.227L92.1156 174.518L91.8331 179.656M88.1844 178.303C88.9274 178.651 89.8436 179.016 90.9446 179.377C91.2284 179.471 91.5245 179.563 91.8331 179.656M133.894 174.334C132.844 173.98 131.62 173.641 130.213 173.319L130.032 176.604L129.803 180.759M91.8331 179.656C92.2594 179.784 92.7095 179.91 93.184 180.035C93.5391 180.128 93.9078 180.22 94.2903 180.311C97.5565 181.084 101.833 181.747 107.257 182.061C108.948 182.158 110.751 182.222 112.669 182.244C117.268 182.298 121.468 182.035 125.061 181.566C126.791 181.341 128.379 181.067 129.803 180.759" stroke="black" stroke-width="0.0858382"/>
<path d="M124.826 60.2921C124.625 63.9603 121.487 66.7705 117.819 66.5687C114.15 66.367 111.34 63.2297 111.542 59.5615C111.743 55.8933 114.881 53.0832 118.549 53.285C122.218 53.4867 125.028 56.624 124.826 60.2921Z" fill="#1E3A8A"/>
<path d="M124.826 60.2921C124.625 63.9603 121.487 66.7705 117.819 66.5687C114.15 66.367 111.34 63.2297 111.542 59.5615C111.743 55.8933 114.881 53.0832 118.549 53.285C122.218 53.4867 125.028 56.624 124.826 60.2921Z" fill="#1E3A8A"/>
<path d="M118.405 56.6649C118.445 56.6413 118.483 56.6312 118.518 56.6467C118.523 56.6524 118.545 56.6903 118.545 56.8289C118.544 56.9458 118.529 57.0918 118.512 57.2459C118.487 57.4825 118.461 57.7258 118.48 57.9294C118.514 58.3092 118.763 58.8681 118.964 59.3169C119.03 59.4661 119.093 59.6068 119.14 59.7222C119.318 60.1671 119.711 60.7679 120.108 61.3513C120.424 61.8146 120.534 62.8648 120.581 63.3133L120.585 63.3488C120.624 63.7222 121.021 64.3341 121.312 64.7797L121.311 64.7851C121.372 64.8795 121.427 64.9628 121.47 65.0317C121.446 65.0957 121.39 65.2231 121.278 65.376C121.012 65.7394 120.644 65.9584 120.38 66.0785C119.903 66.297 119.515 66.3287 119.274 66.3168L119.264 66.3163C119.083 66.3063 118.957 66.2708 118.898 66.2513C118.624 65.6475 118.463 65.2919 118.253 65.0261C118.381 65.0672 118.507 65.0986 118.633 65.1191C118.724 65.1336 118.815 65.144 118.907 65.1491C119.102 65.1599 119.303 65.1464 119.529 65.1113C119.755 65.0761 119.924 64.9467 120.03 64.7282C120.114 64.5534 120.146 64.3512 120.171 64.1895C120.182 64.1207 120.192 64.0546 120.204 64.0064C120.219 63.946 120.184 63.8856 120.124 63.87C120.063 63.8558 120.003 63.8906 119.987 63.9509C119.973 64.0086 119.962 64.0801 119.95 64.1555C119.893 64.5276 119.819 64.839 119.495 64.8905C119.009 64.9658 118.448 64.9716 117.631 64.4957C117.155 64.2194 117.049 64.1211 116.926 64.0083C116.839 63.9287 116.742 63.8391 116.513 63.6837C116.234 63.4943 115.876 63.2462 115.589 63.0075C115.148 62.642 115.093 62.4799 115.09 62.4267C115.079 62.2385 115.307 61.8336 115.489 61.5078C115.607 61.2981 115.717 61.1002 115.789 60.9315C115.884 60.707 115.979 60.4933 116.096 60.3597C116.209 60.23 116.318 60.2006 116.462 60.2575C116.691 60.3489 116.968 60.5994 117.193 60.8048L117.205 60.815C117.373 60.9683 117.505 61.0884 117.606 61.1388C117.704 61.1877 117.924 61.4717 118.084 61.6777C118.273 61.9219 118.39 62.0698 118.476 62.1248C118.472 62.1477 118.45 62.1927 118.397 62.2279C118.355 62.2568 118.281 62.2881 118.169 62.2711C118.164 62.2694 118.16 62.2692 118.154 62.2689C118.094 62.2574 118.023 62.2318 117.941 62.1852C117.659 62.0242 117.532 61.8867 117.43 61.775C117.336 61.6746 117.255 61.5859 117.107 61.5383C116.933 61.4825 116.782 61.4566 116.692 61.4448C116.634 61.375 116.537 61.2378 116.519 61.1172C116.511 61.0555 116.454 61.0143 116.393 61.0232C116.331 61.032 116.29 61.0882 116.299 61.1499C116.314 61.2513 116.362 61.3641 116.442 61.4827C116.349 61.5143 116.217 61.556 116.1 61.5808C116.039 61.5938 116 61.6529 116.013 61.7134C116.026 61.7739 116.086 61.8125 116.146 61.7995C116.33 61.7607 116.543 61.6854 116.613 61.6594C116.659 61.6633 116.774 61.6777 116.918 61.7142C116.75 61.9891 116.243 62.3936 116.079 62.492C116.026 62.523 116.009 62.5914 116.041 62.6449C116.061 62.6772 116.095 62.6968 116.131 62.6987C116.152 62.6999 116.174 62.6957 116.194 62.6832C116.299 62.621 116.518 62.4549 116.716 62.2741C116.916 62.0893 117.054 61.9297 117.128 61.7937C117.173 61.8261 117.211 61.8676 117.264 61.9249C117.37 62.0422 117.516 62.1998 117.829 62.3788C117.938 62.4406 118.036 62.4745 118.122 62.4887C118.612 62.6081 118.953 62.805 119.153 62.9506C119.371 63.1075 119.475 63.2406 119.476 63.2416C119.496 63.2686 119.526 63.2838 119.557 63.2856C119.583 63.287 119.609 63.2789 119.632 63.2625C119.682 63.2244 119.691 63.1556 119.653 63.1059C119.638 63.0859 119.305 62.6612 118.554 62.3861C118.646 62.3109 118.703 62.2039 118.699 62.1058C118.696 62.0295 118.658 61.9662 118.594 61.9342C118.543 61.9055 118.371 61.6854 118.258 61.5391C118.125 61.3686 118.014 61.2279 117.92 61.1235C117.958 61.1406 117.994 61.1561 118.022 61.1726C118.032 61.1786 118.044 61.1861 118.058 61.1937C118.184 61.2658 118.417 61.401 118.67 61.4965C118.842 61.5617 118.995 61.5973 119.129 61.6047C119.254 61.6115 119.361 61.5943 119.452 61.5517C119.676 61.4471 119.805 61.2843 119.805 61.1048C119.805 60.9526 119.711 60.8141 119.56 60.7433C119.339 60.64 119.033 60.4668 118.538 60.1664C118.389 60.0766 118.213 59.9472 118.03 59.8053C118.025 59.5699 117.916 59.3164 117.8 59.049C117.719 58.8637 117.636 58.6715 117.59 58.4868C117.527 58.2277 117.594 57.9527 117.681 57.7263C117.687 57.7131 117.692 57.7011 117.696 57.6892L117.697 57.6864C117.743 57.5723 117.794 57.473 117.834 57.398L118.152 56.9616C118.163 56.9529 118.173 56.9418 118.18 56.9286C118.228 56.8442 118.311 56.7264 118.394 56.6711C118.398 56.67 118.403 56.6675 118.405 56.6649Z" fill="#FEBC23"/>
<path d="M118.03 55.9006C118.102 55.9223 118.167 55.9897 118.207 56.0857C118.242 56.1679 118.274 56.307 118.239 56.5089C118.227 56.5192 118.216 56.5281 118.203 56.5396C118.112 56.6215 118.041 56.7271 118 56.7949L117.687 57.2126C117.678 57.2212 117.669 57.2318 117.662 57.2441C117.661 57.2462 117.66 57.2485 117.659 57.2507L117.658 57.2515L117.658 57.2516C117.61 57.3427 117.537 57.4783 117.473 57.6415C117.426 57.7409 117.304 57.8783 117.194 58.0014C117.104 58.1025 117.019 58.1984 116.965 58.2811C116.84 58.4755 116.766 58.6862 116.77 58.8428C116.771 58.8972 116.777 58.9574 116.783 59.0107C116.555 58.986 116.31 59.035 116.171 59.1946C116.02 59.3671 115.961 59.4808 115.812 59.784C115.786 59.8396 115.808 59.9061 115.864 59.9336C115.92 59.9598 115.986 59.9376 116.014 59.8821C116.159 59.5855 116.208 59.4944 116.34 59.3412C116.443 59.2232 116.701 59.1925 116.93 59.2717C117.048 59.3136 117.355 59.5547 117.624 59.768C117.903 59.9873 118.19 60.2152 118.423 60.3558C118.925 60.6594 119.237 60.8356 119.466 60.9434C119.537 60.9773 119.582 61.0382 119.582 61.1021C119.582 61.1904 119.5 61.2798 119.357 61.3466C119.227 61.4075 119.017 61.3864 118.75 61.2847C118.513 61.1941 118.291 61.0664 118.171 60.9973C118.157 60.9883 118.144 60.9808 118.133 60.9748C118.038 60.9206 117.898 60.8694 117.75 60.8151C117.594 60.7575 117.4 60.687 117.341 60.6335C117.102 60.4164 116.808 60.1501 116.543 60.0444C116.31 59.95 116.102 60.0052 115.926 60.2063C115.787 60.3658 115.685 60.5968 115.582 60.8386C115.515 60.9953 115.407 61.1879 115.293 61.3923C115.246 61.4768 115.199 61.5599 115.155 61.6404C115.162 61.5972 115.173 61.5489 115.193 61.4956L115.194 61.4902C115.197 61.4821 115.257 61.272 115.277 60.9156C115.285 60.7515 115.353 60.5636 115.432 60.3463C115.509 60.1357 115.594 59.8957 115.647 59.6226C115.672 59.4962 115.691 59.3667 115.711 59.2291C115.74 59.0308 115.77 58.8299 115.814 58.6434C115.817 58.6394 115.817 58.6354 115.817 58.6313C115.875 58.3952 115.959 58.185 116.096 58.0362C116.129 58.0013 116.164 57.9638 116.203 57.9224C116.391 57.7206 116.642 57.4503 116.871 57.2019L116.871 57.1992C117.095 56.9505 117.294 56.7248 117.379 56.6072C117.388 56.594 117.398 56.581 117.409 56.5666C117.503 56.4372 117.632 56.2581 117.761 56.1142C117.954 55.9019 118.026 55.9004 118.03 55.9006Z" fill="#FEBC23"/>
<path d="M117.349 58.165C117.34 58.2882 117.347 58.4137 117.377 58.5377C117.427 58.7403 117.513 58.9422 117.598 59.1358C117.67 59.3002 117.739 59.459 117.778 59.6025L117.765 59.5923C117.4 59.3044 117.165 59.1229 117.017 59.0658C117.009 59.011 116.995 58.9151 116.994 58.8389C116.992 58.7517 117.032 58.5908 117.154 58.4031L117.156 58.4018C117.197 58.3375 117.27 58.2545 117.349 58.165Z" fill="#FEBC23"/>
<path d="M116.592 55.7385C116.622 55.7116 116.657 55.7054 116.695 55.7211C116.751 55.7432 116.821 55.8164 116.832 55.9516C116.855 56.2016 116.763 56.7608 116.688 57.0734C116.468 57.3156 116.225 57.5769 116.041 57.7734L116.043 57.7722C116.004 57.8135 115.968 57.8523 115.936 57.8873C115.913 57.9118 115.891 57.9378 115.87 57.9652C115.881 57.8992 115.894 57.8387 115.91 57.7853C116.008 57.4562 116.084 57.0715 116.111 56.7562C116.135 56.4625 116.491 55.8281 116.592 55.7385Z" fill="#FEBC23"/>
<path d="M120.113 55.7724C120.176 55.7718 120.226 55.8208 120.227 55.8834C120.228 55.946 120.177 55.9962 120.116 55.9969L119.215 56.0072L119.209 56.0068C119.15 56.0036 119.104 55.9562 119.103 55.8963L119.102 55.8963C119.101 55.8337 119.152 55.7835 119.213 55.7827L120.113 55.7724Z" fill="#FEBC23"/>
<path d="M119.2 54.4031C119.232 54.3504 119.301 54.3338 119.353 54.3653C119.406 54.3967 119.423 54.4656 119.391 54.5183L118.935 55.2709C118.913 55.3077 118.872 55.3272 118.833 55.3251C118.815 55.3241 118.796 55.319 118.781 55.3086L118.782 55.3087C118.729 55.2772 118.713 55.2083 118.744 55.1557L119.2 54.4031Z" fill="#FEBC23"/>
<path d="M117.786 54.2768C117.843 54.2527 117.909 54.2794 117.933 54.3365L118.239 55.0631C118.263 55.1201 118.237 55.1853 118.18 55.2093C118.163 55.2152 118.146 55.2184 118.13 55.2175C118.09 55.2153 118.05 55.19 118.033 55.1496L117.727 54.4231C117.703 54.366 117.729 54.3008 117.786 54.2768Z" fill="#FEBC23"/>
<path d="M211.673 49.8416C211.673 49.8416 211.648 49.4452 212.126 49.1137C212.572 48.8052 213.094 49.037 213.094 49.037C213.094 49.037 213.272 48.58 213.802 48.4353C214.317 48.2949 214.707 48.6075 214.707 48.6075C214.707 48.6075 215.026 48.244 215.5 48.2166C215.968 48.1897 216.371 48.5517 216.371 48.5517C216.371 48.5517 216.824 48.234 217.338 48.4085C217.852 48.583 217.968 48.9791 217.968 48.9791C217.968 48.9791 218.394 48.7607 218.94 49.0317C219.391 49.2554 219.396 49.6947 219.396 49.6947C219.396 49.6947 219.925 49.6316 220.276 49.9463C220.548 50.1908 220.664 50.747 220.664 50.747C220.664 50.747 221.156 50.7741 221.405 51.3066C221.653 51.8391 221.525 52.1197 221.525 52.1197C221.525 52.1197 221.965 52.29 222.109 52.8269C222.244 53.3306 222.039 53.7075 222.039 53.7075C222.039 53.7075 222.475 54.0426 222.468 54.6017C222.464 55.0079 222.178 55.3418 222.178 55.3418C222.178 55.3418 222.498 55.7484 222.408 56.2017C222.308 56.7071 221.865 56.9096 221.865 56.9096C221.865 56.9096 222.009 57.455 221.869 57.7995C221.729 58.144 221.182 58.4225 221.182 58.4225C221.182 58.4225 221.187 58.9362 220.971 59.2449C220.754 59.5535 220.145 59.7066 220.145 59.7066C220.145 59.7066 220.028 60.2271 219.706 60.4687C219.362 60.727 218.808 60.6654 218.808 60.6654C218.808 60.6654 218.531 61.1005 218.246 61.2093C217.712 61.4126 217.317 61.2225 217.317 61.2225C217.317 61.2225 217.055 61.6038 216.501 61.6859C216.188 61.7322 215.725 61.4584 215.725 61.4584C215.725 61.4584 215.21 61.7631 214.86 61.7197C214.534 61.6794 214.126 61.3101 214.126 61.3101C214.126 61.3101 213.709 61.584 213.133 61.2753C212.781 61.0868 212.574 60.6914 212.574 60.6914C212.574 60.6914 212.049 60.8751 211.586 60.4679C211.123 60.0607 211.206 59.7664 211.206 59.7664C211.206 59.7664 210.668 59.7158 210.334 59.341C210.115 59.0959 210.082 58.5388 210.082 58.5388C210.082 58.5388 209.526 58.2362 209.377 57.8945C209.242 57.5857 209.347 57.0322 209.347 57.0322C209.347 57.0322 208.933 56.7965 208.852 56.2508C208.797 55.8767 209.059 55.3988 209.059 55.3988C209.059 55.3988 208.726 55.0389 208.727 54.6084C208.728 54.1779 209.123 53.7648 209.123 53.7648C209.123 53.7648 208.872 53.2007 208.99 52.8661C209.255 52.1147 209.712 52.1895 209.712 52.1895C209.712 52.1895 209.413 51.6299 209.832 51.2442C210.251 50.8585 210.655 51.0255 210.655 51.0255C210.655 51.0255 210.42 50.4634 210.793 50.0563C211.111 49.7091 211.673 49.8416 211.673 49.8416Z" fill="#1E3A8A"/>
<path d="M221.259 54.1571C221.722 57.286 219.564 60.1977 216.437 60.6606C213.311 61.1236 210.401 58.9624 209.938 55.8336C209.474 52.7048 211.633 49.7931 214.759 49.3301C217.886 48.8672 220.796 51.0283 221.259 54.1571Z" fill="white"/>
<path d="M214.896 50.2223C212.968 50.5078 211.478 51.9001 210.972 53.6601L219.648 52.3754C218.654 50.8374 216.824 49.9368 214.896 50.2223Z" fill="#1E3A8A"/>
<path d="M211.937 58.1163C212.979 59.3368 214.605 60.0101 216.308 59.7579C218.011 59.5057 219.373 58.3899 220.016 56.92L211.937 58.1163Z" fill="#1E3A8A"/>
<path d="M219.73 52.507L210.932 53.8099C210.901 53.9329 210.875 54.0576 210.853 54.1836L219.914 52.842C219.857 52.7275 219.795 52.6157 219.73 52.507Z" fill="#FEBC23"/>
<path d="M220.232 56.32L211.557 57.6048C211.623 57.7084 211.694 57.8091 211.769 57.9068L220.117 56.6705C220.16 56.5555 220.198 56.4386 220.232 56.32Z" fill="#FEBC23"/>
<path d="M212.542 55.4765C212.571 55.6587 212.561 55.8192 212.513 55.958C212.465 56.0967 212.387 56.2092 212.279 56.2955C212.171 56.3812 212.044 56.4358 211.897 56.4593C211.748 56.4829 211.61 56.4704 211.481 56.4218C211.352 56.3731 211.243 56.2904 211.154 56.1735C211.066 56.0566 211.007 55.9073 210.978 55.7257C210.949 55.5435 210.958 55.383 211.006 55.2443C211.055 55.1056 211.132 54.9934 211.24 54.9077C211.347 54.8215 211.475 54.7665 211.623 54.7429C211.771 54.7194 211.909 54.732 212.038 54.7806C212.167 54.8286 212.276 54.9111 212.365 55.028C212.454 55.1448 212.513 55.2943 212.542 55.4765ZM212.184 55.5335C212.165 55.4155 212.132 55.3188 212.084 55.2434C212.036 55.1679 211.977 55.1143 211.907 55.0825C211.836 55.0508 211.758 55.0417 211.673 55.0553C211.588 55.0689 211.517 55.1017 211.46 55.1537C211.403 55.2058 211.363 55.2751 211.34 55.3618C211.319 55.4483 211.317 55.5506 211.336 55.6686C211.355 55.7867 211.388 55.8834 211.436 55.9589C211.484 56.0343 211.543 56.0879 211.613 56.1196C211.684 56.1514 211.762 56.1604 211.847 56.1468C211.932 56.1332 212.003 56.1004 212.06 56.0484C212.117 55.9964 212.157 55.9271 212.179 55.8405C212.201 55.7539 212.203 55.6515 212.184 55.5335Z" fill="#1E3A8A"/>
<path d="M212.577 54.913L212.531 54.6217L213.903 54.4032L213.95 54.6944L213.438 54.7759L213.658 56.1553L213.309 56.211L213.199 55.5212L213.089 54.8315L212.577 54.913Z" fill="#1E3A8A"/>
<path d="M214.395 56.0379L214.129 54.3672L214.482 54.3109L214.592 55.0002L215.309 54.886L215.199 54.1967L215.552 54.1406L215.818 55.8113L215.466 55.8674L215.356 55.1773L214.639 55.2915L214.748 55.9816L214.395 56.0379Z" fill="#1E3A8A"/>
<path d="M216.109 55.7649L215.843 54.0942L216.969 53.9149L217.015 54.2061L216.243 54.3292L216.306 54.7273L217.021 54.6134L217.067 54.9047L216.352 55.0185L216.416 55.4174L217.192 55.2938L217.238 55.5851L216.109 55.7649Z" fill="#1E3A8A"/>
<path d="M217.516 55.5408L217.25 53.8701L217.909 53.7652C218.035 53.7451 218.146 53.7505 218.243 53.7814C218.339 53.8117 218.418 53.8642 218.478 53.9389C218.538 54.0129 218.577 54.1051 218.594 54.2155C218.612 54.3265 218.603 54.4257 218.568 54.5133C218.533 54.6003 218.473 54.6723 218.389 54.7292C218.306 54.786 218.2 54.8246 218.072 54.845L217.63 54.9153L217.585 54.6314L217.969 54.5702C218.037 54.5595 218.091 54.5413 218.133 54.5157C218.175 54.4901 218.203 54.4571 218.219 54.4167C218.236 54.3761 218.239 54.3284 218.231 54.2735C218.222 54.218 218.203 54.173 218.175 54.1385C218.147 54.1039 218.109 54.0804 218.061 54.068C218.013 54.055 217.955 54.0539 217.887 54.0647L217.649 54.1027L217.869 55.4846L217.516 55.5408ZM218.297 54.6368L218.833 55.331L218.443 55.3931L217.916 54.6975L218.297 54.6368Z" fill="#1E3A8A"/>
<path d="M219.74 53.9662C219.723 53.9014 219.687 53.8547 219.632 53.8262C219.576 53.7976 219.506 53.7901 219.421 53.8036C219.364 53.8128 219.316 53.8287 219.279 53.8513C219.242 53.8734 219.215 53.9003 219.198 53.932C219.182 53.9635 219.177 53.9973 219.183 54.0332C219.186 54.0633 219.197 54.0884 219.214 54.1085C219.232 54.1285 219.254 54.1448 219.281 54.1572C219.308 54.1691 219.339 54.1784 219.373 54.1853C219.407 54.1916 219.442 54.1959 219.48 54.1983L219.636 54.2103C219.711 54.215 219.782 54.2261 219.847 54.2436C219.912 54.2611 219.97 54.2861 220.021 54.3187C220.072 54.3513 220.114 54.3926 220.147 54.4425C220.181 54.4924 220.203 54.5521 220.215 54.6216C220.231 54.7239 220.219 54.8167 220.179 54.9C220.14 54.9826 220.075 55.0523 219.985 55.1091C219.895 55.1652 219.782 55.2041 219.646 55.2258C219.511 55.2472 219.391 55.2453 219.284 55.2199C219.178 55.1944 219.09 55.1456 219.021 55.0735C218.953 55.0008 218.908 54.9045 218.886 54.7848L219.228 54.7303C219.24 54.7857 219.264 54.8299 219.298 54.863C219.333 54.8954 219.376 54.9173 219.427 54.9287C219.478 54.9394 219.534 54.94 219.595 54.9303C219.655 54.9208 219.705 54.9038 219.747 54.8794C219.788 54.8549 219.819 54.8252 219.839 54.7903C219.858 54.7554 219.865 54.7178 219.858 54.6775C219.852 54.64 219.836 54.6102 219.81 54.5882C219.784 54.5661 219.748 54.5495 219.703 54.5383C219.658 54.527 219.604 54.5189 219.541 54.5139L219.352 54.4972C219.206 54.4854 219.086 54.4495 218.993 54.3897C218.9 54.3298 218.843 54.2381 218.824 54.1145C218.808 54.0135 218.821 53.9208 218.863 53.8365C218.906 53.7522 218.972 53.6812 219.061 53.6235C219.15 53.5659 219.255 53.5273 219.377 53.5079C219.501 53.4882 219.612 53.4921 219.712 53.5198C219.811 53.5474 219.893 53.5949 219.957 53.6623C220.02 53.7297 220.061 53.813 220.079 53.9122L219.74 53.9662Z" fill="#1E3A8A"/>
<path d="M119.259 172.017L118.987 167.249L118.715 162.481L103.675 161.427L101.178 169.887L100.848 171.005L109.343 171.472L113.348 171.692L119.259 172.017Z" fill="#FFF621"/>
<path d="M118.715 162.481L118.987 167.249L119.259 172.017L121.243 171.026L123.124 170.086L121.75 161.48L118.715 162.481Z" fill="#DEAC17"/>
<path d="M103.675 161.427L118.715 162.481L121.75 161.48L107.224 160.519L103.675 161.427Z" fill="#EEC340"/>
<path d="M111.094 172.055L126.792 172.918L131.206 171.574L121.243 171.026L119.259 172.017L113.348 171.692L111.094 172.055Z" fill="#EEC340"/>
<path d="M92.4232 171.028L108.024 171.886L109.343 171.472L100.848 171.005L101.178 169.887L97.228 169.67L92.4232 171.028Z" fill="#EEC340"/>
<path fill-rule="evenodd" clip-rule="evenodd" d="M92.4232 171.028L108.024 171.886L108.718 182.117C98.9647 181.986 93.624 180.618 89.9548 179.19L92.4232 171.028Z" fill="#FFF621"/>
<path d="M109.343 171.472L108.024 171.886L108.718 182.117L109.906 177.086L111.094 172.055L113.348 171.692L109.343 171.472Z" fill="#DAAA1B"/>
<path fill-rule="evenodd" clip-rule="evenodd" d="M126.792 172.918L111.094 172.055L109.906 177.086L108.718 182.117C110.975 182.249 113.417 182.33 116.053 182.341C119.869 182.357 121.807 182.297 127.214 181.29L127.153 180.067L127.055 178.14L126.792 172.918Z" fill="#FFF621"/>
<path fill-rule="evenodd" clip-rule="evenodd" d="M132.657 179.971L131.206 171.574L126.792 172.918L127.055 178.14L127.153 180.067L127.214 181.29C129.45 180.943 131.439 180.506 132.657 179.971Z" fill="#DEAC17"/>
<path d="M103.675 161.427L118.715 162.481M103.675 161.427L107.224 160.519L121.75 161.48M103.675 161.427L101.178 169.887M119.259 172.017L123.124 170.086M119.259 172.017L113.348 171.692M119.259 172.017L121.243 171.026M119.259 172.017L118.987 167.249L118.715 162.481M118.715 162.481L121.75 161.48M121.75 161.48L123.124 170.086M123.124 170.086L121.243 171.026M92.4232 171.028L108.024 171.886M92.4232 171.028L97.228 169.67L101.178 169.887M92.4232 171.028L89.9548 179.19C93.624 180.618 98.9647 181.986 108.718 182.117M108.024 171.886L109.343 171.472M108.024 171.886L108.718 182.117M101.178 169.887L100.848 171.005L109.343 171.472M111.094 172.055L126.792 172.918M111.094 172.055L113.348 171.692M111.094 172.055L109.906 177.086L108.718 182.117M126.792 172.918L131.206 171.574M126.792 172.918L127.055 178.14L127.153 180.067L127.214 181.29M121.243 171.026L131.206 171.574M131.206 171.574L132.657 179.971C131.439 180.506 129.45 180.943 127.214 181.29M109.343 171.472L113.348 171.692M108.718 182.117C108.75 182.119 108.686 182.115 108.718 182.117ZM108.718 182.117C110.975 182.249 113.417 182.33 116.053 182.341C119.869 182.357 121.807 182.297 127.214 181.29" stroke="black" stroke-width="0.0858382"/>
<path d="M219.714 166.538L219.169 157.002L204.129 155.947L201.632 164.408L201.302 165.526L209.797 165.993L213.803 166.213L219.714 166.538Z" fill="#D9D9D9"/>
<path d="M219.169 157.002L219.714 166.538L221.697 165.547L223.578 164.607L222.205 156.001L219.169 157.002Z" fill="#C0C0C0"/>
<path d="M204.129 155.947L219.169 157.002L222.205 156.001L207.678 155.039L204.129 155.947Z" fill="#C5C5C5"/>
<path d="M211.548 166.575L227.246 167.439L231.661 166.095L221.697 165.547L219.714 166.538L213.803 166.213L211.548 166.575Z" fill="#C5C5C5"/>
<path d="M192.877 165.549L208.479 166.407L209.797 165.993L201.302 165.526L201.632 164.408L197.682 164.191L192.877 165.549Z" fill="#C5C5C5"/>
<path fill-rule="evenodd" clip-rule="evenodd" d="M192.877 165.549L208.479 166.407L209.172 176.638C199.419 176.507 194.078 175.139 190.409 173.71L192.877 165.549Z" fill="#D9D9D9"/>
<path d="M209.797 165.993L208.479 166.407L209.172 176.638L210.36 171.607L211.548 166.575L213.803 166.213L209.797 165.993Z" fill="#B5B5B5"/>
<path fill-rule="evenodd" clip-rule="evenodd" d="M227.246 167.439L211.548 166.575L210.36 171.607L209.172 176.638C211.429 176.77 213.871 176.851 216.507 176.862C220.324 176.877 222.261 176.818 227.669 175.81L227.607 174.588L227.51 172.661L227.246 167.439Z" fill="#D9D9D9"/>
<path fill-rule="evenodd" clip-rule="evenodd" d="M233.111 174.491L231.661 166.095L227.246 167.439L227.51 172.661L227.607 174.588L227.669 175.81C229.904 175.463 231.893 175.027 233.111 174.491Z" fill="#C0C0C0"/>
<path d="M204.129 155.947L219.169 157.002M204.129 155.947L207.678 155.039L222.205 156.001M204.129 155.947L201.632 164.408M219.714 166.538L219.169 157.002M219.714 166.538L223.578 164.607M219.714 166.538L213.803 166.213M219.714 166.538L221.697 165.547M219.169 157.002L222.205 156.001M222.205 156.001L223.578 164.607M223.578 164.607L221.697 165.547M192.877 165.549L208.479 166.407M192.877 165.549L197.682 164.191L201.632 164.408M192.877 165.549L190.409 173.71C194.078 175.139 199.419 176.507 209.172 176.638M208.479 166.407L209.797 165.993M208.479 166.407L209.172 176.638M201.632 164.408L201.302 165.526L209.797 165.993M211.548 166.575L227.246 167.439M211.548 166.575L213.803 166.213M211.548 166.575L210.36 171.607L209.172 176.638M227.246 167.439L231.661 166.095M227.246 167.439L227.51 172.661L227.607 174.588L227.669 175.81M221.697 165.547L231.661 166.095M231.661 166.095L233.111 174.491C231.893 175.027 229.904 175.463 227.669 175.81M209.797 165.993L213.803 166.213M209.172 176.638C209.205 176.64 209.14 176.636 209.172 176.638ZM209.172 176.638C211.429 176.77 213.871 176.851 216.507 176.862C220.324 176.877 222.261 176.818 227.669 175.81" stroke="black" stroke-width="0.0858382"/>
<path d="M103.754 165.455L104.917 165.519L104.909 165.67L104.426 165.644L104.351 167.006L104.154 166.995L104.229 165.633L103.745 165.606L103.754 165.455ZM106.071 167.101L105.852 167.089L105.327 166.374L105.29 167.058L105.093 167.047L105.175 165.554C105.312 165.535 105.429 165.528 105.525 165.533C105.693 165.542 105.823 165.588 105.914 165.671C106.005 165.753 106.047 165.854 106.04 165.974C106.033 166.093 105.985 166.19 105.895 166.265C105.805 166.339 105.688 166.379 105.543 166.383L106.071 167.101ZM105.507 165.684C105.449 165.68 105.402 165.684 105.365 165.695L105.336 166.222L105.363 166.224C105.665 166.24 105.821 166.156 105.831 165.97C105.835 165.891 105.805 165.824 105.74 165.771C105.675 165.718 105.597 165.689 105.507 165.684ZM107.074 166.715L106.478 166.682L106.291 167.113L106.108 167.103L106.759 165.62L106.922 165.629L107.407 167.174L107.213 167.163L107.074 166.715ZM107.026 166.559L106.82 165.893L106.542 166.533L107.026 166.559ZM108.874 165.737L108.791 167.25L108.594 167.239L107.935 166.066L107.873 167.2L107.676 167.189L107.759 165.675L107.956 165.686L108.615 166.861L108.677 165.726L108.874 165.737ZM109.174 166.995C109.194 167.011 109.211 167.026 109.227 167.041C109.244 167.055 109.263 167.07 109.284 167.083C109.305 167.096 109.327 167.107 109.35 167.117C109.399 167.14 109.456 167.154 109.519 167.157C109.625 167.163 109.699 167.141 109.742 167.092C109.778 167.05 109.798 167.007 109.8 166.964C109.802 166.921 109.8 166.886 109.793 166.861C109.778 166.817 109.747 166.775 109.699 166.735C109.679 166.719 109.655 166.702 109.627 166.684L109.453 166.586C109.388 166.546 109.339 166.508 109.306 166.472C109.274 166.436 109.249 166.403 109.233 166.373C109.198 166.306 109.184 166.222 109.189 166.119C109.195 166.016 109.237 165.928 109.316 165.856C109.395 165.784 109.495 165.751 109.614 165.758C109.69 165.762 109.758 165.775 109.817 165.798C109.877 165.821 109.924 165.848 109.958 165.877L109.908 166.025C109.826 165.953 109.73 165.915 109.62 165.909C109.551 165.905 109.496 165.925 109.454 165.968C109.413 166.012 109.391 166.07 109.387 166.141C109.385 166.174 109.389 166.204 109.398 166.232C109.414 166.28 109.449 166.325 109.504 166.366C109.526 166.383 109.556 166.402 109.595 166.421L109.761 166.518C109.791 166.536 109.817 166.554 109.839 166.572C109.862 166.59 109.885 166.61 109.907 166.635C109.976 166.712 110.007 166.809 110.001 166.925C109.994 167.04 109.95 167.135 109.866 167.21C109.783 167.285 109.678 167.319 109.551 167.312C109.411 167.304 109.298 167.273 109.211 167.219C109.164 167.19 109.126 167.165 109.099 167.144L109.174 166.995ZM110.363 165.839C110.505 165.82 110.623 165.813 110.715 165.818C110.809 165.823 110.888 165.837 110.953 165.858C111.019 165.878 111.072 165.903 111.112 165.934C111.152 165.965 111.185 166 111.21 166.041C111.256 166.116 111.276 166.202 111.271 166.3C111.263 166.432 111.207 166.539 111.1 166.62C110.994 166.7 110.86 166.735 110.697 166.726L110.512 166.716L110.478 167.343L110.281 167.332L110.363 165.839ZM110.553 165.981L110.521 166.564L110.592 166.568C110.753 166.577 110.87 166.56 110.943 166.516C111.016 166.472 111.056 166.4 111.061 166.3C111.067 166.199 111.041 166.121 110.986 166.065C110.929 166.008 110.843 165.977 110.727 165.971C110.664 165.967 110.606 165.971 110.553 165.981ZM111.696 166.707L111.666 167.256L112.334 167.292L112.325 167.445L111.46 167.397L111.543 165.884L112.408 165.931L112.4 166.082L111.732 166.046L111.704 166.555L112.159 166.58L112.151 166.732L111.696 166.707ZM113.611 167.515L113.393 167.503L112.868 166.789L112.83 167.472L112.633 167.462L112.715 165.969C112.852 165.949 112.969 165.942 113.066 165.948C113.234 165.957 113.364 166.003 113.454 166.086C113.545 166.168 113.587 166.269 113.581 166.388C113.574 166.508 113.526 166.605 113.436 166.68C113.346 166.754 113.228 166.793 113.083 166.798L113.611 167.515ZM113.048 166.098C112.99 166.095 112.942 166.099 112.905 166.11L112.876 166.637L112.903 166.638C113.205 166.655 113.361 166.57 113.371 166.385C113.376 166.306 113.345 166.239 113.281 166.185C113.215 166.132 113.138 166.103 113.048 166.098ZM114.007 166.834L113.977 167.383L114.645 167.419L114.636 167.572L113.771 167.524L113.855 166.011L114.72 166.058L114.711 166.209L114.043 166.173L114.015 166.682L114.47 166.707L114.462 166.859L114.007 166.834ZM116.143 166.136L116.06 167.65L115.863 167.639L115.204 166.466L115.141 167.599L114.944 167.589L115.028 166.075L115.224 166.086L115.883 167.261L115.946 166.126L116.143 166.136ZM116.402 166.151L117.565 166.215L117.557 166.366L117.074 166.339L116.999 167.702L116.802 167.691L116.877 166.329L116.393 166.302L116.402 166.151Z" fill="#A57C00"/>
<path d="M94.4639 177.187L94.1945 177.175L93.5369 176.305L93.5017 177.146L93.2592 177.136L93.336 175.298C93.5044 175.272 93.648 175.261 93.7669 175.266C93.9741 175.275 94.1343 175.329 94.2473 175.43C94.3604 175.529 94.4139 175.653 94.4077 175.8C94.4015 175.948 94.3437 176.068 94.2342 176.161C94.1247 176.254 93.9808 176.304 93.8024 176.312L94.4639 177.187ZM93.747 175.452C93.6756 175.449 93.6172 175.454 93.5718 175.469L93.5447 176.117L93.5782 176.119C93.9499 176.134 94.1405 176.028 94.15 175.799C94.1541 175.701 94.1159 175.62 94.0354 175.555C93.9539 175.491 93.8578 175.456 93.747 175.452ZM94.9395 176.342L94.9113 177.017L95.7341 177.052L95.7262 177.239L94.6609 177.195L94.7387 175.331L95.8041 175.375L95.7963 175.562L94.9735 175.527L94.9473 176.154L95.5075 176.178L95.4996 176.365L94.9395 176.342ZM96.1055 177.255L96.1833 175.391L96.4259 175.401L96.3558 177.078L97.1786 177.112L97.1708 177.3L96.1055 177.255ZM98.4906 176.812L97.7562 176.782L97.5326 177.315L97.3075 177.305L98.0849 175.471L98.2859 175.479L98.9075 177.372L98.669 177.362L98.4906 176.812ZM98.4287 176.622L98.1648 175.805L97.8324 176.597L98.4287 176.622ZM99.5589 175.532L99.481 177.396L99.2385 177.386L99.3164 175.522L99.5589 175.532ZM100.996 176.917L100.262 176.886L100.039 177.419L99.8134 177.41L100.591 175.575L100.792 175.584L101.413 177.477L101.175 177.467L100.996 176.917ZM100.935 176.727L100.671 175.91L100.338 176.702L100.935 176.727ZM102.057 175.823L102.031 176.435L102.12 176.439C102.269 176.445 102.384 176.422 102.465 176.369C102.547 176.316 102.59 176.236 102.595 176.13C102.6 175.999 102.539 175.905 102.412 175.849C102.353 175.823 102.292 175.809 102.228 175.806C102.166 175.803 102.109 175.809 102.057 175.823ZM102.708 177.007C102.718 176.771 102.517 176.644 102.104 176.626L102.024 176.623L101.995 177.313C102.042 177.331 102.104 177.342 102.179 177.345C102.347 177.352 102.476 177.327 102.566 177.269C102.656 177.21 102.703 177.123 102.708 177.007ZM102.842 177.306C102.706 177.47 102.48 177.546 102.161 177.532C102.004 177.526 101.865 177.506 101.745 177.473L101.821 175.652C101.971 175.625 102.125 175.615 102.284 175.622C102.443 175.628 102.579 175.673 102.692 175.756C102.806 175.838 102.86 175.943 102.855 176.069C102.85 176.194 102.815 176.295 102.75 176.369C102.685 176.443 102.604 176.491 102.506 176.513C102.74 176.554 102.883 176.656 102.935 176.818C102.953 176.869 102.96 176.925 102.957 176.987C102.952 177.114 102.914 177.22 102.842 177.306ZM103.24 177.553L103.318 175.689L103.56 175.699L103.49 177.376L104.313 177.41L104.305 177.598L103.24 177.553ZM104.872 176.757L104.844 177.432L105.667 177.467L105.659 177.654L104.593 177.61L104.671 175.746L105.737 175.79L105.729 175.976L104.906 175.942L104.88 176.569L105.44 176.593L105.432 176.78L104.872 176.757Z" fill="#A57C00"/>
<path d="M112.037 178.03C112.184 178.036 112.328 177.991 112.468 177.893L112.573 178.047C112.481 178.108 112.406 178.148 112.347 178.168C112.254 178.198 112.127 178.21 111.966 178.203C111.805 178.197 111.665 178.153 111.545 178.072C111.425 177.992 111.335 177.883 111.276 177.745C111.218 177.607 111.192 177.449 111.199 177.273C111.207 177.096 111.245 176.942 111.316 176.809C111.386 176.677 111.484 176.576 111.61 176.506C111.736 176.436 111.882 176.404 112.046 176.411C112.202 176.417 112.312 176.434 112.373 176.46C112.436 176.486 112.483 176.509 112.514 176.53C112.545 176.549 112.585 176.578 112.632 176.616L112.516 176.761C112.383 176.653 112.244 176.595 112.097 176.589L112.082 176.588C111.989 176.585 111.9 176.601 111.816 176.638C111.661 176.705 111.55 176.831 111.482 177.016C111.45 177.102 111.432 177.191 111.428 177.283C111.424 177.376 111.434 177.467 111.458 177.554C111.483 177.641 111.519 177.719 111.567 177.789C111.672 177.941 111.824 178.021 112.022 178.029L112.037 178.03ZM113.02 176.704C113.094 176.629 113.186 176.571 113.297 176.531C113.407 176.49 113.524 176.472 113.645 176.478C113.976 176.491 114.214 176.623 114.358 176.872C114.444 177.024 114.482 177.2 114.474 177.401C114.465 177.604 114.41 177.778 114.31 177.924C114.202 178.08 114.062 178.184 113.889 178.236C113.796 178.264 113.689 178.275 113.566 178.27C113.445 178.265 113.33 178.237 113.223 178.187C113.115 178.135 113.027 178.067 112.96 177.983C112.824 177.809 112.762 177.591 112.773 177.33C112.783 177.072 112.866 176.863 113.02 176.704ZM113.988 176.764C113.897 176.694 113.787 176.657 113.658 176.652C113.53 176.646 113.417 176.673 113.32 176.732C113.128 176.849 113.026 177.052 113.014 177.34C113.002 177.632 113.085 177.846 113.265 177.982C113.356 178.051 113.458 178.088 113.571 178.093C113.78 178.102 113.942 178.035 114.058 177.894C114.168 177.759 114.228 177.591 114.236 177.391C114.248 177.108 114.165 176.899 113.988 176.764ZM116.08 176.602L116.007 178.349L115.78 178.34L115.001 176.996L114.947 178.305L114.719 178.296L114.792 176.548L115.02 176.558L115.798 177.903L115.853 176.592L116.08 176.602ZM116.445 178.049C116.468 178.067 116.488 178.084 116.507 178.101C116.526 178.118 116.548 178.134 116.573 178.149C116.597 178.163 116.623 178.176 116.649 178.187C116.707 178.213 116.772 178.228 116.845 178.231C116.967 178.236 117.053 178.21 117.101 178.152C117.143 178.103 117.165 178.053 117.167 178.004C117.169 177.954 117.165 177.914 117.157 177.885C117.139 177.835 117.103 177.787 117.047 177.741C117.023 177.723 116.995 177.704 116.962 177.683L116.761 177.573C116.685 177.528 116.628 177.485 116.59 177.444C116.551 177.403 116.523 177.365 116.504 177.331C116.463 177.254 116.444 177.157 116.449 177.038C116.454 176.919 116.502 176.817 116.592 176.733C116.682 176.648 116.796 176.609 116.934 176.615C117.022 176.619 117.1 176.633 117.169 176.659C117.238 176.684 117.293 176.714 117.332 176.747L117.277 176.919C117.181 176.838 117.07 176.794 116.943 176.789C116.864 176.786 116.8 176.809 116.753 176.86C116.706 176.911 116.681 176.978 116.678 177.061C116.676 177.099 116.681 177.133 116.692 177.165C116.711 177.221 116.752 177.272 116.817 177.319C116.842 177.338 116.877 177.359 116.922 177.381L117.115 177.49C117.15 177.51 117.18 177.531 117.206 177.551C117.233 177.571 117.259 177.595 117.285 177.623C117.366 177.711 117.403 177.822 117.398 177.956C117.392 178.089 117.342 178.199 117.247 178.287C117.152 178.374 117.031 178.415 116.884 178.409C116.723 178.402 116.592 178.368 116.491 178.307C116.436 178.274 116.393 178.246 116.361 178.222L116.445 178.049ZM118.027 176.683L117.954 178.431L117.727 178.421L117.8 176.674L118.027 176.683ZM118.392 178.131C118.415 178.148 118.436 178.166 118.454 178.182C118.474 178.199 118.496 178.215 118.52 178.23C118.545 178.245 118.57 178.258 118.597 178.269C118.654 178.295 118.72 178.309 118.792 178.312C118.915 178.317 119 178.291 119.049 178.234C119.09 178.184 119.112 178.135 119.114 178.085C119.116 178.035 119.113 177.995 119.104 177.967C119.087 177.916 119.05 177.868 118.994 177.822C118.97 177.805 118.942 177.785 118.91 177.765L118.708 177.654C118.633 177.609 118.576 177.566 118.537 177.525C118.499 177.484 118.47 177.446 118.451 177.412C118.41 177.336 118.392 177.238 118.397 177.119C118.402 177 118.449 176.898 118.539 176.814C118.629 176.73 118.743 176.69 118.881 176.696C118.969 176.7 119.047 176.715 119.116 176.74C119.185 176.766 119.24 176.795 119.28 176.829L119.225 177C119.128 176.919 119.017 176.876 118.89 176.87C118.811 176.867 118.747 176.891 118.7 176.942C118.653 176.993 118.628 177.059 118.625 177.142C118.623 177.18 118.628 177.215 118.639 177.246C118.658 177.302 118.699 177.354 118.764 177.4C118.789 177.419 118.824 177.44 118.869 177.462L119.062 177.571C119.097 177.592 119.127 177.612 119.153 177.633C119.18 177.652 119.206 177.676 119.232 177.704C119.313 177.792 119.351 177.903 119.345 178.037C119.339 178.17 119.289 178.281 119.194 178.368C119.099 178.455 118.978 178.496 118.832 178.49C118.671 178.483 118.54 178.449 118.438 178.388C118.383 178.356 118.34 178.327 118.308 178.303L118.392 178.131ZM119.593 176.749L120.936 176.805L120.928 176.979L120.371 176.956L120.305 178.529L120.077 178.519L120.143 176.947L119.585 176.923L119.593 176.749ZM121.423 177.765L121.396 178.398L122.168 178.431L122.16 178.606L121.162 178.565L121.235 176.817L122.233 176.859L122.226 177.034L121.455 177.001L121.43 177.589L121.955 177.611L121.948 177.787L121.423 177.765ZM123.877 176.928L123.804 178.675L123.576 178.666L122.798 177.322L122.743 178.631L122.516 178.621L122.589 176.874L122.816 176.883L123.595 178.228L123.649 176.918L123.877 176.928ZM124.176 176.94L125.519 176.996L125.511 177.171L124.954 177.147L124.888 178.72L124.66 178.711L124.726 177.138L124.168 177.115L124.176 176.94Z" fill="#A57C00"/>
<path opacity="0.74" d="M194.021 171.006L193.988 171.681L194.81 171.722L194.801 171.91L193.736 171.857L193.829 169.993L194.894 170.046L194.884 170.233L194.062 170.192L194.031 170.819L194.591 170.846L194.581 171.034L194.021 171.006ZM195.176 170.059L195.459 170.073L195.883 170.817L196.374 170.12L196.626 170.132L195.999 171.021L196.552 171.995L196.268 171.981L195.825 171.201L195.303 171.941L195.051 171.929L195.709 170.996L195.176 170.059ZM196.833 170.143L198.265 170.214L198.256 170.4L197.661 170.371L197.578 172.048L197.336 172.036L197.419 170.359L196.824 170.329L196.833 170.143ZM199.696 172.153L199.427 172.14L198.776 171.264L198.734 172.105L198.492 172.093L198.583 170.255C198.752 170.231 198.895 170.221 199.014 170.227C199.221 170.237 199.381 170.293 199.493 170.394C199.605 170.495 199.658 170.619 199.651 170.766C199.643 170.914 199.585 171.033 199.474 171.125C199.364 171.218 199.22 171.267 199.041 171.273L199.696 172.153ZM198.993 170.413C198.921 170.409 198.863 170.414 198.817 170.428L198.785 171.076L198.819 171.078C199.19 171.097 199.382 170.991 199.393 170.763C199.398 170.665 199.36 170.584 199.28 170.518C199.199 170.453 199.103 170.418 198.993 170.413ZM200.928 171.672L200.194 171.635L199.966 172.166L199.741 172.155L200.533 170.327L200.734 170.337L201.341 172.235L201.102 172.223L200.928 171.672ZM200.868 171.481L200.611 170.662L200.272 171.451L200.868 171.481ZM202.737 171.439L202.694 172.302L202.451 172.29L202.544 170.427L203.609 170.479L203.6 170.666L202.777 170.625L202.746 171.252L203.306 171.28L203.297 171.467L202.737 171.439ZM204.076 171.506L204.043 172.181L204.865 172.222L204.856 172.409L203.791 172.356L203.884 170.493L204.948 170.546L204.939 170.732L204.117 170.691L204.086 171.318L204.646 171.346L204.636 171.534L204.076 171.506ZM205.52 171.578L205.487 172.253L206.309 172.294L206.3 172.481L205.235 172.428L205.328 170.565L206.393 170.618L206.383 170.804L205.561 170.763L205.53 171.39L206.09 171.418L206.08 171.605L205.52 171.578Z" fill="black"/>
<path opacity="0.74" d="M205.395 161.902C205.004 161.883 204.817 161.695 204.835 161.339L204.89 160.222L205.102 160.232L205.05 161.293C205.042 161.439 205.071 161.548 205.134 161.62C205.198 161.692 205.285 161.731 205.395 161.737C205.618 161.748 205.737 161.601 205.752 161.296L205.803 160.267L206.004 160.277L205.95 161.358C205.941 161.53 205.889 161.666 205.791 161.766C205.694 161.865 205.562 161.911 205.395 161.902ZM207.627 160.358L207.546 161.988L207.334 161.978L206.618 160.718L206.557 161.939L206.345 161.928L206.426 160.298L206.638 160.309L207.354 161.57L207.415 160.347L207.627 160.358ZM209.023 162.061L208.787 162.05L208.218 161.284L208.181 162.02L207.969 162.009L208.049 160.401C208.197 160.379 208.322 160.371 208.426 160.376C208.608 160.385 208.747 160.434 208.846 160.523C208.944 160.611 208.99 160.719 208.983 160.848C208.977 160.977 208.926 161.082 208.829 161.162C208.733 161.243 208.606 161.286 208.45 161.292L209.023 162.061ZM208.408 160.539C208.345 160.536 208.294 160.54 208.254 160.552L208.226 161.119L208.255 161.121C208.581 161.137 208.748 161.045 208.758 160.845C208.762 160.76 208.729 160.689 208.659 160.631C208.589 160.574 208.505 160.543 208.408 160.539ZM209.445 161.326L209.416 161.916L210.135 161.952L210.127 162.116L209.195 162.07L209.276 160.44L210.208 160.486L210.2 160.649L209.48 160.613L209.453 161.162L209.943 161.186L209.935 161.35L209.445 161.326ZM210.459 162.133L210.54 160.502L210.752 160.513L210.679 161.979L211.399 162.015L211.391 162.179L210.459 162.133ZM211.936 160.572L211.855 162.202L211.643 162.192L211.724 160.561L211.936 160.572ZM213.184 161.794L212.542 161.762L212.342 162.226L212.146 162.217L212.838 160.617L213.014 160.625L213.545 162.286L213.336 162.276L213.184 161.794ZM213.131 161.626L212.906 160.91L212.61 161.601L213.131 161.626ZM214.12 160.844L214.093 161.379L214.17 161.383C214.301 161.39 214.402 161.37 214.473 161.324C214.545 161.278 214.583 161.209 214.588 161.116C214.594 161.001 214.541 160.919 214.43 160.868C214.378 160.846 214.325 160.833 214.27 160.83C214.215 160.827 214.165 160.832 214.12 160.844ZM214.681 161.884C214.692 161.677 214.516 161.565 214.155 161.547L214.085 161.543L214.055 162.147C214.096 162.163 214.15 162.173 214.216 162.176C214.362 162.183 214.476 162.162 214.555 162.112C214.634 162.061 214.676 161.985 214.681 161.884ZM214.796 162.146C214.676 162.289 214.477 162.354 214.199 162.34C214.062 162.333 213.94 162.315 213.835 162.285L213.914 160.692C214.046 160.67 214.181 160.662 214.32 160.669C214.459 160.676 214.578 160.716 214.676 160.789C214.775 160.862 214.822 160.954 214.816 161.064C214.811 161.174 214.779 161.261 214.722 161.326C214.665 161.39 214.593 161.432 214.508 161.45C214.712 161.488 214.836 161.578 214.881 161.72C214.896 161.765 214.902 161.814 214.899 161.868C214.894 161.979 214.86 162.072 214.796 162.146ZM215.143 162.366L215.224 160.735L215.436 160.746L215.363 162.212L216.083 162.248L216.075 162.412L215.143 162.366ZM216.576 161.68L216.547 162.271L217.267 162.307L217.258 162.471L216.327 162.424L216.408 160.794L217.339 160.84L217.331 161.003L216.612 160.967L216.584 161.516L217.074 161.54L217.066 161.704L216.576 161.68Z" fill="black"/>
<path opacity="0.74" d="M213.349 171.993L212.614 171.961L212.39 172.493L212.164 172.483L212.946 170.65L213.147 170.659L213.764 172.553L213.526 172.543L213.349 171.993ZM213.287 171.802L213.025 170.985L212.691 171.776L213.287 171.802ZM215.065 172.276L215.709 170.77L215.934 170.78L216.084 172.655L215.845 172.645L215.74 171.245L215.169 172.615L214.947 172.605L214.453 171.124L214.215 172.573L214 172.564L214.314 170.709L214.552 170.719L215.065 172.276ZM216.788 171.005L216.762 171.618L216.85 171.621C216.999 171.628 217.114 171.605 217.195 171.552C217.277 171.499 217.321 171.42 217.325 171.313C217.331 171.182 217.27 171.088 217.143 171.032C217.084 171.006 217.023 170.991 216.96 170.989C216.897 170.986 216.84 170.991 216.788 171.005ZM217.437 172.191C217.448 171.954 217.246 171.827 216.834 171.809L216.753 171.805L216.723 172.495C216.771 172.513 216.832 172.524 216.907 172.527C217.075 172.535 217.204 172.51 217.294 172.452C217.384 172.393 217.432 172.306 217.437 172.191ZM217.57 172.489C217.434 172.653 217.207 172.729 216.889 172.715C216.732 172.708 216.593 172.688 216.473 172.655L216.553 170.834C216.703 170.807 216.857 170.797 217.016 170.804C217.175 170.811 217.311 170.856 217.424 170.939C217.537 171.022 217.591 171.126 217.586 171.252C217.58 171.378 217.545 171.478 217.48 171.552C217.415 171.627 217.334 171.674 217.236 171.696C217.47 171.738 217.612 171.84 217.664 172.002C217.682 172.053 217.689 172.109 217.686 172.171C217.681 172.298 217.642 172.404 217.57 172.489ZM218.292 170.885L218.21 172.748L217.968 172.738L218.049 170.874L218.292 170.885ZM218.559 171.829C218.568 171.641 218.614 171.476 218.698 171.336C218.781 171.195 218.897 171.088 219.047 171.014C219.197 170.94 219.371 170.908 219.567 170.916C219.736 170.924 219.858 170.943 219.934 170.974C220.01 171.004 220.065 171.03 220.1 171.051C220.135 171.071 220.181 171.101 220.237 171.14L220.135 171.314C219.949 171.183 219.759 171.113 219.564 171.104C219.455 171.099 219.354 171.116 219.261 171.155C219.084 171.229 218.956 171.362 218.879 171.555C218.842 171.645 218.821 171.735 218.817 171.824C218.806 172.09 218.879 172.302 219.036 172.462C219.141 172.573 219.275 172.631 219.438 172.638L219.454 172.639C219.599 172.645 219.747 172.618 219.899 172.558L219.919 172.117L219.521 172.1L219.529 171.913L220.169 171.94L220.136 172.664C219.94 172.784 219.705 172.838 219.431 172.826C219.157 172.814 218.94 172.716 218.779 172.533C218.62 172.35 218.547 172.115 218.559 171.829ZM220.744 171.238C220.823 171.157 220.921 171.096 221.039 171.053C221.158 171.01 221.281 170.991 221.411 170.997C221.764 171.013 222.017 171.153 222.171 171.42C222.262 171.581 222.302 171.769 222.293 171.984C222.283 172.201 222.224 172.386 222.117 172.541C222.002 172.708 221.852 172.819 221.667 172.873C221.568 172.903 221.454 172.915 221.323 172.909C221.194 172.903 221.071 172.873 220.957 172.819C220.842 172.764 220.749 172.691 220.677 172.601C220.533 172.415 220.466 172.183 220.478 171.904C220.491 171.629 220.579 171.407 220.744 171.238ZM221.776 171.303C221.679 171.229 221.562 171.189 221.424 171.183C221.288 171.177 221.167 171.205 221.063 171.268C220.858 171.392 220.749 171.608 220.736 171.915C220.722 172.227 220.811 172.456 221.002 172.601C221.099 172.675 221.208 172.715 221.329 172.72C221.551 172.73 221.724 172.659 221.848 172.509C221.966 172.365 222.03 172.186 222.039 171.972C222.053 171.671 221.965 171.448 221.776 171.303ZM223.223 172.992C222.776 172.973 222.561 172.759 222.579 172.352L222.635 171.075L222.877 171.086L222.824 172.298C222.817 172.465 222.85 172.59 222.923 172.672C222.996 172.754 223.096 172.797 223.222 172.803C223.477 172.814 223.612 172.646 223.627 172.297L223.678 171.121L223.908 171.131L223.853 172.366C223.845 172.564 223.785 172.719 223.674 172.834C223.564 172.948 223.413 173.001 223.223 172.992ZM224.292 172.675C224.317 172.694 224.339 172.713 224.358 172.731C224.379 172.749 224.402 172.766 224.429 172.782C224.455 172.797 224.482 172.811 224.51 172.823C224.571 172.851 224.641 172.867 224.719 172.87C224.849 172.876 224.94 172.848 224.992 172.787C225.037 172.734 225.06 172.681 225.062 172.629C225.065 172.575 225.061 172.533 225.052 172.502C225.033 172.448 224.995 172.397 224.935 172.348C224.91 172.329 224.88 172.308 224.845 172.286L224.63 172.168C224.55 172.12 224.489 172.074 224.448 172.03C224.407 171.986 224.377 171.946 224.357 171.909C224.313 171.827 224.294 171.723 224.299 171.596C224.305 171.469 224.356 171.361 224.452 171.271C224.548 171.182 224.67 171.14 224.817 171.146C224.911 171.151 224.994 171.166 225.067 171.194C225.141 171.221 225.2 171.253 225.242 171.289L225.183 171.471C225.08 171.384 224.961 171.338 224.826 171.332C224.742 171.328 224.674 171.354 224.623 171.408C224.573 171.462 224.546 171.533 224.543 171.622C224.541 171.662 224.546 171.699 224.558 171.732C224.578 171.792 224.622 171.847 224.69 171.897C224.717 171.918 224.755 171.94 224.803 171.963L225.008 172.08C225.045 172.102 225.077 172.124 225.105 172.146C225.134 172.167 225.161 172.192 225.189 172.222C225.275 172.316 225.315 172.435 225.309 172.578C225.303 172.72 225.249 172.837 225.147 172.93C225.045 173.023 224.916 173.067 224.76 173.06C224.589 173.052 224.449 173.016 224.341 172.95C224.282 172.915 224.236 172.885 224.202 172.859L224.292 172.675Z" fill="black"/>
</g>
<defs>
<clipPath id="clip0_2353_296">
<rect width="313.699" height="241.226" fill="white" transform="translate(13.7924 0.405029) rotate(3.14786)"/>
</clipPath>
</defs>
</svg>
