<svg width="10327" height="9456" viewBox="0 0 10327 9456" fill="none" xmlns="http://www.w3.org/2000/svg">
<g clip-path="url(#clip0_47_6)">
<rect width="10327" height="9456" fill="white"/>
<path d="M4690.52 6299.56C4817.76 6287.24 4942.13 6236.67 5004.02 6121.27C5033.78 6065.77 5071.02 5979.27 5058.52 5868.31C4964.26 5887.76 4857.66 5882.07 4749.52 5841.77C4491.76 5745.74 4350.69 5576.07 4275.21 5485.31C4265.41 5473.52 4256.72 5463.06 4249.02 5454.27C4111.02 5494.27 4552.52 6138.77 5020.02 5929.77C5031.02 6045.77 4907.72 6265.56 4690.52 6299.56Z" fill="black"/>
<path d="M1678.23 6944.27C1650.18 6988.54 1635.52 7042.78 1713.52 7136.91L1845.02 6956.14C1781.87 6948.32 1725.02 6944.71 1678.23 6944.27Z" fill="black"/>
<path d="M6805.52 7314.27C6739.76 7322.19 6674.65 7335.67 6611.02 7353.28L6673.68 7504C6673.77 7503.95 6673.85 7503.9 6673.94 7503.84C6701.96 7487.06 6774.01 7443.48 6805.52 7412.77V7314.27Z" fill="black"/>
<path d="M5837.02 7838.77C5837.02 7838.77 5855.78 7851.44 5876.5 7868.74C5876.99 7869.16 5877.49 7869.58 5877.99 7870C5939.99 7697.14 6388.18 7459.61 6611.02 7353.28C6260.96 7450.15 5955.91 7672.05 5837.02 7781.77V7838.77Z" fill="black"/>
<path d="M5128.52 7971.27C5128.52 7922.77 5038.02 7928.27 5038.02 7928.27L4856.02 7932.48L4713.77 7935.77C4726.4 7981.15 4725.37 8018.77 4716.29 8049.77C4757.36 8053.84 4813.01 8055.99 4870.13 8054.45C4871.76 8054.4 4873.39 8054.36 4875.02 8054.31C4999.2 8050.49 5128.52 8028.95 5128.52 7971.27Z" fill="#B1ADAD"/>
<path d="M3640.52 4498.26C3640.52 4498.26 3613.07 4576.99 3627.02 4625.83C3640.96 4674.67 3698.5 4731.27 3698.5 4731.27C3715.3 4681.27 3743.34 4635.85 3786.02 4607.27C3864.02 4553.77 3992.02 4534.67 4084.02 4682.27C4089.98 4691.84 4095.77 4702.31 4101.5 4712.67C4125.11 4755.38 4147.76 4796.35 4178.02 4765.77C4269.02 4692.77 4316.02 4567.77 4303.52 4510.77C4416.52 4482.76 4433.35 4412.37 4447.52 4341.41C4132.97 4381.82 3831.93 4444.98 3640.52 4498.26Z" fill="black"/>
<path d="M2994.02 5729.77C2902.29 5765.64 2752.28 5833.15 2578.02 5961.23C2360.52 6121.08 1968.62 6600.47 1845.02 6757.27L1713.52 6902.77C1699.8 6915.99 1687.55 6929.56 1678.23 6944.27C1725.02 6944.71 1781.87 6948.32 1845.02 6956.14C2139.61 6992.63 2558.02 7097.77 2766.52 7471.96C2799.34 7480.48 2861.47 7491.75 2957.52 7502.04C3066.29 7513.69 3218.56 7524.08 3421.02 7527.77C3483.02 7351.27 3557.52 7034.11 3587.52 6855.77C3603.92 6786.97 3632.52 6776.77 3704.02 6776.77C3704.02 6776.77 3711.18 6376.55 3638.02 6147.77C3568.66 5930.88 3358.02 5636.3 3358.02 5636.3C3207.42 5665 3072.36 5699.13 2994.02 5729.77Z" fill="#AFD1FA"/>
<path d="M5883.52 5899.77C5752.52 5802.52 5646.39 5754.47 5557.52 5726.07C5557.52 5726.07 5680.41 6002.29 5719.52 6190.27C5764.84 6408.14 5750.02 6776.77 5750.02 6776.77C5823.52 6776.77 5839.82 6800.37 5837.02 6910.77V7498.27V7781.77C5955.91 7672.05 6260.96 7450.15 6611.02 7353.28C6674.65 7335.67 6739.76 7322.19 6805.52 7314.27V7214.27L6419.02 6512.77C6243.52 6190.27 6048.52 6022.27 5883.52 5899.77Z" fill="#AFD1FA"/>
<path d="M3928.02 5619.27C3926.94 5606.47 3927.02 5590.25 3928.02 5571.54C3862.04 5571.54 3785.23 5576.44 3704.02 5584.84C3704.02 5584.84 3888.98 5853.95 3957.02 6048.77C4049.1 6312.44 4038.52 6776.77 4038.52 6776.77H5427.52C5427.52 6776.77 5437.11 6441.42 5406.02 6237.77C5377.85 6053.33 5270.02 5779.77 5270.02 5779.77C5219.55 5815.17 5144.95 5850.48 5058.52 5868.31C5071.02 5979.27 5033.78 6065.77 5004.02 6121.27C4942.13 6236.67 4817.76 6287.24 4690.52 6299.56C4689.58 6299.66 4688.64 6299.74 4687.7 6299.83C4559.47 6311.68 4428.77 6284.93 4356.52 6246.77C4036.92 6077.97 3928.02 5765.27 3928.02 5619.27Z" fill="#AFD1FA"/>
<path d="M2570.01 8316.32C2558.17 8348.88 2544.55 8388.57 2529.71 8434.27C2529.71 8434.27 2695.26 8443.45 2794.52 8413.27C2900.04 8381.19 3038.88 8271.68 3038.88 8271.68C2980.15 8275.64 2751.74 8295.64 2570.01 8316.32Z" fill="#AFD1FA"/>
<path d="M3421.02 7527.77C3656.57 7524.57 3796.72 7520.51 4087.52 7502.04C4094.49 7501.6 4101.67 7501.44 4109.02 7501.57C4115.07 7501.67 4121.24 7501.98 4127.52 7502.49L4133.84 7373.27C4134.91 7346.51 4135.69 7314.34 4138.02 7272.77C4143.64 7172.27 4167.52 7177.27 4197.52 7172.27H4305.52L5346.02 7177.77C5399.52 7180.27 5420.02 7162.27 5420.02 7271.27V7579.98C5427.67 7584.31 5435.34 7588.68 5443.01 7593.08C5610.22 7688.99 5779.64 7798.82 5837.02 7838.77V7781.77V7498.27V6910.77C5839.82 6800.37 5823.52 6776.77 5750.02 6776.77H5427.52H4038.52H3704.02C3632.52 6776.77 3603.92 6786.97 3587.52 6855.77C3557.52 7034.11 3483.02 7351.27 3421.02 7527.77Z" fill="#1E3A8A"/>
<path d="M4305.52 7172.27H4197.52C4167.52 7177.27 4143.64 7172.27 4138.02 7272.77C4135.69 7314.34 4134.91 7346.51 4133.84 7373.27L4127.52 7502.49C4245.12 7512.1 4406.86 7591.4 4505.21 7793.27C4556.98 7780.11 4661.25 7779.54 4708.52 7918.77C4710.48 7924.56 4712.23 7930.22 4713.77 7935.77L4856.02 7932.48L4848.27 7824.13L4840.52 7715.77C4837.68 7625.94 4878.46 7412.39 5084.02 7429.27C5145.7 7434.34 5278.23 7499.83 5416.45 7577.96C5416.55 7578.02 5416.65 7578.07 5416.76 7578.13C5416.87 7578.2 5416.98 7578.26 5417.09 7578.32C5417.43 7578.51 5417.77 7578.7 5418.1 7578.9C5418.19 7578.94 5418.28 7578.99 5418.37 7579.04C5418.43 7579.08 5418.49 7579.12 5418.56 7579.15C5419.04 7579.43 5419.53 7579.7 5420.02 7579.98V7271.27C5420.02 7162.27 5399.52 7180.27 5346.02 7177.77L4305.52 7172.27Z" fill="#4766C0"/>
<path d="M4716.29 8049.77C4695.09 8122.19 4629.98 8158.53 4592.34 8173.27C4591.98 8191.66 4590.5 8211.1 4587.37 8231.27H4916.48C4892.76 8163.15 4878.88 8094.97 4875.02 8054.31C4873.39 8054.36 4871.76 8054.4 4870.13 8054.45C4813.01 8055.99 4757.36 8053.84 4716.29 8049.77Z" fill="#4766C0"/>
<path d="M3358.02 5636.3C3358.02 5636.3 3568.66 5930.88 3638.02 6147.77C3711.18 6376.55 3704.02 6776.77 3704.02 6776.77H4038.52C4038.52 6776.77 4049.1 6312.44 3957.02 6048.77C3888.98 5853.95 3704.02 5584.84 3704.02 5584.84C3591.44 5596.5 3470.4 5614.89 3358.02 5636.3Z" fill="#1E3A8A"/>
<path d="M5270.02 5779.77C5270.02 5779.77 5377.85 6053.33 5406.02 6237.77C5437.11 6441.42 5427.52 6776.77 5427.52 6776.77H5750.02C5750.02 6776.77 5764.84 6408.14 5719.52 6190.27C5680.41 6002.29 5557.52 5726.07 5557.52 5726.07C5450.19 5691.77 5376.16 5691.77 5376.16 5691.77C5344.39 5725.86 5309.05 5755.87 5270.02 5779.77Z" fill="#1E3A8A"/>
<path d="M2766.52 7471.96C2558.02 7097.77 2139.61 6992.63 1845.02 6956.14L1713.52 7136.91L1515.02 7409.77C1391.52 7571.27 1234.52 7921.66 1534.52 8175.77C1619.52 8247.77 1816.52 8384.27 2311.02 8345.77C2378.92 8337.84 2474.72 8327.17 2570.01 8316.32C2751.74 8295.64 2980.15 8275.64 3038.88 8271.68C3041.88 8271.48 3044.43 8271.32 3046.52 8271.2C3046.24 8270.56 3045.98 8269.93 3045.73 8269.29C3042.4 8261.06 3040.32 8253.09 3038.88 8245.77C3018.08 8139.77 3119.52 8065.77 3194.52 8065.77L3467.02 8058.77L3563.52 8236.77C3581.52 8273.27 3605.12 8325.77 3563.52 8331.27C3539.22 8334.74 3499.1 8339.95 3453 8344.98C3453 8344.98 3455.02 8492.27 3632.52 8492.27C3685.59 8492.27 3724.61 8462.97 3750.09 8434.27C3750.09 8434.27 3858.72 8502.94 3932.02 8478.77C3988.56 8460.13 4021.11 8417.54 4039.49 8379.77C4039.49 8379.77 4103.04 8422.27 4145.52 8413.27C4263.52 8388.27 4292.52 8275.27 4292.52 8275.27C4292.52 8275.27 4368.68 8398.03 4443.52 8393.77C4546.02 8387.94 4578.02 8275.27 4578.02 8275.27C4582.09 8260.3 4585.15 8245.6 4587.37 8231.27C4590.5 8211.1 4591.98 8191.66 4592.34 8173.27C4593.54 8111.83 4582.21 8062.06 4578.02 8035.27C4563.24 7939.97 4537.68 7859.94 4505.21 7793.27C4406.86 7591.4 4245.12 7512.1 4127.52 7502.49C4121.24 7501.98 4115.07 7501.67 4109.02 7501.57C4101.67 7501.44 4094.49 7501.6 4087.52 7502.04C3796.72 7520.51 3656.57 7524.57 3421.02 7527.77C3218.56 7524.08 3066.29 7513.69 2957.52 7502.04C2861.47 7491.75 2799.34 7480.48 2766.52 7471.96Z" fill="#B5602A"/>
<path d="M3632.52 8492.27C3455.02 8492.27 3453 8344.98 3453 8344.98C3451.57 8345.13 3450.14 8345.29 3448.7 8345.44C3448.55 8345.46 3448.41 8345.48 3448.26 8345.49C3448.11 8345.51 3447.96 8345.52 3447.82 8345.54C3439.77 8346.4 3431.56 8347.26 3423.23 8348.1C3348.26 8355.67 3263.83 8361.8 3207.02 8359.27C3099.76 8345.87 3061.49 8306.41 3046.52 8271.2C3044.43 8271.32 3041.88 8271.48 3038.88 8271.68C3038.88 8271.68 2900.04 8381.19 2794.52 8413.27C2695.26 8443.45 2529.71 8434.27 2529.71 8434.27C2406.9 8812.54 2202.65 9599.47 2241.02 10159.8H4109.02H5501.5C5549.5 9969 5571.02 9647.53 5597.52 9473.27L5346.02 9496.85L5286.52 9502.43L5229.52 9507.77L4654.52 9250.77L4662.52 8617.77L5401.01 8563.77C5434.02 8486.12 5576.14 8470.82 5661.02 8485.77C5691.49 8400.54 5721.4 8306.83 5742.23 8235.77C5761.72 8169.27 5775.44 8114.29 5780.52 8080.77L5286.52 8433.77C5227.52 8477.77 5073.32 8477.07 4998.52 8388.27C4964.09 8347.4 4936.71 8289.36 4916.48 8231.27H4587.37C4585.15 8245.6 4582.09 8260.3 4578.02 8275.27C4578.02 8275.27 4546.02 8387.94 4443.52 8393.77C4368.68 8398.03 4292.52 8275.27 4292.52 8275.27C4292.52 8275.27 4263.52 8388.27 4145.52 8413.27C4103.04 8422.27 4039.49 8379.77 4039.49 8379.77C4021.11 8417.54 3988.56 8460.13 3932.02 8478.77C3858.72 8502.94 3750.09 8434.27 3750.09 8434.27C3724.61 8462.97 3685.59 8492.27 3632.52 8492.27Z" fill="#1E3A8A"/>
<path d="M7944.52 7195.77L6805.52 6929.77V7214.27V7314.27V7412.77V7584.77L6956.52 7630.02L7135.88 7685.5C7214.23 7592.08 7324.26 7487.17 7404.02 7517.27C7434.02 7524.27 7493.02 7548.77 7477.02 7643.77C7477.02 7643.77 7573.52 7527.27 7649.52 7532.77C7703.95 7536.71 7744.02 7578.1 7762.38 7601.27C7762.38 7601.27 7851.46 7527.19 7914.02 7540.27C7962.37 7550.39 7996.02 7612.77 7996.02 7612.77C8050.18 7574.94 8170.02 7521.97 8216.02 7612.77C8237.23 7676.6 8223.05 7755.76 8192.33 7831.06L8587.02 7631.77L8690.52 6929.77L8255.02 7085.06L7944.52 7195.77Z" fill="#D33A18"/>
<path d="M6589.52 8720.77L5229.52 8820.27V9507.77L5286.52 9502.43L5346.02 9496.85L5597.52 9473.27L6589.52 9380.27V8720.77Z" fill="#D33A18"/>
<path d="M4662.52 8617.77L4654.52 9250.77L5229.52 9507.77V8820.27L4662.52 8617.77Z" fill="#D33A18"/>
<path d="M5597.52 8709.77C5529.17 8709.77 5394.02 8707.67 5394.02 8599.27C5394.02 8586.22 5396.49 8574.41 5401.01 8563.77L4662.52 8617.77L5229.52 8820.27L6589.52 8720.77L6334 8639.79C6331.63 8640.61 6329.3 8641.48 6327.02 8642.43C6269.85 8666.09 6220.52 8699.77 6115.02 8671.77C6066.76 8658.97 5966.85 8644.44 5917.52 8649.77C5833.52 8664.57 5709.02 8709.77 5597.52 8709.77Z" fill="#D33A18"/>
<path d="M7276.02 6745.21L6805.52 6929.77L7944.52 7195.77L8255.02 7085.06C8017.77 7061.77 7997.02 6950.77 8017.77 6896.52L7986.52 6903.27C7900.52 6933.27 7774.68 6901.77 7722.52 6882.27C7605.02 6849.27 7542.02 6967.77 7441.02 6967.77C7441.02 6967.77 7263.43 6975.65 7229.02 6893.77C7200.66 6826.3 7231.74 6778.13 7276.02 6745.21Z" fill="#D33A18"/>
<path d="M6589.52 8720.77V9380.27L8007.52 9269.27V8613.77L6589.52 8720.77Z" fill="#DD4A17"/>
<path d="M6738.2 8612.96C6736.38 8613.45 6734.71 8614.34 6733.16 8615.42C6622.59 8692.05 6529.26 8683.61 6492.52 8660.27C6450.26 8633.43 6382.67 8623.11 6334 8639.79L6589.52 8720.77L8007.52 8613.77L7308.53 8427.66L7124.62 8438.77C7126.37 8445.05 7128.21 8451.34 7130.52 8457.27C7154.64 8519.27 7139.72 8641.97 6962.52 8626.77C6895.04 8618.32 6776.4 8602.56 6738.2 8612.96Z" fill="#DD4A17"/>
<path d="M5394.02 8599.27C5394.02 8707.67 5529.17 8709.77 5597.52 8709.77C5709.02 8709.77 5833.52 8664.57 5917.52 8649.77C5966.85 8644.44 6066.76 8658.97 6115.02 8671.77C6220.52 8699.77 6269.85 8666.09 6327.02 8642.43C6329.3 8641.48 6331.63 8640.61 6334 8639.79C6382.67 8623.11 6450.26 8633.43 6492.52 8660.27C6529.26 8683.61 6622.59 8692.05 6733.16 8615.42C6734.71 8614.34 6736.38 8613.45 6738.2 8612.96C6776.4 8602.56 6895.04 8618.32 6962.52 8626.77C7139.72 8641.97 7154.64 8519.27 7130.52 8457.27C7128.21 8451.34 7126.37 8445.05 7124.62 8438.77C7120.84 8425.12 7117.52 8411.53 7110.92 8401.77C7042.12 8300.14 6916.12 8314.59 6855.02 8338.27C6759.02 8370.27 6735.52 8323.77 6688.52 8281.27C6635.04 8232.92 6500.02 8193.13 6366.52 8231.27C6276.92 8256.87 6190.85 8323.61 6159.02 8357.27C6085.42 8330.87 5966.52 8370.27 5920.02 8402.27C5881.35 8452.11 5773.42 8527.37 5661.02 8485.77C5576.14 8470.82 5434.02 8486.12 5401.01 8563.77C5396.49 8574.41 5394.02 8586.22 5394.02 8599.27Z" fill="#D4CDC2"/>
<path d="M8255.02 7085.06L8690.52 6929.77C8713.32 6901.77 8709.04 6832.27 8697.02 6806.77C8647.52 6701.77 8534.68 6729.27 8487.52 6761.77C8477.63 6769.65 8467.58 6776.11 8457.5 6781.31C8465 6655.82 8362.35 6582.11 8309.52 6551.77C8195.52 6483.77 8049.02 6522.27 7986.52 6551.77C7936.52 6575.37 7861.35 6552.85 7830.02 6538.64C7774.02 6516.5 7711.33 6510.27 7660.02 6510.27C7660.02 6510.27 7570.52 6510.27 7512.52 6551.77C7449.71 6596.71 7414.02 6685.27 7414.02 6685.27C7414.02 6685.27 7333.78 6702.26 7276.02 6745.21C7231.74 6778.13 7200.66 6826.3 7229.02 6893.77C7263.43 6975.65 7441.02 6967.77 7441.02 6967.77C7542.02 6967.77 7605.02 6849.27 7722.52 6882.27C7774.68 6901.77 7900.52 6933.27 7986.52 6903.27L8017.77 6896.52C7997.02 6950.77 8017.77 7061.77 8255.02 7085.06Z" fill="#D4CDC2"/>
<path d="M5930.02 7933.77C5940.52 7985.27 5827.02 8048.71 5827.02 8048.71L5780.52 8080.77C5775.44 8114.29 5761.72 8169.27 5742.23 8235.77C5783.99 8283.94 5870.02 8373.47 5920.02 8402.27C5966.52 8370.27 6085.42 8330.87 6159.02 8357.27C6190.85 8323.61 6276.92 8256.87 6366.52 8231.27C6500.02 8193.13 6635.04 8232.92 6688.52 8281.27C6735.52 8323.77 6759.02 8370.27 6855.02 8338.27C6916.12 8314.59 7042.12 8300.14 7110.92 8401.77C7155.72 8368.89 7267.03 8274.77 7309.88 8232.61C7414.36 8243.21 7596.03 8255.56 7726.02 8231.27C7908.02 8197.27 8067.02 8028.77 8067.02 8028.77C8112.67 7980.35 8161.06 7907.7 8192.33 7831.06C8223.05 7755.76 8237.23 7676.6 8216.02 7612.77C8170.02 7521.97 8050.18 7574.94 7996.02 7612.77C7996.02 7612.77 7962.37 7550.39 7914.02 7540.27C7851.46 7527.19 7762.38 7601.27 7762.38 7601.27C7744.02 7578.1 7703.95 7536.71 7649.52 7532.77C7573.52 7527.27 7477.02 7643.77 7477.02 7643.77C7493.02 7548.77 7434.02 7524.27 7404.02 7517.27C7324.26 7487.17 7214.23 7592.08 7135.88 7685.5L6956.52 7630.02C6906.08 7627.78 6829.65 7646.54 6745.5 7675.07L6673.94 7503.84C6673.85 7503.9 6673.77 7503.95 6673.68 7504L6611.02 7353.28C6388.18 7459.61 5939.99 7697.14 5877.99 7870C5901.07 7889.44 5926.06 7914.35 5930.02 7933.77Z" fill="#B5602A"/>
<path d="M4505.21 7793.27C4537.68 7859.94 4563.24 7939.97 4578.02 8035.27C4582.21 8062.06 4593.54 8111.83 4592.34 8173.27C4629.98 8158.53 4695.09 8122.19 4716.29 8049.77C4725.37 8018.77 4726.4 7981.15 4713.77 7935.77C4712.23 7930.22 4710.48 7924.56 4708.52 7918.77C4661.25 7779.54 4556.98 7780.11 4505.21 7793.27Z" fill="black"/>
<path fill-rule="evenodd" clip-rule="evenodd" d="M3448.26 8345.49C3448.11 8345.51 3447.96 8345.52 3447.82 8345.54C3439.77 8346.4 3431.56 8347.26 3423.23 8348.1C3348.26 8355.67 3263.83 8361.8 3207.02 8359.27C3099.76 8345.87 3061.49 8306.41 3046.52 8271.2C3046.24 8270.56 3045.98 8269.93 3045.73 8269.29C3042.4 8261.06 3040.32 8253.09 3038.88 8245.77C3018.08 8139.77 3119.52 8065.77 3194.52 8065.77" fill="#B1ADAD"/>
<path d="M3467.02 8058.77L3194.52 8065.77C3119.52 8065.77 3018.08 8139.77 3038.88 8245.77C3040.32 8253.09 3042.4 8261.06 3045.73 8269.29C3045.98 8269.93 3046.24 8270.56 3046.52 8271.2C3061.49 8306.41 3099.76 8345.87 3207.02 8359.27C3263.83 8361.8 3348.26 8355.67 3423.23 8348.1C3431.56 8347.26 3439.77 8346.4 3447.82 8345.54L3448.26 8345.49C3448.41 8345.48 3448.55 8345.46 3448.7 8345.44C3450.14 8345.29 3451.57 8345.13 3453 8344.98C3499.1 8339.95 3539.22 8334.74 3563.52 8331.27C3605.12 8325.77 3581.52 8273.27 3563.52 8236.77L3467.02 8058.77Z" fill="black"/>
<path fill-rule="evenodd" clip-rule="evenodd" d="M5416.45 7577.96C5416.55 7578.02 5416.65 7578.07 5416.76 7578.13C5416.87 7578.2 5416.98 7578.26 5417.09 7578.32C5417.43 7578.51 5417.77 7578.7 5418.1 7578.9C5418.19 7578.94 5418.28 7578.99 5418.37 7579.04C5418.43 7579.08 5418.49 7579.12 5418.56 7579.15C5419.04 7579.43 5419.53 7579.7 5420.02 7579.98C5427.67 7584.31 5435.34 7588.68 5443.01 7593.08C5434.85 7588.4 5426.69 7583.76 5418.56 7579.15C5418.49 7579.12 5418.43 7579.08 5418.37 7579.04C5418.28 7578.99 5418.19 7578.94 5418.1 7578.9C5417.77 7578.7 5417.43 7578.51 5417.09 7578.32C5416.88 7578.2 5416.66 7578.08 5416.45 7577.96Z" fill="#D7D6D6"/>
<path fill-rule="evenodd" clip-rule="evenodd" d="M5038.02 7928.27C5038.02 7928.27 5128.52 7922.77 5128.52 7971.27C5128.52 8028.95 4999.2 8050.49 4875.02 8054.31C4878.88 8094.97 4892.76 8163.15 4916.48 8231.27C4936.71 8289.36 4964.09 8347.4 4998.52 8388.27C5073.32 8477.07 5227.52 8477.77 5286.52 8433.77L5780.52 8080.77L5827.02 8048.71C5827.02 8048.71 5940.52 7985.27 5930.02 7933.77C5926.06 7914.35 5901.07 7889.44 5877.99 7870C5877.49 7869.58 5876.99 7869.16 5876.5 7868.74C5855.78 7851.44 5837.02 7838.77 5837.02 7838.77C5779.64 7798.82 5610.22 7688.99 5443.01 7593.08C5435.34 7588.68 5427.67 7584.31 5420.02 7579.98L5418.56 7579.15L5418.37 7579.04C5418.28 7578.99 5418.19 7578.94 5418.1 7578.9C5417.77 7578.7 5417.43 7578.51 5417.09 7578.32L5416.76 7578.13L5416.45 7577.96C5278.23 7499.83 5145.7 7434.34 5084.02 7429.27C4878.46 7412.39 4837.68 7625.94 4840.52 7715.77L4848.27 7824.13L4856.02 7932.48L5038.02 7928.27Z" fill="#CEC8BF"/>
<path fill-rule="evenodd" clip-rule="evenodd" d="M4447.52 4341.41C4641.21 4316.53 4840.03 4300.27 5021.52 4300.27H5585.02V4367.77V4401.77L5585.27 4415.77L5598.52 5142.77C5598.52 5271.42 5528.36 5528.46 5376.16 5691.77C5344.39 5725.86 5309.05 5755.87 5270.02 5779.77C5219.55 5815.17 5144.95 5850.48 5058.52 5868.31C4964.26 5887.76 4857.66 5882.07 4749.52 5841.77C4491.76 5745.74 4350.69 5576.07 4275.21 5485.31C4265.41 5473.52 4256.72 5463.06 4249.02 5454.27C4111.02 5494.27 4552.52 6138.77 5020.02 5929.77C5031.02 6045.77 4907.72 6265.56 4690.52 6299.56C4689.58 6299.66 4688.64 6299.74 4687.7 6299.83C4559.47 6311.68 4428.77 6284.93 4356.52 6246.77C4036.92 6077.97 3928.02 5765.27 3928.02 5619.27C3926.94 5606.47 3927.02 5590.25 3928.02 5571.54C3934.02 5458.7 3972.99 5248.89 3996.27 5154.92C3964.09 5161.42 3928.21 5164.77 3897.02 5158.27C3787.33 5135.44 3726.03 5064.19 3691.12 4958.77C3673.6 4905.85 3671.21 4812.51 3698.5 4731.27C3715.3 4681.27 3743.34 4635.85 3786.02 4607.27C3864.02 4553.77 3992.02 4534.67 4084.02 4682.27C4089.98 4691.84 4095.77 4702.31 4101.5 4712.67C4125.11 4755.38 4147.76 4796.35 4178.02 4765.77C4269.02 4692.77 4316.02 4567.77 4303.52 4510.77C4416.52 4482.76 4433.35 4412.37 4447.52 4341.41ZM3942.02 4871.77C3957.22 4802.17 3860.33 4732.77 3839 4731.27C3893 4713.27 4017.82 4730.17 4049.02 4851.77C4072.02 4917.77 4084.02 4996.27 4013.52 5007.27C3951.95 5016.88 3923.02 4958.77 3942.02 4871.77Z" fill="#B5602A"/>
<path d="M3839 4731.27C3860.33 4732.77 3957.22 4802.17 3942.02 4871.77C3923.02 4958.77 3951.95 5016.88 4013.52 5007.27C4084.02 4996.27 4072.02 4917.77 4049.02 4851.77C4017.82 4730.17 3893 4713.27 3839 4731.27Z" fill="#6C3613"/>
<path fill-rule="evenodd" clip-rule="evenodd" d="M3974.02 3383.78C4192.02 3224.96 4335.24 3174.17 4595.52 3169.28C4903.54 3163.48 5115 3248.61 5322.02 3476.78C5470.96 3640.94 5557.52 3997.27 5557.52 3997.27C5702.85 4005.44 5996.92 4043.57 6002.52 4192.77C6004.17 4236.77 5910.52 4314.77 5769.52 4336.77C5735.93 4311.97 5632.52 4302.11 5585.02 4300.27H5021.52C4840.03 4300.27 4641.21 4316.53 4447.52 4341.41C4132.97 4381.82 3831.93 4444.98 3640.52 4498.26C3633 4500.35 3623.26 4503.09 3614.11 4505.7C3603.12 4508.83 3591.09 4506.44 3582.99 4498.37C3464.55 4380.48 3576.62 4216.89 3640.52 4173.27C3627.32 3754.47 3828.52 3489.77 3974.02 3383.78Z" fill="#FEBC23"/>
<path d="M5585.02 4367.77L5769.52 4336.77C5735.93 4311.97 5632.52 4302.11 5585.02 4300.27V4367.77Z" fill="black"/>
<path d="M5557.52 3997.27C5557.52 3997.27 5470.97 3640.94 5322.02 3476.78C5115 3248.61 4903.54 3163.48 4595.52 3169.28C4335.24 3174.17 4192.02 3224.96 3974.02 3383.78C3828.52 3489.77 3627.32 3754.47 3640.52 4173.27C3576.62 4216.89 3464.55 4380.48 3582.99 4498.37C3591.09 4506.44 3603.12 4508.83 3614.11 4505.7C3623.26 4503.09 3633 4500.35 3640.52 4498.26M5557.52 3997.27C5702.85 4005.44 5996.92 4043.57 6002.52 4192.77C6004.17 4236.77 5910.52 4314.77 5769.52 4336.77M5557.52 3997.27C5491.52 3997.27 5265.68 3992.11 5160.02 3997.27C5160.02 3997.27 4672.9 4028.37 4370.02 4099.27C4098.75 4162.78 3693.02 4324.27 3693.02 4324.27M5769.52 4336.77L5585.02 4367.77M5769.52 4336.77C5735.93 4311.97 5632.52 4302.11 5585.02 4300.27M3640.52 4498.26C3640.52 4498.26 3613.07 4576.99 3627.02 4625.83C3640.96 4674.67 3698.5 4731.27 3698.5 4731.27M3640.52 4498.26C3831.93 4444.98 4132.97 4381.82 4447.52 4341.41M3698.5 4731.27C3715.3 4681.27 3743.34 4635.85 3786.02 4607.27M3698.5 4731.27C3671.21 4812.51 3673.6 4905.85 3691.12 4958.77M4447.52 4341.41C4641.21 4316.53 4840.03 4300.27 5021.52 4300.27H5585.02M4447.52 4341.41C4433.35 4412.37 4416.52 4482.76 4303.52 4510.77C4316.02 4567.77 4269.02 4692.77 4178.02 4765.77C4147.76 4796.35 4125.11 4755.38 4101.5 4712.67C4095.77 4702.31 4089.98 4691.84 4084.02 4682.27C3992.02 4534.67 3864.02 4553.77 3786.02 4607.27M4555.52 3258.77C4760.02 3222.77 5136.52 3573.27 5209.52 3995.69M3689.02 4952.27C3689.71 4954.45 3690.41 4956.62 3691.12 4958.77M4088.02 5126.77C4088.02 5126.77 4046.69 5144.72 3996.27 5154.92M3691.12 4958.77C3726.03 5064.19 3787.33 5135.44 3897.02 5158.27C3928.21 5164.77 3964.09 5161.42 3996.27 5154.92M3691.12 4958.77C3662.81 4873.27 3674.02 4682.27 3786.02 4607.27M5585.02 4401.77L5585.27 4415.77M5585.02 4401.77V4300.27M5585.02 4401.77V4367.77M5270.02 5779.77C5270.02 5779.77 5377.85 6053.33 5406.02 6237.77C5437.11 6441.41 5427.52 6776.77 5427.52 6776.77M5270.02 5779.77C5309.05 5755.87 5344.39 5725.86 5376.16 5691.77M5270.02 5779.77C5219.55 5815.17 5144.95 5850.48 5058.52 5868.31M5585.02 4367.77L5585.27 4415.77M5585.02 4367.77V4300.27M5585.27 4415.77L5598.52 5142.77C5598.52 5271.42 5528.36 5528.46 5376.16 5691.77M3997 5152C3996.76 5152.96 3996.52 5153.93 3996.27 5154.92M3928.02 5571.54C3927.02 5590.25 3926.94 5606.47 3928.02 5619.27C3928.02 5765.27 4036.92 6077.97 4356.52 6246.77C4428.77 6284.93 4559.47 6311.68 4687.7 6299.83M3928.02 5571.54C3862.04 5571.54 3785.23 5576.44 3704.02 5584.84M3928.02 5571.54C3934.02 5458.7 3972.99 5248.89 3996.27 5154.92M5004.02 6121.27C5033.78 6065.77 5071.02 5979.27 5058.52 5868.31M5004.02 6121.27C4942.13 6236.67 4817.76 6287.24 4690.52 6299.56M5004.02 6121.27C4941.68 6237.52 4815.93 6287.98 4687.7 6299.83M1713.52 7136.91C1635.52 7042.78 1650.18 6988.54 1678.23 6944.27M1713.52 7136.91L1845.02 6956.14M1713.52 7136.91L1515.02 7409.77M1678.23 6944.27C1687.55 6929.56 1699.8 6915.99 1713.52 6902.77L1845.02 6757.27C1968.62 6600.47 2360.52 6121.08 2578.02 5961.23C2752.28 5833.15 2902.29 5765.64 2994.02 5729.77C3072.36 5699.13 3207.42 5665 3358.02 5636.3M1678.23 6944.27C1725.02 6944.71 1781.87 6948.32 1845.02 6956.14M1845.02 6956.14C2139.61 6992.63 2558.02 7097.77 2766.52 7471.96C2799.34 7480.48 2861.47 7491.75 2957.52 7502.04M1845.02 6956.14L1515.02 7409.77M1515.02 7409.77C1391.52 7571.27 1234.52 7921.66 1534.52 8175.77C1619.52 8247.77 1816.52 8384.27 2311.02 8345.77C2378.92 8337.84 2474.72 8327.17 2570.01 8316.32M2027.02 7384.27C2165.18 7371.77 2503.32 7370.87 2750.52 7467.27C2776.21 7476.01 2842.57 7489.73 2957.52 7502.04M3421.02 7527.77C3218.56 7524.08 3066.29 7513.69 2957.52 7502.04M3421.02 7527.77C3656.57 7524.57 3796.72 7520.51 4087.52 7502.04C4094.49 7501.6 4101.67 7501.44 4109.02 7501.57C4115.07 7501.67 4121.24 7501.98 4127.52 7502.49M3421.02 7527.77C3483.02 7351.27 3557.52 7034.11 3587.52 6855.77C3603.92 6786.97 3632.52 6776.77 3704.02 6776.77M3392.02 6889.77C3326.52 7015.77 3293.52 7072.27 3155.52 7245.27L2957.52 7502.04M3046.52 8271.2C3044.43 8271.32 3041.88 8271.48 3038.88 8271.68M3046.52 8271.2C3061.49 8306.41 3099.76 8345.87 3207.02 8359.27M3046.52 8271.2C3046.24 8270.56 3045.98 8269.93 3045.73 8269.29M3358.02 5636.3C3358.02 5636.3 3568.66 5930.88 3638.02 6147.77C3711.18 6376.55 3704.02 6776.77 3704.02 6776.77M3358.02 5636.3C3470.4 5614.89 3591.44 5596.5 3704.02 5584.84M3704.02 6776.77H4038.52M3704.02 5584.84C3704.02 5584.84 3888.98 5853.95 3957.02 6048.77C4049.1 6312.44 4038.52 6776.77 4038.52 6776.77M4038.52 6776.77H5427.52M5427.52 6776.77H5750.02M5376.16 5691.77C5376.16 5691.77 5450.19 5691.77 5557.52 5726.07M5557.52 5726.07C5646.39 5754.47 5752.52 5802.52 5883.52 5899.77C6048.52 6022.27 6243.52 6190.27 6419.02 6512.77L6805.52 7214.27M5557.52 5726.07C5557.52 5726.07 5680.41 6002.29 5719.52 6190.27C5764.84 6408.14 5750.02 6776.77 5750.02 6776.77M5750.02 6776.77C5823.52 6776.77 5839.82 6800.37 5837.02 6910.77V7498.27M5837.02 7781.77V7498.27M5837.02 7781.77V7838.77M5837.02 7781.77C5955.91 7672.05 6260.96 7450.15 6611.02 7353.28M5964.52 6649.77L5837.02 7498.27M6805.52 7214.27V7314.27M6805.52 7214.27V6929.77M6805.52 7314.27C6739.76 7322.19 6674.65 7335.67 6611.02 7353.28M6805.52 7314.27V7412.77M2570.01 8316.32C2558.17 8348.88 2544.55 8388.57 2529.71 8434.27M2570.01 8316.32C2751.74 8295.64 2980.15 8275.64 3038.88 8271.68M3453 8344.98C3453 8344.98 3455.02 8492.27 3632.52 8492.27C3685.59 8492.27 3724.61 8462.97 3750.09 8434.27M3453 8344.98C3499.1 8339.95 3539.22 8334.74 3563.52 8331.27M3453 8344.98C3451.57 8345.13 3450.14 8345.29 3448.7 8345.44M3718.52 7943.77C3728.02 7965.94 3756.62 8034.57 3795.02 8131.77C3833.42 8228.97 3815.52 8309.27 3786.52 8379.77C3786.52 8379.77 3774.53 8406.74 3750.09 8434.27M3750.09 8434.27C3750.09 8434.27 3858.72 8502.94 3932.02 8478.77C3988.56 8460.13 4021.11 8417.54 4039.49 8379.77M3961.02 7848.77L4043.02 8069.27C4084.02 8193.27 4068.85 8275.11 4062.02 8309.77C4062.02 8309.77 4057.69 8342.41 4039.49 8379.77M4039.49 8379.77C4039.49 8379.77 4103.04 8422.27 4145.52 8413.27C4263.52 8388.27 4292.52 8275.27 4292.52 8275.27M4292.52 8275.27C4312.02 8219.27 4330.02 8121.77 4292.52 8000.77L4207.52 7775.77M4292.52 8275.27C4292.52 8275.27 4368.68 8398.03 4443.52 8393.77C4546.02 8387.94 4578.02 8275.27 4578.02 8275.27C4582.09 8260.3 4585.15 8245.6 4587.37 8231.27M4127.52 7502.49L4133.84 7373.27C4134.91 7346.51 4135.69 7314.34 4138.02 7272.77C4143.64 7172.27 4167.52 7177.27 4197.52 7172.27H4305.52L5346.02 7177.77C5399.52 7180.27 5420.02 7162.27 5420.02 7271.27V7579.98M4127.52 7502.49C4245.12 7512.1 4406.86 7591.4 4505.21 7793.27M5420.02 7579.98C5427.67 7584.31 5435.34 7588.68 5443.01 7593.08M5420.02 7579.98L5418.56 7579.15M5420.02 7579.98C5419.53 7579.7 5419.04 7579.43 5418.56 7579.15M4505.21 7793.27C4537.68 7859.94 4563.24 7939.97 4578.02 8035.27C4582.21 8062.06 4593.54 8111.83 4592.34 8173.27M4505.21 7793.27C4556.98 7780.11 4661.25 7779.54 4708.52 7918.77C4710.48 7924.56 4712.23 7930.22 4713.77 7935.77M4592.34 8173.27C4629.98 8158.53 4695.09 8122.19 4716.29 8049.77M4592.34 8173.27C4591.98 8191.66 4590.5 8211.1 4587.37 8231.27M4713.77 7935.77C4726.4 7981.15 4725.37 8018.77 4716.29 8049.77M4713.77 7935.77L4856.02 7932.48M5128.52 7971.27C5128.52 7922.77 5038.02 7928.27 5038.02 7928.27L4856.02 7932.48M5128.52 7971.27C5128.52 8028.95 4999.2 8050.49 4875.02 8054.31M5128.52 7971.27C5128.52 8029.71 4995.79 8051.04 4870.13 8054.45M4716.29 8049.77C4757.36 8053.84 4813.01 8055.99 4870.13 8054.45M4856.02 7932.48L4848.27 7824.13L4840.52 7715.77C4837.68 7625.94 4878.46 7412.39 5084.02 7429.27C5145.7 7434.34 5278.23 7499.83 5416.45 7577.96M4875.02 8054.31C4878.88 8094.97 4892.76 8163.15 4916.48 8231.27M4875.02 8054.31C4873.39 8054.36 4871.76 8054.4 4870.13 8054.45M4875.02 8054.31C4873.39 8054.36 4871.76 8054.4 4870.13 8054.45M3207.02 8359.27C3097.82 8345.62 3060.13 8304.97 3045.73 8269.29M3207.02 8359.27C3263.83 8361.8 3348.26 8355.67 3423.23 8348.1C3431.56 8347.26 3439.77 8346.4 3447.82 8345.54M2644.52 8633.77C2769.13 8707.92 2991.83 8806.41 3355.02 8874.7M4654.52 8948.27C4526.92 8953.43 4406.36 8955.51 4292.52 8954.93M2528.02 9456.27C2739.81 9401.22 3180.44 9214.44 3355.02 8874.7M3355.02 8874.7C3599.52 8920.67 3907.71 8952.96 4292.52 8954.93M5837.02 7838.77C5837.02 7838.77 5855.78 7851.44 5876.5 7868.74M5837.02 7838.77C5779.64 7798.82 5610.22 7688.99 5443.01 7593.08M5930.02 7933.77C5940.52 7985.27 5827.02 8048.71 5827.02 8048.71L5780.52 8080.77M5930.02 7933.77C5926.06 7914.35 5901.07 7889.44 5877.99 7870M5930.02 7933.77C5925.97 7913.93 5899.98 7888.35 5876.5 7868.74M5780.52 8080.77L5286.52 8433.77C5227.52 8477.77 5073.32 8477.07 4998.52 8388.27C4964.09 8347.4 4936.71 8289.36 4916.48 8231.27M5780.52 8080.77C5775.44 8114.29 5761.72 8169.27 5742.23 8235.77M5058.52 5868.31C4964.26 5887.76 4857.66 5882.07 4749.52 5841.77C4491.76 5745.74 4350.69 5576.07 4275.21 5485.31C4265.41 5473.52 4256.72 5463.06 4249.02 5454.27C4111.02 5494.27 4552.52 6138.77 5020.02 5929.77C5031.02 6045.77 4907.72 6265.56 4690.52 6299.56M2529.71 8434.27C2406.9 8812.54 2202.65 9599.47 2241.02 10159.8H4109.02M2529.71 8434.27C2529.71 8434.27 2695.26 8443.45 2794.52 8413.27C2900.04 8381.18 3038.88 8271.68 3038.88 8271.68M4292.52 8954.93C4266.35 9207.3 4210.22 9918.88 4109.02 10159.8M5661.02 8485.77C5691.49 8400.54 5721.4 8306.83 5742.23 8235.77M5661.02 8485.77C5773.42 8527.37 5881.35 8452.11 5920.02 8402.27M5661.02 8485.77C5576.14 8470.82 5434.02 8486.12 5401.01 8563.77M6805.52 6929.77L7276.02 6745.21M6805.52 6929.77L7944.52 7195.77M6805.52 6929.77V7412.77M7276.02 6745.21C7231.74 6778.13 7200.66 6826.3 7229.02 6893.77M7276.02 6745.21C7333.78 6702.26 7414.02 6685.27 7414.02 6685.27M7944.52 7195.77L8690.52 6929.77M7944.52 7195.77L8255.02 7085.06M8690.52 6929.77L8587.02 7631.77L8192.33 7831.06M8690.52 6929.77C8713.32 6901.77 8709.04 6832.27 8697.02 6806.77C8647.52 6701.77 8534.68 6729.27 8487.52 6761.77M8690.52 6929.77L8255.02 7085.06M8187.5 7833.5L8192.33 7831.06M6611.02 7353.28C6388.18 7459.61 5939.99 7697.14 5877.99 7870M6611.02 7353.28L6673.68 7504C6673.77 7503.95 6673.85 7503.9 6673.94 7503.84M6611.02 7353.28L6673.94 7503.84M6329.02 7855.27C6480.18 7777.61 6817.32 7623.82 6956.52 7630.02M6956.52 7630.02L6805.52 7584.77V7412.77M6956.52 7630.02L7135.88 7685.5C7214.23 7592.08 7324.26 7487.17 7404.02 7517.27M6956.52 7630.02C6906.08 7627.78 6829.65 7646.54 6745.5 7675.07L6673.94 7503.84M6805.52 7412.77C6774.01 7443.48 6701.96 7487.06 6673.94 7503.84M5742.23 8235.77C5783.99 8283.94 5870.02 8373.47 5920.02 8402.27M5920.02 8402.27C5966.52 8370.27 6085.42 8330.87 6159.02 8357.27C6190.85 8323.61 6276.92 8256.87 6366.52 8231.27C6500.02 8193.13 6635.04 8232.92 6688.52 8281.27C6735.52 8323.77 6759.02 8370.27 6855.02 8338.27C6916.12 8314.59 7042.12 8300.14 7110.92 8401.77M5877.99 7870C5877.49 7869.58 5876.99 7869.16 5876.5 7868.74M7954.02 7312.77L7944.52 7553.94M7414.02 6685.27C7414.02 6685.27 7163.66 6738.27 7229.02 6893.77M7414.02 6685.27C7414.02 6685.27 7449.71 6596.71 7512.52 6551.77C7570.52 6510.27 7660.02 6510.27 7660.02 6510.27C7711.33 6510.27 7774.02 6516.5 7830.02 6538.64C7861.35 6552.85 7936.52 6575.37 7986.52 6551.77C8049.02 6522.27 8195.52 6483.77 8309.52 6551.77C8362.35 6582.11 8465 6655.82 8457.5 6781.31C8467.58 6776.11 8477.63 6769.65 8487.52 6761.77M7229.02 6893.77C7263.43 6975.65 7441.02 6967.77 7441.02 6967.77C7542.02 6967.77 7605.02 6849.27 7722.52 6882.27C7774.68 6901.77 7900.52 6933.27 7986.52 6903.27L8017.77 6896.52M8049.02 6889.77L8017.77 6896.52M8017.77 6896.52C7997.02 6950.77 8017.77 7061.77 8255.02 7085.06M8294.52 6771.27C8336.02 6801.27 8416.02 6818.77 8487.52 6761.77M4662.52 8617.77L4654.52 9250.77L5229.52 9507.77M4662.52 8617.77L5401.01 8563.77M4662.52 8617.77L5229.52 8820.27M7110.92 8401.77C7117.52 8411.53 7120.84 8425.12 7124.62 8438.77M7110.92 8401.77C7155.72 8368.89 7267.03 8274.77 7309.88 8232.61M7310.27 8232.65C7309.9 8233.01 7310.26 8232.23 7309.88 8232.61M7227.02 8222.77C7227.02 8222.77 7259.46 8227.49 7309.88 8232.61M5401.01 8563.77C5396.49 8574.41 5394.02 8586.22 5394.02 8599.27C5394.02 8707.67 5529.17 8709.77 5597.52 8709.77C5709.02 8709.77 5833.52 8664.57 5917.52 8649.77C5966.85 8644.44 6066.76 8658.97 6115.02 8671.77C6220.52 8699.77 6269.85 8666.09 6327.02 8642.43C6329.3 8641.48 6331.63 8640.61 6334 8639.79M5229.52 8820.27L6589.52 8720.77M5229.52 8820.27V9507.77M6589.52 8720.77V9380.27M6589.52 8720.77L8007.52 8613.77M6589.52 8720.77L6334 8639.79M7039.02 7814.77C7039.02 7814.77 7266.52 7465.38 7404.02 7517.27M7404.02 7517.27C7434.02 7524.27 7493.02 7548.77 7477.02 7643.77M7477.02 7643.77L7308.53 7915.27M7477.02 7643.77C7477.02 7643.77 7573.52 7527.27 7649.52 7532.77C7703.95 7536.71 7744.02 7578.1 7762.38 7601.27M7548.52 8019.27C7624.59 7919.11 7773.87 7695.27 7762.38 7601.27M7762.38 7601.27C7762.38 7601.27 7851.46 7527.19 7914.02 7540.27C7962.37 7550.39 7996.02 7612.77 7996.02 7612.77M7996.02 7612.77C8033.02 7700.27 7893.68 7920.11 7822.52 8022.27M7996.02 7612.77C8050.18 7574.94 8170.02 7521.97 8216.02 7612.77C8237.23 7676.6 8223.05 7755.76 8192.33 7831.06M5229.52 9507.77L5286.52 9502.43L5346.02 9496.85L5597.52 9473.27M6589.52 9380.27L8007.52 9269.27V8613.77M6589.52 9380.27L5597.52 9473.27M8007.52 8613.77L7308.53 8427.66L7124.62 8438.77M7124.62 8438.77C7126.37 8445.05 7128.21 8451.34 7130.52 8457.27C7154.64 8519.27 7139.72 8641.97 6962.52 8626.77C6895.04 8618.32 6776.4 8602.56 6738.2 8612.96C6736.38 8613.45 6734.71 8614.34 6733.16 8615.42C6622.59 8692.05 6529.26 8683.61 6492.52 8660.27C6450.26 8633.43 6382.67 8623.11 6334 8639.79M4109.02 10159.8H5501.5C5549.5 9969 5571.02 9647.53 5597.52 9473.27M4690.52 6299.56C4689.58 6299.66 4688.64 6299.74 4687.7 6299.83M3563.52 8331.27C3605.12 8325.77 3581.52 8273.27 3563.52 8236.77L3467.02 8058.77L3194.52 8065.77C3119.52 8065.77 3018.08 8139.77 3038.88 8245.77C3040.32 8253.09 3042.4 8261.06 3045.73 8269.29M3563.52 8331.27C3538.47 8334.85 3496.6 8340.28 3448.7 8345.44M4587.37 8231.27H4916.48M8192.33 7831.06C8161.06 7907.7 8112.67 7980.35 8067.02 8028.77C8067.02 8028.77 7908.02 8197.27 7726.02 8231.27C7596.03 8255.56 7414.36 8243.21 7309.88 8232.61M3448.26 8345.49C3448.11 8345.51 3447.96 8345.52 3447.82 8345.54M3448.26 8345.49L3447.82 8345.54M3448.26 8345.49C3448.41 8345.48 3448.55 8345.46 3448.7 8345.44M5416.45 7577.96C5416.55 7578.02 5416.65 7578.07 5416.76 7578.13M5416.45 7577.96C5416.55 7578.02 5416.65 7578.07 5416.76 7578.13M5416.45 7577.96L5416.76 7578.13M5416.45 7577.96C5416.66 7578.08 5416.88 7578.2 5417.09 7578.32M5416.76 7578.13L5417.09 7578.32M5416.76 7578.13C5416.87 7578.2 5416.98 7578.26 5417.09 7578.32M5443.01 7593.08C5434.85 7588.4 5426.69 7583.76 5418.56 7579.15M5418.56 7579.15L5418.37 7579.04M5418.56 7579.15C5418.49 7579.12 5418.43 7579.08 5418.37 7579.04M5418.37 7579.04C5418.28 7578.99 5418.19 7578.94 5418.1 7578.9C5417.77 7578.7 5417.43 7578.51 5417.09 7578.32M3839 4731.27C3860.33 4732.77 3957.22 4802.17 3942.02 4871.77C3923.02 4958.77 3951.95 5016.88 4013.52 5007.27C4084.02 4996.27 4072.02 4917.77 4049.02 4851.77C4017.82 4730.17 3893 4713.27 3839 4731.27Z" stroke="#1E1E1E" stroke-width="10" stroke-linecap="round"/>
<path d="M4834.02 5289.27C4834.02 5289.27 4925.52 5448.27 5112.52 5448.27C5299.52 5448.27 5331.02 5383.77 5331.02 5383.77M4980.52 5583.77C5036.02 5591.6 5160.12 5591.97 5212.52 5530.77M5258.52 4778.77C5258.52 4778.77 5328.17 4885.43 5373.67 4979.43C5410.2 5054.91 5394.86 5156.17 5316.67 5186.43C5223.67 5222.43 5089.02 5156.77 5089.02 5156.77" stroke="#1E1E1E" stroke-width="18" stroke-linecap="round"/>
<path d="M4640 4580.35C4640 4580.35 4725.72 4473.95 4804 4458.35C4890.74 4441.06 5020.5 4524.85 5020.5 4524.85M5336.5 4524.85C5336.5 4524.85 5368.82 4480.64 5439 4458.35C5484.97 4443.75 5562.5 4458.35 5562.5 4458.35" stroke="black" stroke-width="55" stroke-linecap="round"/>
<path d="M5461.02 4745.27C5427.53 4750.32 5412.76 4784.99 5415.02 4818.77C5417.3 4852.92 5437.31 4887 5471.52 4885.77C5504.73 4884.58 5523 4852 5524.02 4818.77C5525.17 4780.99 5498.4 4739.65 5461.02 4745.27Z" fill="black"/>
<path d="M4894.52 4745.27C4850.22 4743.1 4822.64 4796.32 4831.52 4839.77C4838.45 4873.73 4859.87 4901.62 4894.52 4902.27C4935.24 4903.05 4959.55 4859.43 4957.02 4818.77C4954.68 4781.17 4932.15 4747.12 4894.52 4745.27Z" fill="black"/>
<path d="M5461.02 4745.27C5427.53 4750.32 5412.76 4784.99 5415.02 4818.77C5417.3 4852.92 5437.31 4887 5471.52 4885.77C5504.73 4884.58 5523 4852 5524.02 4818.77C5525.17 4780.99 5498.4 4739.65 5461.02 4745.27Z" stroke="#1E1E1E"/>
<path d="M4894.52 4745.27C4850.22 4743.1 4822.64 4796.32 4831.52 4839.77C4838.45 4873.73 4859.87 4901.62 4894.52 4902.27C4935.24 4903.05 4959.55 4859.43 4957.02 4818.77C4954.68 4781.17 4932.15 4747.12 4894.52 4745.27Z" stroke="#1E1E1E"/>
<path d="M3856.02 6891.77C3785.29 6893.94 3734.1 6958.62 3738.02 7029.27C3741.7 7095.74 3789.48 7150.22 3856.02 7152.27C3924.61 7154.39 3977.7 7097.79 3981.52 7029.27C3985.56 6956.68 3928.68 6889.55 3856.02 6891.77Z" fill="#979595"/>
<path d="M5594.52 6891.77C5525.4 6896.21 5478.34 6960.14 5482.52 7029.27C5486.81 7100.47 5546.77 7161.35 5617.52 7152.27C5680.03 7144.25 5719.2 7092.24 5722.02 7029.27C5725.28 6956.12 5667.59 6887.08 5594.52 6891.77Z" fill="#979595"/>
<path d="M3856.02 6891.77C3785.29 6893.94 3734.1 6958.62 3738.02 7029.27C3741.7 7095.74 3789.48 7150.22 3856.02 7152.27C3924.61 7154.39 3977.7 7097.79 3981.52 7029.27C3985.56 6956.68 3928.68 6889.55 3856.02 6891.77Z" stroke="#1E1E1E" stroke-width="7" stroke-linecap="round"/>
<path d="M5594.52 6891.77C5525.4 6896.21 5478.34 6960.14 5482.52 7029.27C5486.81 7100.47 5546.77 7161.35 5617.52 7152.27C5680.03 7144.25 5719.2 7092.24 5722.02 7029.27C5725.28 6956.12 5667.59 6887.08 5594.52 6891.77Z" stroke="#1E1E1E" stroke-width="7" stroke-linecap="round"/>
</g>
<defs>
<clipPath id="clip0_47_6">
<rect width="10327" height="9456" fill="white"/>
</clipPath>
</defs>
</svg>
