<svg width="1413" height="873" viewBox="0 0 1413 873" fill="none" xmlns="http://www.w3.org/2000/svg">
<g filter="url(#filter0_d_532_749)">
<g clip-path="url(#clip0_532_749)">
<rect x="60" y="56" width="1293" height="753" rx="16" fill="white"/>
<g clip-path="url(#clip1_532_749)">
<path d="M1548.22 56.1042H-65.7002V809H1548.22V56.1042Z" fill="#C9E0FC"/>
<path d="M282.811 791.575C277.838 791.575 273.494 789.858 272.866 787.515L255.788 725.39C255.085 722.849 258.978 720.529 264.478 720.204C270.003 719.868 275.001 721.678 275.704 724.218L292.781 786.343C293.485 788.883 289.592 791.204 284.092 791.529C283.665 791.552 283.238 791.563 282.811 791.563V791.575Z" fill="#D5E7FC"/>
<path d="M113.892 200.041H258.4V382.377H108.367C108.367 382.377 113.892 198.208 113.892 200.041Z" fill="#D5E7FC"/>
<path d="M173.413 56.1042L49.0471 147.058H-66.0769V145.318C-66.0267 132.869 -65.7504 64.8168 -65.7002 56.1042H173.413Z" fill="#6679AF"/>
<path d="M1548.22 809H1298.66L1400.37 708.765L1402.83 706.341V706.329L1392.36 635.422L1547.62 607.22V609.088L1548.22 809Z" fill="#6679AF"/>
<path d="M96.7895 809H-65.7002L-66.0518 716.016L-66.0769 711.179L-65.7002 711.202L49.0471 717.617L50.6796 720.738L96.7895 809Z" fill="#6679AF"/>
<path d="M1350.5 113.217L1548.42 147.986L1548.22 56.1157L1330.53 56.1969L1350.5 113.217Z" fill="#6679AF"/>
<path d="M1245.44 645.214L899.543 628.915L931.564 535.223L939.023 535.768L908.233 625.817L1246.2 641.757L1245.44 645.214Z" fill="#F4F3FF"/>
<path d="M1039.63 746.864L771.058 738.697L771.561 735.228L1033.3 743.186L1071.15 636.757L1109.55 544.84L1116.93 545.502L1078.56 637.372L1039.63 746.864Z" fill="#F4F3FF"/>
<path d="M1039.14 743.803L1033.81 746.264L1131.5 791.391L1136.83 788.93L1039.14 743.803Z" fill="#F4F3FF"/>
<path d="M262.167 200.041H254.632V382.377H262.167V200.041Z" fill="#F4F3FF"/>
<path d="M115.625 200.041H108.091V382.377H115.625V200.041Z" fill="#F4F3FF"/>
<path d="M109.831 237.317L106.922 240.527L256.953 269.532L259.862 266.322L109.831 237.317Z" fill="#F4F3FF"/>
<path d="M115.428 316.168L115.24 319.647L254.807 321.257L254.995 317.778L115.428 316.168Z" fill="#F4F3FF"/>
<path d="M177.858 56.1158L51.1316 148.798H-66.0769V145.318H46.9878L168.968 56.1042H177.808L177.858 56.1158Z" fill="#F4F3FF"/>
<path d="M1548.52 151.594L1349.11 114.841L1351.88 111.593L1548.52 147.151V151.594Z" fill="#F4F3FF"/>
<path d="M92.9218 809L46.7114 720.576L45.3804 718.024L49.0471 717.617L52.7137 717.211L54.6476 720.901L100.682 809H92.9218Z" fill="#F4F3FF"/>
<path d="M1549 608.833L1548.22 608.972L1547.62 609.088L1396.3 636.571L1406.65 706.666L1406.25 707.072L1302.83 809H1295.87L1294.74 808.757L1395.07 709.88L1399.02 706.005L1398.92 705.251L1388.42 634.263L1546.26 605.596L1547.62 607.22L1548.22 607.916L1549 608.833Z" fill="#F4F3FF"/>
<path d="M1235.35 788.547C1233.34 788.315 1232.11 787.376 1232.58 786.436L1326.44 611.432L1447.91 597V541.94H1455.45V599.703L1332.69 614.286L1239.92 787.271C1239.41 788.199 1237.38 788.768 1235.35 788.547Z" fill="#F4F3FF"/>
<path d="M1401.33 704.707L1164.05 754.659L1167.17 757.826L1404.45 707.874L1401.33 704.707Z" fill="#F4F3FF"/>
<path d="M1186.85 498.552H982.922L683.886 397.807L670.023 279.312L544.05 277.699L551.207 205.006L558.741 205.169L551.935 274.312L677.18 275.924L691.219 395.962L985.358 495.071H1179.19L1175.82 384.222L984.328 389.036L896.654 69.9216L904.138 69.4807L990.933 385.393L1183.23 380.544L1186.85 498.552Z" fill="#F4F3FF"/>
<path d="M535.587 369.871L431.865 356.657L433.849 353.304L532.497 365.869L670.551 276.609L676.679 278.627L535.587 369.871Z" fill="#F4F3FF"/>
<path d="M875.447 382.239L687.038 395.138L688.142 398.58L876.551 385.682L875.447 382.239Z" fill="#F4F3FF"/>
<path d="M726.204 174.588L725.677 171.119L919.735 164.715L1065.32 102.266L1070.45 104.818L922.924 168.103L921.593 168.137L726.204 174.588Z" fill="#F4F3FF"/>
<path d="M940.022 245.627L824.881 285.926L829.431 288.7L944.572 248.401L940.022 245.627Z" fill="#F4F3FF"/>
<path d="M619.493 131.211L502.059 122.997L503.189 119.551L616.028 127.452L706.941 68.9006C708.147 68.1233 710.483 67.9377 712.19 68.4945C713.898 69.0514 714.275 70.1419 713.069 70.9308L619.493 131.211Z" fill="#F4F3FF"/>
<path d="M621.542 129.215L614.025 129.452L624.491 200.368L632.008 200.131L621.542 129.215Z" fill="#F4F3FF"/>
<path d="M114.219 428.863L96.3875 435.511L-1.65873 472.101L-9.24325 474.932L-65.7002 495.999V491.51L-9.14279 470.407L-1.55827 467.576L96.5382 430.986L109.497 426.148L114.219 428.863Z" fill="#F4F3FF"/>
<path d="M99.2002 565.931L-10.5493 529.944L-7.05843 382.365L0.475862 382.4L-2.98991 528.158L103.57 563.089L99.2002 565.931Z" fill="#F4F3FF"/>
<path d="M794.189 693.324L772.591 699.38L600.256 747.711L576.423 809H568.788L592.345 748.372L593.45 745.553L595.811 744.892L773.821 694.96L790.271 690.343L794.189 693.324Z" fill="#F4F3FF"/>
<path d="M1520.87 387.134L1253.63 261.121L1258.93 258.65L1526.25 384.697C1527.68 385.382 1527.68 386.461 1526.25 387.134C1524.76 387.83 1522.35 387.818 1520.87 387.134Z" fill="#F4F3FF"/>
<path d="M1470.4 264.919L1233.16 343.899L1237.56 346.723L1474.8 267.742L1470.4 264.919Z" fill="#F4F3FF"/>
<path d="M1306.37 371.124L1303.88 367.841L1442.11 345.497L1495.46 302.224C1496.49 301.389 1498.77 301.099 1500.58 301.563C1502.41 302.039 1503.04 303.106 1502.01 303.941L1447.31 348.339L1306.4 371.124H1306.37Z" fill="#F4F3FF"/>
<path d="M1211.31 192.57L1165.96 65.2579C1165.63 64.3066 1167.01 63.4134 1169.07 63.2625C1171.13 63.1117 1173.06 63.7498 1173.39 64.7011L1217.52 188.614L1370.84 177.592L1371.99 181.026L1211.29 192.57H1211.31Z" fill="#F4F3FF"/>
<path d="M1211.08 189.805L1094.67 294.665L1101.37 296.253L1217.78 191.393L1211.08 189.805Z" fill="#F4F3FF"/>
<path d="M1548.22 471.66V474.908L1314.98 534.097L1302.4 537.288L1295.37 536.882L907.152 514.665H793.108L584.333 561.221L562.609 566.07L287.809 627.348L287.658 627.371L-65.7002 690.169V686.421L284.82 624.146L563.84 561.929L585.564 557.079L791.375 511.185H844.693L907.831 511.197L1294.62 533.332L1300.89 533.691L1314.2 530.315L1547.57 471.115L1548.22 471.66Z" fill="#F4F3FF"/>
<path d="M387.312 776.644L383.72 683.811L391.255 683.742L394.645 771.424L529.785 744.892H596.84V748.372H531.317L387.312 776.644Z" fill="#F4F3FF"/>
<path d="M613.893 685.007L614.019 682.13C614.044 681.352 617.51 604.726 617.51 599.97H625.044C625.044 604.297 622.331 665.052 621.679 679.322L790.547 640.319L793.912 643.428L613.868 685.007H613.893Z" fill="#F4F3FF"/>
<path d="M771.309 736.956V736.968L770.656 739.021L748.731 809H613.767L635.214 765.971L761.665 739.009L771.309 736.956Z" fill="#D5E7FC"/>
<path d="M772.891 738.546L772.063 738.731H772.037L770.656 739.021L761.113 741.063L638.48 767.201L617.635 809H609.899L631.975 764.753L762.218 736.979L769.727 735.378L771.309 736.956V736.968L772.891 738.546Z" fill="#F4F3FF"/>
<path d="M60.0449 198.987L-7.37964 313.543L-0.109269 314.457L67.3152 199.9L60.0449 198.987Z" fill="#F4F3FF"/>
<path d="M613.525 424.186L110.771 474.059L112.353 477.461L615.107 427.589L613.525 424.186Z" fill="#F4F3FF"/>
<path d="M237.201 463.676L229.668 463.746L234.035 564.227L241.568 564.158L237.201 463.676Z" fill="#F4F3FF"/>
<path d="M339.723 452.176L335.858 455.163L535.988 510.426L539.854 507.438L339.723 452.176Z" fill="#F4F3FF"/>
<path d="M529.71 56.1042L512.08 120.166L511.125 123.635L491.009 196.746L488.447 206.015L447.46 355.033L446.481 358.525L440.629 379.778V379.79L438.62 387.133L427.319 387.075L118.086 385.37L97.9697 385.254L0.425766 384.72L-7.10852 384.674L-65.7002 384.349V375.068L98.2711 375.973L108.091 376.019L108.543 376.031L115.625 376.066L118.363 376.077L254.633 376.831L262.167 376.878L420.94 377.748L468.255 205.876L470.792 196.607L509.468 56.1042H529.71Z" fill="#D5E7FC"/>
<path d="M625.219 423.259L603.47 496.649L600.406 507.02H600.381L585.564 557.079L584.333 561.221L569.415 611.512L565.548 624.575L529.885 744.891L528.705 748.882L510.899 809H490.632L507.182 753.105L508.388 749.091L542.895 632.58H542.92L546.762 619.529H546.787L562.609 566.07L563.84 561.929L579.059 510.547L582.148 500.175L603.295 428.77L603.37 428.526L593.4 426.183L427.319 387.075L425.209 386.576L434.351 378.305L440.629 379.778V379.79L625.219 423.259Z" fill="#D5E7FC"/>
<path d="M1547.92 464.56L1088.33 297.839L1049.32 56L1071.15 56.1972L1107.72 293.059L1549.23 452.112L1547.92 464.56Z" fill="#D5E7FC"/>
<path d="M313.752 56.1045L133.105 194.298L125.621 200.029L123.888 201.363L123.812 203.521L122.682 239.81L122.557 243.568L120.271 316.227L120.146 319.707L118.363 376.078L118.162 382.377L118.086 385.37L115.299 473.632L115.173 477.205L112.009 577.857L111.732 586.396L108.945 587.718L107.312 588.496L-65.7002 670.574V657.268L91.7414 582.568L92.3442 563.669L92.4697 559.446L96.3876 435.511L96.5382 430.986L97.9698 385.254L98.2711 375.973L103.721 203.382L103.872 198.707L109.849 194.147L290.295 56.1045H313.752Z" fill="#F9DFA3"/>
<path d="M952.736 56.1045L904.893 72.1838L897.911 74.5272L766.513 118.67L733.714 170.852L731.479 174.414L713.949 202.268V202.28L710.659 207.535L697.223 207.442L558.617 206.491L551.057 206.445L488.447 206.015L468.255 205.876L262.167 204.472L258.4 204.438L254.633 204.414L123.812 203.521L115.625 203.463L113.792 203.452L108.091 203.417L103.721 203.382L65.4468 203.127H65.4216L57.6362 203.069L-44.0517 202.373L-51.7618 202.326L-65.7002 202.222V192.941L109.849 194.147L133.105 194.298L470.792 196.607L491.009 196.746L624.09 197.663L631.649 197.709L695.64 198.15L749.134 113.032L918.58 56.1045H952.736Z" fill="#F9DFA3"/>
<path d="M889.698 347.84L888.618 351.785L860.716 453.075L859.913 455.94L859.611 457.008L857.326 465.349L844.693 511.185L843.739 514.666L842.684 518.517L840.123 527.74L782.887 735.576L781.933 739.021L762.645 809H742.378L761.113 741.063L761.666 739.01L762.218 736.98L772.59 699.38L773.821 694.96L787.609 644.889L788.764 640.724L817.796 535.327L821.362 522.369L823.497 514.666L824.451 511.185L836.356 468.029L839.193 457.692L841.102 450.766L842.182 446.833L858.682 386.925L859.687 383.34L868.954 349.696L697.222 207.442L694.384 205.099L711.914 200.586L713.948 202.268V202.28L883.37 342.596L889.698 347.84Z" fill="#F9DFA3"/>
<path d="M1548.22 520.037V529.84L1455.45 544.319L1447.91 545.502L1318.45 565.711L1311.42 566.813L1308.86 566.605L1297.15 565.63L1114.82 550.514L1107.44 549.91L938.973 535.943L931.539 535.316L840.123 527.741L839.395 527.683L817.796 535.328L624.943 603.566L617.309 606.269L565.548 624.576L542.92 632.569L542.895 632.581L391.355 686.213L383.921 688.835L276.457 726.864L268.772 729.578L256.818 729.091L54.6476 720.901L50.6796 720.738L46.7115 720.576L-65.7002 716.028L-66.0518 716.017L-66.0769 711.179L-65.7002 711.202V706.713L262.745 720.019L546.763 619.541L546.788 619.529L569.416 611.513L821.362 522.369L834.221 517.822L842.685 518.518L1299.36 556.384H1299.39L1309.89 557.254L1319.45 555.758L1548.22 520.037Z" fill="#F9DFA3"/>
<path d="M1548.22 290.171V302.874L1470.29 269.254L1464.67 266.829L1387.92 233.708L1266.97 262.316L1259.91 263.987L1119.29 297.236L1099.6 301.888L976.017 331.111L968.884 332.805L888.619 351.785L883.897 352.898L874.756 344.638L883.37 342.596L966.197 323.014L973.329 321.331L1087.78 294.266L1097.72 291.911L1107.19 289.672L1109.2 289.196L1378.67 225.471L1391.33 222.478L1399.07 225.819L1548.22 290.171Z" fill="#F9DFA3"/>
<path d="M1399.57 227.454L1379.68 228.742L1378.67 225.471L1365.29 181.502L1364.26 178.056L1327.11 56.1045H1347.41L1347.61 56.7542L1365.04 113.983L1365.64 115.967L1366.22 117.939L1399.07 225.819L1399.57 227.454Z" fill="#F9DFA3"/>
<path d="M1320.86 562.625L1318.45 565.711L1172.79 752.873L1169.22 757.444L1129.09 809H1107.74L1124.12 787.967L1126.93 784.347L1235.57 644.75L1238.21 641.374L1297.15 565.63L1300.42 561.442L1299.39 556.384H1299.36L1295.37 536.882L1294.62 533.332L1278.07 453.005C1277.64 450.882 1273.57 449.316 1268.97 449.502L1185.42 452.715L1177.88 453.005L893.038 463.98L881.586 464.421L857.301 465.349L851.072 465.592L836.33 468.029L600.381 507.02L579.034 510.547L107.287 588.496L105.102 588.855L98.321 580.12L111.983 577.857L233.637 557.764L241.121 556.523L530.011 508.784L539.153 507.276L582.123 500.176L603.445 496.649L839.168 457.692L846.778 456.439L848.084 456.393L856.773 456.056L859.888 455.94L868.251 455.615L1177.61 443.701L1185.14 443.411L1283.72 439.617C1290.17 439.374 1295.85 441.566 1296.47 444.548L1314.18 530.327L1314.96 534.109L1319.43 555.769L1320.84 562.637L1320.86 562.625Z" fill="#F9DFA3"/>
<g filter="url(#filter1_d_532_749)">
<rect x="804.071" y="347" width="81.8586" height="52.8586" rx="12.9293" fill="#1E3A8A" shape-rendering="crispEdges"/>
<path d="M822.2 375.309L817.2 366.129H820.82L823.3 370.929C823.54 371.389 823.7 371.749 823.86 372.129C824.04 371.769 824.2 371.389 824.44 370.909L826.92 366.129H830.44L825.44 375.309V380.929H822.2V375.309ZM833.399 380.929H830.019L835.299 366.129H838.459L843.719 380.929H840.279L839.239 377.809H834.459L833.399 380.929ZM836.459 371.929L835.399 375.089H838.319L837.259 371.929C837.099 371.429 836.919 370.849 836.859 370.489C836.799 370.829 836.639 371.389 836.459 371.929ZM846.25 380.929V366.129H852.41C855.39 366.129 857.19 367.689 857.19 370.229C857.19 371.809 856.47 372.969 855.13 373.549C856.59 374.029 857.37 375.169 857.37 376.849C857.37 379.469 855.61 380.929 852.41 380.929H846.25ZM852.07 368.969H849.49V372.189H852.07C853.23 372.189 853.87 371.609 853.87 370.549C853.87 369.509 853.25 368.969 852.07 368.969ZM852.23 374.909H849.49V378.089H852.23C853.43 378.089 854.05 377.549 854.05 376.449C854.05 375.449 853.41 374.909 852.23 374.909ZM862.183 380.929H858.803L864.083 366.129H867.243L872.503 380.929H869.063L868.023 377.809H863.243L862.183 380.929ZM865.243 371.929L864.183 375.089H867.103L866.043 371.929C865.883 371.429 865.703 370.849 865.643 370.489C865.583 370.829 865.423 371.389 865.243 371.929Z" fill="#F4F3FF"/>
</g>
<mask id="mask0_532_749" style="mask-type:alpha" maskUnits="userSpaceOnUse" x="812" y="399" width="66" height="66">
<rect x="812.677" y="399.859" width="64.6465" height="64.6465" fill="#D9D9D9"/>
</mask>
<g mask="url(#mask0_532_749)">
<path d="M845 432.182C846.481 432.182 847.75 431.654 848.805 430.599C849.86 429.544 850.387 428.276 850.387 426.795C850.387 425.313 849.86 424.045 848.805 422.99C847.75 421.935 846.481 421.407 845 421.407C843.519 421.407 842.25 421.935 841.195 422.99C840.14 424.045 839.613 425.313 839.613 426.795C839.613 428.276 840.14 429.544 841.195 430.599C842.25 431.654 843.519 432.182 845 432.182ZM845 459.118C837.772 452.968 832.374 447.255 828.805 441.98C825.236 436.705 823.451 431.823 823.451 427.333C823.451 420.599 825.617 415.235 829.949 411.239C834.282 407.244 839.299 405.246 845 405.246C850.701 405.246 855.718 407.244 860.05 411.239C864.383 415.235 866.549 420.599 866.549 427.333C866.549 431.823 864.764 436.705 861.195 441.98C857.626 447.255 852.228 452.968 845 459.118Z" fill="#FEBC23"/>
</g>
<g filter="url(#filter2_d_532_749)">
<rect x="674.5" y="589" width="136.859" height="52.8586" rx="12.9293" fill="#1E3A8A" shape-rendering="crispEdges"/>
<path d="M688.149 612.429C688.149 609.749 690.409 607.849 693.589 607.849C696.769 607.849 698.769 609.609 698.769 612.409H695.549C695.549 611.369 694.769 610.729 693.549 610.729C692.229 610.729 691.389 611.329 691.389 612.309C691.389 613.209 691.849 613.649 692.889 613.869L695.109 614.329C697.749 614.869 699.009 616.129 699.009 618.469C699.009 621.329 696.769 623.189 693.369 623.189C690.069 623.189 687.929 621.409 687.929 618.629H691.149C691.149 619.709 691.949 620.309 693.389 620.309C694.849 620.309 695.769 619.729 695.769 618.789C695.769 617.969 695.389 617.549 694.409 617.349L692.149 616.889C689.509 616.349 688.149 614.849 688.149 612.429ZM701.865 617.369V608.129H705.105V617.149C705.105 619.009 706.125 620.029 707.945 620.029C709.785 620.029 710.825 618.969 710.825 617.149V608.129H714.065V617.369C714.065 620.889 711.665 623.169 707.945 623.169C704.245 623.169 701.865 620.909 701.865 617.369ZM721.091 622.929H717.851V608.129H723.571C727.171 608.129 729.211 609.869 729.211 612.929C729.211 614.849 728.391 616.209 726.751 617.049L729.351 622.929H725.811L723.591 617.749H721.091V622.929ZM721.091 611.009V614.909H723.551C724.971 614.909 725.791 614.189 725.791 612.929C725.791 611.689 725.011 611.009 723.571 611.009H721.091ZM732.329 617.369V608.129H735.569V617.149C735.569 619.009 736.589 620.029 738.409 620.029C740.249 620.029 741.289 618.969 741.289 617.149V608.129H744.529V617.369C744.529 620.889 742.129 623.169 738.409 623.169C734.709 623.169 732.329 620.909 732.329 617.369ZM751.555 608.129V619.929H757.395V622.929H748.315V608.129H751.555ZM769.636 622.929H760.236V608.129H769.636V611.129H763.476V614.029H768.936V616.869H763.476V619.929H769.636V622.929ZM776.335 622.929H773.095V608.129H778.815C782.415 608.129 784.455 609.869 784.455 612.929C784.455 614.849 783.635 616.209 781.995 617.049L784.595 622.929H781.055L778.835 617.749H776.335V622.929ZM776.335 611.009V614.909H778.795C780.215 614.909 781.035 614.189 781.035 612.929C781.035 611.689 780.255 611.009 778.815 611.009H776.335ZM797.073 622.929H787.673V608.129H797.073V611.129H790.913V614.029H796.373V616.869H790.913V619.929H797.073V622.929Z" fill="#F4F3FF"/>
</g>
<mask id="mask1_532_749" style="mask-type:alpha" maskUnits="userSpaceOnUse" x="710" y="641" width="66" height="66">
<rect x="710.606" y="641.858" width="64.6465" height="64.6465" fill="#D9D9D9"/>
</mask>
<g mask="url(#mask1_532_749)">
<path d="M742.929 674.182C744.411 674.182 745.679 673.654 746.734 672.599C747.789 671.544 748.316 670.276 748.316 668.794C748.316 667.313 747.789 666.045 746.734 664.99C745.679 663.935 744.411 663.407 742.929 663.407C741.448 663.407 740.179 663.935 739.124 664.99C738.069 666.045 737.542 667.313 737.542 668.794C737.542 670.276 738.069 671.544 739.124 672.599C740.179 673.654 741.448 674.182 742.929 674.182ZM742.929 701.118C735.701 694.967 730.303 689.255 726.734 683.98C723.165 678.705 721.38 673.822 721.38 669.333C721.38 662.599 723.546 657.234 727.879 653.239C732.211 649.243 737.228 647.246 742.929 647.246C748.631 647.246 753.647 649.243 757.98 653.239C762.312 657.234 764.478 662.599 764.478 669.333C764.478 673.822 762.694 678.705 759.124 683.98C755.555 689.255 750.157 694.967 742.929 701.118Z" fill="#FEBC23"/>
</g>
<g filter="url(#filter3_d_532_749)">
<rect x="1139" y="440" width="114.859" height="52.8586" rx="12.9293" fill="#1E3A8A" shape-rendering="crispEdges"/>
<path d="M1156.71 459.129V473.929H1153.47V459.129H1156.71ZM1163.85 459.129V470.929H1169.69V473.929H1160.61V459.129H1163.85ZM1171.82 468.369V459.129H1175.06V468.149C1175.06 470.009 1176.08 471.029 1177.9 471.029C1179.74 471.029 1180.78 469.969 1180.78 468.149V459.129H1184.02V468.369C1184.02 471.889 1181.62 474.169 1177.9 474.169C1174.2 474.169 1171.82 471.909 1171.82 468.369ZM1193.81 469.009H1191.05V473.929H1187.81V459.129H1193.81C1196.83 459.129 1198.85 461.109 1198.85 464.069C1198.85 467.029 1196.83 469.009 1193.81 469.009ZM1193.09 462.009H1191.05V466.129H1193.09C1194.65 466.129 1195.43 465.449 1195.43 464.069C1195.43 462.689 1194.65 462.009 1193.09 462.009ZM1211.1 473.929H1201.7V459.129H1211.1V462.129H1204.94V465.029H1210.4V467.869H1204.94V470.929H1211.1V473.929ZM1213.42 469.689V468.649H1216.54V469.689C1216.54 470.469 1216.98 471.189 1218.22 471.189C1219.42 471.189 1219.88 470.569 1219.88 469.569V459.129H1223.12V469.769C1223.12 472.309 1221.24 474.189 1218.26 474.189C1215 474.189 1213.42 472.249 1213.42 469.689ZM1226.81 468.369V459.129H1230.05V468.149C1230.05 470.009 1231.07 471.029 1232.89 471.029C1234.73 471.029 1235.77 469.969 1235.77 468.149V459.129H1239.01V468.369C1239.01 471.889 1236.61 474.169 1232.89 474.169C1229.19 474.169 1226.81 471.909 1226.81 468.369Z" fill="#F4F3FF"/>
</g>
<mask id="mask2_532_749" style="mask-type:alpha" maskUnits="userSpaceOnUse" x="1164" y="492" width="65" height="66">
<rect x="1164.11" y="492.859" width="64.6465" height="64.6465" fill="#D9D9D9"/>
</mask>
<g mask="url(#mask2_532_749)">
<path d="M1196.43 525.182C1197.91 525.182 1199.18 524.654 1200.23 523.599C1201.29 522.544 1201.82 521.276 1201.82 519.795C1201.82 518.313 1201.29 517.045 1200.23 515.99C1199.18 514.935 1197.91 514.407 1196.43 514.407C1194.95 514.407 1193.68 514.935 1192.62 515.99C1191.57 517.045 1191.04 518.313 1191.04 519.795C1191.04 521.276 1191.57 522.544 1192.62 523.599C1193.68 524.654 1194.95 525.182 1196.43 525.182ZM1196.43 552.118C1189.2 545.968 1183.8 540.255 1180.23 534.98C1176.66 529.705 1174.88 524.823 1174.88 520.333C1174.88 513.599 1177.05 508.235 1181.38 504.239C1185.71 500.244 1190.73 498.246 1196.43 498.246C1202.13 498.246 1207.15 500.244 1211.48 504.239C1215.81 508.235 1217.98 513.599 1217.98 520.333C1217.98 524.823 1216.19 529.705 1212.62 534.98C1209.06 540.255 1203.66 545.968 1196.43 552.118Z" fill="#FEBC23"/>
</g>
<g filter="url(#filter4_d_532_749)">
<rect x="202" y="602" width="133.859" height="52.8586" rx="12.9293" fill="#1E3A8A" shape-rendering="crispEdges"/>
<path d="M218.489 635.929H215.109L220.389 621.129H223.549L228.809 635.929H225.369L224.329 632.809H219.549L218.489 635.929ZM221.549 626.929L220.489 630.089H223.409L222.349 626.929C222.189 626.429 222.009 625.849 221.949 625.489C221.889 625.829 221.729 626.389 221.549 626.929ZM234.54 635.929H231.34V621.129H234.54L240.78 630.549V621.129H243.98V635.929H240.78L234.54 626.529V635.929ZM246.731 624.129V621.129H258.371V624.129H254.171V635.929H250.931V624.129H246.731ZM264.36 635.929H261.12V621.129H264.36V626.969H270.08V621.129H273.32V635.929H270.08V629.969H264.36V635.929ZM290.882 628.509C290.882 633.029 287.902 636.169 283.602 636.169C279.322 636.169 276.382 633.049 276.382 628.529C276.382 624.009 279.342 620.869 283.622 620.869C287.922 620.869 290.882 623.989 290.882 628.509ZM287.462 628.509C287.462 625.689 286.022 623.989 283.642 623.989C281.242 623.989 279.802 625.689 279.802 628.509C279.802 631.349 281.242 633.049 283.642 633.049C286.022 633.049 287.462 631.309 287.462 628.509ZM297.147 635.929H293.947V621.129H297.147L303.387 630.549V621.129H306.587V635.929H303.387L297.147 626.529V635.929ZM314.138 630.309L309.138 621.129H312.758L315.238 625.929C315.478 626.389 315.638 626.749 315.798 627.129C315.978 626.769 316.138 626.389 316.378 625.909L318.858 621.129H322.378L317.378 630.309V635.929H314.138V630.309Z" fill="#F4F3FF"/>
</g>
<mask id="mask3_532_749" style="mask-type:alpha" maskUnits="userSpaceOnUse" x="236" y="654" width="66" height="66">
<rect x="236.606" y="654.858" width="64.6465" height="64.6465" fill="#D9D9D9"/>
</mask>
<g mask="url(#mask3_532_749)">
<path d="M268.929 687.182C270.411 687.182 271.679 686.654 272.734 685.599C273.789 684.544 274.316 683.276 274.316 681.794C274.316 680.313 273.789 679.045 272.734 677.99C271.679 676.935 270.411 676.407 268.929 676.407C267.448 676.407 266.179 676.935 265.124 677.99C264.069 679.045 263.542 680.313 263.542 681.794C263.542 683.276 264.069 684.544 265.124 685.599C266.179 686.654 267.448 687.182 268.929 687.182ZM268.929 714.118C261.701 707.967 256.303 702.255 252.734 696.98C249.165 691.705 247.38 686.822 247.38 682.333C247.38 675.599 249.546 670.234 253.879 666.239C258.211 662.243 263.228 660.246 268.929 660.246C274.631 660.246 279.647 662.243 283.98 666.239C288.312 670.234 290.478 675.599 290.478 682.333C290.478 686.822 288.694 691.705 285.124 696.98C281.555 702.255 276.157 707.967 268.929 714.118Z" fill="#FEBC23"/>
</g>
<g filter="url(#filter5_d_532_749)">
<rect x="451.5" y="85" width="133.859" height="52.8586" rx="12.9293" fill="#1E3A8A" shape-rendering="crispEdges"/>
<path d="M465.149 108.429C465.149 105.749 467.409 103.849 470.589 103.849C473.769 103.849 475.769 105.609 475.769 108.409H472.549C472.549 107.369 471.769 106.729 470.549 106.729C469.229 106.729 468.389 107.329 468.389 108.309C468.389 109.209 468.849 109.649 469.889 109.869L472.109 110.329C474.749 110.869 476.009 112.129 476.009 114.469C476.009 117.329 473.769 119.189 470.369 119.189C467.069 119.189 464.929 117.409 464.929 114.629H468.149C468.149 115.709 468.949 116.309 470.389 116.309C471.849 116.309 472.769 115.729 472.769 114.789C472.769 113.969 472.389 113.549 471.409 113.349L469.149 112.889C466.509 112.349 465.149 110.849 465.149 108.429ZM482.205 118.929H478.965V104.129H482.205V109.969H487.925V104.129H491.165V118.929H487.925V112.969H482.205V118.929ZM508.726 111.509C508.726 116.029 505.746 119.169 501.446 119.169C497.166 119.169 494.226 116.049 494.226 111.529C494.226 107.009 497.186 103.869 501.466 103.869C505.766 103.869 508.726 106.989 508.726 111.509ZM505.306 111.509C505.306 108.689 503.866 106.989 501.486 106.989C499.086 106.989 497.646 108.689 497.646 111.509C497.646 114.349 499.086 116.049 501.486 116.049C503.866 116.049 505.306 114.309 505.306 111.509ZM514.932 118.929H511.792V104.129H514.932L519.332 115.169L523.752 104.129H526.932V118.929H523.792V115.829C523.792 112.629 523.792 111.929 523.952 110.829L520.812 118.929H517.852L514.732 110.829C514.912 111.929 514.932 113.169 514.932 114.789V118.929ZM544.503 111.509C544.503 116.029 541.523 119.169 537.223 119.169C532.943 119.169 530.003 116.049 530.003 111.529C530.003 107.009 532.963 103.869 537.243 103.869C541.543 103.869 544.503 106.989 544.503 111.509ZM541.083 111.509C541.083 108.689 539.643 106.989 537.263 106.989C534.863 106.989 533.423 108.689 533.423 111.509C533.423 114.349 534.863 116.049 537.263 116.049C539.643 116.049 541.083 114.309 541.083 111.509ZM550.808 104.129V115.929H556.648V118.929H547.568V104.129H550.808ZM558.784 113.369V104.129H562.024V113.149C562.024 115.009 563.044 116.029 564.864 116.029C566.704 116.029 567.744 114.969 567.744 113.149V104.129H570.984V113.369C570.984 116.889 568.584 119.169 564.864 119.169C561.164 119.169 558.784 116.909 558.784 113.369Z" fill="#F4F3FF"/>
</g>
<mask id="mask4_532_749" style="mask-type:alpha" maskUnits="userSpaceOnUse" x="486" y="137" width="65" height="66">
<rect x="486.106" y="137.859" width="64.6465" height="64.6465" fill="#D9D9D9"/>
</mask>
<g mask="url(#mask4_532_749)">
<path d="M518.429 170.182C519.911 170.182 521.179 169.654 522.234 168.599C523.289 167.544 523.816 166.276 523.816 164.795C523.816 163.313 523.289 162.045 522.234 160.99C521.179 159.935 519.911 159.407 518.429 159.407C516.948 159.407 515.679 159.935 514.624 160.99C513.569 162.045 513.042 163.313 513.042 164.795C513.042 166.276 513.569 167.544 514.624 168.599C515.679 169.654 516.948 170.182 518.429 170.182ZM518.429 197.118C511.201 190.968 505.803 185.255 502.234 179.98C498.665 174.705 496.88 169.823 496.88 165.333C496.88 158.599 499.046 153.235 503.379 149.239C507.711 145.244 512.728 143.246 518.429 143.246C524.131 143.246 529.147 145.244 533.48 149.239C537.812 153.235 539.978 158.599 539.978 165.333C539.978 169.823 538.194 174.705 534.624 179.98C531.055 185.255 525.657 190.968 518.429 197.118Z" fill="#FEBC23"/>
</g>
<g filter="url(#filter6_d_532_749)">
<rect x="184" y="347" width="147.859" height="52.8586" rx="12.9293" fill="#1E3A8A" shape-rendering="crispEdges"/>
<path d="M201.609 380.929H198.469V366.129H201.609L206.009 377.169L210.429 366.129H213.609V380.929H210.469V377.829C210.469 374.629 210.469 373.929 210.629 372.829L207.489 380.929H204.529L201.409 372.829C201.589 373.929 201.609 375.169 201.609 376.789V380.929ZM219.52 380.929H216.14L221.42 366.129H224.58L229.84 380.929H226.4L225.36 377.809H220.58L219.52 380.929ZM222.58 371.929L221.52 375.089H224.44L223.38 371.929C223.22 371.429 223.04 370.849 222.98 370.489C222.92 370.829 222.76 371.389 222.58 371.929ZM235.611 380.929H232.371V366.129H238.091C241.691 366.129 243.731 367.869 243.731 370.929C243.731 372.849 242.911 374.209 241.271 375.049L243.871 380.929H240.331L238.111 375.749H235.611V380.929ZM235.611 369.009V372.909H238.071C239.491 372.909 240.311 372.189 240.311 370.929C240.311 369.689 239.531 369.009 238.091 369.009H235.611ZM250.218 375.309L245.218 366.129H248.838L251.318 370.929C251.558 371.389 251.718 371.749 251.878 372.129C252.058 371.769 252.218 371.389 252.458 370.909L254.938 366.129H258.458L253.458 375.309V380.929H250.218V375.309ZM264.238 366.129V377.929H270.078V380.929H260.998V366.129H264.238ZM275.33 380.929H271.95L277.23 366.129H280.39L285.65 380.929H282.21L281.17 377.809H276.39L275.33 380.929ZM278.39 371.929L277.33 375.089H280.25L279.19 371.929C279.03 371.429 278.85 370.849 278.79 370.489C278.73 370.829 278.57 371.389 278.39 371.929ZM291.381 380.929H288.181V366.129H291.381L297.621 375.549V366.129H300.821V380.929H297.621L291.381 371.529V380.929ZM310.512 380.929H304.712V366.129H310.312C314.652 366.129 317.672 369.169 317.672 373.569C317.672 377.889 314.732 380.929 310.512 380.929ZM309.992 369.129H307.952V377.929H310.192C312.752 377.929 314.252 376.309 314.252 373.569C314.252 370.769 312.672 369.129 309.992 369.129Z" fill="#F4F3FF"/>
</g>
<mask id="mask5_532_749" style="mask-type:alpha" maskUnits="userSpaceOnUse" x="225" y="399" width="66" height="66">
<rect x="225.606" y="399.859" width="64.6465" height="64.6465" fill="#D9D9D9"/>
</mask>
<g mask="url(#mask5_532_749)">
<path d="M257.929 432.182C259.411 432.182 260.679 431.654 261.734 430.599C262.789 429.544 263.316 428.276 263.316 426.795C263.316 425.313 262.789 424.045 261.734 422.99C260.679 421.935 259.411 421.407 257.929 421.407C256.448 421.407 255.179 421.935 254.124 422.99C253.069 424.045 252.542 425.313 252.542 426.795C252.542 428.276 253.069 429.544 254.124 430.599C255.179 431.654 256.448 432.182 257.929 432.182ZM257.929 459.118C250.701 452.968 245.303 447.255 241.734 441.98C238.165 436.705 236.38 431.823 236.38 427.333C236.38 420.599 238.546 415.235 242.879 411.239C247.211 407.244 252.228 405.246 257.929 405.246C263.631 405.246 268.647 407.244 272.98 411.239C277.312 415.235 279.478 420.599 279.478 427.333C279.478 431.823 277.694 436.705 274.124 441.98C270.555 447.255 265.157 452.968 257.929 459.118Z" fill="#FEBC23"/>
</g>
<g filter="url(#filter7_d_532_749)">
<rect x="1073" y="163" width="131.859" height="52.8586" rx="12.9293" fill="#1E3A8A" shape-rendering="crispEdges"/>
<path d="M1094.13 184.929C1091.45 184.929 1090.07 186.809 1090.07 189.669C1090.07 192.649 1091.75 194.129 1094.11 194.129C1096.55 194.129 1097.63 192.809 1097.77 191.269H1093.85V188.429H1100.81V196.929H1098.03L1097.85 195.589C1097.05 196.529 1095.45 197.149 1093.69 197.149C1089.55 197.149 1086.65 194.109 1086.65 189.569C1086.65 185.109 1089.63 181.889 1094.21 181.889C1097.75 181.889 1100.47 183.969 1100.81 187.169H1097.41C1097.03 185.609 1095.67 184.929 1094.13 184.929ZM1104.29 196.929V182.129H1110.45C1113.43 182.129 1115.23 183.689 1115.23 186.229C1115.23 187.809 1114.51 188.969 1113.17 189.549C1114.63 190.029 1115.41 191.169 1115.41 192.849C1115.41 195.469 1113.65 196.929 1110.45 196.929H1104.29ZM1110.11 184.969H1107.53V188.189H1110.11C1111.27 188.189 1111.91 187.609 1111.91 186.549C1111.91 185.509 1111.29 184.969 1110.11 184.969ZM1110.27 190.909H1107.53V194.089H1110.27C1111.47 194.089 1112.09 193.549 1112.09 192.449C1112.09 191.449 1111.45 190.909 1110.27 190.909ZM1120.23 196.929H1116.85L1122.13 182.129H1125.29L1130.55 196.929H1127.11L1126.07 193.809H1121.29L1120.23 196.929ZM1123.29 187.929L1122.23 191.089H1125.15L1124.09 187.929C1123.93 187.429 1123.75 186.849 1123.69 186.489C1123.63 186.829 1123.47 187.389 1123.29 187.929ZM1138.94 184.929C1136.26 184.929 1134.88 186.809 1134.88 189.669C1134.88 192.649 1136.56 194.129 1138.92 194.129C1141.36 194.129 1142.44 192.809 1142.58 191.269H1138.66V188.429H1145.62V196.929H1142.84L1142.66 195.589C1141.86 196.529 1140.26 197.149 1138.5 197.149C1134.36 197.149 1131.46 194.109 1131.46 189.569C1131.46 185.109 1134.44 181.889 1139.02 181.889C1142.56 181.889 1145.28 183.969 1145.62 187.169H1142.22C1141.84 185.609 1140.48 184.929 1138.94 184.929ZM1151.12 196.929H1147.74L1153.02 182.129H1156.18L1161.44 196.929H1158L1156.96 193.809H1152.18L1151.12 196.929ZM1154.18 187.929L1153.12 191.089H1156.04L1154.98 187.929C1154.82 187.429 1154.64 186.849 1154.58 186.489C1154.52 186.829 1154.36 187.389 1154.18 187.929ZM1169.77 196.929H1163.97V182.129H1169.57C1173.91 182.129 1176.93 185.169 1176.93 189.569C1176.93 193.889 1173.99 196.929 1169.77 196.929ZM1169.25 185.129H1167.21V193.929H1169.45C1172.01 193.929 1173.51 192.309 1173.51 189.569C1173.51 186.769 1171.93 185.129 1169.25 185.129ZM1181.21 196.929H1177.83L1183.11 182.129H1186.27L1191.53 196.929H1188.09L1187.05 193.809H1182.27L1181.21 196.929ZM1184.27 187.929L1183.21 191.089H1186.13L1185.07 187.929C1184.91 187.429 1184.73 186.849 1184.67 186.489C1184.61 186.829 1184.45 187.389 1184.27 187.929Z" fill="#F4F3FF"/>
</g>
<mask id="mask6_532_749" style="mask-type:alpha" maskUnits="userSpaceOnUse" x="1106" y="215" width="66" height="66">
<rect x="1106.61" y="215.859" width="64.6465" height="64.6465" fill="#D9D9D9"/>
</mask>
<g mask="url(#mask6_532_749)">
<path d="M1138.93 248.182C1140.41 248.182 1141.68 247.654 1142.73 246.599C1143.79 245.544 1144.32 244.276 1144.32 242.795C1144.32 241.313 1143.79 240.045 1142.73 238.99C1141.68 237.935 1140.41 237.407 1138.93 237.407C1137.45 237.407 1136.18 237.935 1135.12 238.99C1134.07 240.045 1133.54 241.313 1133.54 242.795C1133.54 244.276 1134.07 245.544 1135.12 246.599C1136.18 247.654 1137.45 248.182 1138.93 248.182ZM1138.93 275.118C1131.7 268.968 1126.3 263.255 1122.73 257.98C1119.16 252.705 1117.38 247.823 1117.38 243.333C1117.38 236.599 1119.55 231.235 1123.88 227.239C1128.21 223.244 1133.23 221.246 1138.93 221.246C1144.63 221.246 1149.65 223.244 1153.98 227.239C1158.31 231.235 1160.48 236.599 1160.48 243.333C1160.48 247.823 1158.69 252.705 1155.12 257.98C1151.56 263.255 1146.16 268.968 1138.93 275.118Z" fill="#FEBC23"/>
</g>
</g>
</g>
</g>
<defs>
<filter id="filter0_d_532_749" x="0" y="0" width="1413" height="873" filterUnits="userSpaceOnUse" color-interpolation-filters="sRGB">
<feFlood flood-opacity="0" result="BackgroundImageFix"/>
<feColorMatrix in="SourceAlpha" type="matrix" values="0 0 0 0 0 0 0 0 0 0 0 0 0 0 0 0 0 0 127 0" result="hardAlpha"/>
<feOffset dy="4"/>
<feGaussianBlur stdDeviation="30"/>
<feComposite in2="hardAlpha" operator="out"/>
<feColorMatrix type="matrix" values="0 0 0 0 0.117647 0 0 0 0 0.117647 0 0 0 0 0.117647 0 0 0 0.1 0"/>
<feBlend mode="normal" in2="BackgroundImageFix" result="effect1_dropShadow_532_749"/>
<feBlend mode="normal" in="SourceGraphic" in2="effect1_dropShadow_532_749" result="shape"/>
</filter>
<filter id="filter1_d_532_749" x="787.909" y="334.071" width="114.182" height="85.1819" filterUnits="userSpaceOnUse" color-interpolation-filters="sRGB">
<feFlood flood-opacity="0" result="BackgroundImageFix"/>
<feColorMatrix in="SourceAlpha" type="matrix" values="0 0 0 0 0 0 0 0 0 0 0 0 0 0 0 0 0 0 127 0" result="hardAlpha"/>
<feOffset dy="3.23232"/>
<feGaussianBlur stdDeviation="8.08081"/>
<feComposite in2="hardAlpha" operator="out"/>
<feColorMatrix type="matrix" values="0 0 0 0 0.117647 0 0 0 0 0.117647 0 0 0 0 0.117647 0 0 0 0.1 0"/>
<feBlend mode="normal" in2="BackgroundImageFix" result="effect1_dropShadow_532_749"/>
<feBlend mode="normal" in="SourceGraphic" in2="effect1_dropShadow_532_749" result="shape"/>
</filter>
<filter id="filter2_d_532_749" x="658.338" y="576.071" width="169.182" height="85.1816" filterUnits="userSpaceOnUse" color-interpolation-filters="sRGB">
<feFlood flood-opacity="0" result="BackgroundImageFix"/>
<feColorMatrix in="SourceAlpha" type="matrix" values="0 0 0 0 0 0 0 0 0 0 0 0 0 0 0 0 0 0 127 0" result="hardAlpha"/>
<feOffset dy="3.23232"/>
<feGaussianBlur stdDeviation="8.08081"/>
<feComposite in2="hardAlpha" operator="out"/>
<feColorMatrix type="matrix" values="0 0 0 0 0.117647 0 0 0 0 0.117647 0 0 0 0 0.117647 0 0 0 0.1 0"/>
<feBlend mode="normal" in2="BackgroundImageFix" result="effect1_dropShadow_532_749"/>
<feBlend mode="normal" in="SourceGraphic" in2="effect1_dropShadow_532_749" result="shape"/>
</filter>
<filter id="filter3_d_532_749" x="1122.84" y="427.071" width="147.182" height="85.1819" filterUnits="userSpaceOnUse" color-interpolation-filters="sRGB">
<feFlood flood-opacity="0" result="BackgroundImageFix"/>
<feColorMatrix in="SourceAlpha" type="matrix" values="0 0 0 0 0 0 0 0 0 0 0 0 0 0 0 0 0 0 127 0" result="hardAlpha"/>
<feOffset dy="3.23232"/>
<feGaussianBlur stdDeviation="8.08081"/>
<feComposite in2="hardAlpha" operator="out"/>
<feColorMatrix type="matrix" values="0 0 0 0 0.117647 0 0 0 0 0.117647 0 0 0 0 0.117647 0 0 0 0.1 0"/>
<feBlend mode="normal" in2="BackgroundImageFix" result="effect1_dropShadow_532_749"/>
<feBlend mode="normal" in="SourceGraphic" in2="effect1_dropShadow_532_749" result="shape"/>
</filter>
<filter id="filter4_d_532_749" x="185.838" y="589.071" width="166.182" height="85.1816" filterUnits="userSpaceOnUse" color-interpolation-filters="sRGB">
<feFlood flood-opacity="0" result="BackgroundImageFix"/>
<feColorMatrix in="SourceAlpha" type="matrix" values="0 0 0 0 0 0 0 0 0 0 0 0 0 0 0 0 0 0 127 0" result="hardAlpha"/>
<feOffset dy="3.23232"/>
<feGaussianBlur stdDeviation="8.08081"/>
<feComposite in2="hardAlpha" operator="out"/>
<feColorMatrix type="matrix" values="0 0 0 0 0.117647 0 0 0 0 0.117647 0 0 0 0 0.117647 0 0 0 0.1 0"/>
<feBlend mode="normal" in2="BackgroundImageFix" result="effect1_dropShadow_532_749"/>
<feBlend mode="normal" in="SourceGraphic" in2="effect1_dropShadow_532_749" result="shape"/>
</filter>
<filter id="filter5_d_532_749" x="435.338" y="72.0707" width="166.182" height="85.1819" filterUnits="userSpaceOnUse" color-interpolation-filters="sRGB">
<feFlood flood-opacity="0" result="BackgroundImageFix"/>
<feColorMatrix in="SourceAlpha" type="matrix" values="0 0 0 0 0 0 0 0 0 0 0 0 0 0 0 0 0 0 127 0" result="hardAlpha"/>
<feOffset dy="3.23232"/>
<feGaussianBlur stdDeviation="8.08081"/>
<feComposite in2="hardAlpha" operator="out"/>
<feColorMatrix type="matrix" values="0 0 0 0 0.117647 0 0 0 0 0.117647 0 0 0 0 0.117647 0 0 0 0.1 0"/>
<feBlend mode="normal" in2="BackgroundImageFix" result="effect1_dropShadow_532_749"/>
<feBlend mode="normal" in="SourceGraphic" in2="effect1_dropShadow_532_749" result="shape"/>
</filter>
<filter id="filter6_d_532_749" x="167.838" y="334.071" width="180.182" height="85.1819" filterUnits="userSpaceOnUse" color-interpolation-filters="sRGB">
<feFlood flood-opacity="0" result="BackgroundImageFix"/>
<feColorMatrix in="SourceAlpha" type="matrix" values="0 0 0 0 0 0 0 0 0 0 0 0 0 0 0 0 0 0 127 0" result="hardAlpha"/>
<feOffset dy="3.23232"/>
<feGaussianBlur stdDeviation="8.08081"/>
<feComposite in2="hardAlpha" operator="out"/>
<feColorMatrix type="matrix" values="0 0 0 0 0.117647 0 0 0 0 0.117647 0 0 0 0 0.117647 0 0 0 0.1 0"/>
<feBlend mode="normal" in2="BackgroundImageFix" result="effect1_dropShadow_532_749"/>
<feBlend mode="normal" in="SourceGraphic" in2="effect1_dropShadow_532_749" result="shape"/>
</filter>
<filter id="filter7_d_532_749" x="1056.84" y="150.071" width="164.182" height="85.1819" filterUnits="userSpaceOnUse" color-interpolation-filters="sRGB">
<feFlood flood-opacity="0" result="BackgroundImageFix"/>
<feColorMatrix in="SourceAlpha" type="matrix" values="0 0 0 0 0 0 0 0 0 0 0 0 0 0 0 0 0 0 127 0" result="hardAlpha"/>
<feOffset dy="3.23232"/>
<feGaussianBlur stdDeviation="8.08081"/>
<feComposite in2="hardAlpha" operator="out"/>
<feColorMatrix type="matrix" values="0 0 0 0 0.117647 0 0 0 0 0.117647 0 0 0 0 0.117647 0 0 0 0.1 0"/>
<feBlend mode="normal" in2="BackgroundImageFix" result="effect1_dropShadow_532_749"/>
<feBlend mode="normal" in="SourceGraphic" in2="effect1_dropShadow_532_749" result="shape"/>
</filter>
<clipPath id="clip0_532_749">
<rect x="60" y="56" width="1293" height="753" rx="16" fill="white"/>
</clipPath>
<clipPath id="clip1_532_749">
<rect width="1293" height="753" fill="white" transform="translate(60 56)"/>
</clipPath>
</defs>
</svg>
