<svg width="9104" height="9456" viewBox="0 0 9104 9456" fill="none" xmlns="http://www.w3.org/2000/svg">
<g clip-path="url(#clip0_112_92)">
<rect width="9104" height="9456" fill="white"/>
<path fill-rule="evenodd" clip-rule="evenodd" d="M4059.35 2398.7C4075.21 2411.91 4097.9 2423.02 4129.23 2430.52C4121.93 2471.87 4133.81 2573.11 4251.24 2653.5C4251.85 2648.7 4252.56 2644.04 4253.35 2639.52C4270.24 2543.25 4326.89 2510.33 4326.89 2510.33C4371.55 2479.59 4455.91 2444.99 4546.05 2550.02L4534.88 2957.75L4534.06 2987.52C4530.07 3108 4559.29 3351.85 4745.78 3494.49C4890.58 3605.24 5164.59 3754.89 5570.33 3609.74C5573.63 3608.56 5576.94 3607.36 5580.26 3606.14C5607.13 3593.66 5632.4 3579.59 5655.93 3563.77C5785.21 3476.81 5861.86 3336.75 5861.86 3115.3C5866.32 3036.57 5845.25 2910.75 5834.16 2857.68C5827.68 2817.72 5820.51 2756.54 5813.98 2692C5813.98 2878.35 5778.6 2943.12 5753.93 2959.66C5748.94 2963.01 5742.89 2959.71 5740.7 2954.11C5718.95 2898.39 5701.43 2886.32 5686.94 2881.66C5586.05 2849.24 5384.66 2854.37 5248.2 2854.37C5114.23 2860.66 5079.9 2913.5 5038.14 2963.13C4960.4 3039.21 4878.94 3010.66 4816.08 2970.57C4709.23 2902.42 4714.91 2622.25 4729.66 2497.09C4791.99 2441.05 4764.91 2390.06 4737.95 2365.99C4733.99 2362.46 4733.69 2356.02 4737.61 2352.42C4755.84 2335.65 4799.13 2291.07 4799.13 2245.68C4799.13 2188.17 4729.66 2136.52 4729.66 2136.52C4537.05 2170.6 4364.82 2213.83 4254.11 2257.26C4125.1 2307.87 4070.51 2372.64 4059.35 2398.7ZM5600.11 2997.86C5503.84 3041.53 5336.56 3016.06 5263.92 2997.86C5191.28 2979.67 5103.47 2997.04 5115.05 3152.52C5118.8 3202.86 5170.4 3305.29 5343.62 3279.73C5352.94 3278.35 5361.75 3274.57 5369.48 3269.19C5394.52 3251.73 5421.89 3235.84 5458.82 3261.66C5471.63 3270.61 5485.99 3278.28 5501.58 3277.19C5609.27 3269.67 5649.37 3173.85 5655.93 3123.57C5667.51 3004.06 5626.57 2985.86 5600.11 2997.86Z" fill="black"/>
<path d="M5038.97 1959.11C4472.61 2032.22 4204.49 2170.84 4083.33 2236.58C4042.28 2258.86 3995.66 2345.66 4059.35 2398.7C4070.51 2372.64 4125.1 2307.87 4254.11 2257.26C4364.82 2213.83 4537.05 2170.6 4729.66 2136.52C4914.73 2103.78 5118.63 2079.49 5304.86 2071.59C5432.65 2066.16 5557.44 2068.86 5667.92 2071.59C5841.76 2075.87 5974.72 2088.24 6033.78 2132.53C6092.91 2017.16 5952.01 1976.07 5728.71 1950.43C5728.71 1950.43 5534 1933.24 5304.86 1939.61C5218.26 1942.01 5126.75 1947.78 5038.97 1959.11Z" fill="#FEBC23"/>
<path d="M5728.71 1950.43C5728.71 1950.43 5663.9 1753.35 5590.18 1654.35C5378.46 1326.84 4995.96 1299.51 4799.54 1342.97C4783.64 1346.49 4768.07 1350.3 4752.81 1354.4C4873.42 1351.97 5126.96 1426.01 5255.65 1756.49C5270.81 1789.66 5293.69 1864.42 5304.86 1939.61C5534 1933.24 5728.71 1950.43 5728.71 1950.43Z" fill="#FEBC23"/>
<path d="M4211.52 1789.33C4098.57 1984.52 4083.33 2236.58 4083.33 2236.58C4204.49 2170.84 4472.61 2032.22 5038.97 1959.11C5126.75 1947.78 5218.26 1942.01 5304.86 1939.61C5293.69 1864.42 5270.81 1789.66 5255.65 1756.49C5126.96 1426.01 4873.42 1351.97 4752.81 1354.4C4506.86 1420.45 4343.01 1562.11 4211.52 1789.33Z" fill="#FEBC23"/>
<path d="M6033.78 2132.53C5974.72 2088.24 5841.76 2075.87 5667.92 2071.59C5695.46 2114.79 5729.23 2160.21 5756.81 2253.28C5836.73 2233.34 6004.01 2181.28 6033.78 2132.53Z" fill="black"/>
<path d="M4527.03 4034.96C4299.76 3842.76 4313.66 3566.86 4344.26 3449.42C4321.01 3449.42 4298.67 3449.3 4276.86 3449.23C4248.67 3449.14 4221.37 3449.15 4194.15 3449.63C4117.24 3752.12 4008.07 4257.84 3963.41 4679.22L5377.7 4765.64C5512.68 4380.31 5731.88 3853.95 5940.02 3645.11C5830.87 3609.24 5731.76 3581.99 5655.93 3563.77C5632.4 3579.59 5607.13 3593.66 5580.26 3606.14C5576.94 3607.36 5573.63 3608.56 5570.33 3609.74C5591.42 3635.01 5613.09 3716.8 5531.05 3841.85C5470.51 3938.44 5369.36 4024.62 5295.76 4070.94C4897.54 4281 4637.44 4128.33 4527.03 4034.96Z" fill="#AFD1FA"/>
<path d="M7260.37 4765.64C7102.82 4470.81 6905.16 4224.7 6721.56 4051.91C6589.07 3927.23 6396 3823.49 6202.6 3742.57C6061.36 3984.88 5859.22 4455.21 5748.13 4780.53C5798.59 4790.04 5884.79 4862.48 5871.37 5079.91C5852.76 5381.37 5885.02 5754.77 6045.05 5986.34C6078.13 6039.2 6164.97 6165.45 6247.67 6247.58C6312.83 6210.42 6393.63 6168.01 6484.13 6133.3L6407.03 5914C6320.03 5901.43 6293.07 5871.8 6276.21 5846.16C6274.07 5842.92 6271.94 5839.61 6269.82 5836.23C6281.62 5814.99 6306.8 5783.6 6348.55 5747.08C6391.85 5709.21 6452.96 5665.81 6535.48 5622.45C6708.33 5531.61 6907.23 5434.71 7208.68 5366.48C7264.25 5352.93 7360.44 5332.23 7440.25 5321.71C7488.73 5315.32 7531.17 5312.69 7554.8 5317.69L7260.37 4765.64Z" fill="#AFD1FA"/>
<path d="M5304.86 2071.59C5118.63 2079.49 4914.73 2103.78 4729.66 2136.52C4729.66 2136.52 4799.13 2188.17 4799.13 2245.68C4799.13 2291.07 4755.84 2335.65 4737.61 2352.42C4733.69 2356.02 4733.99 2362.46 4737.95 2365.99C4764.91 2390.06 4791.99 2441.05 4729.66 2497.09C4714.91 2622.25 4709.23 2902.42 4816.08 2970.57C4878.94 3010.66 4960.4 3039.21 5038.14 2963.13C5079.9 2913.5 5114.23 2860.66 5248.2 2854.37C5384.66 2854.37 5586.05 2849.24 5686.94 2881.66C5701.43 2886.32 5718.95 2898.39 5740.7 2954.11C5742.89 2959.71 5748.94 2963.01 5753.93 2959.66C5778.6 2943.12 5813.98 2878.35 5813.98 2692C5805.17 2604.8 5797.55 2511.45 5794.46 2455.97C5785.11 2369.23 5771.88 2304.14 5756.81 2253.28C5729.23 2160.21 5695.46 2114.79 5667.92 2071.59C5557.44 2068.86 5432.65 2066.16 5304.86 2071.59Z" fill="#B5602A"/>
<path d="M5263.92 2997.86C5336.56 3016.06 5503.84 3041.53 5600.11 2997.86C5626.57 2985.86 5667.51 3004.06 5655.93 3123.57C5649.37 3173.85 5609.27 3269.67 5501.58 3277.19C5485.99 3278.28 5471.63 3270.61 5458.82 3261.66C5421.89 3235.84 5394.52 3251.73 5369.48 3269.19C5361.75 3274.57 5352.94 3278.35 5343.62 3279.73C5170.4 3305.29 5118.8 3202.86 5115.05 3152.52C5103.47 2997.04 5191.28 2979.67 5263.92 2997.86Z" fill="#B5602A"/>
<path d="M4745.78 3494.49C4559.29 3351.85 4530.07 3108 4534.06 2987.52L4534.88 2957.75C4504.01 2961.1 4473.57 2955.63 4449.29 2948.12C4447.26 2975.91 4443.81 3011.94 4438.84 3052.45C4434.67 3086.43 4429.43 3123.56 4423.06 3161.61C4418.97 3186.1 4414.41 3210.98 4409.37 3235.63C4400.85 3277.32 4390.96 3318.39 4379.62 3355.99C4379.57 3356.16 4379.52 3356.32 4379.47 3356.49C4368.99 3391.2 4357.27 3422.93 4344.26 3449.42C4313.66 3566.86 4299.76 3842.76 4527.03 4034.96C4637.44 4128.33 4897.54 4281 5295.76 4070.94C5369.36 4024.62 5470.51 3938.44 5531.05 3841.85C5613.09 3716.8 5591.42 3635.01 5570.33 3609.74C5164.59 3754.89 4890.58 3605.24 4745.78 3494.49Z" fill="#B5602A"/>
<path d="M4326.89 2510.33C4326.89 2510.33 4270.24 2543.25 4253.35 2639.52C4252.56 2644.04 4251.85 2648.7 4251.24 2653.5C4248.86 2672.3 4247.98 2693.3 4249.19 2716.67C4251.87 2768.29 4275.28 2811.52 4303.27 2845.27C4348.81 2900.22 4406.46 2930.05 4406.46 2930.05C4415.19 2935.18 4430.37 2942.27 4449.29 2948.12C4473.57 2955.63 4504.01 2961.1 4534.88 2957.75L4546.05 2550.02C4455.91 2444.99 4371.55 2479.59 4326.89 2510.33Z" fill="#B5602A"/>
<path d="M3383.66 2661.58C3566.44 2700.57 3672.11 2732.65 3723.16 2857.68C3744.3 2901 3781.06 3018.43 3777.29 3169.88C3797.84 3192.35 3844.71 3214.17 3891.14 3186.01C3905.12 3177.54 3915.37 3169.39 3922.89 3161.8C3930.57 3154.04 3935.4 3146.87 3938.44 3140.53C3943.57 3129.8 3943.57 3121.45 3943.57 3116.67V3116.62C3933.64 2837.79 3845.99 2718.36 3798.74 2679.12C3756.66 2644.17 3733.44 2637.29 3699.59 2627.27C3549.17 2582.69 3403.62 2628.23 3339 2653.38C3353.59 2655.62 3368.54 2658.35 3383.66 2661.58Z" fill="#EFA800"/>
<path d="M2606.25 3583.81C2682.06 3429.85 2866.44 3121.83 3093.37 3012.34C3164.85 2977.85 3224.39 2984.39 3272.52 3013.58C3310.71 3036.73 3341.7 3074.15 3365.77 3116.62C3378.34 3138.81 3389.02 3162.38 3397.84 3186.01C3408.21 3213.78 3416.02 3241.65 3421.32 3267.47C3421.89 3270.26 3422.43 3273.01 3422.95 3275.74C3431.1 3319.16 3549.15 3352.99 3582.56 3180.64C3610.22 3246.03 3680.86 3343.46 3755.69 3252.58C3768.97 3236.46 3775.19 3215.73 3776.31 3194.88C3776.76 3186.45 3777.09 3178.12 3777.29 3169.88C3781.06 3018.43 3744.3 2901 3723.16 2857.68C3672.11 2732.65 3566.44 2700.57 3383.66 2661.58C3368.54 2658.35 3353.59 2655.62 3339 2653.38C3288.59 2645.62 3242.5 2643.69 3208.33 2647.2C3048.22 2679.29 2855.74 2836.18 2779.52 2910.61C2652.98 3034.17 2629.82 3065.27 2583.1 3093.38L2190.67 3317.1C2124.51 3354.31 2154.14 3413.45 2174.13 3428.33L2223.76 3391.62C2237.1 3381.76 2252.43 3374.45 2268.97 3373.25C2411.75 3362.92 2548.94 3504.74 2606.25 3583.81Z" fill="#EFA800"/>
<path d="M2606.25 3583.81C2548.94 3504.74 2411.75 3362.92 2268.97 3373.25C2252.43 3374.45 2237.1 3381.76 2223.76 3391.62L2174.13 3428.33C2017.13 3552.52 1753.72 3808.77 1573.7 4134.2C1403.75 4441.45 1206.83 5071.89 1717.61 5373.92C1820.57 5429.33 2086.05 5509.97 2370.55 5509.97C2351.52 5384.26 2332.09 5254.42 2316.38 5052.62C2256 4448.48 2473.93 3857.42 2606.25 3583.81Z" fill="#B5602A"/>
<path d="M5464.47 5057.58C5283.57 4999.54 5361.51 4812.37 5361.51 4812.37C5366.76 4797.05 5372.16 4781.47 5377.7 4765.64L3963.41 4679.22C3937.2 4926.5 3850.11 4943.38 3771.54 4939.32C3624.33 4931.71 3632.94 4800.79 3640.04 4711.06C3641.23 4696.07 3642.6 4680.62 3644.13 4664.74C3596.87 4680.73 3460.67 4754.63 3401.03 5052.62C3395.12 5082.14 3389.36 5109.96 3383.83 5136.49C3383.04 5140.28 3382.26 5144.04 3381.48 5147.78C3369.04 5207.49 3357.93 5260.83 3349.32 5312.73C3339.24 5373.47 3332.59 5432.25 3331.25 5496.99C3330.94 5511.91 3330.91 5527.14 3331.19 5542.79C3333.79 5689.03 3363.03 5871.35 3437.73 6168.86L3399.1 6223.44L3375.22 6257.19C3364.43 6274.63 3354.08 6291.73 3344.15 6308.49C3303.23 6377.52 3269.5 6440.59 3242 6496.6C3221.52 6538.32 3204.5 6576.13 3190.56 6609.57C3176.92 6642.26 3166.22 6670.78 3158.1 6694.69C3148.28 6723.57 3142.22 6745.74 3139.27 6760.44C3083.25 6918.76 3021.06 7324.48 2962.03 7820.63C3004.54 7809.51 3050.29 7794.44 3099.58 7774.8C3288.97 7699.31 3381.18 7569.69 3675.19 7212.41C3793.46 7058.17 3819.51 6990.36 3948.52 6770.78C4046.2 6604.54 4148.34 6421.98 4267.74 6282.83C4217.11 6282.83 4085.94 6265.74 4026.68 6257.19C3795.94 6215.43 3740.11 5995.85 3755.41 5872.21L3800.49 5110.93L5377.7 5230.43L5293.69 5899.09C5282.11 5967.73 5272.6 6064.08 5232.49 6103.01C5409.89 6133.23 5656.6 6278.62 5783.71 6357.68C5824.73 6334.85 5975.03 6288.34 6045.05 6267.94C6106.21 6250.98 6144.78 6246.44 6161.11 6259.35C6162.66 6260.57 6163.85 6262.16 6164.91 6263.83C6167.23 6267.52 6171.98 6275.19 6178.36 6286.1C6178.67 6286.61 6178.97 6287.13 6179.28 6287.66C6199.49 6275.59 6222.41 6261.98 6247.67 6247.58C6164.97 6165.45 6078.13 6039.2 6045.05 5986.34C5885.02 5754.77 5852.76 5381.37 5871.37 5079.91C5884.79 4862.48 5798.59 4790.04 5748.13 4780.53C5732.41 4826.57 5718.51 4869.7 5706.87 4908.87C5706.82 4909.05 5706.81 4909.07 5706.76 4909.25C5705.22 4914.77 5647.53 5116.32 5464.47 5057.58Z" fill="#1E3A8A"/>
<path d="M6275.46 7279.4C6255.12 7305.87 6206.11 7289.74 6179.44 7279.4C6067.24 7243.43 5828.95 7170.65 5793.22 7169C5721.47 7214.68 5528.69 7276.53 5283.07 7106.18C5270.55 7097.49 5255.71 7092.42 5240.47 7092.52C5226.8 7092.61 5211.44 7092.87 5195.27 7093.45C5188.52 7227.66 5165.25 7429.51 5109.68 7666.87C5054.1 7904.23 4947.99 8230.49 5000.92 8536.08C5016.82 8627.88 5018.29 8710.17 5152.68 8870.2C5170.46 8896.25 5188.78 8906.17 5152.68 8954.97C5110.34 9012.2 5070.81 8978.82 5056.33 8954.97C4964.95 8839.19 4961.11 8811.89 4927.32 8742.42C4773.82 8426.83 4897.09 7961.29 4972.39 7716.9C5011.71 7589.29 5049.68 7366.53 5068.36 7212.41C5067.83 7212.25 5067.29 7212.07 5066.72 7211.89C5045.11 7204.94 4996.62 7188.37 4958.74 7168.17C4829.73 7099.36 4839.93 7010.48 4861.15 6974.64C4861.15 6974.64 4756.19 6947.17 4733.79 6892.35C4707.77 6828.67 4754.88 6757.13 4754.88 6757.13C4604.36 6690.56 4623.11 6574.64 4651.09 6516.05C4610.07 6493.56 4583.55 6456.23 4575.41 6440.38C4528.22 6347.95 4611.76 6284.02 4665.32 6243.03L4666.8 6241.89C4709.54 6209.18 4757.22 6183.03 4806.16 6162.38C4806.16 6162.38 4739.77 6143.22 4696.16 6143.06C4600.21 6142.71 4487.92 6233.83 4437.78 6279.42C4436.49 6280.59 4435.25 6281.73 4434.04 6282.83C4419.61 6296.11 4411.25 6304.75 4411.25 6304.75C4315.73 6414.19 4133.78 6662.85 4026.68 6874.16C3668.99 7511.39 3358.02 7781.83 3139.27 7881.07C3070.79 7909.68 3007.08 7929.44 2947.88 7941.85C2860.01 8707.85 2780.95 9649.64 2742.3 10234.4H4378.99C4402.81 10146.4 4624.79 9143.53 4732.8 8653.1C4804.21 9078.08 4949.95 9816.55 5076.18 10234.4H6759.19L6743.06 9784.48V8924.57C6743.06 8918.48 6744.66 8912.5 6747.64 8907.18C7054.8 8358.8 6881.89 7533.04 6774.9 7231.41C6582.97 7250.91 6405.59 7247.74 6296.55 7237.1C6290.24 7251.73 6283.22 7265.85 6275.46 7279.4Z" fill="#1E3A8A"/>
<path fill-rule="evenodd" clip-rule="evenodd" d="M6202.6 3742.57C6113.16 3705.14 6023.64 3672.6 5940.02 3645.11C5731.88 3853.95 5512.68 4380.31 5377.7 4765.64C5372.16 4781.47 5366.76 4797.05 5361.51 4812.37C5361.51 4812.37 5283.57 4999.54 5464.47 5057.58C5647.53 5116.32 5705.22 4914.77 5706.76 4909.25C5706.81 4909.07 5706.82 4909.05 5706.87 4908.87C5718.51 4869.7 5732.41 4826.57 5748.13 4780.53C5859.22 4455.21 6061.36 3984.88 6202.6 3742.57ZM5435.11 4832.63C5449.88 4781.65 5502.18 4751.63 5553.38 4765.64C5611.49 4781.54 5641.06 4857.49 5610.03 4909.13C5584.67 4951.33 5536.04 4968.01 5490.52 4949.24C5443.91 4930.02 5421.08 4881.06 5435.11 4832.63Z" fill="#1E3A8A"/>
<path d="M6178.36 6286.1C6171.98 6275.19 6167.23 6267.52 6164.91 6263.83C6163.85 6262.16 6162.66 6260.57 6161.11 6259.35C6144.78 6246.44 6106.21 6250.98 6045.05 6267.94C5975.03 6288.34 5824.73 6334.85 5783.71 6357.68C5656.6 6278.62 5409.89 6133.23 5232.49 6103.01C5208.58 6098.94 5166.57 6092.1 5147.72 6093.85C5099.16 6092.88 5029.95 6098.69 4954.61 6115.49C4906.37 6126.24 4855.62 6141.5 4806.16 6162.38C4757.22 6183.03 4709.54 6209.18 4666.8 6241.89L4665.32 6243.03C4611.76 6284.02 4528.22 6347.95 4575.41 6440.38C4583.55 6456.23 4610.07 6493.56 4651.09 6516.05C4623.11 6574.64 4604.36 6690.56 4754.88 6757.13C4754.88 6757.13 4707.77 6828.67 4733.79 6892.35C4756.19 6947.17 4861.15 6974.64 4861.15 6974.64C4839.93 7010.48 4829.73 7099.36 4958.74 7168.17C4996.62 7188.37 5045.11 7204.94 5066.72 7211.89C5071.66 7170.87 5075.35 7134.49 5077.5 7105.71C5079.75 7105.23 5082.02 7104.78 5084.33 7104.33C5118.63 7097.76 5158.98 7094.77 5195.27 7093.45C5211.44 7092.87 5226.8 7092.61 5240.47 7092.52C5255.71 7092.42 5270.55 7097.49 5283.07 7106.18C5528.69 7276.53 5721.47 7214.68 5793.22 7169C5828.95 7170.65 6067.24 7243.43 6179.44 7279.4C6206.11 7289.74 6255.12 7305.87 6275.46 7279.4C6283.22 7265.85 6290.24 7251.73 6296.55 7237.1C6394.41 7010.38 6324.2 6664.42 6275.46 6502.83C6248.11 6412.16 6203.11 6328.57 6179.28 6287.66L6179.28 6287.66C6178.97 6287.13 6178.67 6286.61 6178.36 6286.1Z" fill="#EFA800"/>
<path d="M5195.27 7093.45C5158.98 7094.77 5118.63 7097.76 5084.33 7104.33C5082.02 7104.78 5079.75 7105.23 5077.5 7105.71C5075.35 7134.49 5071.66 7170.87 5066.72 7211.89L5068.36 7212.41C5049.68 7366.53 5011.71 7589.29 4972.39 7716.9C4897.09 7961.29 4773.82 8426.83 4927.32 8742.42C4961.11 8811.89 4964.95 8839.19 5056.33 8954.97C5070.81 8978.82 5110.34 9012.2 5152.68 8954.97C5188.78 8906.17 5170.46 8896.25 5152.68 8870.2C5018.29 8710.17 5016.82 8627.88 5000.92 8536.08C4947.99 8230.49 5054.1 7904.23 5109.68 7666.87C5165.25 7429.51 5188.52 7227.66 5195.27 7093.45Z" fill="black"/>
<path d="M2962.03 7820.63C2961.5 7825.14 2960.96 7829.65 2960.43 7834.16C2956.23 7869.63 2952.04 7905.54 2947.88 7941.85C3007.08 7929.44 3070.79 7909.68 3139.27 7881.07C3358.02 7781.83 3668.99 7511.39 4026.68 6874.16C4133.78 6662.85 4315.73 6414.19 4411.25 6304.75C4411.25 6304.75 4419.61 6296.11 4434.04 6282.83C4435.25 6281.73 4436.49 6280.59 4437.78 6279.42C4487.92 6233.83 4600.21 6142.71 4696.16 6143.06C4739.77 6143.22 4806.16 6162.38 4806.16 6162.38C4855.62 6141.5 4906.37 6126.24 4954.61 6115.49C4954.61 6115.49 4846.68 6010.32 4680.45 6021.08C4492.4 6033.24 4311.56 6234.5 4305.15 6241.7C4304.95 6241.92 4304.87 6242 4304.66 6242.22C4292.08 6255.23 4279.79 6268.79 4267.74 6282.83C4148.34 6421.98 4046.2 6604.54 3948.52 6770.78C3819.51 6990.36 3793.46 7058.17 3675.19 7212.41C3381.18 7569.69 3288.97 7699.31 3099.58 7774.8C3050.29 7794.44 3004.54 7809.51 2962.03 7820.63Z" fill="black"/>
<path d="M2947.88 7941.85C2952.04 7905.54 2956.23 7869.63 2960.43 7834.16C2960.96 7829.65 2961.5 7825.14 2962.03 7820.63C2647.12 7903.02 2510.39 7768.5 2432.99 7669.76C2287.43 7484.09 2317.62 7130.95 2412.73 6857.62C2488.81 6638.95 2566.73 6319.63 2596.18 6187.31C2560.32 6121.05 2529.32 6054.02 2502.64 5987.99C2490.45 6128.18 2445.81 6418.05 2344.08 6694.69C2251.03 6947.76 2112.1 7446.88 2337.47 7733.44C2435.6 7858.23 2624.46 8009.66 2947.88 7941.85Z" fill="black"/>
<path d="M7554.8 5317.69C7531.17 5312.69 7488.73 5315.32 7440.25 5321.71C7457.62 5354.59 7476.78 5394.97 7496.77 5442.02C7565.59 5374.98 7566.56 5337.57 7554.8 5317.69Z" fill="black"/>
<path fill-rule="evenodd" clip-rule="evenodd" d="M6348.55 5747.08L6484.13 6133.3C6393.63 6168.01 6312.83 6210.42 6247.67 6247.58C6222.41 6261.98 6199.49 6275.59 6179.28 6287.66L6179.28 6287.66C6203.11 6328.57 6248.11 6412.16 6275.46 6502.83C6324.2 6664.42 6394.41 7010.38 6296.55 7237.1C6405.59 7247.74 6582.97 7250.91 6774.9 7231.41C7010.61 7207.45 7270.28 7148.39 7459.27 7023.85C7769.41 6833.22 7721.86 6388.28 7692.5 6126.94C7643.52 5842.97 7565.29 5603.33 7496.77 5442.02C7476.78 5394.97 7457.62 5354.59 7440.25 5321.71C7360.44 5332.23 7264.25 5352.93 7208.68 5366.48C6907.23 5434.71 6708.33 5531.61 6535.48 5622.45C6452.96 5665.81 6391.85 5709.21 6348.55 5747.08Z" fill="#B5602A"/>
<path d="M6276.21 5846.16C6293.07 5871.8 6320.03 5901.43 6407.03 5914L6484.13 6133.3L6348.55 5747.08C6306.8 5783.6 6281.62 5814.99 6269.82 5836.23C6271.94 5839.61 6274.07 5842.92 6276.21 5846.16Z" fill="black"/>
<path d="M5377.7 5230.43L3800.49 5110.93L3755.41 5872.21C3740.11 5995.85 3795.94 6215.43 4026.68 6257.19C4085.94 6265.74 4217.11 6282.83 4267.74 6282.83C4279.79 6268.79 4292.08 6255.23 4304.66 6242.22C4304.87 6242 4304.95 6241.92 4305.15 6241.7C4311.56 6234.5 4492.4 6033.24 4680.45 6021.08C4846.68 6010.32 4954.61 6115.49 4954.61 6115.49C5029.95 6098.69 5099.16 6092.88 5147.72 6093.85C5166.57 6092.1 5208.58 6098.94 5232.49 6103.01C5272.6 6064.08 5282.11 5967.73 5293.69 5899.09L5377.7 5230.43Z" fill="#4766C0"/>
<path d="M3813.72 3642.95C3943.6 3569 3950.18 3508.28 3936.12 3475.89C3922.06 3443.49 3867.48 3390.37 3761.62 3437.02C3713.92 3495.49 3606.96 3639.31 3560.65 3746.74C3588.77 3738.88 3673.54 3722.76 3813.72 3642.95Z" fill="#EFA800"/>
<path fill-rule="evenodd" clip-rule="evenodd" d="M4194.15 3449.63C4114.28 3451.04 4035.08 3456.56 3936.12 3475.89C3949.14 3505.89 3944.46 3560.2 3840.5 3626.8C3775.53 3858.72 3674.77 4348.51 3644.13 4664.74C3642.6 4680.62 3641.23 4696.07 3640.04 4711.06C3632.94 4800.79 3624.33 4931.71 3771.54 4939.32C3850.11 4943.38 3937.2 4926.5 3963.41 4679.22C4008.07 4257.84 4117.24 3752.12 4194.15 3449.63ZM3693.39 4711.06C3702.58 4663.93 3739.24 4631.89 3787.25 4631.66C3842.09 4631.4 3885.61 4679.43 3883.19 4734.21C3880.87 4786.58 3839.67 4828.02 3787.25 4828.08C3728.67 4828.15 3682.17 4768.56 3693.39 4711.06Z" fill="#1E3A8A"/>
<path d="M3644.13 4664.74C3674.77 4348.51 3775.53 3858.72 3840.5 3626.8C3832.22 3632.1 3823.3 3637.49 3813.72 3642.95C3673.54 3722.76 3588.77 3738.88 3560.65 3746.74C3339.23 4218.8 3301.72 4871.49 3349.32 5312.73C3357.93 5260.83 3369.04 5207.49 3381.48 5147.78L3383.83 5136.49C3389.36 5109.96 3395.12 5082.14 3401.03 5052.62C3460.67 4754.63 3596.87 4680.73 3644.13 4664.74Z" fill="#AFD1FA"/>
<path d="M3284.3 4163.44C3188.26 4512.93 3125.18 4999.01 3203.18 5446L3284.3 5412.61C3201.79 5099.27 3203.93 4527.67 3284.3 4163.44Z" fill="#AFD1FA"/>
<path d="M3093.37 3012.34C2866.44 3121.83 2682.06 3429.85 2606.25 3583.81C2473.93 3857.42 2256 4448.48 2316.38 5052.62C2332.09 5254.42 2351.52 5384.26 2370.55 5509.97C2390.04 5638.72 2430.58 5809.7 2502.64 5987.99C2529.32 6054.02 2560.32 6121.05 2596.18 6187.31C2716.21 6409.14 2890.61 6622.36 3139.27 6760.44C3142.22 6745.74 3148.28 6723.57 3158.1 6694.69C2996.92 6577.41 2838.69 6409.11 2692.26 6143.89C2383.37 5584.4 2432.58 4797.48 2432.58 4797.48C2445.1 4322.91 2630.61 3301.73 3272.52 3013.58C3224.39 2984.39 3164.85 2977.85 3093.37 3012.34Z" fill="black"/>
<path d="M2432.58 4797.48C2432.58 4797.48 2383.37 5584.4 2692.26 6143.89C2838.69 6409.11 2996.92 6577.41 3158.1 6694.69C3166.22 6670.78 3176.92 6642.26 3190.56 6609.57C3116.65 6536.28 3050.97 6459.7 2992.64 6380.99C2582.58 5827.73 2535.61 5169.59 2545.47 4812.37C2577.66 3645.11 3104.88 3204.47 3365.77 3116.62C3341.7 3074.15 3310.71 3036.73 3272.52 3013.58C2630.61 3301.73 2445.1 4322.91 2432.58 4797.48Z" fill="#494847"/>
<path d="M3365.77 3116.62C3104.88 3204.47 2577.66 3645.11 2545.47 4812.37C2535.61 5169.59 2582.58 5827.73 2992.64 6380.99C3050.97 6459.7 3116.65 6536.28 3190.56 6609.57C3204.5 6576.13 3221.52 6538.32 3242 6496.6C2749.35 6021.38 2662.73 5328.96 2706.32 4812.37C2780.34 3935.3 3024.89 3356.38 3397.84 3186.01C3389.02 3162.38 3378.34 3138.81 3365.77 3116.62Z" fill="black"/>
<path d="M3397.84 3186.01C3024.89 3356.38 2780.34 3935.3 2706.32 4812.37C2662.73 5328.96 2749.35 6021.38 3242 6496.6C3255.45 6469.21 3270.38 6440.13 3286.92 6409.5C2912.88 6024.32 2788.97 5277.9 2826.24 4828.08C2933.98 3527.99 3327.42 3376.64 3421.32 3267.47C3416.02 3241.65 3408.21 3213.78 3397.84 3186.01Z" fill="#494847"/>
<path d="M3936.12 3475.89C4035.08 3456.56 4114.28 3451.04 4194.15 3449.63C4221.37 3449.15 4248.67 3449.14 4276.86 3449.23C4059.35 3318.75 3560.65 3248.69 3272.52 3851.36C3147.37 4113.11 2961.05 4677.73 3058.64 5293.7C3097.59 5539.58 3203.88 5960.8 3399.1 6223.44L3437.73 6168.86C3419.65 6113.83 3380.58 5993.99 3361.99 5933.78L3232.32 5584.4C3220.99 5538.83 3211.31 5492.63 3203.18 5446C3125.18 4999.01 3188.26 4512.93 3284.3 4163.44C3303.48 4076.5 3327.12 4001.38 3355.13 3944.4C3330.64 4008.59 3306.58 4082.34 3284.3 4163.44C3203.93 4527.67 3201.79 5099.27 3284.3 5412.61C3297.69 5463.47 3313.31 5507.53 3331.19 5542.79C3330.91 5527.14 3330.94 5511.91 3331.25 5496.99C3332.59 5432.25 3339.24 5373.47 3349.32 5312.73C3301.72 4871.49 3339.23 4218.8 3560.65 3746.74C3606.96 3639.31 3713.92 3495.49 3761.62 3437.02C3867.48 3390.37 3922.06 3443.49 3936.12 3475.89Z" fill="black"/>
<path d="M4438.84 3052.45C4324.94 2952.21 4148.75 2902.34 4074.89 2889.93C4077.15 2922.02 4077.25 2961.01 4073.35 3005.31C4163.53 3024.19 4359.74 3081.89 4423.06 3161.61C4429.43 3123.56 4434.67 3086.43 4438.84 3052.45Z" fill="#494847"/>
<path d="M4073.35 3005.31C4073.11 3008.04 4072.85 3010.8 4072.58 3013.58C4067.19 3043.04 4058.82 3066.21 4048.72 3084.29C4143.36 3102.76 4347.99 3158.89 4409.37 3235.63C4414.41 3210.98 4418.97 3186.1 4423.06 3161.61C4359.74 3081.89 4163.53 3024.19 4073.35 3005.31Z" fill="black"/>
<path d="M4449.29 2948.12C4430.37 2942.27 4415.19 2935.18 4406.46 2930.05C4406.46 2930.05 4348.81 2900.22 4303.27 2845.27C4253.11 2821.29 4144.14 2780.67 4048.72 2780.67C4052.22 2787.45 4055.49 2794.51 4058.52 2801.86C4064.91 2816.11 4071.86 2846.77 4074.89 2889.93C4148.75 2902.34 4324.94 2952.21 4438.84 3052.45C4443.81 3011.94 4447.26 2975.91 4449.29 2948.12Z" fill="black"/>
<path d="M4048.72 3084.29C4016.07 3142.7 3965.32 3147.89 3938.44 3140.53C3935.4 3146.87 3930.57 3154.04 3922.89 3161.8C4038.81 3171.22 4249.97 3214.12 4379.62 3355.99C4390.96 3318.39 4400.85 3277.32 4409.37 3235.63C4347.99 3158.89 4143.36 3102.76 4048.72 3084.29Z" fill="#494847"/>
<path d="M3582.56 3180.64C3549.15 3352.99 3431.1 3319.16 3422.95 3275.74C3422.43 3273.01 3421.89 3270.26 3421.32 3267.47C3327.42 3376.64 2933.98 3527.99 2826.24 4828.08C2788.97 5277.9 2912.88 6024.32 3286.92 6409.5C3304.2 6377.48 3323.24 6343.76 3344.15 6308.49C3104.92 6024.24 2920.11 5532.55 2920.11 4848.76C2982.55 3746.74 3451.48 3361.89 3684.7 3303.86C3701.79 3307.86 3746.04 3309.82 3766.55 3277.73C3919.96 3237.62 4163.92 3259.38 4349.19 3439C4360.25 3414.76 4370.33 3386.76 4379.47 3356.49C4379.52 3356.32 4379.57 3356.16 4379.62 3355.99C4249.97 3214.12 4038.81 3171.22 3922.89 3161.8C3915.37 3169.39 3905.12 3177.54 3891.14 3186.01C3844.71 3214.17 3797.84 3192.35 3777.29 3169.88C3777.09 3178.12 3776.76 3186.45 3776.31 3194.88C3775.19 3215.73 3768.97 3236.46 3755.69 3252.58C3680.86 3343.46 3610.22 3246.03 3582.56 3180.64Z" fill="black"/>
<path d="M4349.19 3439C4163.92 3259.38 3919.96 3237.62 3766.55 3277.73C3746.04 3309.82 3701.79 3307.86 3684.7 3303.86C3451.48 3361.89 2982.55 3746.74 2920.11 4848.76C2920.11 5532.55 3104.92 6024.24 3344.15 6308.49C3354.08 6291.73 3364.43 6274.63 3375.22 6257.19L3399.1 6223.44C3203.88 5960.8 3097.59 5539.58 3058.64 5293.7C2961.05 4677.73 3147.37 4113.11 3272.52 3851.36C3560.65 3248.69 4059.35 3318.75 4276.86 3449.23C4298.67 3449.3 4321.01 3449.42 4344.26 3449.42C4345.92 3446.03 4347.57 3442.56 4349.19 3439Z" fill="#494847"/>
<path d="M3798.74 2679.12C3845.99 2718.36 3933.64 2837.79 3943.57 3116.62V3116.67C3943.57 3121.45 3943.57 3129.8 3938.44 3140.53C3965.32 3147.89 4016.07 3142.7 4048.72 3084.29C4058.82 3066.21 4067.19 3043.04 4072.58 3013.58C4072.85 3010.8 4073.11 3008.04 4073.35 3005.31C4077.25 2961.01 4077.15 2922.02 4074.89 2889.93C4071.86 2846.77 4064.91 2816.11 4058.52 2801.86C4055.49 2794.51 4052.22 2787.45 4048.72 2780.67C3975.22 2638.22 3800.94 2615.11 3699.59 2627.27C3733.44 2637.29 3756.66 2644.17 3798.74 2679.12Z" fill="#EFA800"/>
<path d="M5553.38 4765.64C5502.18 4751.63 5449.88 4781.65 5435.11 4832.63C5421.08 4881.06 5443.91 4930.02 5490.52 4949.24C5536.04 4968.01 5584.67 4951.33 5610.03 4909.13C5641.06 4857.49 5611.49 4781.54 5553.38 4765.64Z" fill="#979595"/>
<path d="M3787.25 4631.66C3739.24 4631.89 3702.58 4663.93 3693.39 4711.06C3682.17 4768.56 3728.67 4828.15 3787.25 4828.08C3839.67 4828.02 3880.87 4786.58 3883.19 4734.21C3885.61 4679.43 3842.09 4631.4 3787.25 4631.66Z" fill="#979595"/>
<path d="M4083.33 2236.58C4083.33 2236.58 4098.57 1984.52 4211.52 1789.33C4343.01 1562.11 4506.86 1420.45 4752.81 1354.4M4083.33 2236.58C4204.49 2170.84 4472.62 2032.22 5038.97 1959.11C5126.75 1947.78 5218.26 1942.01 5304.86 1939.61M4083.33 2236.58C4042.28 2258.86 3995.66 2345.66 4059.35 2398.7M5728.71 1950.43C5728.71 1950.43 5663.9 1753.35 5590.18 1654.35C5378.46 1326.84 4995.96 1299.51 4799.54 1342.97C4783.64 1346.49 4768.07 1350.3 4752.81 1354.4M5728.71 1950.43C5952.01 1976.07 6092.91 2017.16 6033.78 2132.53M5728.71 1950.43C5728.71 1950.43 5534 1933.24 5304.86 1939.61M6033.78 2132.53C5974.72 2088.24 5841.76 2075.87 5667.92 2071.59M6033.78 2132.53C6004.01 2181.28 5836.73 2233.34 5756.81 2253.28M4059.35 2398.7C4075.21 2411.91 4097.9 2423.02 4129.23 2430.52C4121.93 2471.87 4133.81 2573.11 4251.24 2653.5M4059.35 2398.7C4070.51 2372.64 4125.1 2307.87 4254.11 2257.26C4364.82 2213.83 4537.05 2170.6 4729.66 2136.52M4752.81 1354.4C4873.42 1351.97 5126.96 1426.01 5255.65 1756.49C5270.81 1789.66 5293.69 1864.42 5304.86 1939.61M4251.24 2653.5C4251.85 2648.7 4252.56 2644.04 4253.35 2639.52M4251.24 2653.5C4248.86 2672.3 4247.98 2693.3 4249.19 2716.67M4729.66 2136.52C4914.73 2103.78 5118.63 2079.49 5304.86 2071.59C5432.65 2066.16 5557.44 2068.86 5667.92 2071.59M4729.66 2136.52C4729.66 2136.52 4799.13 2188.17 4799.13 2245.68C4799.13 2291.07 4755.84 2335.65 4737.61 2352.42C4733.69 2356.02 4733.99 2362.46 4737.95 2365.99C4764.91 2390.06 4791.99 2441.05 4729.66 2497.09C4714.91 2622.25 4709.23 2902.42 4816.08 2970.57C4878.94 3010.66 4960.4 3039.21 5038.14 2963.13C5079.9 2913.5 5114.23 2860.66 5248.2 2854.37C5384.66 2854.37 5586.05 2849.24 5686.94 2881.66C5701.43 2886.32 5718.95 2898.39 5740.7 2954.11C5742.89 2959.71 5748.94 2963.01 5753.93 2959.66C5778.6 2943.12 5813.98 2878.35 5813.98 2692M4249.19 2716.67C4251.87 2768.29 4275.28 2811.52 4303.27 2845.27M4249.19 2716.67C4247.67 2687.33 4249.45 2661.74 4253.35 2639.52M4534.88 2957.75L4546.05 2550.02C4455.91 2444.99 4371.55 2479.59 4326.89 2510.33C4326.89 2510.33 4270.24 2543.25 4253.35 2639.52M4534.88 2957.75L4534.06 2987.52C4530.07 3108 4559.29 3351.85 4745.78 3494.49C4890.58 3605.24 5164.59 3754.89 5570.33 3609.74M4534.88 2957.75C4504.01 2961.1 4473.57 2955.63 4449.29 2948.12M5667.92 2071.59C5695.46 2114.79 5729.23 2160.21 5756.81 2253.28M5794.46 2455.97C5799.83 2552.52 5818.94 2763.73 5834.16 2857.68M5794.46 2455.97C5785.11 2369.23 5771.88 2304.14 5756.81 2253.28M5794.46 2455.97C5797.55 2511.45 5805.17 2604.8 5813.98 2692M5834.16 2857.68C5845.25 2910.75 5866.32 3036.57 5861.86 3115.3C5861.86 3336.75 5785.21 3476.81 5655.93 3563.77M5834.16 2857.68C5827.68 2817.72 5820.51 2756.54 5813.98 2692M4449.29 2948.12C4430.37 2942.27 4415.19 2935.18 4406.46 2930.05C4406.46 2930.05 4348.81 2900.22 4303.27 2845.27M4449.29 2948.12C4447.26 2975.91 4443.81 3011.94 4438.84 3052.45M4344.26 3449.42C4313.66 3566.86 4299.76 3842.76 4527.03 4034.96C4637.44 4128.33 4897.54 4281 5295.76 4070.94C5369.36 4024.62 5470.51 3938.44 5531.05 3841.85C5613.09 3716.8 5591.42 3635.01 5570.33 3609.74M4344.26 3449.42C4321.01 3449.42 4298.67 3449.3 4276.86 3449.23M4344.26 3449.42C4357.27 3422.93 4368.99 3391.2 4379.47 3356.49M4344.26 3449.42C4345.92 3446.03 4347.57 3442.56 4349.19 3439M5655.93 3563.77C5632.4 3579.59 5607.13 3593.66 5580.26 3606.14C5576.94 3607.36 5573.63 3608.56 5570.33 3609.74M5655.93 3563.77C5731.76 3581.99 5830.87 3609.24 5940.02 3645.11M5940.02 3645.11C6023.64 3672.6 6113.16 3705.14 6202.6 3742.57M5940.02 3645.11C5731.88 3853.95 5512.68 4380.31 5377.7 4765.64M6202.6 3742.57C6396 3823.49 6589.07 3927.23 6721.56 4051.91C6905.16 4224.7 7102.82 4470.81 7260.37 4765.64L7554.8 5317.69M6202.6 3742.57C6061.36 3984.88 5859.22 4455.21 5748.13 4780.53M7554.8 5317.69C7531.17 5312.69 7488.73 5315.32 7440.25 5321.71M7554.8 5317.69C7566.56 5337.57 7565.59 5374.98 7496.77 5442.02M7492.77 5445.88C7494.13 5444.58 7495.46 5443.3 7496.77 5442.02M5991.71 4890.11C5987.02 4961.37 6003.7 5155.59 6064.9 5331.74C6096.93 5443.32 6181.76 5696.55 6269.82 5836.23M6269.82 5836.23C6271.94 5839.61 6274.07 5842.92 6276.21 5846.16C6293.07 5871.8 6320.03 5901.43 6407.03 5914L6484.13 6133.3M6269.82 5836.23C6281.62 5814.99 6306.8 5783.6 6348.55 5747.08M7440.25 5321.71C7360.44 5332.23 7264.25 5352.93 7208.68 5366.48C6907.23 5434.71 6708.33 5531.61 6535.48 5622.45C6452.96 5665.81 6391.85 5709.21 6348.55 5747.08M7440.25 5321.71C7457.62 5354.59 7476.78 5394.97 7496.77 5442.02M6348 5745.5L6348.55 5747.08M6484.62 6134.7L6484.13 6133.3M6179.28 6287.66C6199.49 6275.59 6222.41 6261.98 6247.67 6247.58M6179.28 6287.66L6179.28 6287.66M6179.28 6287.66C6178.97 6287.13 6178.67 6286.61 6178.36 6286.1M6944.03 6074.29C6782.21 6045.51 6621.92 6080.46 6484.13 6133.3M6295.5 7237C6295.85 7237.03 6296.2 7237.07 6296.55 7237.1M5748.13 4780.53C5732.41 4826.57 5718.51 4869.7 5706.87 4908.87C5706.82 4909.05 5706.81 4909.07 5706.76 4909.25C5705.22 4914.77 5647.53 5116.32 5464.47 5057.58C5283.57 4999.54 5361.51 4812.37 5361.51 4812.37C5366.76 4797.05 5372.16 4781.47 5377.7 4765.64M5748.13 4780.53C5798.59 4790.04 5884.79 4862.48 5871.37 5079.91C5852.76 5381.37 5885.02 5754.77 6045.05 5986.34C6078.13 6039.2 6164.97 6165.45 6247.67 6247.58M6774.9 7231.41C7010.61 7207.45 7270.28 7148.39 7459.27 7023.85C7769.41 6833.22 7721.86 6388.28 7692.5 6126.94C7643.52 5842.97 7565.29 5603.33 7496.77 5442.02M6774.9 7231.41C6881.89 7533.04 7054.8 8358.8 6747.64 8907.18C6744.66 8912.5 6743.06 8918.48 6743.06 8924.57V9784.48L6759.19 10234.4H5076.18C4949.95 9816.55 4804.21 9078.08 4732.8 8653.1M6774.9 7231.41C6582.97 7250.91 6405.59 7247.74 6296.55 7237.1M3891.46 7922.42C4068.8 8050.99 4385.46 8280 4571.28 8412.77M4732.8 8653.1C4723.93 8600.3 4716.2 8552.35 4709.81 8510.44C4690.32 8497.45 4639.66 8461.63 4571.28 8412.77M4732.8 8653.1C4624.79 9143.53 4402.81 10146.4 4378.99 10234.4H2742.3M2742.3 10234.4C2780.95 9649.64 2860.01 8707.85 2947.88 7941.85M2742.3 10234.4C2782.78 9621.92 2867.6 8617.76 2960.43 7834.16M3139.27 6760.44C2890.61 6622.36 2716.21 6409.14 2596.18 6187.31M3139.27 6760.44C3142.22 6745.74 3148.28 6723.57 3158.1 6694.69M3139.27 6760.44C3083.25 6918.76 3021.06 7324.48 2962.03 7820.63M3139.27 6760.44C3082.74 6920.19 3019.94 7331.86 2960.43 7834.16M4464.59 6874.16C4434.41 7267.41 4403.39 8020.42 4571.28 8412.77M5783.71 6357.68C5824.73 6334.85 5975.03 6288.34 6045.05 6267.94C6106.21 6250.98 6144.78 6246.44 6161.11 6259.35C6162.66 6260.57 6163.85 6262.16 6164.91 6263.83C6167.23 6267.52 6171.98 6275.19 6178.36 6286.1M5783.71 6357.68C5815.82 6409.09 5882.04 6535.41 5889.98 6629.36M5783.71 6357.68C5656.6 6278.62 5409.89 6133.23 5232.49 6103.01M4063.48 6817.51C4208.49 6832.39 4543.99 6864.57 4725.93 6874.16M3963.41 4679.22L5377.7 4765.64M3963.41 4679.22C4008.07 4257.84 4117.24 3752.12 4194.15 3449.63M3963.41 4679.22C3937.2 4926.5 3850.11 4943.38 3771.54 4939.32C3624.33 4931.71 3632.94 4800.79 3640.04 4711.06C3641.23 4696.07 3642.6 4680.62 3644.13 4664.74M5232.49 6103.01C5208.58 6098.94 5166.57 6092.1 5147.72 6093.85C5099.16 6092.88 5029.95 6098.69 4954.61 6115.49M5232.49 6103.01C5272.6 6064.08 5282.11 5967.73 5293.69 5899.09L5377.7 5230.43L3800.49 5110.93L3755.41 5872.21C3740.11 5995.85 3795.94 6215.43 4026.68 6257.19C4085.94 6265.74 4217.11 6282.83 4267.74 6282.83M4666.8 6241.89C4709.54 6209.18 4757.22 6183.03 4806.16 6162.38M4666.8 6241.89L4665.32 6243.03M4666.8 6241.89C4666.31 6242.27 4665.81 6242.65 4665.32 6243.03M4434.04 6282.83H4616.96M4434.04 6282.83C4419.61 6296.11 4411.25 6304.75 4411.25 6304.75M4434.04 6282.83C4435.25 6281.73 4436.49 6280.59 4437.78 6279.42M4651.09 6516.05C4610.07 6493.56 4583.55 6456.23 4575.41 6440.38C4528.22 6347.95 4611.76 6284.02 4665.32 6243.03M4651.09 6516.05C4623.11 6574.64 4604.36 6690.56 4754.88 6757.13M4651.09 6516.05C4696.85 6465.47 4829.81 6354.87 4995.55 6317.15M4754.88 6757.13C4754.88 6757.13 4707.77 6828.67 4733.79 6892.35C4756.19 6947.17 4861.15 6974.64 4861.15 6974.64M4754.88 6757.13C4794.85 6708.89 4888.03 6627.7 5108.02 6571.47M4861.15 6974.64C4839.93 7010.48 4829.73 7099.36 4958.74 7168.17C4996.62 7188.37 5045.11 7204.94 5066.72 7211.89M4861.15 6974.64C4894.1 6940.32 5010.52 6863.66 5212.64 6831.57M5068.36 7212.41C5049.68 7366.53 5011.71 7589.29 4972.39 7716.9M5068.36 7212.41C5067.83 7212.25 5067.29 7212.07 5066.72 7211.89M5068.36 7212.41L5066.72 7211.89M5009.61 7136.74C5021.75 7121.07 5050.02 7110.91 5084.33 7104.33M5195.27 7093.45C5211.44 7092.87 5226.8 7092.61 5240.47 7092.52C5255.71 7092.42 5270.55 7097.49 5283.07 7106.18C5528.69 7276.53 5721.47 7214.68 5793.22 7169C5828.95 7170.65 6067.24 7243.43 6179.44 7279.4C6206.11 7289.74 6255.12 7305.87 6275.46 7279.4C6283.22 7265.85 6290.24 7251.73 6296.55 7237.1M5195.27 7093.45C5188.52 7227.66 5165.25 7429.51 5109.68 7666.87C5054.1 7904.23 4947.99 8230.49 5000.92 8536.08C5016.82 8627.88 5018.29 8710.17 5152.68 8870.2C5170.46 8896.25 5188.78 8906.17 5152.68 8954.97C5110.34 9012.2 5070.81 8978.82 5056.33 8954.97C4964.95 8839.19 4961.11 8811.89 4927.32 8742.42C4773.82 8426.83 4897.09 7961.29 4972.39 7716.9M5195.27 7093.45C5158.98 7094.77 5118.63 7097.76 5084.33 7104.33M4972.39 7716.9C5011.04 7591.46 5047.92 7368.12 5066.72 7211.89M4303.27 2845.27C4253.11 2821.29 4144.14 2780.67 4048.72 2780.67M4048.72 2780.67C4052.22 2787.45 4055.49 2794.51 4058.52 2801.86M4048.72 2780.67C3975.22 2638.22 3800.94 2615.11 3699.59 2627.27M3936.12 3475.89C4035.08 3456.56 4114.28 3451.04 4194.15 3449.63M3936.12 3475.89C3950.18 3508.28 3943.6 3569 3813.72 3642.95M3936.12 3475.89C3922.06 3443.49 3867.48 3390.37 3761.62 3437.02C3713.92 3495.49 3606.96 3639.31 3560.65 3746.74M3936.12 3475.89C3949.14 3505.89 3944.46 3560.2 3840.5 3626.8M6247.67 6247.58C6312.83 6210.42 6393.63 6168.01 6484.13 6133.3M4194.15 3449.63C4221.37 3449.15 4248.67 3449.14 4276.86 3449.23M3840.5 3626.8C3775.53 3858.72 3674.77 4348.51 3644.13 4664.74M3840.5 3626.8C3832.22 3632.1 3823.3 3637.49 3813.72 3642.95M3644.13 4664.74C3596.87 4680.73 3460.67 4754.63 3401.03 5052.62C3395.12 5082.14 3389.36 5109.96 3383.83 5136.49M3350 5319C3349.77 5316.91 3349.54 5314.82 3349.32 5312.73M3813.72 3642.95C3673.54 3722.76 3588.77 3738.88 3560.65 3746.74M3560.65 3746.74C3339.23 4218.8 3301.72 4871.49 3349.32 5312.73M2606.25 3583.81C2682.06 3429.85 2866.44 3121.83 3093.37 3012.34C3164.85 2977.85 3224.39 2984.39 3272.52 3013.58M2606.25 3583.81C2548.94 3504.74 2411.75 3362.92 2268.97 3373.25C2252.43 3374.45 2237.1 3381.76 2223.76 3391.62L2174.13 3428.33M2606.25 3583.81C2473.93 3857.42 2256 4448.48 2316.38 5052.62C2332.09 5254.42 2351.52 5384.26 2370.55 5509.97M2174.13 3428.33C2154.14 3413.45 2124.51 3354.31 2190.67 3317.1L2583.1 3093.38C2629.82 3065.27 2652.98 3034.17 2779.52 2910.61C2855.74 2836.18 3048.22 2679.29 3208.33 2647.2C3242.5 2643.69 3288.59 2645.62 3339 2653.38M2174.13 3428.33C2017.13 3552.52 1753.72 3808.77 1573.7 4134.2C1403.75 4441.45 1206.83 5071.89 1717.61 5373.92C1820.57 5429.33 2086.05 5509.97 2370.55 5509.97M3582.56 3180.64C3549.15 3352.99 3431.1 3319.16 3422.95 3275.74C3422.43 3273.01 3421.89 3270.26 3421.32 3267.47M3582.56 3180.64C3582.56 3094.21 3567.95 3055.2 3560.65 3032.18C3491.18 2812.61 3281.52 2780.77 3202.13 2788.62M3582.56 3180.64C3610.22 3246.03 3680.86 3343.46 3755.69 3252.58C3768.97 3236.46 3775.19 3215.73 3776.31 3194.88C3776.76 3186.45 3777.09 3178.12 3777.29 3169.88M2370.55 5509.97C2390.04 5638.72 2430.58 5809.7 2502.64 5987.99M3339 2653.38C3353.59 2655.62 3368.54 2658.35 3383.66 2661.58C3566.44 2700.57 3672.11 2732.65 3723.16 2857.68C3744.3 2901 3781.06 3018.43 3777.29 3169.88M3339 2653.38C3403.62 2628.23 3549.17 2582.69 3699.59 2627.27M3943.57 3116.62C3933.64 2837.79 3845.99 2718.36 3798.74 2679.12C3756.66 2644.17 3733.44 2637.29 3699.59 2627.27M3943.57 3116.62V3116.67M3943.57 3116.62C3943.57 3116.64 3943.57 3116.65 3943.57 3116.67M3777.29 3169.88C3797.84 3192.35 3844.71 3214.16 3891.14 3186.01C3905.12 3177.54 3915.37 3169.39 3922.89 3161.8M3699.59 2627.27C3805.77 2614.53 3992 2640.5 4058.52 2801.86M3699.59 2627.27C3700.27 2627.47 3698.92 2627.07 3699.59 2627.27ZM4058.52 2801.86C4064.91 2816.11 4071.86 2846.77 4074.89 2889.93M3938.44 3140.53C3965.32 3147.89 4016.07 3142.7 4048.72 3084.29M3938.44 3140.53C3935.4 3146.87 3930.57 3154.04 3922.89 3161.8M3938.44 3140.53C3943.57 3129.8 3943.57 3121.45 3943.57 3116.67M4074.89 2889.93C4148.75 2902.34 4324.94 2952.21 4438.84 3052.45M4074.89 2889.93C4077.15 2922.02 4077.25 2961.01 4073.35 3005.31M4438.84 3052.45C4434.67 3086.43 4429.43 3123.56 4423.06 3161.61M4073.35 3005.31C4073.11 3008.04 4072.85 3010.8 4072.58 3013.58C4067.19 3043.04 4058.82 3066.21 4048.72 3084.29M4073.35 3005.31C4163.53 3024.19 4359.74 3081.89 4423.06 3161.61M4423.06 3161.61C4418.97 3186.1 4414.41 3210.98 4409.37 3235.63M4048.72 3084.29C4143.36 3102.76 4347.99 3158.89 4409.37 3235.63M4409.37 3235.63C4400.85 3277.32 4390.96 3318.39 4379.62 3355.99M3922.89 3161.8C4038.81 3171.22 4249.97 3214.12 4379.62 3355.99M4379.32 3357C4379.09 3356.75 4379.28 3356.62 4379.47 3356.49M4349.19 3439C4163.92 3259.38 3919.96 3237.62 3766.55 3277.73C3746.04 3309.82 3701.79 3307.86 3684.7 3303.86C3451.48 3361.89 2982.55 3746.74 2920.11 4848.76C2920.11 5532.55 3104.92 6024.24 3344.15 6308.49M4349.19 3439C4360.25 3414.76 4370.33 3386.76 4379.47 3356.49M3331.19 5542.79C3333.79 5689.03 3363.03 5871.35 3437.73 6168.86M3331.19 5542.79C3330.91 5527.14 3330.94 5511.91 3331.25 5496.99M3331.19 5542.79C3313.31 5507.53 3297.69 5463.47 3284.3 5412.61M3272.52 3013.58C2630.61 3301.73 2445.1 4322.91 2432.58 4797.48C2432.58 4797.48 2383.37 5584.4 2692.26 6143.89C2838.69 6409.11 2996.92 6577.41 3158.1 6694.69M3272.52 3013.58C3310.71 3036.73 3341.7 3074.15 3365.77 3116.62M3365.77 3116.62C3104.88 3204.47 2577.66 3645.11 2545.47 4812.37C2535.61 5169.59 2582.58 5827.73 2992.64 6380.99M3365.77 3116.62C3378.34 3138.81 3389.02 3162.38 3397.84 3186.01M2502.64 5987.99C2490.45 6128.18 2445.81 6418.05 2344.08 6694.69C2251.03 6947.76 2112.1 7446.88 2337.47 7733.44C2435.6 7858.23 2624.46 8009.66 2947.88 7941.85M2502.64 5987.99C2529.32 6054.02 2560.32 6121.05 2596.18 6187.31M2596.18 6187.31C2566.73 6319.63 2488.81 6638.95 2412.73 6857.62C2317.62 7130.95 2287.43 7484.09 2432.99 7669.76C2510.39 7768.5 2647.12 7903.02 2962.03 7820.63M3397.84 3186.01C3024.89 3356.38 2780.34 3935.3 2706.32 4812.37C2662.73 5328.96 2749.35 6021.38 3242 6496.6M3397.84 3186.01C3408.21 3213.78 3416.02 3241.65 3421.32 3267.47M3421.32 3267.47C3327.42 3376.64 2933.98 3527.99 2826.24 4828.08C2788.97 5277.9 2912.88 6024.32 3286.92 6409.5M4276.86 3449.23C4059.35 3318.75 3560.65 3248.69 3272.52 3851.36C3147.37 4113.11 2961.05 4677.73 3058.64 5293.7C3097.59 5539.58 3203.87 5960.8 3399.1 6223.44M4954.61 6115.49C4954.61 6115.49 4846.68 6010.32 4680.45 6021.08C4492.4 6033.24 4311.56 6234.5 4305.15 6241.7C4304.95 6241.92 4304.87 6242 4304.66 6242.22C4292.08 6255.23 4279.79 6268.79 4267.74 6282.83M4954.61 6115.49C4906.37 6126.24 4855.62 6141.5 4806.16 6162.38M4806.16 6162.38C4806.16 6162.38 4739.77 6143.22 4696.16 6143.06C4600.21 6142.71 4487.92 6233.83 4437.78 6279.42M4411.25 6304.75C4315.73 6414.19 4133.78 6662.85 4026.68 6874.16C3668.99 7511.39 3358.02 7781.83 3139.27 7881.07C3070.79 7909.68 3007.08 7929.44 2947.88 7941.85M4411.25 6304.75C4411.25 6304.75 4421.06 6294.61 4437.78 6279.42M4267.74 6282.83C4148.34 6421.98 4046.2 6604.55 3948.52 6770.78C3819.51 6990.36 3793.46 7058.17 3675.19 7212.41C3381.18 7569.69 3288.97 7699.31 3099.58 7774.8C3050.29 7794.44 3004.54 7809.51 2962.03 7820.63M3191.5 6610.5C3117.21 6536.93 3051.22 6460.03 2992.64 6380.99M3241.32 6498C3240.48 6497.2 3242.84 6497.4 3242 6496.6M3345 6309.5C3344.72 6309.16 3344.43 6308.82 3344.15 6308.49M3399.1 6223.44L3437.73 6168.86M3399.1 6223.44L3375.22 6257.19M3286.92 6409.5C3270.38 6440.13 3255.45 6469.21 3242 6496.6M3286.92 6409.5C3304.2 6377.48 3323.24 6343.76 3344.15 6308.49M3375.22 6257.19L3437.73 6168.86M3375.22 6257.19C3364.43 6274.63 3354.08 6291.73 3344.15 6308.49M3158.1 6694.69C3166.22 6670.78 3176.92 6642.26 3190.56 6609.57M3437.73 6168.86C3419.65 6113.83 3380.58 5993.99 3361.99 5933.78M3437.73 6168.86C3355.04 5839.51 3328.05 5651.33 3331.25 5496.99M6484.13 6133.3L6348.55 5747.08M4326.89 2758C4326.89 2758 4338.5 2673.65 4379.51 2653.5C4409.47 2638.78 4465 2653.5 4465 2653.5M6296.55 7237.1C6394.41 7010.38 6324.2 6664.42 6275.46 6502.83C6248.11 6412.16 6203.11 6328.57 6179.28 6287.66M2962.03 7820.63C2961.5 7825.14 2960.96 7829.65 2960.43 7834.16M2947.88 7941.85C2952.04 7905.54 2956.23 7869.63 2960.43 7834.16M3361.99 5933.78L3232.32 5584.4C3220.99 5538.83 3211.31 5492.63 3203.18 5446M3361.99 5933.78C3360.97 5930.49 3360.02 5927.38 3359.13 5924.47C3360.17 5927.81 3361.18 5931.07 3362.16 5934.24L3361.99 5933.78ZM3284.3 4163.44C3303.48 4076.5 3327.12 4001.38 3355.13 3944.4C3330.64 4008.59 3306.58 4082.34 3284.3 4163.44ZM3284.3 4163.44C3188.26 4512.93 3125.18 4999.01 3203.18 5446M3284.3 4163.44C3203.93 4527.67 3201.79 5099.27 3284.3 5412.61M3331.25 5496.99C3332.59 5432.25 3339.24 5373.47 3349.32 5312.73M3381.48 5147.78C3382.26 5144.04 3383.04 5140.28 3383.83 5136.49M3381.48 5147.78C3369.04 5207.49 3357.93 5260.83 3349.32 5312.73M3381.48 5147.78L3383.83 5136.49M6178.36 6286.1C6178.67 6286.61 6178.97 6287.13 6179.28 6287.66M5066.72 7211.89C5071.66 7170.87 5075.35 7134.49 5077.5 7105.71C5079.75 7105.23 5082.02 7104.78 5084.33 7104.33M3203.18 5446L3284.3 5412.61M3190.56 6609.57C3116.65 6536.28 3050.97 6459.7 2992.64 6380.99M3190.56 6609.57C3204.5 6576.13 3221.52 6538.32 3242 6496.6M3242 6496.6C3269.5 6440.59 3303.23 6377.52 3344.15 6308.49M4379.62 3355.99C4379.57 3356.16 4379.52 3356.32 4379.47 3356.49M4379.62 3355.99C4379.85 3356.24 4379.66 3356.37 4379.47 3356.49M5263.92 2997.86C5336.56 3016.06 5503.84 3041.53 5600.11 2997.86C5626.57 2985.86 5667.51 3004.06 5655.93 3123.57C5649.37 3173.85 5609.27 3269.67 5501.58 3277.19C5485.99 3278.28 5471.63 3270.61 5458.82 3261.66C5421.89 3235.84 5394.52 3251.73 5369.48 3269.19C5361.75 3274.57 5352.94 3278.35 5343.62 3279.73C5170.4 3305.29 5118.8 3202.86 5115.05 3152.52C5103.47 2997.04 5191.28 2979.67 5263.92 2997.86ZM5553.38 4765.64C5502.18 4751.63 5449.88 4781.65 5435.11 4832.63C5421.08 4881.06 5443.91 4930.02 5490.52 4949.24C5536.04 4968.01 5584.67 4951.33 5610.03 4909.13C5641.06 4857.49 5611.49 4781.54 5553.38 4765.64ZM3787.25 4631.66C3739.24 4631.89 3702.58 4663.93 3693.39 4711.06C3682.17 4768.56 3728.67 4828.15 3787.25 4828.08C3839.67 4828.02 3880.87 4786.58 3883.19 4734.21C3885.61 4679.43 3842.09 4631.4 3787.25 4631.66Z" stroke="black" stroke-width="10" stroke-linecap="round"/>
<path d="M5463.54 2610.14C5463.54 2610.14 5593.63 2666.86 5611.58 2733.78C5629.53 2800.71 5565 2858 5565 2858M5353.96 2850.81C5353.14 2840.74 5358.51 2818.55 5386.63 2810.28" stroke="black" stroke-width="15" stroke-linecap="round"/>
<path d="M4915 2383C4915 2383 5043.76 2319.06 5132.5 2317C5206.43 2315.29 5318 2355 5318 2355M5518 2363C5518 2363 5586.5 2314.4 5675 2317C5715.67 2318.19 5746 2340.5 5746 2340.5" stroke="black" stroke-width="55" stroke-linecap="round"/>
<path d="M5668.65 2475.75C5633.04 2476.94 5605.98 2509.77 5609.51 2545.22C5613.15 2581.63 5649.16 2609.43 5684.77 2601.04C5712.55 2594.5 5729.33 2573.63 5731.92 2545.22C5735.23 2508.67 5705.32 2474.52 5668.65 2475.75Z" fill="black"/>
<path d="M5146.79 2475.75C5115.45 2482.99 5098.41 2513.32 5102.54 2545.22C5106.96 2579.23 5136.62 2607.21 5170.36 2601.04C5198.43 2595.91 5214.85 2573.63 5217.5 2545.22C5221.1 2506.67 5184.51 2467.03 5146.79 2475.75Z" fill="black"/>
<path d="M5668.65 2475.75C5633.04 2476.94 5605.98 2509.77 5609.51 2545.22C5613.15 2581.63 5649.16 2609.43 5684.77 2601.04C5712.55 2594.5 5729.33 2573.63 5731.92 2545.22C5735.23 2508.67 5705.32 2474.52 5668.65 2475.75Z" stroke="black"/>
<path d="M5146.79 2475.75C5115.45 2482.99 5098.41 2513.32 5102.54 2545.22C5106.96 2579.23 5136.62 2607.21 5170.36 2601.04C5198.43 2595.91 5214.85 2573.63 5217.5 2545.22C5221.1 2506.67 5184.51 2467.03 5146.79 2475.75Z" stroke="black"/>
<path d="M5206 3069C5206 3069 5309.08 3155.41 5388.77 3160.8C5467.7 3166.14 5580.65 3095.88 5580.65 3095.88" stroke="black" stroke-width="15" stroke-linecap="round"/>
</g>
<defs>
<clipPath id="clip0_112_92">
<rect width="9104" height="9456" fill="white"/>
</clipPath>
</defs>
</svg>
