<svg width="400" height="297" viewBox="0 0 400 297" fill="none" xmlns="http://www.w3.org/2000/svg">
<g clip-path="url(#clip0_827_1072)">
<rect width="400" height="297" fill="#CAC8FF"/>
<path fill-rule="evenodd" clip-rule="evenodd" d="M181.303 103.672C181.905 104.173 182.767 104.595 183.956 104.879C183.678 106.449 184.129 110.291 188.586 113.342C188.609 113.159 188.636 112.983 188.666 112.811C189.307 109.157 191.457 107.908 191.457 107.908C193.152 106.742 196.353 105.429 199.774 109.415L199.35 124.888L199.319 126.018C199.168 130.59 200.277 139.844 207.354 145.258C212.849 149.461 223.248 155.14 238.646 149.632C238.772 149.587 238.897 149.541 239.023 149.495C240.043 149.021 241.002 148.487 241.895 147.887C246.801 144.587 249.71 139.271 249.71 130.867C249.88 127.879 249.08 123.104 248.659 121.09C248.413 119.574 248.141 117.252 247.893 114.803C247.893 121.694 246.618 124.204 245.686 124.909C245.464 125.078 245.182 124.927 245.079 124.667C244.269 122.623 243.614 122.175 243.072 122.001C239.243 120.77 231.6 120.965 226.421 120.965C221.337 121.203 220.034 123.209 218.449 125.092C215.499 127.98 212.407 126.896 210.022 125.375C205.967 122.788 206.182 112.156 206.742 107.406C209.056 105.325 208.123 103.428 207.124 102.491C206.943 102.322 206.93 102.023 207.11 101.854C207.835 101.175 209.379 99.5342 209.379 97.8644C209.379 95.682 206.742 93.722 206.742 93.722C199.433 95.0152 192.897 96.6557 188.695 98.304C183.799 100.225 181.727 102.683 181.303 103.672ZM239.776 126.41C236.123 128.068 229.775 127.101 227.018 126.41C224.261 125.72 220.929 126.379 221.368 132.28C221.51 134.179 223.445 138.03 229.923 137.124C230.357 137.064 230.763 136.885 231.125 136.638C232.008 136.032 232.975 135.522 234.241 136.307C234.859 136.69 235.522 137.066 236.245 136.994C240.176 136.602 241.65 133.057 241.895 131.181C242.334 126.646 240.781 125.955 239.776 126.41Z" fill="black"/>
<path d="M218.481 86.9892C196.987 89.7637 186.812 95.0241 182.214 97.5193C180.656 98.3648 178.886 101.659 181.303 103.672C181.727 102.683 183.799 100.225 188.695 98.304C192.897 96.6557 199.433 95.0152 206.742 93.722C213.766 92.4794 221.504 91.5575 228.571 91.2576C233.421 91.0517 238.157 91.1541 242.35 91.2576C248.947 91.4203 253.993 91.8894 256.235 93.5703C258.479 89.1919 253.131 87.6326 244.657 86.6596C244.657 86.6596 237.268 86.0073 228.571 86.2489C225.285 86.3402 221.812 86.5591 218.481 86.9892Z" fill="#FEBC23"/>
<path d="M244.657 86.6596C244.657 86.6596 242.197 79.1801 239.4 75.4231C231.365 62.994 216.849 61.9568 209.394 63.6061C208.791 63.7396 208.2 63.8842 207.621 64.0397C212.198 63.9476 221.82 66.7575 226.704 79.2995C227.279 80.5584 228.148 83.3954 228.571 86.2489C237.268 86.0073 244.657 86.6596 244.657 86.6596Z" fill="#FEBC23"/>
<path d="M187.079 80.5459C182.792 87.9532 182.214 97.5193 182.214 97.5193C186.812 95.0241 196.987 89.7637 218.481 86.9892C221.812 86.5591 225.285 86.3402 228.571 86.2489C228.148 83.3954 227.279 80.5584 226.704 79.2995C221.82 66.7575 212.198 63.9476 207.621 64.0397C198.287 66.5466 192.069 71.9226 187.079 80.5459Z" fill="#FEBC23"/>
<path d="M256.235 93.5703C253.993 91.8894 248.947 91.4203 242.35 91.2576C243.395 92.897 244.677 94.6209 245.723 98.1528C248.756 97.3962 255.105 95.4206 256.235 93.5703Z" fill="black"/>
<path d="M199.052 165.769C190.428 158.475 190.955 148.004 192.116 143.547C191.234 143.547 190.386 143.543 189.558 143.54C188.489 143.537 187.453 143.537 186.419 143.555C183.501 155.035 179.358 174.227 177.663 190.219L231.336 193.499C236.459 178.875 244.777 158.899 252.676 150.974C248.534 149.612 244.773 148.578 241.895 147.887C241.002 148.487 240.043 149.021 239.023 149.495C238.897 149.541 238.772 149.587 238.646 149.632C239.447 150.59 240.269 153.695 237.156 158.44C234.858 162.106 231.02 165.377 228.226 167.134C213.114 175.106 203.243 169.312 199.052 165.769Z" fill="#AFD1FA"/>
<path d="M302.785 193.499C296.805 182.309 289.304 172.97 282.336 166.412C277.308 161.68 269.981 157.744 262.641 154.673C257.281 163.868 249.61 181.718 245.394 194.064C247.309 194.425 250.58 197.174 250.071 205.426C249.365 216.866 250.589 231.037 256.662 239.825C257.918 241.831 261.213 246.622 264.352 249.739C266.825 248.329 269.891 246.719 273.326 245.402L270.4 237.08C267.098 236.603 266.075 235.478 265.435 234.505C265.354 234.382 265.273 234.257 265.192 234.128C265.64 233.322 266.596 232.131 268.18 230.745C269.823 229.308 272.143 227.661 275.274 226.015C281.834 222.568 289.383 218.89 300.823 216.301C302.932 215.787 306.582 215.001 309.611 214.602C311.451 214.359 313.061 214.259 313.958 214.449L302.785 193.499Z" fill="#AFD1FA"/>
<path d="M228.571 91.2576C221.504 91.5575 213.766 92.4794 206.742 93.722C206.742 93.722 209.379 95.682 209.379 97.8644C209.379 99.5342 207.835 101.175 207.11 101.854C206.93 102.023 206.943 102.322 207.124 102.491C208.123 103.428 209.056 105.325 206.742 107.406C206.182 112.156 205.967 122.788 210.022 125.375C212.407 126.896 215.499 127.98 218.449 125.092C220.034 123.209 221.337 121.203 226.421 120.965C231.6 120.965 239.243 120.77 243.072 122.001C243.614 122.175 244.269 122.623 245.079 124.667C245.182 124.927 245.464 125.078 245.686 124.909C246.618 124.204 247.893 121.694 247.893 114.803C247.559 111.493 247.269 107.951 247.152 105.845C246.797 102.553 246.295 100.083 245.723 98.1528C244.677 94.6209 243.395 92.897 242.35 91.2576C238.157 91.1541 233.421 91.0517 228.571 91.2576Z" fill="#B5602A"/>
<path d="M227.018 126.41C229.775 127.101 236.123 128.068 239.776 126.41C240.781 125.955 242.334 126.646 241.895 131.181C241.65 133.057 240.176 136.602 236.245 136.994C235.522 137.066 234.859 136.69 234.241 136.307C232.975 135.522 232.008 136.032 231.125 136.638C230.763 136.885 230.357 137.064 229.923 137.124C223.445 138.03 221.51 134.179 221.368 132.28C220.929 126.379 224.261 125.72 227.018 126.41Z" fill="#B5602A"/>
<path d="M207.354 145.258C200.277 139.844 199.168 130.59 199.319 126.018L199.35 124.888C198.179 125.015 197.024 124.808 196.102 124.523C196.025 125.577 195.894 126.945 195.705 128.482C195.547 129.771 195.348 131.181 195.107 132.625C194.951 133.554 194.778 134.498 194.587 135.434C194.264 137.016 193.888 138.575 193.458 140.001C193.456 140.008 193.454 140.014 193.452 140.021C193.055 141.338 192.61 142.542 192.116 143.547C190.955 148.004 190.428 158.475 199.052 165.769C203.243 169.312 213.114 175.106 228.226 167.134C231.02 165.377 234.858 162.106 237.156 158.44C240.269 153.695 239.447 150.59 238.646 149.632C223.248 155.14 212.849 149.461 207.354 145.258Z" fill="#B5602A"/>
<path d="M191.457 107.908C191.457 107.908 189.307 109.157 188.666 112.811C188.636 112.983 188.609 113.159 188.586 113.342C188.496 114.055 188.462 114.852 188.508 115.739C188.61 117.698 189.498 119.339 190.56 120.62C192.289 122.705 194.477 123.837 194.477 123.837C194.808 124.031 195.384 124.301 196.102 124.523C197.024 124.808 198.179 125.015 199.35 124.888L199.774 109.415C196.353 105.429 193.152 106.742 191.457 107.908Z" fill="#B5602A"/>
<path d="M155.661 113.648C162.597 115.128 166.608 116.345 168.545 121.09C169.347 122.734 170.742 127.191 170.599 132.939C171.379 133.791 173.158 134.619 174.92 133.551C175.45 133.229 175.839 132.92 176.125 132.632C176.416 132.338 176.6 132.065 176.715 131.824C176.91 131.418 176.91 131.101 176.91 130.919V130.917C176.533 120.336 173.207 115.803 171.413 114.314C169.816 112.987 168.935 112.726 167.65 112.346C161.942 110.654 156.418 112.383 153.966 113.337C154.519 113.422 155.087 113.526 155.661 113.648Z" fill="#EFA800"/>
<path d="M126.158 148.648C129.035 142.804 136.032 131.115 144.644 126.96C147.357 125.651 149.617 125.899 151.443 127.007C152.892 127.886 154.068 129.305 154.982 130.917C155.459 131.759 155.864 132.654 156.199 133.551C156.592 134.605 156.889 135.662 157.09 136.642C157.112 136.748 157.132 136.852 157.152 136.956C157.461 138.604 161.941 139.888 163.209 133.347C164.237 135.778 166.831 139.375 169.605 136.28C170.254 135.557 170.531 134.586 170.576 133.616C170.586 133.388 170.594 133.162 170.599 132.939C170.742 127.191 169.347 122.734 168.545 121.09C166.608 116.345 162.597 115.128 155.661 113.648C155.087 113.526 154.519 113.422 153.966 113.337C152.053 113.043 150.304 112.969 149.007 113.102C142.93 114.32 135.626 120.274 132.733 123.099C127.931 127.788 127.052 128.968 125.279 130.035L110.386 138.525C107.875 139.938 109 142.182 109.758 142.747L111.469 141.482C112.089 141.023 112.802 140.678 113.573 140.644C118.914 140.407 124.011 145.687 126.158 148.648Z" fill="#EFA800"/>
<path d="M126.158 148.648C124.011 145.687 118.914 140.407 113.573 140.644C112.802 140.678 112.089 141.023 111.469 141.482L109.758 142.747C103.8 147.46 93.8035 157.185 86.9717 169.535C80.5218 181.195 73.0487 205.121 92.4329 216.583C96.3405 218.686 106.416 221.746 117.212 221.746C116.49 216.976 115.753 212.048 115.157 204.39C112.865 181.462 121.136 159.031 126.158 148.648Z" fill="#B5602A"/>
<path d="M234.629 204.578C227.764 202.375 230.721 195.272 230.721 195.272C230.921 194.691 231.126 194.099 231.336 193.499L177.663 190.219C176.668 199.603 173.363 200.244 170.381 200.09C164.794 199.801 165.121 194.833 165.391 191.427C165.436 190.859 165.488 190.272 165.546 189.67C163.752 190.276 158.583 193.081 156.32 204.39C156.096 205.51 155.877 206.566 155.667 207.573C155.637 207.717 155.608 207.859 155.578 208.001C155.106 210.267 154.684 212.291 154.357 214.261C153.975 216.566 153.722 218.797 153.672 221.254C153.66 221.82 153.659 222.398 153.669 222.992C153.768 228.542 154.878 235.461 157.713 246.752L156.247 248.823L155.34 250.104C154.931 250.766 154.538 251.415 154.161 252.051C152.608 254.67 151.328 257.064 150.285 259.19C149.508 260.773 148.862 262.208 148.332 263.477C147.815 264.718 147.409 265.8 147.1 266.707C146.728 267.804 146.498 268.645 146.386 269.203C144.26 275.211 141.9 290.608 139.66 309.438C141.273 309.016 143.009 308.444 144.88 307.698C152.067 304.833 155.567 299.914 166.725 286.355C171.213 280.502 172.201 277.928 177.098 269.595C180.805 263.286 184.681 256.358 189.212 251.077C187.291 251.077 182.313 250.428 180.064 250.104C171.307 248.519 169.188 240.186 169.769 235.494L171.48 206.603L231.336 211.138L228.148 236.514C227.708 239.119 227.347 242.775 225.825 244.253C232.557 245.4 241.92 250.917 246.744 253.918C248.301 253.051 254.005 251.286 256.662 250.512C258.958 249.875 260.415 249.7 261.047 250.17C261.12 250.225 261.176 250.3 261.224 250.378C261.317 250.525 261.491 250.807 261.722 251.201C261.733 251.22 261.745 251.24 261.756 251.26C262.524 250.802 263.393 250.286 264.352 249.739C261.213 246.622 257.918 241.831 256.662 239.825C250.589 231.037 249.365 216.866 250.071 205.426C250.58 197.174 247.309 194.425 245.394 194.064C244.798 195.81 244.271 197.446 243.829 198.932C243.826 198.94 243.826 198.943 243.823 198.951C243.752 199.206 241.554 206.8 234.629 204.578Z" fill="#1E3A8A"/>
<path d="M265.407 288.898C264.634 289.902 262.774 289.29 261.763 288.898C257.504 287.532 248.461 284.77 247.105 284.708C244.398 286.431 237.151 288.761 227.908 282.436C227.323 282.035 226.636 281.8 225.927 281.807C225.46 281.811 224.948 281.821 224.413 281.841C224.156 286.934 223.273 294.594 221.164 303.602C219.055 312.61 215.028 324.992 217.037 336.589C217.64 340.073 217.696 343.196 222.796 349.269C223.471 350.258 224.166 350.635 222.796 352.486C221.189 354.658 219.689 353.391 219.14 352.486C215.672 348.092 215.526 347.057 214.244 344.42C208.418 332.443 213.097 314.776 215.954 305.501C217.446 300.658 218.887 292.204 219.596 286.355C219.576 286.349 219.555 286.342 219.534 286.335C218.714 286.072 216.874 285.443 215.436 284.676C210.54 282.065 210.927 278.692 211.733 277.332C211.733 277.332 207.749 276.289 206.899 274.209C205.911 271.792 207.699 269.077 207.699 269.077C201.987 266.551 202.699 262.151 203.76 259.928C202.204 259.074 201.197 257.658 200.889 257.056C199.097 253.548 202.268 251.122 204.3 249.567L204.357 249.523C205.979 248.282 207.788 247.29 209.645 246.506C209.645 246.506 207.126 245.779 205.471 245.773C201.83 245.759 197.568 249.218 195.665 250.948C195.616 250.992 195.569 251.035 195.523 251.077C194.976 251.581 194.658 251.909 194.658 251.909C191.033 256.062 184.128 265.499 180.064 273.518C166.489 297.702 154.688 307.965 146.386 311.731C143.787 312.817 141.369 313.567 139.122 314.038C135.788 343.108 132.788 378.85 131.321 401.041H193.434C194.338 397.702 202.762 359.643 206.862 341.03C209.572 357.159 215.102 385.184 219.893 401.041H283.764L283.152 383.967V351.412C283.152 351.129 283.227 350.851 283.365 350.603C294.968 329.792 288.416 298.51 284.361 287.076C277.077 287.816 270.345 287.696 266.207 287.292C265.967 287.847 265.701 288.383 265.407 288.898Z" fill="#1E3A8A"/>
<path fill-rule="evenodd" clip-rule="evenodd" d="M262.641 154.673C259.247 153.252 255.85 152.017 252.676 150.974C244.777 158.899 236.459 178.875 231.336 193.499C231.126 194.099 230.921 194.691 230.721 195.272C230.721 195.272 227.764 202.375 234.629 204.578C241.554 206.8 243.752 199.206 243.823 198.951C243.826 198.943 243.826 198.94 243.829 198.932C244.271 197.446 244.798 195.81 245.394 194.064C249.61 181.718 257.281 163.868 262.641 154.673ZM233.515 196.041C234.075 194.106 236.06 192.967 238.003 193.499C240.208 194.102 241.331 196.985 240.153 198.944C239.191 200.546 237.345 201.179 235.618 200.467C233.849 199.737 232.982 197.879 233.515 196.041Z" fill="#1E3A8A"/>
<path d="M261.722 251.201C261.491 250.807 261.317 250.525 261.224 250.378C261.176 250.3 261.12 250.225 261.047 250.17C260.415 249.7 258.958 249.875 256.662 250.512C254.005 251.286 248.301 253.051 246.744 253.918C241.92 250.917 232.557 245.4 225.825 244.253C224.918 244.098 223.323 243.839 222.608 243.905C220.765 243.868 218.139 244.089 215.279 244.726C213.449 245.134 211.523 245.714 209.645 246.506C207.788 247.29 205.979 248.282 204.357 249.523L204.3 249.567C202.268 251.122 199.097 253.548 200.889 257.056C201.197 257.658 202.204 259.074 203.76 259.928C202.699 262.151 201.987 266.551 207.699 269.077C207.699 269.077 205.911 271.792 206.899 274.209C207.749 276.289 211.733 277.332 211.733 277.332C210.927 278.692 210.54 282.065 215.436 284.676C216.874 285.443 218.714 286.072 219.534 286.335C219.721 284.779 219.861 283.398 219.943 282.306C220.028 282.288 220.115 282.27 220.202 282.254C221.504 282.004 223.035 281.891 224.413 281.841C224.948 281.821 225.46 281.811 225.927 281.807C226.636 281.8 227.323 282.035 227.908 282.436C237.151 288.761 244.398 286.431 247.105 284.708C248.461 284.77 257.504 287.532 261.763 288.898C262.774 289.29 264.634 289.902 265.407 288.898C265.701 288.383 265.967 287.847 266.207 287.292C269.921 278.688 267.256 265.559 265.407 259.426C264.369 255.985 262.661 252.813 261.756 251.26L261.756 251.26C261.745 251.24 261.733 251.22 261.722 251.201Z" fill="#EFA800"/>
<path d="M224.413 281.841C223.035 281.891 221.504 282.004 220.202 282.254C220.115 282.27 220.028 282.288 219.943 282.306C219.861 283.398 219.721 284.779 219.534 286.335L219.596 286.355C218.887 292.204 217.446 300.658 215.954 305.501C213.097 314.776 208.418 332.443 214.244 344.42C215.526 347.057 215.672 348.092 219.14 352.486C219.689 353.391 221.189 354.658 222.796 352.486C224.166 350.635 223.471 350.258 222.796 349.269C217.696 343.196 217.64 340.073 217.037 336.589C215.028 324.992 219.055 312.61 221.164 303.602C223.273 294.594 224.156 286.934 224.413 281.841Z" fill="black"/>
<path d="M139.66 309.438C139.639 309.609 139.619 309.78 139.599 309.951C139.439 311.297 139.281 312.66 139.122 314.038C141.369 313.567 143.787 312.817 146.386 311.731C154.688 307.965 166.489 297.702 180.064 273.518C184.128 265.499 191.033 256.062 194.658 251.909C194.658 251.909 194.976 251.581 195.523 251.077C195.569 251.035 195.616 250.992 195.665 250.948C197.568 249.218 201.83 245.759 205.471 245.773C207.126 245.779 209.645 246.506 209.645 246.506C211.523 245.714 213.449 245.134 215.279 244.726C215.279 244.726 211.183 240.735 204.875 241.143C197.768 241.603 190.932 249.18 190.635 249.512C190.626 249.523 190.62 249.529 190.61 249.539C190.134 250.031 189.669 250.545 189.212 251.077C184.681 256.358 180.805 263.286 177.098 269.595C172.201 277.928 171.213 280.502 166.725 286.355C155.567 299.914 152.067 304.833 144.88 307.698C143.009 308.444 141.273 309.016 139.66 309.438Z" fill="black"/>
<path d="M139.122 314.038C139.281 312.66 139.439 311.297 139.599 309.951C139.619 309.78 139.639 309.609 139.66 309.438C127.709 312.564 122.52 307.459 119.582 303.712C114.058 296.666 115.204 283.264 118.813 272.891C121.701 264.592 124.658 252.474 125.775 247.452C124.415 244.937 123.238 242.394 122.225 239.888C121.763 245.208 120.069 256.209 116.208 266.707C112.676 276.312 107.404 295.253 115.957 306.129C119.681 310.864 126.849 316.611 139.122 314.038Z" fill="black"/>
<path d="M313.958 214.449C313.061 214.259 311.451 214.359 309.611 214.602C310.27 215.85 310.997 217.382 311.756 219.168C314.368 216.623 314.405 215.204 313.958 214.449Z" fill="black"/>
<path fill-rule="evenodd" clip-rule="evenodd" d="M268.18 230.745L273.326 245.402C269.891 246.719 266.825 248.329 264.352 249.739C263.393 250.286 262.524 250.802 261.756 251.26L261.756 251.26C262.661 252.813 264.369 255.985 265.407 259.426C267.256 265.559 269.921 278.688 266.207 287.292C270.345 287.696 277.077 287.816 284.361 287.076C293.306 286.167 303.161 283.926 310.333 279.199C322.103 271.965 320.298 255.079 319.184 245.161C317.325 234.384 314.356 225.29 311.756 219.168C310.997 217.382 310.27 215.85 309.611 214.602C306.582 215.001 302.932 215.787 300.823 216.301C289.383 218.89 281.834 222.568 275.274 226.015C272.143 227.661 269.823 229.308 268.18 230.745Z" fill="#B5602A"/>
<path d="M265.435 234.505C266.075 235.478 267.098 236.603 270.4 237.08L273.326 245.402L268.18 230.745C266.596 232.131 265.64 233.322 265.192 234.128C265.273 234.257 265.354 234.382 265.435 234.505Z" fill="black"/>
<path d="M231.336 211.138L171.48 206.603L169.769 235.494C169.188 240.186 171.307 248.519 180.064 250.104C182.313 250.428 187.291 251.077 189.212 251.077C189.669 250.545 190.134 250.031 190.61 249.539C190.62 249.529 190.626 249.523 190.635 249.512C190.932 249.18 197.768 241.603 204.875 241.143C211.183 240.735 215.279 244.726 215.279 244.726C218.139 244.089 220.765 243.868 222.608 243.905C223.323 243.839 224.918 244.098 225.825 244.253C227.347 242.775 227.708 239.119 228.148 236.514L231.336 211.138Z" fill="#4766C0"/>
<path d="M171.982 150.892C176.911 148.086 177.16 145.781 176.627 144.552C176.093 143.322 174.022 141.306 170.004 143.076C168.194 145.296 164.135 150.754 162.377 154.831C163.445 154.533 166.662 153.92 171.982 150.892Z" fill="#EFA800"/>
<path fill-rule="evenodd" clip-rule="evenodd" d="M186.419 143.555C183.388 143.609 180.382 143.818 176.627 144.552C177.121 145.69 176.943 147.751 172.998 150.279C170.533 159.08 166.709 177.668 165.546 189.67C165.488 190.272 165.436 190.859 165.391 191.427C165.121 194.833 164.794 199.801 170.381 200.09C173.363 200.244 176.668 199.603 177.663 190.219C179.358 174.227 183.501 155.035 186.419 143.555ZM167.415 191.427C167.764 189.639 169.155 188.423 170.977 188.414C173.059 188.404 174.71 190.227 174.618 192.306C174.53 194.293 172.967 195.866 170.977 195.868C168.754 195.871 166.989 193.609 167.415 191.427Z" fill="#1E3A8A"/>
<path d="M165.546 189.67C166.709 177.668 170.533 159.08 172.998 150.279C172.684 150.48 172.345 150.685 171.982 150.892C166.662 153.92 163.445 154.533 162.377 154.831C153.974 172.746 152.551 197.516 154.357 214.261C154.684 212.291 155.106 210.267 155.578 208.001L155.667 207.573C155.877 206.566 156.096 205.51 156.32 204.39C158.583 193.081 163.752 190.276 165.546 189.67Z" fill="#AFD1FA"/>
<path d="M151.89 170.645C148.245 183.908 145.851 202.355 148.811 219.319L151.89 218.052C148.759 206.16 148.84 184.468 151.89 170.645Z" fill="#AFD1FA"/>
<path d="M144.644 126.96C136.032 131.115 129.035 142.804 126.158 148.648C121.136 159.031 112.865 181.462 115.157 204.39C115.753 212.048 116.49 216.976 117.212 221.746C117.952 226.633 119.491 233.121 122.225 239.888C123.238 242.394 124.415 244.937 125.775 247.452C130.331 255.871 136.949 263.962 146.386 269.203C146.498 268.645 146.728 267.804 147.1 266.707C140.984 262.257 134.979 255.869 129.422 245.804C117.699 224.571 119.566 194.707 119.566 194.707C120.042 176.697 127.082 137.942 151.443 127.007C149.617 125.899 147.357 125.651 144.644 126.96Z" fill="black"/>
<path d="M119.566 194.707C119.566 194.707 117.699 224.571 129.422 245.804C134.979 255.869 140.984 262.257 147.1 266.707C147.409 265.8 147.815 264.718 148.332 263.477C145.527 260.695 143.035 257.789 140.821 254.802C125.259 233.806 123.477 208.829 123.851 195.272C125.072 150.974 145.081 134.251 154.982 130.917C154.068 129.305 152.892 127.886 151.443 127.007C127.082 137.942 120.042 176.697 119.566 194.707Z" fill="#494847"/>
<path d="M154.982 130.917C145.081 134.251 125.072 150.974 123.851 195.272C123.477 208.829 125.259 233.806 140.821 254.802C143.035 257.789 145.527 260.695 148.332 263.477C148.862 262.208 149.508 260.773 150.285 259.19C131.588 241.155 128.301 214.877 129.955 195.272C132.764 161.987 142.045 140.016 156.199 133.551C155.864 132.654 155.459 131.759 154.982 130.917Z" fill="black"/>
<path d="M156.199 133.551C142.045 140.016 132.764 161.987 129.955 195.272C128.301 214.877 131.588 241.155 150.285 259.19C150.795 258.15 151.362 257.047 151.989 255.884C137.794 241.266 133.092 212.939 134.506 195.868C138.595 146.529 153.527 140.785 157.09 136.642C156.889 135.662 156.592 134.605 156.199 133.551Z" fill="#494847"/>
<path d="M176.627 144.552C180.382 143.818 183.388 143.609 186.419 143.555C187.453 143.537 188.489 143.537 189.558 143.54C181.303 138.588 162.377 135.929 151.443 158.801C146.693 168.735 139.622 190.162 143.326 213.539C144.804 222.87 148.838 238.856 156.247 248.823L157.713 246.752C157.027 244.663 155.544 240.115 154.838 237.83L149.917 224.571C149.487 222.842 149.12 221.088 148.811 219.319C145.851 202.355 148.245 183.908 151.89 170.645C152.618 167.345 153.515 164.494 154.578 162.332C153.649 164.768 152.736 167.567 151.89 170.645C148.84 184.468 148.759 206.16 151.89 218.052C152.398 219.982 152.991 221.654 153.669 222.992C153.659 222.398 153.66 221.82 153.672 221.254C153.722 218.797 153.975 216.566 154.357 214.261C152.551 197.516 153.974 172.746 162.377 154.831C164.135 150.754 168.194 145.296 170.004 143.076C174.022 141.306 176.093 143.322 176.627 144.552Z" fill="black"/>
<path d="M195.705 128.482C191.383 124.678 184.696 122.785 181.893 122.314C181.979 123.532 181.983 125.012 181.835 126.693C185.257 127.409 192.704 129.599 195.107 132.625C195.348 131.181 195.547 129.771 195.705 128.482Z" fill="#494847"/>
<path d="M181.835 126.693C181.826 126.797 181.816 126.901 181.806 127.007C181.601 128.125 181.283 129.004 180.9 129.69C184.492 130.391 192.258 132.521 194.587 135.434C194.778 134.498 194.951 133.554 195.107 132.625C192.704 129.599 185.257 127.409 181.835 126.693Z" fill="black"/>
<path d="M196.102 124.523C195.384 124.301 194.808 124.031 194.477 123.837C194.477 123.837 192.289 122.705 190.56 120.62C188.657 119.709 184.521 118.168 180.9 118.168C181.033 118.425 181.157 118.693 181.272 118.972C181.515 119.513 181.778 120.676 181.893 122.314C184.696 122.785 191.383 124.678 195.705 128.482C195.894 126.945 196.025 125.577 196.102 124.523Z" fill="black"/>
<path d="M180.9 129.69C179.661 131.907 177.735 132.104 176.715 131.824C176.6 132.065 176.416 132.338 176.125 132.632C180.524 132.989 188.538 134.617 193.458 140.001C193.888 138.575 194.264 137.016 194.587 135.434C192.258 132.521 184.492 130.391 180.9 129.69Z" fill="#494847"/>
<path d="M163.209 133.347C161.941 139.888 157.461 138.604 157.152 136.956C157.132 136.852 157.112 136.748 157.09 136.642C153.527 140.785 138.595 146.529 134.506 195.868C133.092 212.939 137.794 241.266 151.989 255.884C152.645 254.669 153.368 253.389 154.161 252.051C145.082 241.263 138.069 222.603 138.069 196.653C140.438 154.831 158.234 140.226 167.085 138.023C167.734 138.175 169.413 138.249 170.191 137.031C176.014 135.509 185.272 136.335 192.303 143.152C192.723 142.232 193.105 141.169 193.452 140.021C193.454 140.014 193.456 140.008 193.458 140.001C188.538 134.617 180.524 132.989 176.125 132.632C175.839 132.92 175.45 133.229 174.92 133.551C173.158 134.619 171.379 133.791 170.599 132.939C170.594 133.162 170.586 133.388 170.576 133.616C170.531 134.586 170.254 135.557 169.605 136.28C166.831 139.375 164.237 135.778 163.209 133.347Z" fill="black"/>
<path d="M192.303 143.152C185.272 136.335 176.014 135.509 170.191 137.031C169.413 138.249 167.734 138.175 167.085 138.023C158.234 140.226 140.438 154.831 138.069 196.653C138.069 222.603 145.082 241.263 154.161 252.051C154.538 251.415 154.931 250.766 155.34 250.104L156.247 248.823C148.838 238.856 144.804 222.87 143.326 213.539C139.622 190.162 146.693 168.735 151.443 158.801C162.377 135.929 181.303 138.588 189.558 143.54C190.386 143.543 191.234 143.547 192.116 143.547C192.179 143.419 192.242 143.287 192.303 143.152Z" fill="#494847"/>
<path d="M171.413 114.314C173.207 115.803 176.533 120.336 176.91 130.917V130.919C176.91 131.101 176.91 131.418 176.715 131.824C177.735 132.104 179.661 131.907 180.9 129.69C181.283 129.004 181.601 128.125 181.806 127.007C181.816 126.901 181.826 126.797 181.835 126.693C181.983 125.012 181.979 123.532 181.893 122.314C181.778 120.676 181.515 119.513 181.272 118.972C181.157 118.693 181.033 118.425 180.9 118.168C178.111 112.762 171.497 111.885 167.65 112.346C168.935 112.726 169.816 112.987 171.413 114.314Z" fill="#EFA800"/>
<path d="M238.003 193.499C236.06 192.967 234.075 194.106 233.515 196.041C232.982 197.879 233.849 199.737 235.618 200.467C237.345 201.179 239.191 200.546 240.153 198.944C241.331 196.985 240.208 194.102 238.003 193.499Z" fill="#979595"/>
<path d="M170.977 188.414C169.155 188.423 167.764 189.639 167.415 191.427C166.989 193.609 168.754 195.871 170.977 195.868C172.967 195.866 174.53 194.293 174.618 192.306C174.71 190.227 173.059 188.404 170.977 188.414Z" fill="#979595"/>
<path d="M182.214 97.5193C182.214 97.5193 182.792 87.9532 187.079 80.5459C192.069 71.9226 198.287 66.5466 207.621 64.0397M182.214 97.5193C186.812 95.0241 196.987 89.7637 218.481 86.9892C221.812 86.5591 225.285 86.3402 228.571 86.2489M182.214 97.5193C180.656 98.3648 178.886 101.659 181.303 103.672M244.657 86.6596C244.657 86.6596 242.197 79.1801 239.4 75.4231C231.365 62.994 216.849 61.9568 209.394 63.6061C208.791 63.7396 208.2 63.8842 207.621 64.0397M244.657 86.6596C253.131 87.6326 258.479 89.1919 256.235 93.5703M244.657 86.6596C244.657 86.6596 237.268 86.0073 228.571 86.2489M256.235 93.5703C253.993 91.8894 248.947 91.4203 242.35 91.2576M256.235 93.5703C255.105 95.4206 248.756 97.3962 245.723 98.1528M181.303 103.672C181.905 104.173 182.767 104.595 183.956 104.879C183.678 106.449 184.129 110.291 188.586 113.342M181.303 103.672C181.727 102.683 183.799 100.225 188.695 98.304C192.897 96.6557 199.433 95.0152 206.742 93.722M207.621 64.0397C212.198 63.9476 221.82 66.7575 226.704 79.2995C227.279 80.5584 228.148 83.3954 228.571 86.2489M188.586 113.342C188.609 113.159 188.636 112.983 188.666 112.811M188.586 113.342C188.496 114.055 188.462 114.852 188.508 115.739M206.742 93.722C213.766 92.4794 221.504 91.5575 228.571 91.2576C233.421 91.0517 238.157 91.1541 242.35 91.2576M206.742 93.722C206.742 93.722 209.379 95.682 209.379 97.8644C209.379 99.5342 207.835 101.175 207.11 101.854C206.93 102.023 206.943 102.322 207.124 102.491C208.123 103.428 209.056 105.325 206.742 107.406C206.182 112.156 205.967 122.788 210.022 125.375C212.407 126.896 215.499 127.98 218.449 125.092C220.034 123.209 221.337 121.203 226.421 120.965C231.6 120.965 239.243 120.77 243.072 122.001C243.614 122.175 244.269 122.623 245.079 124.667C245.182 124.927 245.464 125.078 245.686 124.909C246.618 124.204 247.893 121.694 247.893 114.803M188.508 115.739C188.61 117.698 189.498 119.339 190.56 120.62M188.508 115.739C188.45 114.626 188.518 113.654 188.666 112.811M199.35 124.888L199.774 109.415C196.353 105.429 193.152 106.742 191.457 107.908C191.457 107.908 189.307 109.157 188.666 112.811M199.35 124.888L199.319 126.018C199.168 130.59 200.277 139.844 207.354 145.258C212.849 149.461 223.248 155.14 238.646 149.632M199.35 124.888C198.179 125.015 197.024 124.808 196.102 124.523M242.35 91.2576C243.395 92.897 244.677 94.6209 245.723 98.1528M247.152 105.845C247.356 109.509 248.081 117.525 248.659 121.09M247.152 105.845C246.797 102.553 246.295 100.083 245.723 98.1528M247.152 105.845C247.269 107.951 247.559 111.493 247.893 114.803M248.659 121.09C249.08 123.104 249.88 127.879 249.71 130.867C249.71 139.271 246.801 144.587 241.895 147.887M248.659 121.09C248.413 119.574 248.141 117.252 247.893 114.803M196.102 124.523C195.384 124.301 194.808 124.031 194.477 123.837C194.477 123.837 192.289 122.705 190.56 120.62M196.102 124.523C196.025 125.577 195.894 126.945 195.705 128.482M192.116 143.547C190.955 148.004 190.428 158.475 199.052 165.769C203.243 169.312 213.114 175.106 228.226 167.134C231.02 165.377 234.858 162.106 237.156 158.44C240.269 153.695 239.447 150.59 238.646 149.632M192.116 143.547C191.234 143.547 190.386 143.543 189.558 143.54M192.116 143.547C192.61 142.542 193.055 141.338 193.452 140.021M192.116 143.547C192.179 143.419 192.242 143.287 192.303 143.152M241.895 147.887C241.002 148.487 240.043 149.021 239.023 149.495C238.897 149.541 238.772 149.587 238.646 149.632M241.895 147.887C244.773 148.578 248.534 149.612 252.676 150.974M252.676 150.974C255.85 152.017 259.247 153.252 262.641 154.672M252.676 150.974C244.777 158.899 236.459 178.875 231.336 193.499M262.641 154.672C269.981 157.744 277.308 161.68 282.336 166.412C289.304 172.97 296.805 182.309 302.785 193.499L313.958 214.449M262.641 154.672C257.281 163.868 249.61 181.718 245.394 194.064M313.958 214.449C313.061 214.259 311.451 214.359 309.611 214.602M313.958 214.449C314.405 215.204 314.368 216.623 311.756 219.168M311.604 219.314C311.656 219.265 311.706 219.216 311.756 219.168M254.638 198.222C254.46 200.927 255.093 208.297 257.416 214.983C258.631 219.217 261.851 228.827 265.192 234.128M265.192 234.128C265.273 234.257 265.354 234.382 265.435 234.505C266.075 235.478 267.098 236.603 270.4 237.08L273.326 245.402M265.192 234.128C265.64 233.322 266.596 232.131 268.18 230.745M309.611 214.602C306.582 215.001 302.932 215.787 300.823 216.301C289.383 218.89 281.834 222.568 275.274 226.015C272.143 227.661 269.823 229.308 268.18 230.745M309.611 214.602C310.27 215.85 310.997 217.382 311.756 219.168M268.159 230.685L268.18 230.745M273.344 245.455L273.326 245.402M261.756 251.26C262.524 250.802 263.393 250.286 264.352 249.739M261.756 251.26L261.756 251.26M261.756 251.26C261.745 251.24 261.733 251.22 261.722 251.201M290.779 243.163C284.638 242.071 278.555 243.397 273.326 245.402M266.167 287.288C266.18 287.29 266.193 287.291 266.207 287.292M245.394 194.064C244.798 195.81 244.271 197.446 243.829 198.932C243.826 198.94 243.826 198.943 243.823 198.951C243.752 199.206 241.554 206.8 234.629 204.578C227.764 202.375 230.721 195.272 230.721 195.272C230.921 194.691 231.126 194.099 231.336 193.499M245.394 194.064C247.309 194.425 250.58 197.174 250.071 205.426C249.365 216.866 250.589 231.037 256.662 239.825C257.918 241.831 261.213 246.622 264.352 249.739M284.361 287.076C293.306 286.167 303.161 283.926 310.333 279.199C322.103 271.965 320.298 255.079 319.184 245.161C317.325 234.384 314.356 225.289 311.756 219.168M284.361 287.076C288.416 298.51 294.968 329.792 283.365 350.603C283.227 350.851 283.152 351.129 283.152 351.412V383.967L283.764 401.041H219.893C215.102 385.184 209.572 357.159 206.862 341.03M284.361 287.076C277.077 287.816 270.345 287.696 266.207 287.292M174.932 313.301C181.662 318.18 193.68 326.871 200.732 331.91M206.862 341.03C206.525 339.027 206.232 337.207 205.989 335.616C205.249 335.123 203.327 333.764 200.732 331.91M206.862 341.03C202.762 359.643 194.338 397.702 193.434 401.041H131.321M131.321 401.041C132.788 378.85 135.788 343.108 139.122 314.038M131.321 401.041C132.857 377.798 136.076 339.689 139.599 309.951M146.386 269.203C136.949 263.962 130.331 255.871 125.775 247.452M146.386 269.203C146.498 268.645 146.728 267.804 147.1 266.707M146.386 269.203C144.26 275.211 141.9 290.608 139.66 309.438M146.386 269.203C144.241 275.265 141.857 290.888 139.599 309.951M196.683 273.518C195.537 288.443 194.36 317.02 200.732 331.91M246.744 253.918C248.301 253.051 254.005 251.286 256.662 250.512C258.958 249.875 260.415 249.7 261.047 250.17C261.12 250.225 261.176 250.3 261.224 250.378C261.317 250.525 261.491 250.807 261.722 251.201M246.744 253.918C247.963 255.869 250.476 260.662 250.777 264.228M246.744 253.918C241.92 250.917 232.557 245.4 225.825 244.253M181.46 271.368C186.964 271.933 199.696 273.154 206.601 273.518M177.663 190.219L231.336 193.499M177.663 190.219C179.358 174.227 183.501 155.035 186.419 143.555M177.663 190.219C176.668 199.603 173.363 200.244 170.381 200.09C164.794 199.801 165.121 194.833 165.391 191.427C165.436 190.859 165.488 190.272 165.546 189.67M225.825 244.253C224.918 244.098 223.323 243.839 222.608 243.905C220.765 243.868 218.139 244.089 215.279 244.726M225.825 244.253C227.347 242.775 227.708 239.119 228.148 236.514L231.336 211.138L171.48 206.603L169.769 235.494C169.188 240.186 171.307 248.519 180.064 250.104C182.313 250.428 187.291 251.077 189.212 251.077M204.357 249.523C205.979 248.282 207.788 247.29 209.645 246.506M204.357 249.523L204.3 249.567M204.357 249.523C204.338 249.538 204.319 249.552 204.3 249.567M195.523 251.077H202.465M195.523 251.077C194.976 251.581 194.658 251.909 194.658 251.909M195.523 251.077C195.569 251.035 195.616 250.992 195.665 250.948M203.76 259.928C202.204 259.074 201.197 257.658 200.889 257.056C199.097 253.548 202.268 251.122 204.3 249.567M203.76 259.928C202.699 262.151 201.987 266.551 207.699 269.077M203.76 259.928C205.497 258.008 210.543 253.811 216.833 252.38M207.699 269.077C207.699 269.077 205.911 271.792 206.899 274.209C207.749 276.289 211.733 277.332 211.733 277.332M207.699 269.077C209.216 267.246 212.753 264.165 221.101 262.031M211.733 277.332C210.927 278.692 210.54 282.065 215.436 284.676C216.874 285.443 218.714 286.072 219.534 286.335M211.733 277.332C212.983 276.029 217.401 273.12 225.072 271.902M219.596 286.355C218.887 292.204 217.446 300.658 215.954 305.501M219.596 286.355C219.576 286.349 219.555 286.342 219.534 286.335M219.596 286.355L219.534 286.335M217.366 283.484C217.827 282.889 218.9 282.503 220.202 282.254M224.413 281.841C224.948 281.821 225.46 281.811 225.927 281.807C226.636 281.8 227.323 282.035 227.908 282.436C237.151 288.761 244.398 286.431 247.105 284.708C248.461 284.77 257.504 287.532 261.763 288.898C262.774 289.29 264.634 289.902 265.407 288.898C265.701 288.383 265.967 287.847 266.207 287.292M224.413 281.841C224.156 286.934 223.273 294.594 221.164 303.602C219.055 312.61 215.028 324.992 217.037 336.589C217.64 340.073 217.696 343.196 222.796 349.269C223.471 350.258 224.166 350.635 222.796 352.486C221.189 354.658 219.689 353.391 219.14 352.486C215.672 348.092 215.526 347.057 214.244 344.42C208.418 332.443 213.097 314.776 215.954 305.501M224.413 281.841C223.035 281.891 221.504 282.004 220.202 282.254M215.954 305.501C217.421 300.74 218.82 292.264 219.534 286.335M190.56 120.62C188.657 119.709 184.521 118.168 180.9 118.168M180.9 118.168C181.033 118.425 181.157 118.693 181.272 118.972M180.9 118.168C178.111 112.762 171.497 111.885 167.65 112.346M176.627 144.552C180.382 143.818 183.388 143.609 186.419 143.555M176.627 144.552C177.16 145.781 176.911 148.086 171.982 150.892M176.627 144.552C176.093 143.322 174.022 141.306 170.004 143.076C168.194 145.296 164.135 150.754 162.377 154.831M176.627 144.552C177.121 145.69 176.943 147.751 172.998 150.279M264.352 249.739C266.825 248.329 269.891 246.719 273.326 245.402M186.419 143.555C187.453 143.537 188.489 143.537 189.558 143.54M172.998 150.279C170.533 159.08 166.709 177.668 165.546 189.67M172.998 150.279C172.684 150.48 172.345 150.685 171.982 150.892M165.546 189.67C163.752 190.276 158.583 193.081 156.32 204.39C156.096 205.51 155.877 206.566 155.667 207.573M154.383 214.499C154.375 214.42 154.366 214.341 154.357 214.261M171.982 150.892C166.662 153.92 163.445 154.533 162.377 154.831M162.377 154.831C153.974 172.746 152.551 197.516 154.357 214.261M126.158 148.648C129.035 142.804 136.032 131.115 144.644 126.96C147.357 125.651 149.617 125.899 151.443 127.007M126.158 148.648C124.011 145.687 118.914 140.407 113.573 140.644C112.802 140.678 112.089 141.023 111.469 141.482L109.758 142.747M126.158 148.648C121.136 159.031 112.865 181.462 115.157 204.39C115.753 212.048 116.49 216.976 117.212 221.746M109.758 142.747C109 142.182 107.875 139.938 110.386 138.525L125.279 130.035C127.052 128.968 127.931 127.788 132.733 123.099C135.626 120.274 142.93 114.32 149.007 113.102C150.304 112.969 152.053 113.043 153.966 113.337M109.758 142.747C103.8 147.46 93.8035 157.185 86.9717 169.535C80.5218 181.195 73.0487 205.121 92.4329 216.583C96.3405 218.686 106.416 221.746 117.212 221.746M163.209 133.347C161.941 139.888 157.461 138.604 157.152 136.956C157.132 136.852 157.112 136.748 157.09 136.642M163.209 133.347C163.209 130.067 162.655 128.586 162.377 127.713C159.741 119.38 151.785 118.171 148.771 118.47M163.209 133.347C164.237 135.778 166.831 139.375 169.606 136.28C170.254 135.557 170.531 134.586 170.576 133.616C170.586 133.388 170.594 133.162 170.599 132.939M117.212 221.746C117.952 226.633 119.491 233.121 122.225 239.888M153.966 113.337C154.519 113.422 155.087 113.526 155.661 113.648C162.597 115.128 166.608 116.345 168.545 121.09C169.347 122.734 170.742 127.191 170.599 132.939M153.966 113.337C156.418 112.383 161.942 110.654 167.65 112.346M176.91 130.917C176.533 120.336 173.207 115.803 171.413 114.314C169.816 112.987 168.935 112.726 167.65 112.346M176.91 130.917V130.919M176.91 130.917C176.91 130.918 176.91 130.919 176.91 130.919M170.599 132.939C171.379 133.791 173.158 134.619 174.92 133.551C175.45 133.229 175.839 132.92 176.125 132.632M167.65 112.346C171.68 111.863 178.748 112.848 181.272 118.972M167.65 112.346C167.676 112.354 167.625 112.339 167.65 112.346ZM181.272 118.972C181.515 119.513 181.778 120.676 181.893 122.314M176.715 131.824C177.735 132.104 179.661 131.907 180.9 129.69M176.715 131.824C176.6 132.065 176.416 132.338 176.125 132.632M176.715 131.824C176.91 131.418 176.91 131.101 176.91 130.919M181.893 122.314C184.696 122.785 191.383 124.678 195.705 128.482M181.893 122.314C181.979 123.532 181.983 125.012 181.835 126.693M195.705 128.482C195.547 129.772 195.348 131.181 195.107 132.625M181.835 126.693C181.826 126.797 181.816 126.901 181.806 127.007C181.601 128.125 181.283 129.004 180.9 129.69M181.835 126.693C185.257 127.409 192.704 129.599 195.107 132.625M195.107 132.625C194.951 133.554 194.778 134.498 194.587 135.434M180.9 129.69C184.492 130.391 192.258 132.521 194.587 135.434M194.587 135.434C194.264 137.016 193.888 138.575 193.458 140.001M176.125 132.632C180.524 132.989 188.538 134.617 193.458 140.001M193.447 140.04C193.438 140.03 193.445 140.025 193.452 140.021M192.303 143.152C185.272 136.335 176.014 135.509 170.191 137.031C169.413 138.249 167.734 138.175 167.085 138.023C158.234 140.226 140.438 154.831 138.069 196.653C138.069 222.603 145.082 241.263 154.161 252.051M192.303 143.152C192.723 142.232 193.105 141.169 193.452 140.021M153.669 222.992C153.768 228.542 154.878 235.461 157.713 246.752M153.669 222.992C153.659 222.398 153.66 221.82 153.672 221.254M153.669 222.992C152.991 221.654 152.398 219.982 151.89 218.052M151.443 127.007C127.082 137.942 120.042 176.697 119.566 194.707C119.566 194.707 117.699 224.571 129.422 245.804C134.979 255.869 140.984 262.257 147.1 266.707M151.443 127.007C152.892 127.886 154.068 129.305 154.982 130.917M154.982 130.917C145.081 134.251 125.072 150.974 123.851 195.272C123.477 208.829 125.259 233.806 140.821 254.802M154.982 130.917C155.459 131.759 155.864 132.654 156.199 133.551M122.225 239.888C121.763 245.208 120.069 256.209 116.208 266.707C112.676 276.312 107.404 295.253 115.957 306.129C119.681 310.864 126.849 316.611 139.122 314.038M122.225 239.888C123.238 242.394 124.415 244.937 125.775 247.452M125.775 247.452C124.658 252.474 121.701 264.592 118.813 272.891C115.204 283.264 114.058 296.666 119.582 303.712C122.52 307.459 127.709 312.564 139.66 309.438M156.199 133.551C142.045 140.016 132.764 161.987 129.955 195.272C128.301 214.877 131.588 241.155 150.285 259.19M156.199 133.551C156.592 134.605 156.889 135.662 157.09 136.642M157.09 136.642C153.527 140.785 138.595 146.529 134.506 195.868C133.092 212.939 137.794 241.266 151.989 255.884M189.558 143.54C181.303 138.588 162.377 135.929 151.443 158.801C146.693 168.735 139.622 190.162 143.326 213.539C144.804 222.87 148.838 238.856 156.247 248.823M215.279 244.726C215.279 244.726 211.183 240.735 204.875 241.143C197.768 241.603 190.932 249.18 190.635 249.512C190.626 249.523 190.62 249.529 190.61 249.539C190.134 250.031 189.669 250.545 189.212 251.077M215.279 244.726C213.449 245.134 211.523 245.714 209.645 246.506M209.645 246.506C209.645 246.506 207.126 245.779 205.471 245.773C201.83 245.759 197.568 249.218 195.665 250.948M194.658 251.909C191.033 256.062 184.128 265.499 180.064 273.518C166.489 297.702 154.688 307.965 146.386 311.731C143.787 312.817 141.369 313.567 139.122 314.038M194.658 251.909C194.658 251.909 195.031 251.524 195.665 250.948M189.212 251.077C184.681 256.358 180.805 263.286 177.098 269.595C172.201 277.928 171.213 280.502 166.725 286.355C155.567 299.914 152.067 304.833 144.88 307.698C143.009 308.444 141.273 309.016 139.66 309.438M148.368 263.512C145.549 260.72 143.044 257.802 140.821 254.802M150.259 259.243C150.227 259.213 150.316 259.22 150.285 259.19M154.194 252.089C154.183 252.076 154.172 252.064 154.161 252.051M156.247 248.823L157.713 246.752M156.247 248.823L155.34 250.104M151.989 255.884C151.362 257.047 150.795 258.15 150.285 259.19M151.989 255.884C152.645 254.669 153.368 253.389 154.161 252.051M155.34 250.104L157.713 246.752M155.34 250.104C154.931 250.766 154.538 251.415 154.161 252.051M147.1 266.707C147.409 265.8 147.815 264.718 148.332 263.477M157.713 246.752C157.027 244.663 155.544 240.115 154.838 237.83M157.713 246.752C154.575 234.253 153.55 227.111 153.672 221.254M273.326 245.402L268.18 230.745M191.457 117.307C191.457 117.307 191.897 114.106 193.454 113.342C194.591 112.783 196.698 113.342 196.698 113.342M266.207 287.292C269.921 278.688 267.256 265.559 265.407 259.426C264.369 255.985 262.661 252.813 261.756 251.26M139.66 309.438C139.639 309.609 139.619 309.78 139.599 309.951M139.122 314.038C139.281 312.66 139.439 311.297 139.599 309.951M154.838 237.83L149.917 224.571C149.487 222.842 149.12 221.088 148.811 219.319M154.838 237.83C154.8 237.706 154.764 237.587 154.73 237.477C154.769 237.604 154.807 237.728 154.845 237.848L154.838 237.83ZM151.89 170.645C152.618 167.345 153.515 164.494 154.578 162.332C153.649 164.768 152.736 167.567 151.89 170.645ZM151.89 170.645C148.245 183.908 145.851 202.355 148.811 219.319M151.89 170.645C148.84 184.468 148.759 206.16 151.89 218.052M153.672 221.254C153.722 218.797 153.975 216.566 154.357 214.261M155.578 208.001C155.608 207.859 155.637 207.717 155.667 207.573M155.578 208.001C155.106 210.267 154.684 212.291 154.357 214.261M155.578 208.001L155.667 207.573M261.722 251.201C261.733 251.221 261.745 251.24 261.756 251.26M219.534 286.335C219.721 284.779 219.861 283.398 219.943 282.306C220.028 282.288 220.115 282.27 220.202 282.254M148.811 219.319L151.89 218.052M148.332 263.477C145.527 260.695 143.035 257.789 140.821 254.802M148.332 263.477C148.862 262.208 149.508 260.773 150.285 259.19M150.285 259.19C151.328 257.064 152.608 254.67 154.161 252.051M193.458 140.001C193.456 140.008 193.454 140.014 193.452 140.021M193.458 140.001C193.467 140.011 193.46 140.016 193.452 140.021M227.018 126.41C229.775 127.101 236.123 128.068 239.776 126.41C240.781 125.955 242.334 126.646 241.895 131.181C241.65 133.057 240.176 136.602 236.245 136.994C235.522 137.066 234.859 136.69 234.241 136.307C232.975 135.522 232.008 136.032 231.125 136.638C230.763 136.885 230.357 137.064 229.923 137.124C223.445 138.03 221.51 134.179 221.368 132.28C220.929 126.379 224.261 125.72 227.018 126.41ZM238.003 193.499C236.06 192.967 234.075 194.106 233.515 196.041C232.982 197.879 233.849 199.737 235.618 200.467C237.345 201.179 239.191 200.546 240.153 198.944C241.331 196.985 240.208 194.102 238.003 193.499ZM170.977 188.414C169.155 188.423 167.764 189.639 167.415 191.427C166.989 193.609 168.754 195.871 170.977 195.868C172.967 195.866 174.53 194.293 174.618 192.306C174.71 190.227 173.059 188.404 170.977 188.414Z" stroke="black" stroke-width="0.465116" stroke-linecap="round"/>
<path d="M234.593 111.696C234.593 111.696 239.53 113.849 240.211 116.389C240.892 118.928 238.443 121.103 238.443 121.103M230.434 120.83C230.403 120.448 230.607 119.606 231.674 119.292" stroke="black" stroke-width="0.697675" stroke-linecap="round"/>
<path d="M213.776 103.076C213.776 103.076 218.663 100.649 222.03 100.571C224.836 100.506 229.07 102.013 229.07 102.013M236.66 102.317C236.66 102.317 239.26 100.473 242.619 100.571C244.162 100.616 245.313 101.463 245.313 101.463" stroke="black" stroke-width="2.55814" stroke-linecap="round"/>
<path d="M242.377 106.596C241.026 106.641 239.999 107.887 240.133 109.232C240.271 110.614 241.637 111.669 242.989 111.351C244.043 111.103 244.68 110.311 244.778 109.232C244.904 107.845 243.769 106.549 242.377 106.596Z" fill="black"/>
<path d="M222.572 106.596C221.383 106.871 220.736 108.022 220.893 109.232C221.06 110.523 222.186 111.585 223.467 111.351C224.532 111.156 225.155 110.31 225.256 109.232C225.392 107.769 224.003 106.265 222.572 106.596Z" fill="black"/>
<path d="M242.377 106.596C241.026 106.641 239.999 107.887 240.133 109.232C240.271 110.614 241.637 111.669 242.989 111.351C244.043 111.103 244.68 110.311 244.778 109.232C244.904 107.845 243.769 106.549 242.377 106.596Z" stroke="black"/>
<path d="M222.572 106.596C221.383 106.871 220.736 108.022 220.893 109.232C221.06 110.523 222.186 111.585 223.467 111.351C224.532 111.156 225.155 110.31 225.256 109.232C225.392 107.769 224.003 106.265 222.572 106.596Z" stroke="black"/>
<path d="M224.819 129.11C224.819 129.11 228.731 132.39 231.756 132.594C234.751 132.797 239.037 130.13 239.037 130.13" stroke="black" stroke-width="0.697675" stroke-linecap="round"/>
</g>
<defs>
<clipPath id="clip0_827_1072">
<rect width="400" height="297" fill="white"/>
</clipPath>
</defs>
</svg>
