<svg width="517" height="133" viewBox="0 0 517 133" fill="none" xmlns="http://www.w3.org/2000/svg">
<path d="M18.6856 86.3169C21.4428 88.8896 25.3815 90.176 30.4494 90.176C34.6246 90.176 38.0382 89.3359 40.6903 87.682C43.3424 86.0281 44.5503 83.3767 44.3403 79.7277C44.2615 77.995 43.0798 76.1836 40.7691 74.3197C38.4583 72.4558 34.5458 71.2745 29.0052 70.7495C19.4471 69.8306 12.5936 67.1004 8.44474 62.5063C4.26962 57.9122 2.1952 52.4781 2.1952 46.2038C2.1952 42.0297 3.19301 38.1444 5.13615 34.4954C7.10554 30.8464 10.1253 27.9062 14.1691 25.6222C18.2129 23.3383 23.2021 22.2095 29.1103 22.2095C35.3336 22.2095 40.6378 23.4696 45.023 26.016C49.4082 28.5625 52.743 31.8177 54.975 35.8343C57.207 39.8508 58.3886 44.0512 58.5462 48.4352H44.5766C44.2615 45.1012 42.8435 42.1348 40.3227 39.5096C37.7756 36.8844 34.6246 35.598 30.8433 35.598C27.0621 35.598 23.6747 36.5956 20.9438 38.617C18.2129 40.6384 16.8475 43.0273 16.8475 45.8363C16.8475 48.934 18.1604 51.3755 20.8125 53.1081C23.4647 54.8407 27.1671 55.9171 31.9462 56.2846C42.1083 57.2034 49.3031 59.6711 53.6095 63.7139C57.8897 67.7567 60.0429 72.7971 60.0429 78.7563C60.0429 83.0092 58.9926 86.9995 56.8656 90.7535C54.7387 94.5075 51.4563 97.5265 46.9661 99.8367C42.5022 102.147 36.9353 103.302 30.2656 103.302C24.0423 103.302 18.7119 102.042 14.2479 99.4954C9.78393 96.949 6.34405 93.6937 3.95452 89.6772C1.56499 85.6606 0.252061 81.3815 0.0419922 76.8399H13.9065C14.3529 80.5415 15.981 83.6917 18.7381 86.2644L18.6856 86.3169Z" fill="#1E3A8A"/>
<path d="M64.5332 48.3827H74.0913L75.1154 54.1844C80.1308 48.8027 85.6976 46.125 91.8159 46.125C97.6453 46.2038 102.661 47.8576 106.888 51.0604C111.116 54.2631 113.19 59.3298 113.19 66.2341V102.252H99.5622L99.6672 70.3294C99.6672 67.2316 98.7744 64.6589 96.9888 62.6113C95.2033 60.5636 92.8137 59.5398 89.7677 59.5398C86.7217 59.5398 84.0434 60.5899 81.9164 62.6638C79.7895 64.7377 78.7391 67.3104 78.7391 70.3294L78.6341 102.383H65.0059L64.5595 48.4089L64.5332 48.3827Z" fill="#1E3A8A"/>
<path d="M131.807 99.7843C127.422 97.2378 123.956 93.7726 121.409 89.3885C118.862 85.0044 117.602 80.2265 117.602 75.0811C117.602 69.9357 118.862 65.0529 121.409 60.6425C123.956 56.2584 127.422 52.7932 131.807 50.2467C136.193 47.7003 141.024 46.4402 146.25 46.4402C149.663 46.4402 152.893 47.0177 155.965 48.1466C159.038 49.2754 161.821 50.8768 164.316 52.9244V48.4878H176.368V89.4935C176.368 90.7799 176.473 91.6462 176.657 92.1187C176.841 92.565 177.182 92.8275 177.681 92.9063C178.18 92.985 179.178 93.0113 180.701 93.0113V101.648C179.861 102.016 177.708 102.226 174.215 102.226C172.088 102.226 170.276 101.701 168.753 100.624C167.23 99.548 166.075 98.1567 165.235 96.424C162.583 98.708 159.642 100.467 156.438 101.701C153.208 102.961 149.821 103.565 146.276 103.565C141.05 103.565 136.245 102.304 131.834 99.758L131.807 99.7843ZM153.234 89.441C155.545 88.3384 157.488 86.6058 159.09 84.2168C160.692 81.8279 161.48 78.7827 161.48 75.0811C161.48 71.3796 160.692 68.3081 159.09 65.8667C157.488 63.4515 155.519 61.6926 153.182 60.59C150.845 59.4874 148.534 58.9361 146.25 58.9361C143.965 58.9361 141.549 59.4874 139.212 60.59C136.875 61.6926 134.906 63.4515 133.304 65.8667C131.702 68.2819 130.915 71.3534 130.915 75.0811C130.915 78.8089 131.702 81.8279 133.304 84.2168C134.906 86.6058 136.875 88.3384 139.212 89.441C141.549 90.5436 143.913 91.0949 146.25 91.0949C148.587 91.0949 150.924 90.5436 153.234 89.441Z" fill="#1E3A8A"/>
<path d="M227.625 50.588C232.01 53.0557 235.476 56.4422 238.024 60.7475C240.571 65.0529 241.831 69.8045 241.831 74.9499C241.831 80.0953 240.571 84.9782 238.024 89.3885C235.476 93.7726 232.01 97.2378 227.625 99.7843C223.24 102.331 218.408 103.591 213.183 103.591C206.96 103.591 201.445 101.806 196.587 98.2617V132.127H184.193V47.464H196.587V52.3469C201.577 48.6979 207.117 46.8865 213.183 46.8865C218.408 46.8865 223.214 48.1203 227.625 50.588ZM206.198 60.59C203.887 61.6926 201.944 63.4252 200.342 65.8142C198.741 68.2031 197.953 71.2484 197.953 74.9499C197.953 78.6514 198.741 81.7229 200.342 84.1643C201.944 86.5795 203.914 88.3384 206.251 89.441C208.588 90.5436 210.898 91.0949 213.183 91.0949C215.467 91.0949 217.883 90.5436 220.22 89.441C222.557 88.3384 224.527 86.5795 226.128 84.1643C227.73 81.7492 228.518 78.6777 228.518 74.9499C228.518 71.2221 227.73 68.1769 226.128 65.8142C224.527 63.4252 222.557 61.6926 220.22 60.59C217.883 59.4874 215.52 58.9362 213.183 58.9362C210.846 58.9362 208.509 59.4874 206.198 60.59Z" fill="#1E3A8A"/>
<path d="M261.158 48.3828L261.263 80.4365C261.263 83.4818 262.313 86.0282 264.44 88.1021C266.567 90.176 269.166 91.2261 272.291 91.2261C275.416 91.2261 278.016 90.176 280.143 88.1021C282.27 86.0282 283.32 83.4555 283.32 80.4365L283.215 48.5141H283.451V48.4091H297.079L297.184 80.4628C297.184 83.508 298.235 86.0545 300.362 88.1284C302.489 90.2023 305.088 91.2524 308.213 91.2524C311.338 91.2524 313.937 90.2023 316.064 88.1284C318.191 86.0545 319.242 83.4818 319.242 80.4628L319.137 48.5403H332.765V84.5581C332.765 89.2572 331.583 93.09 329.194 96.0827C326.804 99.0755 323.784 101.228 320.108 102.567C316.432 103.88 312.624 104.562 308.686 104.562C305.351 104.562 302.121 104.063 298.97 103.092C295.819 102.121 293.088 100.677 290.725 98.7604C288.44 100.729 285.709 102.199 282.532 103.145C279.355 104.09 276.099 104.562 272.764 104.562C268.51 104.562 264.466 103.748 260.606 102.121C256.746 100.493 253.621 98.2091 251.232 95.2427C248.842 92.3024 247.661 88.8897 247.661 85.0044L247.556 48.4091H261.184L261.158 48.3828Z" fill="#1E3A8A"/>
<path d="M351.513 100.598C347.128 98.0516 343.662 94.5863 341.115 90.2022C338.568 85.8181 337.308 81.0403 337.308 75.8949C337.308 70.7495 338.568 65.8666 341.115 61.4562C343.662 57.0722 347.128 53.6069 351.513 51.0605C355.899 48.514 360.73 47.2539 365.956 47.2539C371.181 47.2539 375.882 48.514 380.267 51.0605C384.652 53.6069 388.118 57.0722 390.665 61.4562C393.212 65.8403 394.473 70.6707 394.473 75.8949C394.473 81.119 393.212 85.8181 390.665 90.2022C388.118 94.5863 384.652 98.0516 380.267 100.598C375.882 103.144 371.102 104.405 365.956 104.405C360.809 104.405 355.925 103.144 351.513 100.598ZM372.941 90.2547C375.251 89.1521 377.194 87.4195 378.796 85.0306C380.398 82.6416 381.186 79.5964 381.186 75.8949C381.186 72.1933 380.398 69.1218 378.796 66.6804C377.194 64.2652 375.225 62.5063 372.888 61.4037C370.551 60.3012 368.24 59.7499 365.956 59.7499C363.671 59.7499 361.255 60.3012 358.918 61.4037C356.581 62.5063 354.612 64.2652 353.01 66.6804C351.408 69.0956 350.621 72.1671 350.621 75.8949C350.621 79.6227 351.408 82.6679 353.01 85.0306C354.612 87.4195 356.581 89.1521 358.918 90.2547C361.255 91.3573 363.619 91.9086 365.956 91.9086C368.293 91.9086 370.63 91.3573 372.941 90.2547Z" fill="#1E3A8A"/>
<path d="M415.348 62.585C413.037 64.6327 411.882 67.4416 411.882 70.9857L411.645 102.357L398.122 102.252L398.227 48.5139L409.256 48.4089L409.597 53.8694C415.138 48.724 421.413 46.2563 428.477 46.4925V59.2248C422.044 59.461 417.659 60.5899 415.348 62.6375V62.585Z" fill="#1E3A8A"/>
<path d="M432.784 24.4146H445.388V62.7162H454.132L471.411 48.2776L488.111 48.0414L463.113 69.8568L488.689 102.252H473.905L452.189 75.9998H445.362V102.252H432.758V24.4146H432.784Z" fill="#1E3A8A"/>
<path d="M494.326 5.58174C492.659 3.9052 489.827 4.47708 488.937 6.64764L480.036 27.4282C479.236 29.1291 480.006 31.1262 481.715 31.8572C483.425 32.5883 485.41 31.7302 486.076 30.0007L494.998 9.24365C495.552 8.00537 495.278 6.5494 494.326 5.58174Z" fill="#FEBC23"/>
<path d="M515.013 21.6252C513.712 20.3487 511.63 20.3678 510.349 21.6636L494.653 37.0406C493.216 38.3068 493.141 40.4689 494.483 41.8376C495.825 43.2062 498 43.1462 499.285 41.7378L514.982 26.3382C516.329 25.068 516.334 22.9478 515.034 21.6488L515.013 21.6252Z" fill="#FEBC23"/>
<path d="M468.258 2.01825C466.181 -0.105301 462.584 1.35703 462.61 4.31313L462.35 26.1817C462.267 28.0276 463.736 29.5824 465.591 29.5982C467.469 29.615 468.962 28.1257 468.933 26.2522L469.215 4.38467C469.255 3.48421 468.909 2.63402 468.258 2.01825Z" fill="#FEBC23"/>
</svg>
